<svg width="102" height="50" viewBox="0 0 102 50" fill="none" xmlns="http://www.w3.org/2000/svg">
<path d="M9.69584 12.0576L11.1014 12.8186L10.087 18.922C8.58697 28.0705 7.45569 36.0009 7.68757 35.9084C7.81758 35.8697 9.43006 34.2344 11.2533 32.277C19.8379 23.002 28.8633 16.0014 39.1538 10.5583C45.4989 7.23224 50.6155 5.16775 56.8074 3.46732C70.7512 -0.39758 83.8171 -1.02981 92.967 1.7433C95.7581 2.56386 101.342 5.47809 101.083 5.95598C100.961 6.18087 100.453 5.97834 99.5017 5.31793C97.2903 3.82968 95.5135 3.48564 88.3972 3.26778C75.7797 2.87044 67.4257 4.19995 56.0598 8.40642C40.6395 14.1256 27.9111 23.2654 13.6717 38.8213C11.9504 40.7248 10.4808 42.3648 10.4351 42.4491C10.3742 42.5615 11.5114 42.3412 12.9391 41.9872C14.3948 41.6485 18.9507 40.5527 23.045 39.5706L30.5276 37.7692L31.9953 38.8184C32.8059 39.4027 34.0358 40.2867 34.7339 40.8102L36.0329 41.768L28.1534 43.8997C20.5034 46.0103 13.5818 47.7155 8.7578 48.7025L6.39672 49.169L4.20403 47.9817C0.155979 45.7899 0.377444 46.4551 1.29329 38.9897C2.7121 27.5069 4.57536 19.5003 7.19558 13.7211L8.29027 11.2965L9.69584 12.0576Z" fill="black"/>
</svg>
