<svg width="252" height="81" viewBox="0 0 252 81" fill="none" xmlns="http://www.w3.org/2000/svg">
<path d="M97.23 35.0444V31.9244H102.81C104.45 31.9244 105.85 31.5944 107.01 30.9344C108.17 30.2744 109.05 29.3544 109.65 28.1744C110.27 26.9944 110.58 25.6444 110.58 24.1244C110.58 22.6244 110.27 21.3044 109.65 20.1644C109.05 19.0244 108.17 18.1444 107.01 17.5244C105.87 16.8844 104.47 16.5644 102.81 16.5644H97.29V13.4444H102.81C105.17 13.4444 107.23 13.8844 108.99 14.7644C110.75 15.6444 112.11 16.8944 113.07 18.5144C114.05 20.1144 114.54 22.0044 114.54 24.1844C114.54 26.3644 114.05 28.2744 113.07 29.9144C112.09 31.5344 110.72 32.7944 108.96 33.6944C107.22 34.5944 105.18 35.0444 102.84 35.0444H97.23ZM94.86 35.0444V13.4444H98.76V35.0444H94.86ZM117.51 35.0444V19.7444H121.29V35.0444H117.51ZM117.33 17.2244V13.0544H121.44V17.2244H117.33ZM131.906 41.4944C129.886 41.4944 128.226 41.0544 126.926 40.1744C125.646 39.2944 124.886 38.1044 124.646 36.6044H128.246C128.426 37.1244 128.816 37.5244 129.416 37.8044C130.036 38.1044 130.836 38.2544 131.816 38.2544C133.236 38.2544 134.286 37.9344 134.966 37.2944C135.646 36.6744 135.986 35.7244 135.986 34.4444V31.1444L136.256 31.2044C136.016 32.3244 135.406 33.2244 134.426 33.9044C133.446 34.5644 132.246 34.8944 130.826 34.8944C129.466 34.8944 128.276 34.5744 127.256 33.9344C126.256 33.2944 125.476 32.4044 124.916 31.2644C124.356 30.1044 124.076 28.7544 124.076 27.2144C124.076 25.6544 124.366 24.2944 124.946 23.1344C125.526 21.9744 126.336 21.0744 127.376 20.4344C128.436 19.7744 129.666 19.4444 131.066 19.4444C132.506 19.4444 133.686 19.7944 134.606 20.4944C135.546 21.1744 136.126 22.1244 136.346 23.3444L136.106 23.3744V19.7444H139.796V34.4144C139.796 36.5944 139.086 38.3144 137.666 39.5744C136.266 40.8544 134.346 41.4944 131.906 41.4944ZM132.056 31.8944C133.276 31.8944 134.246 31.4844 134.966 30.6644C135.706 29.8244 136.076 28.6544 136.076 27.1544C136.076 25.6544 135.706 24.4944 134.966 23.6744C134.226 22.8544 133.246 22.4444 132.026 22.4444C130.826 22.4444 129.856 22.8644 129.116 23.7044C128.376 24.5244 128.006 25.6844 128.006 27.1844C128.006 28.6844 128.376 29.8444 129.116 30.6644C129.856 31.4844 130.836 31.8944 132.056 31.8944ZM143.819 35.0444V19.7444H147.599V35.0444H143.819ZM143.639 17.2244V13.0544H147.749V17.2244H143.639ZM159.539 35.3144C156.819 35.3144 154.649 34.6944 153.029 33.4544C151.429 32.1944 150.489 30.4244 150.209 28.1444H153.959C154.139 29.4644 154.729 30.4944 155.729 31.2344C156.729 31.9544 158.039 32.3144 159.659 32.3144C160.999 32.3144 162.019 32.0744 162.719 31.5944C163.439 31.0944 163.799 30.4044 163.799 29.5244C163.799 28.7444 163.579 28.1144 163.139 27.6344C162.699 27.1544 161.959 26.7644 160.919 26.4644L157.019 25.2944C155.039 24.6944 153.579 23.9044 152.639 22.9244C151.719 21.9444 151.259 20.7144 151.259 19.2344C151.259 17.9944 151.579 16.9144 152.219 15.9944C152.859 15.0744 153.759 14.3644 154.919 13.8644C156.099 13.3644 157.469 13.1144 159.029 13.1144C161.429 13.1144 163.339 13.7044 164.759 14.8844C166.199 16.0444 167.019 17.6244 167.219 19.6244H163.469C163.249 18.4244 162.749 17.5444 161.969 16.9844C161.189 16.4044 160.139 16.1144 158.819 16.1144C157.659 16.1144 156.739 16.3444 156.059 16.8044C155.379 17.2644 155.039 17.8944 155.039 18.6944C155.039 19.3544 155.239 19.9144 155.639 20.3744C156.059 20.8344 156.829 21.2344 157.949 21.5744L161.909 22.7744C163.889 23.3544 165.329 24.1444 166.229 25.1444C167.129 26.1444 167.579 27.4144 167.579 28.9544C167.579 30.9944 166.869 32.5644 165.449 33.6644C164.049 34.7644 162.079 35.3144 159.539 35.3144ZM179.15 35.3444C177.69 35.3444 176.5 35.0044 175.58 34.3244C174.68 33.6244 174.12 32.6644 173.9 31.4444L174.2 31.4144V41.1944H170.42V19.7444H174.11V23.1944L173.81 23.1344C174.09 21.9944 174.73 21.0944 175.73 20.4344C176.73 19.7744 177.95 19.4444 179.39 19.4444C180.75 19.4444 181.93 19.7744 182.93 20.4344C183.95 21.0744 184.74 21.9844 185.3 23.1644C185.86 24.3444 186.14 25.7344 186.14 27.3344C186.14 28.9544 185.85 30.3644 185.27 31.5644C184.69 32.7644 183.88 33.6944 182.84 34.3544C181.8 35.0144 180.57 35.3444 179.15 35.3444ZM178.19 32.2244C179.41 32.2244 180.38 31.8044 181.1 30.9644C181.82 30.1044 182.18 28.9044 182.18 27.3644C182.18 25.8244 181.81 24.6344 181.07 23.7944C180.35 22.9544 179.38 22.5344 178.16 22.5344C176.96 22.5344 175.99 22.9644 175.25 23.8244C174.51 24.6644 174.14 25.8544 174.14 27.3944C174.14 28.9344 174.51 30.1244 175.25 30.9644C175.99 31.8044 176.97 32.2244 178.19 32.2244ZM189.053 35.0444V13.4444H192.833V35.0444H189.053ZM199.793 35.0444V25.3844C199.793 24.4444 199.553 23.7344 199.073 23.2544C198.593 22.7744 197.893 22.5344 196.973 22.5344C196.173 22.5344 195.453 22.7144 194.813 23.0744C194.193 23.4344 193.703 23.9344 193.343 24.5744C193.003 25.2144 192.833 25.9544 192.833 26.7944L192.443 23.1344C192.963 22.0144 193.723 21.1244 194.723 20.4644C195.723 19.7844 196.923 19.4444 198.323 19.4444C199.983 19.4444 201.273 19.9144 202.193 20.8544C203.133 21.7944 203.603 23.0444 203.603 24.6044V35.0444H199.793ZM214.292 35.3444C212.672 35.3444 211.252 35.0044 210.032 34.3244C208.832 33.6444 207.892 32.7044 207.212 31.5044C206.552 30.3044 206.222 28.9244 206.222 27.3644C206.222 25.8044 206.552 24.4344 207.212 23.2544C207.892 22.0544 208.832 21.1244 210.032 20.4644C211.232 19.7844 212.632 19.4444 214.232 19.4444C215.752 19.4444 217.072 19.7644 218.192 20.4044C219.312 21.0244 220.182 21.9044 220.802 23.0444C221.422 24.1844 221.732 25.5144 221.732 27.0344C221.732 27.3144 221.722 27.5744 221.702 27.8144C221.682 28.0544 221.652 28.2944 221.612 28.5344H208.562V25.8944H218.702L217.922 26.6144C217.922 25.1744 217.592 24.0944 216.932 23.3744C216.272 22.6544 215.352 22.2944 214.172 22.2944C212.892 22.2944 211.872 22.7344 211.112 23.6144C210.372 24.4944 210.002 25.7644 210.002 27.4244C210.002 29.0644 210.372 30.3244 211.112 31.2044C211.872 32.0644 212.942 32.4944 214.322 32.4944C215.122 32.4944 215.822 32.3444 216.422 32.0444C217.022 31.7444 217.462 31.2844 217.742 30.6644H221.312C220.812 32.1044 219.962 33.2444 218.762 34.0844C217.582 34.9244 216.092 35.3444 214.292 35.3444ZM224.561 35.0444V19.7444H228.251V23.4344H228.341V35.0444H224.561ZM228.341 27.0644L227.951 23.4344C228.311 22.1344 228.921 21.1444 229.781 20.4644C230.641 19.7844 231.671 19.4444 232.871 19.4444C233.291 19.4444 233.591 19.4844 233.771 19.5644V23.1344C233.671 23.0944 233.531 23.0744 233.351 23.0744C233.171 23.0544 232.951 23.0444 232.691 23.0444C231.231 23.0444 230.141 23.3644 229.421 24.0044C228.701 24.6444 228.341 25.6644 228.341 27.0644ZM242.798 35.3444C241.178 35.3444 239.758 35.0044 238.538 34.3244C237.338 33.6444 236.398 32.7044 235.718 31.5044C235.058 30.3044 234.728 28.9244 234.728 27.3644C234.728 25.8044 235.058 24.4344 235.718 23.2544C236.398 22.0544 237.338 21.1244 238.538 20.4644C239.738 19.7844 241.138 19.4444 242.738 19.4444C244.258 19.4444 245.578 19.7644 246.698 20.4044C247.818 21.0244 248.688 21.9044 249.308 23.0444C249.928 24.1844 250.238 25.5144 250.238 27.0344C250.238 27.3144 250.228 27.5744 250.208 27.8144C250.188 28.0544 250.158 28.2944 250.118 28.5344H237.068V25.8944H247.208L246.428 26.6144C246.428 25.1744 246.098 24.0944 245.438 23.3744C244.778 22.6544 243.858 22.2944 242.678 22.2944C241.398 22.2944 240.378 22.7344 239.618 23.6144C238.878 24.4944 238.508 25.7644 238.508 27.4244C238.508 29.0644 238.878 30.3244 239.618 31.2044C240.378 32.0644 241.448 32.4944 242.828 32.4944C243.628 32.4944 244.328 32.3444 244.928 32.0444C245.528 31.7444 245.968 31.2844 246.248 30.6644H249.818C249.318 32.1044 248.468 33.2444 247.268 34.0844C246.088 34.9244 244.598 35.3444 242.798 35.3444Z" fill="#4E4E4E"/>
<path d="M98.806 64.8818V53.7758H94.504V51.9218H105.448V53.7758H101.146V64.8818H98.806ZM109.224 65.0618C108.252 65.0618 107.4 64.8578 106.668 64.4498C105.948 64.0418 105.384 63.4778 104.976 62.7578C104.58 62.0378 104.382 61.2098 104.382 60.2738C104.382 59.3378 104.58 58.5158 104.976 57.8078C105.384 57.0878 105.948 56.5298 106.668 56.1338C107.388 55.7258 108.228 55.5218 109.188 55.5218C110.1 55.5218 110.892 55.7138 111.564 56.0978C112.236 56.4698 112.758 56.9978 113.13 57.6818C113.502 58.3658 113.688 59.1638 113.688 60.0758C113.688 60.2438 113.682 60.3998 113.67 60.5438C113.658 60.6878 113.64 60.8318 113.616 60.9758H105.786V59.3918H111.87L111.402 59.8238C111.402 58.9598 111.204 58.3118 110.808 57.8798C110.412 57.4478 109.86 57.2318 109.152 57.2318C108.384 57.2318 107.772 57.4958 107.316 58.0238C106.872 58.5518 106.65 59.3138 106.65 60.3098C106.65 61.2938 106.872 62.0498 107.316 62.5778C107.772 63.0938 108.414 63.3518 109.242 63.3518C109.722 63.3518 110.142 63.2618 110.502 63.0818C110.862 62.9018 111.126 62.6258 111.294 62.2538H113.436C113.136 63.1178 112.626 63.8018 111.906 64.3058C111.198 64.8098 110.304 65.0618 109.224 65.0618ZM119.487 65.0618C118.563 65.0618 117.747 64.8578 117.039 64.4498C116.343 64.0418 115.791 63.4778 115.383 62.7578C114.987 62.0258 114.789 61.1978 114.789 60.2738C114.789 59.3498 114.987 58.5338 115.383 57.8258C115.791 57.1058 116.343 56.5418 117.039 56.1338C117.747 55.7258 118.563 55.5218 119.487 55.5218C120.243 55.5218 120.927 55.6658 121.539 55.9538C122.151 56.2298 122.655 56.6258 123.051 57.1418C123.447 57.6458 123.699 58.2338 123.807 58.9058H121.629C121.497 58.4138 121.245 58.0298 120.873 57.7538C120.501 57.4778 120.051 57.3398 119.523 57.3398C119.031 57.3398 118.605 57.4598 118.245 57.6998C117.897 57.9398 117.627 58.2818 117.435 58.7258C117.243 59.1698 117.147 59.6858 117.147 60.2738C117.147 60.8738 117.243 61.3958 117.435 61.8398C117.627 62.2838 117.903 62.6318 118.263 62.8838C118.623 63.1238 119.043 63.2438 119.523 63.2438C120.051 63.2438 120.501 63.1058 120.873 62.8298C121.245 62.5538 121.497 62.1698 121.629 61.6778H123.807C123.699 62.3498 123.441 62.9438 123.033 63.4598C122.637 63.9638 122.133 64.3598 121.521 64.6478C120.921 64.9238 120.243 65.0618 119.487 65.0618ZM125.44 64.8818V51.9218H127.708V64.8818H125.44ZM131.884 64.8818V59.0858C131.884 58.5218 131.74 58.0958 131.452 57.8078C131.164 57.5198 130.744 57.3758 130.192 57.3758C129.712 57.3758 129.28 57.4838 128.896 57.6998C128.524 57.9158 128.23 58.2158 128.014 58.5998C127.81 58.9838 127.708 59.4278 127.708 59.9318L127.474 57.7358C127.786 57.0638 128.242 56.5298 128.842 56.1338C129.442 55.7258 130.162 55.5218 131.002 55.5218C131.998 55.5218 132.772 55.8038 133.324 56.3678C133.888 56.9318 134.17 57.6818 134.17 58.6178V64.8818H131.884ZM145.774 65.0618C144.85 65.0618 143.998 64.8998 143.218 64.5758C142.45 64.2398 141.778 63.7718 141.202 63.1718C140.626 62.5718 140.182 61.8638 139.87 61.0478C139.558 60.2318 139.402 59.3378 139.402 58.3658C139.402 57.3938 139.558 56.5058 139.87 55.7018C140.182 54.8978 140.62 54.2018 141.184 53.6138C141.76 53.0138 142.432 52.5518 143.2 52.2278C143.98 51.9038 144.838 51.7418 145.774 51.7418C146.806 51.7418 147.736 51.9458 148.564 52.3538C149.392 52.7618 150.07 53.3378 150.598 54.0818C151.138 54.8138 151.468 55.6778 151.588 56.6738H149.284C149.14 55.7018 148.75 54.9578 148.114 54.4418C147.478 53.9138 146.704 53.6498 145.792 53.6498C144.988 53.6498 144.286 53.8418 143.686 54.2258C143.086 54.6098 142.618 55.1558 142.282 55.8638C141.946 56.5598 141.778 57.3878 141.778 58.3478C141.778 59.3318 141.946 60.1838 142.282 60.9038C142.618 61.6118 143.092 62.1638 143.704 62.5598C144.316 62.9558 145.018 63.1538 145.81 63.1538C146.698 63.1538 147.46 62.8958 148.096 62.3798C148.732 61.8518 149.134 61.1078 149.302 60.1478H151.624C151.48 61.1318 151.138 61.9958 150.598 62.7398C150.07 63.4838 149.392 64.0598 148.564 64.4678C147.736 64.8638 146.806 65.0618 145.774 65.0618ZM157.53 65.0618C156.558 65.0618 155.7 64.8578 154.956 64.4498C154.224 64.0418 153.654 63.4778 153.246 62.7578C152.838 62.0258 152.634 61.1918 152.634 60.2558C152.634 59.3198 152.838 58.4978 153.246 57.7898C153.654 57.0818 154.224 56.5298 154.956 56.1338C155.7 55.7258 156.558 55.5218 157.53 55.5218C158.514 55.5218 159.372 55.7258 160.104 56.1338C160.836 56.5298 161.406 57.0818 161.814 57.7898C162.222 58.4978 162.426 59.3198 162.426 60.2558C162.426 61.1918 162.216 62.0258 161.796 62.7578C161.388 63.4778 160.818 64.0418 160.086 64.4498C159.354 64.8578 158.502 65.0618 157.53 65.0618ZM157.53 63.2438C158.01 63.2438 158.442 63.1238 158.826 62.8838C159.21 62.6318 159.51 62.2838 159.726 61.8398C159.942 61.3838 160.05 60.8498 160.05 60.2378C160.05 59.3378 159.81 58.6298 159.33 58.1138C158.862 57.5978 158.262 57.3398 157.53 57.3398C156.798 57.3398 156.192 57.5978 155.712 58.1138C155.232 58.6298 154.992 59.3378 154.992 60.2378C154.992 60.8498 155.1 61.3838 155.316 61.8398C155.544 62.2838 155.844 62.6318 156.216 62.8838C156.6 63.1238 157.038 63.2438 157.53 63.2438ZM164.095 64.8818V55.7018H166.309V57.8618H166.363V64.8818H164.095ZM170.269 64.8818V58.9598C170.269 58.4198 170.131 58.0238 169.855 57.7718C169.591 57.5078 169.213 57.3758 168.721 57.3758C168.289 57.3758 167.893 57.4778 167.533 57.6818C167.173 57.8858 166.885 58.1738 166.669 58.5458C166.465 58.9178 166.363 59.3498 166.363 59.8418L166.129 57.7358C166.441 57.0638 166.891 56.5298 167.479 56.1338C168.067 55.7258 168.751 55.5218 169.531 55.5218C170.467 55.5218 171.205 55.7918 171.745 56.3318C172.285 56.8598 172.555 57.5438 172.555 58.3838V64.8818H170.269ZM176.443 64.8818V58.9598C176.443 58.4198 176.311 58.0238 176.047 57.7718C175.783 57.5078 175.405 57.3758 174.913 57.3758C174.469 57.3758 174.067 57.4778 173.707 57.6818C173.347 57.8858 173.065 58.1738 172.861 58.5458C172.657 58.9178 172.555 59.3498 172.555 59.8418L172.159 57.7358C172.459 57.0638 172.915 56.5298 173.527 56.1338C174.139 55.7258 174.847 55.5218 175.651 55.5218C176.611 55.5218 177.361 55.7978 177.901 56.3498C178.453 56.8898 178.729 57.6098 178.729 58.5098V64.8818H176.443ZM186.278 65.0618C185.402 65.0618 184.688 64.8578 184.136 64.4498C183.596 64.0298 183.26 63.4538 183.128 62.7218L183.308 62.7038V68.5718H181.04V55.7018H183.254V57.7718L183.074 57.7358C183.242 57.0518 183.626 56.5118 184.226 56.1158C184.826 55.7198 185.558 55.5218 186.422 55.5218C187.238 55.5218 187.946 55.7198 188.546 56.1158C189.158 56.4998 189.632 57.0458 189.968 57.7538C190.304 58.4618 190.472 59.2958 190.472 60.2558C190.472 61.2278 190.298 62.0738 189.95 62.7938C189.602 63.5138 189.116 64.0718 188.492 64.4678C187.868 64.8638 187.13 65.0618 186.278 65.0618ZM185.702 63.1898C186.434 63.1898 187.016 62.9378 187.448 62.4338C187.88 61.9178 188.096 61.1978 188.096 60.2738C188.096 59.3498 187.874 58.6358 187.43 58.1318C186.998 57.6278 186.416 57.3758 185.684 57.3758C184.964 57.3758 184.382 57.6338 183.938 58.1498C183.494 58.6538 183.272 59.3678 183.272 60.2918C183.272 61.2158 183.494 61.9298 183.938 62.4338C184.382 62.9378 184.97 63.1898 185.702 63.1898ZM197.926 64.8818C197.866 64.6418 197.818 64.3778 197.782 64.0898C197.758 63.8018 197.746 63.4538 197.746 63.0458H197.674V58.6898C197.674 58.2098 197.536 57.8498 197.26 57.6098C196.996 57.3578 196.588 57.2318 196.036 57.2318C195.496 57.2318 195.064 57.3338 194.74 57.5378C194.428 57.7298 194.236 58.0118 194.164 58.3838H191.986C192.082 57.5318 192.49 56.8418 193.21 56.3138C193.93 55.7858 194.896 55.5218 196.108 55.5218C197.368 55.5218 198.322 55.8098 198.97 56.3858C199.618 56.9498 199.942 57.7838 199.942 58.8878V63.0458C199.942 63.3338 199.96 63.6278 199.996 63.9278C200.044 64.2278 200.11 64.5458 200.194 64.8818H197.926ZM194.74 65.0618C193.816 65.0618 193.078 64.8338 192.526 64.3778C191.986 63.9098 191.716 63.2858 191.716 62.5058C191.716 61.6658 192.022 60.9998 192.634 60.5078C193.246 60.0158 194.11 59.6858 195.226 59.5178L198.088 59.0858V60.5258L195.604 60.9038C195.064 60.9878 194.656 61.1378 194.38 61.3538C194.116 61.5698 193.984 61.8698 193.984 62.2538C193.984 62.6018 194.11 62.8718 194.362 63.0638C194.614 63.2438 194.962 63.3338 195.406 63.3338C196.054 63.3338 196.594 63.1718 197.026 62.8478C197.458 62.5238 197.674 62.1278 197.674 61.6598L197.926 63.0458C197.686 63.7058 197.29 64.2098 196.738 64.5578C196.198 64.8938 195.532 65.0618 194.74 65.0618ZM202.239 64.8818V55.7018H204.453V57.8618H204.507V64.8818H202.239ZM208.683 64.8818V59.0858C208.683 58.5218 208.539 58.0958 208.251 57.8078C207.963 57.5198 207.543 57.3758 206.991 57.3758C206.511 57.3758 206.079 57.4838 205.695 57.6998C205.323 57.9158 205.029 58.2158 204.813 58.5998C204.609 58.9838 204.507 59.4278 204.507 59.9318L204.273 57.7358C204.585 57.0638 205.041 56.5298 205.641 56.1338C206.241 55.7258 206.961 55.5218 207.801 55.5218C208.797 55.5218 209.571 55.8038 210.123 56.3678C210.687 56.9318 210.969 57.6818 210.969 58.6178V64.8818H208.683ZM213.45 68.5718L215.826 63.2438L216.24 62.5598L218.832 55.7018H221.244L215.754 68.5718H213.45ZM215.484 64.7918L211.758 55.7018H214.224L217.338 63.9458L215.484 64.7918Z" fill="#6F6F6F"/>
<g clip-path="url(#clip0_2031_414)">
<path d="M10.4337 32.0032C10.1286 32.0032 9.82355 31.8702 9.57948 31.604C9.09135 31.1051 9.09135 30.2402 9.57948 29.7412L36.0913 0.833984L44.8168 10.381C45.3049 10.88 45.3049 11.7449 44.8168 12.2439C44.3591 12.7761 43.4575 13.1088 42.9999 12.5765L36.4999 6.0445L11.4999 33.2613C11.2558 33.5274 10.7388 32.0032 10.4337 32.0032Z" fill="#EA7343"/>
<path d="M62.7494 29.1071C63.0545 29.1071 63.3596 29.2402 63.6036 29.5063C64.0918 30.0053 64.0918 30.8702 63.6036 31.3692L37.0918 60.2764L28.3663 50.7293C27.8782 50.2304 27.8782 49.3655 28.3663 48.8665C28.824 48.3343 29.7256 48.0016 30.1832 48.5338L36.6832 55.0658L61.6832 27.8491C61.9273 27.583 62.4443 29.1071 62.7494 29.1071Z" fill="#EA7343"/>
<path d="M19.5002 53.4015L17.085 49.4672L53.329 9.94849L56.2402 13.1207L19.5002 53.4015Z" fill="#866BF0"/>
<path fill-rule="evenodd" clip-rule="evenodd" d="M57.0814 14.5725C53.6034 14.5725 50.7661 11.4788 50.7661 7.68662C50.7661 3.89442 53.6034 0.800781 57.0814 0.800781C60.5593 0.800781 63.3966 3.89442 63.3966 7.68662C63.3966 11.4788 60.5593 14.5725 57.0814 14.5725ZM57.0814 3.46197C54.9458 3.46197 53.2068 5.35807 53.2068 7.68662C53.2068 10.0152 54.9458 11.9113 57.0814 11.9113C59.217 11.9113 60.9559 10.0152 60.9559 7.68662C60.9559 5.35807 59.217 3.46197 57.0814 3.46197Z" fill="#EA7343"/>
<path fill-rule="evenodd" clip-rule="evenodd" d="M15.0408 60.4114C11.5629 60.4114 8.72559 57.3177 8.72559 53.5255C8.72559 49.7001 11.5629 46.6064 15.0408 46.6064C18.5493 46.6064 21.3866 49.7001 21.3866 53.5255C21.3866 57.3177 18.5493 60.4114 15.0408 60.4114ZM15.0408 49.2676C12.9052 49.2676 11.1663 51.1637 11.1663 53.5255C11.1663 55.8541 12.9052 57.7502 15.0408 57.7502C17.1764 57.7502 18.9459 55.8541 18.9459 53.5255C18.9459 51.1637 17.1764 49.2676 15.0408 49.2676Z" fill="#EA7343"/>
<path fill-rule="evenodd" clip-rule="evenodd" d="M65.5626 32.7017C62.0541 32.7017 59.2168 29.608 59.2168 25.8158C59.2168 21.9904 62.0541 18.8967 65.5626 18.8967C69.0405 18.8967 71.8778 21.9904 71.8778 25.8158C71.8778 29.608 69.0405 32.7017 65.5626 32.7017ZM65.5626 21.5579C63.3965 21.5579 61.6575 23.4873 61.6575 25.8158C61.6575 28.1444 63.3965 30.0405 65.5626 30.0405C67.6981 30.0405 69.4371 28.1444 69.4371 25.8158C69.4371 23.4873 67.6981 21.5579 65.5626 21.5579Z" fill="black"/>
<path fill-rule="evenodd" clip-rule="evenodd" d="M6.43732 41.4837C2.95936 41.4837 0.12207 38.39 0.12207 34.5645C0.12207 30.7723 2.95936 27.6787 6.43732 27.6787C9.9458 27.6787 12.7831 30.7723 12.7831 34.5645C12.7831 38.39 9.9458 41.4837 6.43732 41.4837ZM6.43732 30.3399C4.30173 30.3399 2.56275 32.236 2.56275 34.5645C2.56275 36.8931 4.30173 38.8225 6.43732 38.8225C8.60343 38.8225 10.3424 36.8931 10.3424 34.5645C10.3424 32.236 8.60343 30.3399 6.43732 30.3399Z" fill="black"/>
</g>
<defs>
<clipPath id="clip0_2031_414">
<rect width="72" height="59.8768" fill="white" transform="translate(0 0.601074)"/>
</clipPath>
</defs>
</svg>
