<svg width="63" height="47" viewBox="0 0 63 47" fill="none" xmlns="http://www.w3.org/2000/svg">
<circle cx="23.5" cy="23.5" r="23.5" fill="#EFEDFB"/>
<path d="M44.0415 10.8333H33.8332C33.0596 10.8333 32.3178 11.1406 31.7708 11.6876C31.2238 12.2346 30.9165 12.9765 30.9165 13.75V34.1667C30.9165 34.9402 31.2238 35.6821 31.7708 36.2291C32.3178 36.7761 33.0596 37.0833 33.8332 37.0833H54.2498C55.0234 37.0833 55.7653 36.7761 56.3122 36.2291C56.8592 35.6821 57.1665 34.9402 57.1665 34.1667V23.9583" stroke="black" stroke-width="1.5" stroke-linecap="round" stroke-linejoin="round"/>
<path d="M54.979 8.64584C55.5592 8.06568 56.346 7.73975 57.1665 7.73975C57.987 7.73975 58.7738 8.06568 59.354 8.64584C59.9342 9.226 60.2601 10.0129 60.2601 10.8333C60.2601 11.6538 59.9342 12.4407 59.354 13.0208L45.4998 26.875L39.6665 28.3333L41.1248 22.5L54.979 8.64584Z" stroke="black" stroke-width="1.5" stroke-linecap="round" stroke-linejoin="round"/>
</svg>
