<svg width="83" height="64" viewBox="0 0 83 64" fill="none" xmlns="http://www.w3.org/2000/svg">
<circle cx="32" cy="32" r="32" fill="#EFEDFB"/>
<g clip-path="url(#clip0_2071_432)">
<path d="M56.7029 2.92637C56.5137 2.98613 56.1252 3.26504 55.8563 3.54395C55.149 4.24121 54.9498 4.99824 55.2287 5.90469C55.3682 6.38281 55.9857 7.10996 56.4041 7.2793L56.7029 7.39883L56.7029 9.08223L56.7029 10.7656L57.4998 10.7656L58.2967 10.7656L58.2967 9.08223L58.2967 7.39883L58.5955 7.2793C59.0139 7.10996 59.6314 6.38281 59.7709 5.90469C60.0498 4.99824 59.8506 4.24121 59.1434 3.54394C58.4461 2.83672 57.6293 2.6375 56.7029 2.92637ZM58.0477 4.63965C58.207 4.78906 58.2967 4.99824 58.2967 5.1875C58.2967 5.37676 58.207 5.58594 58.0477 5.73535C57.5596 6.2334 56.7029 5.88477 56.7029 5.1875C56.7029 4.7791 57.0914 4.39062 57.4998 4.39062C57.6891 4.39062 57.8982 4.48027 58.0477 4.63965Z" fill="black"/>
<path d="M40.8752 9.51055C39.9887 9.8293 39.3711 10.7258 39.3711 11.692C39.3711 12.3793 39.5703 12.8873 39.9986 13.3355C40.6262 13.993 41.423 14.232 42.2498 14.0129L42.7479 13.8834L43.9232 15.0687L45.0986 16.2441L45.6664 15.6764L46.2441 15.0986L45.0588 13.9033C44.0229 12.8674 43.8734 12.6881 43.973 12.5187C44.1523 12.2 44.1025 11.1541 43.8734 10.7059C43.6045 10.1779 42.967 9.61016 42.4889 9.48066C42.0008 9.34121 41.3035 9.35117 40.8752 9.51055ZM42.2697 11.1541C42.718 11.5127 42.4789 12.4092 41.9111 12.459C41.3234 12.5187 40.9648 12.2498 40.9648 11.7418C40.9648 11.0744 41.7418 10.7258 42.2697 11.1541Z" fill="black"/>
<path d="M72.3916 9.53047C71.8836 9.71973 71.3656 10.2078 71.1266 10.7457C70.9174 11.2139 70.8676 12.0506 71.027 12.459C71.1166 12.6881 71.0369 12.7977 69.9412 13.9033L68.7559 15.0986L69.3336 15.6764L69.9014 16.2441L71.0768 15.0687L72.2521 13.8834L72.7701 14.0229C73.5969 14.232 74.3738 13.993 75.0014 13.3355C75.4396 12.8873 75.6289 12.3793 75.6289 11.692C75.6289 10.9549 75.3799 10.407 74.842 9.95879C74.1746 9.38105 73.2482 9.22168 72.3916 9.53047ZM73.8359 11.1641C74.085 11.4131 74.0949 11.9609 73.8459 12.2697C73.7164 12.4391 73.557 12.4988 73.2881 12.4988C72.8299 12.4988 72.541 12.19 72.541 11.702C72.541 11.2537 72.8398 10.9648 73.2881 10.9648C73.5072 10.9648 73.7164 11.0445 73.8359 11.1641Z" fill="black"/>
<path d="M55.3682 12.5088C49.7602 13.3156 45.0686 17.1705 43.2158 22.5096C42.5783 24.3424 42.4189 25.3086 42.4189 27.4502C42.4189 29.034 42.4588 29.5121 42.648 30.3887C43.3154 33.5064 44.6402 35.9568 46.8416 38.1582C48.1266 39.4531 49.292 40.2898 50.8359 41.0469L51.8719 41.5549L51.9316 44.6627C51.9814 47.5613 52.0014 47.8104 52.2105 48.3881C53.0473 50.6891 55.0992 52.1533 57.4998 52.1533C59.9103 52.1533 61.9424 50.699 62.7891 48.3881C62.9982 47.8104 63.0182 47.5912 63.058 44.6727L63.0879 41.5748L64.0043 41.1365C67.6699 39.3635 70.5785 36.0863 71.8435 32.2812C72.4014 30.6277 72.5707 29.5121 72.5807 27.5996C72.5906 26.2947 72.5408 25.6074 72.4014 24.8603C71.2459 18.6646 66.5941 13.9133 60.4482 12.6482C59.1334 12.3793 56.7328 12.3096 55.3682 12.5088ZM59.492 14.1025C60.8965 14.3117 62.0918 14.6902 63.4266 15.3377C66.634 16.9016 69.0545 19.6209 70.2498 22.9678C72.6305 29.7014 69.3832 37.1123 62.8289 39.9113C62.2811 40.1504 61.7531 40.4393 61.6635 40.5588C61.524 40.7281 61.4842 40.9672 61.4842 41.7043L61.4842 42.6406L57.4998 42.6406L53.5154 42.6406L53.5154 41.7043C53.5154 40.5488 53.4557 40.4592 52.3699 40.0109C48.1465 38.2877 45.1781 34.652 44.182 29.9902C43.9031 28.6854 43.933 26.0855 44.2318 24.7209C44.8295 22.0514 46.0148 19.85 47.8875 17.9773C49.7004 16.1545 51.7424 14.9791 54.1928 14.3615C55.7965 13.9432 57.8385 13.8436 59.492 14.1025ZM61.4842 45.4297L61.4842 46.625L57.4998 46.625L53.5154 46.625L53.5154 45.4297L53.5154 44.2344L57.4998 44.2344L61.4842 44.2344L61.4842 45.4297ZM61.0857 48.2984C61.0857 48.4877 60.4383 49.3443 60.0498 49.6631C59.8207 49.8523 59.3625 50.1312 59.0338 50.2807C58.5258 50.5197 58.3266 50.5596 57.4998 50.5596C56.6432 50.5596 56.4937 50.5297 55.9061 50.2508C55.5475 50.0814 55.0793 49.7926 54.8602 49.6033C54.5016 49.2846 53.9139 48.4777 53.9139 48.2984C53.9139 48.2586 55.5275 48.2187 57.4998 48.2187C59.4721 48.2187 61.0857 48.2586 61.0857 48.2984Z" fill="black"/>
<path d="M52.6488 22.8682C52.3799 23.0574 52.3201 23.2467 51.2244 27.4502C50.7164 29.3627 50.2283 31.2354 50.1287 31.6039L49.9395 32.2812L50.7762 32.2812L51.6029 32.2812L51.8021 31.5043C51.9117 31.0859 52.101 30.3687 52.2205 29.9105L52.4396 29.0838L53.8939 29.1137L55.3383 29.1436L55.7467 30.7074L56.1551 32.2812L56.9719 32.2812C57.4301 32.2812 57.7986 32.2713 57.7986 32.2514C57.7986 32.2414 57.2607 30.1895 56.6033 27.6992C55.5574 23.7248 55.3881 23.1371 55.159 22.9379C54.9299 22.7387 54.7904 22.7187 53.884 22.7187C53.1369 22.7187 52.8082 22.7586 52.6488 22.8682ZM54.4418 25.7568C54.651 26.5537 54.8402 27.2709 54.8701 27.3506C54.9199 27.4801 54.7705 27.5 53.9238 27.5C53.2465 27.5 52.9178 27.4602 52.9178 27.3904C52.9178 27.2908 53.5553 24.7607 53.6648 24.432C53.6947 24.3723 53.7943 24.3125 53.884 24.3125C54.0334 24.3125 54.133 24.5715 54.4418 25.7568Z" fill="black"/>
<path d="M59.4922 23.5156L59.4922 24.3125L60.4883 24.3125L61.4844 24.3125L61.4844 27.5L61.4844 30.6875L60.4883 30.6875L59.4922 30.6875L59.4922 31.4844L59.4922 32.2812L62.2812 32.2812L65.0703 32.2812L65.0703 31.4844L65.0703 30.6875L64.0742 30.6875L63.0781 30.6875L63.0781 27.5L63.0781 24.3125L64.0742 24.3125L65.0703 24.3125L65.0703 23.5156L65.0703 22.7187L62.2812 22.7187L59.4922 22.7187L59.4922 23.5156Z" fill="black"/>
<path d="M34.3904 25.2391C33.9023 25.3984 33.0656 26.2551 32.9162 26.7631C32.6373 27.6994 32.8365 28.4465 33.5438 29.1437C34.241 29.851 34.998 30.0502 35.9045 29.7713C36.3826 29.6318 37.1098 29.0143 37.2791 28.5959L37.3986 28.2971L39.082 28.2971L40.7654 28.2971L40.7654 27.5002L40.7654 26.7033L39.082 26.7033L37.3986 26.7033L37.2791 26.4045C37.1098 25.9861 36.3826 25.3686 35.9045 25.2291C35.4363 25.0896 34.8586 25.0896 34.3904 25.2391ZM35.7352 26.9523C36.2332 27.4404 35.8846 28.2971 35.1873 28.2971C34.7789 28.2971 34.3904 27.9086 34.3904 27.5002C34.3904 27.0918 34.7789 26.7033 35.1873 26.7033C35.3766 26.7033 35.5857 26.793 35.7352 26.9523Z" fill="black"/>
<path d="M79.0355 25.2389C78.6072 25.3684 77.8801 26.0158 77.7207 26.4043L77.6012 26.7031L75.9178 26.7031L74.2344 26.7031L74.2344 27.5L74.2344 28.2969L75.9178 28.2969L77.6012 28.2969L77.7207 28.5957C77.9996 29.273 79.0057 29.8906 79.8125 29.8906C81.0477 29.8906 82.2031 28.7352 82.2031 27.5C82.2031 26.8725 81.974 26.3645 81.4561 25.8564C80.7687 25.1592 79.932 24.95 79.0355 25.2389ZM80.3604 26.9521C80.8584 27.4402 80.5098 28.2969 79.8125 28.2969C79.4041 28.2969 79.0156 27.9084 79.0156 27.5C79.0156 27.3107 79.1053 27.1016 79.2646 26.9521C79.4141 26.7928 79.6232 26.7031 79.8125 26.7031C80.0018 26.7031 80.2109 26.7928 80.3604 26.9521Z" fill="black"/>
</g>
<defs>
<clipPath id="clip0_2071_432">
<rect width="51" height="51" fill="white" transform="translate(32 2)"/>
</clipPath>
</defs>
</svg>
