<svg width="213" height="152" viewBox="0 0 213 152" fill="none" xmlns="http://www.w3.org/2000/svg">
<path d="M45.3825 149.995V148.715L40.7002 147.104C33.6897 144.673 27.677 142.447 27.8305 142.319C27.9073 142.242 29.6727 141.73 31.7452 141.193C41.5446 138.686 49.9112 135.001 57.6637 129.833C62.4227 126.635 65.8256 123.82 69.3821 120.11C77.4161 111.769 82.8403 102.814 84.3754 95.3176C84.8616 93.0404 84.9383 88 84.5034 88C84.2987 88 84.2475 88.435 84.3499 89.3561C84.5545 91.4797 84.1196 92.8613 81.561 97.9529C77.0323 106.985 72.9129 112.358 65.6209 118.754C55.7192 127.428 44.4358 132.903 28.0608 136.997C26.0651 137.483 24.3508 137.893 24.2741 137.893C24.1717 137.893 24.7602 137.176 25.5534 136.306C26.3465 135.411 28.854 132.622 31.1055 130.114L35.2249 125.535L35.0458 124.102C34.9434 123.309 34.7899 122.106 34.6875 121.415L34.5084 120.136L30.0053 124.869C25.6045 129.449 21.7667 133.671 19.2336 136.69L18.0055 138.174V140.17C18.0055 143.854 17.6217 143.445 23.2251 145.645C31.8475 149.022 38.1928 150.762 43.2588 151.121L45.3825 151.274V149.995Z" fill="black"/>
<path d="M62.9123 32.1768C62.6013 32.0646 62.3744 31.892 62.2317 31.6591C62.0889 31.4261 61.9802 31.1147 61.9054 30.7248C61.8675 30.4843 61.8476 30.1937 61.8459 29.8529C61.8478 29.502 61.885 29.0845 61.9577 28.6004C62.0339 28.1063 62.1646 27.5241 62.3498 26.8538L62.8854 27.3023C62.2005 27.8489 61.538 28.2392 60.8979 28.4731C60.2615 28.6971 59.6448 28.8034 59.0478 28.7921C58.4545 28.7707 57.8869 28.6623 57.3451 28.4668C56.6227 28.2061 56.0464 27.8393 55.616 27.3665C55.1892 26.8836 54.9317 26.3087 54.8435 25.6418C54.7553 24.975 54.8525 24.2502 55.1349 23.4676C55.3992 22.7352 55.7817 22.0681 56.2824 21.4663C56.7931 20.8682 57.376 20.3528 58.0311 19.9201C58.6898 19.4774 59.3916 19.1354 60.1364 18.8939C60.8813 18.6524 61.6251 18.5239 62.3678 18.5084C63.1241 18.4865 63.8434 18.5987 64.5257 18.8449C64.9371 18.9934 65.2464 19.173 65.4538 19.384C65.6648 19.5849 65.7875 19.8106 65.8218 20.0611C65.8698 20.3052 65.8467 20.5577 65.7526 20.8186C65.6367 21.1396 65.4765 21.4107 65.272 21.6317C65.0675 21.8528 64.8359 22.0073 64.5773 22.0954C64.3288 22.1872 64.0741 22.186 63.8132 22.0918C63.6727 22.0411 63.5833 21.9748 63.5448 21.8929C63.52 21.8046 63.5138 21.7116 63.5263 21.6141C63.5525 21.5101 63.5719 21.4094 63.5844 21.3119C63.6106 21.2079 63.5994 21.1131 63.5509 21.0276C63.5124 20.9457 63.4079 20.8739 63.2373 20.8124C62.826 20.6639 62.3802 20.6108 61.9 20.653C61.4335 20.6887 60.9599 20.807 60.4792 21.0077C59.9985 21.2085 59.5485 21.4657 59.1292 21.7793C58.7098 22.0929 58.3384 22.4465 58.0149 22.84C57.6915 23.2336 57.4519 23.6461 57.2962 24.0775C57.0645 24.7197 57.0311 25.2519 57.1962 25.6744C57.3612 26.0968 57.6896 26.3968 58.1812 26.5742C58.6628 26.748 59.1588 26.8192 59.669 26.7879C60.1793 26.7566 60.692 26.6241 61.2073 26.3905C61.7362 26.1504 62.2557 25.8106 62.7659 25.371C63.0205 25.1681 63.2645 25.0577 63.4978 25.0398C63.7447 25.0155 64.0186 25.0577 64.3196 25.1663C64.5504 25.2496 64.6978 25.3595 64.762 25.496C64.8397 25.6262 64.8406 25.7966 64.7646 26.0073C64.5184 26.6895 64.3316 27.2855 64.2044 27.7953C64.0871 28.3086 64.0099 28.7741 63.9726 29.1915C63.9454 29.6126 63.9487 30.0277 63.9825 30.4368C64.0068 30.6837 64.0205 30.8814 64.0236 31.03C64.0231 31.1886 64.0166 31.3166 64.004 31.4142C63.9915 31.5117 63.9653 31.6156 63.9255 31.726C63.8422 31.9568 63.7086 32.107 63.5247 32.1767C63.3372 32.2565 63.133 32.2565 62.9123 32.1768ZM60.4959 25.0622C60.205 24.9571 59.9917 24.7781 59.8563 24.5251C59.7308 24.2757 59.7188 24.0106 59.8201 23.7296C59.8926 23.529 60.0175 23.3869 60.195 23.3036C60.3862 23.2138 60.6905 23.1876 61.108 23.2248C61.8153 23.2759 62.5282 23.3745 63.2466 23.5203C63.9752 23.6698 64.7307 23.8858 65.5133 24.1682C65.9046 24.3094 66.1879 24.4514 66.3632 24.594C66.5422 24.7266 66.6432 24.8708 66.6664 25.0266C66.6932 25.1724 66.674 25.3355 66.6088 25.5161C66.511 25.787 66.337 26.0021 66.0868 26.1613C65.8402 26.3104 65.5213 26.3144 65.13 26.1732C64.2771 25.8654 63.5553 25.6503 62.9645 25.5277C62.3736 25.4052 61.8763 25.3222 61.4725 25.2785C61.0823 25.2284 60.7568 25.1563 60.4959 25.0622ZM69.7375 32.9729C68.8947 32.6688 68.2087 32.2285 67.6797 31.652C67.1606 31.0791 66.8241 30.4247 66.6702 29.6887C66.5298 28.9463 66.5991 28.1889 66.8779 27.4163C67.0698 26.8845 67.3544 26.4259 67.7316 26.0404C68.1225 25.6485 68.5519 25.3385 69.0198 25.1105C69.4913 24.8724 69.9589 24.7236 70.4226 24.6642C70.8863 24.6047 71.2937 24.6383 71.6449 24.7651C71.7954 24.8194 71.9218 24.8933 72.0241 24.987C72.14 25.0742 72.2201 25.1824 72.2641 25.3117C72.3082 25.441 72.2994 25.591 72.2379 25.7615C72.1292 26.0625 71.9663 26.3099 71.7489 26.5036C71.5452 26.6909 71.2206 26.7892 70.775 26.7985C70.4771 26.8384 70.2002 26.9143 69.9444 27.0261C69.6886 27.1379 69.4639 27.2893 69.2702 27.4802C69.0766 27.6711 68.9345 27.892 68.844 28.1429C68.6086 28.795 68.6242 29.396 68.8908 29.9458C69.1609 30.4855 69.6371 30.8785 70.3194 31.1247C70.9013 31.3347 71.4453 31.3043 71.9513 31.0333C72.4574 30.7623 72.8317 30.2907 73.0743 29.6185C73.2879 29.0265 73.3008 28.5038 73.1128 28.0504C72.9386 27.5907 72.5906 27.2666 72.0688 27.0783C71.808 26.9842 71.5705 26.9665 71.3565 27.0254C71.1525 27.0879 70.914 27.1832 70.6409 27.3115C70.4361 27.4076 70.2654 27.4878 70.1289 27.5519C70.0024 27.6197 69.8799 27.6605 69.7615 27.6745C69.643 27.6884 69.5086 27.6683 69.3581 27.614C69.1975 27.556 69.0788 27.4451 69.0018 27.2813C68.9249 27.1174 68.9462 26.87 69.0656 26.5389C69.1634 26.268 69.3364 26.0242 69.5847 25.8076C69.8366 25.581 70.1277 25.4026 70.4582 25.2724C70.8024 25.1358 71.1553 25.0533 71.517 25.0251C71.8788 24.9969 72.2252 25.0425 72.5563 25.162C73.3589 25.4517 73.9901 25.8552 74.4498 26.3726C74.9231 26.8836 75.2088 27.4744 75.3071 28.1449C75.419 28.809 75.3355 29.5273 75.0567 30.2999C74.7779 31.0724 74.3575 31.7032 73.7955 32.1921C73.2335 32.681 72.5963 33.0011 71.884 33.1523C71.1854 33.297 70.4699 33.2373 69.7375 32.9729ZM77.1952 35.6303C76.6936 35.4493 76.2933 35.1914 75.9945 34.8568C75.6957 34.5221 75.5061 34.1362 75.4258 33.699C75.349 33.2517 75.3976 32.7873 75.5714 32.3057C75.7524 31.804 76.0155 31.3263 76.3607 30.8725C76.7196 30.4123 77.1296 29.999 77.5907 29.6324C78.0519 29.2658 78.5433 28.9726 79.0649 28.7526C79.5902 28.5226 80.1166 28.3837 80.6441 28.3359C81.1717 28.2882 81.6712 28.3494 82.1428 28.5195C82.4739 28.639 82.7136 28.8389 82.8619 29.1193C83.0102 29.3996 83.0174 29.7254 82.8834 30.0966C82.8291 30.2471 82.7405 30.3512 82.6176 30.4089C82.5084 30.4602 82.3781 30.4756 82.2268 30.455C81.5284 30.3163 80.8559 30.3572 80.2094 30.5774C79.5665 30.7877 78.9982 31.1213 78.5045 31.5781C78.0244 32.0286 77.6757 32.5548 77.4585 33.1568C77.3825 33.3675 77.3269 33.5686 77.2918 33.76C77.2704 33.9451 77.266 34.193 77.2786 34.5037L76.8247 32.792C76.9967 33.0695 77.1553 33.2742 77.3005 33.406C77.4558 33.5414 77.6588 33.6543 77.9097 33.7449C78.4715 33.9476 79.1063 33.7912 79.8141 33.2755C80.5218 32.7597 81.2114 31.8859 81.8828 30.654C82.0026 30.4478 82.1594 30.3116 82.3534 30.2455C82.551 30.1694 82.7551 30.1694 82.9658 30.2454C83.3069 30.3685 83.5617 30.5738 83.7301 30.8614C83.8984 31.149 83.9667 31.4628 83.9347 31.8028C83.9041 32.3587 83.878 32.871 83.8564 33.3394C83.8384 33.7979 83.8609 34.2539 83.924 34.7076C84.0007 35.1549 84.1354 35.6458 84.3281 36.1802C84.3978 36.3641 84.3982 36.5514 84.3294 36.742C84.2707 36.9363 84.165 37.1193 84.0123 37.291C83.8733 37.4563 83.705 37.577 83.5074 37.6531C83.3235 37.7228 83.1262 37.7196 82.9155 37.6436C82.7449 37.582 82.6171 37.4962 82.5321 37.3862C82.4535 37.2898 82.3903 37.1819 82.3426 37.0627C82.2297 36.7157 82.1332 36.3861 82.0532 36.0737C81.9767 35.7513 81.9226 35.4142 81.8908 35.0625C81.8626 34.7008 81.8589 34.3025 81.8797 33.8678C81.9041 33.423 81.9621 32.9166 82.0537 32.3487L82.7773 32.5588C82.1346 33.5856 81.4831 34.354 80.8227 34.8642C80.1623 35.3743 79.5206 35.6757 78.8974 35.7683C78.2844 35.8646 77.717 35.8186 77.1952 35.6303ZM87.171 39.2474C86.9603 39.1713 86.7504 39.0616 86.5414 38.9181C86.3424 38.7782 86.1719 38.575 86.03 38.3083C85.8881 38.0416 85.797 37.6969 85.7568 37.2742C85.7266 36.855 85.7682 36.3314 85.8815 35.7032C86.0048 35.0787 86.2258 34.3249 86.5444 33.442C86.8305 32.6494 87.1044 31.9374 87.3663 31.3061C87.6417 30.6685 87.9128 30.0745 88.1794 29.5244C88.456 28.9778 88.739 28.4449 89.0285 27.9257C89.2291 27.5898 89.4267 27.372 89.6215 27.2722C89.8163 27.1724 90.0391 27.1677 90.2899 27.2582C90.611 27.3741 90.8166 27.59 90.9066 27.906C91.0003 28.212 90.9458 28.6459 90.743 29.2078C90.638 29.4988 90.5039 29.8076 90.3407 30.1342C90.1911 30.4545 90.0152 30.8162 89.8129 31.2195C89.6107 31.6228 89.3917 32.0881 89.1561 32.6154C88.9341 33.1363 88.6945 33.753 88.4375 34.4653C88.2274 35.0473 88.0723 35.5243 87.9721 35.8963C87.8855 36.262 87.8379 36.551 87.8293 36.7633C87.8207 36.9757 87.8438 37.1315 87.8988 37.2307C87.9573 37.3198 88.0317 37.3807 88.122 37.4133C88.2224 37.4495 88.3044 37.4735 88.3683 37.4852C88.4357 37.4868 88.4963 37.4917 88.5501 37.4998C88.6075 37.4978 88.6663 37.5077 88.7265 37.5294C88.9673 37.6163 89.1057 37.7513 89.1417 37.9344C89.1813 38.1074 89.1613 38.3043 89.0816 38.5251C88.9911 38.7759 88.8462 38.9731 88.647 39.1167C88.4478 39.2602 88.2197 39.3423 87.9627 39.363C87.7058 39.3837 87.4419 39.3451 87.171 39.2474ZM91.343 37.334C90.9517 37.1927 90.6355 37.0163 90.3944 36.8045C90.1569 36.5827 89.9969 36.3662 89.9143 36.155C89.8354 35.9337 89.8286 35.7328 89.8937 35.5522C89.9444 35.4118 90.018 35.3022 90.1144 35.2236C90.2208 35.1486 90.3816 35.1273 90.5968 35.1596C91.2932 35.2408 91.9515 35.3649 92.5716 35.532C93.2017 35.7027 93.8278 35.9003 94.4499 36.1248C94.9315 36.2986 95.2924 36.5083 95.5327 36.7537C95.7766 36.9892 95.9262 37.2189 95.9814 37.443C96.0466 37.6706 96.0503 37.8647 95.9924 38.0253C95.92 38.2259 95.7918 38.3611 95.6079 38.4308C95.434 38.5042 95.2317 38.4992 95.0009 38.4159C94.2484 38.1443 93.6291 37.9435 93.1431 37.8135C92.6707 37.677 92.2918 37.58 92.0064 37.5224C91.7246 37.4547 91.5035 37.3919 91.343 37.334ZM100.061 43.8821C99.3787 43.6359 98.8015 43.3029 98.3293 42.883C97.8571 42.4631 97.4928 41.9801 97.2363 41.4339C96.9834 40.8777 96.8462 40.2839 96.8246 39.6524C96.813 39.0245 96.9249 38.3845 97.1603 37.7323C97.3848 37.1103 97.6815 36.5709 98.0503 36.1144C98.4229 35.6478 98.8238 35.2595 99.2532 34.9495C99.6862 34.6295 100.111 34.3802 100.527 34.2014C100.953 34.0263 101.328 33.9124 101.654 33.8597C101.983 33.7969 102.227 33.7945 102.388 33.8524C102.568 33.9176 102.71 33.997 102.812 34.0906C102.914 34.1842 102.99 34.3362 103.039 34.5466C103.135 34.8763 103.095 35.1284 102.919 35.3029C102.753 35.481 102.525 35.6087 102.236 35.6859C101.761 35.8092 101.323 35.9857 100.923 36.2154C100.532 36.4487 100.183 36.7421 99.8736 37.0955C99.5746 37.4526 99.3274 37.902 99.1318 38.4438C98.9472 38.9555 98.8828 39.4482 98.9386 39.922C99.0081 40.3893 99.1936 40.8022 99.4952 41.1605C99.7968 41.5188 100.214 41.7939 100.745 41.9858C101.297 42.185 101.84 42.2506 102.375 42.1828C102.914 42.1049 103.392 41.9092 103.812 41.5956C104.235 41.272 104.544 40.8393 104.74 40.2975C104.921 39.7958 105.035 39.2756 105.082 38.7369C105.129 38.1982 105.106 37.6797 105.014 37.1814C104.921 36.6832 104.755 36.2489 104.514 35.8786C104.284 35.5119 103.973 35.2579 103.581 35.1167C103.431 35.0624 103.301 35.0777 103.191 35.1628C103.081 35.2478 102.991 35.3856 102.922 35.5762C102.846 35.7869 102.731 35.9326 102.578 36.0131C102.437 36.0873 102.277 36.0918 102.096 36.0266C101.896 35.9542 101.72 35.8284 101.569 35.6493C101.432 35.4637 101.343 35.2388 101.302 34.9746C101.275 34.704 101.321 34.4032 101.441 34.0721C101.55 33.7711 101.726 33.5173 101.971 33.3107C102.226 33.1078 102.532 32.9804 102.891 32.9285C103.254 32.8665 103.651 32.9134 104.082 33.0691C104.825 33.3371 105.435 33.7502 105.914 34.3086C106.393 34.867 106.743 35.515 106.965 36.2526C107.186 36.9903 107.278 37.7719 107.241 38.5977C107.208 39.4134 107.046 40.2226 106.756 41.0252C106.517 41.6874 106.166 42.2524 105.702 42.7201C105.249 43.1915 104.713 43.5596 104.096 43.8245C103.493 44.0829 102.846 44.2239 102.157 44.2475C101.472 44.261 100.773 44.1392 100.061 43.8821ZM108.094 46.8151C107.883 46.739 107.719 46.6118 107.602 46.4335C107.499 46.2488 107.443 46.0247 107.436 45.7614C107.429 45.498 107.478 45.2208 107.583 44.9299C107.826 44.2576 108.037 43.6251 108.217 43.0323C108.397 42.4395 108.535 41.8997 108.632 41.4128C108.742 40.9195 108.796 40.4856 108.795 40.1111C108.805 39.8313 108.819 39.6207 108.836 39.4794C108.863 39.3418 108.9 39.2077 108.947 39.0773C109.02 38.8766 109.138 38.7378 109.302 38.6608C109.475 38.5875 109.698 38.5997 109.969 38.6975C110.22 38.788 110.415 38.9379 110.555 39.1472C110.708 39.35 110.798 39.6373 110.822 40.0091C110.847 40.3808 110.796 40.8671 110.67 41.468C110.544 42.0689 110.335 42.8044 110.044 43.6745L109.307 43.3578C109.733 42.6495 110.181 42.0684 110.651 41.6143C111.135 41.1538 111.622 40.8082 112.114 40.5773C112.616 40.3501 113.098 40.2236 113.561 40.1979C114.027 40.1621 114.451 40.213 114.832 40.3506C115.183 40.4774 115.402 40.6582 115.487 40.8931C115.582 41.1316 115.576 41.4014 115.467 41.7024C115.391 41.9131 115.252 42.0784 115.05 42.1982C114.852 42.3081 114.567 42.3753 114.195 42.3999C113.591 42.4087 113.054 42.4984 112.584 42.669C112.124 42.8433 111.708 43.0844 111.336 43.3925C110.974 43.7041 110.65 44.069 110.363 44.487C110.086 44.9087 109.828 45.3714 109.59 45.875C109.423 46.2117 109.26 46.4591 109.101 46.6171C108.952 46.7788 108.794 46.8694 108.628 46.8889C108.473 46.9121 108.294 46.8875 108.094 46.8151ZM115.15 49.3276C114.899 49.237 114.714 49.1076 114.593 48.9393C114.472 48.771 114.41 48.567 114.405 48.3274C114.411 48.0913 114.461 47.8429 114.555 47.582C114.805 46.8897 115.012 46.301 115.176 45.8157C115.35 45.3341 115.495 44.9159 115.612 44.5612C115.742 44.2 115.858 43.862 115.96 43.5474C116.073 43.2363 116.192 42.9052 116.319 42.5541C116.417 42.2832 116.544 42.0569 116.7 41.8751C116.86 41.6834 117.059 41.5567 117.296 41.495C117.534 41.4334 117.798 41.4551 118.089 41.5601C118.39 41.6687 118.595 41.8559 118.703 42.1218C118.821 42.3912 118.809 42.7385 118.667 43.1635C118.591 43.3742 118.481 43.6634 118.337 44.031C118.197 44.3885 118.035 44.7895 117.852 45.2337C117.679 45.6816 117.506 46.1295 117.333 46.5774C117.164 47.0152 117.006 47.4229 116.858 47.8006C116.71 48.1782 116.597 48.4774 116.517 48.6982C116.412 48.9891 116.245 49.201 116.015 49.3336C115.79 49.4563 115.501 49.4543 115.15 49.3276ZM118.53 40.5283C118.058 40.3581 117.722 40.0951 117.522 39.7393C117.321 39.3834 117.286 39.0249 117.417 38.6637C117.547 38.3025 117.774 38.0669 118.097 37.9567C118.424 37.8365 118.783 37.847 119.174 37.9883C119.485 38.1005 119.721 38.2649 119.881 38.4814C120.051 38.7015 120.153 38.9368 120.187 39.1874C120.225 39.4279 120.204 39.6585 120.125 39.8792C120.034 40.13 119.85 40.3415 119.573 40.5135C119.309 40.679 118.961 40.684 118.53 40.5283ZM121.412 51.5872C120.569 51.283 119.932 50.8945 119.502 50.4217C119.075 49.9388 118.825 49.4063 118.752 48.8242C118.682 48.232 118.763 47.6148 118.994 46.9727C119.186 46.4409 119.474 45.9435 119.856 45.4806C120.252 45.0112 120.716 44.6228 121.246 44.3153C121.78 43.9977 122.357 43.7977 122.977 43.715C123.596 43.6324 124.232 43.7088 124.884 43.9442C125.687 44.2338 126.263 44.6799 126.613 45.2823C126.966 45.8747 126.996 46.5773 126.702 47.39C126.503 47.9418 126.161 48.34 125.676 48.5845C125.201 48.8326 124.643 48.9488 124.002 48.933C123.365 48.9072 122.696 48.7676 121.993 48.5142C121.431 48.3114 121.043 48.069 120.827 47.787C120.625 47.4986 120.567 47.234 120.654 46.9932C120.705 46.8528 120.771 46.7633 120.853 46.7248C120.949 46.6799 121.072 46.6847 121.222 46.739C121.332 46.7788 121.457 46.8409 121.597 46.9253C121.747 47.0134 121.962 47.1081 122.243 47.2095C122.624 47.347 122.993 47.4236 123.351 47.4391C123.718 47.4583 124.035 47.4138 124.3 47.3056C124.566 47.1974 124.741 47.0279 124.824 46.7972C124.918 46.5363 124.924 46.3171 124.84 46.1396C124.757 45.9621 124.56 45.8172 124.249 45.705C123.797 45.5421 123.343 45.5427 122.887 45.7069C122.441 45.8748 122.033 46.1583 121.662 46.5575C121.295 46.9466 121.017 47.402 120.829 47.9237C120.727 48.2047 120.684 48.4668 120.698 48.7101C120.726 48.9469 120.833 49.1672 121.021 49.3709C121.212 49.5645 121.498 49.7302 121.879 49.8677C122.441 50.0705 122.932 50.1855 123.353 50.2127C123.788 50.2335 124.158 50.214 124.463 50.154C124.778 50.0976 125.046 50.0469 125.267 50.0017C125.501 49.9501 125.703 49.955 125.874 50.0166C126.054 50.0818 126.165 50.184 126.205 50.3234C126.246 50.4627 126.226 50.6427 126.146 50.8635C126.059 51.1042 125.869 51.3189 125.574 51.5073C125.283 51.6857 124.918 51.8151 124.481 51.8955C124.054 51.9794 123.576 51.9997 123.047 51.9564C122.519 51.913 121.973 51.7899 121.412 51.5872ZM134.113 56.1711C133.732 56.0335 133.457 55.7585 133.289 55.3461C133.123 54.9236 133.083 54.3591 133.168 53.6527C133.257 52.9362 133.484 52.0712 133.85 51.0579C133.965 50.7368 134.051 50.4673 134.107 50.2493C134.173 50.035 134.21 49.8554 134.217 49.7105C134.224 49.5656 134.203 49.4335 134.156 49.3142C134.118 49.1986 134.053 49.0789 133.962 48.9552C134.203 49.0421 134.394 49.1396 134.537 49.2477C134.693 49.3494 134.786 49.4849 134.815 49.6544C134.848 49.8138 134.813 50.0221 134.709 50.2793C134.624 50.0107 134.536 49.8145 134.445 49.6908C134.364 49.5707 134.253 49.4853 134.112 49.4346C133.921 49.3658 133.657 49.4066 133.32 49.5568C132.985 49.6971 132.6 49.9322 132.163 50.2623C131.74 50.5859 131.292 50.9966 130.817 51.4945C130.353 51.9959 129.885 52.5698 129.413 53.2162C129.141 53.5941 128.901 53.8362 128.692 53.9424C128.487 54.0386 128.254 54.0396 127.994 53.9455C127.542 53.7826 127.292 53.4373 127.245 52.9098C127.197 52.3822 127.3 51.7673 127.553 51.065C127.734 50.5633 127.912 50.1341 128.086 49.7774C128.27 49.4242 128.445 49.0962 128.611 48.7932C128.787 48.4939 128.955 48.1859 129.115 47.8693C129.288 47.5463 129.451 47.1741 129.603 46.7527C129.711 46.4517 129.863 46.2512 130.058 46.1514C130.253 46.0516 130.485 46.0506 130.756 46.1484C131.057 46.257 131.252 46.4406 131.34 46.6992C131.442 46.9514 131.413 47.2982 131.254 47.7397C131.141 48.0507 131.013 48.3276 130.869 48.5704C130.738 48.8067 130.589 49.0645 130.42 49.3438C130.254 49.6131 130.078 49.9461 129.889 50.343C129.704 50.7299 129.515 51.2229 129.321 51.8221L129.018 51.2022C129.768 50.1916 130.505 49.3915 131.228 48.8019C131.961 48.216 132.652 47.8247 133.301 47.6281C133.95 47.4315 134.521 47.4219 135.013 47.5993C135.645 47.8274 136.04 48.2083 136.199 48.7419C136.368 49.2792 136.326 49.899 136.072 50.6013C135.808 51.3338 135.599 51.9613 135.444 52.4838C135.29 53.0064 135.2 53.4445 135.174 53.7982C135.158 54.1554 135.213 54.4588 135.339 54.7082C135.416 54.872 135.461 55.03 135.474 55.1822C135.491 55.3243 135.465 55.4907 135.396 55.6813C135.32 55.892 135.164 56.0569 134.928 56.1759C134.706 56.2886 134.435 56.2869 134.113 56.1711ZM139.542 58.1811C138.689 57.8733 138.074 57.4415 137.696 56.8856C137.322 56.3196 137.142 55.6539 137.158 54.8884C137.183 54.1264 137.359 53.294 137.685 52.391C137.87 51.8793 138.061 51.4268 138.26 51.0335C138.459 50.6403 138.65 50.2671 138.834 49.9139C139.028 49.5644 139.21 49.1876 139.378 48.7835C139.564 48.3629 139.696 48.0136 139.773 47.7354C139.855 47.4473 139.944 47.1846 140.041 46.9474C140.127 46.7403 140.264 46.5801 140.452 46.4666C140.654 46.3467 140.901 46.3393 141.192 46.4443C141.613 46.5964 141.854 46.8874 141.914 47.3174C141.975 47.7474 141.836 48.3665 141.499 49.1748C141.36 49.4986 141.215 49.8038 141.067 50.0903C140.922 50.3668 140.768 50.6515 140.605 50.9444C140.457 51.231 140.299 51.5426 140.132 51.8792C139.979 52.2095 139.824 52.5904 139.669 53.0218C139.43 53.684 139.305 54.2343 139.294 54.6726C139.283 55.111 139.377 55.4626 139.577 55.7273C139.78 55.9819 140.072 56.1781 140.453 56.3157C140.694 56.4026 140.892 56.4513 141.047 56.4618C141.205 56.4624 141.342 56.4607 141.457 56.4567C141.585 56.4464 141.72 56.4666 141.86 56.5173C142.061 56.5897 142.195 56.706 142.262 56.8662C142.328 57.0265 142.317 57.232 142.226 57.4828C142.081 57.8842 141.781 58.167 141.325 58.3312C140.879 58.4991 140.284 58.449 139.542 58.1811ZM139.818 52.0891C139.403 52.1093 139.122 52.0079 138.975 51.785C138.833 51.552 138.816 51.2851 138.924 50.9841C139.018 50.7232 139.159 50.5073 139.345 50.3365C139.531 50.1656 139.869 50.0777 140.359 50.0729C140.652 50.0767 140.962 50.0979 141.288 50.1363C141.628 50.1682 141.961 50.2203 142.287 50.2924C142.622 50.3681 142.935 50.4585 143.226 50.5635C143.547 50.6794 143.787 50.8169 143.945 50.9759C144.117 51.1286 144.221 51.2965 144.257 51.4796C144.293 51.6627 144.274 51.8546 144.202 52.0552C144.119 52.286 143.985 52.4362 143.801 52.5059C143.617 52.5757 143.401 52.5771 143.153 52.5103C142.701 52.381 142.293 52.285 141.93 52.2221C141.581 52.1527 141.24 52.1089 140.906 52.0906C140.573 52.0723 140.21 52.0718 139.818 52.0891ZM146.136 60.5099C145.294 60.2058 144.657 59.8173 144.227 59.3444C143.8 58.8616 143.55 58.3291 143.476 57.7469C143.407 57.1547 143.488 56.5376 143.719 55.8954C143.911 55.3637 144.198 54.8663 144.581 54.4033C144.977 53.9339 145.441 53.5455 145.971 53.238C146.505 52.9205 147.082 52.7204 147.702 52.6378C148.321 52.5552 148.957 52.6316 149.609 52.8669C150.412 53.1566 150.988 53.6026 151.337 54.2051C151.691 54.7975 151.721 55.5 151.427 56.3127C151.228 56.8646 150.886 57.2627 150.401 57.5072C149.926 57.7554 149.368 57.8715 148.727 57.8558C148.09 57.83 147.42 57.6904 146.718 57.4369C146.156 57.2341 145.767 56.9918 145.552 56.7098C145.35 56.4214 145.292 56.1568 145.379 55.916C145.43 55.7755 145.496 55.6861 145.578 55.6476C145.673 55.6027 145.796 55.6074 145.947 55.6617C146.057 55.7016 146.182 55.7637 146.322 55.8481C146.472 55.9361 146.687 56.0308 146.968 56.1322C147.349 56.2698 147.718 56.3464 148.076 56.3619C148.443 56.3811 148.759 56.3365 149.025 56.2284C149.291 56.1202 149.466 55.9507 149.549 55.7199C149.643 55.4591 149.649 55.2399 149.565 55.0624C149.482 54.8849 149.285 54.74 148.974 54.6278C148.522 54.4648 148.068 54.4655 147.612 54.6297C147.166 54.7976 146.757 55.0811 146.387 55.4802C146.019 55.8693 145.742 56.3248 145.553 56.8465C145.452 57.1274 145.408 57.3895 145.423 57.6328C145.451 57.8697 145.558 58.09 145.746 58.2936C145.936 58.4873 146.223 58.6529 146.604 58.7905C147.166 58.9933 147.657 59.1083 148.078 59.1355C148.513 59.1563 148.883 59.1367 149.188 59.0767C149.503 59.0204 149.771 58.9696 149.992 58.9244C150.226 58.8728 150.428 58.8778 150.598 58.9393C150.779 59.0045 150.89 59.1068 150.93 59.2461C150.97 59.3854 150.951 59.5655 150.871 59.7862C150.784 60.027 150.593 60.2416 150.299 60.4301C150.007 60.6085 149.643 60.7379 149.206 60.8182C148.779 60.9022 148.301 60.9225 147.772 60.8791C147.244 60.8358 146.698 60.7127 146.136 60.5099ZM154.735 63.596C154.203 63.4041 153.758 63.1131 153.4 62.7231C153.052 62.3366 152.79 61.8848 152.614 61.3676C152.437 60.8504 152.353 60.2983 152.361 59.7114C152.379 59.1281 152.492 58.5455 152.702 57.9636C152.959 57.2512 153.329 56.6817 153.812 56.2549C154.305 55.8318 154.87 55.5707 155.507 55.4716C156.157 55.3661 156.832 55.4451 157.531 55.7086C158.062 55.9005 158.492 56.1405 158.819 56.4286C159.149 56.7067 159.371 57.0192 159.484 57.3661C159.597 57.713 159.583 58.0822 159.441 58.4735C159.373 58.6641 159.271 58.8033 159.138 58.8911C159.008 58.9689 158.882 58.9861 158.762 58.9426C158.641 58.8992 158.545 58.8361 158.473 58.7533C158.411 58.6742 158.335 58.5846 158.247 58.4846C158.162 58.3745 158.043 58.2636 157.891 58.1519C157.738 58.0402 157.521 57.9336 157.24 57.8322C156.638 57.615 156.116 57.5853 155.674 57.7431C155.245 57.8945 154.942 58.216 154.764 58.7077C154.619 59.109 154.557 59.5174 154.577 59.9329C154.597 60.3484 154.676 60.7114 154.814 61.0218C154.965 61.3258 155.151 61.5177 155.371 61.5973C155.883 61.782 156.454 61.6138 157.084 61.0929C157.728 60.5655 158.396 59.7063 159.086 58.5153C159.777 57.3244 160.45 55.8209 161.105 54.0049C161.232 53.6537 161.401 53.42 161.613 53.3037C161.839 53.1811 162.077 53.165 162.328 53.2555C162.719 53.3967 162.961 53.6709 163.052 54.078C163.153 54.4888 163.075 55.0048 162.816 55.626C162.547 56.3111 162.277 56.9 162.009 57.3928C161.75 57.8891 161.495 58.3755 161.244 58.8518C161.006 59.3217 160.781 59.8527 160.567 60.4446C160.343 61.0667 160.2 61.5879 160.139 62.0081C160.082 62.4184 160.073 62.7556 160.114 63.0198C160.159 63.2739 160.212 63.4861 160.276 63.6564C160.349 63.8303 160.399 63.9901 160.426 64.1358C160.466 64.2751 160.454 64.4351 160.389 64.6157C160.284 64.9067 160.101 65.1131 159.842 65.2349C159.596 65.3503 159.308 65.3483 158.977 65.2288C158.706 65.1311 158.479 64.9416 158.297 64.6604C158.129 64.3729 158.009 64.0291 157.938 63.6293C157.881 63.2229 157.879 62.786 157.935 62.3183C158.004 61.8443 158.133 61.3751 158.324 60.9108L159.506 60.9803C158.949 61.8338 158.383 62.4744 157.809 62.9023C157.235 63.3302 156.682 63.5899 156.15 63.6814C155.618 63.773 155.146 63.7445 154.735 63.596ZM3.90391 38.9313C3.06112 38.6271 2.47831 38.2467 2.15551 37.79C1.84635 37.3269 1.76962 36.8796 1.92532 36.4482C1.99774 36.2475 2.10082 36.1033 2.23457 36.0155C2.37835 35.9313 2.5556 35.9272 2.76629 36.0033C2.90676 36.054 3.02173 36.1125 3.1112 36.1788C3.2107 36.2487 3.3116 36.3305 3.4139 36.4241C3.51982 36.5077 3.64761 36.5935 3.79728 36.6815C3.95698 36.7732 4.15723 36.8624 4.39803 36.9493C4.84953 37.1123 5.25309 37.2352 5.60871 37.3182C5.96432 37.4012 6.28022 37.4528 6.5564 37.4731C6.84623 37.487 7.12143 37.4786 7.38199 37.4479C7.39142 37.2018 7.28644 36.9428 7.06706 36.6708C6.85772 36.4025 6.58636 36.1174 6.25299 35.8157C5.92966 35.5176 5.58988 35.2022 5.23366 34.8695C4.89109 34.5304 4.57764 34.1735 4.29331 33.7987C4.02263 33.4175 3.83165 33.0197 3.72037 32.6054C3.62275 32.1846 3.65722 31.7434 3.82377 31.2819C4.0012 30.7902 4.30641 30.3844 4.73942 30.0644C5.17243 29.7444 5.67944 29.5021 6.26046 29.3376C6.84148 29.173 7.43951 29.0713 8.05456 29.0325C8.67322 28.9836 9.25511 28.9895 9.80023 29.0501C10.359 29.1043 10.824 29.1984 11.1952 29.3324C11.4661 29.4302 11.6637 29.5582 11.7881 29.7164C11.926 29.8683 12.0012 30.0372 12.0135 30.223C12.0358 30.4125 12.0126 30.6026 11.9438 30.7932C11.8678 31.0039 11.7424 31.1628 11.5677 31.2699C11.393 31.3769 11.1611 31.4066 10.8721 31.359C9.94767 31.2182 9.12095 31.1523 8.39192 31.1614C7.67292 31.1741 7.09397 31.2543 6.65508 31.4021C6.21618 31.5499 5.94785 31.7593 5.85009 32.0302C5.77405 32.2409 5.82384 32.48 5.99947 32.7475C6.18875 33.0085 6.44826 33.295 6.778 33.6068C7.11137 33.9085 7.45937 34.2325 7.82201 34.5789C8.19468 34.9288 8.5314 35.2998 8.83218 35.6919C9.13658 36.0739 9.35445 36.4757 9.48579 36.8973C9.62076 37.3089 9.60677 37.7404 9.44384 38.1919C9.29176 38.6133 9.05104 38.9347 8.72169 39.156C8.39233 39.3774 7.98074 39.5123 7.48692 39.5609C7.00314 39.6132 6.4572 39.5862 5.84909 39.4802C5.25464 39.3677 4.60625 39.1847 3.90391 38.9313ZM13.9044 42.5913C13.0616 42.2872 12.3757 41.8469 11.8466 41.2704C11.3276 40.6975 10.9911 40.0431 10.8371 39.3071C10.6968 38.5647 10.7661 37.8073 11.0449 37.0347C11.2368 36.5029 11.5213 36.0443 11.8986 35.6588C12.2895 35.2669 12.7189 34.9569 13.1868 34.7289C13.6582 34.4908 14.1258 34.342 14.5896 34.2825C15.0533 34.2231 15.4607 34.2567 15.8119 34.3835C15.9624 34.4378 16.0888 34.5117 16.1911 34.6053C16.307 34.6926 16.387 34.8008 16.4311 34.9301C16.4751 35.0594 16.4664 35.2093 16.4048 35.3799C16.2962 35.6809 16.1332 35.9283 15.9159 36.122C15.7122 36.3093 15.3876 36.4076 14.942 36.4169C14.6441 36.4568 14.3672 36.5327 14.1114 36.6445C13.8556 36.7563 13.6309 36.9076 13.4372 37.0986C13.2436 37.2895 13.1015 37.5104 13.011 37.7612C12.7756 38.4134 12.7912 39.0144 13.0577 39.5642C13.3279 40.1039 13.8041 40.4969 14.4864 40.7431C15.0683 40.9531 15.6123 40.9226 16.1183 40.6517C16.6243 40.3807 16.9987 39.9091 17.2413 39.2368C17.4549 38.6449 17.4677 38.1222 17.2798 37.6688C17.1055 37.209 16.7575 36.885 16.2358 36.6967C15.9749 36.6026 15.7375 36.5849 15.5235 36.6438C15.3195 36.7062 15.081 36.8016 14.8079 36.9298C14.6031 37.026 14.4324 37.1062 14.2959 37.1703C14.1693 37.2381 14.0469 37.2789 13.9284 37.2929C13.81 37.3068 13.6755 37.2866 13.525 37.2323C13.3645 37.1744 13.2458 37.0635 13.1688 36.8997C13.0919 36.7358 13.1131 36.4883 13.2326 36.1572C13.3304 35.8863 13.5034 35.6426 13.7517 35.426C14.0035 35.1994 14.2947 35.021 14.6252 34.8908C14.9694 34.7541 15.3223 34.6717 15.684 34.6435C16.0457 34.6153 16.3922 34.6609 16.7233 34.7804C17.5259 35.0701 18.1571 35.4736 18.6167 35.991C19.09 36.502 19.3758 37.0928 19.474 37.7633C19.5859 38.4273 19.5025 39.1457 19.2237 39.9182C18.9449 40.6908 18.5245 41.3215 17.9624 41.8105C17.4004 42.2994 16.7633 42.6194 16.051 42.7706C15.3524 42.9154 14.6369 42.8556 13.9044 42.5913ZM21.6413 45.3664C21.4306 45.2904 21.2207 45.1806 21.0117 45.0371C20.8127 44.8973 20.6422 44.694 20.5003 44.4273C20.3584 44.1607 20.2674 43.816 20.2272 43.3932C20.197 42.9741 20.2385 42.4504 20.3518 41.8222C20.4752 41.1977 20.6961 40.444 21.0148 39.561C21.3008 38.7684 21.5748 38.0564 21.8366 37.4252C22.1121 36.7875 22.3831 36.1936 22.6497 35.6434C22.9263 35.0968 23.2094 34.5639 23.4988 34.0447C23.6994 33.7088 23.8971 33.491 24.0918 33.3912C24.2866 33.2914 24.5094 33.2867 24.7603 33.3773C25.0813 33.4931 25.2869 33.7091 25.377 34.0251C25.4707 34.3311 25.4161 34.765 25.2134 35.3268C25.1084 35.6178 24.9743 35.9266 24.811 36.2533C24.6614 36.5735 24.4855 36.9353 24.2833 37.3386C24.081 37.7419 23.8621 38.2072 23.6264 38.7345C23.4044 39.2554 23.1649 39.872 22.9078 40.5844C22.6978 41.1663 22.5427 41.6433 22.4424 42.0154C22.3558 42.381 22.3082 42.67 22.2996 42.8824C22.291 43.0947 22.3142 43.2505 22.3691 43.3497C22.4276 43.4389 22.5021 43.4998 22.5924 43.5323C22.6927 43.5686 22.7748 43.5925 22.8386 43.6042C22.906 43.6059 22.9666 43.6107 23.0204 43.6188C23.0778 43.6168 23.1366 43.6267 23.1968 43.6484C23.4376 43.7353 23.576 43.8703 23.612 44.0534C23.6516 44.2265 23.6316 44.4234 23.552 44.6441C23.4144 45.0254 23.1635 45.2807 22.7992 45.4101C22.4387 45.5294 22.0527 45.5149 21.6413 45.3664ZM27.5423 47.479C26.8601 47.2328 26.317 46.8837 25.9131 46.4317C25.5192 45.9834 25.2382 45.4738 25.07 44.9028C24.9155 44.3254 24.8576 43.7318 24.8962 43.122C24.9448 42.5159 25.0705 41.9319 25.2733 41.37C25.4544 40.8683 25.6524 40.4295 25.8675 40.0535C26.0926 39.6812 26.3405 39.3397 26.6113 39.0292C26.7504 38.8639 26.9014 38.7597 27.0644 38.7165C27.2311 38.6632 27.4248 38.6764 27.6455 38.756C27.9465 38.8647 28.1561 39.0537 28.2743 39.3232C28.4062 39.5862 28.416 39.8733 28.3037 40.1843C28.2494 40.3348 28.1769 40.473 28.086 40.599C28.0052 40.7286 27.9126 40.8596 27.8081 40.992C27.7137 41.128 27.6102 41.2891 27.4976 41.4753C27.3987 41.6551 27.3022 41.8754 27.2081 42.1363C27.0089 42.6881 26.9154 43.1987 26.9275 43.668C26.9396 44.1373 27.0494 44.5398 27.2571 44.8756C27.4785 45.2049 27.7898 45.442 28.1911 45.5869C28.5624 45.7208 28.9259 45.6876 29.2817 45.4872C29.6412 45.2767 29.9785 44.9391 30.2936 44.4745C30.6087 44.0099 30.8875 43.4414 31.1301 42.7692C31.217 42.5284 31.2862 42.3209 31.3377 42.1467C31.3929 41.9625 31.4358 41.7965 31.4664 41.6488C31.5107 41.4947 31.5618 41.3374 31.6197 41.1769C31.7211 40.8959 31.8541 40.7001 32.0188 40.5895C32.1871 40.4687 32.4167 40.4609 32.7077 40.5659C32.9686 40.66 33.164 40.8099 33.2939 41.0156C33.4238 41.2212 33.4791 41.5077 33.46 41.875C33.4445 42.2323 33.3389 42.6818 33.1434 43.2236C32.698 44.4577 32.1714 45.43 31.5634 46.1405C30.9655 46.8546 30.3215 47.3196 29.6312 47.5354C28.951 47.7549 28.2547 47.7361 27.5423 47.479ZM36.199 50.6541C35.3462 50.3463 34.7309 49.9145 34.3532 49.3586C33.9791 48.7926 33.7998 48.1269 33.8152 47.3613C33.8407 46.5994 34.0164 45.767 34.3423 44.864C34.5269 44.3523 34.7186 43.8998 34.9172 43.5065C35.1158 43.1133 35.3072 42.7401 35.4913 42.3869C35.6855 42.0374 35.8668 41.6606 36.0354 41.2565C36.2212 40.8359 36.3529 40.4866 36.4306 40.2084C36.5119 39.9203 36.601 39.6576 36.698 39.4204C36.7841 39.2133 36.9213 39.053 37.1096 38.9396C37.3117 38.8197 37.5582 38.8123 37.8491 38.9173C38.2705 39.0694 38.5114 39.3604 38.5716 39.7904C38.6319 40.2204 38.4935 40.8395 38.1565 41.6478C38.0169 41.9716 37.8728 42.2768 37.724 42.5633C37.5789 42.8398 37.4251 43.1245 37.2627 43.4174C37.1139 43.7039 36.9561 44.0155 36.7893 44.3522C36.6361 44.6825 36.4816 45.0633 36.3259 45.4948C36.0869 46.157 35.9621 46.7073 35.9513 47.1456C35.9405 47.584 36.0348 47.9355 36.2341 48.2003C36.437 48.4549 36.7291 48.6511 37.1104 48.7887C37.3512 48.8756 37.5491 48.9243 37.704 48.9348C37.8626 48.9354 37.9993 48.9337 38.1141 48.9297C38.2426 48.9194 38.377 48.9396 38.5175 48.9903C38.7182 49.0627 38.8519 49.179 38.9189 49.3392C38.9858 49.4995 38.974 49.705 38.8835 49.9558C38.7386 50.3572 38.4381 50.6399 37.9819 50.8042C37.5358 50.972 36.9415 50.922 36.199 50.6541ZM36.4754 44.5621C36.0599 44.5823 35.7789 44.4809 35.6326 44.258C35.4898 44.025 35.4728 43.7581 35.5814 43.4571C35.6756 43.1962 35.8158 42.9803 36.0022 42.8095C36.1886 42.6386 36.5265 42.5507 37.0159 42.5459C37.3093 42.5497 37.6192 42.5709 37.9456 42.6093C38.2856 42.6412 38.6183 42.6933 38.9439 42.7654C39.2794 42.8411 39.5927 42.9315 39.8836 43.0365C40.2047 43.1524 40.4443 43.2898 40.6023 43.4489C40.774 43.6016 40.8778 43.7695 40.9138 43.9526C40.9498 44.1357 40.9316 44.3276 40.8592 44.5282C40.7759 44.759 40.6423 44.9092 40.4584 44.9789C40.2745 45.0486 40.0585 45.0501 39.8105 44.9832C39.3581 44.854 38.9505 44.758 38.5877 44.6951C38.2385 44.6257 37.8971 44.5819 37.5635 44.5636C37.2299 44.5453 36.8672 44.5448 36.4754 44.5621ZM40.8498 52.2814C40.599 52.1909 40.4132 52.0615 40.2925 51.8932C40.1718 51.7249 40.1093 51.5209 40.1051 51.2812C40.1109 51.0452 40.1609 50.7967 40.255 50.5359C40.5048 49.8436 40.7116 49.2548 40.8754 48.7696C41.0492 48.288 41.1945 47.8698 41.3112 47.515C41.4415 47.1538 41.5578 46.8159 41.66 46.5012C41.7722 46.1902 41.8917 45.8591 42.0185 45.5079C42.1162 45.237 42.2433 45.0107 42.3996 44.829C42.5595 44.6372 42.7583 44.5105 42.996 44.4489C43.2337 44.3872 43.498 44.4089 43.789 44.5139C44.09 44.6225 44.2946 44.8098 44.4028 45.0756C44.521 45.3451 44.5091 45.6923 44.367 46.1173C44.291 46.328 44.181 46.6172 44.037 46.9848C43.8966 47.3424 43.7349 47.7433 43.5519 48.1876C43.3789 48.6354 43.206 49.0833 43.033 49.5312C42.8636 49.969 42.7052 50.3768 42.5575 50.7544C42.4099 51.1321 42.2963 51.4313 42.2166 51.652C42.1116 51.943 41.9444 52.1548 41.7151 52.2875C41.4894 52.4102 41.201 52.4081 40.8498 52.2814ZM44.2294 43.4821C43.7578 43.312 43.4218 43.049 43.2214 42.6931C43.0209 42.3373 42.9859 41.9788 43.1162 41.6176C43.2466 41.2564 43.4734 41.0207 43.7966 40.9105C44.1235 40.7904 44.4826 40.8009 44.8739 40.9421C45.1849 41.0543 45.4205 41.2187 45.5805 41.4352C45.7505 41.6553 45.8527 41.8907 45.887 42.1412C45.925 42.3817 45.9041 42.6123 45.8244 42.833C45.7339 43.0839 45.5499 43.2953 45.2724 43.4673C45.0085 43.6329 44.6608 43.6378 44.2294 43.4821ZM47.8227 54.8318C46.9799 54.5277 46.294 54.0873 45.7649 53.5109C45.2459 52.938 44.9094 52.2836 44.7554 51.5476C44.6151 50.8052 44.6843 50.0477 44.9631 49.2752C45.155 48.7434 45.4396 48.2848 45.8169 47.8993C46.2078 47.5074 46.6372 47.1974 47.105 46.9693C47.5765 46.7313 48.0441 46.5825 48.5078 46.523C48.9715 46.4636 49.379 46.4972 49.7302 46.6239C49.8807 46.6783 50.007 46.7522 50.1093 46.8458C50.2253 46.933 50.3053 47.0413 50.3494 47.1706C50.3934 47.2999 50.3847 47.4498 50.3231 47.6204C50.2145 47.9214 50.0515 48.1688 49.8342 48.3625C49.6305 48.5498 49.3058 48.6481 48.8602 48.6574C48.5623 48.6973 48.2855 48.7732 48.0297 48.885C47.7739 48.9968 47.5491 49.1481 47.3555 49.3391C47.1618 49.53 47.0198 49.7509 46.9292 50.0017C46.6939 50.6539 46.7095 51.2549 46.976 51.8047C47.2462 52.3444 47.7224 52.7374 48.4046 52.9836C48.9866 53.1936 49.5305 53.1631 50.0366 52.8922C50.5426 52.6212 50.9169 52.1496 51.1595 51.4773C51.3732 50.8854 51.386 50.3627 51.1981 49.9093C51.0238 49.4495 50.6758 49.1255 50.1541 48.9372C49.8932 48.8431 49.6558 48.8254 49.4418 48.8843C49.2378 48.9467 48.9992 49.0421 48.7262 49.1703C48.5213 49.2665 48.3507 49.3467 48.2141 49.4108C48.0876 49.4785 47.9651 49.5194 47.8467 49.5334C47.7283 49.5473 47.5938 49.5271 47.4433 49.4728C47.2828 49.4149 47.164 49.304 47.0871 49.1401C47.0101 48.9763 47.0314 48.7288 47.1509 48.3977C47.2486 48.1268 47.4217 47.8831 47.6699 47.6665C47.9218 47.4399 48.213 47.2615 48.5435 47.1312C48.8876 46.9946 49.2406 46.9122 49.6023 46.884C49.964 46.8558 50.3104 46.9014 50.6415 47.0209C51.4442 47.3106 52.0753 47.7141 52.535 48.2315C53.0083 48.7425 53.2941 49.3333 53.3923 50.0038C53.5042 50.6678 53.4207 51.3862 53.1419 52.1587C52.8631 52.9313 52.4427 53.562 51.8807 54.051C51.3187 54.5399 50.6816 54.8599 49.9693 55.0111C49.2707 55.1559 48.5551 55.0961 47.8227 54.8318ZM60.5774 59.4007C60.1961 59.2631 59.9211 58.9881 59.7524 58.5757C59.5874 58.1533 59.5473 57.5888 59.6321 56.8823C59.7206 56.1658 59.9477 55.3009 60.3134 54.2875C60.4292 53.9664 60.5152 53.6969 60.5711 53.479C60.6371 53.2647 60.6736 53.0851 60.6805 52.9401C60.6875 52.7952 60.6671 52.6631 60.6194 52.5439C60.5818 52.4282 60.5173 52.3085 60.4258 52.1848C60.6666 52.2717 60.8582 52.3692 61.0007 52.4773C61.1567 52.579 61.2496 52.7146 61.2791 52.884C61.3123 53.0434 61.2769 53.2517 61.1727 53.509C61.0882 53.2403 61.0002 53.0442 60.9088 52.9204C60.8274 52.8003 60.7165 52.715 60.576 52.6643C60.3854 52.5955 60.1212 52.6362 59.7834 52.7865C59.4493 52.9267 59.064 53.1619 58.6273 53.4919C58.2044 53.8156 57.7556 54.2263 57.2811 54.7241C56.8167 55.2256 56.3487 55.7995 55.8773 56.4458C55.6049 56.8238 55.3644 57.0659 55.156 57.1721C54.9512 57.2683 54.7183 57.2693 54.4574 57.1751C54.006 57.0122 53.7563 56.667 53.7086 56.1394C53.6608 55.6119 53.7636 54.997 54.0171 54.2946C54.1981 53.793 54.3757 53.3638 54.5498 53.007C54.734 52.6539 54.909 52.3258 55.0751 52.0229C55.2511 51.7235 55.419 51.4156 55.5786 51.0989C55.7519 50.7759 55.9146 50.4037 56.0666 49.9823C56.1753 49.6813 56.327 49.4809 56.5217 49.3811C56.7165 49.2813 56.9494 49.2803 57.2203 49.378C57.5213 49.4866 57.7158 49.6703 57.8039 49.9289C57.9057 50.181 57.8769 50.5279 57.7176 50.9693C57.6054 51.2804 57.4771 51.5573 57.3328 51.8C57.2021 52.0364 57.0524 52.2942 56.8836 52.5735C56.7184 52.8427 56.5415 53.1758 56.3529 53.5727C56.1679 53.9595 55.9786 54.4525 55.7851 55.0517L55.4815 54.4319C56.2318 53.4212 56.9684 52.6211 57.6915 52.0315C58.4246 51.4456 59.1158 51.0543 59.7651 50.8577C60.4144 50.6611 60.9848 50.6515 61.4765 50.829C61.8979 50.981 62.2146 51.2031 62.4268 51.4951C62.6389 51.7871 62.7518 52.134 62.7656 52.5359C62.7829 52.9277 62.7065 53.3594 62.5363 53.831C62.272 54.5634 62.0626 55.1909 61.908 55.7135C61.7534 56.236 61.6634 56.6741 61.6378 57.0278C61.6223 57.3851 61.6772 57.6884 61.8027 57.9378C61.8797 58.1017 61.9247 58.2597 61.9378 58.4118C61.9546 58.5539 61.9285 58.7203 61.8598 58.911C61.7837 59.1217 61.6278 59.2865 61.3921 59.4056C61.17 59.5182 60.8984 59.5166 60.5774 59.4007ZM64.7535 60.9078C64.1916 60.705 63.7554 60.4683 63.4449 60.1974C63.138 59.9166 62.9428 59.625 62.8591 59.3226C62.7754 59.0203 62.7807 58.7387 62.8748 58.4778C62.9472 58.2771 63.0654 58.1383 63.2292 58.0614C63.3967 57.9744 63.6008 57.9744 63.8416 58.0613C63.962 58.1047 64.0651 58.1646 64.151 58.2409C64.2469 58.3209 64.3441 58.4127 64.4428 58.5164C64.5451 58.61 64.6693 58.7058 64.8153 58.8039C64.9714 58.9056 65.1699 58.9999 65.4107 59.0868C65.9926 59.2968 66.4959 59.4104 66.9206 59.4276C67.359 59.4383 67.7105 59.3441 67.9753 59.1448C67.9429 58.9516 67.8176 58.7647 67.5993 58.5839C67.3811 58.403 67.1191 58.2178 66.8133 58.028C66.5076 57.8383 66.1904 57.6331 65.8618 57.4125C65.5432 57.1955 65.2588 56.9624 65.0085 56.7133C64.7582 56.4642 64.5811 56.1849 64.4774 55.8753C64.3773 55.5556 64.3978 55.2002 64.5391 54.8089C64.6948 54.3775 64.9509 54.0447 65.3076 53.8105C65.6643 53.5763 66.0763 53.4245 66.5436 53.355C67.0246 53.2791 67.519 53.2761 68.0268 53.3459C68.5446 53.4194 69.0392 53.5412 69.5108 53.7114C70.059 53.9206 70.4183 54.1977 70.5886 54.5426C70.769 54.8912 70.8013 55.2261 70.6854 55.5471C70.6058 55.7679 70.4822 55.9217 70.3147 56.0087C70.1573 56.0993 69.9782 56.1084 69.7776 56.036C69.6672 55.9961 69.5687 55.9549 69.482 55.9123C69.3953 55.8697 69.2986 55.8234 69.1919 55.7736C69.0988 55.7173 68.9669 55.6584 68.7964 55.5968C68.2847 55.4122 67.8147 55.3163 67.3863 55.3091C66.968 55.3056 66.6151 55.388 66.3275 55.5564C66.3398 55.7422 66.4501 55.9238 66.6583 56.101C66.8765 56.2818 67.1435 56.4689 67.4593 56.6622C67.7851 56.8592 68.1124 57.068 68.441 57.2886C68.7832 57.5029 69.0845 57.7364 69.3449 57.9891C69.6153 58.2454 69.8073 58.5302 69.9211 58.8434C70.0385 59.1466 70.0284 59.4888 69.8908 59.8701C69.6735 60.4721 69.3055 60.8949 68.7866 61.1386C68.2814 61.3758 67.6752 61.4689 66.9679 61.4178C66.2742 61.3602 65.5361 61.1902 64.7535 60.9078ZM85.6079 68.4678C85.3972 68.3918 85.2142 68.286 85.0589 68.1506C84.9001 68.0253 84.7625 67.8565 84.6462 67.6445C84.5336 67.4224 84.4258 67.1397 84.3229 66.7964C84.2273 66.433 84.1712 66.0385 84.1547 65.613C84.1417 65.1774 84.1529 64.7222 84.1882 64.2473C84.2272 63.7624 84.2729 63.2743 84.3255 62.7829C84.3881 62.2952 84.4384 61.8258 84.4765 61.3746C84.5182 60.9134 84.5304 60.4868 84.513 60.095C84.4993 59.6931 84.442 59.3493 84.341 59.0634L84.923 59.4775C84.4752 59.7128 84.0303 60.0342 83.5884 60.4417C83.1502 60.8392 82.7188 61.2959 82.2945 61.8119C81.8702 62.3278 81.4532 62.8861 81.0437 63.4867C80.6378 64.0773 80.2483 64.6852 79.8753 65.3104C79.7 65.576 79.4982 65.7583 79.2697 65.8573C79.0448 65.9462 78.7768 65.9346 78.4658 65.8223C78.3454 65.7789 78.2158 65.6981 78.077 65.5799C77.9446 65.4755 77.8339 65.3108 77.745 65.0859C77.656 64.861 77.5961 64.5559 77.5651 64.1705C77.5374 63.6502 77.526 63.0847 77.5308 62.4741C77.5458 61.8672 77.5816 61.2337 77.6383 60.5738C77.695 59.9138 77.7686 59.2543 77.859 58.5952C77.9531 57.9261 78.0654 57.2692 78.196 56.6246C78.3266 55.98 78.4732 55.3695 78.6358 54.7931C78.7272 54.5086 78.8793 54.2913 79.0921 54.1414C79.3151 53.995 79.6121 53.9888 79.9834 54.1228C80.3847 54.2676 80.63 54.5149 80.7192 54.8646C80.8221 55.2079 80.8058 55.5989 80.6702 56.0376C80.5301 56.52 80.401 57.0348 80.283 57.5819C80.1786 58.1225 80.0856 58.6787 80.0041 59.2503C79.9261 59.8118 79.8665 60.3856 79.8251 60.9717C79.7873 61.5478 79.7627 62.1343 79.7514 62.7312L79.292 62.6845C79.7631 61.9133 80.2412 61.2013 80.7263 60.5485C81.2213 59.8993 81.723 59.3263 82.2312 58.8293C82.743 58.3222 83.2456 57.9196 83.7388 57.6213C84.0782 57.4036 84.4177 57.2483 84.7574 57.1554C85.0971 57.0625 85.4425 57.0795 85.7937 57.2062C86.1148 57.3221 86.3454 57.5471 86.4857 57.8812C86.6396 58.2089 86.7229 58.7322 86.7355 59.4512C86.7521 59.8768 86.7168 60.3516 86.6297 60.8759C86.5562 61.3937 86.4787 61.9384 86.3971 62.51C86.3293 63.0751 86.2887 63.6275 86.2754 64.167C86.2722 64.7102 86.3427 65.2062 86.4868 65.6552L85.833 65.4872C86.1384 65.1438 86.4368 64.7412 86.7282 64.2794C87.0232 63.8075 87.3154 63.312 87.6049 62.7927C87.8943 62.2735 88.1769 61.7574 88.4527 61.2446C88.7386 60.7354 89.0099 60.2663 89.2668 59.8374C89.5336 59.412 89.7953 59.0642 90.0516 58.7938C90.3188 58.4934 90.5612 58.3087 90.7788 58.2398C90.9965 58.1709 91.2407 58.1854 91.5116 58.2831C91.8327 58.399 92.0359 58.5744 92.1212 58.8093C92.2202 59.0378 92.2222 59.2993 92.1272 59.5939C92.0323 59.8885 91.8662 60.1915 91.6291 60.5028C91.333 60.8835 91.032 61.3249 90.7261 61.8269C90.4202 62.3288 90.1102 62.8577 89.7963 63.4135C89.4823 63.9692 89.1615 64.5282 88.8339 65.0904C88.5099 65.6425 88.1781 66.1691 87.8385 66.6703C87.5125 67.165 87.1778 67.6055 86.8343 67.9918C86.588 68.2658 86.3646 68.4291 86.1643 68.4815C85.9639 68.5339 85.7784 68.5294 85.6079 68.4678ZM91.2107 70.4558C90.9599 70.3652 90.7741 70.2358 90.6534 70.0675C90.5327 69.8992 90.4703 69.6952 90.466 69.4556C90.4718 69.2195 90.5218 68.9711 90.6159 68.7102C90.8658 68.0179 91.0726 67.4291 91.2364 66.9439C91.4102 66.4623 91.5554 66.0441 91.6721 65.6894C91.8024 65.3282 91.9187 64.9902 92.0209 64.6756C92.1332 64.3645 92.2527 64.0334 92.3794 63.6823C92.4772 63.4114 92.6042 63.1851 92.7605 63.0033C92.9204 62.8116 93.1192 62.6849 93.3569 62.6232C93.5947 62.5616 93.859 62.5833 94.15 62.6883C94.451 62.7969 94.6555 62.9841 94.7637 63.25C94.8819 63.5194 94.87 63.8667 94.728 64.2917C94.6519 64.5024 94.5419 64.7916 94.3979 65.1592C94.2575 65.5167 94.0958 65.9177 93.9128 66.3619C93.7399 66.8098 93.5669 67.2577 93.3939 67.7055C93.2246 68.1434 93.0661 68.5511 92.9185 68.9288C92.7708 69.3064 92.6572 69.6056 92.5775 69.8264C92.4725 70.1173 92.3054 70.3291 92.076 70.4618C91.8503 70.5845 91.5619 70.5825 91.2107 70.4558ZM94.5903 61.6565C94.1188 61.4863 93.7828 61.2233 93.5823 60.8675C93.3819 60.5116 93.3468 60.1531 93.4772 59.7919C93.6075 59.4307 93.8343 59.195 94.1576 59.0849C94.4845 58.9647 94.8435 58.9752 95.2348 59.1165C95.5459 59.2287 95.7814 59.3931 95.9414 59.6096C96.1114 59.8297 96.2136 60.065 96.248 60.3156C96.2859 60.5561 96.265 60.7867 96.1854 61.0074C96.0949 61.2582 95.9108 61.4697 95.6333 61.6417C95.3694 61.8072 95.0218 61.8122 94.5903 61.6565ZM97.62 72.8198C96.7671 72.512 96.1518 72.0802 95.7741 71.5243C95.4 70.9583 95.2207 70.2926 95.2361 69.527C95.2616 68.7651 95.4373 67.9327 95.7632 67.0297C95.9478 66.518 96.1395 66.0655 96.3381 65.6722C96.5367 65.279 96.7281 64.9058 96.9122 64.5526C97.1064 64.2031 97.2877 63.8263 97.4563 63.4222C97.6421 63.0016 97.7738 62.6523 97.8515 62.3741C97.9328 62.086 98.022 61.8233 98.1189 61.5861C98.205 61.379 98.3422 61.2187 98.5305 61.1053C98.7326 60.9854 98.9791 60.978 99.27 61.083C99.6914 61.2351 99.9323 61.5261 99.9925 61.9561C100.053 62.3861 99.9144 63.0052 99.5774 63.8135C99.4378 64.1373 99.2937 64.4425 99.1449 64.729C98.9998 65.0055 98.846 65.2902 98.6836 65.5831C98.5349 65.8696 98.377 66.1812 98.2102 66.5179C98.057 66.8482 97.9025 67.229 97.7468 67.6605C97.5078 68.3227 97.383 68.873 97.3722 69.3113C97.3614 69.7497 97.4557 70.1012 97.655 70.3659C97.8579 70.6206 98.15 70.8168 98.5313 70.9543C98.7721 71.0412 98.97 71.09 99.1249 71.1005C99.2835 71.1011 99.4202 71.0994 99.535 71.0954C99.6635 71.0851 99.7979 71.1053 99.9384 71.156C100.139 71.2284 100.273 71.3447 100.34 71.5049C100.407 71.6652 100.395 71.8707 100.304 72.1215C100.16 72.5229 99.859 72.8056 99.4029 72.9699C98.9567 73.1377 98.3624 73.0877 97.62 72.8198ZM97.8963 66.7278C97.4808 66.748 97.1998 66.6466 97.0535 66.4237C96.9108 66.1907 96.8937 65.9238 97.0023 65.6228C97.0965 65.3619 97.2367 65.146 97.4231 64.9752C97.6095 64.8043 97.9474 64.7164 98.4368 64.7116C98.8788 64.7123 99.3569 64.7545 99.8711 64.838C100.395 64.9251 100.873 65.0465 101.305 65.2022C101.786 65.376 102.093 65.5944 102.225 65.8575C102.367 66.1241 102.385 66.403 102.28 66.6939C102.197 66.9247 102.063 67.0749 101.879 67.1446C101.695 67.2143 101.479 67.2158 101.231 67.1489C100.779 67.0197 100.371 66.9237 100.009 66.8608C99.6594 66.7914 99.318 66.7476 98.9844 66.7293C98.6508 66.711 98.2881 66.7105 97.8963 66.7278ZM102.266 74.4113C102.015 74.3208 101.821 74.1659 101.685 73.9466C101.549 73.7273 101.478 73.4522 101.473 73.1214C101.477 72.7943 101.55 72.435 101.691 72.0437C102.046 71.0605 102.41 70.1938 102.783 69.4438C103.155 68.6938 103.506 68.0209 103.834 67.425C104.167 66.8191 104.444 66.2556 104.666 65.7347C104.806 65.3772 104.913 65.0643 104.987 64.7962C105.071 64.5317 105.136 64.2887 105.182 64.0671C105.242 63.8392 105.317 63.6166 105.406 63.3995C105.492 63.1924 105.63 63.0322 105.818 62.9187C106.01 62.7952 106.256 62.7878 106.557 62.8964C106.838 62.9978 107.042 63.1732 107.167 63.4226C107.296 63.6619 107.33 64.0086 107.268 64.4626C107.22 64.9102 107.054 65.4797 106.77 66.1711C106.553 66.6483 106.294 67.1615 105.994 67.7109C105.693 68.2602 105.371 68.8866 105.026 69.5901C104.695 70.2871 104.37 71.094 104.051 72.0107L103.854 71.1404C104.67 70.2325 105.392 69.5181 106.023 68.9971C106.663 68.4798 107.238 68.143 107.748 67.9868C108.262 67.8206 108.719 67.81 109.12 67.9548C109.642 68.1431 109.989 68.4384 110.162 68.8408C110.344 69.2468 110.404 69.7561 110.342 70.3686C110.293 70.9748 110.166 71.6887 109.96 72.5102C109.817 73.0938 109.72 73.5689 109.667 73.9354C109.628 74.2954 109.612 74.5903 109.62 74.8199C109.641 75.0431 109.668 75.2513 109.701 75.4444C109.718 75.5528 109.722 75.6676 109.712 75.7889C109.713 75.9137 109.693 76.0313 109.653 76.1417C109.559 76.4026 109.398 76.5825 109.169 76.6815C108.951 76.7841 108.696 76.7828 108.405 76.6778C108.054 76.5511 107.806 76.3257 107.662 76.0016C107.519 75.6776 107.451 75.2845 107.459 74.8224C107.467 74.3604 107.533 73.8626 107.657 73.3292C107.811 72.7155 107.924 72.2122 107.998 71.8192C108.075 71.4162 108.122 71.0817 108.139 70.8155C108.156 70.5494 108.148 70.3029 108.117 70.0761C107.915 70.0711 107.584 70.2181 107.124 70.5173C106.665 70.8164 106.117 71.2652 105.482 71.8636C104.846 72.4621 104.16 73.201 103.423 74.0804C103.218 74.3015 103.03 74.4318 102.856 74.4714C102.683 74.511 102.487 74.491 102.266 74.4113ZM119.452 71.003C119.041 70.8545 118.779 70.6524 118.668 70.3966C118.556 70.1408 118.549 69.8774 118.647 69.6065C118.733 69.3657 118.886 69.194 119.105 69.0914C119.337 68.9824 119.621 68.9658 119.956 69.0415C120.527 69.1568 121.122 69.2979 121.742 69.465C122.366 69.6221 122.979 69.7924 123.582 69.9759C124.195 70.163 124.757 70.349 125.269 70.5336C125.751 70.7074 126.07 70.8907 126.227 71.0835C126.395 71.28 126.424 71.5287 126.315 71.8297C126.185 72.1909 125.909 72.4203 125.489 72.5179C125.078 72.6192 124.602 72.572 124.06 72.3765C123.508 72.1774 123.023 72.0136 122.604 71.8852C122.199 71.7504 121.841 71.6437 121.529 71.5652C121.221 71.4767 120.941 71.404 120.689 71.3472C120.451 71.284 120.233 71.228 120.035 71.1793C119.837 71.1305 119.643 71.0718 119.452 71.003ZM119.689 79.0662C119.318 78.9322 119.055 78.7183 118.9 78.4243C118.746 78.1303 118.732 77.8077 118.858 77.4566C119.119 76.7342 119.394 76.0341 119.684 75.3562C119.984 74.682 120.264 74.0343 120.522 73.4131C120.79 72.7955 121.016 72.2308 121.201 71.7191C121.321 71.388 121.465 71.1621 121.633 71.0414C121.801 70.9207 122.026 70.9111 122.307 71.0124C122.638 71.1319 122.88 71.3555 123.034 71.6832C123.198 72.0145 123.218 72.3508 123.095 72.6919C122.961 73.0631 122.768 73.5375 122.514 74.115C122.264 74.6824 121.976 75.3384 121.651 76.0828C121.339 76.8208 121.022 77.6363 120.7 78.5293C120.508 79.061 120.171 79.24 119.689 79.0662ZM116.849 79.7252C116.267 79.5152 115.882 79.2627 115.693 78.9679C115.505 78.6731 115.469 78.3652 115.585 78.0441C115.657 77.8435 115.777 77.6996 115.944 77.6127C116.126 77.5193 116.352 77.5046 116.624 77.5686C117.177 77.7003 117.668 77.8322 118.097 77.9642C118.539 78.0898 118.958 78.2182 119.353 78.3494C119.751 78.4705 120.166 78.6089 120.598 78.7646C121.029 78.9203 121.511 79.0941 122.042 79.286C122.424 79.4236 122.702 79.5637 122.877 79.7064C123.053 79.849 123.152 79.9982 123.175 80.154C123.212 80.3034 123.203 80.4533 123.149 80.6038C123.044 80.8948 122.823 81.0986 122.486 81.2151C122.159 81.3353 121.71 81.2922 121.138 81.0858C120.486 80.8504 119.88 80.6432 119.321 80.4641C118.758 80.2951 118.266 80.1514 117.844 80.033C117.421 79.9147 117.09 79.8121 116.849 79.7252ZM131.034 84.8271C130.652 84.6895 130.377 84.4145 130.209 84.0021C130.044 83.5796 130.003 83.0152 130.088 82.3087C130.177 81.5922 130.404 80.7272 130.77 79.7139C130.885 79.3928 130.971 79.1233 131.027 78.9054C131.093 78.691 131.13 78.5114 131.137 78.3665C131.144 78.2216 131.123 78.0895 131.076 77.9702C131.038 77.8546 130.973 77.7349 130.882 77.6112C131.123 77.6981 131.314 77.7956 131.457 77.9037C131.613 78.0054 131.706 78.1409 131.735 78.3104C131.769 78.4698 131.733 78.6781 131.629 78.9353C131.544 78.6667 131.456 78.4705 131.365 78.3468C131.284 78.2267 131.173 78.1413 131.032 78.0906C130.842 78.0218 130.577 78.0626 130.24 78.2129C129.905 78.3531 129.52 78.5882 129.084 78.9183C128.661 79.2419 128.212 79.6527 127.737 80.1505C127.273 80.6519 126.805 81.2258 126.334 81.8722C126.061 82.2501 125.821 82.4922 125.612 82.5984C125.407 82.6946 125.174 82.6957 124.914 82.6015C124.462 82.4386 124.212 82.0933 124.165 81.5658C124.117 81.0383 124.22 80.4233 124.473 79.721C124.654 79.2193 124.832 78.7901 125.006 78.4334C125.19 78.0802 125.365 77.7522 125.531 77.4492C125.707 77.1499 125.875 76.8419 126.035 76.5253C126.208 76.2023 126.371 75.8301 126.523 75.4087C126.631 75.1077 126.783 74.9073 126.978 74.8075C127.173 74.7076 127.406 74.7066 127.676 74.8044C127.977 74.913 128.172 75.0966 128.26 75.3552C128.362 75.6074 128.333 75.9542 128.174 76.3957C128.062 76.7067 127.933 76.9836 127.789 77.2264C127.658 77.4627 127.509 77.7206 127.34 77.9998C127.175 78.2691 126.998 78.6021 126.809 78.999C126.624 79.3859 126.435 79.8789 126.241 80.4781L125.938 79.8582C126.688 78.8476 127.425 78.0475 128.148 77.4579C128.881 76.872 129.572 76.4807 130.221 76.2841C130.871 76.0875 131.441 76.0779 131.933 76.2553C132.354 76.4074 132.671 76.6294 132.883 76.9215C133.095 77.2135 133.208 77.5604 133.222 77.9623C133.239 78.3541 133.163 78.7858 132.993 79.2574C132.728 79.9898 132.519 80.6173 132.364 81.1398C132.21 81.6624 132.12 82.1005 132.094 82.4542C132.078 82.8114 132.133 83.1148 132.259 83.3642C132.336 83.528 132.381 83.686 132.394 83.8382C132.411 83.9803 132.385 84.1467 132.316 84.3373C132.24 84.548 132.084 84.7129 131.848 84.8319C131.626 84.9446 131.355 84.943 131.034 84.8271ZM140.627 88.2893C140.246 88.1517 139.971 87.8767 139.802 87.4643C139.637 87.0418 139.597 86.4774 139.682 85.7709C139.771 85.0544 139.998 84.1894 140.363 83.1761C140.479 82.855 140.565 82.5855 140.621 82.3676C140.687 82.1533 140.724 81.9736 140.73 81.8287C140.737 81.6838 140.717 81.5517 140.669 81.4324C140.632 81.3168 140.567 81.1971 140.476 81.0734C140.717 81.1603 140.908 81.2578 141.051 81.3659C141.207 81.4676 141.3 81.6031 141.329 81.7726C141.362 81.932 141.327 82.1403 141.223 82.3975C141.138 82.1289 141.05 81.9327 140.959 81.809C140.877 81.6889 140.766 81.6035 140.626 81.5528C140.435 81.484 140.171 81.5248 139.833 81.6751C139.499 81.8153 139.114 82.0505 138.677 82.3805C138.254 82.7041 137.806 83.1149 137.331 83.6127C136.867 84.1141 136.399 84.688 135.927 85.3344C135.655 85.7124 135.414 85.9544 135.206 86.0607C135.001 86.1568 134.768 86.1579 134.507 86.0637C134.056 85.9008 133.806 85.5556 133.758 85.028C133.711 84.5005 133.814 83.8855 134.067 83.1832C134.248 82.6815 134.426 82.2523 134.6 81.8956C134.784 81.5425 134.959 81.2144 135.125 80.9115C135.301 80.6121 135.469 80.3041 135.629 79.9875C135.802 79.6645 135.964 79.2923 136.117 78.8709C136.225 78.5699 136.377 78.3695 136.572 78.2697C136.766 78.1699 136.999 78.1688 137.27 78.2666C137.571 78.3752 137.766 78.5588 137.854 78.8174C137.956 79.0696 137.927 79.4165 137.768 79.8579C137.655 80.169 137.527 80.4458 137.383 80.6886C137.252 80.925 137.102 81.1828 136.933 81.462C136.768 81.7313 136.591 82.0643 136.403 82.4612C136.218 82.8481 136.029 83.3411 135.835 83.9403L135.531 83.3204C136.282 82.3098 137.018 81.5097 137.741 80.9201C138.475 80.3342 139.166 79.9429 139.815 79.7463C140.464 79.5497 141.035 79.5401 141.526 79.7175C142.158 79.9456 142.554 80.3265 142.713 80.8602C142.882 81.3974 142.84 82.0172 142.586 82.7196C142.322 83.452 142.113 84.0795 141.958 84.6021C141.803 85.1246 141.713 85.5627 141.688 85.9164C141.672 86.2737 141.727 86.577 141.853 86.8264C141.93 86.9902 141.975 87.1482 141.988 87.3004C142.005 87.4425 141.978 87.6089 141.91 87.7995C141.834 88.0102 141.678 88.1751 141.442 88.2942C141.22 88.4068 140.948 88.4052 140.627 88.2893ZM146.752 90.5334C145.909 90.2293 145.223 89.789 144.694 89.2125C144.175 88.6396 143.838 87.9852 143.684 87.2492C143.544 86.5069 143.613 85.7494 143.892 84.9768C144.084 84.445 144.368 83.9864 144.746 83.6009C145.137 83.209 145.566 82.899 146.034 82.671C146.505 82.4329 146.973 82.2841 147.437 82.2247C147.9 82.1652 148.308 82.1988 148.659 82.3256C148.809 82.3799 148.936 82.4539 149.038 82.5475C149.154 82.6347 149.234 82.7429 149.278 82.8722C149.322 83.0015 149.313 83.1515 149.252 83.322C149.143 83.623 148.98 83.8704 148.763 84.0641C148.559 84.2514 148.235 84.3497 147.789 84.359C147.491 84.3989 147.214 84.4748 146.958 84.5866C146.703 84.6984 146.478 84.8498 146.284 85.0407C146.091 85.2316 145.949 85.4525 145.858 85.7034C145.623 86.3555 145.638 86.9565 145.905 87.5063C146.175 88.046 146.651 88.439 147.333 88.6852C147.915 88.8953 148.459 88.8648 148.965 88.5938C149.471 88.3228 149.846 87.8512 150.088 87.179C150.302 86.587 150.315 86.0643 150.127 85.6109C149.953 85.1512 149.605 84.8271 149.083 84.6388C148.822 84.5447 148.585 84.527 148.371 84.5859C148.167 84.6484 147.928 84.7437 147.655 84.872C147.45 84.9681 147.279 85.0483 147.143 85.1124C147.016 85.1802 146.894 85.221 146.776 85.235C146.657 85.2489 146.523 85.2288 146.372 85.1745C146.212 85.1165 146.093 85.0056 146.016 84.8418C145.939 84.6779 145.96 84.4305 146.08 84.0994C146.177 83.8285 146.35 83.5847 146.599 83.3681C146.851 83.1415 147.142 82.9631 147.472 82.8329C147.816 82.6963 148.169 82.6138 148.531 82.5856C148.893 82.5574 149.239 82.603 149.57 82.7225C150.373 83.0122 151.004 83.4157 151.464 83.9331C151.937 84.4442 152.223 85.0349 152.321 85.7054C152.433 86.3695 152.35 87.0878 152.071 87.8604C151.792 88.6329 151.372 89.2637 150.81 89.7526C150.248 90.2415 149.61 90.5616 148.898 90.7128C148.199 90.8575 147.484 90.7978 146.752 90.5334ZM155.282 93.5778C155.021 93.4837 154.82 93.332 154.681 93.1227C154.544 92.9034 154.429 92.5952 154.334 92.1981C154.267 91.913 154.213 91.5591 154.173 91.1364C154.146 90.7072 154.124 90.2511 154.105 89.7682C154.097 89.2889 154.091 88.8501 154.087 88.4518C154.074 87.8914 154.043 87.4267 153.995 87.0577C153.956 86.6924 153.923 86.3913 153.895 86.1544C153.871 85.9075 153.856 85.6979 153.85 85.5257C153.858 85.3471 153.896 85.1624 153.965 84.9718C154.034 84.7812 154.157 84.6442 154.334 84.5608C154.512 84.4775 154.741 84.4865 155.022 84.5879C155.333 84.7001 155.565 84.8745 155.718 85.1111C155.87 85.3476 155.978 85.6303 156.041 85.9592C156.114 86.2916 156.152 86.657 156.156 87.0552C156.161 87.5109 156.16 87.9866 156.151 88.4824C156.152 88.9818 156.16 89.4779 156.175 89.9709C156.2 90.4675 156.236 90.934 156.282 91.3705L155.753 91.0942C156.185 90.6831 156.581 90.293 156.941 89.924C157.314 89.5485 157.676 89.1913 158.025 88.8523C158.387 88.507 158.758 88.1871 159.136 87.8928C159.518 87.5884 159.939 87.3035 160.397 87.0381C160.586 86.9246 160.763 86.8581 160.929 86.8385C161.095 86.819 161.273 86.8436 161.463 86.9124C161.624 86.9704 161.748 87.0662 161.836 87.2C161.934 87.3373 161.991 87.4939 162.007 87.6698C162.026 87.8356 162.007 87.9988 161.949 88.1593C161.887 88.3299 161.803 88.4864 161.694 88.6288C161.586 88.7712 161.469 88.8932 161.341 88.9946C160.834 89.3331 160.382 89.6577 159.986 89.9685C159.594 90.2693 159.215 90.5805 158.85 90.9022C158.484 91.2238 158.108 91.5756 157.721 91.9575C157.333 92.3394 156.899 92.7724 156.418 93.2566C156.215 93.4439 156.029 93.5642 155.863 93.6174C155.696 93.6707 155.502 93.6575 155.282 93.5778ZM162.26 96.0961C161.758 95.9151 161.358 95.6572 161.059 95.3226C160.76 94.9879 160.571 94.602 160.49 94.1648C160.414 93.7175 160.462 93.2531 160.636 92.7715C160.817 92.2698 161.08 91.7921 161.425 91.3383C161.784 90.8781 162.194 90.4648 162.655 90.0982C163.116 89.7317 163.608 89.4384 164.13 89.2184C164.655 88.9884 165.181 88.8495 165.709 88.8017C166.236 88.754 166.736 88.8152 167.207 88.9853C167.538 89.1048 167.778 89.3047 167.927 89.5851C168.075 89.8654 168.082 90.1912 167.948 90.5624C167.894 90.7129 167.805 90.817 167.682 90.8747C167.573 90.926 167.443 90.9414 167.291 90.9208C166.593 90.7821 165.921 90.823 165.274 91.0433C164.631 91.2535 164.063 91.5871 163.569 92.0439C163.089 92.4944 162.74 93.0206 162.523 93.6226C162.447 93.8333 162.392 94.0344 162.356 94.2258C162.335 94.4109 162.331 94.6588 162.343 94.9695L161.889 93.2578C162.061 93.5353 162.22 93.74 162.365 93.8718C162.52 94.0072 162.723 94.1201 162.974 94.2107C163.536 94.4134 164.171 94.257 164.879 93.7413C165.586 93.2256 166.276 92.3517 166.947 91.1198C167.067 90.9136 167.224 90.7774 167.418 90.7113C167.616 90.6352 167.82 90.6352 168.03 90.7112C168.372 90.8343 168.626 91.0396 168.795 91.3272C168.963 91.6148 169.031 91.9286 168.999 92.2686C168.969 92.8245 168.943 93.3368 168.921 93.8052C168.903 94.2637 168.926 94.7197 168.989 95.1734C169.065 95.6207 169.2 96.1116 169.393 96.646C169.462 96.8299 169.463 97.0172 169.394 97.2079C169.335 97.4021 169.23 97.5851 169.077 97.7568C168.938 97.9221 168.77 98.0428 168.572 98.1189C168.388 98.1886 168.191 98.1854 167.98 98.1094C167.81 98.0478 167.682 97.962 167.597 97.852C167.518 97.7556 167.455 97.6477 167.407 97.5285C167.294 97.1815 167.198 96.8519 167.118 96.5395C167.041 96.2171 166.987 95.88 166.955 95.5283C166.927 95.1666 166.923 94.7683 166.944 94.3336C166.969 93.8888 167.027 93.3824 167.118 92.8145L167.842 93.0246C167.199 94.0514 166.548 94.8198 165.887 95.33C165.227 95.8401 164.585 96.1415 163.962 96.2341C163.349 96.3304 162.782 96.2844 162.26 96.0961ZM173.235 100.108C172.382 99.8 171.767 99.3682 171.389 98.8123C171.015 98.2464 170.836 97.5806 170.851 96.8151C170.877 96.0532 171.052 95.2207 171.378 94.3177C171.563 93.806 171.754 93.3535 171.953 92.9603C172.152 92.567 172.343 92.1938 172.527 91.8407C172.721 91.4912 172.903 91.1144 173.071 90.7102C173.257 90.2897 173.389 89.9403 173.466 89.6622C173.548 89.374 173.637 89.1113 173.734 88.8742C173.82 88.6671 173.957 88.5068 174.145 88.3933C174.347 88.2735 174.594 88.266 174.885 88.371C175.306 88.5231 175.547 88.8141 175.607 89.2441C175.668 89.6741 175.529 90.2933 175.192 91.1015C175.053 91.4254 174.909 91.7306 174.76 92.0171C174.615 92.2935 174.461 92.5783 174.299 92.8712C174.15 93.1577 173.992 93.4693 173.825 93.806C173.672 94.1363 173.517 94.5171 173.362 94.9485C173.123 95.6107 172.998 96.161 172.987 96.5994C172.976 97.0378 173.071 97.3893 173.27 97.654C173.473 97.9087 173.765 98.1048 174.146 98.2424C174.387 98.3293 174.585 98.378 174.74 98.3886C174.898 98.3891 175.035 98.3874 175.15 98.3835C175.278 98.3732 175.413 98.3933 175.553 98.444C175.754 98.5164 175.888 98.6328 175.955 98.793C176.022 98.9532 176.01 99.1588 175.919 99.4096C175.774 99.8109 175.474 100.094 175.018 100.258C174.572 100.426 173.977 100.376 173.235 100.108ZM173.511 94.0159C173.096 94.036 172.815 93.9347 172.668 93.7117C172.526 93.4788 172.509 93.2118 172.617 92.9108C172.711 92.65 172.852 92.4341 173.038 92.2632C173.224 92.0923 173.562 92.0045 174.052 91.9997C174.494 92.0004 174.972 92.0425 175.486 92.126C176.01 92.2131 176.488 92.3346 176.919 92.4903C177.401 92.6641 177.708 92.8825 177.84 93.1455C177.982 93.4122 178 93.691 177.895 93.982C177.812 94.2127 177.678 94.363 177.494 94.4327C177.31 94.5024 177.094 94.5038 176.846 94.437C176.394 94.3078 175.986 94.2117 175.623 94.1488C175.274 94.0795 174.933 94.0357 174.599 94.0173C174.266 93.999 173.903 93.9985 173.511 94.0159ZM177.886 101.735C177.635 101.645 177.449 101.515 177.328 101.347C177.208 101.179 177.145 100.975 177.141 100.735C177.147 100.499 177.197 100.25 177.291 99.9896C177.541 99.2973 177.747 98.7085 177.911 98.2233C178.085 97.7417 178.23 97.3235 178.347 96.9687C178.477 96.6075 178.594 96.2696 178.696 95.955C178.808 95.6439 178.928 95.3128 179.054 94.9617C179.152 94.6908 179.279 94.4645 179.435 94.2827C179.595 94.091 179.794 93.9643 180.032 93.9026C180.27 93.841 180.534 93.8627 180.825 93.9677C181.126 94.0763 181.33 94.2635 181.439 94.5294C181.557 94.7988 181.545 95.1461 181.403 95.5711C181.327 95.7818 181.217 96.0709 181.073 96.4386C180.932 96.7961 180.771 97.1971 180.588 97.6413C180.415 98.0892 180.242 98.5371 180.069 98.9849C179.899 99.4228 179.741 99.8305 179.593 100.208C179.446 100.586 179.332 100.885 179.252 101.106C179.147 101.397 178.98 101.609 178.751 101.741C178.525 101.864 178.237 101.862 177.886 101.735ZM181.265 92.9359C180.794 92.7657 180.458 92.5027 180.257 92.1469C180.057 91.791 180.022 91.4325 180.152 91.0713C180.282 90.7101 180.509 90.4744 180.832 90.3643C181.159 90.2441 181.518 90.2546 181.91 90.3959C182.221 90.5081 182.456 90.6725 182.616 90.889C182.786 91.1091 182.888 91.3444 182.923 91.595C182.961 91.8355 182.94 92.0661 182.86 92.2868C182.77 92.5376 182.586 92.749 182.308 92.9211C182.044 93.0866 181.697 93.0916 181.265 92.9359ZM184.859 104.286C184.016 103.981 183.33 103.541 182.801 102.965C182.282 102.392 181.945 101.737 181.791 101.001C181.651 100.259 181.72 99.5015 181.999 98.7289C182.191 98.1972 182.475 97.7385 182.853 97.353C183.244 96.9611 183.673 96.6512 184.141 96.4231C184.612 96.185 185.08 96.0362 185.544 95.9768C186.007 95.9173 186.415 95.951 186.766 96.0777C186.916 96.132 187.043 96.206 187.145 96.2996C187.261 96.3868 187.341 96.4951 187.385 96.6244C187.429 96.7537 187.42 96.9036 187.359 97.0742C187.25 97.3751 187.087 97.6225 186.87 97.8162C186.666 98.0036 186.342 98.1019 185.896 98.1111C185.598 98.1511 185.321 98.2269 185.065 98.3387C184.81 98.4505 184.585 98.6019 184.391 98.7928C184.198 98.9838 184.056 99.2047 183.965 99.4555C183.73 100.108 183.745 100.709 184.012 101.258C184.282 101.798 184.758 102.191 185.44 102.437C186.022 102.647 186.566 102.617 187.072 102.346C187.578 102.075 187.953 101.603 188.195 100.931C188.409 100.339 188.422 99.8165 188.234 99.3631C188.06 98.9033 187.712 98.5792 187.19 98.391C186.929 98.2968 186.692 98.2792 186.478 98.338C186.274 98.4005 186.035 98.4958 185.762 98.6241C185.557 98.7203 185.386 98.8004 185.25 98.8646C185.123 98.9323 185.001 98.9732 184.883 98.9871C184.764 99.0011 184.63 98.9809 184.479 98.9266C184.319 98.8686 184.2 98.7578 184.123 98.5939C184.046 98.4301 184.067 98.1826 184.187 97.8515C184.284 97.5806 184.457 97.3368 184.706 97.1203C184.958 96.8936 185.249 96.7152 185.579 96.585C185.923 96.4484 186.276 96.366 186.638 96.3377C187 96.3095 187.346 96.3552 187.677 96.4746C188.48 96.7643 189.111 97.1679 189.571 97.6853C190.044 98.1963 190.33 98.787 190.428 99.4575C190.54 100.122 190.457 100.84 190.178 101.612C189.899 102.385 189.479 103.016 188.917 103.505C188.355 103.994 187.717 104.314 187.005 104.465C186.306 104.61 185.591 104.55 184.859 104.286ZM197.613 108.854C197.232 108.717 196.957 108.442 196.788 108.029C196.623 107.607 196.583 107.043 196.668 106.336C196.756 105.62 196.983 104.755 197.349 103.741C197.465 103.42 197.551 103.151 197.607 102.933C197.673 102.718 197.709 102.539 197.716 102.394C197.723 102.249 197.703 102.117 197.655 101.998C197.618 101.882 197.553 101.762 197.462 101.639C197.702 101.725 197.894 101.823 198.036 101.931C198.193 102.033 198.285 102.168 198.315 102.338C198.348 102.497 198.313 102.705 198.208 102.963C198.124 102.694 198.036 102.498 197.945 102.374C197.863 102.254 197.752 102.169 197.612 102.118C197.421 102.049 197.157 102.09 196.819 102.24C196.485 102.38 196.1 102.616 195.663 102.946C195.24 103.269 194.791 103.68 194.317 104.178C193.852 104.679 193.385 105.253 192.913 105.9C192.641 106.278 192.4 106.52 192.192 106.626C191.987 106.722 191.754 106.723 191.493 106.629C191.042 106.466 190.792 106.121 190.744 105.593C190.697 105.066 190.799 104.451 191.053 103.748C191.234 103.247 191.412 102.818 191.586 102.461C191.77 102.108 191.945 101.78 192.111 101.477C192.287 101.177 192.455 100.869 192.614 100.553C192.788 100.23 192.95 99.8575 193.102 99.4361C193.211 99.1351 193.363 98.9347 193.558 98.8348C193.752 98.735 193.985 98.734 194.256 98.8318C194.557 98.9404 194.752 99.124 194.84 99.3826C194.942 99.6348 194.913 99.9816 194.753 100.423C194.641 100.734 194.513 101.011 194.369 101.254C194.238 101.49 194.088 101.748 193.919 102.027C193.754 102.296 193.577 102.63 193.389 103.026C193.204 103.413 193.014 103.906 192.821 104.505L192.517 103.886C193.268 102.875 194.004 102.075 194.727 101.485C195.46 100.899 196.152 100.508 196.801 100.311C197.45 100.115 198.021 100.105 198.512 100.283C199.144 100.511 199.54 100.892 199.699 101.425C199.868 101.963 199.826 102.582 199.572 103.285C199.308 104.017 199.098 104.645 198.944 105.167C198.789 105.69 198.699 106.128 198.674 106.482C198.658 106.839 198.713 107.142 198.839 107.392C198.915 107.555 198.96 107.713 198.974 107.866C198.99 108.008 198.964 108.174 198.896 108.365C198.82 108.575 198.664 108.74 198.428 108.859C198.206 108.972 197.934 108.97 197.613 108.854Z" fill="black"/>
</svg>
