<svg width="97" height="76" viewBox="0 0 97 76" fill="none" xmlns="http://www.w3.org/2000/svg">
<circle cx="38" cy="38" r="38" fill="#EFEDFB"/>
<path d="M70.5 44.125C74.1589 44.125 77.125 41.1589 77.125 37.5C77.125 33.8411 74.1589 30.875 70.5 30.875C66.8411 30.875 63.875 33.8411 63.875 37.5C63.875 41.1589 66.8411 44.125 70.5 44.125Z" stroke="#060815" stroke-width="2" stroke-linecap="round" stroke-linejoin="round"/>
<path d="M86.8413 44.1252C86.5474 44.7912 86.4597 45.5301 86.5896 46.2465C86.7195 46.9628 87.061 47.6239 87.5701 48.1443L87.7026 48.2768C88.1132 48.687 88.439 49.1741 88.6613 49.7103C88.8835 50.2465 88.9979 50.8212 88.9979 51.4016C88.9979 51.982 88.8835 52.5568 88.6613 53.0929C88.439 53.6291 88.1132 54.1162 87.7026 54.5264C87.2924 54.9371 86.8053 55.2628 86.2691 55.4851C85.7329 55.7074 85.1582 55.8218 84.5778 55.8218C83.9974 55.8218 83.4227 55.7074 82.8865 55.4851C82.3503 55.2628 81.8632 54.9371 81.453 54.5264L81.3205 54.3939C80.8001 53.8848 80.139 53.5433 79.4226 53.4134C78.7063 53.2835 77.9674 53.3712 77.3013 53.6652C76.6482 53.9451 76.0911 54.4099 75.6988 55.0024C75.3064 55.5949 75.0958 56.2891 75.093 56.9997V57.3752C75.093 58.5465 74.6277 59.6699 73.7994 60.4982C72.9711 61.3265 71.8477 61.7918 70.6763 61.7918C69.505 61.7918 68.3816 61.3265 67.5533 60.4982C66.725 59.6699 66.2597 58.5465 66.2597 57.3752V57.1764C66.2426 56.4455 66.006 55.7366 65.5806 55.1419C65.1553 54.5472 64.5609 54.0942 63.8747 53.8418C63.2086 53.5479 62.4697 53.4602 61.7534 53.5901C61.037 53.72 60.376 54.0615 59.8555 54.5706L59.723 54.7031C59.3128 55.1137 58.8257 55.4395 58.2895 55.6618C57.7534 55.884 57.1786 55.9984 56.5982 55.9984C56.0178 55.9984 55.4431 55.884 54.9069 55.6618C54.3707 55.4395 53.8836 55.1137 53.4734 54.7031C53.0628 54.2929 52.737 53.8058 52.5147 53.2696C52.2925 52.7334 52.1781 52.1587 52.1781 51.5783C52.1781 50.9979 52.2925 50.4231 52.5147 49.887C52.737 49.3508 53.0628 48.8637 53.4734 48.4535L53.6059 48.321C54.115 47.8005 54.4565 47.1395 54.5864 46.4231C54.7163 45.7068 54.6286 44.9679 54.3347 44.3018C54.0547 43.6487 53.5899 43.0916 52.9975 42.6993C52.405 42.3069 51.7107 42.0963 51.0001 42.0935H50.6247C49.4533 42.0935 48.3299 41.6282 47.5016 40.7999C46.6733 39.9716 46.208 38.8482 46.208 37.6768C46.208 36.5055 46.6733 35.3821 47.5016 34.5538C48.3299 33.7255 49.4533 33.2602 50.6247 33.2602H50.8234C51.5544 33.2431 52.2633 33.0065 52.858 32.5811C53.4527 32.1558 53.9056 31.5614 54.158 30.8752C54.452 30.2091 54.5397 29.4702 54.4098 28.7539C54.2799 28.0375 53.9384 27.3765 53.4293 26.856L53.2968 26.7235C52.8861 26.3133 52.5603 25.8262 52.3381 25.29C52.1158 24.7538 52.0014 24.1791 52.0014 23.5987C52.0014 23.0183 52.1158 22.4436 52.3381 21.9074C52.5603 21.3712 52.8861 20.8841 53.2968 20.4739C53.7069 20.0633 54.1941 19.7375 54.7302 19.5152C55.2664 19.293 55.8411 19.1786 56.4216 19.1786C57.002 19.1786 57.5767 19.293 58.1129 19.5152C58.649 19.7375 59.1362 20.0633 59.5463 20.4739L59.6788 20.6064C60.1993 21.1155 60.8603 21.457 61.5767 21.5869C62.2931 21.7168 63.0319 21.6291 63.698 21.3352H63.8747C64.5278 21.0552 65.0849 20.5904 65.4772 19.9979C65.8696 19.4055 66.0802 18.7112 66.083 18.0006V17.6252C66.083 16.4538 66.5483 15.3304 67.3766 14.5021C68.2049 13.6738 69.3283 13.2085 70.4997 13.2085C71.671 13.2085 72.7944 13.6738 73.6227 14.5021C74.451 15.3304 74.9163 16.4538 74.9163 17.6252V17.8239C74.9192 18.5345 75.1297 19.2288 75.5221 19.8213C75.9145 20.4137 76.4715 20.8786 77.1247 21.1585C77.7907 21.4525 78.5296 21.5401 79.246 21.4103C79.9623 21.2804 80.6234 20.9388 81.1438 20.4297L81.2763 20.2972C81.6865 19.8866 82.1736 19.5608 82.7098 19.3386C83.246 19.1163 83.8207 19.0019 84.4011 19.0019C84.9816 19.0019 85.5563 19.1163 86.0925 19.3386C86.6286 19.5608 87.1157 19.8866 87.5259 20.2972C87.9366 20.7074 88.2623 21.1945 88.4846 21.7307C88.7069 22.2669 88.8213 22.8416 88.8213 23.422C88.8213 24.0025 88.7069 24.5772 88.4846 25.1134C88.2623 25.6495 87.9366 26.1366 87.5259 26.5468L87.3934 26.6793C86.8843 27.1998 86.5428 27.8608 86.4129 28.5772C86.283 29.2936 86.3707 30.0324 86.6647 30.6985V30.8752C86.9446 31.5283 87.4094 32.0854 88.0019 32.4777C88.5944 32.8701 89.2886 33.0807 89.9993 33.0835H90.3747C91.5461 33.0835 92.6694 33.5488 93.4977 34.3771C94.326 35.2054 94.7913 36.3288 94.7913 37.5002C94.7913 38.6715 94.326 39.7949 93.4977 40.6232C92.6694 41.4515 91.5461 41.9168 90.3747 41.9168H90.1759C89.4653 41.9197 88.771 42.1302 88.1786 42.5226C87.5861 42.915 87.1213 43.472 86.8413 44.1252V44.1252Z" stroke="#060815" stroke-width="2" stroke-linecap="round" stroke-linejoin="round"/>
</svg>
