<svg width="231" height="76" viewBox="0 0 231 76" fill="none" xmlns="http://www.w3.org/2000/svg">
<path d="M30.0918 43.3095C35.1585 45.1793 40.7977 43.216 43.8606 38.3545L46.5513 56.8032C42.0285 53.0325 35.6737 53.2818 31.4086 57.3642L29.4907 44.4002L18.4986 48.7631C20.0444 42.1564 16.6093 35.3628 10.6553 33.2125L27.5728 26.4812C24.4526 32.0283 25.569 39.1959 30.0918 43.3095Z" fill="#80838B"/>
<path d="M62.9822 36.4221L45.893 35.83C50.5016 31.4048 51.2745 23.9568 47.7822 18.5655C41.5706 12.6756 31.7521 15.2933 28.8037 23.8009L26.5137 8.31272C31.8952 15.5738 42.3721 14.4831 46.3796 6.1936L48.1257 18.0045L62.5815 18.5343C58.3163 23.6451 58.4881 31.5295 62.9822 36.4221Z" fill="#80838B"/>
<g style="mix-blend-mode:multiply" opacity="0.5">
<path d="M30.0918 43.3095C35.1585 45.1793 40.7977 43.216 43.8606 38.3545L46.5513 56.8032C42.0285 53.0325 35.6737 53.2818 31.4086 57.3642L29.4907 44.4002L18.4986 48.7631C20.0444 42.1564 16.6093 35.3628 10.6553 33.2125L27.5728 26.4812C24.4526 32.0283 25.569 39.1959 30.0918 43.3095Z" fill="#9161F3"/>
<path d="M62.9822 36.4221L45.893 35.83C50.5016 31.4048 51.2745 23.9568 47.7822 18.5655C41.5706 12.6756 31.7521 15.2933 28.8037 23.8009L26.5137 8.31272C31.8952 15.5738 42.3721 14.4831 46.3796 6.1936L48.1257 18.0045L62.5815 18.5343C58.3163 23.6451 58.4881 31.5295 62.9822 36.4221Z" fill="#9161F3"/>
</g>
<path d="M57.114 21.9002C44.1182 24.6425 34.586 36.7963 34.0994 51.1938C33.9562 55.245 31.2368 58.7353 27.4297 59.4209C23.1073 60.1689 19.0425 56.959 18.3555 52.2533C17.6971 47.8281 20.2447 43.6522 24.1378 42.5615C36.9333 38.8219 45.6639 26.0137 45.2346 11.5851L45.2632 11.6162C45.0914 6.22494 48.6124 1.42577 53.6218 0.553194C59.0606 -0.38171 64.1559 3.63837 65.0146 9.55943C65.8734 15.3247 62.3525 20.7783 57.114 21.9002Z" fill="#866BF0"/>
<path d="M56.1118 59.4518C49.299 60.636 42.9156 55.5875 41.8279 48.1706C41.7515 47.6512 41.7038 47.1318 41.6847 46.6124C41.2267 35.3936 30.6354 28.1637 21.189 32.6201C20.044 33.181 18.8132 33.5861 17.525 33.8043C9.59582 35.1755 2.15326 29.3167 0.893745 20.7156C-0.365766 12.0833 5.01578 3.98085 12.945 2.60966C20.8455 1.23847 28.2881 7.0972 29.5476 15.7295C29.6812 16.6228 29.7385 17.5162 29.7194 18.4095C29.7194 29.5972 40.0245 37.3569 49.6425 33.3368C50.444 33.0044 51.2933 32.7655 52.1902 32.6201C58.9744 31.4358 65.3864 36.4532 66.4742 43.8701C67.5619 51.287 62.9247 58.2676 56.1118 59.4518Z" fill="#EA7343"/>
<path d="M91.86 30.0444V8.44443H95.76V30.0444H91.86ZM99.6272 30.0444V14.7444H103.317V18.3444H103.407V30.0444H99.6272ZM110.367 30.0444V20.3844C110.367 19.4444 110.127 18.7344 109.647 18.2544C109.167 17.7744 108.467 17.5344 107.547 17.5344C106.747 17.5344 106.027 17.7144 105.387 18.0744C104.767 18.4344 104.277 18.9344 103.917 19.5744C103.577 20.2144 103.407 20.9544 103.407 21.7944L103.017 18.1344C103.537 17.0144 104.297 16.1244 105.297 15.4644C106.297 14.7844 107.497 14.4444 108.897 14.4444C110.557 14.4444 111.847 14.9144 112.767 15.8544C113.707 16.7944 114.177 18.0444 114.177 19.6044V30.0444H110.367ZM117.996 30.0444V14.7444H121.686V18.3444H121.776V30.0444H117.996ZM128.736 30.0444V20.3844C128.736 19.4444 128.496 18.7344 128.016 18.2544C127.536 17.7744 126.836 17.5344 125.916 17.5344C125.116 17.5344 124.396 17.7144 123.756 18.0744C123.136 18.4344 122.646 18.9344 122.286 19.5744C121.946 20.2144 121.776 20.9544 121.776 21.7944L121.386 18.1344C121.906 17.0144 122.666 16.1244 123.666 15.4644C124.666 14.7844 125.866 14.4444 127.266 14.4444C128.926 14.4444 130.216 14.9144 131.136 15.8544C132.076 16.7944 132.546 18.0444 132.546 19.6044V30.0444H128.736ZM143.325 30.3444C141.705 30.3444 140.275 30.0044 139.035 29.3244C137.815 28.6444 136.865 27.7044 136.185 26.5044C135.505 25.2844 135.165 23.8944 135.165 22.3344C135.165 20.7744 135.505 19.4044 136.185 18.2244C136.865 17.0444 137.815 16.1244 139.035 15.4644C140.275 14.7844 141.705 14.4444 143.325 14.4444C144.965 14.4444 146.395 14.7844 147.615 15.4644C148.835 16.1244 149.785 17.0444 150.465 18.2244C151.145 19.4044 151.485 20.7744 151.485 22.3344C151.485 23.8944 151.135 25.2844 150.435 26.5044C149.755 27.7044 148.805 28.6444 147.585 29.3244C146.365 30.0044 144.945 30.3444 143.325 30.3444ZM143.325 27.3144C144.125 27.3144 144.845 27.1144 145.485 26.7144C146.125 26.2944 146.625 25.7144 146.985 24.9744C147.345 24.2144 147.525 23.3244 147.525 22.3044C147.525 20.8044 147.125 19.6244 146.325 18.7644C145.545 17.9044 144.545 17.4744 143.325 17.4744C142.105 17.4744 141.095 17.9044 140.295 18.7644C139.495 19.6244 139.095 20.8044 139.095 22.3044C139.095 23.3244 139.275 24.2144 139.635 24.9744C140.015 25.7144 140.515 26.2944 141.135 26.7144C141.775 27.1144 142.505 27.3144 143.325 27.3144ZM157.205 30.0444V27.1644H163.235C164.335 27.1644 165.185 26.8644 165.785 26.2644C166.385 25.6444 166.685 24.8044 166.685 23.7444C166.685 22.6444 166.365 21.7744 165.725 21.1344C165.085 20.4944 164.195 20.1744 163.055 20.1744H157.205V17.2944H162.785C163.865 17.2944 164.695 17.0344 165.275 16.5144C165.855 15.9944 166.145 15.2444 166.145 14.2644C166.145 13.3044 165.865 12.5744 165.305 12.0744C164.765 11.5744 163.965 11.3244 162.905 11.3244H157.205V8.44443H163.625C165.565 8.44443 167.115 8.93443 168.275 9.91443C169.455 10.8744 170.045 12.1844 170.045 13.8444C170.045 14.8844 169.795 15.7944 169.295 16.5744C168.815 17.3344 168.165 17.9244 167.345 18.3444C166.525 18.7644 165.595 18.9744 164.555 18.9744L164.705 18.3444C165.805 18.3444 166.805 18.5944 167.705 19.0944C168.605 19.5744 169.315 20.2544 169.835 21.1344C170.375 22.0144 170.645 23.0344 170.645 24.1944C170.645 25.3744 170.365 26.4044 169.805 27.2844C169.265 28.1644 168.495 28.8444 167.495 29.3244C166.515 29.8044 165.355 30.0444 164.015 30.0444H157.205ZM154.145 30.0444V8.44443H158.045V30.0444H154.145ZM174.474 36.1944L178.434 27.3144L179.124 26.1744L183.444 14.7444H187.464L178.314 36.1944H174.474ZM177.864 29.8944L171.654 14.7444H175.764L180.954 28.4844L177.864 29.8944ZM196.614 30.3444C194.734 30.3444 193.344 29.9044 192.444 29.0244C191.564 28.1244 191.124 26.7844 191.124 25.0044V11.2644L194.934 9.85443V25.0944C194.934 25.8344 195.134 26.3844 195.534 26.7444C195.934 27.1044 196.564 27.2844 197.424 27.2844C197.764 27.2844 198.064 27.2644 198.324 27.2244C198.604 27.1644 198.864 27.0944 199.104 27.0144V29.9544C198.864 30.0744 198.524 30.1644 198.084 30.2244C197.644 30.3044 197.154 30.3444 196.614 30.3444ZM188.184 17.7144V14.7444H199.104V17.7144H188.184ZM208.333 30.3444C206.713 30.3444 205.293 30.0044 204.073 29.3244C202.873 28.6444 201.933 27.7044 201.253 26.5044C200.593 25.3044 200.263 23.9244 200.263 22.3644C200.263 20.8044 200.593 19.4344 201.253 18.2544C201.933 17.0544 202.873 16.1244 204.073 15.4644C205.273 14.7844 206.673 14.4444 208.273 14.4444C209.793 14.4444 211.113 14.7644 212.233 15.4044C213.353 16.0244 214.223 16.9044 214.843 18.0444C215.463 19.1844 215.773 20.5144 215.773 22.0344C215.773 22.3144 215.763 22.5744 215.743 22.8144C215.723 23.0544 215.693 23.2944 215.653 23.5344H202.603V20.8944H212.743L211.963 21.6144C211.963 20.1744 211.633 19.0944 210.973 18.3744C210.313 17.6544 209.393 17.2944 208.213 17.2944C206.933 17.2944 205.913 17.7344 205.153 18.6144C204.413 19.4944 204.043 20.7644 204.043 22.4244C204.043 24.0644 204.413 25.3244 205.153 26.2044C205.913 27.0644 206.983 27.4944 208.363 27.4944C209.163 27.4944 209.863 27.3444 210.463 27.0444C211.063 26.7444 211.503 26.2844 211.783 25.6644H215.353C214.853 27.1044 214.003 28.2444 212.803 29.0844C211.623 29.9244 210.133 30.3444 208.333 30.3444Z" fill="#4E4E4E"/>
<path d="M93.538 59.8818V58.0098H96.886C97.87 58.0098 98.71 57.8118 99.406 57.4158C100.102 57.0198 100.63 56.4678 100.99 55.7598C101.362 55.0518 101.548 54.2418 101.548 53.3298C101.548 52.4298 101.362 51.6378 100.99 50.9538C100.63 50.2698 100.102 49.7418 99.406 49.3698C98.722 48.9858 97.882 48.7938 96.886 48.7938H93.574V46.9218H96.886C98.302 46.9218 99.538 47.1858 100.594 47.7138C101.65 48.2418 102.466 48.9918 103.042 49.9638C103.63 50.9238 103.924 52.0578 103.924 53.3658C103.924 54.6738 103.63 55.8198 103.042 56.8038C102.454 57.7758 101.632 58.5318 100.576 59.0718C99.532 59.6118 98.308 59.8818 96.904 59.8818H93.538ZM92.116 59.8818V46.9218H94.456V59.8818H92.116ZM105.706 59.8818V50.7018H107.974V59.8818H105.706ZM105.598 49.1898V46.6878H108.064V49.1898H105.598ZM114.343 63.7518C113.131 63.7518 112.135 63.4878 111.355 62.9598C110.587 62.4318 110.131 61.7178 109.987 60.8178H112.147C112.255 61.1298 112.489 61.3698 112.849 61.5378C113.221 61.7178 113.701 61.8078 114.289 61.8078C115.141 61.8078 115.771 61.6158 116.179 61.2318C116.587 60.8598 116.791 60.2898 116.791 59.5218V57.5418L116.953 57.5778C116.809 58.2498 116.443 58.7898 115.855 59.1978C115.267 59.5938 114.547 59.7918 113.695 59.7918C112.879 59.7918 112.165 59.5998 111.553 59.2158C110.953 58.8318 110.485 58.2978 110.149 57.6138C109.813 56.9178 109.645 56.1078 109.645 55.1838C109.645 54.2478 109.819 53.4318 110.167 52.7358C110.515 52.0398 111.001 51.4998 111.625 51.1158C112.261 50.7198 112.999 50.5218 113.839 50.5218C114.703 50.5218 115.411 50.7318 115.963 51.1518C116.527 51.5598 116.875 52.1298 117.007 52.8618L116.863 52.8798V50.7018H119.077V59.5038C119.077 60.8118 118.651 61.8438 117.799 62.5998C116.959 63.3678 115.807 63.7518 114.343 63.7518ZM114.433 57.9918C115.165 57.9918 115.747 57.7458 116.179 57.2538C116.623 56.7498 116.845 56.0478 116.845 55.1478C116.845 54.2478 116.623 53.5518 116.179 53.0598C115.735 52.5678 115.147 52.3218 114.415 52.3218C113.695 52.3218 113.113 52.5738 112.669 53.0778C112.225 53.5698 112.003 54.2658 112.003 55.1658C112.003 56.0658 112.225 56.7618 112.669 57.2538C113.113 57.7458 113.701 57.9918 114.433 57.9918ZM121.491 59.8818V50.7018H123.759V59.8818H121.491ZM121.383 49.1898V46.6878H123.849V49.1898H121.383ZM130.183 60.0618C129.055 60.0618 128.221 59.7978 127.681 59.2698C127.153 58.7298 126.889 57.9258 126.889 56.8578V48.6138L129.175 47.7678V56.9118C129.175 57.3558 129.295 57.6858 129.535 57.9018C129.775 58.1178 130.153 58.2258 130.669 58.2258C130.873 58.2258 131.053 58.2138 131.209 58.1898C131.377 58.1538 131.533 58.1118 131.677 58.0638V59.8278C131.533 59.8998 131.329 59.9538 131.065 59.9898C130.801 60.0378 130.507 60.0618 130.183 60.0618ZM125.125 52.4838V50.7018H131.677V52.4838H125.125ZM138.975 59.8818C138.915 59.6418 138.867 59.3778 138.831 59.0898C138.807 58.8018 138.795 58.4538 138.795 58.0458H138.723V53.6898C138.723 53.2098 138.585 52.8498 138.309 52.6098C138.045 52.3578 137.637 52.2318 137.085 52.2318C136.545 52.2318 136.113 52.3338 135.789 52.5378C135.477 52.7298 135.285 53.0118 135.213 53.3838H133.035C133.131 52.5318 133.539 51.8418 134.259 51.3138C134.979 50.7858 135.945 50.5218 137.157 50.5218C138.417 50.5218 139.371 50.8098 140.019 51.3858C140.667 51.9498 140.991 52.7838 140.991 53.8878V58.0458C140.991 58.3338 141.009 58.6278 141.045 58.9278C141.093 59.2278 141.159 59.5458 141.243 59.8818H138.975ZM135.789 60.0618C134.865 60.0618 134.127 59.8338 133.575 59.3778C133.035 58.9098 132.765 58.2858 132.765 57.5058C132.765 56.6658 133.071 55.9998 133.683 55.5078C134.295 55.0158 135.159 54.6858 136.275 54.5178L139.137 54.0858V55.5258L136.653 55.9038C136.113 55.9878 135.705 56.1378 135.429 56.3538C135.165 56.5698 135.033 56.8698 135.033 57.2538C135.033 57.6018 135.159 57.8718 135.411 58.0638C135.663 58.2438 136.011 58.3338 136.455 58.3338C137.103 58.3338 137.643 58.1718 138.075 57.8478C138.507 57.5238 138.723 57.1278 138.723 56.6598L138.975 58.0458C138.735 58.7058 138.339 59.2098 137.787 59.5578C137.247 59.8938 136.581 60.0618 135.789 60.0618ZM143.288 59.8818V46.9218H145.556V59.8818H143.288ZM156.376 60.0438C154.744 60.0438 153.442 59.6718 152.47 58.9278C151.51 58.1718 150.946 57.1098 150.778 55.7418H153.028C153.136 56.5338 153.49 57.1518 154.09 57.5958C154.69 58.0278 155.476 58.2438 156.448 58.2438C157.252 58.2438 157.864 58.0998 158.284 57.8118C158.716 57.5118 158.932 57.0978 158.932 56.5698C158.932 56.1018 158.8 55.7238 158.536 55.4358C158.272 55.1478 157.828 54.9138 157.204 54.7338L154.864 54.0318C153.676 53.6718 152.8 53.1978 152.236 52.6098C151.684 52.0218 151.408 51.2838 151.408 50.3958C151.408 49.6518 151.6 49.0038 151.984 48.4518C152.368 47.8998 152.908 47.4738 153.604 47.1738C154.312 46.8738 155.134 46.7238 156.07 46.7238C157.51 46.7238 158.656 47.0778 159.508 47.7858C160.372 48.4818 160.864 49.4298 160.984 50.6298H158.734C158.602 49.9098 158.302 49.3818 157.834 49.0458C157.366 48.6978 156.736 48.5238 155.944 48.5238C155.248 48.5238 154.696 48.6618 154.288 48.9378C153.88 49.2138 153.676 49.5918 153.676 50.0718C153.676 50.4678 153.796 50.8038 154.036 51.0798C154.288 51.3558 154.75 51.5958 155.422 51.7998L157.798 52.5198C158.986 52.8678 159.85 53.3418 160.39 53.9418C160.93 54.5418 161.2 55.3038 161.2 56.2278C161.2 57.4518 160.774 58.3938 159.922 59.0538C159.082 59.7138 157.9 60.0438 156.376 60.0438ZM167.046 60.0618C166.074 60.0618 165.216 59.8578 164.472 59.4498C163.74 59.0418 163.17 58.4778 162.762 57.7578C162.354 57.0258 162.15 56.1918 162.15 55.2558C162.15 54.3198 162.354 53.4978 162.762 52.7898C163.17 52.0818 163.74 51.5298 164.472 51.1338C165.216 50.7258 166.074 50.5218 167.046 50.5218C168.03 50.5218 168.888 50.7258 169.62 51.1338C170.352 51.5298 170.922 52.0818 171.33 52.7898C171.738 53.4978 171.942 54.3198 171.942 55.2558C171.942 56.1918 171.732 57.0258 171.312 57.7578C170.904 58.4778 170.334 59.0418 169.602 59.4498C168.87 59.8578 168.018 60.0618 167.046 60.0618ZM167.046 58.2438C167.526 58.2438 167.958 58.1238 168.342 57.8838C168.726 57.6318 169.026 57.2838 169.242 56.8398C169.458 56.3838 169.566 55.8498 169.566 55.2378C169.566 54.3378 169.326 53.6298 168.846 53.1138C168.378 52.5978 167.778 52.3398 167.046 52.3398C166.314 52.3398 165.708 52.5978 165.228 53.1138C164.748 53.6298 164.508 54.3378 164.508 55.2378C164.508 55.8498 164.616 56.3838 164.832 56.8398C165.06 57.2838 165.36 57.6318 165.732 57.8838C166.116 58.1238 166.554 58.2438 167.046 58.2438ZM173.61 59.8818V46.9218H175.878V59.8818H173.61ZM181.256 60.0618C180.62 60.0618 180.068 59.9298 179.6 59.6658C179.144 59.3898 178.79 59.0178 178.538 58.5498C178.298 58.0818 178.178 57.5538 178.178 56.9658V50.7018H180.446V56.4978C180.446 57.0618 180.584 57.4878 180.86 57.7758C181.148 58.0638 181.55 58.2078 182.066 58.2078C182.534 58.2078 182.942 58.0998 183.29 57.8838C183.65 57.6678 183.932 57.3678 184.136 56.9838C184.352 56.5878 184.46 56.1438 184.46 55.6518L184.694 57.8478C184.394 58.5198 183.944 59.0598 183.344 59.4678C182.756 59.8638 182.06 60.0618 181.256 60.0618ZM184.532 59.8818V57.7218H184.46V50.7018H186.746V59.8818H184.532ZM193.131 60.0618C192.003 60.0618 191.169 59.7978 190.629 59.2698C190.101 58.7298 189.837 57.9258 189.837 56.8578V48.6138L192.123 47.7678V56.9118C192.123 57.3558 192.243 57.6858 192.483 57.9018C192.723 58.1178 193.101 58.2258 193.617 58.2258C193.821 58.2258 194.001 58.2138 194.157 58.1898C194.325 58.1538 194.481 58.1118 194.625 58.0638V59.8278C194.481 59.8998 194.277 59.9538 194.013 59.9898C193.749 60.0378 193.455 60.0618 193.131 60.0618ZM188.073 52.4838V50.7018H194.625V52.4838H188.073ZM196.269 59.8818V50.7018H198.537V59.8818H196.269ZM196.161 49.1898V46.6878H198.627V49.1898H196.161ZM205.085 60.0618C204.113 60.0618 203.255 59.8578 202.511 59.4498C201.779 59.0418 201.209 58.4778 200.801 57.7578C200.393 57.0258 200.189 56.1918 200.189 55.2558C200.189 54.3198 200.393 53.4978 200.801 52.7898C201.209 52.0818 201.779 51.5298 202.511 51.1338C203.255 50.7258 204.113 50.5218 205.085 50.5218C206.069 50.5218 206.927 50.7258 207.659 51.1338C208.391 51.5298 208.961 52.0818 209.369 52.7898C209.777 53.4978 209.981 54.3198 209.981 55.2558C209.981 56.1918 209.771 57.0258 209.351 57.7578C208.943 58.4778 208.373 59.0418 207.641 59.4498C206.909 59.8578 206.057 60.0618 205.085 60.0618ZM205.085 58.2438C205.565 58.2438 205.997 58.1238 206.381 57.8838C206.765 57.6318 207.065 57.2838 207.281 56.8398C207.497 56.3838 207.605 55.8498 207.605 55.2378C207.605 54.3378 207.365 53.6298 206.885 53.1138C206.417 52.5978 205.817 52.3398 205.085 52.3398C204.353 52.3398 203.747 52.5978 203.267 53.1138C202.787 53.6298 202.547 54.3378 202.547 55.2378C202.547 55.8498 202.655 56.3838 202.871 56.8398C203.099 57.2838 203.399 57.6318 203.771 57.8838C204.155 58.1238 204.593 58.2438 205.085 58.2438ZM211.649 59.8818V50.7018H213.863V52.8618H213.917V59.8818H211.649ZM218.093 59.8818V54.0858C218.093 53.5218 217.949 53.0958 217.661 52.8078C217.373 52.5198 216.953 52.3758 216.401 52.3758C215.921 52.3758 215.489 52.4838 215.105 52.6998C214.733 52.9158 214.439 53.2158 214.223 53.5998C214.019 53.9838 213.917 54.4278 213.917 54.9318L213.683 52.7358C213.995 52.0638 214.451 51.5298 215.051 51.1338C215.651 50.7258 216.371 50.5218 217.211 50.5218C218.207 50.5218 218.981 50.8038 219.533 51.3678C220.097 51.9318 220.379 52.6818 220.379 53.6178V59.8818H218.093ZM226.146 60.0618C224.874 60.0618 223.86 59.7978 223.104 59.2698C222.348 58.7298 221.934 57.9858 221.862 57.0378H223.932C223.992 57.5058 224.214 57.8598 224.598 58.0998C224.982 58.3398 225.498 58.4598 226.146 58.4598C226.734 58.4598 227.172 58.3698 227.46 58.1898C227.76 57.9978 227.91 57.7278 227.91 57.3798C227.91 57.1278 227.826 56.9238 227.658 56.7678C227.49 56.5998 227.172 56.4618 226.704 56.3538L225.228 56.0118C224.22 55.7958 223.47 55.4598 222.978 55.0038C222.498 54.5358 222.258 53.9538 222.258 53.2578C222.258 52.4058 222.582 51.7398 223.23 51.2598C223.89 50.7678 224.796 50.5218 225.948 50.5218C227.088 50.5218 228 50.7678 228.684 51.2598C229.38 51.7398 229.764 52.4058 229.836 53.2578H227.766C227.706 52.8858 227.514 52.6038 227.19 52.4118C226.878 52.2198 226.446 52.1238 225.894 52.1238C225.378 52.1238 224.988 52.2078 224.724 52.3758C224.46 52.5318 224.328 52.7658 224.328 53.0778C224.328 53.3178 224.43 53.5218 224.634 53.6898C224.838 53.8458 225.18 53.9838 225.66 54.1038L227.244 54.4638C228.144 54.6678 228.822 55.0218 229.278 55.5258C229.746 56.0298 229.98 56.6238 229.98 57.3078C229.98 58.1838 229.644 58.8618 228.972 59.3418C228.3 59.8218 227.358 60.0618 226.146 60.0618Z" fill="#6F6F6F"/>
</svg>
