<svg width="52" height="37" viewBox="0 0 52 37" fill="none" xmlns="http://www.w3.org/2000/svg">
<circle cx="18.5" cy="18.5" r="18.5" fill="#EFEDFB"/>
<path d="M36.5007 31.4163C43.6343 31.4163 49.4173 25.6334 49.4173 18.4997C49.4173 11.366 43.6343 5.58301 36.5007 5.58301C29.367 5.58301 23.584 11.366 23.584 18.4997C23.584 25.6334 29.367 31.4163 36.5007 31.4163Z" stroke="#141414" stroke-width="2" stroke-linecap="round" stroke-linejoin="round"/>
<path d="M23.584 18.5H49.4173" stroke="#141414" stroke-width="2" stroke-linecap="round" stroke-linejoin="round"/>
<path d="M36.5007 5.58301C39.7315 9.12005 41.5675 13.7102 41.6673 18.4997C41.5675 23.2891 39.7315 27.8793 36.5007 31.4163C33.2698 27.8793 31.4338 23.2891 31.334 18.4997C31.4338 13.7102 33.2698 9.12005 36.5007 5.58301Z" stroke="#141414" stroke-width="2" stroke-linecap="round" stroke-linejoin="round"/>
</svg>
