<svg width="238" height="82" viewBox="0 0 238 82" fill="none" xmlns="http://www.w3.org/2000/svg">
<path d="M106.806 65.8818V54.7758H102.504V52.9218H113.448V54.7758H109.146V65.8818H106.806ZM117.224 66.0618C116.252 66.0618 115.4 65.8578 114.668 65.4498C113.948 65.0418 113.384 64.4778 112.976 63.7578C112.58 63.0378 112.382 62.2098 112.382 61.2738C112.382 60.3378 112.58 59.5158 112.976 58.8078C113.384 58.0878 113.948 57.5298 114.668 57.1338C115.388 56.7258 116.228 56.5218 117.188 56.5218C118.1 56.5218 118.892 56.7138 119.564 57.0978C120.236 57.4698 120.758 57.9978 121.13 58.6818C121.502 59.3658 121.688 60.1638 121.688 61.0758C121.688 61.2438 121.682 61.3998 121.67 61.5438C121.658 61.6878 121.64 61.8318 121.616 61.9758H113.786V60.3918H119.87L119.402 60.8238C119.402 59.9598 119.204 59.3118 118.808 58.8798C118.412 58.4478 117.86 58.2318 117.152 58.2318C116.384 58.2318 115.772 58.4958 115.316 59.0238C114.872 59.5518 114.65 60.3138 114.65 61.3098C114.65 62.2938 114.872 63.0498 115.316 63.5778C115.772 64.0938 116.414 64.3518 117.242 64.3518C117.722 64.3518 118.142 64.2618 118.502 64.0818C118.862 63.9018 119.126 63.6258 119.294 63.2538H121.436C121.136 64.1178 120.626 64.8018 119.906 65.3058C119.198 65.8098 118.304 66.0618 117.224 66.0618ZM127.487 66.0618C126.563 66.0618 125.747 65.8578 125.039 65.4498C124.343 65.0418 123.791 64.4778 123.383 63.7578C122.987 63.0258 122.789 62.1978 122.789 61.2738C122.789 60.3498 122.987 59.5338 123.383 58.8258C123.791 58.1058 124.343 57.5418 125.039 57.1338C125.747 56.7258 126.563 56.5218 127.487 56.5218C128.243 56.5218 128.927 56.6658 129.539 56.9538C130.151 57.2298 130.655 57.6258 131.051 58.1418C131.447 58.6458 131.699 59.2338 131.807 59.9058H129.629C129.497 59.4138 129.245 59.0298 128.873 58.7538C128.501 58.4778 128.051 58.3398 127.523 58.3398C127.031 58.3398 126.605 58.4598 126.245 58.6998C125.897 58.9398 125.627 59.2818 125.435 59.7258C125.243 60.1698 125.147 60.6858 125.147 61.2738C125.147 61.8738 125.243 62.3958 125.435 62.8398C125.627 63.2838 125.903 63.6318 126.263 63.8838C126.623 64.1238 127.043 64.2438 127.523 64.2438C128.051 64.2438 128.501 64.1058 128.873 63.8298C129.245 63.5538 129.497 63.1698 129.629 62.6778H131.807C131.699 63.3498 131.441 63.9438 131.033 64.4598C130.637 64.9638 130.133 65.3598 129.521 65.6478C128.921 65.9238 128.243 66.0618 127.487 66.0618ZM133.44 65.8818V52.9218H135.708V65.8818H133.44ZM139.884 65.8818V60.0858C139.884 59.5218 139.74 59.0958 139.452 58.8078C139.164 58.5198 138.744 58.3758 138.192 58.3758C137.712 58.3758 137.28 58.4838 136.896 58.6998C136.524 58.9158 136.23 59.2158 136.014 59.5998C135.81 59.9838 135.708 60.4278 135.708 60.9318L135.474 58.7358C135.786 58.0638 136.242 57.5298 136.842 57.1338C137.442 56.7258 138.162 56.5218 139.002 56.5218C139.998 56.5218 140.772 56.8038 141.324 57.3678C141.888 57.9318 142.17 58.6818 142.17 59.6178V65.8818H139.884ZM152.874 66.0438C151.242 66.0438 149.94 65.6718 148.968 64.9278C148.008 64.1718 147.444 63.1098 147.276 61.7418H149.526C149.634 62.5338 149.988 63.1518 150.588 63.5958C151.188 64.0278 151.974 64.2438 152.946 64.2438C153.75 64.2438 154.362 64.0998 154.782 63.8118C155.214 63.5118 155.43 63.0978 155.43 62.5698C155.43 62.1018 155.298 61.7238 155.034 61.4358C154.77 61.1478 154.326 60.9138 153.702 60.7338L151.362 60.0318C150.174 59.6718 149.298 59.1978 148.734 58.6098C148.182 58.0218 147.906 57.2838 147.906 56.3958C147.906 55.6518 148.098 55.0038 148.482 54.4518C148.866 53.8998 149.406 53.4738 150.102 53.1738C150.81 52.8738 151.632 52.7238 152.568 52.7238C154.008 52.7238 155.154 53.0778 156.006 53.7858C156.87 54.4818 157.362 55.4298 157.482 56.6298H155.232C155.1 55.9098 154.8 55.3818 154.332 55.0458C153.864 54.6978 153.234 54.5238 152.442 54.5238C151.746 54.5238 151.194 54.6618 150.786 54.9378C150.378 55.2138 150.174 55.5918 150.174 56.0718C150.174 56.4678 150.294 56.8038 150.534 57.0798C150.786 57.3558 151.248 57.5958 151.92 57.7998L154.296 58.5198C155.484 58.8678 156.348 59.3418 156.888 59.9418C157.428 60.5418 157.698 61.3038 157.698 62.2278C157.698 63.4518 157.272 64.3938 156.42 65.0538C155.58 65.7138 154.398 66.0438 152.874 66.0438ZM163.544 66.0618C162.572 66.0618 161.714 65.8578 160.97 65.4498C160.238 65.0418 159.668 64.4778 159.26 63.7578C158.852 63.0258 158.648 62.1918 158.648 61.2558C158.648 60.3198 158.852 59.4978 159.26 58.7898C159.668 58.0818 160.238 57.5298 160.97 57.1338C161.714 56.7258 162.572 56.5218 163.544 56.5218C164.528 56.5218 165.386 56.7258 166.118 57.1338C166.85 57.5298 167.42 58.0818 167.828 58.7898C168.236 59.4978 168.44 60.3198 168.44 61.2558C168.44 62.1918 168.23 63.0258 167.81 63.7578C167.402 64.4778 166.832 65.0418 166.1 65.4498C165.368 65.8578 164.516 66.0618 163.544 66.0618ZM163.544 64.2438C164.024 64.2438 164.456 64.1238 164.84 63.8838C165.224 63.6318 165.524 63.2838 165.74 62.8398C165.956 62.3838 166.064 61.8498 166.064 61.2378C166.064 60.3378 165.824 59.6298 165.344 59.1138C164.876 58.5978 164.276 58.3398 163.544 58.3398C162.812 58.3398 162.206 58.5978 161.726 59.1138C161.246 59.6298 161.006 60.3378 161.006 61.2378C161.006 61.8498 161.114 62.3838 161.33 62.8398C161.558 63.2838 161.858 63.6318 162.23 63.8838C162.614 64.1238 163.052 64.2438 163.544 64.2438ZM170.108 65.8818V52.9218H172.376V65.8818H170.108ZM177.754 66.0618C177.118 66.0618 176.566 65.9298 176.098 65.6658C175.642 65.3898 175.288 65.0178 175.036 64.5498C174.796 64.0818 174.676 63.5538 174.676 62.9658V56.7018H176.944V62.4978C176.944 63.0618 177.082 63.4878 177.358 63.7758C177.646 64.0638 178.048 64.2078 178.564 64.2078C179.032 64.2078 179.44 64.0998 179.788 63.8838C180.148 63.6678 180.43 63.3678 180.634 62.9838C180.85 62.5878 180.958 62.1438 180.958 61.6518L181.192 63.8478C180.892 64.5198 180.442 65.0598 179.842 65.4678C179.254 65.8638 178.558 66.0618 177.754 66.0618ZM181.03 65.8818V63.7218H180.958V56.7018H183.244V65.8818H181.03ZM189.629 66.0618C188.501 66.0618 187.667 65.7978 187.127 65.2698C186.599 64.7298 186.335 63.9258 186.335 62.8578V54.6138L188.621 53.7678V62.9118C188.621 63.3558 188.741 63.6858 188.981 63.9018C189.221 64.1178 189.599 64.2258 190.115 64.2258C190.319 64.2258 190.499 64.2138 190.655 64.1898C190.823 64.1538 190.979 64.1118 191.123 64.0638V65.8278C190.979 65.8998 190.775 65.9538 190.511 65.9898C190.247 66.0378 189.953 66.0618 189.629 66.0618ZM184.571 58.4838V56.7018H191.123V58.4838H184.571ZM192.767 65.8818V56.7018H195.035V65.8818H192.767ZM192.659 55.1898V52.6878H195.125V55.1898H192.659ZM201.583 66.0618C200.611 66.0618 199.753 65.8578 199.009 65.4498C198.277 65.0418 197.707 64.4778 197.299 63.7578C196.891 63.0258 196.687 62.1918 196.687 61.2558C196.687 60.3198 196.891 59.4978 197.299 58.7898C197.707 58.0818 198.277 57.5298 199.009 57.1338C199.753 56.7258 200.611 56.5218 201.583 56.5218C202.567 56.5218 203.425 56.7258 204.157 57.1338C204.889 57.5298 205.459 58.0818 205.867 58.7898C206.275 59.4978 206.479 60.3198 206.479 61.2558C206.479 62.1918 206.269 63.0258 205.849 63.7578C205.441 64.4778 204.871 65.0418 204.139 65.4498C203.407 65.8578 202.555 66.0618 201.583 66.0618ZM201.583 64.2438C202.063 64.2438 202.495 64.1238 202.879 63.8838C203.263 63.6318 203.563 63.2838 203.779 62.8398C203.995 62.3838 204.103 61.8498 204.103 61.2378C204.103 60.3378 203.863 59.6298 203.383 59.1138C202.915 58.5978 202.315 58.3398 201.583 58.3398C200.851 58.3398 200.245 58.5978 199.765 59.1138C199.285 59.6298 199.045 60.3378 199.045 61.2378C199.045 61.8498 199.153 62.3838 199.369 62.8398C199.597 63.2838 199.897 63.6318 200.269 63.8838C200.653 64.1238 201.091 64.2438 201.583 64.2438ZM208.147 65.8818V56.7018H210.361V58.8618H210.415V65.8818H208.147ZM214.591 65.8818V60.0858C214.591 59.5218 214.447 59.0958 214.159 58.8078C213.871 58.5198 213.451 58.3758 212.899 58.3758C212.419 58.3758 211.987 58.4838 211.603 58.6998C211.231 58.9158 210.937 59.2158 210.721 59.5998C210.517 59.9838 210.415 60.4278 210.415 60.9318L210.181 58.7358C210.493 58.0638 210.949 57.5298 211.549 57.1338C212.149 56.7258 212.869 56.5218 213.709 56.5218C214.705 56.5218 215.479 56.8038 216.031 57.3678C216.595 57.9318 216.877 58.6818 216.877 59.6178V65.8818H214.591ZM222.644 66.0618C221.372 66.0618 220.358 65.7978 219.602 65.2698C218.846 64.7298 218.432 63.9858 218.36 63.0378H220.43C220.49 63.5058 220.712 63.8598 221.096 64.0998C221.48 64.3398 221.996 64.4598 222.644 64.4598C223.232 64.4598 223.67 64.3698 223.958 64.1898C224.258 63.9978 224.408 63.7278 224.408 63.3798C224.408 63.1278 224.324 62.9238 224.156 62.7678C223.988 62.5998 223.67 62.4618 223.202 62.3538L221.726 62.0118C220.718 61.7958 219.968 61.4598 219.476 61.0038C218.996 60.5358 218.756 59.9538 218.756 59.2578C218.756 58.4058 219.08 57.7398 219.728 57.2598C220.388 56.7678 221.294 56.5218 222.446 56.5218C223.586 56.5218 224.498 56.7678 225.182 57.2598C225.878 57.7398 226.262 58.4058 226.334 59.2578H224.264C224.204 58.8858 224.012 58.6038 223.688 58.4118C223.376 58.2198 222.944 58.1238 222.392 58.1238C221.876 58.1238 221.486 58.2078 221.222 58.3758C220.958 58.5318 220.826 58.7658 220.826 59.0778C220.826 59.3178 220.928 59.5218 221.132 59.6898C221.336 59.8458 221.678 59.9838 222.158 60.1038L223.742 60.4638C224.642 60.6678 225.32 61.0218 225.776 61.5258C226.244 62.0298 226.478 62.6238 226.478 63.3078C226.478 64.1838 226.142 64.8618 225.47 65.3418C224.798 65.8218 223.856 66.0618 222.644 66.0618Z" fill="#6F6F6F"/>
<path d="M102.41 36.0444V33.3444L114.59 15.9744L115.64 17.5344H102.77V14.4444H118.49V17.1444L106.43 34.3644L105.41 32.9544H118.67V36.0444H102.41ZM127.634 36.3444C126.014 36.3444 124.594 36.0044 123.374 35.3244C122.174 34.6444 121.234 33.7044 120.554 32.5044C119.894 31.3044 119.564 29.9244 119.564 28.3644C119.564 26.8044 119.894 25.4344 120.554 24.2544C121.234 23.0544 122.174 22.1244 123.374 21.4644C124.574 20.7844 125.974 20.4444 127.574 20.4444C129.094 20.4444 130.414 20.7644 131.534 21.4044C132.654 22.0244 133.524 22.9044 134.144 24.0444C134.764 25.1844 135.074 26.5144 135.074 28.0344C135.074 28.3144 135.064 28.5744 135.044 28.8144C135.024 29.0544 134.994 29.2944 134.954 29.5344H121.904V26.8944H132.044L131.264 27.6144C131.264 26.1744 130.934 25.0944 130.274 24.3744C129.614 23.6544 128.694 23.2944 127.514 23.2944C126.234 23.2944 125.214 23.7344 124.454 24.6144C123.714 25.4944 123.344 26.7644 123.344 28.4244C123.344 30.0644 123.714 31.3244 124.454 32.2044C125.214 33.0644 126.284 33.4944 127.664 33.4944C128.464 33.4944 129.164 33.3444 129.764 33.0444C130.364 32.7444 130.804 32.2844 131.084 31.6644H134.654C134.154 33.1044 133.304 34.2444 132.104 35.0844C130.924 35.9244 129.434 36.3444 127.634 36.3444ZM137.903 36.0444V20.7444H141.593V24.3444H141.683V36.0444H137.903ZM148.643 36.0444V26.3844C148.643 25.4444 148.403 24.7344 147.923 24.2544C147.443 23.7744 146.743 23.5344 145.823 23.5344C145.023 23.5344 144.303 23.7144 143.663 24.0744C143.043 24.4344 142.553 24.9344 142.193 25.5744C141.853 26.2144 141.683 26.9544 141.683 27.7944L141.293 24.1344C141.813 23.0144 142.573 22.1244 143.573 21.4644C144.573 20.7844 145.773 20.4444 147.173 20.4444C148.833 20.4444 150.123 20.9144 151.043 21.8544C151.983 22.7944 152.453 24.0444 152.453 25.6044V36.0444H148.643ZM163.232 36.3444C161.612 36.3444 160.182 36.0044 158.942 35.3244C157.722 34.6444 156.772 33.7044 156.092 32.5044C155.412 31.2844 155.072 29.8944 155.072 28.3344C155.072 26.7744 155.412 25.4044 156.092 24.2244C156.772 23.0444 157.722 22.1244 158.942 21.4644C160.182 20.7844 161.612 20.4444 163.232 20.4444C164.872 20.4444 166.302 20.7844 167.522 21.4644C168.742 22.1244 169.692 23.0444 170.372 24.2244C171.052 25.4044 171.392 26.7744 171.392 28.3344C171.392 29.8944 171.042 31.2844 170.342 32.5044C169.662 33.7044 168.712 34.6444 167.492 35.3244C166.272 36.0044 164.852 36.3444 163.232 36.3444ZM163.232 33.3144C164.032 33.3144 164.752 33.1144 165.392 32.7144C166.032 32.2944 166.532 31.7144 166.892 30.9744C167.252 30.2144 167.432 29.3244 167.432 28.3044C167.432 26.8044 167.032 25.6244 166.232 24.7644C165.452 23.9044 164.452 23.4744 163.232 23.4744C162.012 23.4744 161.002 23.9044 160.202 24.7644C159.402 25.6244 159.002 26.8044 159.002 28.3044C159.002 29.3244 159.182 30.2144 159.542 30.9744C159.922 31.7144 160.422 32.2944 161.042 32.7144C161.682 33.1144 162.412 33.3144 163.232 33.3144ZM176.744 36.0444V17.5344H169.574V14.4444H187.814V17.5344H180.644V36.0444H176.744ZM194.109 36.3444C192.489 36.3444 191.069 36.0044 189.849 35.3244C188.649 34.6444 187.709 33.7044 187.029 32.5044C186.369 31.3044 186.039 29.9244 186.039 28.3644C186.039 26.8044 186.369 25.4344 187.029 24.2544C187.709 23.0544 188.649 22.1244 189.849 21.4644C191.049 20.7844 192.449 20.4444 194.049 20.4444C195.569 20.4444 196.889 20.7644 198.009 21.4044C199.129 22.0244 199.999 22.9044 200.619 24.0444C201.239 25.1844 201.549 26.5144 201.549 28.0344C201.549 28.3144 201.539 28.5744 201.519 28.8144C201.499 29.0544 201.469 29.2944 201.429 29.5344H188.379V26.8944H198.519L197.739 27.6144C197.739 26.1744 197.409 25.0944 196.749 24.3744C196.089 23.6544 195.169 23.2944 193.989 23.2944C192.709 23.2944 191.689 23.7344 190.929 24.6144C190.189 25.4944 189.819 26.7644 189.819 28.4244C189.819 30.0644 190.189 31.3244 190.929 32.2044C191.689 33.0644 192.759 33.4944 194.139 33.4944C194.939 33.4944 195.639 33.3444 196.239 33.0444C196.839 32.7444 197.279 32.2844 197.559 31.6644H201.129C200.629 33.1044 199.779 34.2444 198.579 35.0844C197.399 35.9244 195.909 36.3444 194.109 36.3444ZM211.212 36.3444C209.672 36.3444 208.312 36.0044 207.132 35.3244C205.972 34.6444 205.052 33.7044 204.372 32.5044C203.712 31.2844 203.382 29.9044 203.382 28.3644C203.382 26.8244 203.712 25.4644 204.372 24.2844C205.052 23.0844 205.972 22.1444 207.132 21.4644C208.312 20.7844 209.672 20.4444 211.212 20.4444C212.472 20.4444 213.612 20.6844 214.632 21.1644C215.652 21.6244 216.492 22.2844 217.152 23.1444C217.812 23.9844 218.232 24.9644 218.412 26.0844H214.782C214.562 25.2644 214.142 24.6244 213.522 24.1644C212.902 23.7044 212.152 23.4744 211.272 23.4744C210.452 23.4744 209.742 23.6744 209.142 24.0744C208.562 24.4744 208.112 25.0444 207.792 25.7844C207.472 26.5244 207.312 27.3844 207.312 28.3644C207.312 29.3644 207.472 30.2344 207.792 30.9744C208.112 31.7144 208.572 32.2944 209.172 32.7144C209.772 33.1144 210.472 33.3144 211.272 33.3144C212.152 33.3144 212.902 33.0844 213.522 32.6244C214.142 32.1644 214.562 31.5244 214.782 30.7044H218.412C218.232 31.8244 217.802 32.8144 217.122 33.6744C216.462 34.5144 215.622 35.1744 214.602 35.6544C213.602 36.1144 212.472 36.3444 211.212 36.3444ZM221.135 36.0444V14.4444H224.915V36.0444H221.135ZM231.875 36.0444V26.3844C231.875 25.4444 231.635 24.7344 231.155 24.2544C230.675 23.7744 229.975 23.5344 229.055 23.5344C228.255 23.5344 227.535 23.7144 226.895 24.0744C226.275 24.4344 225.785 24.9344 225.425 25.5744C225.085 26.2144 224.915 26.9544 224.915 27.7944L224.525 24.1344C225.045 23.0144 225.805 22.1244 226.805 21.4644C227.805 20.7844 229.005 20.4444 230.405 20.4444C232.065 20.4444 233.355 20.9144 234.275 21.8544C235.215 22.7944 235.685 24.0444 235.685 25.6044V36.0444H231.875Z" fill="#4E4E4E"/>
<path d="M78.3172 30.5111L70.6744 22.2856L67 26.3984L71.887 31.6805C73.6874 33.6159 73.6874 36.7609 71.9237 38.7367L67.1102 44.0994L70.8949 48.1718L78.3907 39.785C80.7056 37.2045 80.6688 33.0514 78.3172 30.5111Z" fill="#866BF0"/>
<path fill-rule="evenodd" clip-rule="evenodd" d="M63.1949 51.4273L67.3636 55.839L58.1271 65.8855C55.5523 68.681 51.3427 68.7247 48.727 65.9729L37.9783 54.6597L31.48 61.7359C29.2322 64.1383 25.5948 64.182 23.347 61.7796L1.72688 39.0658C-0.561819 36.6634 -0.561819 32.7758 1.64514 30.3734L22.9383 7.26656C25.1452 4.82047 28.7826 4.82047 31.0305 7.1792L37.6513 14.1244L48.2366 2.63645C50.8114 -0.159087 55.021 -0.202768 57.6775 2.54909L67.0367 12.4208L62.9497 16.9199L56.574 10.2368C54.5714 8.14017 51.3836 8.14017 49.4218 10.2805L41.8609 18.5361L52.6914 29.9366C54.9392 32.2954 54.9801 36.1829 52.7323 38.629L42.1061 50.2043L49.7896 58.2851C51.7923 60.3818 54.9801 60.3818 56.9418 58.2415L63.1949 51.4273ZM38.3053 22.3799L30.7035 30.6355C28.7418 32.7322 28.7826 36.1829 30.7444 38.2796L38.4687 46.3604L46.5609 37.5807C48.2775 35.7461 48.2366 32.8195 46.5201 30.985L38.3053 22.3799ZM34.3818 50.9032L23.633 39.59C20.9765 36.8381 20.9765 32.2954 23.5513 29.4998L34.1366 18.0119L30.1313 13.8186C28.4148 11.984 25.6357 12.0277 23.96 13.8623L7.81647 31.3781C6.14081 33.2127 6.18168 36.1829 7.89821 37.9738L24.287 55.2275C26.0035 57.0184 28.7418 56.9747 30.4583 55.1402L34.3818 50.9032Z" fill="#866BF0"/>
<mask id="mask0_2031_411" style="mask-type:alpha" maskUnits="userSpaceOnUse" x="0" y="0" width="68" height="69">
<path fill-rule="evenodd" clip-rule="evenodd" d="M63.1949 51.4273L67.3636 55.839L58.1271 65.8855C55.5523 68.681 51.3427 68.7247 48.727 65.9729L37.9783 54.6597L31.48 61.7359C29.2322 64.1383 25.5948 64.182 23.347 61.7796L1.72688 39.0658C-0.561819 36.6634 -0.561819 32.7758 1.64514 30.3734L22.9383 7.26656C25.1452 4.82047 28.7826 4.82047 31.0305 7.1792L37.6513 14.1244L48.2366 2.63645C50.8114 -0.159087 55.021 -0.202768 57.6775 2.54909L67.0367 12.4208L62.9497 16.9199L56.574 10.2368C54.5714 8.14017 51.3836 8.14017 49.4218 10.2805L41.8609 18.5361L52.6914 29.9366C54.9392 32.2954 54.9801 36.1829 52.7323 38.629L42.1061 50.2043L49.7896 58.2851C51.7923 60.3818 54.9801 60.3818 56.9418 58.2415L63.1949 51.4273ZM38.3053 22.3799L30.7035 30.6355C28.7418 32.7322 28.7826 36.1829 30.7444 38.2796L38.4687 46.3604L46.5609 37.5807C48.2775 35.7461 48.2366 32.8195 46.5201 30.985L38.3053 22.3799ZM34.3818 50.9032L23.633 39.59C20.9765 36.8381 20.9765 32.2954 23.5513 29.4998L34.1366 18.0119L30.1313 13.8186C28.4148 11.984 25.6357 12.0277 23.96 13.8623L7.81647 31.3781C6.14081 33.2127 6.18168 36.1829 7.89821 37.9738L24.287 55.2275C26.0035 57.0184 28.7418 56.9747 30.4583 55.1402L34.3818 50.9032Z" fill="url(#paint0_linear_2031_411)"/>
</mask>
<g mask="url(#mask0_2031_411)">
<path fill-rule="evenodd" clip-rule="evenodd" d="M37.9277 14.1266L43.5813 20.2815L56.302 17.2041C57.7154 18.2299 61.1076 20.2815 63.369 20.2815C63.8519 20.2815 64.4998 20.3264 65.2421 20.3779C68.8457 20.6276 74.6763 21.0317 74.6763 17.2041C74.6763 16.3254 74.7275 15.3353 74.7812 14.2973C75.0095 9.88203 75.2826 4.60129 71.8495 3.35543C70.0167 2.69034 67.9199 1.45028 65.9014 0.256564C63.25 -1.31145 60.7338 -2.79952 59.1288 -2.79952C58.2729 -2.79952 57.0283 -2.94058 55.6696 -3.09457C52.5408 -3.44918 48.807 -3.87236 47.8215 -2.79952C47.2601 -2.18836 45.8069 -1.81996 44.1702 -1.40508C41.6862 -0.7754 38.7797 -0.0386257 37.9277 1.81653C36.7969 4.27851 37.4565 11.0491 37.9277 14.1266ZM33.6877 17.2039L40.7547 24.8976L36.5145 34.13L37.9277 46.4399L33.6877 51.0561L26.6206 49.5174L22.3804 43.3624C20.967 41.8237 18.1402 38.4385 18.1402 37.2075C18.1402 36.8016 17.9435 36.0746 17.7058 35.1959C17.0423 32.743 16.0589 29.1079 18.1402 27.9751C19.2198 27.3874 20.0933 27.0241 20.8393 26.7139L20.8393 26.7139C22.0465 26.2119 22.9199 25.8486 23.7935 24.8976C24.3589 24.2821 24.9242 23.1742 25.4896 22.0663C26.3376 20.4045 27.1857 18.7426 28.0337 18.7426C29.1644 18.7426 32.2742 17.7168 33.6877 17.2039ZM43.5812 49.5172L36.5142 57.2109L37.9276 63.3659C39.8121 64.3917 43.5812 66.7511 43.5812 67.9821C43.5812 68.2385 43.542 68.495 43.5027 68.7514C43.3064 70.0337 43.1101 71.316 47.8214 72.5983C53.4751 74.137 57.7153 74.137 60.5421 72.5983C60.9897 72.3547 61.4726 72.1111 61.9797 71.8553C64.6761 70.4952 68.0567 68.79 70.436 64.9046C72.6975 61.2116 74.2051 58.2368 74.6762 57.2109L70.436 52.5947L61.9555 47.9785C60.071 47.4656 56.0192 46.7475 54.8885 47.9785C53.7578 49.2095 46.8792 49.5172 43.5812 49.5172Z" fill="#EA7343"/>
</g>
<defs>
<linearGradient id="paint0_linear_2031_411" x1="38.643" y1="36.8759" x2="11118.2" y2="-48.7415" gradientUnits="userSpaceOnUse">
<stop offset="0.03" stop-color="#1666A2"/>
<stop offset="1" stop-color="#26A7DF"/>
</linearGradient>
</defs>
</svg>
