<svg width="56" height="58" viewBox="0 0 56 58" fill="none" xmlns="http://www.w3.org/2000/svg">
<rect width="55.7664" height="57.4656" rx="4" fill="#E4DDFF"/>
<path d="M13.5615 18.0177L13.4199 18.1536V26.174V34.1943L13.5615 34.3302L13.6975 34.4718H19.1973H24.6914V36.8224V39.173H22.7316H20.7719L20.602 39.3429C20.4604 39.4902 20.4377 39.5468 20.466 39.6997C20.483 39.8017 20.5566 39.9263 20.6189 39.9773C20.7322 40.0736 21.1174 40.0792 26.9854 40.0792C30.4234 40.0792 33.2781 40.0622 33.3291 40.0452C33.4311 40.0056 33.584 39.7337 33.584 39.5978C33.584 39.5468 33.5104 39.4279 33.4197 39.3372L33.2555 39.173H31.2674H29.2793L29.2906 36.8337L29.3076 34.5001L34.8471 34.4718L40.3922 34.4435L40.4998 34.3075C40.6074 34.1773 40.6074 33.9677 40.6074 26.1626V18.1536L40.4658 18.0177L40.3299 17.8761H27.0137H13.6975L13.5615 18.0177ZM39.7012 26.174V33.5656H27.0137H14.3262V26.174V18.7823H27.0137H39.7012V26.174ZM28.373 36.8224V39.173H26.9854H25.5977V36.862C25.5977 35.5876 25.6146 34.5284 25.6373 34.5114C25.6543 34.4888 26.283 34.4718 27.025 34.4718H28.373V36.8224Z" fill="#7252EF"/>
<path d="M34.7907 21.1273C34.179 21.3255 33.6749 21.79 33.4653 22.345C33.3067 22.7642 33.3294 23.5062 33.5163 23.8573L33.6352 24.0839L31.8907 25.8284L30.1462 27.573L29.812 27.4484C29.3589 27.2784 28.8038 27.2784 28.3507 27.4484L28.0221 27.573L26.7024 26.2589L25.3884 24.9448L25.5186 24.6277C25.6942 24.2028 25.6999 23.6138 25.5356 23.172C25.3827 22.7642 24.9636 22.3054 24.5387 22.0958C24.2442 21.9429 24.1593 21.9259 23.6721 21.9259C23.185 21.9316 23.1057 21.9486 22.7942 22.1071C22.6016 22.2034 22.3411 22.4017 22.2052 22.5489C21.8653 22.9171 21.7294 23.2513 21.7011 23.8007C21.6784 24.1915 21.6954 24.3048 21.8143 24.5993L21.9559 24.9448L20.8458 26.055L19.73 27.1708L19.4524 27.0405C19.2259 26.9386 19.0673 26.9103 18.6878 26.9103C18.2573 26.9103 18.1667 26.9273 17.8268 27.0972C17.3624 27.3237 16.9829 27.7259 16.8186 28.1734C16.7167 28.4339 16.6997 28.5868 16.7167 28.9777C16.7337 29.3911 16.7677 29.5101 16.9319 29.8159C17.3624 30.6259 18.2573 31.0394 19.1182 30.8298C19.7583 30.6712 20.1774 30.3314 20.5059 29.714C20.6249 29.4931 20.6419 29.3798 20.6419 28.8927C20.6419 28.4056 20.6249 28.2923 20.5116 28.0771L20.3757 27.8278L21.4971 26.7064L22.613 25.5849L22.8282 25.6925C23.287 25.9304 24.0573 25.9304 24.5161 25.6925L24.7313 25.5849L26.0511 26.9103L27.3708 28.23L27.2518 28.5132C26.8723 29.3968 27.1782 30.4163 27.9825 30.9544C29.002 31.6341 30.3557 31.2546 30.8938 30.1331C31.0354 29.8443 31.0581 29.731 31.0581 29.3175C31.0581 28.9323 31.0298 28.7737 30.9221 28.5359L30.7919 28.23L32.5194 26.5025L34.247 24.7749L34.5641 24.8882C35.0399 25.0694 35.3798 25.0978 35.7932 24.9902C36.4786 24.8146 36.9657 24.3784 37.2149 23.7214C37.3735 23.2966 37.3452 22.6226 37.1583 22.2261C36.8298 21.5407 36.1784 21.1046 35.4364 21.0706C35.1928 21.0536 34.9323 21.0819 34.7907 21.1273ZM35.7649 22.0618C36.1954 22.2601 36.4163 22.5999 36.4163 23.0644C36.4163 23.6308 35.8952 24.1632 35.3401 24.1632C34.972 24.1632 34.4792 23.8347 34.3432 23.5005C34.2186 23.2116 34.2413 22.7528 34.3942 22.5093C34.7057 21.9995 35.2495 21.8239 35.7649 22.0618ZM24.1706 22.9228C24.3348 23.0077 24.4764 23.1323 24.5897 23.3079C24.737 23.5402 24.754 23.6081 24.737 23.9423C24.72 24.2482 24.686 24.3558 24.5614 24.5257C24.3462 24.8032 24.029 24.9562 23.6721 24.9562C23.0095 24.9562 22.562 24.4804 22.6073 23.8177C22.6639 23.0191 23.4456 22.5716 24.1706 22.9228ZM19.0729 27.8675C19.3278 27.9581 19.628 28.264 19.713 28.5075C19.8149 28.8247 19.7526 29.2778 19.5714 29.5157C19.1579 30.0595 18.4669 30.1331 17.9684 29.697C17.7136 29.4704 17.6116 29.2325 17.6116 28.853C17.6116 28.0997 18.3479 27.6013 19.0729 27.8675ZM29.6194 28.3546C30.1065 28.6038 30.3104 29.2325 30.0782 29.7423C29.5798 30.8185 27.9768 30.4503 27.9768 29.2609C27.9768 29.1816 28.0391 28.989 28.1128 28.8304C28.379 28.2527 29.0247 28.0487 29.6194 28.3546Z" fill="#7252EF"/>
</svg>
