<svg width="238" height="74" viewBox="0 0 238 74" fill="none" xmlns="http://www.w3.org/2000/svg">
<path d="M102.41 35V32.3L114.59 14.93L115.64 16.49H102.77V13.4H118.49V16.1L106.43 33.32L105.41 31.91H118.67V35H102.41ZM127.605 35.3C125.985 35.3 124.565 34.96 123.345 34.28C122.145 33.6 121.205 32.66 120.525 31.46C119.865 30.26 119.535 28.88 119.535 27.32C119.535 25.76 119.865 24.39 120.525 23.21C121.205 22.01 122.145 21.08 123.345 20.42C124.545 19.74 125.945 19.4 127.545 19.4C129.065 19.4 130.385 19.72 131.505 20.36C132.625 20.98 133.495 21.86 134.115 23C134.735 24.14 135.045 25.47 135.045 26.99C135.045 27.27 135.035 27.53 135.015 27.77C134.995 28.01 134.965 28.25 134.925 28.49H121.875V25.85H132.015L131.235 26.57C131.235 25.13 130.905 24.05 130.245 23.33C129.585 22.61 128.665 22.25 127.485 22.25C126.205 22.25 125.185 22.69 124.425 23.57C123.685 24.45 123.315 25.72 123.315 27.38C123.315 29.02 123.685 30.28 124.425 31.16C125.185 32.02 126.255 32.45 127.635 32.45C128.435 32.45 129.135 32.3 129.735 32C130.335 31.7 130.775 31.24 131.055 30.62H134.625C134.125 32.06 133.275 33.2 132.075 34.04C130.895 34.88 129.405 35.3 127.605 35.3ZM137.873 35V19.7H141.563V23.3H141.653V35H137.873ZM148.613 35V25.34C148.613 24.4 148.373 23.69 147.893 23.21C147.413 22.73 146.713 22.49 145.793 22.49C144.993 22.49 144.273 22.67 143.633 23.03C143.013 23.39 142.523 23.89 142.163 24.53C141.823 25.17 141.653 25.91 141.653 26.75L141.263 23.09C141.783 21.97 142.543 21.08 143.543 20.42C144.543 19.74 145.743 19.4 147.143 19.4C148.803 19.4 150.093 19.87 151.013 20.81C151.953 21.75 152.423 23 152.423 24.56V35H148.613ZM163.202 35.3C161.582 35.3 160.152 34.96 158.912 34.28C157.692 33.6 156.742 32.66 156.062 31.46C155.382 30.24 155.042 28.85 155.042 27.29C155.042 25.73 155.382 24.36 156.062 23.18C156.742 22 157.692 21.08 158.912 20.42C160.152 19.74 161.582 19.4 163.202 19.4C164.842 19.4 166.272 19.74 167.492 20.42C168.712 21.08 169.662 22 170.342 23.18C171.022 24.36 171.362 25.73 171.362 27.29C171.362 28.85 171.012 30.24 170.312 31.46C169.632 32.66 168.682 33.6 167.462 34.28C166.242 34.96 164.822 35.3 163.202 35.3ZM163.202 32.27C164.002 32.27 164.722 32.07 165.362 31.67C166.002 31.25 166.502 30.67 166.862 29.93C167.222 29.17 167.402 28.28 167.402 27.26C167.402 25.76 167.002 24.58 166.202 23.72C165.422 22.86 164.422 22.43 163.202 22.43C161.982 22.43 160.972 22.86 160.172 23.72C159.372 24.58 158.972 25.76 158.972 27.26C158.972 28.28 159.152 29.17 159.512 29.93C159.892 30.67 160.392 31.25 161.012 31.67C161.652 32.07 162.382 32.27 163.202 32.27ZM176.744 35V16.49H169.574V13.4H187.814V16.49H180.644V35H176.744ZM194.138 35.3C192.518 35.3 191.098 34.96 189.878 34.28C188.678 33.6 187.738 32.66 187.058 31.46C186.398 30.26 186.068 28.88 186.068 27.32C186.068 25.76 186.398 24.39 187.058 23.21C187.738 22.01 188.678 21.08 189.878 20.42C191.078 19.74 192.478 19.4 194.078 19.4C195.598 19.4 196.918 19.72 198.038 20.36C199.158 20.98 200.028 21.86 200.648 23C201.268 24.14 201.578 25.47 201.578 26.99C201.578 27.27 201.568 27.53 201.548 27.77C201.528 28.01 201.498 28.25 201.458 28.49H188.408V25.85H198.548L197.768 26.57C197.768 25.13 197.438 24.05 196.778 23.33C196.118 22.61 195.198 22.25 194.018 22.25C192.738 22.25 191.718 22.69 190.958 23.57C190.218 24.45 189.848 25.72 189.848 27.38C189.848 29.02 190.218 30.28 190.958 31.16C191.718 32.02 192.788 32.45 194.168 32.45C194.968 32.45 195.668 32.3 196.268 32C196.868 31.7 197.308 31.24 197.588 30.62H201.158C200.658 32.06 199.808 33.2 198.608 34.04C197.428 34.88 195.938 35.3 194.138 35.3ZM211.242 35.3C209.702 35.3 208.342 34.96 207.162 34.28C206.002 33.6 205.082 32.66 204.402 31.46C203.742 30.24 203.412 28.86 203.412 27.32C203.412 25.78 203.742 24.42 204.402 23.24C205.082 22.04 206.002 21.1 207.162 20.42C208.342 19.74 209.702 19.4 211.242 19.4C212.502 19.4 213.642 19.64 214.662 20.12C215.682 20.58 216.522 21.24 217.182 22.1C217.842 22.94 218.262 23.92 218.442 25.04H214.812C214.592 24.22 214.172 23.58 213.552 23.12C212.932 22.66 212.182 22.43 211.302 22.43C210.482 22.43 209.772 22.63 209.172 23.03C208.592 23.43 208.142 24 207.822 24.74C207.502 25.48 207.342 26.34 207.342 27.32C207.342 28.32 207.502 29.19 207.822 29.93C208.142 30.67 208.602 31.25 209.202 31.67C209.802 32.07 210.502 32.27 211.302 32.27C212.182 32.27 212.932 32.04 213.552 31.58C214.172 31.12 214.592 30.48 214.812 29.66H218.442C218.262 30.78 217.832 31.77 217.152 32.63C216.492 33.47 215.652 34.13 214.632 34.61C213.632 35.07 212.502 35.3 211.242 35.3ZM221.164 35V13.4H224.944V35H221.164ZM231.904 35V25.34C231.904 24.4 231.664 23.69 231.184 23.21C230.704 22.73 230.004 22.49 229.084 22.49C228.284 22.49 227.564 22.67 226.924 23.03C226.304 23.39 225.814 23.89 225.454 24.53C225.114 25.17 224.944 25.91 224.944 26.75L224.554 23.09C225.074 21.97 225.834 21.08 226.834 20.42C227.834 19.74 229.034 19.4 230.434 19.4C232.094 19.4 233.384 19.87 234.304 20.81C235.244 21.75 235.714 23 235.714 24.56V35H231.904Z" fill="white"/>
<path d="M106.806 62V50.894H102.504V49.04H113.448V50.894H109.146V62H106.806ZM117.242 62.18C116.27 62.18 115.418 61.976 114.686 61.568C113.966 61.16 113.402 60.596 112.994 59.876C112.598 59.156 112.4 58.328 112.4 57.392C112.4 56.456 112.598 55.634 112.994 54.926C113.402 54.206 113.966 53.648 114.686 53.252C115.406 52.844 116.246 52.64 117.206 52.64C118.118 52.64 118.91 52.832 119.582 53.216C120.254 53.588 120.776 54.116 121.148 54.8C121.52 55.484 121.706 56.282 121.706 57.194C121.706 57.362 121.7 57.518 121.688 57.662C121.676 57.806 121.658 57.95 121.634 58.094H113.804V56.51H119.888L119.42 56.942C119.42 56.078 119.222 55.43 118.826 54.998C118.43 54.566 117.878 54.35 117.17 54.35C116.402 54.35 115.79 54.614 115.334 55.142C114.89 55.67 114.668 56.432 114.668 57.428C114.668 58.412 114.89 59.168 115.334 59.696C115.79 60.212 116.432 60.47 117.26 60.47C117.74 60.47 118.16 60.38 118.52 60.2C118.88 60.02 119.144 59.744 119.312 59.372H121.454C121.154 60.236 120.644 60.92 119.924 61.424C119.216 61.928 118.322 62.18 117.242 62.18ZM127.504 62.18C126.58 62.18 125.764 61.976 125.056 61.568C124.36 61.16 123.808 60.596 123.4 59.876C123.004 59.144 122.806 58.316 122.806 57.392C122.806 56.468 123.004 55.652 123.4 54.944C123.808 54.224 124.36 53.66 125.056 53.252C125.764 52.844 126.58 52.64 127.504 52.64C128.26 52.64 128.944 52.784 129.556 53.072C130.168 53.348 130.672 53.744 131.068 54.26C131.464 54.764 131.716 55.352 131.824 56.024H129.646C129.514 55.532 129.262 55.148 128.89 54.872C128.518 54.596 128.068 54.458 127.54 54.458C127.048 54.458 126.622 54.578 126.262 54.818C125.914 55.058 125.644 55.4 125.452 55.844C125.26 56.288 125.164 56.804 125.164 57.392C125.164 57.992 125.26 58.514 125.452 58.958C125.644 59.402 125.92 59.75 126.28 60.002C126.64 60.242 127.06 60.362 127.54 60.362C128.068 60.362 128.518 60.224 128.89 59.948C129.262 59.672 129.514 59.288 129.646 58.796H131.824C131.716 59.468 131.458 60.062 131.05 60.578C130.654 61.082 130.15 61.478 129.538 61.766C128.938 62.042 128.26 62.18 127.504 62.18ZM133.458 62V49.04H135.726V62H133.458ZM139.902 62V56.204C139.902 55.64 139.758 55.214 139.47 54.926C139.182 54.638 138.762 54.494 138.21 54.494C137.73 54.494 137.298 54.602 136.914 54.818C136.542 55.034 136.248 55.334 136.032 55.718C135.828 56.102 135.726 56.546 135.726 57.05L135.492 54.854C135.804 54.182 136.26 53.648 136.86 53.252C137.46 52.844 138.18 52.64 139.02 52.64C140.016 52.64 140.79 52.922 141.342 53.486C141.906 54.05 142.188 54.8 142.188 55.736V62H139.902ZM152.892 62.162C151.26 62.162 149.958 61.79 148.986 61.046C148.026 60.29 147.462 59.228 147.294 57.86H149.544C149.652 58.652 150.006 59.27 150.606 59.714C151.206 60.146 151.992 60.362 152.964 60.362C153.768 60.362 154.38 60.218 154.8 59.93C155.232 59.63 155.448 59.216 155.448 58.688C155.448 58.22 155.316 57.842 155.052 57.554C154.788 57.266 154.344 57.032 153.72 56.852L151.38 56.15C150.192 55.79 149.316 55.316 148.752 54.728C148.2 54.14 147.924 53.402 147.924 52.514C147.924 51.77 148.116 51.122 148.5 50.57C148.884 50.018 149.424 49.592 150.12 49.292C150.828 48.992 151.65 48.842 152.586 48.842C154.026 48.842 155.172 49.196 156.024 49.904C156.888 50.6 157.38 51.548 157.5 52.748H155.25C155.118 52.028 154.818 51.5 154.35 51.164C153.882 50.816 153.252 50.642 152.46 50.642C151.764 50.642 151.212 50.78 150.804 51.056C150.396 51.332 150.192 51.71 150.192 52.19C150.192 52.586 150.312 52.922 150.552 53.198C150.804 53.474 151.266 53.714 151.938 53.918L154.314 54.638C155.502 54.986 156.366 55.46 156.906 56.06C157.446 56.66 157.716 57.422 157.716 58.346C157.716 59.57 157.29 60.512 156.438 61.172C155.598 61.832 154.416 62.162 152.892 62.162ZM163.562 62.18C162.59 62.18 161.732 61.976 160.988 61.568C160.256 61.16 159.686 60.596 159.278 59.876C158.87 59.144 158.666 58.31 158.666 57.374C158.666 56.438 158.87 55.616 159.278 54.908C159.686 54.2 160.256 53.648 160.988 53.252C161.732 52.844 162.59 52.64 163.562 52.64C164.546 52.64 165.404 52.844 166.136 53.252C166.868 53.648 167.438 54.2 167.846 54.908C168.254 55.616 168.458 56.438 168.458 57.374C168.458 58.31 168.248 59.144 167.828 59.876C167.42 60.596 166.85 61.16 166.118 61.568C165.386 61.976 164.534 62.18 163.562 62.18ZM163.562 60.362C164.042 60.362 164.474 60.242 164.858 60.002C165.242 59.75 165.542 59.402 165.758 58.958C165.974 58.502 166.082 57.968 166.082 57.356C166.082 56.456 165.842 55.748 165.362 55.232C164.894 54.716 164.294 54.458 163.562 54.458C162.83 54.458 162.224 54.716 161.744 55.232C161.264 55.748 161.024 56.456 161.024 57.356C161.024 57.968 161.132 58.502 161.348 58.958C161.576 59.402 161.876 59.75 162.248 60.002C162.632 60.242 163.07 60.362 163.562 60.362ZM170.126 62V49.04H172.394V62H170.126ZM177.772 62.18C177.136 62.18 176.584 62.048 176.116 61.784C175.66 61.508 175.306 61.136 175.054 60.668C174.814 60.2 174.694 59.672 174.694 59.084V52.82H176.962V58.616C176.962 59.18 177.1 59.606 177.376 59.894C177.664 60.182 178.066 60.326 178.582 60.326C179.05 60.326 179.458 60.218 179.806 60.002C180.166 59.786 180.448 59.486 180.652 59.102C180.868 58.706 180.976 58.262 180.976 57.77L181.21 59.966C180.91 60.638 180.46 61.178 179.86 61.586C179.272 61.982 178.576 62.18 177.772 62.18ZM181.048 62V59.84H180.976V52.82H183.262V62H181.048ZM189.646 62.18C188.518 62.18 187.684 61.916 187.144 61.388C186.616 60.848 186.352 60.044 186.352 58.976V50.732L188.638 49.886V59.03C188.638 59.474 188.758 59.804 188.998 60.02C189.238 60.236 189.616 60.344 190.132 60.344C190.336 60.344 190.516 60.332 190.672 60.308C190.84 60.272 190.996 60.23 191.14 60.182V61.946C190.996 62.018 190.792 62.072 190.528 62.108C190.264 62.156 189.97 62.18 189.646 62.18ZM184.588 54.602V52.82H191.14V54.602H184.588ZM192.784 62V52.82H195.052V62H192.784ZM192.676 51.308V48.806H195.142V51.308H192.676ZM201.601 62.18C200.629 62.18 199.771 61.976 199.027 61.568C198.295 61.16 197.725 60.596 197.317 59.876C196.909 59.144 196.705 58.31 196.705 57.374C196.705 56.438 196.909 55.616 197.317 54.908C197.725 54.2 198.295 53.648 199.027 53.252C199.771 52.844 200.629 52.64 201.601 52.64C202.585 52.64 203.443 52.844 204.175 53.252C204.907 53.648 205.477 54.2 205.885 54.908C206.293 55.616 206.497 56.438 206.497 57.374C206.497 58.31 206.287 59.144 205.867 59.876C205.459 60.596 204.889 61.16 204.157 61.568C203.425 61.976 202.573 62.18 201.601 62.18ZM201.601 60.362C202.081 60.362 202.513 60.242 202.897 60.002C203.281 59.75 203.581 59.402 203.797 58.958C204.013 58.502 204.121 57.968 204.121 57.356C204.121 56.456 203.881 55.748 203.401 55.232C202.933 54.716 202.333 54.458 201.601 54.458C200.869 54.458 200.263 54.716 199.783 55.232C199.303 55.748 199.063 56.456 199.063 57.356C199.063 57.968 199.171 58.502 199.387 58.958C199.615 59.402 199.915 59.75 200.287 60.002C200.671 60.242 201.109 60.362 201.601 60.362ZM208.165 62V52.82H210.379V54.98H210.433V62H208.165ZM214.609 62V56.204C214.609 55.64 214.465 55.214 214.177 54.926C213.889 54.638 213.469 54.494 212.917 54.494C212.437 54.494 212.005 54.602 211.621 54.818C211.249 55.034 210.955 55.334 210.739 55.718C210.535 56.102 210.433 56.546 210.433 57.05L210.199 54.854C210.511 54.182 210.967 53.648 211.567 53.252C212.167 52.844 212.887 52.64 213.727 52.64C214.723 52.64 215.497 52.922 216.049 53.486C216.613 54.05 216.895 54.8 216.895 55.736V62H214.609ZM222.661 62.18C221.389 62.18 220.375 61.916 219.619 61.388C218.863 60.848 218.449 60.104 218.377 59.156H220.447C220.507 59.624 220.729 59.978 221.113 60.218C221.497 60.458 222.013 60.578 222.661 60.578C223.249 60.578 223.687 60.488 223.975 60.308C224.275 60.116 224.425 59.846 224.425 59.498C224.425 59.246 224.341 59.042 224.173 58.886C224.005 58.718 223.687 58.58 223.219 58.472L221.743 58.13C220.735 57.914 219.985 57.578 219.493 57.122C219.013 56.654 218.773 56.072 218.773 55.376C218.773 54.524 219.097 53.858 219.745 53.378C220.405 52.886 221.311 52.64 222.463 52.64C223.603 52.64 224.515 52.886 225.199 53.378C225.895 53.858 226.279 54.524 226.351 55.376H224.281C224.221 55.004 224.029 54.722 223.705 54.53C223.393 54.338 222.961 54.242 222.409 54.242C221.893 54.242 221.503 54.326 221.239 54.494C220.975 54.65 220.843 54.884 220.843 55.196C220.843 55.436 220.945 55.64 221.149 55.808C221.353 55.964 221.695 56.102 222.175 56.222L223.759 56.582C224.659 56.786 225.337 57.14 225.793 57.644C226.261 58.148 226.495 58.742 226.495 59.426C226.495 60.302 226.159 60.98 225.487 61.46C224.815 61.94 223.873 62.18 222.661 62.18Z" fill="#969696"/>
<path d="M78.3172 27.5556L70.6744 20L67 23.7778L71.887 28.6296C73.6874 30.4074 73.6874 33.2963 71.9237 35.1111L67.1102 40.037L70.8949 43.7778L78.3907 36.0741C80.7056 33.7037 80.6688 29.8889 78.3172 27.5556Z" fill="#866BF0"/>
<path fill-rule="evenodd" clip-rule="evenodd" d="M63.1949 46.7682L67.3636 50.8206L58.1271 60.0488C55.5523 62.6166 51.3427 62.6567 48.727 60.129L37.9783 49.7373L31.48 56.2371C29.2322 58.4439 25.5948 58.484 23.347 56.2772L1.72688 35.4135C-0.561819 33.2067 -0.561819 29.6358 1.64514 27.4291L22.9383 6.20423C25.1452 3.95736 28.7826 3.95736 31.0305 6.12398L37.6513 12.5035L48.2366 1.95123C50.8114 -0.616619 55.021 -0.656741 57.6775 1.87098L67.0367 10.9387L62.9497 15.0713L56.574 8.93256C54.5714 7.00668 51.3836 7.00668 49.4218 8.97269L41.8609 16.5559L52.6914 27.0279C54.9392 29.1945 54.9801 32.7654 52.7323 35.0123L42.1061 45.6448L49.7896 53.0674C51.7923 54.9933 54.9801 54.9933 56.9418 53.0273L63.1949 46.7682ZM38.3053 20.0866L30.7035 27.6698C28.7418 29.5957 28.7826 32.7654 30.7444 34.6913L38.4687 42.114L46.5609 34.0493C48.2775 32.3642 48.2366 29.676 46.5201 27.9908L38.3053 20.0866ZM34.3818 46.2867L23.633 35.895C20.9765 33.3672 20.9765 29.1945 23.5513 26.6266L34.1366 16.0744L30.1313 12.2226C28.4148 10.5375 25.6357 10.5776 23.96 12.2627L7.81647 28.3519C6.14081 30.0371 6.18168 32.7654 7.89821 34.4104L24.287 50.2589C26.0035 51.9039 28.7418 51.8638 30.4583 50.1786L34.3818 46.2867Z" fill="#866BF0"/>
<mask id="mask0_2001_570" style="mask-type:alpha" maskUnits="userSpaceOnUse" x="0" y="0" width="68" height="62">
<path fill-rule="evenodd" clip-rule="evenodd" d="M63.1949 46.7682L67.3636 50.8206L58.1271 60.0488C55.5523 62.6166 51.3427 62.6567 48.727 60.129L37.9783 49.7373L31.48 56.2371C29.2322 58.4439 25.5948 58.484 23.347 56.2772L1.72688 35.4135C-0.561819 33.2067 -0.561819 29.6358 1.64514 27.4291L22.9383 6.20423C25.1452 3.95736 28.7826 3.95736 31.0305 6.12398L37.6513 12.5035L48.2366 1.95123C50.8114 -0.616619 55.021 -0.656741 57.6775 1.87098L67.0367 10.9387L62.9497 15.0713L56.574 8.93256C54.5714 7.00668 51.3836 7.00668 49.4218 8.97269L41.8609 16.5559L52.6914 27.0279C54.9392 29.1945 54.9801 32.7654 52.7323 35.0123L42.1061 45.6448L49.7896 53.0674C51.7923 54.9933 54.9801 54.9933 56.9418 53.0273L63.1949 46.7682ZM38.3053 20.0866L30.7035 27.6698C28.7418 29.5957 28.7826 32.7654 30.7444 34.6913L38.4687 42.114L46.5609 34.0493C48.2775 32.3642 48.2366 29.676 46.5201 27.9908L38.3053 20.0866ZM34.3818 46.2867L23.633 35.895C20.9765 33.3672 20.9765 29.1945 23.5513 26.6266L34.1366 16.0744L30.1313 12.2226C28.4148 10.5375 25.6357 10.5776 23.96 12.2627L7.81647 28.3519C6.14081 30.0371 6.18168 32.7654 7.89821 34.4104L24.287 50.2589C26.0035 51.9039 28.7418 51.8638 30.4583 50.1786L34.3818 46.2867Z" fill="url(#paint0_linear_2001_570)"/>
</mask>
<g mask="url(#mask0_2001_570)">
<path fill-rule="evenodd" clip-rule="evenodd" d="M37.9277 12.5055L43.5813 18.1592L56.302 15.3323C57.7154 16.2746 61.1076 18.1592 63.369 18.1592C63.8519 18.1592 64.4998 18.2004 65.2421 18.2477C68.8457 18.4771 74.6763 18.8483 74.6763 15.3323C74.6763 14.5253 74.7275 13.6158 74.7812 12.6623C75.0095 8.60667 75.2826 3.75604 71.8495 2.61166C70.0167 2.00073 67.9199 0.861677 65.9014 -0.234816C63.25 -1.67512 60.7338 -3.04198 59.1288 -3.04198C58.2729 -3.04198 57.0283 -3.17156 55.6696 -3.31301C52.5408 -3.63873 48.807 -4.02745 47.8215 -3.04198C47.2601 -2.4806 45.8069 -2.14222 44.1702 -1.76112C41.6862 -1.18273 38.7797 -0.505963 37.9277 1.19809C36.7969 3.45955 37.4565 9.67866 37.9277 12.5055ZM33.6877 15.3322L40.7547 22.3992L36.5145 30.8797L37.9277 42.187L33.6877 46.4272L26.6206 45.0138L22.3804 39.3602C20.967 37.9468 18.1402 34.8373 18.1402 33.7065C18.1402 33.3337 17.9435 32.6659 17.7058 31.8587C17.0423 29.6057 16.0589 26.2667 18.1402 25.2261C19.2198 24.6862 20.0933 24.3526 20.8393 24.0676L20.8393 24.0676C22.0465 23.6065 22.9199 23.2728 23.7935 22.3992C24.3589 21.8339 24.9242 20.8162 25.4896 19.7986C26.3376 18.2721 27.1857 16.7456 28.0337 16.7456C29.1644 16.7456 32.2742 15.8033 33.6877 15.3322ZM43.5817 45.0136L36.5146 52.0806L37.9281 57.7342C39.8126 58.6765 43.5817 60.8438 43.5817 61.9745C43.5817 62.2101 43.5424 62.4456 43.5032 62.6812C43.3069 63.859 43.1106 65.0369 47.8219 66.2147C53.4756 67.6281 57.7158 67.6281 60.5426 66.2147C60.9902 65.991 61.4731 65.7672 61.9803 65.5322C64.6766 64.2829 68.0572 62.7166 70.4365 59.1477C72.698 55.7555 74.2056 53.0229 74.6767 52.0806L70.4365 47.8404L61.956 43.6001C60.0715 43.129 56.0197 42.4694 54.889 43.6001C53.7583 44.7309 46.8797 45.0136 43.5817 45.0136Z" fill="#EA7343"/>
</g>
<defs>
<linearGradient id="paint0_linear_2001_570" x1="38.643" y1="33.4019" x2="11118" y2="-59.8061" gradientUnits="userSpaceOnUse">
<stop offset="0.03" stop-color="#1666A2"/>
<stop offset="1" stop-color="#26A7DF"/>
</linearGradient>
</defs>
</svg>
