<svg width="76" height="58" viewBox="0 0 76 58" fill="none" xmlns="http://www.w3.org/2000/svg">
<circle cx="29" cy="29" r="29" fill="#EFEDFB"/>
<path d="M66.5 12C65.0413 12 63.6424 12.5795 62.6109 13.6109C61.5795 14.6424 61 16.0413 61 17.5V39.5C61 40.9587 61.5795 42.3576 62.6109 43.3891C63.6424 44.4205 65.0413 45 66.5 45C67.9587 45 69.3576 44.4205 70.3891 43.3891C71.4205 42.3576 72 40.9587 72 39.5C72 38.0413 71.4205 36.6424 70.3891 35.6109C69.3576 34.5795 67.9587 34 66.5 34H44.5C43.0413 34 41.6424 34.5795 40.6109 35.6109C39.5795 36.6424 39 38.0413 39 39.5C39 40.9587 39.5795 42.3576 40.6109 43.3891C41.6424 44.4205 43.0413 45 44.5 45C45.9587 45 47.3576 44.4205 48.3891 43.3891C49.4205 42.3576 50 40.9587 50 39.5V17.5C50 16.0413 49.4205 14.6424 48.3891 13.6109C47.3576 12.5795 45.9587 12 44.5 12C43.0413 12 41.6424 12.5795 40.6109 13.6109C39.5795 14.6424 39 16.0413 39 17.5C39 18.9587 39.5795 20.3576 40.6109 21.3891C41.6424 22.4205 43.0413 23 44.5 23H66.5C67.9587 23 69.3576 22.4205 70.3891 21.3891C71.4205 20.3576 72 18.9587 72 17.5C72 16.0413 71.4205 14.6424 70.3891 13.6109C69.3576 12.5795 67.9587 12 66.5 12Z" stroke="black" stroke-width="1.5" stroke-linecap="round" stroke-linejoin="round"/>
</svg>
