<svg width="93" height="79" viewBox="0 0 93 79" fill="none" xmlns="http://www.w3.org/2000/svg">
<circle cx="39.5" cy="39.5" r="39.5" fill="#373739"/>
<path d="M82.6667 20C80.7217 20 78.8565 20.7726 77.4812 22.1479C76.1059 23.5232 75.3333 25.3884 75.3333 27.3333V56.6667C75.3333 58.6116 76.1059 60.4769 77.4812 61.8521C78.8565 63.2274 80.7217 64 82.6667 64C84.6116 64 86.4769 63.2274 87.8521 61.8521C89.2274 60.4769 90 58.6116 90 56.6667C90 54.7217 89.2274 52.8565 87.8521 51.4812C86.4769 50.1059 84.6116 49.3333 82.6667 49.3333H53.3333C51.3884 49.3333 49.5232 50.1059 48.1479 51.4812C46.7726 52.8565 46 54.7217 46 56.6667C46 58.6116 46.7726 60.4769 48.1479 61.8521C49.5232 63.2274 51.3884 64 53.3333 64C55.2783 64 57.1435 63.2274 58.5188 61.8521C59.8941 60.4769 60.6667 58.6116 60.6667 56.6667V27.3333C60.6667 25.3884 59.8941 23.5232 58.5188 22.1479C57.1435 20.7726 55.2783 20 53.3333 20C51.3884 20 49.5232 20.7726 48.1479 22.1479C46.7726 23.5232 46 25.3884 46 27.3333C46 29.2783 46.7726 31.1435 48.1479 32.5188C49.5232 33.8941 51.3884 34.6667 53.3333 34.6667H82.6667C84.6116 34.6667 86.4769 33.8941 87.8521 32.5188C89.2274 31.1435 90 29.2783 90 27.3333C90 25.3884 89.2274 23.5232 87.8521 22.1479C86.4769 20.7726 84.6116 20 82.6667 20Z" stroke="white" stroke-width="2" stroke-linecap="round" stroke-linejoin="round"/>
</svg>
