<svg width="245" height="73" viewBox="0 0 245 73" fill="none" xmlns="http://www.w3.org/2000/svg">
<path d="M80.86 34V12.4H84.76V34H80.86ZM82.72 25.33V22.24H94.87V25.33H82.72ZM82.72 15.49V12.4H95.59V15.49H82.72ZM102.601 34.3C101.541 34.3 100.621 34.08 99.8406 33.64C99.0806 33.18 98.4906 32.56 98.0706 31.78C97.6706 31 97.4706 30.12 97.4706 29.14V18.7H101.251V28.36C101.251 29.3 101.481 30.01 101.941 30.49C102.421 30.97 103.091 31.21 103.951 31.21C104.731 31.21 105.411 31.03 105.991 30.67C106.591 30.31 107.061 29.81 107.401 29.17C107.761 28.51 107.941 27.77 107.941 26.95L108.331 30.61C107.831 31.73 107.081 32.63 106.081 33.31C105.101 33.97 103.941 34.3 102.601 34.3ZM108.061 34V30.4H107.941V18.7H111.751V34H108.061ZM122.392 34.3C120.512 34.3 119.122 33.86 118.222 32.98C117.342 32.08 116.902 30.74 116.902 28.96V15.22L120.712 13.81V29.05C120.712 29.79 120.912 30.34 121.312 30.7C121.712 31.06 122.342 31.24 123.202 31.24C123.542 31.24 123.842 31.22 124.102 31.18C124.382 31.12 124.642 31.05 124.882 30.97V33.91C124.642 34.03 124.302 34.12 123.862 34.18C123.422 34.26 122.932 34.3 122.392 34.3ZM113.962 21.67V18.7H124.882V21.67H113.962ZM132.366 34.3C131.306 34.3 130.386 34.08 129.606 33.64C128.846 33.18 128.256 32.56 127.836 31.78C127.436 31 127.236 30.12 127.236 29.14V18.7H131.016V28.36C131.016 29.3 131.246 30.01 131.706 30.49C132.186 30.97 132.856 31.21 133.716 31.21C134.496 31.21 135.176 31.03 135.756 30.67C136.356 30.31 136.826 29.81 137.166 29.17C137.526 28.51 137.706 27.77 137.706 26.95L138.096 30.61C137.596 31.73 136.846 32.63 135.846 33.31C134.866 33.97 133.706 34.3 132.366 34.3ZM137.826 34V30.4H137.706V18.7H141.516V34H137.826ZM145.522 34V18.7H149.212V22.39H149.302V34H145.522ZM149.302 26.02L148.912 22.39C149.272 21.09 149.882 20.1 150.742 19.42C151.602 18.74 152.632 18.4 153.832 18.4C154.252 18.4 154.552 18.44 154.732 18.52V22.09C154.632 22.05 154.492 22.03 154.312 22.03C154.132 22.01 153.912 22 153.652 22C152.192 22 151.102 22.32 150.382 22.96C149.662 23.6 149.302 24.62 149.302 26.02ZM163.759 34.3C162.139 34.3 160.719 33.96 159.499 33.28C158.299 32.6 157.359 31.66 156.679 30.46C156.019 29.26 155.689 27.88 155.689 26.32C155.689 24.76 156.019 23.39 156.679 22.21C157.359 21.01 158.299 20.08 159.499 19.42C160.699 18.74 162.099 18.4 163.699 18.4C165.219 18.4 166.539 18.72 167.659 19.36C168.779 19.98 169.649 20.86 170.269 22C170.889 23.14 171.199 24.47 171.199 25.99C171.199 26.27 171.189 26.53 171.169 26.77C171.149 27.01 171.119 27.25 171.079 27.49H158.029V24.85H168.169L167.389 25.57C167.389 24.13 167.059 23.05 166.399 22.33C165.739 21.61 164.819 21.25 163.639 21.25C162.359 21.25 161.339 21.69 160.579 22.57C159.839 23.45 159.469 24.72 159.469 26.38C159.469 28.02 159.839 29.28 160.579 30.16C161.339 31.02 162.409 31.45 163.789 31.45C164.589 31.45 165.289 31.3 165.889 31C166.489 30.7 166.929 30.24 167.209 29.62H170.779C170.279 31.06 169.429 32.2 168.229 33.04C167.049 33.88 165.559 34.3 163.759 34.3ZM173.878 34V12.4H177.778V34H173.878ZM175.738 34V30.91H189.418V34H175.738ZM175.738 24.4V21.37H188.368V24.4H175.738ZM175.738 15.49V12.4H189.088V15.49H175.738ZM202.965 34V30.55L203.265 30.61C203.005 31.73 202.375 32.63 201.375 33.31C200.375 33.97 199.185 34.3 197.805 34.3C196.405 34.3 195.185 33.98 194.145 33.34C193.125 32.68 192.335 31.76 191.775 30.58C191.215 29.4 190.935 28.01 190.935 26.41C190.935 24.79 191.225 23.38 191.805 22.18C192.385 20.98 193.195 20.05 194.235 19.39C195.295 18.73 196.525 18.4 197.925 18.4C199.365 18.4 200.555 18.75 201.495 19.45C202.435 20.13 203.015 21.08 203.235 22.3L202.845 22.33V12.4H206.655V34H202.965ZM198.915 31.21C200.135 31.21 201.105 30.79 201.825 29.95C202.565 29.09 202.935 27.89 202.935 26.35C202.935 24.81 202.565 23.62 201.825 22.78C201.085 21.94 200.105 21.52 198.885 21.52C197.685 21.52 196.715 21.95 195.975 22.81C195.235 23.65 194.865 24.84 194.865 26.38C194.865 27.92 195.235 29.11 195.975 29.95C196.715 30.79 197.695 31.21 198.915 31.21ZM217.398 40.45C215.378 40.45 213.718 40.01 212.418 39.13C211.138 38.25 210.378 37.06 210.138 35.56H213.738C213.918 36.08 214.308 36.48 214.908 36.76C215.528 37.06 216.328 37.21 217.308 37.21C218.728 37.21 219.778 36.89 220.458 36.25C221.138 35.63 221.478 34.68 221.478 33.4V30.1L221.748 30.16C221.508 31.28 220.898 32.18 219.918 32.86C218.938 33.52 217.738 33.85 216.318 33.85C214.958 33.85 213.768 33.53 212.748 32.89C211.748 32.25 210.968 31.36 210.408 30.22C209.848 29.06 209.568 27.71 209.568 26.17C209.568 24.61 209.858 23.25 210.438 22.09C211.018 20.93 211.828 20.03 212.868 19.39C213.928 18.73 215.158 18.4 216.558 18.4C217.998 18.4 219.178 18.75 220.098 19.45C221.038 20.13 221.618 21.08 221.838 22.3L221.598 22.33V18.7H225.288V33.37C225.288 35.55 224.578 37.27 223.158 38.53C221.758 39.81 219.838 40.45 217.398 40.45ZM217.548 30.85C218.768 30.85 219.738 30.44 220.458 29.62C221.198 28.78 221.568 27.61 221.568 26.11C221.568 24.61 221.198 23.45 220.458 22.63C219.718 21.81 218.738 21.4 217.518 21.4C216.318 21.4 215.348 21.82 214.608 22.66C213.868 23.48 213.498 24.64 213.498 26.14C213.498 27.64 213.868 28.8 214.608 29.62C215.348 30.44 216.328 30.85 217.548 30.85ZM236.181 34.3C234.561 34.3 233.141 33.96 231.921 33.28C230.721 32.6 229.781 31.66 229.101 30.46C228.441 29.26 228.111 27.88 228.111 26.32C228.111 24.76 228.441 23.39 229.101 22.21C229.781 21.01 230.721 20.08 231.921 19.42C233.121 18.74 234.521 18.4 236.121 18.4C237.641 18.4 238.961 18.72 240.081 19.36C241.201 19.98 242.071 20.86 242.691 22C243.311 23.14 243.621 24.47 243.621 25.99C243.621 26.27 243.611 26.53 243.591 26.77C243.571 27.01 243.541 27.25 243.501 27.49H230.451V24.85H240.591L239.811 25.57C239.811 24.13 239.481 23.05 238.821 22.33C238.161 21.61 237.241 21.25 236.061 21.25C234.781 21.25 233.761 21.69 233.001 22.57C232.261 23.45 231.891 24.72 231.891 26.38C231.891 28.02 232.261 29.28 233.001 30.16C233.761 31.02 234.831 31.45 236.211 31.45C237.011 31.45 237.711 31.3 238.311 31C238.911 30.7 239.351 30.24 239.631 29.62H243.201C242.701 31.06 241.851 32.2 240.651 33.04C239.471 33.88 237.981 34.3 236.181 34.3Z" fill="#4E4E4E"/>
<path d="M82.538 61V59.128H85.886C86.87 59.128 87.71 58.93 88.406 58.534C89.102 58.138 89.63 57.586 89.99 56.878C90.362 56.17 90.548 55.36 90.548 54.448C90.548 53.548 90.362 52.756 89.99 52.072C89.63 51.388 89.102 50.86 88.406 50.488C87.722 50.104 86.882 49.912 85.886 49.912H82.574V48.04H85.886C87.302 48.04 88.538 48.304 89.594 48.832C90.65 49.36 91.466 50.11 92.042 51.082C92.63 52.042 92.924 53.176 92.924 54.484C92.924 55.792 92.63 56.938 92.042 57.922C91.454 58.894 90.632 59.65 89.576 60.19C88.532 60.73 87.308 61 85.904 61H82.538ZM81.116 61V48.04H83.456V61H81.116ZM94.706 61V51.82H96.974V61H94.706ZM94.598 50.308V47.806H97.064V50.308H94.598ZM103.343 64.87C102.131 64.87 101.135 64.606 100.355 64.078C99.5875 63.55 99.1315 62.836 98.9875 61.936H101.147C101.255 62.248 101.489 62.488 101.849 62.656C102.221 62.836 102.701 62.926 103.289 62.926C104.141 62.926 104.771 62.734 105.179 62.35C105.587 61.978 105.791 61.408 105.791 60.64V58.66L105.953 58.696C105.809 59.368 105.443 59.908 104.855 60.316C104.267 60.712 103.547 60.91 102.695 60.91C101.879 60.91 101.165 60.718 100.553 60.334C99.9535 59.95 99.4855 59.416 99.1495 58.732C98.8135 58.036 98.6455 57.226 98.6455 56.302C98.6455 55.366 98.8195 54.55 99.1675 53.854C99.5155 53.158 100.001 52.618 100.625 52.234C101.261 51.838 101.999 51.64 102.839 51.64C103.703 51.64 104.411 51.85 104.963 52.27C105.527 52.678 105.875 53.248 106.007 53.98L105.863 53.998V51.82H108.077V60.622C108.077 61.93 107.651 62.962 106.799 63.718C105.959 64.486 104.807 64.87 103.343 64.87ZM103.433 59.11C104.165 59.11 104.747 58.864 105.179 58.372C105.623 57.868 105.845 57.166 105.845 56.266C105.845 55.366 105.623 54.67 105.179 54.178C104.735 53.686 104.147 53.44 103.415 53.44C102.695 53.44 102.113 53.692 101.669 54.196C101.225 54.688 101.003 55.384 101.003 56.284C101.003 57.184 101.225 57.88 101.669 58.372C102.113 58.864 102.701 59.11 103.433 59.11ZM110.491 61V51.82H112.759V61H110.491ZM110.383 50.308V47.806H112.849V50.308H110.383ZM119.183 61.18C118.055 61.18 117.221 60.916 116.681 60.388C116.153 59.848 115.889 59.044 115.889 57.976V49.732L118.175 48.886V58.03C118.175 58.474 118.295 58.804 118.535 59.02C118.775 59.236 119.153 59.344 119.669 59.344C119.873 59.344 120.053 59.332 120.209 59.308C120.377 59.272 120.533 59.23 120.677 59.182V60.946C120.533 61.018 120.329 61.072 120.065 61.108C119.801 61.156 119.507 61.18 119.183 61.18ZM114.125 53.602V51.82H120.677V53.602H114.125ZM127.975 61C127.915 60.76 127.867 60.496 127.831 60.208C127.807 59.92 127.795 59.572 127.795 59.164H127.723V54.808C127.723 54.328 127.585 53.968 127.309 53.728C127.045 53.476 126.637 53.35 126.085 53.35C125.545 53.35 125.113 53.452 124.789 53.656C124.477 53.848 124.285 54.13 124.213 54.502H122.035C122.131 53.65 122.539 52.96 123.259 52.432C123.979 51.904 124.945 51.64 126.157 51.64C127.417 51.64 128.371 51.928 129.019 52.504C129.667 53.068 129.991 53.902 129.991 55.006V59.164C129.991 59.452 130.009 59.746 130.045 60.046C130.093 60.346 130.159 60.664 130.243 61H127.975ZM124.789 61.18C123.865 61.18 123.127 60.952 122.575 60.496C122.035 60.028 121.765 59.404 121.765 58.624C121.765 57.784 122.071 57.118 122.683 56.626C123.295 56.134 124.159 55.804 125.275 55.636L128.137 55.204V56.644L125.653 57.022C125.113 57.106 124.705 57.256 124.429 57.472C124.165 57.688 124.033 57.988 124.033 58.372C124.033 58.72 124.159 58.99 124.411 59.182C124.663 59.362 125.011 59.452 125.455 59.452C126.103 59.452 126.643 59.29 127.075 58.966C127.507 58.642 127.723 58.246 127.723 57.778L127.975 59.164C127.735 59.824 127.339 60.328 126.787 60.676C126.247 61.012 125.581 61.18 124.789 61.18ZM132.288 61V48.04H134.556V61H132.288ZM140.3 61V48.04H145.772C146.696 48.04 147.5 48.196 148.184 48.508C148.868 48.82 149.39 49.258 149.75 49.822C150.122 50.386 150.308 51.046 150.308 51.802C150.308 52.546 150.122 53.2 149.75 53.764C149.39 54.328 148.868 54.766 148.184 55.078C147.5 55.39 146.696 55.546 145.772 55.546H142.136V53.764H145.7C146.456 53.764 147.032 53.59 147.428 53.242C147.836 52.894 148.04 52.414 148.04 51.802C148.04 51.19 147.842 50.722 147.446 50.398C147.05 50.062 146.468 49.894 145.7 49.894H142.64V61H140.3ZM147.716 61L141.938 54.376H144.566L150.956 61H147.716ZM155.974 61.18C155.002 61.18 154.15 60.976 153.418 60.568C152.698 60.16 152.134 59.596 151.726 58.876C151.33 58.156 151.132 57.328 151.132 56.392C151.132 55.456 151.33 54.634 151.726 53.926C152.134 53.206 152.698 52.648 153.418 52.252C154.138 51.844 154.978 51.64 155.938 51.64C156.85 51.64 157.642 51.832 158.314 52.216C158.986 52.588 159.508 53.116 159.88 53.8C160.252 54.484 160.438 55.282 160.438 56.194C160.438 56.362 160.432 56.518 160.42 56.662C160.408 56.806 160.39 56.95 160.366 57.094H152.536V55.51H158.62L158.152 55.942C158.152 55.078 157.954 54.43 157.558 53.998C157.162 53.566 156.61 53.35 155.902 53.35C155.134 53.35 154.522 53.614 154.066 54.142C153.622 54.67 153.4 55.432 153.4 56.428C153.4 57.412 153.622 58.168 154.066 58.696C154.522 59.212 155.164 59.47 155.992 59.47C156.472 59.47 156.892 59.38 157.252 59.2C157.612 59.02 157.876 58.744 158.044 58.372H160.186C159.886 59.236 159.376 59.92 158.656 60.424C157.948 60.928 157.054 61.18 155.974 61.18ZM167.719 61C167.659 60.76 167.611 60.496 167.575 60.208C167.551 59.92 167.539 59.572 167.539 59.164H167.467V54.808C167.467 54.328 167.329 53.968 167.053 53.728C166.789 53.476 166.381 53.35 165.829 53.35C165.289 53.35 164.857 53.452 164.533 53.656C164.221 53.848 164.029 54.13 163.957 54.502H161.779C161.875 53.65 162.283 52.96 163.003 52.432C163.723 51.904 164.689 51.64 165.901 51.64C167.161 51.64 168.115 51.928 168.763 52.504C169.411 53.068 169.735 53.902 169.735 55.006V59.164C169.735 59.452 169.753 59.746 169.789 60.046C169.837 60.346 169.903 60.664 169.987 61H167.719ZM164.533 61.18C163.609 61.18 162.871 60.952 162.319 60.496C161.779 60.028 161.509 59.404 161.509 58.624C161.509 57.784 161.815 57.118 162.427 56.626C163.039 56.134 163.903 55.804 165.019 55.636L167.881 55.204V56.644L165.397 57.022C164.857 57.106 164.449 57.256 164.173 57.472C163.909 57.688 163.777 57.988 163.777 58.372C163.777 58.72 163.903 58.99 164.155 59.182C164.407 59.362 164.755 59.452 165.199 59.452C165.847 59.452 166.387 59.29 166.819 58.966C167.251 58.642 167.467 58.246 167.467 57.778L167.719 59.164C167.479 59.824 167.083 60.328 166.531 60.676C165.991 61.012 165.325 61.18 164.533 61.18ZM172.032 61V48.04H174.3V61H172.032ZM176.708 61V51.82H178.922V53.98H178.976V61H176.708ZM182.882 61V55.078C182.882 54.538 182.744 54.142 182.468 53.89C182.204 53.626 181.826 53.494 181.334 53.494C180.902 53.494 180.506 53.596 180.146 53.8C179.786 54.004 179.498 54.292 179.282 54.664C179.078 55.036 178.976 55.468 178.976 55.96L178.742 53.854C179.054 53.182 179.504 52.648 180.092 52.252C180.68 51.844 181.364 51.64 182.144 51.64C183.08 51.64 183.818 51.91 184.358 52.45C184.898 52.978 185.168 53.662 185.168 54.502V61H182.882ZM189.056 61V55.078C189.056 54.538 188.924 54.142 188.66 53.89C188.396 53.626 188.018 53.494 187.526 53.494C187.082 53.494 186.68 53.596 186.32 53.8C185.96 54.004 185.678 54.292 185.474 54.664C185.27 55.036 185.168 55.468 185.168 55.96L184.772 53.854C185.072 53.182 185.528 52.648 186.14 52.252C186.752 51.844 187.46 51.64 188.264 51.64C189.224 51.64 189.974 51.916 190.514 52.468C191.066 53.008 191.342 53.728 191.342 54.628V61H189.056Z" fill="#6F6F6F"/>
<path d="M10.8496 9.66796L3.81348 13.7393V27.5V41.2715L6.60645 42.8828C8.14258 43.7744 11.0215 45.4287 12.998 46.5674C14.9746 47.7061 19.0352 50.0478 22.0107 51.7773C24.9971 53.4961 27.5107 54.8818 27.5967 54.8603C27.6934 54.8389 29.917 53.5713 32.5488 52.0459C35.1807 50.5205 39.4131 48.082 41.9482 46.6211C44.4941 45.1602 47.6094 43.3555 48.877 42.625L51.1865 41.293V27.5107V13.7285L44.2041 9.70019C40.3691 7.47656 37.1465 5.63964 37.0605 5.61816C36.9746 5.59668 34.8047 6.78906 32.2373 8.26074C29.6807 9.74316 27.5537 10.957 27.5107 10.957C27.4785 10.957 27.4678 15.9092 27.5 21.9678L27.5537 32.9785L29.8633 34.3213L32.1729 35.6533L32.2051 27.4463L32.2266 19.25L34.4824 17.9502C35.7178 17.2305 36.8242 16.6074 36.9209 16.5752C37.0283 16.5322 38.1455 15.8984 39.4131 15.168C41.3252 14.0723 41.7549 13.8574 41.9482 13.9434C42.2812 14.0937 50.9609 19.1211 51.0576 19.2178C51.1543 19.3144 41.8193 24.7393 41.7012 24.6641C41.6582 24.6426 41.6367 29.5732 41.6582 35.6318L41.6797 46.6426L41.1211 46.3096C40.8096 46.127 39.7676 45.5361 38.8115 44.9883L37.0713 43.9893L37.0391 41.2285L37.0068 38.4678L34.4824 39.9287C33.0967 40.7236 30.959 41.959 29.7344 42.668L27.5107 43.9463L22.7842 41.2285C20.1846 39.7353 18.0576 38.4893 18.0576 38.457C18.0469 38.4248 19.0889 37.8018 20.3564 37.082L22.666 35.75V30.3359C22.666 27.3603 22.6445 24.9219 22.6123 24.9219C22.5801 24.9219 21.5918 25.4805 20.4209 26.1572C19.2393 26.834 18.165 27.4355 18.0254 27.4893C17.8857 27.543 16.7686 28.166 15.5332 28.8857C14.2979 29.6055 13.2773 30.1855 13.2559 30.1855C13.084 30.1855 3.87793 24.7607 3.94238 24.707C4.03906 24.6103 12.9766 19.4434 13.1592 19.3789C13.2344 19.3467 14.3408 19.9375 15.6191 20.6787C16.9082 21.4199 17.9717 22.0215 18.0039 22.0215C18.0254 22.0215 18.0469 18.3262 18.0469 13.8037C18.0469 9.28125 18.0146 5.58593 17.9717 5.59668C17.918 5.59668 14.7168 7.43359 10.8496 9.66796Z" fill="#EA7343"/>
</svg>
