<svg width="120" height="120" viewBox="0 0 120 120" fill="none" xmlns="http://www.w3.org/2000/svg">
<path d="M34.5192 15.866C50.2868 6.76263 69.7132 6.76263 85.4808 15.866C101.248 24.9694 110.962 41.7932 110.962 60C110.962 78.2068 101.248 95.0306 85.4808 104.134C69.7132 113.237 50.2868 113.237 34.5192 104.134C18.7517 95.0306 9.03848 78.2068 9.03848 60C9.03848 41.7932 18.7517 24.9694 34.5192 15.866Z" fill="white" stroke="#EA7343" stroke-width="2"/>
<path d="M60.0003 80.8327C71.5063 80.8327 80.8337 71.5053 80.8337 59.9994C80.8337 48.4934 71.5063 39.166 60.0003 39.166C48.4944 39.166 39.167 48.4934 39.167 59.9994C39.167 71.5053 48.4944 80.8327 60.0003 80.8327Z" stroke="#EA7343" stroke-width="2" stroke-linecap="round" stroke-linejoin="round"/>
<path d="M39.167 59.9995H80.8337" stroke="#EA7343" stroke-width="2" stroke-linecap="round" stroke-linejoin="round"/>
<path d="M60.0003 39.166C65.2113 44.8709 68.1727 52.2744 68.3337 59.9994C68.1727 67.7243 65.2113 75.1278 60.0003 80.8327C54.7893 75.1278 51.8279 67.7243 51.667 59.9994C51.8279 52.2744 54.7893 44.8709 60.0003 39.166V39.166Z" stroke="#EA7343" stroke-width="2" stroke-linecap="round" stroke-linejoin="round"/>
</svg>
