<svg width="94" height="64" viewBox="0 0 94 64" fill="none" xmlns="http://www.w3.org/2000/svg">
<circle cx="27.5" cy="36.5" r="27.5" fill="#EFEDFB"/>
<g clip-path="url(#clip0_356_586)">
<path d="M57.4358 58.8962C58.1848 58.7695 58.9569 58.2164 59.3372 57.548C59.5907 57.0755 59.6829 56.7298 59.7635 55.831C59.8327 55.2203 59.8903 54.7017 59.9134 54.6902C59.9364 54.6787 60.3973 54.5289 60.9389 54.356C61.4921 54.1832 62.46 53.7798 63.0938 53.4802L64.2346 52.9156L65.0874 53.607C65.5598 53.9988 66.1014 54.3791 66.3089 54.4597C66.885 54.7132 67.9106 54.6671 68.5214 54.3675C69.1667 54.0564 71.2985 51.9591 71.6212 51.3253C72.2204 50.1384 72.0245 49.1128 70.9528 47.8453C70.5725 47.3843 70.2614 46.9695 70.2614 46.9234C70.2614 46.8658 70.4919 46.3587 70.78 45.7941C71.0565 45.2294 71.4598 44.273 71.6557 43.6623L72.013 42.556L73.0731 42.4753C74.7786 42.3486 75.6659 41.7724 76.1038 40.5048C76.2305 40.1015 76.2651 39.5714 76.2305 38.1195C76.196 36.4486 76.1614 36.1835 75.9425 35.7687C75.4585 34.8584 74.6634 34.3744 73.4534 34.2707C71.9208 34.1439 72.0475 34.2361 71.6442 33.0146C71.4483 32.4269 71.0335 31.4474 70.7339 30.8482L70.1923 29.7535L70.8491 28.9814C71.7249 27.9558 71.9208 27.5294 71.9208 26.6767C71.9208 25.7087 71.6673 25.2593 70.3536 23.8996C68.9708 22.4707 68.3139 22.0789 67.3229 22.0789C66.4817 22.0904 65.9632 22.3324 64.9606 23.1966L64.2462 23.8074L63.1514 23.2658C62.5522 22.9662 61.5727 22.5513 60.985 22.3554C59.7635 21.9521 59.8557 22.0789 59.729 20.5462C59.6253 19.3363 59.1413 18.5412 58.2309 18.0572C57.8161 17.8382 57.5395 17.8037 56.03 17.7691C54.0364 17.7115 53.3335 17.8382 52.6536 18.3337C51.9622 18.8408 51.6165 19.6244 51.5243 20.9265L51.4436 21.9867L50.3374 22.3439C49.7266 22.5398 48.7702 22.9431 48.2055 23.2197C47.6409 23.5078 47.1339 23.7382 47.0762 23.7382C47.0186 23.7382 46.6038 23.4271 46.1428 23.0468C44.8753 21.9752 43.8612 21.7793 42.6743 22.3785C42.0405 22.7011 39.9432 24.833 39.6321 25.4783C39.3325 26.089 39.2864 27.1146 39.5399 27.6908C39.6206 27.8982 40.0009 28.4398 40.3927 28.9123L41.0841 29.765L40.5194 30.9058C40.2198 31.5396 39.8165 32.5076 39.6436 33.0607C39.4708 33.6023 39.321 34.0632 39.3094 34.0863C39.2979 34.1093 38.7794 34.1669 38.1686 34.2361C35.5874 34.4781 34.8499 35.6189 35.0227 39.1105C35.0919 40.3781 35.2878 41.0003 35.7833 41.5189C36.371 42.1412 36.7858 42.3025 38.0649 42.4523L39.2979 42.5791L39.6436 43.6623C39.828 44.25 40.2313 45.2294 40.5425 45.8402L41.0956 46.9349L40.4157 47.7646C39.5975 48.7441 39.3786 49.2281 39.3786 50.0462C39.3786 50.9566 39.7704 51.625 41.0725 52.9271C42.3747 54.2293 43.043 54.621 43.9534 54.621C44.7716 54.621 45.2555 54.4021 46.235 53.5839L47.0647 52.9041L48.1594 53.4572C48.7702 53.7683 49.7497 54.1716 50.3374 54.356L51.4206 54.7017L51.5473 55.8425C51.6971 57.1793 51.7893 57.4443 52.3079 58.032C52.9532 58.758 53.4833 58.9193 55.3385 58.9539C56.2259 58.9769 57.1708 58.9423 57.4358 58.8962ZM54.094 57.1447C53.8635 57.0871 53.587 56.9142 53.4948 56.7759C53.4026 56.6261 53.2759 55.9462 53.2067 55.1396C53.126 54.3445 53.0108 53.6531 52.9071 53.5033C52.8149 53.3535 52.5384 53.1921 52.2618 53.123C51.0634 52.8234 49.5884 52.2472 48.3784 51.6019C47.5141 51.1525 46.9841 50.9335 46.8227 50.9796C46.6844 51.0142 46.0852 51.4521 45.486 51.9591C44.5296 52.7773 44.3337 52.8925 43.9419 52.8925C43.527 52.8925 43.4118 52.8119 42.294 51.7056C40.6923 50.0923 40.6923 50.0578 42.3632 48.1103C42.6973 47.73 42.9854 47.3037 43.02 47.1769C43.0661 47.0156 42.8471 46.4855 42.3977 45.6212C41.7524 44.4113 41.1762 42.9363 40.8766 41.7378C40.8075 41.4613 40.6462 41.1847 40.4964 41.0925C40.3466 40.9888 39.6552 40.8736 38.86 40.7929C38.0419 40.7238 37.3735 40.597 37.2237 40.5048C36.8434 40.2513 36.7052 39.5253 36.7512 38.0043C36.7858 36.7136 36.7973 36.633 37.0854 36.3449C37.3735 36.0683 37.5233 36.0337 38.9061 35.8955C39.9317 35.8033 40.4848 35.6996 40.6001 35.5959C40.6923 35.4921 40.8882 34.9621 41.038 34.3859C41.3837 33.1414 41.8907 31.9314 42.5706 30.733C42.9393 30.0992 43.0661 29.765 43.02 29.5691C42.9854 29.4193 42.536 28.797 42.029 28.1863C40.8766 26.7919 40.8536 26.5961 41.6718 25.6166C42.2479 24.9252 43.1583 24.107 43.6192 23.865C44.0225 23.6461 44.3682 23.7843 45.221 24.5218C46.8227 25.8816 46.9495 25.9277 47.8829 25.3515C48.7587 24.8099 50.0493 24.2568 51.1901 23.9111C52.6305 23.4847 52.861 23.3925 52.9762 23.1736C53.0339 23.0699 53.126 22.3669 53.1952 21.6179C53.3911 19.5091 53.4372 19.4746 55.6036 19.4746C57.8852 19.4746 57.9659 19.5552 58.1157 21.7562C58.2194 23.3119 58.2655 23.3695 59.7981 23.7959C60.5356 24.0033 61.5727 24.4181 62.5407 24.9136C63.3934 25.34 64.2231 25.6972 64.3844 25.6972C64.5803 25.6972 65.0182 25.3976 65.7096 24.8214C66.8505 23.8535 67.1385 23.7037 67.588 23.8189C67.9913 23.9111 70.0885 26.0084 70.1807 26.4117C70.296 26.8611 70.1462 27.1492 69.1782 28.29C68.602 28.9814 68.3024 29.4193 68.3024 29.6152C68.3024 29.7765 68.6596 30.6062 69.086 31.4589C69.5815 32.4269 69.9964 33.464 70.2038 34.2015C70.6301 35.7341 70.6993 35.7918 72.2434 35.8955C74.4559 36.0337 74.5251 36.1144 74.5251 38.396C74.5251 40.5509 74.479 40.597 72.4393 40.7929C71.7134 40.8621 71.0335 40.9427 70.9182 40.9773C70.6647 41.058 70.5149 41.346 70.3075 42.1527C70.0425 43.2013 69.3856 44.8146 68.821 45.7941C68.5329 46.3011 68.3024 46.8543 68.3024 47.0271C68.3024 47.2576 68.5444 47.6378 69.1551 48.3753C70.1692 49.5968 70.3075 49.8273 70.2038 50.2191C70.1116 50.5994 69.2358 51.6134 68.3831 52.3279C67.4036 53.146 67.2192 53.123 65.8134 51.9707C65.2026 51.4636 64.5803 51.0142 64.4305 50.9796C64.2346 50.9335 63.9005 51.0603 63.2667 51.4291C62.0682 52.1089 60.8583 52.616 59.6137 52.9617C59.0376 53.1115 58.5075 53.3074 58.4038 53.3996C58.3001 53.5148 58.1964 54.0679 58.1042 55.082C57.9774 56.3726 57.9198 56.6261 57.7009 56.8681C57.5626 57.0179 57.3321 57.1677 57.1938 57.1908C56.6753 57.2945 54.5089 57.2599 54.094 57.1447Z" fill="black"/>
<path d="M57.9305 49.3318C59.4401 49.0092 61.5028 48.0988 62.125 47.4766C62.6205 46.9926 62.2287 46.0476 61.5373 46.0592C61.3645 46.0592 60.9035 46.2435 60.5233 46.474C58.8524 47.4766 57.2276 47.8799 55.1764 47.7992C54.0817 47.7531 53.6438 47.6724 52.745 47.3728C49.8065 46.3933 47.6401 44.2269 46.6145 41.2539C46.2573 40.2053 46.2457 40.0785 46.2342 38.4307C46.2342 36.414 46.3725 35.7687 47.1561 34.167C48.8616 30.6293 52.8487 28.4398 56.709 28.9238C58.9561 29.2004 60.7307 30.0877 62.367 31.7355C63.5194 32.8994 64.1877 33.9596 64.6602 35.3769C65.4899 37.8775 65.2364 40.4588 63.9112 42.9594C63.2889 44.1232 63.2313 44.4805 63.577 44.8262C63.9342 45.1834 64.4528 45.1258 64.8676 44.6879C65.3746 44.1463 66.1928 42.3601 66.527 41.0695C66.8612 39.7558 66.9418 37.5433 66.6998 36.3564C65.7319 31.6549 62.344 28.267 57.6424 27.299C56.5246 27.0685 54.3582 27.1262 53.1713 27.4142C49.5184 28.29 46.5453 30.8482 45.1971 34.2822C44.6325 35.7111 44.4135 37.0709 44.4827 38.7764C44.5979 41.7379 45.6696 44.2154 47.7323 46.2666C49.1151 47.6609 50.9473 48.7211 52.8256 49.2166C54.1278 49.5738 56.6053 49.6199 57.9305 49.3318Z" fill="black"/>
</g>
<defs>
<clipPath id="clip0_356_586">
<rect width="59" height="59" fill="white" transform="matrix(-1 0 0 -1 94 59)"/>
</clipPath>
</defs>
</svg>
