<svg width="83" height="74" viewBox="0 0 83 74" fill="none" xmlns="http://www.w3.org/2000/svg">
<path d="M0 8C0 3.58172 3.58172 0 8 0H75C79.4183 0 83 3.58172 83 8V66C83 70.4183 79.4183 74 75 74H8C3.58172 74 0 70.4183 0 66V8Z" fill="#866BF0"/>
<path fill-rule="evenodd" clip-rule="evenodd" d="M41.425 15.006C36.553 15.1105 31.8423 16.7338 27.9788 19.6393C18.8449 26.4937 16.3183 38.9247 22.0746 48.6768C22.126 48.7728 22.1966 48.8577 22.2824 48.9263C22.3681 48.9949 22.4672 49.0458 22.5736 49.076C22.68 49.1062 22.7915 49.115 22.9015 49.102C23.0115 49.0889 23.1176 49.0542 23.2135 49C23.3094 48.9457 23.3931 48.8731 23.4596 48.7864C23.526 48.6997 23.5739 48.6007 23.6003 48.4955C23.6266 48.3902 23.6309 48.2808 23.6129 48.1739C23.595 48.0669 23.5551 47.9647 23.4956 47.8732C20.9094 43.4939 20.0396 38.3438 21.0486 33.3834C22.0576 28.423 24.8763 23.9909 28.9793 20.9138C32.7956 18.0466 37.4921 16.5287 42.3033 16.6075C47.1145 16.6863 51.7564 18.3572 55.4725 21.3477H54.3111C54.0932 21.3477 53.8843 21.4323 53.7302 21.583C53.5762 21.7337 53.4897 21.9381 53.4897 22.1512C53.4897 22.3644 53.5762 22.5687 53.7302 22.7194C53.8843 22.8701 54.0932 22.9548 54.3111 22.9548H57.5621C57.6797 22.9606 57.7971 22.9417 57.9065 22.8993C58.0159 22.8569 58.1147 22.7919 58.1963 22.7089C58.2146 22.692 58.2321 22.6743 58.2488 22.6559C58.3017 22.5903 58.3438 22.5171 58.3737 22.4389C58.383 22.4163 58.3912 22.3932 58.3983 22.3698C58.3983 22.3677 58.3983 22.3655 58.3983 22.3634C58.4049 22.3395 58.4104 22.3154 58.4147 22.2911C58.4233 22.2449 58.4277 22.1981 58.4279 22.1512V18.929C58.4297 18.8213 58.4093 18.7143 58.368 18.6145C58.3267 18.5147 58.2653 18.424 58.1874 18.3478C58.1096 18.2716 58.0169 18.2116 57.9148 18.1712C57.8128 18.1307 57.7034 18.1108 57.5933 18.1125C57.4855 18.1142 57.379 18.1367 57.28 18.1786C57.181 18.2205 57.0914 18.2812 57.0164 18.357C56.9413 18.4328 56.8822 18.5223 56.8426 18.6205C56.8029 18.7186 56.7834 18.8234 56.7851 18.929V20.332C52.5057 16.7745 47.0393 14.8791 41.425 15.006ZM42 24.3209C38.1066 24.3209 34.9442 27.4001 34.9442 31.1993V33.16H32.2041C31.9862 33.16 31.7773 33.2447 31.6232 33.3954C31.4692 33.5461 31.3827 33.7505 31.3827 33.9636V49.8741C31.3827 50.0872 31.4692 50.2916 31.6232 50.4423C31.7773 50.593 31.9862 50.6776 32.2041 50.6776H51.7959C52.0138 50.6776 52.2227 50.593 52.3768 50.4423C52.5308 50.2916 52.6173 50.0872 52.6173 49.8741V33.9636C52.6173 33.7505 52.5308 33.5461 52.3768 33.3954C52.2227 33.2447 52.0138 33.16 51.7959 33.16H49.0558V31.1993C49.0558 27.4001 45.8934 24.3209 42 24.3209ZM61.1878 25.8926C61.0415 25.8944 60.8984 25.9343 60.7732 26.0082C60.6479 26.0822 60.5452 26.1876 60.4755 26.3134C60.4059 26.4392 60.3718 26.581 60.3769 26.724C60.3819 26.867 60.426 27.0061 60.5044 27.1269C63.0906 31.5062 63.9604 36.6563 62.9514 41.6167C61.9424 46.5771 59.1237 51.0092 55.0207 54.0863C51.2046 56.9524 46.5087 58.4697 41.6984 58.3909C36.888 58.3121 32.2467 56.6419 28.5308 53.6524H29.6528C29.8706 53.6524 30.0796 53.5677 30.2336 53.417C30.3877 53.2663 30.4742 53.062 30.4742 52.8488C30.4742 52.6357 30.3877 52.4313 30.2336 52.2806C30.0796 52.1299 29.8706 52.0453 29.6528 52.0453H26.497C26.3972 52.0327 26.2958 52.0381 26.198 52.0613C26.0125 52.0984 25.8457 52.197 25.726 52.3405C25.6062 52.484 25.5409 52.6636 25.5409 52.8488V56.0711C25.5409 56.2842 25.6274 56.4886 25.7815 56.6393C25.9355 56.79 26.1444 56.8747 26.3623 56.8747C26.5801 56.8747 26.7891 56.79 26.9431 56.6393C27.0972 56.4886 27.1837 56.2842 27.1837 56.0711V54.6392C30.9377 57.772 35.6256 59.635 40.5494 59.9507C46.1056 60.3118 51.6059 58.6801 56.0212 55.3608C65.1551 48.5064 67.6817 36.0753 61.9254 26.3233C61.8549 26.1917 61.7485 26.0817 61.618 26.0057C61.4875 25.9297 61.3397 25.8905 61.1878 25.8926ZM42 25.9296C42.7103 25.924 43.4148 26.0564 44.0724 26.3191C44.7301 26.5817 45.328 26.9694 45.8314 27.4597C46.3349 27.95 46.7339 28.5331 47.0054 29.1753C47.2769 29.8175 47.4154 30.506 47.413 31.2009V33.1616H36.587V31.2009C36.587 28.2663 38.9855 25.9296 42 25.9296ZM33.0254 34.7687H50.9746V49.0721H33.0254V34.7687ZM42 37.6503C40.4771 37.6503 39.2188 38.8669 39.2188 40.3551C39.2188 41.5636 40.0517 42.5809 41.1786 42.9265V47.0198H42.8214V42.9265C43.3851 42.7574 43.879 42.4169 44.2314 41.9545C44.5838 41.4921 44.7764 40.9319 44.7812 40.3551C44.7812 38.8669 43.5229 37.6503 42 37.6503ZM42 39.2574C42.6407 39.2574 43.1385 39.7412 43.1385 40.3551C43.1391 40.501 43.1101 40.6456 43.0529 40.7804C42.9958 40.9152 42.9118 41.0375 42.8058 41.1401C42.6998 41.2428 42.5739 41.3237 42.4356 41.3782C42.2972 41.4327 42.1491 41.4597 42 41.4576C41.8509 41.4597 41.7028 41.4327 41.5644 41.3782C41.4261 41.3237 41.3002 41.2428 41.1942 41.1401C41.0882 41.0375 41.0042 40.9152 40.9471 40.7804C40.89 40.6456 40.8609 40.501 40.8615 40.3551C40.8615 39.7412 41.3593 39.2574 42 39.2574Z" fill="white"/>
</svg>
