<svg width="58" height="47" viewBox="0 0 58 47" fill="none" xmlns="http://www.w3.org/2000/svg">
<circle cx="23.5" cy="23.5" r="23.5" fill="#EFEDFB"/>
<path d="M42.0003 37.3333C49.3641 37.3333 55.3337 31.3638 55.3337 24C55.3337 16.6362 49.3641 10.6667 42.0003 10.6667C34.6365 10.6667 28.667 16.6362 28.667 24C28.667 31.3638 34.6365 37.3333 42.0003 37.3333Z" stroke="black" stroke-width="1.5" stroke-linecap="round" stroke-linejoin="round"/>
<path d="M28.667 24H55.3337" stroke="black" stroke-width="1.5" stroke-linecap="round" stroke-linejoin="round"/>
<path d="M42.0003 10.6667C45.3354 14.3178 47.2307 19.056 47.3337 24C47.2307 28.9439 45.3354 33.6822 42.0003 37.3333C38.6653 33.6822 36.77 28.9439 36.667 24C36.77 19.056 38.6653 14.3178 42.0003 10.6667Z" stroke="black" stroke-width="1.5" stroke-linecap="round" stroke-linejoin="round"/>
</svg>
