<svg width="231" height="69" viewBox="0 0 231 69" fill="none" xmlns="http://www.w3.org/2000/svg">
<path d="M30.0918 39.8226C35.1585 41.5401 40.7977 39.7367 43.8606 35.2712L46.5513 52.2174C42.0285 48.7537 35.6737 48.9827 31.4086 52.7326L29.4907 40.8245L18.4986 44.832C20.0444 38.7635 16.6093 32.5232 10.6553 30.548L27.5728 24.365C24.4526 29.4603 25.569 36.0441 30.0918 39.8226Z" fill="white"/>
<path d="M62.9822 33.4965L45.893 32.9526C50.5016 28.8878 51.2745 22.0464 47.7822 17.0942C41.5706 11.684 31.7521 14.0886 28.8037 21.9032L26.5137 7.6765C31.8952 14.3462 42.3721 13.3443 46.3796 5.72998L48.1257 16.5789L62.5815 17.0656C58.3163 21.7601 58.4881 29.0023 62.9822 33.4965Z" fill="white"/>
<g style="mix-blend-mode:multiply" opacity="0.5">
<path d="M30.0918 39.8226C35.1585 41.5401 40.7977 39.7368 43.8606 35.2712L46.5513 52.2174C42.0285 48.7537 35.6737 48.9827 31.4086 52.7326L29.4907 40.8245L18.4986 44.832C20.0444 38.7635 16.6093 32.5232 10.6553 30.548L27.5728 24.365C24.4526 29.4603 25.569 36.0441 30.0918 39.8226Z" fill="#9161F3"/>
<path d="M62.9822 33.4965L45.893 32.9526C50.5016 28.8878 51.2745 22.0464 47.7822 17.0942C41.5706 11.684 31.7521 14.0886 28.8037 21.9032L26.5137 7.6765C31.8952 14.3462 42.3721 13.3443 46.3796 5.72998L48.1257 16.5789L62.5815 17.0656C58.3163 21.7601 58.4881 29.0023 62.9822 33.4965Z" fill="#9161F3"/>
</g>
<path d="M57.114 20.1571C44.1182 22.6761 34.586 33.84 34.0994 47.0648C33.9562 50.7861 31.2368 53.9921 27.4297 54.6219C23.1073 55.3089 19.0425 52.3605 18.3555 48.0381C17.6971 43.9733 20.2447 40.1375 24.1378 39.1356C36.9333 35.7006 45.6639 23.9356 45.2346 10.6821L45.2632 10.7108C45.0914 5.75859 48.6124 1.3503 53.6218 0.548791C59.0606 -0.309966 64.1559 3.38269 65.0146 8.82149C65.8734 14.1172 62.3525 19.1266 57.114 20.1571Z" fill="#866BF0"/>
<path d="M56.1118 54.6504C49.299 55.7381 42.9156 51.1009 41.8279 44.288C41.7515 43.811 41.7038 43.3339 41.6847 42.8568C41.2267 32.5517 30.6354 25.9106 21.189 30.004C20.044 30.5193 18.8132 30.8914 17.525 31.0918C9.59582 32.3513 2.15326 26.9698 0.893745 19.0692C-0.365766 11.14 5.01578 3.69745 12.945 2.43793C20.8455 1.17842 28.2881 6.55997 29.5476 14.4892C29.6812 15.3098 29.7385 16.1303 29.7194 16.9509C29.7194 27.2274 40.0245 34.3551 49.6425 30.6624C50.444 30.3571 51.2933 30.1376 52.1902 30.004C58.9744 28.9163 65.3864 33.525 66.4742 40.3378C67.5619 47.1506 62.9247 53.5626 56.1118 54.6504Z" fill="#EA7343"/>
<path d="M91.86 30V8.4H95.76V30H91.86ZM99.6272 30V14.7H103.317V18.3H103.407V30H99.6272ZM110.367 30V20.34C110.367 19.4 110.127 18.69 109.647 18.21C109.167 17.73 108.467 17.49 107.547 17.49C106.747 17.49 106.027 17.67 105.387 18.03C104.767 18.39 104.277 18.89 103.917 19.53C103.577 20.17 103.407 20.91 103.407 21.75L103.017 18.09C103.537 16.97 104.297 16.08 105.297 15.42C106.297 14.74 107.497 14.4 108.897 14.4C110.557 14.4 111.847 14.87 112.767 15.81C113.707 16.75 114.177 18 114.177 19.56V30H110.367ZM117.996 30V14.7H121.686V18.3H121.776V30H117.996ZM128.736 30V20.34C128.736 19.4 128.496 18.69 128.016 18.21C127.536 17.73 126.836 17.49 125.916 17.49C125.116 17.49 124.396 17.67 123.756 18.03C123.136 18.39 122.646 18.89 122.286 19.53C121.946 20.17 121.776 20.91 121.776 21.75L121.386 18.09C121.906 16.97 122.666 16.08 123.666 15.42C124.666 14.74 125.866 14.4 127.266 14.4C128.926 14.4 130.216 14.87 131.136 15.81C132.076 16.75 132.546 18 132.546 19.56V30H128.736ZM143.325 30.3C141.705 30.3 140.275 29.96 139.035 29.28C137.815 28.6 136.865 27.66 136.185 26.46C135.505 25.24 135.165 23.85 135.165 22.29C135.165 20.73 135.505 19.36 136.185 18.18C136.865 17 137.815 16.08 139.035 15.42C140.275 14.74 141.705 14.4 143.325 14.4C144.965 14.4 146.395 14.74 147.615 15.42C148.835 16.08 149.785 17 150.465 18.18C151.145 19.36 151.485 20.73 151.485 22.29C151.485 23.85 151.135 25.24 150.435 26.46C149.755 27.66 148.805 28.6 147.585 29.28C146.365 29.96 144.945 30.3 143.325 30.3ZM143.325 27.27C144.125 27.27 144.845 27.07 145.485 26.67C146.125 26.25 146.625 25.67 146.985 24.93C147.345 24.17 147.525 23.28 147.525 22.26C147.525 20.76 147.125 19.58 146.325 18.72C145.545 17.86 144.545 17.43 143.325 17.43C142.105 17.43 141.095 17.86 140.295 18.72C139.495 19.58 139.095 20.76 139.095 22.26C139.095 23.28 139.275 24.17 139.635 24.93C140.015 25.67 140.515 26.25 141.135 26.67C141.775 27.07 142.505 27.27 143.325 27.27ZM157.205 30V27.12H163.235C164.335 27.12 165.185 26.82 165.785 26.22C166.385 25.6 166.685 24.76 166.685 23.7C166.685 22.6 166.365 21.73 165.725 21.09C165.085 20.45 164.195 20.13 163.055 20.13H157.205V17.25H162.785C163.865 17.25 164.695 16.99 165.275 16.47C165.855 15.95 166.145 15.2 166.145 14.22C166.145 13.26 165.865 12.53 165.305 12.03C164.765 11.53 163.965 11.28 162.905 11.28H157.205V8.4H163.625C165.565 8.4 167.115 8.89 168.275 9.87C169.455 10.83 170.045 12.14 170.045 13.8C170.045 14.84 169.795 15.75 169.295 16.53C168.815 17.29 168.165 17.88 167.345 18.3C166.525 18.72 165.595 18.93 164.555 18.93L164.705 18.3C165.805 18.3 166.805 18.55 167.705 19.05C168.605 19.53 169.315 20.21 169.835 21.09C170.375 21.97 170.645 22.99 170.645 24.15C170.645 25.33 170.365 26.36 169.805 27.24C169.265 28.12 168.495 28.8 167.495 29.28C166.515 29.76 165.355 30 164.015 30H157.205ZM154.145 30V8.4H158.045V30H154.145ZM174.474 36.15L178.434 27.27L179.124 26.13L183.444 14.7H187.464L178.314 36.15H174.474ZM177.864 29.85L171.654 14.7H175.764L180.954 28.44L177.864 29.85ZM196.644 30.3C194.764 30.3 193.374 29.86 192.474 28.98C191.594 28.08 191.154 26.74 191.154 24.96V11.22L194.964 9.81V25.05C194.964 25.79 195.164 26.34 195.564 26.7C195.964 27.06 196.594 27.24 197.454 27.24C197.794 27.24 198.094 27.22 198.354 27.18C198.634 27.12 198.894 27.05 199.134 26.97V29.91C198.894 30.03 198.554 30.12 198.114 30.18C197.674 30.26 197.184 30.3 196.644 30.3ZM188.214 17.67V14.7H199.134V17.67H188.214ZM208.362 30.3C206.742 30.3 205.322 29.96 204.102 29.28C202.902 28.6 201.962 27.66 201.282 26.46C200.622 25.26 200.292 23.88 200.292 22.32C200.292 20.76 200.622 19.39 201.282 18.21C201.962 17.01 202.902 16.08 204.102 15.42C205.302 14.74 206.702 14.4 208.302 14.4C209.822 14.4 211.142 14.72 212.262 15.36C213.382 15.98 214.252 16.86 214.872 18C215.492 19.14 215.802 20.47 215.802 21.99C215.802 22.27 215.792 22.53 215.772 22.77C215.752 23.01 215.722 23.25 215.682 23.49H202.632V20.85H212.772L211.992 21.57C211.992 20.13 211.662 19.05 211.002 18.33C210.342 17.61 209.422 17.25 208.242 17.25C206.962 17.25 205.942 17.69 205.182 18.57C204.442 19.45 204.072 20.72 204.072 22.38C204.072 24.02 204.442 25.28 205.182 26.16C205.942 27.02 207.012 27.45 208.392 27.45C209.192 27.45 209.892 27.3 210.492 27C211.092 26.7 211.532 26.24 211.812 25.62H215.382C214.882 27.06 214.032 28.2 212.832 29.04C211.652 29.88 210.162 30.3 208.362 30.3Z" fill="white"/>
<path d="M93.538 57V55.128H96.886C97.87 55.128 98.71 54.93 99.406 54.534C100.102 54.138 100.63 53.586 100.99 52.878C101.362 52.17 101.548 51.36 101.548 50.448C101.548 49.548 101.362 48.756 100.99 48.072C100.63 47.388 100.102 46.86 99.406 46.488C98.722 46.104 97.882 45.912 96.886 45.912H93.574V44.04H96.886C98.302 44.04 99.538 44.304 100.594 44.832C101.65 45.36 102.466 46.11 103.042 47.082C103.63 48.042 103.924 49.176 103.924 50.484C103.924 51.792 103.63 52.938 103.042 53.922C102.454 54.894 101.632 55.65 100.576 56.19C99.532 56.73 98.308 57 96.904 57H93.538ZM92.116 57V44.04H94.456V57H92.116ZM105.706 57V47.82H107.974V57H105.706ZM105.598 46.308V43.806H108.064V46.308H105.598ZM114.343 60.87C113.131 60.87 112.135 60.606 111.355 60.078C110.587 59.55 110.131 58.836 109.987 57.936H112.147C112.255 58.248 112.489 58.488 112.849 58.656C113.221 58.836 113.701 58.926 114.289 58.926C115.141 58.926 115.771 58.734 116.179 58.35C116.587 57.978 116.791 57.408 116.791 56.64V54.66L116.953 54.696C116.809 55.368 116.443 55.908 115.855 56.316C115.267 56.712 114.547 56.91 113.695 56.91C112.879 56.91 112.165 56.718 111.553 56.334C110.953 55.95 110.485 55.416 110.149 54.732C109.813 54.036 109.645 53.226 109.645 52.302C109.645 51.366 109.819 50.55 110.167 49.854C110.515 49.158 111.001 48.618 111.625 48.234C112.261 47.838 112.999 47.64 113.839 47.64C114.703 47.64 115.411 47.85 115.963 48.27C116.527 48.678 116.875 49.248 117.007 49.98L116.863 49.998V47.82H119.077V56.622C119.077 57.93 118.651 58.962 117.799 59.718C116.959 60.486 115.807 60.87 114.343 60.87ZM114.433 55.11C115.165 55.11 115.747 54.864 116.179 54.372C116.623 53.868 116.845 53.166 116.845 52.266C116.845 51.366 116.623 50.67 116.179 50.178C115.735 49.686 115.147 49.44 114.415 49.44C113.695 49.44 113.113 49.692 112.669 50.196C112.225 50.688 112.003 51.384 112.003 52.284C112.003 53.184 112.225 53.88 112.669 54.372C113.113 54.864 113.701 55.11 114.433 55.11ZM121.491 57V47.82H123.759V57H121.491ZM121.383 46.308V43.806H123.849V46.308H121.383ZM130.183 57.18C129.055 57.18 128.221 56.916 127.681 56.388C127.153 55.848 126.889 55.044 126.889 53.976V45.732L129.175 44.886V54.03C129.175 54.474 129.295 54.804 129.535 55.02C129.775 55.236 130.153 55.344 130.669 55.344C130.873 55.344 131.053 55.332 131.209 55.308C131.377 55.272 131.533 55.23 131.677 55.182V56.946C131.533 57.018 131.329 57.072 131.065 57.108C130.801 57.156 130.507 57.18 130.183 57.18ZM125.125 49.602V47.82H131.677V49.602H125.125ZM138.975 57C138.915 56.76 138.867 56.496 138.831 56.208C138.807 55.92 138.795 55.572 138.795 55.164H138.723V50.808C138.723 50.328 138.585 49.968 138.309 49.728C138.045 49.476 137.637 49.35 137.085 49.35C136.545 49.35 136.113 49.452 135.789 49.656C135.477 49.848 135.285 50.13 135.213 50.502H133.035C133.131 49.65 133.539 48.96 134.259 48.432C134.979 47.904 135.945 47.64 137.157 47.64C138.417 47.64 139.371 47.928 140.019 48.504C140.667 49.068 140.991 49.902 140.991 51.006V55.164C140.991 55.452 141.009 55.746 141.045 56.046C141.093 56.346 141.159 56.664 141.243 57H138.975ZM135.789 57.18C134.865 57.18 134.127 56.952 133.575 56.496C133.035 56.028 132.765 55.404 132.765 54.624C132.765 53.784 133.071 53.118 133.683 52.626C134.295 52.134 135.159 51.804 136.275 51.636L139.137 51.204V52.644L136.653 53.022C136.113 53.106 135.705 53.256 135.429 53.472C135.165 53.688 135.033 53.988 135.033 54.372C135.033 54.72 135.159 54.99 135.411 55.182C135.663 55.362 136.011 55.452 136.455 55.452C137.103 55.452 137.643 55.29 138.075 54.966C138.507 54.642 138.723 54.246 138.723 53.778L138.975 55.164C138.735 55.824 138.339 56.328 137.787 56.676C137.247 57.012 136.581 57.18 135.789 57.18ZM143.288 57V44.04H145.556V57H143.288ZM156.376 57.162C154.744 57.162 153.442 56.79 152.47 56.046C151.51 55.29 150.946 54.228 150.778 52.86H153.028C153.136 53.652 153.49 54.27 154.09 54.714C154.69 55.146 155.476 55.362 156.448 55.362C157.252 55.362 157.864 55.218 158.284 54.93C158.716 54.63 158.932 54.216 158.932 53.688C158.932 53.22 158.8 52.842 158.536 52.554C158.272 52.266 157.828 52.032 157.204 51.852L154.864 51.15C153.676 50.79 152.8 50.316 152.236 49.728C151.684 49.14 151.408 48.402 151.408 47.514C151.408 46.77 151.6 46.122 151.984 45.57C152.368 45.018 152.908 44.592 153.604 44.292C154.312 43.992 155.134 43.842 156.07 43.842C157.51 43.842 158.656 44.196 159.508 44.904C160.372 45.6 160.864 46.548 160.984 47.748H158.734C158.602 47.028 158.302 46.5 157.834 46.164C157.366 45.816 156.736 45.642 155.944 45.642C155.248 45.642 154.696 45.78 154.288 46.056C153.88 46.332 153.676 46.71 153.676 47.19C153.676 47.586 153.796 47.922 154.036 48.198C154.288 48.474 154.75 48.714 155.422 48.918L157.798 49.638C158.986 49.986 159.85 50.46 160.39 51.06C160.93 51.66 161.2 52.422 161.2 53.346C161.2 54.57 160.774 55.512 159.922 56.172C159.082 56.832 157.9 57.162 156.376 57.162ZM167.046 57.18C166.074 57.18 165.216 56.976 164.472 56.568C163.74 56.16 163.17 55.596 162.762 54.876C162.354 54.144 162.15 53.31 162.15 52.374C162.15 51.438 162.354 50.616 162.762 49.908C163.17 49.2 163.74 48.648 164.472 48.252C165.216 47.844 166.074 47.64 167.046 47.64C168.03 47.64 168.888 47.844 169.62 48.252C170.352 48.648 170.922 49.2 171.33 49.908C171.738 50.616 171.942 51.438 171.942 52.374C171.942 53.31 171.732 54.144 171.312 54.876C170.904 55.596 170.334 56.16 169.602 56.568C168.87 56.976 168.018 57.18 167.046 57.18ZM167.046 55.362C167.526 55.362 167.958 55.242 168.342 55.002C168.726 54.75 169.026 54.402 169.242 53.958C169.458 53.502 169.566 52.968 169.566 52.356C169.566 51.456 169.326 50.748 168.846 50.232C168.378 49.716 167.778 49.458 167.046 49.458C166.314 49.458 165.708 49.716 165.228 50.232C164.748 50.748 164.508 51.456 164.508 52.356C164.508 52.968 164.616 53.502 164.832 53.958C165.06 54.402 165.36 54.75 165.732 55.002C166.116 55.242 166.554 55.362 167.046 55.362ZM173.61 57V44.04H175.878V57H173.61ZM181.256 57.18C180.62 57.18 180.068 57.048 179.6 56.784C179.144 56.508 178.79 56.136 178.538 55.668C178.298 55.2 178.178 54.672 178.178 54.084V47.82H180.446V53.616C180.446 54.18 180.584 54.606 180.86 54.894C181.148 55.182 181.55 55.326 182.066 55.326C182.534 55.326 182.942 55.218 183.29 55.002C183.65 54.786 183.932 54.486 184.136 54.102C184.352 53.706 184.46 53.262 184.46 52.77L184.694 54.966C184.394 55.638 183.944 56.178 183.344 56.586C182.756 56.982 182.06 57.18 181.256 57.18ZM184.532 57V54.84H184.46V47.82H186.746V57H184.532ZM193.131 57.18C192.003 57.18 191.169 56.916 190.629 56.388C190.101 55.848 189.837 55.044 189.837 53.976V45.732L192.123 44.886V54.03C192.123 54.474 192.243 54.804 192.483 55.02C192.723 55.236 193.101 55.344 193.617 55.344C193.821 55.344 194.001 55.332 194.157 55.308C194.325 55.272 194.481 55.23 194.625 55.182V56.946C194.481 57.018 194.277 57.072 194.013 57.108C193.749 57.156 193.455 57.18 193.131 57.18ZM188.073 49.602V47.82H194.625V49.602H188.073ZM196.269 57V47.82H198.537V57H196.269ZM196.161 46.308V43.806H198.627V46.308H196.161ZM205.085 57.18C204.113 57.18 203.255 56.976 202.511 56.568C201.779 56.16 201.209 55.596 200.801 54.876C200.393 54.144 200.189 53.31 200.189 52.374C200.189 51.438 200.393 50.616 200.801 49.908C201.209 49.2 201.779 48.648 202.511 48.252C203.255 47.844 204.113 47.64 205.085 47.64C206.069 47.64 206.927 47.844 207.659 48.252C208.391 48.648 208.961 49.2 209.369 49.908C209.777 50.616 209.981 51.438 209.981 52.374C209.981 53.31 209.771 54.144 209.351 54.876C208.943 55.596 208.373 56.16 207.641 56.568C206.909 56.976 206.057 57.18 205.085 57.18ZM205.085 55.362C205.565 55.362 205.997 55.242 206.381 55.002C206.765 54.75 207.065 54.402 207.281 53.958C207.497 53.502 207.605 52.968 207.605 52.356C207.605 51.456 207.365 50.748 206.885 50.232C206.417 49.716 205.817 49.458 205.085 49.458C204.353 49.458 203.747 49.716 203.267 50.232C202.787 50.748 202.547 51.456 202.547 52.356C202.547 52.968 202.655 53.502 202.871 53.958C203.099 54.402 203.399 54.75 203.771 55.002C204.155 55.242 204.593 55.362 205.085 55.362ZM211.649 57V47.82H213.863V49.98H213.917V57H211.649ZM218.093 57V51.204C218.093 50.64 217.949 50.214 217.661 49.926C217.373 49.638 216.953 49.494 216.401 49.494C215.921 49.494 215.489 49.602 215.105 49.818C214.733 50.034 214.439 50.334 214.223 50.718C214.019 51.102 213.917 51.546 213.917 52.05L213.683 49.854C213.995 49.182 214.451 48.648 215.051 48.252C215.651 47.844 216.371 47.64 217.211 47.64C218.207 47.64 218.981 47.922 219.533 48.486C220.097 49.05 220.379 49.8 220.379 50.736V57H218.093ZM226.146 57.18C224.874 57.18 223.86 56.916 223.104 56.388C222.348 55.848 221.934 55.104 221.862 54.156H223.932C223.992 54.624 224.214 54.978 224.598 55.218C224.982 55.458 225.498 55.578 226.146 55.578C226.734 55.578 227.172 55.488 227.46 55.308C227.76 55.116 227.91 54.846 227.91 54.498C227.91 54.246 227.826 54.042 227.658 53.886C227.49 53.718 227.172 53.58 226.704 53.472L225.228 53.13C224.22 52.914 223.47 52.578 222.978 52.122C222.498 51.654 222.258 51.072 222.258 50.376C222.258 49.524 222.582 48.858 223.23 48.378C223.89 47.886 224.796 47.64 225.948 47.64C227.088 47.64 228 47.886 228.684 48.378C229.38 48.858 229.764 49.524 229.836 50.376H227.766C227.706 50.004 227.514 49.722 227.19 49.53C226.878 49.338 226.446 49.242 225.894 49.242C225.378 49.242 224.988 49.326 224.724 49.494C224.46 49.65 224.328 49.884 224.328 50.196C224.328 50.436 224.43 50.64 224.634 50.808C224.838 50.964 225.18 51.102 225.66 51.222L227.244 51.582C228.144 51.786 228.822 52.14 229.278 52.644C229.746 53.148 229.98 53.742 229.98 54.426C229.98 55.302 229.644 55.98 228.972 56.46C228.3 56.94 227.358 57.18 226.146 57.18Z" fill="#969696"/>
</svg>
