<svg width="68" height="51" viewBox="0 0 68 51" fill="none" xmlns="http://www.w3.org/2000/svg">
<rect width="51" height="51" rx="25.5" fill="#373739"/>
<g clip-path="url(#clip0_2045_433)">
<path d="M44.7965 0.817382C44.6295 0.870116 44.2867 1.11621 44.0494 1.3623C43.4254 1.97754 43.2496 2.64551 43.4957 3.44531C43.6187 3.86719 44.1637 4.50879 44.5328 4.6582L44.7965 4.76367L44.7965 6.24902L44.7965 7.73437L45.4996 7.73437L46.2027 7.73437L46.2027 6.24902L46.2027 4.76367L46.4664 4.6582C46.8355 4.50879 47.3805 3.86719 47.5035 3.44531C47.7496 2.64551 47.5738 1.97754 46.9498 1.3623C46.3346 0.73828 45.6139 0.562499 44.7965 0.817382ZM45.983 2.3291C46.1236 2.46094 46.2027 2.64551 46.2027 2.8125C46.2027 2.97949 46.1236 3.16406 45.983 3.2959C45.5523 3.73535 44.7965 3.42773 44.7965 2.8125C44.7965 2.45215 45.1392 2.10937 45.4996 2.10937C45.6666 2.10937 45.8512 2.18848 45.983 2.3291Z" fill="white"/>
<path d="M30.8311 6.62695C30.0488 6.9082 29.5039 7.69922 29.5039 8.55176C29.5039 9.1582 29.6797 9.60645 30.0576 10.002C30.6113 10.582 31.3145 10.793 32.0439 10.5996L32.4834 10.4854L33.5205 11.5312L34.5576 12.5684L35.0586 12.0674L35.5684 11.5576L34.5225 10.5029C33.6084 9.58887 33.4766 9.43066 33.5645 9.28125C33.7227 9 33.6787 8.07715 33.4766 7.68164C33.2393 7.21582 32.6768 6.71484 32.2549 6.60059C31.8242 6.47754 31.209 6.48633 30.8311 6.62695ZM32.0615 8.07715C32.457 8.39355 32.2461 9.18457 31.7451 9.22852C31.2266 9.28125 30.9102 9.04395 30.9102 8.5957C30.9102 8.00684 31.5957 7.69922 32.0615 8.07715Z" fill="white"/>
<path d="M58.6396 6.64453C58.1914 6.81152 57.7344 7.24219 57.5234 7.7168C57.3389 8.12988 57.2949 8.86816 57.4355 9.22852C57.5146 9.43066 57.4443 9.52734 56.4775 10.5029L55.4316 11.5576L55.9414 12.0674L56.4424 12.5684L57.4795 11.5312L58.5166 10.4854L58.9736 10.6084C59.7031 10.793 60.3887 10.582 60.9424 10.002C61.3291 9.60644 61.4961 9.1582 61.4961 8.55176C61.4961 7.90137 61.2764 7.41797 60.8018 7.02246C60.2129 6.51269 59.3955 6.37207 58.6396 6.64453ZM59.9141 8.08594C60.1338 8.30566 60.1426 8.78906 59.9229 9.06152C59.8086 9.21094 59.668 9.26367 59.4307 9.26367C59.0264 9.26367 58.7715 8.99121 58.7715 8.56055C58.7715 8.16504 59.0352 7.91016 59.4307 7.91016C59.624 7.91016 59.8086 7.98047 59.9141 8.08594Z" fill="white"/>
<path d="M43.6191 9.27246C38.6709 9.98437 34.5312 13.3857 32.8965 18.0967C32.334 19.7139 32.1934 20.5664 32.1934 22.4561C32.1934 23.8535 32.2285 24.2754 32.3955 25.0488C32.9844 27.7998 34.1533 29.9619 36.0957 31.9043C37.2295 33.0469 38.2578 33.7852 39.6201 34.4531L40.5342 34.9014L40.5869 37.6436C40.6309 40.2012 40.6484 40.4209 40.833 40.9307C41.5713 42.9609 43.3818 44.2529 45.5 44.2529C47.627 44.2529 49.4199 42.9697 50.167 40.9307C50.3516 40.4209 50.3691 40.2275 50.4043 37.6523L50.4307 34.9189L51.2393 34.5322C54.4736 32.9678 57.04 30.0762 58.1562 26.7187C58.6484 25.2598 58.7978 24.2754 58.8066 22.5879C58.8154 21.4365 58.7715 20.8301 58.6484 20.1709C57.6289 14.7041 53.5244 10.5117 48.1016 9.39551C46.9414 9.1582 44.8232 9.09668 43.6191 9.27246ZM47.2578 10.6787C48.4971 10.8633 49.5518 11.1973 50.7295 11.7686C53.5596 13.1484 55.6953 15.5478 56.75 18.501C58.8506 24.4424 55.9853 30.9814 50.2021 33.4512C49.7187 33.6621 49.2529 33.917 49.1738 34.0225C49.0508 34.1719 49.0156 34.3828 49.0156 35.0332L49.0156 35.8594L45.5 35.8594L41.9844 35.8594L41.9844 35.0332C41.9844 34.0137 41.9316 33.9346 40.9736 33.5391C37.2471 32.0186 34.6279 28.8105 33.749 24.6973C33.5029 23.5459 33.5293 21.252 33.793 20.0479C34.3203 17.6924 35.3662 15.75 37.0186 14.0977C38.6182 12.4893 40.4199 11.4521 42.582 10.9072C43.9971 10.5381 45.7988 10.4502 47.2578 10.6787ZM49.0156 38.3203L49.0156 39.375L45.5 39.375L41.9844 39.375L41.9844 38.3203L41.9844 37.2656L45.5 37.2656L49.0156 37.2656L49.0156 38.3203ZM48.6641 40.8516C48.6641 41.0186 48.0928 41.7744 47.75 42.0557C47.5478 42.2227 47.1436 42.4687 46.8535 42.6006C46.4053 42.8115 46.2295 42.8467 45.5 42.8467C44.7441 42.8467 44.6123 42.8203 44.0937 42.5742C43.7773 42.4248 43.3643 42.1699 43.1709 42.0029C42.8545 41.7217 42.3359 41.0098 42.3359 40.8516C42.3359 40.8164 43.7598 40.7812 45.5 40.7812C47.2402 40.7812 48.6641 40.8164 48.6641 40.8516Z" fill="white"/>
<path d="M41.2197 18.4131C40.9824 18.5801 40.9297 18.7471 39.9629 22.4561C39.5146 24.1436 39.084 25.7959 38.9961 26.1211L38.8291 26.7188L39.5674 26.7187L40.2969 26.7187L40.4727 26.0332C40.5693 25.6641 40.7363 25.0312 40.8418 24.627L41.0352 23.8975L42.3184 23.9238L43.5928 23.9502L43.9531 25.3301L44.3135 26.7187L45.0342 26.7187C45.4385 26.7187 45.7637 26.71 45.7637 26.6924C45.7637 26.6836 45.2891 24.873 44.709 22.6758C43.7861 19.1689 43.6367 18.6504 43.4346 18.4746C43.2324 18.2988 43.1094 18.2812 42.3096 18.2812C41.6504 18.2812 41.3604 18.3164 41.2197 18.4131ZM42.8018 20.9619C42.9863 21.665 43.1533 22.2979 43.1797 22.3682C43.2236 22.4824 43.0918 22.5 42.3447 22.5C41.7471 22.5 41.457 22.4648 41.457 22.4033C41.457 22.3154 42.0195 20.083 42.1162 19.793C42.1426 19.7402 42.2305 19.6875 42.3096 19.6875C42.4414 19.6875 42.5293 19.916 42.8018 20.9619Z" fill="white"/>
<path d="M47.2578 18.9844L47.2578 19.6875L48.1367 19.6875L49.0156 19.6875L49.0156 22.5L49.0156 25.3125L48.1367 25.3125L47.2578 25.3125L47.2578 26.0156L47.2578 26.7188L49.7188 26.7187L52.1797 26.7187L52.1797 26.0156L52.1797 25.3125L51.3008 25.3125L50.4219 25.3125L50.4219 22.5L50.4219 19.6875L51.3008 19.6875L52.1797 19.6875L52.1797 18.9844L52.1797 18.2812L49.7187 18.2812L47.2578 18.2812L47.2578 18.9844Z" fill="white"/>
<path d="M25.109 20.5053C24.6783 20.6459 23.94 21.4018 23.8082 21.85C23.5621 22.6762 23.7379 23.3354 24.3619 23.9506C24.9771 24.5746 25.6451 24.7504 26.4449 24.5043C26.8668 24.3813 27.5084 23.8363 27.6578 23.4672L27.7633 23.2035L29.2486 23.2035L30.734 23.2035L30.734 22.5004L30.734 21.7973L29.2486 21.7973L27.7633 21.7973L27.6578 21.5336C27.5084 21.1645 26.8668 20.6195 26.4449 20.4965C26.0318 20.3734 25.5221 20.3734 25.109 20.5053ZM26.2955 22.017C26.7349 22.4477 26.4273 23.2035 25.8121 23.2035C25.4517 23.2035 25.109 22.8608 25.109 22.5004C25.109 22.14 25.4517 21.7973 25.8121 21.7973C25.9791 21.7973 26.1637 21.8764 26.2955 22.017Z" fill="white"/>
<path d="M64.502 20.5049C64.124 20.6191 63.4824 21.1904 63.3418 21.5332L63.2363 21.7969L61.751 21.7969L60.2656 21.7969L60.2656 22.5L60.2656 23.2031L61.751 23.2031L63.2363 23.2031L63.3418 23.4668C63.5879 24.0645 64.4756 24.6094 65.1875 24.6094C66.2773 24.6094 67.2969 23.5898 67.2969 22.5C67.2969 21.9463 67.0947 21.498 66.6377 21.0498C66.0312 20.4346 65.293 20.25 64.502 20.5049ZM65.6709 22.0166C66.1104 22.4473 65.8027 23.2031 65.1875 23.2031C64.8271 23.2031 64.4844 22.8604 64.4844 22.5C64.4844 22.333 64.5635 22.1484 64.7041 22.0166C64.8359 21.876 65.0205 21.7969 65.1875 21.7969C65.3545 21.7969 65.5391 21.876 65.6709 22.0166Z" fill="white"/>
</g>
<defs>
<clipPath id="clip0_2045_433">
<rect width="45" height="45" fill="white" transform="translate(23)"/>
</clipPath>
</defs>
</svg>
