<svg width="73" height="55" viewBox="0 0 73 55" fill="none" xmlns="http://www.w3.org/2000/svg">
<circle cx="27.5" cy="27.4995" r="27.5" fill="#EFEDFB"/>
<path d="M54.7669 8.20384L54.5625 8.40821V17.0466V25.6851L54.7433 25.8501L54.9241 26.0231H63.5782H72.2402L72.3975 25.8187C72.594 25.575 72.6097 25.0405 72.4839 23.7357C72.083 19.6641 70.3616 16.0484 67.4533 13.1322C64.3407 10.0117 60.4184 8.28244 55.9695 8.05449L54.9712 7.99947L54.7669 8.20384ZM57.4315 9.44576C60.8114 9.87022 64.3878 11.7095 66.8245 14.2798C69.4184 17.0152 70.9119 20.3322 71.2656 24.1916L71.3206 24.7654H63.5704H55.8201V17.0231V9.27284L56.3153 9.32C56.5826 9.35144 57.0856 9.40646 57.4315 9.44576Z" fill="black"/>
<path d="M51.0645 12.2676C43.4007 12.8178 36.861 18.5716 35.3518 26.1017C34.9509 28.0746 34.8881 30.3698 35.1868 32.2641C35.9649 37.2947 38.9754 41.8065 43.33 44.4633C47.5274 47.0257 52.7309 47.686 57.4313 46.2633C59.9309 45.5008 62.454 44.0467 64.2069 42.3331C64.7335 41.8222 64.8593 41.6572 64.8593 41.4685C64.8593 41.2642 64.1361 40.5096 58.9248 35.2982L52.9903 29.3637V21.0161C52.9903 16.4257 52.9667 12.6135 52.9431 12.5427C52.8645 12.3541 52.4872 12.189 52.1492 12.1969C51.9841 12.2047 51.4968 12.2362 51.0645 12.2676ZM51.7326 21.6764V29.8353L57.5256 35.6283L63.3187 41.4214L63.0907 41.6729C62.7213 42.058 61.3929 43.0327 60.5754 43.52C55.7964 46.3262 49.8855 46.4912 44.9885 43.9366C40.9326 41.8222 37.9614 38.1436 36.806 33.8048C36.468 32.5235 36.3265 31.5803 36.2715 30.2283C36.0199 23.7986 39.5885 17.8877 45.4051 15.0895C46.0103 14.7986 46.7885 14.4685 47.1344 14.3506C48.5571 13.879 50.2077 13.5488 51.2453 13.5331L51.7326 13.5253V21.6764Z" fill="black"/>
<path d="M54.759 27.7916C54.6254 27.9174 54.5625 28.0667 54.5625 28.2397C54.5625 28.4755 55.0577 28.9942 60.6463 34.5829C67.752 41.6886 66.9424 41.0755 67.9014 40.0615C70.0237 37.8135 71.58 34.803 72.1931 31.7611C72.4132 30.6921 72.5625 29.3715 72.5625 28.5226C72.5625 28.051 72.5389 27.9567 72.366 27.7916L72.1774 27.5951H63.5625H54.9477L54.759 27.7916ZM71.3049 28.9864C71.3049 29.065 71.2656 29.4659 71.2263 29.8746C70.9669 32.327 70.063 34.9209 68.7739 36.886C68.2708 37.6641 67.414 38.7881 67.1625 39.0082C67.021 39.1419 66.8402 38.9689 61.8726 34.0012L56.7241 28.8528H64.0184C70.904 28.8528 71.3049 28.8606 71.3049 28.9864Z" fill="black"/>
</svg>
