<svg width="71" height="64" viewBox="0 0 71 64" fill="none" xmlns="http://www.w3.org/2000/svg">
<circle cx="32" cy="32" r="32" fill="#EFEDFB"/>
<path d="M63.5 18.75H33.5C31.4289 18.75 29.75 20.4289 29.75 22.5V30C29.75 32.0711 31.4289 33.75 33.5 33.75H63.5C65.5711 33.75 67.25 32.0711 67.25 30V22.5C67.25 20.4289 65.5711 18.75 63.5 18.75Z" stroke="#141414" stroke-width="2" stroke-linecap="round" stroke-linejoin="round"/>
<path d="M63.5 41.25H33.5C31.4289 41.25 29.75 42.9289 29.75 45V52.5C29.75 54.5711 31.4289 56.25 33.5 56.25H63.5C65.5711 56.25 67.25 54.5711 67.25 52.5V45C67.25 42.9289 65.5711 41.25 63.5 41.25Z" stroke="black" stroke-width="2" stroke-linecap="round" stroke-linejoin="round"/>
<path d="M37.25 26.25H37.2688" stroke="#141414" stroke-width="2" stroke-linecap="round" stroke-linejoin="round"/>
<path d="M37.25 48.75H37.2688" stroke="black" stroke-width="2" stroke-linecap="round" stroke-linejoin="round"/>
</svg>
