<svg width="154" height="52" viewBox="0 0 154 52" fill="none" xmlns="http://www.w3.org/2000/svg">
<rect width="154" height="52" rx="4" fill="#866BF0"/>
<rect x="11" y="9" width="40" height="34" rx="4" fill="white"/>
<path d="M31.7071 17.2929C31.3166 16.9024 30.6834 16.9024 30.2929 17.2929L23.9289 23.6569C23.5384 24.0474 23.5384 24.6805 23.9289 25.0711C24.3195 25.4616 24.9526 25.4616 25.3431 25.0711L31 19.4142L36.6569 25.0711C37.0474 25.4616 37.6805 25.4616 38.0711 25.0711C38.4616 24.6805 38.4616 24.0474 38.0711 23.6569L31.7071 17.2929ZM32 34V18H30V34H32Z" fill="black"/>
<path d="M65.66 42.2C64.6467 42.2 63.76 42 63 41.6C62.2533 41.2 61.5733 40.6133 60.96 39.84L62.5 38.3C62.8867 38.86 63.34 39.3133 63.86 39.66C64.38 40.0067 65.0067 40.18 65.74 40.18C66.5133 40.18 67.1267 40.0133 67.58 39.68C68.0467 39.3467 68.28 38.8733 68.28 38.26C68.28 37.7933 68.16 37.4133 67.92 37.12C67.68 36.8267 67.36 36.5867 66.96 36.4C66.5733 36.2 66.14 36.0267 65.66 35.88C65.1933 35.72 64.72 35.5467 64.24 35.36C63.7733 35.16 63.34 34.9133 62.94 34.62C62.5533 34.3267 62.24 33.9467 62 33.48C61.76 33.0133 61.64 32.42 61.64 31.7C61.64 30.8733 61.84 30.1733 62.24 29.6C62.6533 29.0133 63.2067 28.5667 63.9 28.26C64.5933 27.9533 65.3667 27.8 66.22 27.8C67.0467 27.8 67.8133 27.98 68.52 28.34C69.2267 28.7 69.8067 29.16 70.26 29.72L68.72 31.26C68.32 30.8067 67.9067 30.4533 67.48 30.2C67.0667 29.9467 66.6267 29.82 66.16 29.82C65.4133 29.82 64.84 29.9667 64.44 30.26C64.04 30.54 63.84 30.9667 63.84 31.54C63.84 31.9667 63.96 32.3133 64.2 32.58C64.4533 32.8333 64.78 33.0533 65.18 33.24C65.58 33.4133 66.0133 33.58 66.48 33.74C66.96 33.9 67.44 34.08 67.92 34.28C68.4 34.48 68.84 34.74 69.24 35.06C69.64 35.3667 69.96 35.7667 70.2 36.26C70.4533 36.7533 70.58 37.3733 70.58 38.12C70.58 39.3733 70.1333 40.3667 69.24 41.1C68.36 41.8333 67.1667 42.2 65.66 42.2ZM65.34 44V26H66.94V44H65.34ZM76.8197 42.2C75.8464 42.2 74.9797 42.0333 74.2197 41.7C73.4597 41.3533 72.8197 40.8533 72.2997 40.2L73.8597 38.64C74.1397 39.0667 74.533 39.4067 75.0397 39.66C75.5597 39.9133 76.1397 40.04 76.7797 40.04C77.3664 40.04 77.8797 39.9333 78.3197 39.72C78.7597 39.5067 79.1064 39.2 79.3597 38.8C79.613 38.4 79.7397 37.9267 79.7397 37.38C79.7397 36.8067 79.613 36.3333 79.3597 35.96C79.1197 35.5733 78.793 35.2867 78.3797 35.1C77.9797 34.9 77.5464 34.8 77.0797 34.8C76.5464 34.8 76.0664 34.86 75.6397 34.98C75.2264 35.1 74.8197 35.3133 74.4197 35.62L74.4797 34.18C74.693 33.9 74.9397 33.6733 75.2197 33.5C75.4997 33.3133 75.8264 33.1733 76.1997 33.08C76.573 32.9867 77.013 32.94 77.5197 32.94C78.5064 32.94 79.333 33.1467 79.9997 33.56C80.6797 33.9733 81.193 34.5267 81.5397 35.22C81.8864 35.9 82.0597 36.66 82.0597 37.5C82.0597 38.4067 81.833 39.2133 81.3797 39.92C80.9397 40.6267 80.3264 41.1867 79.5397 41.6C78.753 42 77.8464 42.2 76.8197 42.2ZM74.4197 35.62L73.1597 34.36L73.7797 28H75.8797L75.1597 34.62L74.4197 35.62ZM74.1797 30.06L73.7797 28H81.2797V30.06H74.1797ZM89.5581 42.2C88.5048 42.2 87.5381 41.9067 86.6581 41.32C85.7915 40.72 85.0981 39.88 84.5781 38.8C84.0581 37.72 83.7981 36.4467 83.7981 34.98C83.7981 33.5133 84.0515 32.2467 84.5581 31.18C85.0781 30.1 85.7715 29.2667 86.6381 28.68C87.5048 28.0933 88.4648 27.8 89.5181 27.8C90.5848 27.8 91.5515 28.0933 92.4181 28.68C93.2848 29.2667 93.9715 30.1 94.4781 31.18C94.9981 32.2467 95.2581 33.52 95.2581 35C95.2581 36.4667 94.9981 37.74 94.4781 38.82C93.9715 39.9 93.2848 40.7333 92.4181 41.32C91.5648 41.9067 90.6115 42.2 89.5581 42.2ZM89.5181 40.04C90.2115 40.04 90.8115 39.8533 91.3181 39.48C91.8248 39.1067 92.2181 38.5467 92.4981 37.8C92.7915 37.0533 92.9381 36.1133 92.9381 34.98C92.9381 33.86 92.7915 32.9267 92.4981 32.18C92.2181 31.4333 91.8181 30.88 91.2981 30.52C90.7915 30.1467 90.1981 29.96 89.5181 29.96C88.8381 29.96 88.2381 30.1467 87.7181 30.52C87.2115 30.88 86.8181 31.4333 86.5381 32.18C86.2581 32.9133 86.1181 33.8467 86.1181 34.98C86.1181 36.1133 86.2581 37.0533 86.5381 37.8C86.8181 38.5467 87.2115 39.1067 87.7181 39.48C88.2381 39.8533 88.8381 40.04 89.5181 40.04ZM97.0153 44.34L98.3753 41.8L99.1153 41.6C99.0353 41.76 98.942 41.8933 98.8353 42C98.7286 42.1067 98.602 42.16 98.4553 42.16C98.1486 42.16 97.862 42.0333 97.5953 41.78C97.342 41.5133 97.2153 41.18 97.2153 40.78C97.2153 40.3533 97.3553 39.9933 97.6353 39.7C97.9286 39.3933 98.2886 39.24 98.7153 39.24C99.1153 39.24 99.462 39.3933 99.7553 39.7C100.062 39.9933 100.215 40.3533 100.215 40.78C100.215 40.9533 100.175 41.16 100.095 41.4C100.029 41.6267 99.902 41.92 99.7153 42.28L98.2353 45L97.0153 44.34ZM107.614 42.2C106.561 42.2 105.594 41.9067 104.714 41.32C103.848 40.72 103.154 39.88 102.634 38.8C102.114 37.72 101.854 36.4467 101.854 34.98C101.854 33.5133 102.108 32.2467 102.614 31.18C103.134 30.1 103.828 29.2667 104.694 28.68C105.561 28.0933 106.521 27.8 107.574 27.8C108.641 27.8 109.608 28.0933 110.474 28.68C111.341 29.2667 112.028 30.1 112.534 31.18C113.054 32.2467 113.314 33.52 113.314 35C113.314 36.4667 113.054 37.74 112.534 38.82C112.028 39.9 111.341 40.7333 110.474 41.32C109.621 41.9067 108.668 42.2 107.614 42.2ZM107.574 40.04C108.268 40.04 108.868 39.8533 109.374 39.48C109.881 39.1067 110.274 38.5467 110.554 37.8C110.848 37.0533 110.994 36.1133 110.994 34.98C110.994 33.86 110.848 32.9267 110.554 32.18C110.274 31.4333 109.874 30.88 109.354 30.52C108.848 30.1467 108.254 29.96 107.574 29.96C106.894 29.96 106.294 30.1467 105.774 30.52C105.268 30.88 104.874 31.4333 104.594 32.18C104.314 32.9133 104.174 33.8467 104.174 34.98C104.174 36.1133 104.314 37.0533 104.594 37.8C104.874 38.5467 105.268 39.1067 105.774 39.48C106.294 39.8533 106.894 40.04 107.574 40.04ZM120.92 42.2C119.867 42.2 118.9 41.9067 118.02 41.32C117.153 40.72 116.46 39.88 115.94 38.8C115.42 37.72 115.16 36.4467 115.16 34.98C115.16 33.5133 115.413 32.2467 115.92 31.18C116.44 30.1 117.133 29.2667 118 28.68C118.867 28.0933 119.827 27.8 120.88 27.8C121.947 27.8 122.913 28.0933 123.78 28.68C124.647 29.2667 125.333 30.1 125.84 31.18C126.36 32.2467 126.62 33.52 126.62 35C126.62 36.4667 126.36 37.74 125.84 38.82C125.333 39.9 124.647 40.7333 123.78 41.32C122.927 41.9067 121.973 42.2 120.92 42.2ZM120.88 40.04C121.573 40.04 122.173 39.8533 122.68 39.48C123.187 39.1067 123.58 38.5467 123.86 37.8C124.153 37.0533 124.3 36.1133 124.3 34.98C124.3 33.86 124.153 32.9267 123.86 32.18C123.58 31.4333 123.18 30.88 122.66 30.52C122.153 30.1467 121.56 29.96 120.88 29.96C120.2 29.96 119.6 30.1467 119.08 30.52C118.573 30.88 118.18 31.4333 117.9 32.18C117.62 32.9133 117.48 33.8467 117.48 34.98C117.48 36.1133 117.62 37.0533 117.9 37.8C118.18 38.5467 118.573 39.1067 119.08 39.48C119.6 39.8533 120.2 40.04 120.88 40.04ZM134.225 42.2C133.172 42.2 132.205 41.9067 131.325 41.32C130.459 40.72 129.765 39.88 129.245 38.8C128.725 37.72 128.465 36.4467 128.465 34.98C128.465 33.5133 128.719 32.2467 129.225 31.18C129.745 30.1 130.439 29.2667 131.305 28.68C132.172 28.0933 133.132 27.8 134.185 27.8C135.252 27.8 136.219 28.0933 137.085 28.68C137.952 29.2667 138.639 30.1 139.145 31.18C139.665 32.2467 139.925 33.52 139.925 35C139.925 36.4667 139.665 37.74 139.145 38.82C138.639 39.9 137.952 40.7333 137.085 41.32C136.232 41.9067 135.279 42.2 134.225 42.2ZM134.185 40.04C134.879 40.04 135.479 39.8533 135.985 39.48C136.492 39.1067 136.885 38.5467 137.165 37.8C137.459 37.0533 137.605 36.1133 137.605 34.98C137.605 33.86 137.459 32.9267 137.165 32.18C136.885 31.4333 136.485 30.88 135.965 30.52C135.459 30.1467 134.865 29.96 134.185 29.96C133.505 29.96 132.905 30.1467 132.385 30.52C131.879 30.88 131.485 31.4333 131.205 32.18C130.925 32.9133 130.785 33.8467 130.785 34.98C130.785 36.1133 130.925 37.0533 131.205 37.8C131.485 38.5467 131.879 39.1067 132.385 39.48C132.905 39.8533 133.505 40.04 134.185 40.04Z" fill="white"/>
<path d="M61.45 15.98V15.19H63.33C63.7367 15.19 64.05 15.0867 64.27 14.88C64.49 14.6733 64.6 14.3933 64.6 14.04C64.6 13.7067 64.49 13.43 64.27 13.21C64.0567 12.99 63.7467 12.88 63.34 12.88H61.45V12.06H63.37C63.81 12.06 64.1933 12.1467 64.52 12.32C64.8467 12.4867 65.0967 12.7167 65.27 13.01C65.45 13.3033 65.54 13.64 65.54 14.02C65.54 14.4133 65.45 14.7567 65.27 15.05C65.0967 15.3433 64.8467 15.5733 64.52 15.74C64.1933 15.9 63.81 15.98 63.37 15.98H61.45ZM60.82 19V12.06H61.76V19H60.82ZM64.82 19L62.3 15.89L63.19 15.58L66.01 19H64.82ZM68.8659 19.1C68.3925 19.1 67.9659 18.9933 67.5859 18.78C67.2059 18.56 66.9059 18.2633 66.6859 17.89C66.4659 17.5167 66.3559 17.0933 66.3559 16.62C66.3559 16.1533 66.4625 15.7333 66.6759 15.36C66.8959 14.9867 67.1892 14.6933 67.5559 14.48C67.9292 14.26 68.3459 14.15 68.8059 14.15C69.2459 14.15 69.6325 14.25 69.9659 14.45C70.3059 14.65 70.5692 14.9267 70.7559 15.28C70.9492 15.6333 71.0459 16.0333 71.0459 16.48C71.0459 16.5467 71.0425 16.62 71.0359 16.7C71.0292 16.7733 71.0159 16.86 70.9959 16.96H66.9859V16.21H70.5159L70.1859 16.5C70.1859 16.18 70.1292 15.91 70.0159 15.69C69.9025 15.4633 69.7425 15.29 69.5359 15.17C69.3292 15.0433 69.0792 14.98 68.7859 14.98C68.4792 14.98 68.2092 15.0467 67.9759 15.18C67.7425 15.3133 67.5625 15.5 67.4359 15.74C67.3092 15.98 67.2459 16.2633 67.2459 16.59C67.2459 16.9233 67.3125 17.2167 67.4459 17.47C67.5792 17.7167 67.7692 17.91 68.0159 18.05C68.2625 18.1833 68.5459 18.25 68.8659 18.25C69.1325 18.25 69.3759 18.2033 69.5959 18.11C69.8225 18.0167 70.0159 17.8767 70.1759 17.69L70.7559 18.28C70.5292 18.5467 70.2492 18.75 69.9159 18.89C69.5892 19.03 69.2392 19.1 68.8659 19.1ZM73.5791 19L71.3991 14.25H72.3991L74.1491 18.26H73.5691L75.3291 14.25H76.2891L74.1091 19H73.5791ZM79.0709 19.1C78.5976 19.1 78.1709 18.9933 77.7909 18.78C77.4109 18.56 77.1109 18.2633 76.8909 17.89C76.6709 17.5167 76.5609 17.0933 76.5609 16.62C76.5609 16.1533 76.6676 15.7333 76.8809 15.36C77.1009 14.9867 77.3943 14.6933 77.7609 14.48C78.1343 14.26 78.5509 14.15 79.0109 14.15C79.4509 14.15 79.8376 14.25 80.1709 14.45C80.5109 14.65 80.7743 14.9267 80.9609 15.28C81.1543 15.6333 81.2509 16.0333 81.2509 16.48C81.2509 16.5467 81.2476 16.62 81.2409 16.7C81.2343 16.7733 81.2209 16.86 81.2009 16.96H77.1909V16.21H80.7209L80.3909 16.5C80.3909 16.18 80.3343 15.91 80.2209 15.69C80.1076 15.4633 79.9476 15.29 79.7409 15.17C79.5343 15.0433 79.2843 14.98 78.9909 14.98C78.6843 14.98 78.4143 15.0467 78.1809 15.18C77.9476 15.3133 77.7676 15.5 77.6409 15.74C77.5143 15.98 77.4509 16.2633 77.4509 16.59C77.4509 16.9233 77.5176 17.2167 77.6509 17.47C77.7843 17.7167 77.9743 17.91 78.2209 18.05C78.4676 18.1833 78.7509 18.25 79.0709 18.25C79.3376 18.25 79.5809 18.2033 79.8009 18.11C80.0276 18.0167 80.2209 17.8767 80.3809 17.69L80.9609 18.28C80.7343 18.5467 80.4543 18.75 80.1209 18.89C79.7943 19.03 79.4443 19.1 79.0709 19.1ZM85.5923 19V16.23C85.5923 15.87 85.4789 15.5733 85.2523 15.34C85.0256 15.1067 84.7323 14.99 84.3723 14.99C84.1323 14.99 83.9189 15.0433 83.7323 15.15C83.5456 15.2567 83.3989 15.4033 83.2923 15.59C83.1856 15.7767 83.1323 15.99 83.1323 16.23L82.7623 16.02C82.7623 15.66 82.8423 15.34 83.0023 15.06C83.1623 14.78 83.3856 14.56 83.6723 14.4C83.9589 14.2333 84.2823 14.15 84.6423 14.15C85.0023 14.15 85.3189 14.24 85.5923 14.42C85.8723 14.6 86.0923 14.8367 86.2523 15.13C86.4123 15.4167 86.4923 15.7233 86.4923 16.05V19H85.5923ZM82.2323 19V14.25H83.1323V19H82.2323ZM89.6208 19.1C89.2341 19.1 88.8841 19.0133 88.5708 18.84C88.2641 18.66 88.0241 18.4133 87.8508 18.1C87.6774 17.7867 87.5908 17.4233 87.5908 17.01V14.25H88.4908V16.97C88.4908 17.23 88.5341 17.4567 88.6208 17.65C88.7141 17.8367 88.8474 17.98 89.0208 18.08C89.1941 18.18 89.3974 18.23 89.6308 18.23C89.9841 18.23 90.2608 18.12 90.4608 17.9C90.6608 17.6733 90.7608 17.3633 90.7608 16.97V14.25H91.6608V17.01C91.6608 17.4233 91.5741 17.7867 91.4008 18.1C91.2274 18.4133 90.9874 18.66 90.6808 18.84C90.3808 19.0133 90.0274 19.1 89.6208 19.1ZM95.067 19.1C94.5937 19.1 94.167 18.9933 93.787 18.78C93.407 18.56 93.107 18.2633 92.887 17.89C92.667 17.5167 92.557 17.0933 92.557 16.62C92.557 16.1533 92.6637 15.7333 92.877 15.36C93.097 14.9867 93.3904 14.6933 93.757 14.48C94.1304 14.26 94.547 14.15 95.007 14.15C95.447 14.15 95.8337 14.25 96.167 14.45C96.507 14.65 96.7704 14.9267 96.957 15.28C97.1504 15.6333 97.247 16.0333 97.247 16.48C97.247 16.5467 97.2437 16.62 97.237 16.7C97.2304 16.7733 97.217 16.86 97.197 16.96H93.187V16.21H96.717L96.387 16.5C96.387 16.18 96.3304 15.91 96.217 15.69C96.1037 15.4633 95.9437 15.29 95.737 15.17C95.5304 15.0433 95.2804 14.98 94.987 14.98C94.6804 14.98 94.4104 15.0467 94.177 15.18C93.9437 15.3133 93.7637 15.5 93.637 15.74C93.5104 15.98 93.447 16.2633 93.447 16.59C93.447 16.9233 93.5137 17.2167 93.647 17.47C93.7804 17.7167 93.9704 17.91 94.217 18.05C94.4637 18.1833 94.747 18.25 95.067 18.25C95.3337 18.25 95.577 18.2033 95.797 18.11C96.0237 18.0167 96.217 17.8767 96.377 17.69L96.957 18.28C96.7304 18.5467 96.4504 18.75 96.117 18.89C95.7904 19.03 95.4404 19.1 95.067 19.1ZM103.608 19.1C103.122 19.1 102.665 19.01 102.238 18.83C101.818 18.6433 101.448 18.3867 101.128 18.06C100.815 17.7333 100.568 17.3533 100.388 16.92C100.208 16.4867 100.118 16.02 100.118 15.52C100.118 15.02 100.208 14.5567 100.388 14.13C100.568 13.6967 100.818 13.3167 101.138 12.99C101.458 12.6633 101.832 12.41 102.258 12.23C102.692 12.05 103.162 11.96 103.668 11.96C104.222 11.96 104.732 12.0667 105.198 12.28C105.665 12.4933 106.055 12.8 106.368 13.2L105.718 13.85C105.498 13.53 105.208 13.2867 104.848 13.12C104.488 12.9467 104.095 12.86 103.668 12.86C103.162 12.86 102.712 12.9733 102.318 13.2C101.932 13.4267 101.628 13.74 101.408 14.14C101.195 14.54 101.088 15 101.088 15.52C101.088 16.0467 101.198 16.51 101.418 16.91C101.638 17.31 101.935 17.6233 102.308 17.85C102.682 18.0767 103.108 18.19 103.588 18.19C104.075 18.19 104.495 18.0967 104.848 17.91C105.208 17.7233 105.485 17.45 105.678 17.09C105.872 16.7233 105.968 16.2767 105.968 15.75L106.538 16.16H103.538V15.3H106.938V15.44C106.938 16.2467 106.795 16.9233 106.508 17.47C106.228 18.01 105.835 18.4167 105.328 18.69C104.828 18.9633 104.255 19.1 103.608 19.1ZM108.043 19V14.25H108.943V19H108.043ZM108.943 16.29L108.603 16.14C108.603 15.5333 108.743 15.05 109.023 14.69C109.303 14.33 109.706 14.15 110.233 14.15C110.473 14.15 110.689 14.1933 110.883 14.28C111.076 14.36 111.256 14.4967 111.423 14.69L110.833 15.3C110.733 15.1933 110.623 15.1167 110.503 15.07C110.383 15.0233 110.243 15 110.083 15C109.749 15 109.476 15.1067 109.263 15.32C109.049 15.5333 108.943 15.8567 108.943 16.29ZM114.07 19.1C113.604 19.1 113.184 18.99 112.81 18.77C112.437 18.55 112.14 18.2533 111.92 17.88C111.7 17.5 111.59 17.0767 111.59 16.61C111.59 16.15 111.7 15.7367 111.92 15.37C112.14 14.9967 112.437 14.7 112.81 14.48C113.184 14.26 113.604 14.15 114.07 14.15C114.53 14.15 114.947 14.26 115.32 14.48C115.7 14.6933 116 14.9867 116.22 15.36C116.44 15.7333 116.55 16.15 116.55 16.61C116.55 17.0767 116.44 17.5 116.22 17.88C116 18.2533 115.7 18.55 115.32 18.77C114.947 18.99 114.53 19.1 114.07 19.1ZM114.07 18.23C114.37 18.23 114.637 18.16 114.87 18.02C115.104 17.88 115.287 17.69 115.42 17.45C115.554 17.2033 115.62 16.9233 115.62 16.61C115.62 16.3033 115.55 16.03 115.41 15.79C115.277 15.55 115.094 15.3633 114.86 15.23C114.634 15.09 114.37 15.02 114.07 15.02C113.77 15.02 113.504 15.09 113.27 15.23C113.037 15.3633 112.854 15.55 112.72 15.79C112.587 16.03 112.52 16.3033 112.52 16.61C112.52 16.9233 112.587 17.2033 112.72 17.45C112.854 17.69 113.037 17.88 113.27 18.02C113.504 18.16 113.77 18.23 114.07 18.23ZM118.788 19L116.908 14.25H117.848L119.208 17.95H118.908L120.258 14.25H120.778L122.128 17.95H121.828L123.188 14.25H124.128L122.258 19H121.728L120.358 15.41H120.688L119.308 19H118.788ZM125.658 19V12.26H126.558V19H125.658ZM124.488 15.07V14.25H127.728V15.07H124.488ZM131.969 19V16.23C131.969 15.87 131.856 15.5733 131.629 15.34C131.403 15.1067 131.109 14.99 130.749 14.99C130.509 14.99 130.296 15.0433 130.109 15.15C129.923 15.2567 129.776 15.4033 129.669 15.59C129.563 15.7767 129.509 15.99 129.509 16.23L129.139 16.02C129.139 15.66 129.219 15.34 129.379 15.06C129.539 14.78 129.763 14.56 130.049 14.4C130.336 14.2333 130.659 14.15 131.019 14.15C131.379 14.15 131.696 14.23 131.969 14.39C132.249 14.55 132.469 14.7733 132.629 15.06C132.789 15.3467 132.869 15.6767 132.869 16.05V19H131.969ZM128.609 19V11.86H129.509V19H128.609Z" fill="white"/>
</svg>
