<svg width="56" height="47" viewBox="0 0 56 47" fill="none" xmlns="http://www.w3.org/2000/svg">
<circle cx="23.5" cy="23.5" r="23.5" fill="#EFEDFB"/>
<path d="M40.7231 6.08491C40.8145 6.12827 41.3137 6.65581 41.827 7.25562C42.6215 8.16616 42.7692 8.37573 42.7692 8.57085C42.7692 9.07671 42.2418 9.27182 41.8622 8.89605C41.7497 8.78765 41.377 8.37573 41.0395 7.97827C40.702 7.58081 40.3926 7.24839 40.3504 7.24116C40.3083 7.23394 38.7614 8.98999 36.9192 11.1435L33.5583 15.0603L34.859 15.082L36.1528 15.0964L36.2934 15.2916C36.4411 15.4722 36.4411 15.5445 36.4411 19.8587V24.238L38.7543 26.9335C40.2872 28.7185 41.0887 29.7013 41.1168 29.8386C41.1801 30.1421 41.0395 30.5251 40.7934 30.7419C40.5825 30.9226 40.5614 30.9226 39.3168 30.9226H38.0583V36.4148V41.907H40.3083H42.5583V31.031V20.155H41.377C40.027 20.155 39.8161 20.09 39.584 19.6275C39.4083 19.2734 39.4645 18.941 39.7668 18.5796C39.8934 18.4351 41.0676 17.0621 42.3754 15.53C43.6903 13.998 44.8012 12.6972 44.8575 12.6322C44.9348 12.531 44.8504 12.4082 44.2036 11.6566C43.7958 11.1869 43.4301 10.7171 43.395 10.616C43.2543 10.2691 43.627 9.84272 43.9926 9.93667C44.1051 9.96558 44.4567 10.3125 44.9137 10.84L45.659 11.7072L45.9895 11.3242C46.1723 11.1146 46.5168 10.7316 46.7559 10.4714C47.1708 10.0234 47.2059 10.0017 47.5294 10.0017C47.7543 10.0017 47.9231 10.0451 48.0426 10.139C48.3661 10.3992 55.4606 18.7097 55.552 18.941C55.7208 19.3601 55.5098 19.8804 55.095 20.0539C54.9333 20.1261 54.5254 20.155 53.7028 20.155H52.5426L52.5286 31.4357L52.5075 42.7164L52.3387 42.8537C52.177 42.991 51.8887 42.991 40.3083 42.991C28.7278 42.991 28.4395 42.991 28.2778 42.8537L28.109 42.7164V40.2087V37.7011L28.2778 37.5638C28.5028 37.3759 28.7911 37.3904 28.9739 37.5927C29.1286 37.7589 29.1286 37.8023 29.1286 39.833V41.907H33.0661H37.0036V36.0607C37.0036 30.4167 37.0106 30.2072 37.1372 30.0482C37.2708 29.882 37.3129 29.8748 38.5434 29.8386L39.8231 29.8025L36.4622 25.9001C34.62 23.7539 33.0872 21.9978 33.0661 21.9978C33.045 21.9978 31.5122 23.7539 29.67 25.9001L26.309 29.8025L27.5887 29.8386C28.8192 29.8748 28.8614 29.882 28.995 30.0482C29.1215 30.2072 29.1286 30.3662 29.1286 32.9533C29.1286 35.5982 29.1215 35.6994 28.9879 35.8367C28.8122 36.0173 28.4887 36.0246 28.2778 35.8439L28.109 35.7066L28.0879 33.3146L28.0668 30.9226H26.8012H25.5286L25.2965 30.6841C25.0083 30.3878 24.9239 30.0121 25.0715 29.7013C25.2051 29.4339 32.5247 20.9138 32.6793 20.8488C32.8551 20.7837 33.3403 20.7982 33.4809 20.8777C33.5864 20.9355 34.0293 21.4269 35.1965 22.7927L35.3793 23.0095L35.3864 19.5914V16.1804H34.2262C33.3684 16.1804 32.9958 16.1515 32.82 16.0792C32.3559 15.8769 32.145 15.2121 32.4192 14.8001C32.7145 14.3449 39.8231 6.15718 39.9848 6.07769C40.2168 5.96929 40.4981 5.97651 40.7231 6.08491ZM44.1684 15.0748C42.3403 17.2066 40.8215 18.9771 40.8145 19.0132C40.8004 19.0421 41.3489 19.071 42.0379 19.071C43.2262 19.071 43.2965 19.0783 43.4512 19.23L43.6129 19.3818V30.648V41.907H47.5504H51.4879V30.6552V19.4035L51.6426 19.2373C51.7903 19.0783 51.8254 19.071 53.0559 19.071C53.745 19.071 54.3004 19.0421 54.2864 19.0132C54.2512 18.9121 47.5926 11.1941 47.5504 11.1941C47.5294 11.1941 46.0036 12.9429 44.1684 15.0748Z" fill="black"/>
</svg>
