<svg width="96" height="93" viewBox="0 0 96 93" fill="none" xmlns="http://www.w3.org/2000/svg">
<path d="M47.8597 8.66557L48.171 10.1967L54.1674 10.9867C63.1497 12.19 70.8879 13.3912 70.7352 13.5817C70.662 13.6922 68.6735 14.7343 66.3238 15.8817C55.2051 21.2673 46.0877 27.7129 38.0664 35.7853C33.1487 40.7713 29.7606 44.9679 26.4067 50.2738C18.8206 62.212 14.5075 74.2501 14.4942 83.5963C14.4665 86.4401 15.6011 92.4916 16.1217 92.3858C16.3667 92.336 16.3221 91.8029 15.9755 90.7254C15.2138 88.2335 15.3982 86.4739 17.2216 79.7573C20.4442 67.8452 24.0671 60.4119 31.2383 50.9816C40.9791 38.1908 53.1517 28.8917 71.7546 20.0074C74.025 18.9399 75.9771 18.0328 76.069 18.0141C76.1915 17.9892 75.6615 18.9899 74.9238 20.2241C74.1924 21.4889 71.8699 25.437 69.7852 28.986L65.9692 35.47L66.5323 37.1413C66.8477 38.0657 67.3241 39.4677 67.6147 40.2696L68.1404 41.7572L72.3783 34.9961C76.5311 28.4436 80.0974 22.4569 82.3944 18.2269L83.5033 16.1519L83.0176 13.7633C82.1211 9.35349 82.6801 9.75008 75.4381 8.47993C64.2962 6.53576 56.2782 5.99738 50.1275 6.80138L47.5484 7.13439L47.8597 8.66557Z" fill="black"/>
</svg>
