<svg width="265" height="184" viewBox="0 0 265 184" fill="none" xmlns="http://www.w3.org/2000/svg">
<ellipse cx="2.43685" cy="2.89732" rx="2.43685" ry="2.89732" fill="#CBC0F7"/>
<ellipse cx="2.43685" cy="37.6649" rx="2.43685" ry="2.89732" fill="#CBC0F7"/>
<ellipse cx="2.43685" cy="75.3309" rx="2.43685" ry="2.89732" fill="#CBC0F7"/>
<ellipse cx="56.0462" cy="2.89732" rx="2.43685" ry="2.89732" fill="#CBC0F7"/>
<ellipse cx="56.0462" cy="37.6649" rx="2.43685" ry="2.89732" fill="#CBC0F7"/>
<ellipse cx="56.0462" cy="75.3309" rx="2.43685" ry="2.89732" fill="#CBC0F7"/>
<ellipse cx="109.659" cy="2.89732" rx="2.43685" ry="2.89732" fill="#CBC0F7"/>
<ellipse cx="109.659" cy="37.6649" rx="2.43685" ry="2.89732" fill="#CBC0F7"/>
<ellipse cx="109.659" cy="75.3309" rx="2.43685" ry="2.89732" fill="#CBC0F7"/>
<ellipse cx="155.341" cy="2.89732" rx="2.43685" ry="2.89732" fill="#CBC0F7"/>
<ellipse cx="155.341" cy="37.6649" rx="2.43685" ry="2.89732" fill="#CBC0F7"/>
<ellipse cx="155.341" cy="75.3309" rx="2.43685" ry="2.89732" fill="#CBC0F7"/>
<ellipse cx="208.951" cy="2.89732" rx="2.43685" ry="2.89732" fill="#CBC0F7"/>
<ellipse cx="208.951" cy="37.6649" rx="2.43685" ry="2.89732" fill="#CBC0F7"/>
<ellipse cx="208.951" cy="75.3309" rx="2.43685" ry="2.89732" fill="#CBC0F7"/>
<ellipse cx="262.563" cy="2.89732" rx="2.43685" ry="2.89732" fill="#CBC0F7"/>
<ellipse cx="262.563" cy="37.6649" rx="2.43685" ry="2.89732" fill="#CBC0F7"/>
<ellipse cx="262.563" cy="75.3309" rx="2.43685" ry="2.89732" fill="#CBC0F7"/>
<ellipse cx="2.43685" cy="108.67" rx="2.43685" ry="2.89732" fill="#CBC0F7"/>
<ellipse cx="2.43685" cy="143.438" rx="2.43685" ry="2.89732" fill="#CBC0F7"/>
<ellipse cx="2.43685" cy="181.101" rx="2.43685" ry="2.89732" fill="#CBC0F7"/>
<ellipse cx="56.0462" cy="108.67" rx="2.43685" ry="2.89732" fill="#CBC0F7"/>
<ellipse cx="56.0462" cy="143.438" rx="2.43685" ry="2.89732" fill="#CBC0F7"/>
<ellipse cx="56.0462" cy="181.101" rx="2.43685" ry="2.89732" fill="#CBC0F7"/>
<ellipse cx="109.659" cy="108.67" rx="2.43685" ry="2.89732" fill="#CBC0F7"/>
<ellipse cx="109.659" cy="143.438" rx="2.43685" ry="2.89732" fill="#CBC0F7"/>
<ellipse cx="109.659" cy="181.101" rx="2.43685" ry="2.89732" fill="#CBC0F7"/>
<ellipse cx="155.341" cy="108.67" rx="2.43685" ry="2.89732" fill="#CBC0F7"/>
<ellipse cx="155.341" cy="143.438" rx="2.43685" ry="2.89732" fill="#CBC0F7"/>
<ellipse cx="155.341" cy="181.101" rx="2.43685" ry="2.89732" fill="#CBC0F7"/>
<ellipse cx="208.951" cy="108.67" rx="2.43685" ry="2.89732" fill="#CBC0F7"/>
<ellipse cx="208.951" cy="143.438" rx="2.43685" ry="2.89732" fill="#CBC0F7"/>
<ellipse cx="208.951" cy="181.101" rx="2.43685" ry="2.89732" fill="#CBC0F7"/>
<ellipse cx="262.563" cy="108.67" rx="2.43685" ry="2.89732" fill="#CBC0F7"/>
<ellipse cx="262.563" cy="143.438" rx="2.43685" ry="2.89732" fill="#CBC0F7"/>
<ellipse cx="262.563" cy="181.101" rx="2.43685" ry="2.89732" fill="#CBC0F7"/>
</svg>
