<svg width="82" height="79" viewBox="0 0 82 79" fill="none" xmlns="http://www.w3.org/2000/svg">
<path d="M33.4997 76.5938V75.0313L27.7809 73.0625C19.2184 70.0938 11.8747 67.375 12.0622 67.2188C12.1559 67.125 14.3122 66.5 16.8434 65.8438C28.8122 62.7813 39.0309 58.2813 48.4997 51.9688C54.3122 48.0625 58.4684 44.625 62.8122 40.0938C72.6247 29.9063 79.2497 18.9688 81.1247 9.8125C81.7184 7.03125 81.8122 0.875 81.2809 0.875C81.0309 0.875 80.9684 1.40625 81.0934 2.53125C81.3434 5.125 80.8122 6.8125 77.6872 13.0313C72.1559 24.0625 67.1247 30.625 58.2184 38.4375C46.1247 49.0313 32.3434 55.7188 12.3434 60.7188C9.90594 61.3125 7.81219 61.8125 7.71844 61.8125C7.59344 61.8125 8.31219 60.9375 9.28094 59.875C10.2497 58.7813 13.3122 55.375 16.0622 52.3125L21.0934 46.7188L20.8747 44.9688C20.7497 44 20.5622 42.5313 20.4372 41.6875L20.2184 40.125L14.7184 45.9063C9.34344 51.5 4.65594 56.6563 1.56219 60.3438L0.0621948 62.1563V64.5938C0.0621948 69.0938 -0.406555 68.5938 6.43719 71.2813C16.9684 75.4063 24.7184 77.5313 30.9059 77.9688L33.4997 78.1563V76.5938Z" fill="black"/>
</svg>
