<svg width="154" height="50" viewBox="0 0 154 50" fill="none" xmlns="http://www.w3.org/2000/svg">
<rect x="1.80176" y="1.78223" width="150.95" height="46.9389" rx="23.4695" fill="white" stroke="#866BF0" stroke-width="2"/>
<path d="M36.7043 31.1451C35.843 31.1451 35.044 30.9921 34.3073 30.6861C33.582 30.3688 32.9473 29.9324 32.4033 29.3771C31.8593 28.8104 31.44 28.1588 31.1453 27.4221C30.8507 26.6741 30.7033 25.8751 30.7033 25.0251C30.7033 24.1751 30.8507 23.3818 31.1453 22.6451C31.44 21.8971 31.8593 21.2454 32.4033 20.6901C32.9473 20.1348 33.582 19.6984 34.3073 19.3811C35.044 19.0638 35.843 18.9051 36.7043 18.9051C37.6677 18.9051 38.5007 19.0638 39.2033 19.3811C39.906 19.6984 40.5293 20.1291 41.0733 20.6731L39.7473 21.9991C39.396 21.6138 38.9653 21.3134 38.4553 21.0981C37.9567 20.8828 37.373 20.7751 36.7043 20.7751C36.115 20.7751 35.5767 20.8771 35.0893 21.0811C34.602 21.2851 34.177 21.5798 33.8143 21.9651C33.463 22.3391 33.191 22.7868 32.9983 23.3081C32.8057 23.8294 32.7093 24.4018 32.7093 25.0251C32.7093 25.6484 32.8057 26.2208 32.9983 26.7421C33.191 27.2634 33.463 27.7168 33.8143 28.1021C34.177 28.4761 34.602 28.7651 35.0893 28.9691C35.5767 29.1731 36.115 29.2751 36.7043 29.2751C37.4297 29.2751 38.0417 29.1674 38.5403 28.9521C39.0503 28.7254 39.481 28.4194 39.8323 28.0341L41.1583 29.3601C40.6143 29.9154 39.974 30.3518 39.2373 30.6691C38.5007 30.9864 37.6563 31.1451 36.7043 31.1451ZM46.1388 31.1451C45.3455 31.1451 44.6258 30.9581 43.9798 30.5841C43.3338 30.1988 42.8181 29.6831 42.4328 29.0371C42.0588 28.3911 41.8718 27.6714 41.8718 26.8781C41.8718 26.0848 42.0588 25.3708 42.4328 24.7361C42.8181 24.1014 43.3338 23.5971 43.9798 23.2231C44.6258 22.8378 45.3455 22.6451 46.1388 22.6451C46.9435 22.6451 47.6688 22.8321 48.3148 23.2061C48.9608 23.5801 49.4708 24.0901 49.8448 24.7361C50.2302 25.3708 50.4228 26.0848 50.4228 26.8781C50.4228 27.6714 50.2302 28.3911 49.8448 29.0371C49.4708 29.6831 48.9608 30.1988 48.3148 30.5841C47.6688 30.9581 46.9435 31.1451 46.1388 31.1451ZM46.1388 29.3431C46.6035 29.3431 47.0115 29.2411 47.3628 29.0371C47.7255 28.8218 48.0032 28.5271 48.1958 28.1531C48.3998 27.7791 48.5018 27.3541 48.5018 26.8781C48.5018 26.4021 48.3998 25.9828 48.1958 25.6201C47.9918 25.2574 47.7141 24.9741 47.3628 24.7701C47.0115 24.5548 46.6035 24.4471 46.1388 24.4471C45.6855 24.4471 45.2775 24.5548 44.9148 24.7701C44.5635 24.9741 44.2858 25.2574 44.0818 25.6201C43.8891 25.9828 43.7928 26.4021 43.7928 26.8781C43.7928 27.3541 43.8891 27.7791 44.0818 28.1531C44.2858 28.5271 44.5635 28.8218 44.9148 29.0371C45.2775 29.2411 45.6855 29.3431 46.1388 29.3431ZM57.5709 30.9751V26.2661C57.5709 25.7221 57.3953 25.2744 57.0439 24.9231C56.7039 24.5718 56.2619 24.3961 55.7179 24.3961C55.3553 24.3961 55.0323 24.4754 54.7489 24.6341C54.4656 24.7928 54.2446 25.0138 54.0859 25.2971C53.9273 25.5804 53.8479 25.9034 53.8479 26.2661L53.1169 25.8581C53.1169 25.2348 53.2529 24.6851 53.5249 24.2091C53.7969 23.7218 54.1709 23.3421 54.6469 23.0701C55.1343 22.7868 55.6783 22.6451 56.2789 22.6451C56.8909 22.6451 57.4349 22.8038 57.9109 23.1211C58.3869 23.4271 58.7609 23.8294 59.0329 24.3281C59.3049 24.8154 59.4409 25.3254 59.4409 25.8581V30.9751H57.5709ZM51.9779 30.9751V22.8151H53.8479V30.9751H51.9779ZM66.9342 30.9751V26.2661C66.9342 25.7221 66.7585 25.2744 66.4072 24.9231C66.0672 24.5718 65.6252 24.3961 65.0812 24.3961C64.7185 24.3961 64.3955 24.4754 64.1122 24.6341C63.8289 24.7928 63.6079 25.0138 63.4492 25.2971C63.2905 25.5804 63.2112 25.9034 63.2112 26.2661L62.4802 25.8581C62.4802 25.2348 62.6162 24.6851 62.8882 24.2091C63.1602 23.7218 63.5342 23.3421 64.0102 23.0701C64.4975 22.7868 65.0415 22.6451 65.6422 22.6451C66.2542 22.6451 66.7982 22.8038 67.2742 23.1211C67.7502 23.4271 68.1242 23.8294 68.3962 24.3281C68.6682 24.8154 68.8042 25.3254 68.8042 25.8581V30.9751H66.9342ZM61.3412 30.9751V22.8151H63.2112V30.9751H61.3412ZM74.4955 31.1451C73.6795 31.1451 72.9428 30.9638 72.2855 30.6011C71.6395 30.2271 71.1238 29.7171 70.7385 29.0711C70.3645 28.4251 70.1775 27.6998 70.1775 26.8951C70.1775 26.0904 70.3645 25.3708 70.7385 24.7361C71.1125 24.0901 71.6168 23.5801 72.2515 23.2061C72.8975 22.8321 73.6115 22.6451 74.3935 22.6451C75.1528 22.6451 75.8215 22.8208 76.3995 23.1721C76.9888 23.5234 77.4478 24.0051 77.7765 24.6171C78.1165 25.2291 78.2865 25.9261 78.2865 26.7081C78.2865 26.8441 78.2751 26.9858 78.2525 27.1331C78.2411 27.2691 78.2185 27.4221 78.1845 27.5921H71.4865V26.0621H77.2155L76.5185 26.6741C76.4958 26.1754 76.3995 25.7561 76.2295 25.4161C76.0595 25.0761 75.8158 24.8154 75.4985 24.6341C75.1925 24.4528 74.8128 24.3621 74.3595 24.3621C73.8835 24.3621 73.4698 24.4641 73.1185 24.6681C72.7671 24.8721 72.4951 25.1611 72.3025 25.5351C72.1098 25.8978 72.0135 26.3341 72.0135 26.8441C72.0135 27.3541 72.1155 27.8018 72.3195 28.1871C72.5235 28.5724 72.8125 28.8728 73.1865 29.0881C73.5605 29.2921 73.9911 29.3941 74.4785 29.3941C74.8978 29.3941 75.2831 29.3204 75.6345 29.1731C75.9971 29.0258 76.3031 28.8104 76.5525 28.5271L77.7425 29.7341C77.3458 30.1988 76.8641 30.5501 76.2975 30.7881C75.7308 31.0261 75.1301 31.1451 74.4955 31.1451ZM83.5425 31.1451C82.7379 31.1451 82.0069 30.9581 81.3495 30.5841C80.7035 30.2101 80.1935 29.7001 79.8195 29.0541C79.4455 28.4081 79.2585 27.6884 79.2585 26.8951C79.2585 26.0904 79.4455 25.3708 79.8195 24.7361C80.1935 24.0901 80.7035 23.5801 81.3495 23.2061C82.0069 22.8321 82.7379 22.6451 83.5425 22.6451C84.1772 22.6451 84.7665 22.7698 85.3105 23.0191C85.8659 23.2571 86.3362 23.6028 86.7215 24.0561L85.4975 25.2971C85.2595 25.0138 84.9705 24.8041 84.6305 24.6681C84.3019 24.5208 83.9392 24.4471 83.5425 24.4471C83.0779 24.4471 82.6642 24.5548 82.3015 24.7701C81.9502 24.9741 81.6725 25.2574 81.4685 25.6201C81.2759 25.9828 81.1795 26.4078 81.1795 26.8951C81.1795 27.3711 81.2759 27.7961 81.4685 28.1701C81.6725 28.5328 81.9502 28.8218 82.3015 29.0371C82.6642 29.2411 83.0779 29.3431 83.5425 29.3431C83.9392 29.3431 84.3019 29.2751 84.6305 29.1391C84.9705 28.9918 85.2595 28.7764 85.4975 28.4931L86.7215 29.7341C86.3362 30.1874 85.8659 30.5388 85.3105 30.7881C84.7665 31.0261 84.1772 31.1451 83.5425 31.1451ZM89.1779 30.9751V19.4151H91.0479V30.9751H89.1779ZM87.2229 24.5151V22.8151H93.0029V24.5151H87.2229ZM94.3787 30.9751V22.8151H96.2487V30.9751H94.3787ZM95.3137 21.3191C94.9964 21.3191 94.73 21.2114 94.5147 20.9961C94.3107 20.7808 94.2087 20.5144 94.2087 20.1971C94.2087 19.8798 94.3107 19.6134 94.5147 19.3981C94.73 19.1828 94.9964 19.0751 95.3137 19.0751C95.6424 19.0751 95.9087 19.1828 96.1127 19.3981C96.3167 19.6134 96.4187 19.8798 96.4187 20.1971C96.4187 20.5144 96.3167 20.7808 96.1127 20.9961C95.9087 21.2114 95.6424 21.3191 95.3137 21.3191ZM101.1 30.9751L97.3771 22.8151H99.4511L102.29 29.4621H101.066L103.922 22.8151H105.911L102.188 30.9751H101.1ZM107.029 30.9751V22.8151H108.899V30.9751H107.029ZM107.964 21.3191C107.647 21.3191 107.38 21.2114 107.165 20.9961C106.961 20.7808 106.859 20.5144 106.859 20.1971C106.859 19.8798 106.961 19.6134 107.165 19.3981C107.38 19.1828 107.647 19.0751 107.964 19.0751C108.293 19.0751 108.559 19.1828 108.763 19.3981C108.967 19.6134 109.069 19.8798 109.069 20.1971C109.069 20.5144 108.967 20.7808 108.763 20.9961C108.559 21.2114 108.293 21.3191 107.964 21.3191ZM112.237 30.9751V19.4151H114.107V30.9751H112.237ZM110.282 24.5151V22.8151H116.062V24.5151H110.282ZM120.056 31.0601L116.571 22.8151H118.628L121.008 28.8671H120.413L122.929 22.8151H125.003L121.212 31.0601H120.056ZM117.625 34.3751L120.158 29.1561L121.212 31.0601L119.699 34.3751H117.625Z" fill="#866BF0"/>
</svg>
