<svg width="233" height="75" viewBox="0 0 233 75" fill="none" xmlns="http://www.w3.org/2000/svg">
<path d="M84.86 29.0444V7.44443H89.69L100.22 26.2244L99.11 26.4944V7.44443H102.89V29.0444H98.06L87.53 10.2644L88.64 9.99443V29.0444H84.86ZM113.618 29.3444C111.998 29.3444 110.578 29.0044 109.358 28.3244C108.158 27.6444 107.218 26.7044 106.538 25.5044C105.878 24.3044 105.548 22.9244 105.548 21.3644C105.548 19.8044 105.878 18.4344 106.538 17.2544C107.218 16.0544 108.158 15.1244 109.358 14.4644C110.558 13.7844 111.958 13.4444 113.558 13.4444C115.078 13.4444 116.398 13.7644 117.518 14.4044C118.638 15.0244 119.508 15.9044 120.128 17.0444C120.748 18.1844 121.058 19.5144 121.058 21.0344C121.058 21.3144 121.048 21.5744 121.028 21.8144C121.008 22.0544 120.978 22.2944 120.938 22.5344H107.888V19.8944H118.028L117.248 20.6144C117.248 19.1744 116.918 18.0944 116.258 17.3744C115.598 16.6544 114.678 16.2944 113.498 16.2944C112.218 16.2944 111.198 16.7344 110.438 17.6144C109.698 18.4944 109.328 19.7644 109.328 21.4244C109.328 23.0644 109.698 24.3244 110.438 25.2044C111.198 26.0644 112.268 26.4944 113.648 26.4944C114.448 26.4944 115.148 26.3444 115.748 26.0444C116.348 25.7444 116.788 25.2844 117.068 24.6644H120.638C120.138 26.1044 119.288 27.2444 118.088 28.0844C116.908 28.9244 115.418 29.3444 113.618 29.3444ZM128.837 29.3444C127.777 29.3444 126.857 29.1244 126.077 28.6844C125.317 28.2244 124.727 27.6044 124.307 26.8244C123.907 26.0444 123.707 25.1644 123.707 24.1844V13.7444H127.487V23.4044C127.487 24.3444 127.717 25.0544 128.177 25.5344C128.657 26.0144 129.327 26.2544 130.187 26.2544C130.967 26.2544 131.647 26.0744 132.227 25.7144C132.827 25.3544 133.297 24.8544 133.637 24.2144C133.997 23.5544 134.177 22.8144 134.177 21.9944L134.567 25.6544C134.067 26.7744 133.317 27.6744 132.317 28.3544C131.337 29.0144 130.177 29.3444 128.837 29.3444ZM134.297 29.0444V25.4444H134.177V13.7444H137.987V29.0444H134.297ZM141.992 29.0444V13.7444H145.682V17.4344H145.772V29.0444H141.992ZM145.772 21.0644L145.382 17.4344C145.742 16.1344 146.352 15.1444 147.212 14.4644C148.072 13.7844 149.102 13.4444 150.302 13.4444C150.722 13.4444 151.022 13.4844 151.202 13.5644V17.1344C151.102 17.0944 150.962 17.0744 150.782 17.0744C150.602 17.0544 150.382 17.0444 150.122 17.0444C148.662 17.0444 147.572 17.3644 146.852 18.0044C146.132 18.6444 145.772 19.6644 145.772 21.0644ZM162.695 29.0444C162.595 28.6444 162.515 28.2044 162.455 27.7244C162.415 27.2444 162.395 26.6644 162.395 25.9844H162.275V18.7244C162.275 17.9244 162.045 17.3244 161.585 16.9244C161.145 16.5044 160.465 16.2944 159.545 16.2944C158.645 16.2944 157.925 16.4644 157.385 16.8044C156.865 17.1244 156.545 17.5944 156.425 18.2144H152.795C152.955 16.7944 153.635 15.6444 154.835 14.7644C156.035 13.8844 157.645 13.4444 159.665 13.4444C161.765 13.4444 163.355 13.9244 164.435 14.8844C165.515 15.8244 166.055 17.2144 166.055 19.0544V25.9844C166.055 26.4644 166.085 26.9544 166.145 27.4544C166.225 27.9544 166.335 28.4844 166.475 29.0444H162.695ZM157.385 29.3444C155.845 29.3444 154.615 28.9644 153.695 28.2044C152.795 27.4244 152.345 26.3844 152.345 25.0844C152.345 23.6844 152.855 22.5744 153.875 21.7544C154.895 20.9344 156.335 20.3844 158.195 20.1044L162.965 19.3844V21.7844L158.825 22.4144C157.925 22.5544 157.245 22.8044 156.785 23.1644C156.345 23.5244 156.125 24.0244 156.125 24.6644C156.125 25.2444 156.335 25.6944 156.755 26.0144C157.175 26.3144 157.755 26.4644 158.495 26.4644C159.575 26.4644 160.475 26.1944 161.195 25.6544C161.915 25.1144 162.275 24.4544 162.275 23.6744L162.695 25.9844C162.295 27.0844 161.635 27.9244 160.715 28.5044C159.815 29.0644 158.705 29.3444 157.385 29.3444ZM172.162 29.0444V10.5344H164.992V7.44443H183.232V10.5344H176.062V29.0444H172.162ZM189.526 29.3444C187.906 29.3444 186.486 29.0044 185.266 28.3244C184.066 27.6444 183.126 26.7044 182.446 25.5044C181.786 24.3044 181.456 22.9244 181.456 21.3644C181.456 19.8044 181.786 18.4344 182.446 17.2544C183.126 16.0544 184.066 15.1244 185.266 14.4644C186.466 13.7844 187.866 13.4444 189.466 13.4444C190.986 13.4444 192.306 13.7644 193.426 14.4044C194.546 15.0244 195.416 15.9044 196.036 17.0444C196.656 18.1844 196.966 19.5144 196.966 21.0344C196.966 21.3144 196.956 21.5744 196.936 21.8144C196.916 22.0544 196.886 22.2944 196.846 22.5344H183.796V19.8944H193.936L193.156 20.6144C193.156 19.1744 192.826 18.0944 192.166 17.3744C191.506 16.6544 190.586 16.2944 189.406 16.2944C188.126 16.2944 187.106 16.7344 186.346 17.6144C185.606 18.4944 185.236 19.7644 185.236 21.4244C185.236 23.0644 185.606 24.3244 186.346 25.2044C187.106 26.0644 188.176 26.4944 189.556 26.4944C190.356 26.4944 191.056 26.3444 191.656 26.0444C192.256 25.7444 192.696 25.2844 192.976 24.6644H196.546C196.046 26.1044 195.196 27.2444 193.996 28.0844C192.816 28.9244 191.326 29.3444 189.526 29.3444ZM206.63 29.3444C205.09 29.3444 203.73 29.0044 202.55 28.3244C201.39 27.6444 200.47 26.7044 199.79 25.5044C199.13 24.2844 198.8 22.9044 198.8 21.3644C198.8 19.8244 199.13 18.4644 199.79 17.2844C200.47 16.0844 201.39 15.1444 202.55 14.4644C203.73 13.7844 205.09 13.4444 206.63 13.4444C207.89 13.4444 209.03 13.6844 210.05 14.1644C211.07 14.6244 211.91 15.2844 212.57 16.1444C213.23 16.9844 213.65 17.9644 213.83 19.0844H210.2C209.98 18.2644 209.56 17.6244 208.94 17.1644C208.32 16.7044 207.57 16.4744 206.69 16.4744C205.87 16.4744 205.16 16.6744 204.56 17.0744C203.98 17.4744 203.53 18.0444 203.21 18.7844C202.89 19.5244 202.73 20.3844 202.73 21.3644C202.73 22.3644 202.89 23.2344 203.21 23.9744C203.53 24.7144 203.99 25.2944 204.59 25.7144C205.19 26.1144 205.89 26.3144 206.69 26.3144C207.57 26.3144 208.32 26.0844 208.94 25.6244C209.56 25.1644 209.98 24.5244 210.2 23.7044H213.83C213.65 24.8244 213.22 25.8144 212.54 26.6744C211.88 27.5144 211.04 28.1744 210.02 28.6544C209.02 29.1144 207.89 29.3444 206.63 29.3444ZM216.553 29.0444V7.44443H220.333V29.0444H216.553ZM227.293 29.0444V19.3844C227.293 18.4444 227.053 17.7344 226.573 17.2544C226.093 16.7744 225.393 16.5344 224.473 16.5344C223.673 16.5344 222.953 16.7144 222.313 17.0744C221.693 17.4344 221.203 17.9344 220.843 18.5744C220.503 19.2144 220.333 19.9544 220.333 20.7944L219.943 17.1344C220.463 16.0144 221.223 15.1244 222.223 14.4644C223.223 13.7844 224.423 13.4444 225.823 13.4444C227.483 13.4444 228.773 13.9144 229.693 14.8544C230.633 15.7944 231.103 17.0444 231.103 18.6044V29.0444H227.293Z" fill="#4E4E4E"/>
<path d="M86.538 58.8818V57.0098H89.886C90.87 57.0098 91.71 56.8118 92.406 56.4158C93.102 56.0198 93.63 55.4678 93.99 54.7598C94.362 54.0518 94.548 53.2418 94.548 52.3298C94.548 51.4298 94.362 50.6378 93.99 49.9538C93.63 49.2698 93.102 48.7418 92.406 48.3698C91.722 47.9858 90.882 47.7938 89.886 47.7938H86.574V45.9218H89.886C91.302 45.9218 92.538 46.1858 93.594 46.7138C94.65 47.2418 95.466 47.9918 96.042 48.9638C96.63 49.9238 96.924 51.0578 96.924 52.3658C96.924 53.6738 96.63 54.8198 96.042 55.8038C95.454 56.7758 94.632 57.5318 93.576 58.0718C92.532 58.6118 91.308 58.8818 89.904 58.8818H86.538ZM85.116 58.8818V45.9218H87.456V58.8818H85.116ZM101.676 59.0618C101.04 59.0618 100.488 58.9298 100.02 58.6658C99.564 58.3898 99.21 58.0178 98.958 57.5498C98.718 57.0818 98.598 56.5538 98.598 55.9658V49.7018H100.866V55.4978C100.866 56.0618 101.004 56.4878 101.28 56.7758C101.568 57.0638 101.97 57.2078 102.486 57.2078C102.954 57.2078 103.362 57.0998 103.71 56.8838C104.07 56.6678 104.352 56.3678 104.556 55.9838C104.772 55.5878 104.88 55.1438 104.88 54.6518L105.114 56.8478C104.814 57.5198 104.364 58.0598 103.764 58.4678C103.176 58.8638 102.48 59.0618 101.676 59.0618ZM104.952 58.8818V56.7218H104.88V49.7018H107.166V58.8818H104.952ZM109.569 58.8818V49.7018H111.783V51.8618H111.837V58.8818H109.569ZM115.743 58.8818V52.9598C115.743 52.4198 115.605 52.0238 115.329 51.7718C115.065 51.5078 114.687 51.3758 114.195 51.3758C113.763 51.3758 113.367 51.4778 113.007 51.6818C112.647 51.8858 112.359 52.1738 112.143 52.5458C111.939 52.9178 111.837 53.3498 111.837 53.8418L111.603 51.7358C111.915 51.0638 112.365 50.5298 112.953 50.1338C113.541 49.7258 114.225 49.5218 115.005 49.5218C115.941 49.5218 116.679 49.7918 117.219 50.3318C117.759 50.8598 118.029 51.5438 118.029 52.3838V58.8818H115.743ZM121.917 58.8818V52.9598C121.917 52.4198 121.785 52.0238 121.521 51.7718C121.257 51.5078 120.879 51.3758 120.387 51.3758C119.943 51.3758 119.541 51.4778 119.181 51.6818C118.821 51.8858 118.539 52.1738 118.335 52.5458C118.131 52.9178 118.029 53.3498 118.029 53.8418L117.633 51.7358C117.933 51.0638 118.389 50.5298 119.001 50.1338C119.613 49.7258 120.321 49.5218 121.125 49.5218C122.085 49.5218 122.835 49.7978 123.375 50.3498C123.927 50.8898 124.203 51.6098 124.203 52.5098V58.8818H121.917ZM126.515 58.8818V49.7018H128.729V51.8618H128.783V58.8818H126.515ZM132.689 58.8818V52.9598C132.689 52.4198 132.551 52.0238 132.275 51.7718C132.011 51.5078 131.633 51.3758 131.141 51.3758C130.709 51.3758 130.313 51.4778 129.953 51.6818C129.593 51.8858 129.305 52.1738 129.089 52.5458C128.885 52.9178 128.783 53.3498 128.783 53.8418L128.549 51.7358C128.861 51.0638 129.311 50.5298 129.899 50.1338C130.487 49.7258 131.171 49.5218 131.951 49.5218C132.887 49.5218 133.625 49.7918 134.165 50.3318C134.705 50.8598 134.975 51.5438 134.975 52.3838V58.8818H132.689ZM138.863 58.8818V52.9598C138.863 52.4198 138.731 52.0238 138.467 51.7718C138.203 51.5078 137.825 51.3758 137.333 51.3758C136.889 51.3758 136.487 51.4778 136.127 51.6818C135.767 51.8858 135.485 52.1738 135.281 52.5458C135.077 52.9178 134.975 53.3498 134.975 53.8418L134.579 51.7358C134.879 51.0638 135.335 50.5298 135.947 50.1338C136.559 49.7258 137.267 49.5218 138.071 49.5218C139.031 49.5218 139.781 49.7978 140.321 50.3498C140.873 50.8898 141.149 51.6098 141.149 52.5098V58.8818H138.863ZM143.649 62.5718L146.025 57.2438L146.439 56.5598L149.031 49.7018H151.443L145.953 62.5718H143.649ZM145.683 58.7918L141.957 49.7018H144.423L147.537 57.9458L145.683 58.7918ZM156.114 58.8818V45.9218H158.454V58.8818H156.114ZM157.23 58.8818V57.0278H164.826V58.8818H157.23ZM170.259 59.0618C169.287 59.0618 168.429 58.8578 167.685 58.4498C166.953 58.0418 166.383 57.4778 165.975 56.7578C165.567 56.0258 165.363 55.1918 165.363 54.2558C165.363 53.3198 165.567 52.4978 165.975 51.7898C166.383 51.0818 166.953 50.5298 167.685 50.1338C168.429 49.7258 169.287 49.5218 170.259 49.5218C171.243 49.5218 172.101 49.7258 172.833 50.1338C173.565 50.5298 174.135 51.0818 174.543 51.7898C174.951 52.4978 175.155 53.3198 175.155 54.2558C175.155 55.1918 174.945 56.0258 174.525 56.7578C174.117 57.4778 173.547 58.0418 172.815 58.4498C172.083 58.8578 171.231 59.0618 170.259 59.0618ZM170.259 57.2438C170.739 57.2438 171.171 57.1238 171.555 56.8838C171.939 56.6318 172.239 56.2838 172.455 55.8398C172.671 55.3838 172.779 54.8498 172.779 54.2378C172.779 53.3378 172.539 52.6298 172.059 52.1138C171.591 51.5978 170.991 51.3398 170.259 51.3398C169.527 51.3398 168.921 51.5978 168.441 52.1138C167.961 52.6298 167.721 53.3378 167.721 54.2378C167.721 54.8498 167.829 55.3838 168.045 55.8398C168.273 56.2838 168.573 56.6318 168.945 56.8838C169.329 57.1238 169.767 57.2438 170.259 57.2438ZM180.908 62.7518C179.696 62.7518 178.7 62.4878 177.92 61.9598C177.152 61.4318 176.696 60.7178 176.552 59.8178H178.712C178.82 60.1298 179.054 60.3698 179.414 60.5378C179.786 60.7178 180.266 60.8078 180.854 60.8078C181.706 60.8078 182.336 60.6158 182.744 60.2318C183.152 59.8598 183.356 59.2898 183.356 58.5218V56.5418L183.518 56.5778C183.374 57.2498 183.008 57.7898 182.42 58.1978C181.832 58.5938 181.112 58.7918 180.26 58.7918C179.444 58.7918 178.73 58.5998 178.118 58.2158C177.518 57.8318 177.05 57.2978 176.714 56.6138C176.378 55.9178 176.21 55.1078 176.21 54.1838C176.21 53.2478 176.384 52.4318 176.732 51.7358C177.08 51.0398 177.566 50.4998 178.19 50.1158C178.826 49.7198 179.564 49.5218 180.404 49.5218C181.268 49.5218 181.976 49.7318 182.528 50.1518C183.092 50.5598 183.44 51.1298 183.572 51.8618L183.428 51.8798V49.7018H185.642V58.5038C185.642 59.8118 185.216 60.8438 184.364 61.5998C183.524 62.3678 182.372 62.7518 180.908 62.7518ZM180.998 56.9918C181.73 56.9918 182.312 56.7458 182.744 56.2538C183.188 55.7498 183.41 55.0478 183.41 54.1478C183.41 53.2478 183.188 52.5518 182.744 52.0598C182.3 51.5678 181.712 51.3218 180.98 51.3218C180.26 51.3218 179.678 51.5738 179.234 52.0778C178.79 52.5698 178.568 53.2658 178.568 54.1658C178.568 55.0658 178.79 55.7618 179.234 56.2538C179.678 56.7458 180.266 56.9918 180.998 56.9918ZM192.232 59.0618C191.26 59.0618 190.402 58.8578 189.658 58.4498C188.926 58.0418 188.356 57.4778 187.948 56.7578C187.54 56.0258 187.336 55.1918 187.336 54.2558C187.336 53.3198 187.54 52.4978 187.948 51.7898C188.356 51.0818 188.926 50.5298 189.658 50.1338C190.402 49.7258 191.26 49.5218 192.232 49.5218C193.216 49.5218 194.074 49.7258 194.806 50.1338C195.538 50.5298 196.108 51.0818 196.516 51.7898C196.924 52.4978 197.128 53.3198 197.128 54.2558C197.128 55.1918 196.918 56.0258 196.498 56.7578C196.09 57.4778 195.52 58.0418 194.788 58.4498C194.056 58.8578 193.204 59.0618 192.232 59.0618ZM192.232 57.2438C192.712 57.2438 193.144 57.1238 193.528 56.8838C193.912 56.6318 194.212 56.2838 194.428 55.8398C194.644 55.3838 194.752 54.8498 194.752 54.2378C194.752 53.3378 194.512 52.6298 194.032 52.1138C193.564 51.5978 192.964 51.3398 192.232 51.3398C191.5 51.3398 190.894 51.5978 190.414 52.1138C189.934 52.6298 189.694 53.3378 189.694 54.2378C189.694 54.8498 189.802 55.3838 190.018 55.8398C190.246 56.2838 190.546 56.6318 190.918 56.8838C191.302 57.1238 191.74 57.2438 192.232 57.2438Z" fill="#6F6F6F"/>
<path d="M60.2084 22.2413C60.2084 16.568 58.0906 11.1273 54.3222 7.11607C50.5457 3.10151 45.4374 0.849275 40.1132 0.851565C34.7891 0.848685 29.6802 3.10053 25.9033 7.11496C24.0391 9.0969 22.5595 11.4535 21.5495 14.0492C20.5395 16.645 20.019 19.4286 20.0181 22.2402H26.2978C28.3792 22.2402 30.0017 20.3833 30.7634 18.3225C31.2695 16.9553 32.0336 15.7144 33.0083 14.6776C34.8967 12.67 37.451 11.5437 40.1132 11.5448C42.7752 11.544 45.3291 12.6703 47.2172 14.6776C48.1495 15.6685 48.8895 16.8467 49.3945 18.1446C49.8995 19.4425 50.1598 20.8343 50.1603 22.2402L60.2084 22.2413Z" fill="#EA7343"/>
<path d="M43.8506 34.4635C44.8602 31.8698 45.3802 29.0881 45.3804 26.2786H55.4265C55.4265 38.0906 46.4295 47.6672 35.3313 47.6672C33.5933 47.6672 31.9073 47.4334 30.2983 46.9914C33.775 46.0398 36.9501 44.1102 39.4941 41.4027C41.359 39.4188 42.8393 37.0607 43.8506 34.4635Z" fill="#80838B"/>
<path d="M0 22.6443C0 25.4531 0.520359 28.2352 1.52985 30.8303C2.54117 33.4274 4.02158 35.7855 5.88629 37.7695C7.75433 39.757 9.9693 41.3326 12.4053 42.4064C17.3314 44.578 22.8602 44.578 27.7861 42.4064C30.2221 41.3326 32.4371 39.757 34.3052 37.7695C36.1694 35.7853 37.6495 33.4272 38.6605 30.8303C39.6703 28.2362 40.1902 25.4541 40.1903 22.6443H33.9117C31.8303 22.6443 30.2078 24.5013 29.4459 26.562C28.94 27.9291 28.1759 29.17 27.2012 30.2069C26.2673 31.2008 25.1598 31.9889 23.9417 32.5259C22.1057 33.3343 20.0877 33.5455 18.14 33.133C16.1923 32.7206 14.4018 31.7027 12.9923 30.2069C12.06 29.2151 11.3198 28.0361 10.814 26.7379C10.3092 25.4406 10.0492 24.0494 10.0491 22.6443H0Z" fill="#866BF0"/>
<path d="M5.19238 21.4342C5.19238 9.62099 14.1894 0.0444336 25.2886 0.0444336C27.0256 0.0444336 28.7116 0.278232 30.3195 0.720209C26.8427 1.67231 23.6674 3.60191 21.1227 6.30894C19.2583 8.29091 17.7789 10.6475 16.7688 13.2433C15.7588 15.8389 15.2384 18.6226 15.2374 21.4342H5.19238Z" fill="#80838B"/>
</svg>
