<svg width="196" height="153" viewBox="0 0 196 153" fill="none" xmlns="http://www.w3.org/2000/svg">
<path d="M155.641 151.28V150.001L160.323 148.389C167.334 145.958 173.346 143.732 173.193 143.604C173.116 143.527 171.351 143.016 169.278 142.478C159.479 139.971 151.112 136.287 143.36 131.118C138.601 127.92 135.198 125.105 131.641 121.396C123.607 113.054 118.183 104.099 116.648 96.6027C116.162 94.3256 116.085 89.2852 116.52 89.2852C116.725 89.2852 116.776 89.7201 116.674 90.6412C116.469 92.7648 116.904 94.1465 119.462 99.2381C123.991 108.27 128.11 113.643 135.402 120.039C145.304 128.713 156.588 134.188 172.963 138.282C174.958 138.768 176.673 139.178 176.749 139.178C176.852 139.178 176.263 138.461 175.47 137.591C174.677 136.696 172.169 133.907 169.918 131.4L165.799 126.82L165.978 125.387C166.08 124.594 166.234 123.391 166.336 122.7L166.515 121.421L171.018 126.154C175.419 130.734 179.257 134.956 181.79 137.975L183.018 139.459V141.455C183.018 145.139 183.402 144.73 177.798 146.93C169.176 150.308 162.831 152.047 157.765 152.406L155.641 152.559V151.28Z" fill="black"/>
<path d="M31.3153 86.5444C30.9757 86.6996 30.6164 86.6703 30.2372 86.4566C29.8633 86.2287 29.5345 85.8043 29.2508 85.1834C29.0513 84.7468 28.8856 84.2303 28.7538 83.6338C28.6272 83.0231 28.5348 82.3206 28.4767 81.5262C28.2817 81.0994 28.0752 80.7246 27.8574 80.4019C27.6396 80.0793 27.4002 79.7606 27.1391 79.446C26.8781 79.1314 26.575 78.789 26.23 78.419C25.9495 78.1132 25.8161 77.8341 25.8297 77.5816C25.8433 77.3291 26.0345 77.1186 26.4031 76.9501C26.83 76.755 27.2542 76.7723 27.6758 77.0018C28.0973 77.2314 28.5733 77.7469 29.1037 78.5482L28.7029 78.749C28.7656 77.9111 28.9208 77.16 29.1684 76.4956C29.4213 75.8172 29.7662 75.2374 30.2031 74.7562C30.64 74.2751 31.1495 73.9016 31.7316 73.6356C32.1681 73.4361 32.5775 73.3311 32.9598 73.3206C33.3376 73.3004 33.6815 73.3602 33.9917 73.4999C34.2974 73.63 34.5648 73.8303 34.794 74.1008C35.0284 74.3572 35.2255 74.6601 35.3851 75.0093C35.5801 75.4362 35.6808 75.9003 35.6871 76.4017C35.6987 76.889 35.604 77.4131 35.403 77.9741C35.1975 78.5254 34.8813 79.1038 34.4544 79.7094C34.023 80.3052 33.4597 80.9203 32.7645 81.5547C33.4577 81.6601 34.2148 81.7129 35.0357 81.713C35.862 81.699 36.6974 81.628 37.542 81.5001C38.022 81.4214 38.3659 81.4167 38.5735 81.4861C38.7766 81.5457 38.9203 81.6677 39.0046 81.852C39.142 82.1527 39.1439 82.4392 39.0103 82.7114C38.8819 82.9694 38.614 83.1915 38.2065 83.3777C37.9543 83.493 37.5881 83.5899 37.108 83.6686C36.6332 83.7331 36.0997 83.7717 35.5073 83.7844C34.915 83.797 34.3094 83.7806 33.6905 83.7351C33.0768 83.6754 32.4975 83.5883 31.9526 83.4737C31.4077 83.3592 30.9501 83.2047 30.5799 83.0104C30.4022 82.9039 30.2668 82.7488 30.1737 82.5451C30.0806 82.3413 30.0427 82.13 30.0599 81.911C30.0868 81.6876 30.1862 81.5073 30.3581 81.3702C31.1204 80.7286 31.7309 80.1271 32.1897 79.5656C32.6485 79.0041 32.9887 78.491 33.2102 78.0262C33.4318 77.5614 33.5581 77.1577 33.5892 76.8151C33.6255 76.4584 33.5971 76.1782 33.504 75.9745C33.4065 75.761 33.2685 75.613 33.09 75.5304C32.9071 75.438 32.6798 75.454 32.4082 75.5781C32.1656 75.6889 31.925 75.881 31.6863 76.1542C31.4529 76.4134 31.2382 76.7519 31.0422 77.1698C30.8461 77.5878 30.6909 78.0692 30.5763 78.6141C30.4715 79.1546 30.4263 79.7616 30.4409 80.4351C30.4608 81.0945 30.5598 81.8116 30.7379 82.5863C30.9213 83.3469 31.2103 84.1589 31.6048 85.0224C31.7334 85.3037 31.8085 85.545 31.8301 85.7462C31.8472 85.9378 31.8131 86.0941 31.7277 86.2152C31.6468 86.346 31.5093 86.4558 31.3153 86.5444ZM43.5216 80.9137C42.9104 81.193 42.3462 81.357 41.829 81.4057C41.3215 81.45 40.8605 81.3909 40.4462 81.2284C40.0318 81.0659 39.6681 80.8217 39.3549 80.4957C39.0417 80.1697 38.7788 79.7738 38.566 79.3082C38.331 78.794 38.1882 78.2377 38.1375 77.6392C38.0922 77.0267 38.1514 76.4249 38.3153 75.834C38.4748 75.2334 38.7469 74.6869 39.1317 74.1944C39.5165 73.7019 40.0242 73.3116 40.6548 73.0234C41.169 72.7884 41.6622 72.6744 42.1345 72.6814C42.6121 72.6743 43.0444 72.7992 43.4316 73.0562C43.8144 73.3035 44.1254 73.6891 44.3648 74.213C44.551 74.6205 44.6159 75.0189 44.5593 75.4083C44.5027 75.7977 44.3511 76.1719 44.1047 76.5308C43.8635 76.8756 43.5441 77.2033 43.1466 77.514C42.7447 77.8149 42.2915 78.0807 41.787 78.3112C41.2437 78.5595 40.7963 78.6584 40.4449 78.6079C40.0987 78.5432 39.8724 78.3945 39.766 78.1617C39.7039 78.0258 39.6887 77.9155 39.7203 77.8307C39.7572 77.7318 39.8484 77.649 39.9939 77.5825C40.1006 77.5338 40.2334 77.4907 40.3922 77.4533C40.5608 77.4115 40.7808 77.3285 41.0525 77.2043C41.4212 77.0359 41.7385 76.8322 42.0047 76.5933C42.2805 76.35 42.4755 76.0967 42.5897 75.8334C42.704 75.5701 42.7101 75.3269 42.6081 75.1037C42.4929 74.8515 42.3434 74.6911 42.1596 74.6226C41.9758 74.5541 41.7336 74.5886 41.4328 74.726C41.1127 74.8724 40.8496 75.0923 40.6436 75.3857C40.4474 75.6748 40.3116 76.0066 40.2365 76.381C40.1666 76.7413 40.1554 77.1276 40.203 77.5397C40.2559 77.9378 40.3688 78.326 40.5417 78.7043C40.6659 78.976 40.8181 79.1937 40.9986 79.3576C41.1842 79.5073 41.4153 79.5893 41.6916 79.6038C41.9635 79.6085 42.2838 79.5267 42.6524 79.3582C43.1957 79.1099 43.6273 78.8482 43.9472 78.573C44.2724 78.2837 44.523 78.0108 44.699 77.7545C44.8848 77.4937 45.0406 77.27 45.1664 77.0835C45.2976 76.8829 45.4456 76.7448 45.6105 76.6695C45.7852 76.5897 45.9357 76.5854 46.0621 76.6566C46.1884 76.7279 46.3004 76.8702 46.3979 77.0837C46.5043 77.3165 46.5181 77.6034 46.4394 77.9443C46.3562 78.2755 46.1865 78.6228 45.9304 78.9861C45.6839 79.345 45.3566 79.694 44.9486 80.0329C44.5406 80.3718 44.0649 80.6654 43.5216 80.9137ZM50.7103 77.6286C50.2252 77.8503 49.7589 77.9461 49.3112 77.9161C48.8636 77.8861 48.4581 77.743 48.0948 77.4869C47.727 77.221 47.4367 76.8553 47.2239 76.3896C47.0022 75.9045 46.856 75.3791 46.7851 74.8134C46.7195 74.2335 46.7232 73.6513 46.7961 73.0668C46.8691 72.4822 47.015 71.9289 47.2337 71.4067C47.4481 70.8748 47.727 70.4073 48.0705 70.004C48.4139 69.6008 48.8137 69.295 49.2696 69.0866C49.5898 68.9403 49.9009 68.9154 50.203 69.0119C50.5051 69.1084 50.7382 69.3361 50.9022 69.6951C50.9687 69.8406 50.9783 69.977 50.9309 70.1042C50.8887 70.2173 50.8064 70.3194 50.6839 70.4106C50.0879 70.8002 49.636 71.2999 49.3283 71.9096C49.0161 72.5097 48.8435 73.1456 48.8104 73.8175C48.7826 74.4752 48.9017 75.0951 49.1677 75.6772C49.2608 75.881 49.3618 76.0635 49.4707 76.2248C49.5849 76.372 49.7552 76.5522 49.9816 76.7654L48.4596 75.8601C48.7767 75.938 49.0332 75.9732 49.2292 75.9658C49.4348 75.9539 49.6589 75.8925 49.9015 75.7817C50.4448 75.5334 50.7888 74.9775 50.9336 74.1138C51.0784 73.2502 50.9597 72.1434 50.5774 70.7935C50.5186 70.5623 50.5354 70.3553 50.6278 70.1724C50.7157 69.9797 50.8615 69.8369 51.0652 69.7438C51.3951 69.593 51.7207 69.5615 52.0423 69.6491C52.3638 69.7367 52.632 69.9132 52.8471 70.1785C53.2143 70.5971 53.554 70.9813 53.8664 71.3311C54.1743 71.6713 54.5095 71.9813 54.872 72.2613C55.2397 72.5272 55.6794 72.7836 56.1911 73.0306C56.3696 73.1133 56.5009 73.2467 56.5852 73.4311C56.6791 73.611 56.7316 73.8157 56.7426 74.0452C56.759 74.2605 56.7232 74.4645 56.6353 74.6572C56.5527 74.8357 56.4095 74.9714 56.2058 75.0645C56.0408 75.1399 55.8895 75.168 55.7517 75.1489C55.6281 75.135 55.5075 75.1021 55.39 75.0503C55.0666 74.8815 54.767 74.7134 54.4912 74.5463C54.211 74.3694 53.9365 74.1665 53.6677 73.9375C53.3944 73.6988 53.1131 73.4169 52.8238 73.0917C52.5301 72.7568 52.2172 72.3545 51.8852 71.8846L52.5492 71.5284C52.8085 72.7117 52.8807 73.7166 52.7658 74.5431C52.651 75.3696 52.4034 76.034 52.023 76.5362C51.6524 77.0339 51.2148 77.3981 50.7103 77.6286ZM61.3147 72.7651C60.558 73.1109 59.8485 73.265 59.1864 73.2275C58.5339 73.1856 57.954 72.9815 57.4465 72.6153C56.9443 72.2349 56.5425 71.7149 56.241 71.0552C55.9661 70.4537 55.8325 69.8404 55.8401 69.2154C55.8573 68.5859 55.9907 67.9796 56.2403 67.3965C56.4995 66.8089 56.8617 66.2798 57.3269 65.8093C57.7876 65.329 58.3333 64.9448 58.9639 64.6566C59.2258 64.5369 59.4786 64.4741 59.7223 64.4684C59.9756 64.4581 60.2004 64.5137 60.3966 64.6352C60.5884 64.7469 60.7463 64.9386 60.8705 65.2102C61.0035 65.5013 61.0535 65.7775 61.0205 66.0389C60.983 66.2905 60.8527 66.4673 60.6296 66.5693C60.5034 66.627 60.3953 66.647 60.3053 66.6296C60.2205 66.5979 60.133 66.5734 60.0429 66.5559C59.9581 66.5243 59.8284 66.5484 59.6538 66.6282C59.1687 66.8499 58.7831 67.161 58.497 67.5614C58.2109 67.9619 58.0427 68.4023 57.9925 68.8827C57.9378 69.3533 58.0125 69.8117 58.2164 70.258C58.3405 70.5297 58.5025 70.743 58.7023 70.8979C58.9119 71.0485 59.1596 71.1288 59.4457 71.1388C59.7414 71.1444 60.0833 71.0585 60.4714 70.8811C60.8595 70.7038 61.1403 70.5227 61.3138 70.3379C61.4926 70.1389 61.6185 69.9524 61.6914 69.7783C61.7599 69.5945 61.8253 69.4298 61.8877 69.284C61.9501 69.1382 62.0637 69.0276 62.2287 68.9523C62.4324 68.8592 62.6116 68.8535 62.7662 68.9353C62.9209 69.0171 63.0559 69.1841 63.1711 69.4363C63.3529 69.8341 63.3934 70.2436 63.2928 70.6649C63.1974 71.0721 62.9783 71.4654 62.6357 71.8448C62.2886 72.2145 61.8483 72.5212 61.3147 72.7651ZM66.5869 70.3382C66.3443 70.4491 66.0976 70.4738 65.8468 70.4125C65.596 70.3513 65.3529 70.2043 65.1176 69.9717C64.892 69.7347 64.6928 69.427 64.5199 69.0487C64.0854 68.0979 63.7389 67.2242 63.4804 66.4276C63.2219 65.6309 63.0016 64.9049 62.8193 64.2493C62.6325 63.5841 62.4362 62.9877 62.2304 62.4602C62.0805 62.1065 61.9382 61.808 61.8035 61.5646C61.6786 61.3168 61.555 61.0977 61.4328 60.9072C61.3158 60.7027 61.2134 60.4915 61.1256 60.2736C61.0422 60.0654 61.0281 59.8549 61.0833 59.642C61.134 59.4195 61.3049 59.2417 61.596 59.1087C61.8676 58.9846 62.1355 58.9677 62.3997 59.0581C62.6594 59.1388 62.926 59.3629 63.1995 59.7305C63.4783 60.0839 63.7583 60.6068 64.0395 61.2993C64.2179 61.7924 64.3921 62.3402 64.5619 62.9428C64.7317 63.5454 64.9396 64.2186 65.1857 64.9623C65.437 65.6918 65.7692 66.4958 66.1823 67.3742L65.4332 66.8898C65.3804 65.6707 65.3969 64.6546 65.4827 63.8414C65.5781 63.0238 65.7534 62.3807 66.0085 61.9124C66.2591 61.4343 66.5784 61.1066 66.9665 60.9292C67.471 60.6987 67.9256 60.6669 68.3302 60.8338C68.7446 60.9963 69.1438 61.3181 69.5279 61.7993C69.9173 62.2664 70.3259 62.8655 70.7537 63.5964C71.0602 64.1131 71.3228 64.5209 71.5414 64.8197C71.7653 65.1044 71.9604 65.326 72.1267 65.4846C72.2983 65.629 72.4632 65.7589 72.6214 65.8742C72.7098 65.9394 72.793 66.0187 72.8708 66.1121C72.9584 66.2011 73.0266 66.2989 73.0753 66.4056C73.1906 66.6579 73.2013 66.8993 73.1073 67.1299C73.023 67.356 72.8401 67.5334 72.5588 67.662C72.2192 67.8171 71.8847 67.8293 71.5551 67.6984C71.2256 67.5676 70.902 67.3343 70.5844 66.9986C70.2669 66.6629 69.9659 66.2609 69.6816 65.7927C69.3618 65.2469 69.0908 64.8079 68.8685 64.4755C68.6419 64.1334 68.4414 63.8615 68.267 63.6597C68.0927 63.4579 67.915 63.287 67.7337 63.147C67.5857 63.285 67.4522 63.6216 67.3332 64.1568C67.2142 64.692 67.137 65.3958 67.1017 66.268C67.0664 67.1403 67.0932 68.1484 67.182 69.2923C67.1905 69.5933 67.1468 69.8185 67.0509 69.9679C66.955 70.1172 66.8003 70.2407 66.5869 70.3382ZM89.4151 61.7006C89.1144 61.838 88.8315 61.8735 88.5666 61.8069C88.3016 61.7404 88.006 61.594 87.6798 61.3678C87.4844 61.2225 87.2669 61.0287 87.0271 60.7864C86.783 60.5344 86.5175 60.2101 86.2307 59.8134C85.9394 59.4071 85.6255 58.8997 85.2888 58.2912L85.9852 58.2369C85.8783 59.1066 85.6781 59.849 85.3845 60.464C85.0865 61.0693 84.7203 61.5768 84.2859 61.9864C83.847 62.3863 83.3657 62.7059 82.8418 62.9453C82.1433 63.2645 81.4749 63.4058 80.8365 63.3691C80.1938 63.3227 79.6076 63.0922 79.078 62.6775C78.5483 62.2627 78.1106 61.677 77.7648 60.9203C77.4412 60.212 77.2477 59.4678 77.1843 58.6876C77.1307 57.9029 77.1865 57.1268 77.3518 56.3593C77.5126 55.5822 77.7747 54.8467 78.1379 54.153C78.5011 53.4593 78.9425 52.8471 79.4623 52.3164C79.9874 51.7715 80.5797 51.3483 81.2394 51.0469C81.6372 50.8651 81.984 50.777 82.2797 50.7826C82.571 50.7785 82.8166 50.8539 83.0164 51.0089C83.2215 51.1497 83.3817 51.3462 83.4969 51.5985C83.6388 51.9089 83.714 52.2147 83.7226 52.5157C83.7311 52.8167 83.6739 53.0891 83.5508 53.333C83.4374 53.5725 83.2545 53.7499 83.0023 53.8651C82.8665 53.9272 82.7562 53.9424 82.6713 53.9108C82.5918 53.8651 82.5224 53.803 82.4631 53.7245C82.409 53.632 82.3524 53.5464 82.2931 53.468C82.239 53.3754 82.1648 53.3155 82.0702 53.2884C81.9854 53.2567 81.8606 53.2786 81.6956 53.354C81.2979 53.5358 80.9422 53.8097 80.6287 54.1758C80.3204 54.5278 80.0648 54.9436 79.8618 55.4234C79.6589 55.9031 79.5173 56.4018 79.4371 56.9192C79.357 57.4367 79.339 57.9492 79.3833 58.4567C79.4276 58.9642 79.545 59.4266 79.7357 59.8437C80.0194 60.4646 80.368 60.8682 80.7816 61.0546C81.1951 61.2409 81.6395 61.2254 82.1149 61.0082C82.5806 60.7954 82.9847 60.4993 83.3274 60.1199C83.67 59.7405 83.9437 59.2871 84.1483 58.7596C84.3582 58.2181 84.4916 57.6118 84.5485 56.9407C84.5885 56.6175 84.6855 56.368 84.8396 56.192C84.999 56.0019 85.2243 55.8403 85.5153 55.7073C85.7384 55.6053 85.9207 55.5807 86.062 55.6334C86.2087 55.6719 86.3285 55.7931 86.4216 55.9968C86.7231 56.6565 87.0067 57.213 87.2725 57.6662C87.5479 58.115 87.8184 58.5015 88.0839 58.8259C88.359 59.1458 88.6518 59.44 88.9622 59.7086C89.1523 59.868 89.3005 59.9997 89.4066 60.1037C89.5172 60.2173 89.6021 60.3134 89.6614 60.3918C89.7207 60.4703 89.7748 60.5629 89.8236 60.6696C89.9255 60.8927 89.9352 61.0935 89.8526 61.272C89.7744 61.4602 89.6286 61.6031 89.4151 61.7006ZM82.7106 58.3083C82.4293 58.4369 82.1517 58.4582 81.8779 58.3722C81.6137 58.2818 81.4196 58.1008 81.2955 57.8292C81.2068 57.6351 81.1967 57.4462 81.2652 57.2625C81.3389 57.0646 81.538 56.8329 81.8623 56.5674C82.4034 56.109 82.9817 55.6806 83.597 55.2821C84.2221 54.8792 84.913 54.5048 85.6698 54.159C86.0481 53.9861 86.3498 53.8893 86.5749 53.8685C86.7956 53.8381 86.9686 53.8704 87.0942 53.9655C87.2153 54.0509 87.3158 54.1809 87.3956 54.3555C87.5153 54.6175 87.5414 54.8928 87.474 55.1816C87.4022 55.4607 87.1771 55.6867 86.7987 55.8596C85.9741 56.2365 85.3079 56.5879 84.8 56.9137C84.2922 57.2396 83.8788 57.5282 83.5597 57.7796C83.2459 58.0168 82.9629 58.1931 82.7106 58.3083ZM94.8483 57.4938C94.0334 57.8662 93.2352 58.0316 92.4539 57.9899C91.6822 57.9438 90.9839 57.7117 90.359 57.2936C89.7393 56.8614 89.2587 56.2718 88.9173 55.5248C88.6824 55.0106 88.5648 54.4838 88.5646 53.9444C88.5696 53.3909 88.6595 52.869 88.8342 52.3787C89.0045 51.8787 89.2344 51.4453 89.5241 51.0783C89.8138 50.7114 90.1285 50.4503 90.468 50.2952C90.6135 50.2287 90.7556 50.1931 90.8942 50.1884C91.038 50.1695 91.1709 50.1909 91.2929 50.2525C91.4148 50.314 91.5135 50.4272 91.5889 50.5922C91.7219 50.8832 91.7785 51.174 91.7588 51.4645C91.7443 51.7408 91.5812 52.0382 91.2693 52.3566C91.0844 52.5936 90.9397 52.8415 90.8352 53.1003C90.7306 53.3592 90.676 53.6246 90.6712 53.8965C90.6665 54.1684 90.7195 54.4256 90.8304 54.6682C91.1185 55.2988 91.5502 55.7172 92.1253 55.9235C92.696 56.1201 93.3112 56.0677 93.9709 55.7662C94.5336 55.5091 94.9009 55.1067 95.0728 54.559C95.2447 54.0113 95.1822 53.4125 94.8851 52.7625C94.6236 52.1901 94.267 51.8077 93.8155 51.6152C93.3693 51.4087 92.894 51.4207 92.3895 51.6512C92.1372 51.7665 91.9552 51.92 91.8435 52.1118C91.7415 52.2992 91.6378 52.5342 91.5324 52.8169C91.4534 53.0289 91.3876 53.2056 91.3349 53.347C91.2919 53.4839 91.233 53.5988 91.1581 53.6916C91.0833 53.7844 90.9731 53.8641 90.8276 53.9306C90.6723 54.0016 90.5099 54.0054 90.3403 53.9422C90.1707 53.879 90.0127 53.6873 89.8664 53.3671C89.7467 53.1052 89.6998 52.81 89.7256 52.4815C89.747 52.1434 89.8302 51.8122 89.9752 51.4879C90.1255 51.1495 90.3199 50.8437 90.5586 50.5704C90.7973 50.2971 91.0767 50.0874 91.3969 49.9411C92.173 49.5864 92.9063 49.4331 93.5967 49.4811C94.2924 49.515 94.9099 49.7371 95.4493 50.1474C95.9938 50.5436 96.4368 51.1152 96.7782 51.8622C97.1196 52.6092 97.2606 53.354 97.2011 54.0966C97.1417 54.8391 96.9105 55.5136 96.5074 56.12C96.1095 56.7122 95.5565 57.1702 94.8483 57.4938ZM102.036 54.1741C101.551 54.3958 101.084 54.4916 100.637 54.4617C100.189 54.4317 99.7836 54.2886 99.4202 54.0324C99.0525 53.7666 98.7622 53.4008 98.5494 52.9351C98.3277 52.45 98.1814 51.9246 98.1106 51.3589C98.0449 50.779 98.0486 50.1968 98.1216 49.6123C98.1946 49.0277 98.3405 48.4744 98.5592 47.9522C98.7735 47.4204 99.0524 46.9528 99.3959 46.5496C99.7394 46.1463 100.139 45.8405 100.595 45.6322C100.915 45.4859 101.226 45.461 101.528 45.5574C101.831 45.6539 102.064 45.8817 102.228 46.2406C102.294 46.3862 102.304 46.5225 102.256 46.6498C102.214 46.7628 102.132 46.865 102.009 46.9561C101.413 47.3458 100.961 47.8454 100.654 48.4552C100.342 49.0552 100.169 49.6912 100.136 50.363C100.108 51.0208 100.227 51.6407 100.493 52.2228C100.586 52.4265 100.687 52.609 100.796 52.7704C100.91 52.9176 101.081 53.0977 101.307 53.3109L99.7851 52.4056C100.102 52.4835 100.359 52.5188 100.555 52.5113C100.76 52.4994 100.984 52.4381 101.227 52.3272C101.77 52.079 102.114 51.523 102.259 50.6593C102.404 49.7957 102.285 48.6889 101.903 47.339C101.844 47.1079 101.861 46.9008 101.953 46.7179C102.041 46.5253 102.187 46.3824 102.391 46.2893C102.721 46.1386 103.046 46.107 103.368 46.1946C103.689 46.2823 103.958 46.4587 104.173 46.724C104.54 47.1426 104.88 47.5268 105.192 47.8766C105.5 48.2168 105.835 48.5268 106.197 48.8068C106.565 49.0727 107.005 49.3291 107.517 49.5762C107.695 49.6588 107.826 49.7923 107.911 49.9766C108.005 50.1565 108.057 50.3612 108.068 50.5907C108.084 50.8061 108.049 51.0101 107.961 51.2027C107.878 51.3812 107.735 51.517 107.531 51.6101C107.366 51.6854 107.215 51.7136 107.077 51.6944C106.954 51.6805 106.833 51.6477 106.716 51.5958C106.392 51.427 106.092 51.259 105.817 51.0918C105.537 50.9149 105.262 50.712 104.993 50.483C104.72 50.2443 104.439 49.9624 104.149 49.6372C103.856 49.3024 103.543 48.9 103.211 48.4302L103.875 48.074C104.134 49.2572 104.206 50.2621 104.091 51.0887C103.976 51.9152 103.729 52.5795 103.348 53.0817C102.978 53.5795 102.54 53.9436 102.036 54.1741ZM111.694 49.7783C111.49 49.8714 111.263 49.9398 111.013 49.9836C110.773 50.0229 110.509 49.997 110.221 49.9057C109.933 49.8145 109.627 49.6319 109.303 49.3581C108.988 49.0797 108.651 48.6765 108.293 48.1485C107.944 47.616 107.574 46.9228 107.184 46.0691C106.834 45.3027 106.531 44.6023 106.277 43.9681C106.027 43.3198 105.805 42.7058 105.611 42.1262C105.426 41.5422 105.255 40.9634 105.099 40.3899C105.007 40.0097 104.996 39.7157 105.065 39.5081C105.135 39.3005 105.291 39.1413 105.533 39.0305C105.844 38.8886 106.142 38.899 106.427 39.0618C106.708 39.2148 106.973 39.563 107.221 40.1063C107.35 40.3876 107.47 40.7021 107.582 41.0497C107.699 41.3831 107.826 41.7647 107.964 42.1943C108.102 42.624 108.271 43.1096 108.472 43.6512C108.677 44.1787 108.938 44.7869 109.253 45.4757C109.51 46.0384 109.733 46.4877 109.921 46.8237C110.115 47.1455 110.283 47.3853 110.426 47.543C110.568 47.7007 110.694 47.7958 110.803 47.8283C110.907 47.851 111.003 47.8424 111.09 47.8025C111.187 47.7582 111.262 47.7179 111.316 47.6816C111.365 47.6356 111.412 47.5966 111.456 47.5648C111.496 47.5232 111.545 47.4891 111.603 47.4625C111.836 47.3561 112.029 47.3557 112.183 47.4613C112.332 47.5573 112.456 47.7119 112.553 47.9254C112.664 48.1679 112.699 48.4102 112.657 48.6521C112.615 48.8941 112.509 49.1124 112.34 49.3069C112.171 49.5015 111.956 49.6586 111.694 49.7783ZM116.024 47.7818C115.481 48.0301 115.004 48.1661 114.592 48.1899C114.176 48.204 113.833 48.1323 113.562 47.9748C113.29 47.8173 113.097 47.6125 112.982 47.3602C112.893 47.1662 112.88 46.9844 112.943 46.8147C113.002 46.6354 113.148 46.4925 113.381 46.3861C113.497 46.3329 113.613 46.3036 113.728 46.298C113.852 46.2881 113.986 46.2856 114.129 46.2906C114.267 46.2859 114.423 46.2675 114.596 46.2354C114.779 46.1988 114.987 46.1273 115.219 46.0209C115.782 45.7638 116.221 45.4928 116.537 45.2079C116.857 44.9089 117.043 44.5956 117.092 44.2679C116.934 44.1526 116.714 44.1067 116.431 44.1302C116.149 44.1538 115.832 44.2047 115.481 44.2831C115.13 44.3615 114.759 44.4368 114.37 44.5091C113.991 44.577 113.625 44.6095 113.271 44.6067C112.918 44.6039 112.596 44.5281 112.306 44.3795C112.01 44.2212 111.776 43.9529 111.604 43.5745C111.413 43.1574 111.363 42.7403 111.454 42.3235C111.545 41.9066 111.733 41.5099 112.018 41.1332C112.309 40.7425 112.66 40.3944 113.072 40.089C113.493 39.7792 113.932 39.5201 114.388 39.3117C114.747 39.1477 115.064 39.0729 115.341 39.0873C115.627 39.0974 115.87 39.1679 116.071 39.2991C116.267 39.4205 116.414 39.5879 116.511 39.8014C116.609 40.0148 116.628 40.2112 116.569 40.3905C116.52 40.5654 116.399 40.6972 116.205 40.7858C116.098 40.8346 115.999 40.8741 115.907 40.9043C115.815 40.9345 115.714 40.9691 115.603 41.0082C115.497 41.0331 115.361 41.0833 115.196 41.1586C114.702 41.3847 114.299 41.6451 113.988 41.9397C113.686 42.2298 113.492 42.5357 113.404 42.8572C113.543 42.9814 113.749 43.0339 114.022 43.0148C114.304 42.9913 114.626 42.9381 114.987 42.8553C115.357 42.7681 115.737 42.6883 116.126 42.616C116.521 42.5296 116.899 42.4856 117.262 42.4839C117.635 42.4779 117.971 42.547 118.272 42.6911C118.568 42.8256 118.8 43.0772 118.968 43.4458C119.168 43.8824 119.232 44.3047 119.16 44.7127C119.098 45.1162 118.925 45.5063 118.64 45.883C118.364 46.2552 117.999 46.598 117.544 46.9114C117.093 47.2345 116.587 47.5247 116.024 47.7818ZM136.213 38.5912C136.009 38.6843 135.805 38.7368 135.599 38.7486C135.398 38.7702 135.181 38.746 134.95 38.6758C134.714 38.5959 134.439 38.4694 134.126 38.2961C133.803 38.1034 133.487 37.8608 133.177 37.5684C132.863 37.2662 132.553 36.9332 132.246 36.5692C131.934 36.1955 131.625 35.8148 131.319 35.427C131.023 35.0347 130.73 34.6641 130.442 34.3151C130.149 33.9564 129.859 33.6432 129.572 33.3754C129.281 33.0979 129 32.8923 128.728 32.7587L129.433 32.6474C129.278 33.1288 129.185 33.6697 129.154 34.27C129.119 34.8607 129.131 35.4887 129.189 36.1543C129.247 36.8198 129.339 37.5103 129.467 38.226C129.59 38.932 129.737 39.6388 129.908 40.3465C129.969 40.6588 129.952 40.9303 129.858 41.1609C129.76 41.3818 129.56 41.561 129.259 41.6984C129.143 41.7516 128.994 41.7846 128.812 41.7973C128.644 41.8153 128.45 41.7751 128.229 41.6767C128.008 41.5782 127.752 41.4022 127.46 41.1485C127.076 40.7962 126.672 40.4002 126.249 39.9605C125.835 39.5165 125.417 39.0388 124.996 38.5277C124.575 38.0165 124.166 37.4938 123.769 36.9597C123.368 36.4158 122.989 35.8679 122.631 35.316C122.273 34.7641 121.951 34.2254 121.664 33.6998C121.53 33.4326 121.487 33.1709 121.534 32.9148C121.591 32.6543 121.799 32.442 122.157 32.278C122.546 32.1006 122.894 32.1057 123.202 32.2931C123.516 32.4664 123.778 32.7572 123.988 33.1655C124.225 33.6081 124.493 34.0662 124.792 34.5397C125.096 34.999 125.418 35.4613 125.76 35.9268C126.097 36.3825 126.456 36.8342 126.837 37.2819C127.213 37.7199 127.605 38.1561 128.015 38.5904L127.654 38.8785C127.451 37.9979 127.294 37.1547 127.184 36.349C127.084 35.5388 127.041 34.7783 127.057 34.0677C127.067 33.3473 127.145 32.708 127.288 32.1498C127.379 31.7568 127.512 31.4083 127.69 31.1042C127.868 30.8002 128.127 30.5706 128.466 30.4154C128.777 30.2735 129.099 30.2729 129.433 30.4135C129.772 30.5399 130.198 30.8555 130.71 31.3603C131.019 31.6528 131.326 32.0168 131.631 32.4522C131.941 32.8736 132.267 33.317 132.608 33.7824C132.955 34.2337 133.313 34.6567 133.681 35.0514C134.058 35.4418 134.456 35.7468 134.873 35.9667L134.288 36.3042C134.266 35.8452 134.198 35.3488 134.083 34.8149C133.963 34.2714 133.825 33.7129 133.669 33.1394C133.512 32.5659 133.353 31.9994 133.191 31.4401C133.039 30.8763 132.905 30.3513 132.788 29.8651C132.681 29.3745 132.625 28.943 132.619 28.5704C132.6 28.1688 132.644 27.8673 132.751 27.6658C132.858 27.4643 133.043 27.3037 133.305 27.184C133.615 27.0421 133.883 27.0252 134.108 27.1334C134.339 27.2274 134.523 27.4128 134.662 27.6897C134.8 27.9666 134.893 28.2993 134.942 28.6876C134.997 29.1668 135.09 29.6928 135.223 30.2654C135.356 30.8381 135.504 31.4328 135.669 32.0495C135.833 32.6663 135.995 33.2901 136.155 33.9209C136.309 34.5421 136.441 35.1505 136.549 35.7462C136.662 36.3277 136.731 36.8766 136.756 37.393C136.772 37.7611 136.727 38.034 136.62 38.2116C136.514 38.3893 136.378 38.5158 136.213 38.5912ZM141.607 36.0911C141.364 36.202 141.141 36.2395 140.937 36.2037C140.733 36.1679 140.546 36.0659 140.375 35.8976C140.214 35.7249 140.076 35.5124 139.961 35.2602C139.655 34.5908 139.39 34.0255 139.168 33.5642C138.955 33.0985 138.766 32.6981 138.601 32.363C138.442 32.0137 138.288 31.6909 138.141 31.3946C138.004 31.0939 137.858 30.7737 137.702 30.4342C137.583 30.1722 137.515 29.9216 137.5 29.6824C137.48 29.4335 137.533 29.2039 137.66 28.9935C137.787 28.7832 137.991 28.6137 138.272 28.4852C138.563 28.3522 138.84 28.3428 139.103 28.457C139.376 28.5668 139.611 28.8232 139.807 29.2263C139.9 29.43 140.024 29.7136 140.178 30.077C140.328 30.4306 140.493 30.8302 140.673 31.2757C140.863 31.7167 141.053 32.1577 141.242 32.5987C141.428 33.03 141.6 33.4322 141.759 33.8053C141.917 34.1784 142.045 34.4717 142.143 34.6851C142.272 34.9664 142.3 35.2347 142.229 35.49C142.154 35.7356 141.946 35.9359 141.607 36.0911ZM137.865 27.4399C137.409 27.6483 136.985 27.6955 136.592 27.5815C136.2 27.4675 135.924 27.2359 135.765 26.8866C135.605 26.5374 135.602 26.2103 135.756 25.9054C135.906 25.5909 136.169 25.3471 136.548 25.1742C136.849 25.0368 137.132 24.9894 137.398 25.0322C137.673 25.0704 137.911 25.1671 138.111 25.322C138.306 25.4673 138.452 25.6467 138.55 25.8601C138.661 26.1026 138.677 26.3824 138.599 26.6995C138.527 27.0025 138.282 27.2492 137.865 27.4399ZM147.84 33.2955C147.015 33.6724 146.274 33.7944 145.615 33.6615C144.952 33.5189 144.358 33.1688 143.833 32.611C143.318 32.0489 142.861 31.3312 142.462 30.4581C142.236 29.9633 142.056 29.5059 141.923 29.086C141.79 28.666 141.665 28.2655 141.55 27.8844C141.444 27.4988 141.31 27.1027 141.148 26.6961C140.986 26.2656 140.836 25.9238 140.697 25.6708C140.553 25.408 140.433 25.1579 140.336 24.9207C140.253 24.7125 140.239 24.502 140.294 24.2891C140.354 24.0621 140.525 23.8843 140.807 23.7558C141.214 23.5696 141.59 23.609 141.934 23.874C142.278 24.139 142.612 24.6782 142.937 25.4915C143.064 25.8205 143.174 26.1394 143.268 26.4482C143.358 26.7472 143.447 27.0582 143.536 27.3812C143.631 27.6899 143.736 28.023 143.852 28.3803C143.974 28.7234 144.13 29.1036 144.321 29.5208C144.613 30.1611 144.909 30.6416 145.208 30.9623C145.507 31.2831 145.82 31.4683 146.148 31.5179C146.471 31.5579 146.817 31.4936 147.186 31.3252C147.419 31.2188 147.594 31.1151 147.712 31.0142C147.826 30.9037 147.922 30.8068 148.002 30.7237C148.086 30.6264 148.196 30.5467 148.332 30.4846C148.526 30.396 148.703 30.3855 148.863 30.4531C149.023 30.5208 149.158 30.6759 149.269 30.9184C149.447 31.3065 149.43 31.7188 149.219 32.1553C149.017 32.5874 148.558 32.9675 147.84 33.2955ZM143.775 28.7499C143.492 29.055 143.22 29.1791 142.96 29.1223C142.695 29.0557 142.496 28.8769 142.363 28.5859C142.248 28.3336 142.197 28.0813 142.211 27.8288C142.224 27.5763 142.404 27.2771 142.75 26.9312C143.067 26.6225 143.438 26.3181 143.863 26.0179C144.299 25.7134 144.725 25.4658 145.142 25.2751C145.608 25.0623 145.98 25.0038 146.258 25.0994C146.546 25.1907 146.755 25.377 146.883 25.6583C146.985 25.8814 146.995 26.0823 146.912 26.2607C146.83 26.4392 146.676 26.5914 146.452 26.7172C146.039 26.9414 145.68 27.1579 145.377 27.3669C145.079 27.5617 144.804 27.7692 144.553 27.9896C144.302 28.2099 144.043 28.4633 143.775 28.7499ZM152.273 31.1819C152.03 31.2927 151.784 31.3175 151.533 31.2562C151.282 31.1949 151.039 31.048 150.804 30.8154C150.578 30.5784 150.379 30.2707 150.206 29.8923C149.771 28.9416 149.425 28.0679 149.166 27.2712C148.908 26.4746 148.687 25.7485 148.505 25.093C148.318 24.4277 148.122 23.8314 147.916 23.3039C147.766 22.9502 147.624 22.6517 147.489 22.4083C147.364 22.1605 147.241 21.9414 147.119 21.7509C147.002 21.5463 146.899 21.3351 146.811 21.1173C146.728 20.9091 146.714 20.6986 146.769 20.4857C146.82 20.2631 146.991 20.0854 147.282 19.9524C147.554 19.8282 147.821 19.8114 148.086 19.9018C148.345 19.9824 148.612 20.2066 148.885 20.5741C149.164 20.9276 149.444 21.4505 149.725 22.1429C149.904 22.636 150.078 23.1839 150.248 23.7865C150.418 24.3891 150.626 25.0622 150.872 25.8059C151.123 26.5355 151.455 27.3395 151.868 28.2179L151.119 27.7334C151.066 26.5144 151.083 25.4983 151.169 24.6851C151.264 23.8674 151.439 23.2244 151.694 22.756C151.945 22.2779 152.264 21.9502 152.652 21.7729C153.157 21.5424 153.611 21.5105 154.016 21.6775C154.43 21.8399 154.83 22.1618 155.214 22.643C155.603 23.1101 156.012 23.7091 156.44 24.4401C156.746 24.9568 157.009 25.3645 157.227 25.6634C157.451 25.9481 157.646 26.1697 157.813 26.3283C157.984 26.4727 158.149 26.6026 158.307 26.7179C158.396 26.783 158.479 26.8623 158.557 26.9557C158.644 27.0447 158.712 27.1426 158.761 27.2493C158.877 27.5015 158.887 27.743 158.793 27.9736C158.709 28.1997 158.526 28.3771 158.245 28.5056C157.905 28.6608 157.571 28.673 157.241 28.5421C156.911 28.4112 156.588 28.1779 156.27 27.8422C155.953 27.5065 155.652 27.1046 155.367 26.6364C155.048 26.0906 154.777 25.6515 154.554 25.3192C154.328 24.9771 154.127 24.7052 153.953 24.5034C153.779 24.3016 153.601 24.1307 153.42 23.9907C153.272 24.1287 153.138 24.4653 153.019 25.0005C152.9 25.5357 152.823 26.2394 152.788 27.1117C152.752 27.9839 152.779 28.992 152.868 30.1359C152.876 30.4369 152.833 30.6621 152.737 30.8115C152.641 30.9609 152.486 31.0844 152.273 31.1819ZM18.9361 112.959C18.5384 113.141 18.2101 113.18 17.9512 113.075C17.6923 112.971 17.503 112.787 17.3833 112.525C17.2769 112.293 17.2659 112.063 17.3502 111.837C17.4397 111.597 17.6309 111.386 17.9236 111.206C18.412 110.888 18.9362 110.573 19.4961 110.258C20.0516 109.934 20.6089 109.627 21.168 109.336C21.7368 109.041 22.2686 108.78 22.7634 108.554C23.2291 108.341 23.5855 108.249 23.8328 108.276C24.0897 108.3 24.2847 108.457 24.4177 108.748C24.5773 109.097 24.5409 109.454 24.3086 109.818C24.086 110.178 23.7127 110.477 23.1888 110.717C22.6552 110.961 22.194 111.183 21.8051 111.384C21.4215 111.571 21.0908 111.746 20.813 111.908C20.5308 112.061 20.28 112.204 20.0604 112.34C19.8462 112.461 19.6513 112.574 19.4758 112.678C19.3004 112.781 19.1205 112.875 18.9361 112.959ZM24.7473 118.554C24.3883 118.718 24.0507 118.749 23.7345 118.648C23.4182 118.546 23.1825 118.325 23.0273 117.986C22.7081 117.287 22.415 116.594 22.1479 115.907C21.8905 115.215 21.6367 114.557 21.3865 113.933C21.146 113.304 20.9127 112.742 20.6866 112.247C20.5403 111.927 20.485 111.665 20.5208 111.461C20.5566 111.257 20.7103 111.093 20.982 110.969C21.3021 110.823 21.6318 110.813 21.971 110.939C22.32 111.061 22.5698 111.287 22.7206 111.617C22.8846 111.976 23.078 112.45 23.3008 113.041C23.5191 113.621 23.7725 114.291 24.0609 115.05C24.3546 115.796 24.6988 116.6 25.0933 117.464C25.3283 117.978 25.2129 118.341 24.7473 118.554ZM23.1791 121.012C22.6164 121.269 22.1646 121.359 21.8237 121.28C21.4828 121.201 21.2414 121.007 21.0995 120.696C21.0108 120.502 20.9959 120.315 21.0547 120.136C21.1187 119.943 21.2702 119.774 21.5092 119.629C21.9968 119.336 22.4399 119.087 22.8385 118.881C23.2423 118.661 23.6312 118.46 24.0052 118.278C24.3747 118.085 24.768 117.894 25.1852 117.703C25.6024 117.513 26.068 117.3 26.5822 117.065C26.9509 116.896 27.2478 116.802 27.4728 116.781C27.6979 116.76 27.8732 116.797 27.9987 116.892C28.1296 116.973 28.2282 117.087 28.2947 117.232C28.4233 117.513 28.408 117.814 28.2489 118.133C28.0994 118.447 27.7482 118.731 27.1952 118.984C26.5646 119.272 25.9869 119.547 25.4622 119.811C24.9419 120.084 24.4895 120.326 24.1051 120.536C23.7206 120.747 23.4119 120.906 23.1791 121.012ZM36.8828 114.732C36.5142 114.901 36.1253 114.897 35.7162 114.72C35.3027 114.534 34.8791 114.159 34.4454 113.595C34.0073 113.021 33.5643 112.244 33.1165 111.264C32.9747 110.954 32.8475 110.701 32.735 110.506C32.6322 110.307 32.5326 110.153 32.4361 110.045C32.3397 109.936 32.2327 109.856 32.1152 109.804C32.0074 109.748 31.8775 109.708 31.7256 109.683C31.9585 109.577 32.1636 109.512 32.341 109.49C32.5236 109.453 32.6848 109.485 32.8245 109.586C32.9597 109.676 33.0802 109.85 33.1857 110.107C32.9374 109.974 32.7373 109.895 32.5854 109.871C32.4432 109.842 32.3042 109.859 32.1684 109.921C31.9841 110.005 31.8238 110.219 31.6877 110.563C31.5471 110.896 31.4363 111.334 31.3553 111.875C31.2796 112.403 31.2464 113.01 31.2557 113.698C31.2747 114.381 31.342 115.118 31.4574 115.91C31.5272 116.371 31.5248 116.712 31.4502 116.934C31.3712 117.146 31.2056 117.309 30.9533 117.425C30.5168 117.624 30.0968 117.552 29.6936 117.209C29.2904 116.865 28.9336 116.354 28.6232 115.675C28.4016 115.19 28.2281 114.759 28.1029 114.382C27.9874 114.001 27.8829 113.644 27.7895 113.311C27.7059 112.974 27.6103 112.637 27.5028 112.299C27.4006 111.947 27.2564 111.567 27.0702 111.16C26.9372 110.869 26.9053 110.619 26.9746 110.412C27.044 110.204 27.2096 110.041 27.4715 109.921C27.7626 109.788 28.0301 109.783 28.274 109.906C28.5231 110.015 28.7452 110.283 28.9403 110.71C29.0778 111.01 29.1799 111.298 29.2466 111.572C29.3186 111.833 29.3921 112.122 29.4668 112.439C29.5372 112.747 29.6439 113.109 29.7868 113.525C29.9254 113.93 30.1351 114.415 30.4161 114.979L29.7655 114.748C29.5943 113.501 29.5608 112.414 29.6649 111.487C29.7786 110.555 29.9987 109.792 30.325 109.197C30.6513 108.603 31.0522 108.197 31.5276 107.979C31.935 107.793 32.3167 107.73 32.6726 107.79C33.0285 107.851 33.3519 108.019 33.6429 108.297C33.9295 108.565 34.1769 108.927 34.3853 109.383C34.7089 110.091 34.9984 110.686 35.2536 111.167C35.5088 111.649 35.751 112.025 35.9802 112.295C36.219 112.561 36.4706 112.74 36.7347 112.83C36.9043 112.893 37.047 112.975 37.1629 113.074C37.2743 113.164 37.3721 113.301 37.4564 113.485C37.5495 113.689 37.5534 113.916 37.4683 114.166C37.3885 114.402 37.1933 114.591 36.8828 114.732ZM46.1595 110.493C45.7908 110.662 45.402 110.658 44.9929 110.481C44.5794 110.295 44.1558 109.92 43.7221 109.355C43.2839 108.782 42.841 108.005 42.3932 107.025C42.2513 106.714 42.1241 106.462 42.0116 106.267C41.9088 106.068 41.8092 105.914 41.7128 105.805C41.6163 105.697 41.5094 105.617 41.3918 105.565C41.284 105.509 41.1542 105.468 41.0023 105.444C41.2351 105.338 41.4403 105.273 41.6176 105.251C41.8003 105.214 41.9615 105.246 42.1012 105.346C42.2364 105.437 42.3568 105.611 42.4624 105.867C42.2141 105.735 42.0139 105.656 41.8621 105.632C41.7199 105.603 41.5809 105.619 41.445 105.681C41.2607 105.766 41.1005 105.98 40.9643 106.323C40.8238 106.657 40.713 107.095 40.632 107.636C40.5562 108.163 40.523 108.771 40.5323 109.458C40.5514 110.142 40.6186 110.879 40.7341 111.671C40.8039 112.131 40.8015 112.473 40.7269 112.694C40.6479 112.906 40.4822 113.07 40.23 113.185C39.7934 113.385 39.3735 113.313 38.9703 112.969C38.567 112.626 38.2102 112.115 37.8999 111.435C37.6782 110.95 37.5048 110.52 37.3795 110.143C37.264 109.762 37.1596 109.405 37.0662 109.072C36.9825 108.735 36.887 108.398 36.7795 108.06C36.6772 107.708 36.533 107.328 36.3468 106.921C36.2138 106.629 36.182 106.38 36.2513 106.173C36.3206 105.965 36.4863 105.801 36.7482 105.682C37.0393 105.549 37.3067 105.544 37.5506 105.667C37.7998 105.776 38.0219 106.044 38.217 106.471C38.3544 106.771 38.4565 107.059 38.5233 107.333C38.5953 107.594 38.6687 107.883 38.7435 108.2C38.8139 108.508 38.9205 108.87 39.0635 109.285C39.202 109.691 39.4118 110.176 39.6927 110.739L39.0421 110.509C38.871 109.262 38.8375 108.175 38.9415 107.248C39.0553 106.316 39.2754 105.553 39.6017 104.958C39.928 104.363 40.3288 103.957 40.8042 103.74C41.4154 103.461 41.9645 103.456 42.4515 103.726C42.9481 103.992 43.3516 104.464 43.662 105.143C43.9856 105.852 44.275 106.446 44.5302 106.928C44.7854 107.409 45.0276 107.785 45.2568 108.056C45.4957 108.322 45.7472 108.5 46.0113 108.591C46.181 108.654 46.3237 108.735 46.4395 108.835C46.551 108.925 46.6488 109.062 46.733 109.246C46.8261 109.45 46.8301 109.677 46.745 109.927C46.6651 110.163 46.47 110.351 46.1595 110.493ZM52.1051 107.811C51.2902 108.184 50.492 108.349 49.7107 108.308C48.939 108.261 48.2407 108.029 47.6158 107.611C46.9961 107.179 46.5155 106.589 46.1742 105.842C45.9392 105.328 45.8216 104.801 45.8214 104.262C45.8265 103.709 45.9163 103.187 46.091 102.696C46.2613 102.196 46.4913 101.763 46.781 101.396C47.0707 101.029 47.3853 100.768 47.7248 100.613C47.8704 100.546 48.0124 100.511 48.151 100.506C48.2949 100.487 48.4278 100.509 48.5497 100.57C48.6717 100.632 48.7703 100.745 48.8457 100.91C48.9787 101.201 49.0353 101.492 49.0156 101.782C49.0012 102.058 48.838 102.356 48.5261 102.674C48.3412 102.911 48.1965 103.159 48.092 103.418C47.9875 103.677 47.9328 103.942 47.9281 104.214C47.9233 104.486 47.9764 104.743 48.0872 104.986C48.3754 105.616 48.807 106.035 49.3821 106.241C49.9528 106.438 50.568 106.385 51.2277 106.084C51.7904 105.827 52.1577 105.424 52.3296 104.877C52.5015 104.329 52.439 103.73 52.1419 103.08C51.8804 102.508 51.5238 102.125 51.0724 101.933C50.6261 101.726 50.1508 101.738 49.6463 101.969C49.3941 102.084 49.2121 102.238 49.1003 102.429C48.9983 102.617 48.8946 102.852 48.7893 103.135C48.7102 103.347 48.6444 103.523 48.5917 103.665C48.5487 103.802 48.4898 103.916 48.4149 104.009C48.3401 104.102 48.2299 104.182 48.0844 104.248C47.9292 104.319 47.7667 104.323 47.5971 104.26C47.4275 104.197 47.2695 104.005 47.1232 103.685C47.0035 103.423 46.9566 103.128 46.9824 102.799C47.0038 102.461 47.087 102.13 47.232 101.806C47.3823 101.467 47.5768 101.161 47.8154 100.888C48.0541 100.615 48.3335 100.405 48.6537 100.259C49.4298 99.904 50.1631 99.7507 50.8535 99.7988C51.5492 99.8327 52.1668 100.055 52.7061 100.465C53.2507 100.861 53.6937 101.433 54.035 102.18C54.3764 102.927 54.5174 103.672 54.458 104.414C54.3985 105.157 54.1673 105.831 53.7642 106.438C53.3664 107.03 52.8133 107.488 52.1051 107.811ZM60.3296 104.018C60.0773 104.133 59.828 104.165 59.5816 104.113C59.3308 104.052 59.0325 103.913 58.6869 103.695C58.4394 103.539 58.1534 103.324 57.8289 103.05C57.5096 102.762 57.1744 102.452 56.8233 102.119C56.4819 101.783 56.1705 101.474 55.8892 101.192C55.4877 100.801 55.1405 100.49 54.8479 100.26C54.5649 100.026 54.3306 99.8341 54.1449 99.6844C53.9548 99.525 53.7974 99.3858 53.6727 99.2669C53.5532 99.1339 53.4514 98.9752 53.3671 98.7908C53.2829 98.6065 53.275 98.4225 53.3435 98.2387C53.412 98.0549 53.5821 97.901 53.8537 97.7769C54.1545 97.6394 54.4422 97.6018 54.7169 97.6639C54.9915 97.726 55.2663 97.8526 55.5413 98.0436C55.8259 98.2302 56.1088 98.4644 56.3901 98.7464C56.713 99.0679 57.0447 99.4089 57.3853 99.7693C57.7356 100.125 58.0886 100.474 58.4441 100.816C58.8094 101.153 59.1614 101.462 59.5 101.741L58.9283 101.914C58.9492 101.318 58.9591 100.762 58.9581 100.247C58.9623 99.7171 58.9706 99.209 58.9828 98.7226C59.0004 98.222 59.0413 97.7342 59.1057 97.2591C59.1656 96.7744 59.2666 96.2767 59.4086 95.7662C59.4637 95.5533 59.5437 95.3819 59.6485 95.2519C59.7533 95.122 59.8979 95.0148 60.0822 94.9306C60.2374 94.8597 60.3932 94.8413 60.5495 94.8754C60.7155 94.9051 60.8658 94.9771 61.0002 95.0916C61.1302 95.1964 61.2306 95.3264 61.3015 95.4817C61.3769 95.6466 61.4258 95.8177 61.4482 95.9951C61.4707 96.1725 61.4719 96.342 61.4519 96.5036C61.326 97.1006 61.2304 97.6486 61.1652 98.1475C61.0956 98.6367 61.0427 99.1241 61.0066 99.6097C60.9705 100.095 60.9477 100.61 60.9382 101.154C60.9287 101.698 60.9216 102.311 60.9168 102.993C60.9023 103.269 60.8542 103.485 60.7724 103.64C60.6906 103.794 60.543 103.92 60.3296 104.018ZM67.077 100.934C66.592 101.156 66.1256 101.252 65.678 101.222C65.2303 101.192 64.8249 101.049 64.4615 100.793C64.0937 100.527 63.8035 100.161 63.5907 99.6954C63.369 99.2104 63.2227 98.685 63.1518 98.1192C63.0862 97.5394 63.0899 96.9572 63.1629 96.3726C63.2359 95.7881 63.3817 95.2347 63.6005 94.7126C63.8148 94.1807 64.0937 93.7131 64.4372 93.3099C64.7807 92.9067 65.1804 92.6009 65.6364 92.3925C65.9565 92.2462 66.2677 92.2213 66.5698 92.3178C66.8719 92.4143 67.1049 92.642 67.269 93.001C67.3355 93.1465 67.345 93.2829 67.2976 93.4101C67.2555 93.5232 67.1731 93.6253 67.0506 93.7165C66.4546 94.1061 66.0028 94.6058 65.695 95.2155C65.3828 95.8155 65.2102 96.4515 65.1771 97.1234C65.1493 97.7811 65.2684 98.401 65.5344 98.9831C65.6275 99.1868 65.7285 99.3694 65.8374 99.5307C65.9516 99.6779 66.1219 99.8581 66.3483 100.071L64.8264 99.1659C65.1434 99.2439 65.4 99.2791 65.5959 99.2716C65.8016 99.2598 66.0257 99.1984 66.2682 99.0876C66.8115 98.8393 67.1556 98.2833 67.3004 97.4197C67.4452 96.556 67.3264 95.4493 66.9441 94.0994C66.8854 93.8682 66.9022 93.6611 66.9945 93.4782C67.0824 93.2856 67.2282 93.1427 67.4319 93.0496C67.7618 92.8989 68.0875 92.8673 68.409 92.955C68.7305 93.0426 68.9988 93.2191 69.2138 93.4844C69.581 93.9029 69.9208 94.2871 70.2331 94.637C70.541 94.9771 70.8762 95.2872 71.2387 95.5672C71.6065 95.833 72.0462 96.0895 72.5578 96.3365C72.7363 96.4191 72.8677 96.5526 72.9519 96.7369C73.0458 96.9168 73.0983 97.1215 73.1094 97.351C73.1257 97.5664 73.0899 97.7704 73.002 97.963C72.9194 98.1415 72.7762 98.2773 72.5725 98.3704C72.4076 98.4458 72.2562 98.4739 72.1185 98.4547C71.9949 98.4409 71.8743 98.408 71.7568 98.3562C71.4333 98.1873 71.1337 98.0193 70.858 97.8521C70.5778 97.6753 70.3033 97.4723 70.0344 97.2434C69.7612 97.0047 69.4799 96.7227 69.1906 96.3976C68.8968 96.0627 68.5839 95.6604 68.2519 95.1905L68.916 94.8343C69.1752 96.0176 69.2474 97.0225 69.1326 97.849C69.0177 98.6755 68.7701 99.3399 68.3897 99.842C68.0191 100.34 67.5815 100.704 67.077 100.934ZM77.725 96.1214C76.9003 96.4982 76.1586 96.6202 75.4998 96.4874C74.8365 96.3448 74.2426 95.9947 73.718 95.4369C73.2031 94.8747 72.7461 94.1571 72.3471 93.2839C72.121 92.7891 71.9413 92.3318 71.8081 91.9118C71.6748 91.4919 71.5504 91.0914 71.4349 90.7102C71.3291 90.3247 71.195 89.9286 71.0326 89.5219C70.8711 89.0915 70.7207 88.7497 70.5816 88.4966C70.4381 88.2338 70.318 87.9838 70.2213 87.7465C70.1379 87.5384 70.1238 87.3279 70.179 87.115C70.2394 86.888 70.4103 86.7102 70.6917 86.5816C71.0991 86.3954 71.4748 86.4349 71.8188 86.6999C72.1627 86.9649 72.497 87.5041 72.8218 88.3173C72.9487 88.6463 73.0592 88.9652 73.1534 89.274C73.2432 89.5731 73.3325 89.8841 73.4214 90.207C73.5156 90.5158 73.6209 90.8489 73.7373 91.2062C73.8589 91.5493 74.0151 91.9295 74.2057 92.3466C74.4983 92.987 74.7941 93.4675 75.0931 93.7882C75.3922 94.1089 75.7055 94.2941 76.0331 94.3438C76.3563 94.3837 76.7022 94.3195 77.0709 94.151C77.3037 94.0446 77.4792 93.941 77.5973 93.8401C77.7109 93.7295 77.8074 93.6327 77.8867 93.5495C77.9712 93.4523 78.0814 93.3726 78.2172 93.3105C78.4113 93.2218 78.5882 93.2113 78.7482 93.279C78.9081 93.3466 79.0435 93.5017 79.1543 93.7443C79.3316 94.1324 79.3148 94.5446 79.1038 94.9812C78.9025 95.4132 78.4429 95.7933 77.725 96.1214ZM73.6599 91.5757C73.3771 91.8809 73.1055 92.005 72.845 91.9482C72.58 91.8816 72.381 91.7028 72.248 91.4117C72.1327 91.1595 72.0819 90.9071 72.0955 90.6546C72.1091 90.4021 72.2891 90.1029 72.6353 89.7571C72.9516 89.4483 73.3226 89.1439 73.7484 88.8438C74.1839 88.5393 74.6102 88.2917 75.0274 88.101C75.4931 87.8882 75.8651 87.8296 76.1433 87.9253C76.4313 88.0165 76.6396 88.2028 76.7681 88.4842C76.8701 88.7073 76.8798 88.9081 76.7972 89.0866C76.7145 89.2651 76.5612 89.4172 76.3373 89.5431C75.9237 89.7672 75.5653 89.9838 75.262 90.1927C74.964 90.3876 74.6895 90.5951 74.4383 90.8154C74.1872 91.0358 73.9277 91.2892 73.6599 91.5757ZM82.1863 94.0299C81.9438 94.1408 81.7205 94.1783 81.5165 94.1425C81.3125 94.1067 81.1251 94.0047 80.9544 93.8364C80.7934 93.6637 80.6553 93.4512 80.54 93.199C80.2341 92.5296 79.9699 91.9643 79.7474 91.503C79.5346 91.0373 79.3457 90.6369 79.1809 90.3018C79.0213 89.9525 78.8679 89.6297 78.7208 89.3334C78.5833 89.0327 78.437 88.7125 78.2819 88.373C78.1622 88.111 78.0946 87.8604 78.0791 87.6212C78.0591 87.3723 78.1125 87.1427 78.2392 86.9323C78.3659 86.722 78.57 86.5525 78.8513 86.424C79.1423 86.291 79.4195 86.2816 79.6828 86.3958C79.9558 86.5056 80.1903 86.762 80.3862 87.1651C80.4793 87.3688 80.603 87.6524 80.7573 88.0158C80.9072 88.3694 81.0722 88.769 81.2523 89.2145C81.4421 89.6555 81.6319 90.0965 81.8217 90.5375C82.0071 90.9688 82.1792 91.371 82.338 91.7441C82.4967 92.1172 82.6249 92.4105 82.7224 92.6239C82.851 92.9052 82.8798 93.1735 82.8088 93.4288C82.7334 93.6744 82.5259 93.8747 82.1863 94.0299ZM78.444 85.3787C77.988 85.5871 77.5639 85.6343 77.1718 85.5203C76.7796 85.4063 76.5037 85.1747 76.3441 84.8254C76.1845 84.4762 76.1816 84.1491 76.3355 83.8442C76.4849 83.5297 76.7488 83.2859 77.1272 83.113C77.4279 82.9756 77.7112 82.9282 77.977 82.971C78.2525 83.0092 78.4902 83.1059 78.69 83.2608C78.8854 83.4061 79.0319 83.5855 79.1294 83.7989C79.2402 84.0414 79.2567 84.3212 79.1787 84.6383C79.1061 84.9413 78.8612 85.188 78.444 85.3787ZM88.2698 91.2499C88.0176 91.3652 87.7683 91.397 87.5219 91.3454C87.271 91.2841 86.9728 91.1448 86.6272 90.9275C86.3797 90.7708 86.0937 90.5556 85.7692 90.2817C85.4499 89.9936 85.1147 89.6836 84.7636 89.3515C84.4221 89.0149 84.1108 88.7057 83.8295 88.4238C83.4279 88.0326 83.0808 87.7221 82.7881 87.4923C82.5052 87.2581 82.2709 87.0661 82.0852 86.9164C81.895 86.757 81.7376 86.6178 81.6129 86.4989C81.4935 86.3659 81.3916 86.2072 81.3074 86.0228C81.2232 85.8385 81.2153 85.6545 81.2838 85.4707C81.3523 85.2869 81.5223 85.133 81.794 85.0089C82.0947 84.8714 82.3824 84.8338 82.6571 84.8959C82.9318 84.958 83.2066 85.0846 83.4815 85.2756C83.7661 85.4622 84.0491 85.6964 84.3304 85.9783C84.6533 86.2999 84.985 86.6409 85.3256 87.0013C85.6759 87.3572 86.0288 87.7061 86.3844 88.0479C86.7496 88.3852 87.1016 88.6935 87.4403 88.9727L86.8686 89.146C86.8895 88.55 86.8994 87.9943 86.8983 87.4788C86.9026 86.9491 86.9108 86.441 86.9231 85.9546C86.9406 85.454 86.9816 84.9662 87.0459 84.4911C87.1059 84.0064 87.2068 83.5087 87.3488 82.9982C87.404 82.7853 87.484 82.6139 87.5888 82.4839C87.6936 82.3539 87.8381 82.2468 88.0225 82.1626C88.1777 82.0917 88.3335 82.0733 88.4898 82.1074C88.6558 82.1371 88.806 82.2091 88.9404 82.3236C89.0704 82.4284 89.1709 82.5584 89.2418 82.7137C89.3172 82.8786 89.3661 83.0497 89.3885 83.2271C89.4109 83.4045 89.4121 83.574 89.3922 83.7356C89.2663 84.3326 89.1707 84.8806 89.1055 85.3795C89.0358 85.8687 88.983 86.3561 88.9469 86.8417C88.9108 87.3273 88.888 87.842 88.8785 88.3858C88.869 88.9296 88.8618 89.5427 88.857 90.2251C88.8426 90.5015 88.7944 90.717 88.7127 90.8716C88.6309 91.0263 88.4833 91.1524 88.2698 91.2499ZM96.3378 87.563C95.5229 87.9354 94.7963 88.1033 94.1579 88.0666C93.5152 88.0202 92.9639 87.8148 92.5041 87.4502C92.0399 87.076 91.6659 86.5784 91.3822 85.9575C91.1472 85.4433 91.0044 84.887 90.9538 84.2886C90.9084 83.676 90.9677 83.0743 91.1316 82.4834C91.291 81.8828 91.5631 81.3362 91.9479 80.8437C92.3327 80.3512 92.8404 79.9609 93.471 79.6727C93.9852 79.4378 94.4784 79.3238 94.9507 79.3308C95.4283 79.3236 95.8607 79.4486 96.2479 79.7056C96.6306 79.9529 96.9417 80.3384 97.1811 80.8623C97.4249 81.3959 97.4591 81.9198 97.2836 82.4339C97.1177 82.9436 96.8004 83.417 96.3317 83.854C95.8585 84.2814 95.2823 84.6502 94.6032 84.9605C94.0599 85.2088 93.6126 85.3077 93.2611 85.2572C92.9149 85.1926 92.6886 85.0438 92.5822 84.811C92.5202 84.6752 92.5049 84.5649 92.5365 84.48C92.5734 84.3811 92.6646 84.2984 92.8101 84.2319C92.9169 84.1831 93.0496 84.14 93.2085 84.1026C93.377 84.0608 93.5971 83.9778 93.8687 83.8537C94.2374 83.6852 94.5548 83.4815 94.8209 83.2426C95.0967 82.9993 95.2917 82.746 95.406 82.4827C95.5202 82.2194 95.5263 81.9762 95.4244 81.7531C95.3091 81.5008 95.1596 81.3405 94.9758 81.272C94.7921 81.2035 94.5498 81.238 94.2491 81.3754C93.9289 81.5217 93.6659 81.7416 93.4599 82.0351C93.2636 82.3242 93.1279 82.6559 93.0527 83.0304C92.9828 83.3907 92.9717 83.7769 93.0193 84.1891C93.0722 84.5871 93.1851 84.9753 93.358 85.3537C93.4821 85.6253 93.6344 85.8431 93.8148 86.0069C94.0005 86.1566 94.2315 86.2387 94.5078 86.2531C94.7797 86.2579 95.1 86.176 95.4687 86.0075C96.012 85.7593 96.4436 85.4975 96.7635 85.2224C97.0886 84.933 97.3392 84.6602 97.5153 84.4038C97.701 84.143 97.8568 83.9194 97.9827 83.7329C98.1138 83.5322 98.2618 83.3942 98.4268 83.3188C98.6014 83.239 98.7519 83.2347 98.8783 83.306C99.0047 83.3772 99.1166 83.5196 99.2142 83.733C99.3206 83.9659 99.3344 84.2527 99.2556 84.5937C99.1724 84.9249 99.0027 85.2721 98.7466 85.6355C98.5001 85.9944 98.1729 86.3433 97.7648 86.6822C97.3568 87.0211 96.8811 87.3147 96.3378 87.563ZM114.843 79.1064C114.572 79.2306 114.299 79.2616 114.024 79.1994C113.745 79.1276 113.41 78.9464 113.019 78.6559C112.68 78.4006 112.315 78.0513 111.925 77.608C111.534 77.1648 111.155 76.6813 110.787 76.1577C110.419 75.6341 110.09 75.1333 109.801 74.6554C109.45 74.0656 109.154 73.585 108.914 73.2139C108.684 72.8383 108.493 72.5619 108.341 72.3848C108.186 72.1979 108.049 72.0786 107.932 72.0267C107.814 71.9749 107.697 71.9756 107.581 72.0288C107.338 72.1396 107.16 72.4436 107.048 72.9409C106.94 73.424 106.903 74.0742 106.936 74.8916C106.97 75.709 107.085 76.6533 107.281 77.7246C107.477 78.7959 107.768 79.9589 108.154 81.2134C108.245 81.4887 108.26 81.7159 108.202 81.8953C108.148 82.0604 108.01 82.194 107.787 82.296C107.428 82.46 107.091 82.4554 106.778 82.2821C106.474 82.1044 106.175 81.6954 105.883 81.0551C105.612 80.4633 105.397 79.8758 105.236 79.2926C105.084 78.705 104.949 78.1275 104.831 77.5601C104.718 76.9786 104.592 76.4085 104.454 75.85C104.316 75.2915 104.135 74.741 103.91 74.1985C103.831 74.0239 103.812 73.8681 103.855 73.7312C103.903 73.5802 104.025 73.4603 104.219 73.3716C104.393 73.2918 104.59 73.2605 104.809 73.2778C105.033 73.2808 105.269 73.3607 105.517 73.5173L104.887 74.1039C104.923 73.1027 105.093 72.2567 105.399 71.5657C105.714 70.8704 106.178 70.383 106.789 70.1037C107.429 69.8111 108.002 69.7548 108.506 69.9347C109.01 70.1147 109.521 70.5264 110.038 71.1697C110.55 71.8034 111.133 72.6687 111.787 73.7656C112.202 74.4674 112.596 75.0493 112.972 75.5111C113.347 75.9729 113.692 76.3549 114.006 76.6571C114.32 76.9592 114.585 77.2191 114.802 77.4367C115.014 77.6446 115.169 77.8553 115.266 78.0688C115.368 78.2919 115.385 78.4953 115.317 78.6791C115.253 78.8487 115.096 78.9912 114.843 79.1064ZM105.805 79.9999C105.417 80.1772 105.102 80.233 104.861 80.1673C104.616 80.0919 104.435 79.9281 104.32 79.6758C104.24 79.5012 104.227 79.3313 104.281 79.1661C104.339 78.9868 104.472 78.8029 104.679 78.6144C105.553 77.8049 106.616 77.0021 107.871 76.206C109.126 75.4098 110.568 74.6393 112.198 73.8945C112.693 73.6684 113.061 73.5882 113.302 73.6539C113.553 73.7152 113.738 73.8769 113.857 74.1388C113.999 74.4493 113.986 74.7662 113.817 75.0896C113.644 75.4034 113.329 75.6644 112.873 75.8728C112.01 76.2674 111.261 76.6445 110.628 77.0042C109.991 77.3542 109.433 77.6854 108.954 77.998C108.48 78.2965 108.063 78.5754 107.7 78.8348C107.334 79.0845 106.996 79.3089 106.689 79.5082C106.391 79.703 106.096 79.8669 105.805 79.9999ZM121.068 76.2617C120.535 76.5056 120.015 76.6377 119.508 76.6581C119.007 76.6645 118.563 76.5797 118.178 76.4039C117.798 76.214 117.531 75.9493 117.375 75.6097C117.304 75.4545 117.291 75.2965 117.335 75.1358C117.384 74.9609 117.486 74.8379 117.641 74.767C117.777 74.7049 117.919 74.6813 118.066 74.696C118.214 74.7107 118.375 74.7307 118.551 74.7559C118.727 74.7812 118.927 74.7834 119.152 74.7627C119.377 74.7419 119.635 74.665 119.926 74.532C120.392 74.3192 120.721 74.0396 120.915 73.6931C121.109 73.3467 121.088 72.9164 120.853 72.4022C120.68 72.0238 120.442 71.722 120.14 71.4966C119.833 71.2615 119.49 71.1015 119.111 71.0166C118.742 70.9273 118.363 70.9069 117.975 70.9554C117.587 71.0038 117.218 71.1079 116.869 71.2675C116.714 71.3384 116.567 71.4287 116.43 71.5385C116.288 71.6385 116.129 71.7284 115.955 71.8082C115.8 71.8792 115.624 71.9064 115.429 71.8901C115.234 71.8737 115.055 71.8149 114.891 71.7137C114.738 71.6081 114.623 71.4728 114.548 71.3079C114.37 70.9198 114.406 70.575 114.655 70.2735C114.9 69.9623 115.352 69.6559 116.012 69.3544C116.682 69.0485 117.354 68.8644 118.029 68.8022C118.704 68.7399 119.353 68.8127 119.976 69.0207C120.604 69.2145 121.175 69.54 121.689 69.9971C122.203 70.4543 122.626 71.0467 122.958 71.7743C123.136 72.1623 123.231 72.5762 123.244 73.0158C123.253 73.4457 123.181 73.8656 123.028 74.2755C122.875 74.6854 122.633 75.0659 122.301 75.4171C121.974 75.7541 121.563 76.0356 121.068 76.2617ZM120.06 81.138C119.905 81.209 119.732 81.2411 119.541 81.2344C119.35 81.2277 119.167 81.1593 118.99 81.029C118.817 80.9084 118.674 80.7219 118.558 80.4697C118.474 80.2854 118.411 80.1089 118.369 79.9404C118.342 79.7772 118.307 79.5993 118.266 79.407C118.23 79.2243 118.175 79.0148 118.102 78.7783C118.039 78.5375 117.932 78.2521 117.781 77.9222C117.533 77.3789 117.255 76.8728 116.947 76.4038C116.644 75.9206 116.328 75.449 116.001 74.9888C115.683 74.5242 115.365 74.0596 115.047 73.595C114.735 73.1163 114.442 72.6168 114.169 72.0965C114.098 71.9413 114.063 71.7992 114.062 71.6704C114.062 71.5415 114.102 71.4235 114.182 71.3166C114.262 71.2096 114.375 71.1228 114.521 71.0563C114.753 70.9499 114.998 70.9084 115.255 70.9317C115.522 70.9506 115.763 71.0282 115.977 71.1646C116.188 71.2913 116.348 71.476 116.459 71.7185C116.716 72.2812 116.996 72.8041 117.299 73.2873C117.607 73.7563 117.919 74.2063 118.233 74.6374C118.547 75.0684 118.849 75.511 119.139 75.965C119.438 76.4146 119.705 76.8965 119.94 77.4107C120.131 77.8279 120.291 78.2297 120.42 78.6161C120.554 79.0122 120.64 79.3779 120.676 79.7133C120.721 80.0443 120.694 80.3321 120.595 80.5768C120.51 80.8268 120.332 81.0139 120.06 81.138ZM129.606 72.3602C129.073 72.6041 128.552 72.7362 128.046 72.7566C127.544 72.763 127.101 72.6782 126.716 72.5024C126.336 72.3125 126.068 72.0478 125.913 71.7082C125.842 71.553 125.829 71.395 125.872 71.2343C125.921 71.0594 126.024 70.9364 126.179 70.8655C126.315 70.8034 126.456 70.7798 126.604 70.7945C126.751 70.8092 126.913 70.8292 127.088 70.8544C127.264 70.8797 127.465 70.8819 127.69 70.8612C127.915 70.8404 128.173 70.7635 128.464 70.6305C128.93 70.4177 129.259 70.1381 129.453 69.7916C129.646 69.4452 129.625 69.0149 129.39 68.5007C129.218 68.1223 128.98 67.8205 128.678 67.5951C128.371 67.36 128.028 67.2 127.649 67.1151C127.28 67.0258 126.901 67.0054 126.513 67.0539C126.124 67.1023 125.756 67.2064 125.406 67.366C125.251 67.4369 125.105 67.5272 124.967 67.637C124.825 67.737 124.667 67.8269 124.492 67.9067C124.337 67.9777 124.162 68.0049 123.967 67.9886C123.772 67.9722 123.592 67.9134 123.429 67.8122C123.275 67.7066 123.161 67.5713 123.085 67.4064C122.908 67.0183 122.944 66.6735 123.193 66.372C123.438 66.0608 123.89 65.7544 124.55 65.4529C125.219 65.147 125.892 64.9629 126.567 64.9007C127.242 64.8384 127.891 64.9112 128.514 65.1192C129.142 65.313 129.713 65.6385 130.226 66.0956C130.74 66.5528 131.163 67.1452 131.496 67.8728C131.673 68.2608 131.769 68.6747 131.782 69.1143C131.791 69.5442 131.719 69.9641 131.566 70.374C131.413 70.7839 131.171 71.1644 130.839 71.5156C130.512 71.8526 130.101 72.1341 129.606 72.3602ZM128.598 77.2365C128.442 77.3075 128.269 77.3396 128.079 77.3329C127.888 77.3262 127.704 77.2578 127.527 77.1275C127.355 77.0069 127.211 76.8204 127.096 76.5682C127.012 76.3839 126.949 76.2074 126.907 76.0389C126.879 75.8757 126.845 75.6978 126.804 75.5055C126.767 75.3228 126.713 75.1133 126.64 74.8768C126.577 74.636 126.47 74.3506 126.319 74.0207C125.986 73.2931 125.609 72.6212 125.187 72.005C124.764 71.3888 124.337 70.7748 123.905 70.163C123.469 69.5415 123.069 68.8855 122.707 68.195C122.6 67.9622 122.577 67.7561 122.635 67.5768C122.704 67.393 122.845 67.2524 123.058 67.1548C123.291 67.0484 123.536 67.0069 123.793 67.0302C124.06 67.0491 124.3 67.1267 124.515 67.2631C124.725 67.3898 124.886 67.5745 124.997 67.817C125.254 68.3797 125.534 68.9026 125.837 69.3858C126.145 69.8548 126.456 70.3048 126.77 70.7359C127.085 71.1669 127.387 71.6095 127.676 72.0635C127.975 72.5131 128.243 72.995 128.478 73.5092C128.668 73.9264 128.828 74.3282 128.958 74.7146C129.092 75.1107 129.177 75.4764 129.213 75.8118C129.259 76.1428 129.232 76.4306 129.133 76.6753C129.048 76.9253 128.869 77.1124 128.598 77.2365ZM135.616 69.649C135.412 69.7421 135.206 69.7659 134.998 69.7204C134.795 69.6608 134.599 69.5393 134.409 69.3561C134.22 69.1729 134.061 68.9406 133.933 68.6592C133.635 68.0092 133.344 67.4095 133.058 66.8601C132.771 66.3107 132.492 65.8284 132.22 65.4131C131.954 64.9838 131.689 64.6356 131.426 64.3686C131.238 64.1616 131.1 64.0016 131.014 63.8888C130.937 63.7715 130.869 63.6499 130.812 63.5237C130.723 63.3297 130.71 63.1479 130.774 62.9783C130.846 62.8042 131.014 62.6573 131.276 62.5376C131.518 62.4268 131.763 62.3972 132.009 62.4487C132.261 62.4862 132.526 62.6291 132.803 62.8775C133.081 63.1259 133.385 63.5088 133.715 64.0264C134.046 64.5439 134.411 65.2154 134.812 66.0409L134.064 66.3297C133.873 65.5259 133.786 64.7973 133.804 64.144C133.828 63.4766 133.934 62.8885 134.124 62.3796C134.323 61.8663 134.579 61.4385 134.892 61.0963C135.2 60.7443 135.539 60.4841 135.907 60.3156C136.247 60.1604 136.529 60.1369 136.755 60.245C136.99 60.3487 137.174 60.5461 137.307 60.8372C137.4 61.0409 137.416 61.2563 137.356 61.4833C137.291 61.7006 137.134 61.948 136.886 62.2257C136.46 62.6547 136.139 63.0946 135.923 63.5452C135.716 63.9915 135.588 64.4547 135.538 64.9351C135.497 65.411 135.521 65.8987 135.608 66.3981C135.706 66.8932 135.845 67.404 136.027 67.9307C136.144 68.288 136.2 68.5787 136.197 68.803C136.204 69.0228 136.155 69.1977 136.05 69.3276C135.955 69.4532 135.81 69.5603 135.616 69.649ZM144.851 65.429C144.036 65.8014 143.238 65.9668 142.456 65.9251C141.685 65.879 140.986 65.6469 140.361 65.2288C139.742 64.7966 139.261 64.207 138.92 63.46C138.685 62.9458 138.567 62.419 138.567 61.8796C138.572 61.3261 138.662 60.8042 138.837 60.3139C139.007 59.8139 139.237 59.3805 139.527 59.0135C139.816 58.6466 140.131 58.3855 140.47 58.2304C140.616 58.1639 140.758 58.1283 140.897 58.1236C141.04 58.1048 141.173 58.1261 141.295 58.1877C141.417 58.2492 141.516 58.3625 141.591 58.5274C141.724 58.8184 141.781 59.1092 141.761 59.3997C141.747 59.676 141.584 59.9734 141.272 60.2918C141.087 60.5288 140.942 60.7767 140.838 61.0356C140.733 61.2944 140.678 61.5598 140.674 61.8317C140.669 62.1036 140.722 62.3608 140.833 62.6034C141.121 63.234 141.553 63.6524 142.128 63.8587C142.698 64.0553 143.314 64.0029 143.973 63.7014C144.536 63.4443 144.903 63.0419 145.075 62.4942C145.247 61.9465 145.185 61.3477 144.888 60.6977C144.626 60.1253 144.269 59.7429 143.818 59.5505C143.372 59.3439 142.896 59.3559 142.392 59.5864C142.14 59.7017 141.958 59.8552 141.846 60.047C141.744 60.2344 141.64 60.4694 141.535 60.7521C141.456 60.9641 141.39 61.1408 141.337 61.2822C141.294 61.4191 141.235 61.534 141.161 61.6268C141.086 61.7197 140.975 61.7993 140.83 61.8658C140.675 61.9368 140.512 61.9406 140.343 61.8774C140.173 61.8142 140.015 61.6225 139.869 61.3023C139.749 61.0404 139.702 60.7452 139.728 60.4168C139.749 60.0786 139.833 59.7474 139.978 59.4231C140.128 59.0847 140.322 58.7789 140.561 58.5056C140.8 58.2324 141.079 58.0226 141.399 57.8763C142.175 57.5216 142.909 57.3683 143.599 57.4163C144.295 57.4502 144.912 57.6723 145.452 58.0826C145.996 58.4788 146.439 59.0504 146.781 59.7974C147.122 60.5444 147.263 61.2892 147.204 62.0318C147.144 62.7743 146.913 63.4488 146.51 64.0552C146.112 64.6474 145.559 65.1054 144.851 65.429ZM152.038 62.1094C151.553 62.331 151.087 62.4269 150.639 62.3969C150.191 62.3669 149.786 62.2238 149.423 61.9676C149.055 61.7018 148.765 61.336 148.552 60.8703C148.33 60.3852 148.184 59.8598 148.113 59.2941C148.047 58.7143 148.051 58.1321 148.124 57.5475C148.197 56.963 148.343 56.4096 148.562 55.8874C148.776 55.3556 149.055 54.888 149.398 54.4848C149.742 54.0815 150.141 53.7757 150.597 53.5674C150.918 53.4211 151.229 53.3962 151.531 53.4927C151.833 53.5892 152.066 53.8169 152.23 54.1759C152.297 54.3214 152.306 54.4577 152.259 54.585C152.217 54.698 152.134 54.8002 152.012 54.8913C151.416 55.281 150.964 55.7806 150.656 56.3904C150.344 56.9904 150.171 57.6264 150.138 58.2982C150.11 58.956 150.23 59.5759 150.496 60.158C150.589 60.3617 150.69 60.5442 150.799 60.7056C150.913 60.8528 151.083 61.033 151.309 61.2461L149.787 60.3408C150.105 60.4187 150.361 60.454 150.557 60.4465C150.763 60.4346 150.987 60.3733 151.229 60.2624C151.773 60.0142 152.117 59.4582 152.261 58.5946C152.406 57.7309 152.288 56.6241 151.905 55.2742C151.846 55.0431 151.863 54.836 151.956 54.6531C152.043 54.4605 152.189 54.3176 152.393 54.2245C152.723 54.0738 153.049 54.0422 153.37 54.1299C153.692 54.2175 153.96 54.394 154.175 54.6592C154.542 55.0778 154.882 55.462 155.194 55.8119C155.502 56.152 155.837 56.4621 156.2 56.7421C156.568 57.0079 157.007 57.2644 157.519 57.5114C157.697 57.594 157.829 57.7275 157.913 57.9118C158.007 58.0917 158.059 58.2964 158.07 58.5259C158.087 58.7413 158.051 58.9453 157.963 59.1379C157.881 59.3164 157.737 59.4522 157.534 59.5453C157.369 59.6207 157.217 59.6488 157.08 59.6296C156.956 59.6158 156.835 59.5829 156.718 59.531C156.394 59.3622 156.095 59.1942 155.819 59.027C155.539 58.8501 155.264 58.6472 154.996 58.4182C154.722 58.1795 154.441 57.8976 154.152 57.5725C153.858 57.2376 153.545 56.8352 153.213 56.3654L153.877 56.0092C154.136 57.1925 154.209 58.1974 154.094 59.0239C153.979 59.8504 153.731 60.5147 153.351 61.0169C152.98 61.5147 152.543 61.8788 152.038 62.1094ZM162.643 57.2458C161.886 57.5916 161.176 57.7458 160.514 57.7083C159.862 57.6663 159.282 57.4622 158.774 57.096C158.272 56.7157 157.87 56.1956 157.569 55.5359C157.294 54.9344 157.16 54.3212 157.168 53.6961C157.185 53.0667 157.319 52.4604 157.568 51.8772C157.827 51.2897 158.19 50.7606 158.655 50.29C159.115 49.8097 159.661 49.4255 160.292 49.1373C160.554 49.0176 160.806 48.9549 161.05 48.9491C161.303 48.9389 161.528 48.9945 161.724 49.1159C161.916 49.2276 162.074 49.4193 162.198 49.691C162.331 49.982 162.381 50.2582 162.348 50.5196C162.311 50.7713 162.181 50.9481 161.957 51.0501C161.831 51.1077 161.723 51.1278 161.633 51.1103C161.548 51.0787 161.461 51.0542 161.371 51.0367C161.286 51.0051 161.156 51.0292 160.982 51.109C160.497 51.3306 160.111 51.6417 159.825 52.0422C159.539 52.4427 159.371 52.8831 159.32 53.3634C159.266 53.834 159.34 54.2925 159.544 54.7388C159.668 55.0104 159.83 55.2237 160.03 55.3787C160.24 55.5292 160.487 55.6095 160.774 55.6195C161.069 55.6251 161.411 55.5392 161.799 55.3619C162.187 55.1846 162.468 55.0035 162.642 54.8186C162.82 54.6196 162.946 54.4331 163.019 54.259C163.088 54.0753 163.153 53.9105 163.216 53.7647C163.278 53.619 163.392 53.5084 163.556 53.433C163.76 53.3399 163.939 53.3342 164.094 53.416C164.249 53.4978 164.384 53.6648 164.499 53.9171C164.681 54.3149 164.721 54.7244 164.621 55.1457C164.525 55.5528 164.306 55.9461 163.964 56.3255C163.616 56.6952 163.176 57.002 162.643 57.2458ZM167.915 54.819C167.672 54.9298 167.425 54.9546 167.175 54.8933C166.924 54.832 166.681 54.6851 166.445 54.4525C166.22 54.2155 166.021 53.9078 165.848 53.5294C165.413 52.5787 165.067 51.705 164.808 50.9083C164.55 50.1117 164.329 49.3856 164.147 48.7301C163.96 48.0648 163.764 47.4685 163.558 46.941C163.408 46.5873 163.266 46.2887 163.131 46.0454C163.006 45.7976 162.883 45.5784 162.761 45.388C162.644 45.1834 162.541 44.9722 162.453 44.7543C162.37 44.5462 162.356 44.3357 162.411 44.1228C162.462 43.9002 162.633 43.7224 162.924 43.5894C163.195 43.4653 163.463 43.4484 163.727 43.5388C163.987 43.6195 164.254 43.8437 164.527 44.2112C164.806 44.5647 165.086 45.0876 165.367 45.78C165.546 46.2731 165.72 46.821 165.89 47.4236C166.06 48.0262 166.267 48.6993 166.514 49.443C166.765 50.1726 167.097 50.9765 167.51 51.855L166.761 51.3705C166.708 50.1515 166.725 49.1354 166.811 48.3222C166.906 47.5045 167.081 46.8615 167.336 46.3931C167.587 45.915 167.906 45.5873 168.294 45.41C168.799 45.1794 169.253 45.1476 169.658 45.3145C170.072 45.477 170.472 45.7989 170.856 46.2801C171.245 46.7472 171.654 47.3462 172.082 48.0772C172.388 48.5939 172.651 49.0016 172.869 49.3005C173.093 49.5851 173.288 49.8068 173.455 49.9653C173.626 50.1098 173.791 50.2396 173.949 50.355C174.038 50.4201 174.121 50.4994 174.199 50.5928C174.286 50.6818 174.354 50.7797 174.403 50.8864C174.518 51.1386 174.529 51.38 174.435 51.6106C174.351 51.8368 174.168 52.0142 173.887 52.1427C173.547 52.2979 173.213 52.31 172.883 52.1792C172.553 52.0483 172.23 51.815 171.912 51.4793C171.595 51.1436 171.294 50.7417 171.009 50.2735C170.69 49.7277 170.419 49.2886 170.196 48.9562C169.97 48.6142 169.769 48.3423 169.595 48.1404C169.421 47.9386 169.243 47.7677 169.062 47.6277C168.914 47.7658 168.78 48.1024 168.661 48.6376C168.542 49.1728 168.465 49.8765 168.43 50.7488C168.394 51.621 168.421 52.6291 168.51 53.773C168.518 54.074 168.475 54.2992 168.379 54.4486C168.283 54.598 168.128 54.7214 167.915 54.819ZM179.227 49.6845C178.413 50.0569 177.686 50.2248 177.048 50.1881C176.405 50.1417 175.854 49.9363 175.394 49.5717C174.93 49.1975 174.556 48.6999 174.272 48.079C174.037 47.5648 173.894 47.0085 173.843 46.4101C173.798 45.7975 173.857 45.1958 174.021 44.6049C174.181 44.0042 174.453 43.4577 174.838 42.9652C175.222 42.4727 175.73 42.0824 176.361 41.7942C177.137 41.4396 177.861 41.3551 178.532 41.5409C179.199 41.717 179.712 42.198 180.071 42.9838C180.315 43.5174 180.349 44.0413 180.173 44.5554C180.007 45.0651 179.69 45.5385 179.221 45.9755C178.748 46.4028 178.172 46.7717 177.493 47.082C176.95 47.3303 176.502 47.4292 176.151 47.3787C175.805 47.3141 175.578 47.1653 175.472 46.9325C175.41 46.7967 175.395 46.6863 175.426 46.6015C175.463 46.5026 175.554 46.4199 175.7 46.3534C175.807 46.3046 175.939 46.2615 176.098 46.2241C176.267 46.1823 176.487 46.0993 176.758 45.9752C177.127 45.8067 177.444 45.603 177.711 45.3641C177.986 45.1208 178.181 44.8675 178.296 44.6042C178.41 44.3409 178.416 44.0977 178.314 43.8745C178.199 43.6223 178.049 43.4619 177.865 43.3934C177.682 43.325 177.439 43.3594 177.139 43.4969C176.702 43.6964 176.378 44.0144 176.167 44.4509C175.966 44.883 175.873 45.3714 175.887 45.916C175.897 46.4509 176.017 46.9707 176.248 47.4752C176.372 47.7468 176.524 47.9645 176.704 48.1284C176.89 48.2781 177.121 48.3601 177.397 48.3746C177.669 48.3793 177.99 48.2975 178.358 48.129C178.902 47.8807 179.333 47.619 179.653 47.3438C179.978 47.0545 180.229 46.7817 180.405 46.5253C180.591 46.2645 180.746 46.0409 180.872 45.8543C181.003 45.6537 181.152 45.5157 181.316 45.4403C181.491 45.3605 181.642 45.3562 181.768 45.4275C181.894 45.4987 182.006 45.6411 182.104 45.8545C182.21 46.0873 182.224 46.3742 182.145 46.7151C182.062 47.0463 181.892 47.3936 181.636 47.757C181.39 48.1159 181.063 48.4648 180.654 48.8037C180.246 49.1426 179.771 49.4362 179.227 49.6845ZM186.314 46.4463C185.77 46.6946 185.293 46.8306 184.882 46.8544C184.466 46.8685 184.122 46.7968 183.851 46.6393C183.58 46.4818 183.386 46.277 183.271 46.0247C183.183 45.8307 183.17 45.6488 183.233 45.4792C183.292 45.2999 183.438 45.157 183.67 45.0506C183.787 44.9974 183.902 44.9681 184.017 44.9625C184.142 44.9526 184.275 44.9501 184.418 44.9551C184.557 44.9504 184.713 44.932 184.886 44.8999C185.068 44.8633 185.276 44.7918 185.509 44.6854C186.072 44.4283 186.511 44.1573 186.826 43.8724C187.147 43.5734 187.332 43.2601 187.382 42.9324C187.224 42.8171 187.003 42.7712 186.721 42.7947C186.438 42.8183 186.122 42.8692 185.77 42.9476C185.419 43.026 185.049 43.1013 184.66 43.1736C184.28 43.2415 183.914 43.274 183.561 43.2712C183.208 43.2684 182.886 43.1926 182.595 43.044C182.3 42.8857 182.066 42.6174 181.893 42.239C181.702 41.8219 181.653 41.4048 181.744 40.988C181.835 40.5711 182.023 40.1744 182.308 39.7977C182.598 39.407 182.95 39.0589 183.361 38.7535C183.782 38.4437 184.221 38.1846 184.677 37.9762C185.036 37.8122 185.354 37.7374 185.63 37.7518C185.916 37.7619 186.159 37.8324 186.36 37.9636C186.556 38.085 186.703 38.2524 186.801 38.4659C186.898 38.6793 186.918 38.8757 186.859 39.055C186.81 39.2299 186.688 39.3617 186.494 39.4503C186.388 39.4991 186.288 39.5386 186.197 39.5688C186.105 39.599 186.003 39.6336 185.892 39.6727C185.786 39.6976 185.651 39.7478 185.486 39.8231C184.991 40.0492 184.588 40.3096 184.277 40.6042C183.976 40.8943 183.781 41.2002 183.694 41.5217C183.833 41.6459 184.038 41.6984 184.311 41.6793C184.594 41.6558 184.915 41.6026 185.276 41.5198C185.647 41.4326 186.027 41.3528 186.416 41.2805C186.81 41.1941 187.189 41.1501 187.552 41.1484C187.924 41.1424 188.261 41.2115 188.561 41.3556C188.857 41.4901 189.089 41.7417 189.258 42.1103C189.524 42.6924 189.557 43.252 189.357 43.7892C189.162 44.3122 188.794 44.8029 188.252 45.2612C187.717 45.7055 187.07 46.1005 186.314 46.4463Z" fill="black"/>
</svg>
