<svg width="125" height="294" viewBox="0 0 125 294" fill="none" xmlns="http://www.w3.org/2000/svg">
<path d="M2 1H105M0 146H75.5M104 1.5V143M80 172V293H1" stroke="#C6C6C6" stroke-dasharray="8 8"/>
<rect x="56" y="112" width="69" height="69" rx="4" fill="#EA7343"/>
<path d="M71.5982 130.662L71.3589 130.891V144.443V157.985H70.0669C68.8132 157.985 68.7558 157.994 68.5357 158.224C68.2199 158.53 68.2199 158.971 68.5357 159.277C68.7558 159.506 68.8132 159.516 70.0669 159.516H71.3589V160.808C71.3589 162.062 71.3685 162.119 71.5982 162.339C71.9044 162.655 72.3447 162.655 72.6509 162.339C72.8806 162.119 72.8902 162.062 72.8902 160.808V159.516H92.5572H112.234L112.463 159.277C112.779 158.971 112.779 158.53 112.463 158.224L112.234 157.985H92.5572H72.8902V144.443V130.891L72.6509 130.662C72.5074 130.508 72.3064 130.422 72.1246 130.422C71.9427 130.422 71.7417 130.508 71.5982 130.662Z" fill="white"/>
<path d="M109.975 130.508C109.276 130.68 108.673 131.169 108.386 131.81C108.118 132.384 108.147 133.245 108.444 133.81C108.578 134.059 108.654 134.317 108.626 134.375C108.559 134.489 101.113 146.041 101.065 146.108C101.046 146.127 100.874 146.06 100.673 145.964C99.9931 145.629 99.0552 145.725 98.2896 146.213C98.1078 146.328 97.8015 146.165 94.6816 144.289C91.265 142.241 91.265 142.241 91.265 141.916C91.265 140.71 90.174 139.61 88.9873 139.61C88.3652 139.61 87.8867 139.82 87.389 140.327C86.7191 140.988 86.5085 141.792 86.7765 142.576L86.8914 142.883L83.0728 146.701C79.972 149.802 79.216 150.52 79.0628 150.472C78.1058 150.185 77.3402 150.367 76.6703 151.037C75.7037 152.013 75.7037 153.238 76.6703 154.204C77.6464 155.19 78.9958 155.171 79.905 154.156C80.508 153.487 80.6707 152.711 80.4027 151.812C80.3548 151.659 81.0726 150.903 84.1638 147.802L87.9824 143.993L88.346 144.108C88.8341 144.27 89.5423 144.175 90.107 143.868L90.5568 143.62L93.9734 145.658C97.3804 147.696 97.3804 147.696 97.39 148.022C97.39 148.644 97.6101 149.113 98.1078 149.611C99.0648 150.577 100.414 150.568 101.314 149.601C101.783 149.084 101.898 148.835 101.974 148.031L102.032 147.409L106.051 141.217L110.071 135.016H110.549C112.205 135.006 113.258 133.15 112.454 131.666C112.147 131.092 111.583 130.661 110.97 130.527C110.492 130.413 110.377 130.413 109.975 130.508ZM110.932 132.193C111.085 132.336 111.171 132.537 111.171 132.719C111.171 132.901 111.085 133.102 110.932 133.245C110.788 133.398 110.587 133.485 110.406 133.485C110.224 133.485 110.023 133.398 109.879 133.245C109.726 133.102 109.64 132.901 109.64 132.719C109.64 132.537 109.726 132.336 109.879 132.193C110.023 132.039 110.224 131.953 110.406 131.953C110.587 131.953 110.788 132.039 110.932 132.193ZM89.4945 141.38C89.973 141.849 89.638 142.672 88.9681 142.672C88.5757 142.672 88.2025 142.299 88.2025 141.906C88.2025 141.514 88.5757 141.141 88.9681 141.141C89.15 141.141 89.3509 141.227 89.4945 141.38ZM100.213 147.505C100.692 147.974 100.357 148.797 99.6869 148.797C99.2945 148.797 98.9212 148.424 98.9212 148.031C98.9212 147.639 99.2945 147.266 99.6869 147.266C99.8687 147.266 100.07 147.352 100.213 147.505ZM78.7757 152.099C79.2542 152.568 78.9193 153.391 78.2494 153.391C78.0675 153.391 77.8666 153.305 77.723 153.152C77.5699 153.008 77.4837 152.807 77.4837 152.625C77.4837 152.443 77.5699 152.242 77.723 152.099C77.8666 151.946 78.0675 151.86 78.2494 151.86C78.4312 151.86 78.6322 151.946 78.7757 152.099Z" fill="white"/>
</svg>
