<svg width="252" height="73" viewBox="0 0 252 73" fill="none" xmlns="http://www.w3.org/2000/svg">
<path d="M97.23 34V30.88H102.81C104.45 30.88 105.85 30.55 107.01 29.89C108.17 29.23 109.05 28.31 109.65 27.13C110.27 25.95 110.58 24.6 110.58 23.08C110.58 21.58 110.27 20.26 109.65 19.12C109.05 17.98 108.17 17.1 107.01 16.48C105.87 15.84 104.47 15.52 102.81 15.52H97.29V12.4H102.81C105.17 12.4 107.23 12.84 108.99 13.72C110.75 14.6 112.11 15.85 113.07 17.47C114.05 19.07 114.54 20.96 114.54 23.14C114.54 25.32 114.05 27.23 113.07 28.87C112.09 30.49 110.72 31.75 108.96 32.65C107.22 33.55 105.18 34 102.84 34H97.23ZM94.86 34V12.4H98.76V34H94.86ZM117.51 34V18.7H121.29V34H117.51ZM117.33 16.18V12.01H121.44V16.18H117.33ZM131.906 40.45C129.886 40.45 128.226 40.01 126.926 39.13C125.646 38.25 124.886 37.06 124.646 35.56H128.246C128.426 36.08 128.816 36.48 129.416 36.76C130.036 37.06 130.836 37.21 131.816 37.21C133.236 37.21 134.286 36.89 134.966 36.25C135.646 35.63 135.986 34.68 135.986 33.4V30.1L136.256 30.16C136.016 31.28 135.406 32.18 134.426 32.86C133.446 33.52 132.246 33.85 130.826 33.85C129.466 33.85 128.276 33.53 127.256 32.89C126.256 32.25 125.476 31.36 124.916 30.22C124.356 29.06 124.076 27.71 124.076 26.17C124.076 24.61 124.366 23.25 124.946 22.09C125.526 20.93 126.336 20.03 127.376 19.39C128.436 18.73 129.666 18.4 131.066 18.4C132.506 18.4 133.686 18.75 134.606 19.45C135.546 20.13 136.126 21.08 136.346 22.3L136.106 22.33V18.7H139.796V33.37C139.796 35.55 139.086 37.27 137.666 38.53C136.266 39.81 134.346 40.45 131.906 40.45ZM132.056 30.85C133.276 30.85 134.246 30.44 134.966 29.62C135.706 28.78 136.076 27.61 136.076 26.11C136.076 24.61 135.706 23.45 134.966 22.63C134.226 21.81 133.246 21.4 132.026 21.4C130.826 21.4 129.856 21.82 129.116 22.66C128.376 23.48 128.006 24.64 128.006 26.14C128.006 27.64 128.376 28.8 129.116 29.62C129.856 30.44 130.836 30.85 132.056 30.85ZM143.819 34V18.7H147.599V34H143.819ZM143.639 16.18V12.01H147.749V16.18H143.639ZM159.539 34.27C156.819 34.27 154.649 33.65 153.029 32.41C151.429 31.15 150.489 29.38 150.209 27.1H153.959C154.139 28.42 154.729 29.45 155.729 30.19C156.729 30.91 158.039 31.27 159.659 31.27C160.999 31.27 162.019 31.03 162.719 30.55C163.439 30.05 163.799 29.36 163.799 28.48C163.799 27.7 163.579 27.07 163.139 26.59C162.699 26.11 161.959 25.72 160.919 25.42L157.019 24.25C155.039 23.65 153.579 22.86 152.639 21.88C151.719 20.9 151.259 19.67 151.259 18.19C151.259 16.95 151.579 15.87 152.219 14.95C152.859 14.03 153.759 13.32 154.919 12.82C156.099 12.32 157.469 12.07 159.029 12.07C161.429 12.07 163.339 12.66 164.759 13.84C166.199 15 167.019 16.58 167.219 18.58H163.469C163.249 17.38 162.749 16.5 161.969 15.94C161.189 15.36 160.139 15.07 158.819 15.07C157.659 15.07 156.739 15.3 156.059 15.76C155.379 16.22 155.039 16.85 155.039 17.65C155.039 18.31 155.239 18.87 155.639 19.33C156.059 19.79 156.829 20.19 157.949 20.53L161.909 21.73C163.889 22.31 165.329 23.1 166.229 24.1C167.129 25.1 167.579 26.37 167.579 27.91C167.579 29.95 166.869 31.52 165.449 32.62C164.049 33.72 162.079 34.27 159.539 34.27ZM179.15 34.3C177.69 34.3 176.5 33.96 175.58 33.28C174.68 32.58 174.12 31.62 173.9 30.4L174.2 30.37V40.15H170.42V18.7H174.11V22.15L173.81 22.09C174.09 20.95 174.73 20.05 175.73 19.39C176.73 18.73 177.95 18.4 179.39 18.4C180.75 18.4 181.93 18.73 182.93 19.39C183.95 20.03 184.74 20.94 185.3 22.12C185.86 23.3 186.14 24.69 186.14 26.29C186.14 27.91 185.85 29.32 185.27 30.52C184.69 31.72 183.88 32.65 182.84 33.31C181.8 33.97 180.57 34.3 179.15 34.3ZM178.19 31.18C179.41 31.18 180.38 30.76 181.1 29.92C181.82 29.06 182.18 27.86 182.18 26.32C182.18 24.78 181.81 23.59 181.07 22.75C180.35 21.91 179.38 21.49 178.16 21.49C176.96 21.49 175.99 21.92 175.25 22.78C174.51 23.62 174.14 24.81 174.14 26.35C174.14 27.89 174.51 29.08 175.25 29.92C175.99 30.76 176.97 31.18 178.19 31.18ZM189.053 34V12.4H192.833V34H189.053ZM199.793 34V24.34C199.793 23.4 199.553 22.69 199.073 22.21C198.593 21.73 197.893 21.49 196.973 21.49C196.173 21.49 195.453 21.67 194.813 22.03C194.193 22.39 193.703 22.89 193.343 23.53C193.003 24.17 192.833 24.91 192.833 25.75L192.443 22.09C192.963 20.97 193.723 20.08 194.723 19.42C195.723 18.74 196.923 18.4 198.323 18.4C199.983 18.4 201.273 18.87 202.193 19.81C203.133 20.75 203.603 22 203.603 23.56V34H199.793ZM214.292 34.3C212.672 34.3 211.252 33.96 210.032 33.28C208.832 32.6 207.892 31.66 207.212 30.46C206.552 29.26 206.222 27.88 206.222 26.32C206.222 24.76 206.552 23.39 207.212 22.21C207.892 21.01 208.832 20.08 210.032 19.42C211.232 18.74 212.632 18.4 214.232 18.4C215.752 18.4 217.072 18.72 218.192 19.36C219.312 19.98 220.182 20.86 220.802 22C221.422 23.14 221.732 24.47 221.732 25.99C221.732 26.27 221.722 26.53 221.702 26.77C221.682 27.01 221.652 27.25 221.612 27.49H208.562V24.85H218.702L217.922 25.57C217.922 24.13 217.592 23.05 216.932 22.33C216.272 21.61 215.352 21.25 214.172 21.25C212.892 21.25 211.872 21.69 211.112 22.57C210.372 23.45 210.002 24.72 210.002 26.38C210.002 28.02 210.372 29.28 211.112 30.16C211.872 31.02 212.942 31.45 214.322 31.45C215.122 31.45 215.822 31.3 216.422 31C217.022 30.7 217.462 30.24 217.742 29.62H221.312C220.812 31.06 219.962 32.2 218.762 33.04C217.582 33.88 216.092 34.3 214.292 34.3ZM224.561 34V18.7H228.251V22.39H228.341V34H224.561ZM228.341 26.02L227.951 22.39C228.311 21.09 228.921 20.1 229.781 19.42C230.641 18.74 231.671 18.4 232.871 18.4C233.291 18.4 233.591 18.44 233.771 18.52V22.09C233.671 22.05 233.531 22.03 233.351 22.03C233.171 22.01 232.951 22 232.691 22C231.231 22 230.141 22.32 229.421 22.96C228.701 23.6 228.341 24.62 228.341 26.02ZM242.798 34.3C241.178 34.3 239.758 33.96 238.538 33.28C237.338 32.6 236.398 31.66 235.718 30.46C235.058 29.26 234.728 27.88 234.728 26.32C234.728 24.76 235.058 23.39 235.718 22.21C236.398 21.01 237.338 20.08 238.538 19.42C239.738 18.74 241.138 18.4 242.738 18.4C244.258 18.4 245.578 18.72 246.698 19.36C247.818 19.98 248.688 20.86 249.308 22C249.928 23.14 250.238 24.47 250.238 25.99C250.238 26.27 250.228 26.53 250.208 26.77C250.188 27.01 250.158 27.25 250.118 27.49H237.068V24.85H247.208L246.428 25.57C246.428 24.13 246.098 23.05 245.438 22.33C244.778 21.61 243.858 21.25 242.678 21.25C241.398 21.25 240.378 21.69 239.618 22.57C238.878 23.45 238.508 24.72 238.508 26.38C238.508 28.02 238.878 29.28 239.618 30.16C240.378 31.02 241.448 31.45 242.828 31.45C243.628 31.45 244.328 31.3 244.928 31C245.528 30.7 245.968 30.24 246.248 29.62H249.818C249.318 31.06 248.468 32.2 247.268 33.04C246.088 33.88 244.598 34.3 242.798 34.3Z" fill="white"/>
<path d="M98.806 61V49.894H94.504V48.04H105.448V49.894H101.146V61H98.806ZM109.242 61.18C108.27 61.18 107.418 60.976 106.686 60.568C105.966 60.16 105.402 59.596 104.994 58.876C104.598 58.156 104.4 57.328 104.4 56.392C104.4 55.456 104.598 54.634 104.994 53.926C105.402 53.206 105.966 52.648 106.686 52.252C107.406 51.844 108.246 51.64 109.206 51.64C110.118 51.64 110.91 51.832 111.582 52.216C112.254 52.588 112.776 53.116 113.148 53.8C113.52 54.484 113.706 55.282 113.706 56.194C113.706 56.362 113.7 56.518 113.688 56.662C113.676 56.806 113.658 56.95 113.634 57.094H105.804V55.51H111.888L111.42 55.942C111.42 55.078 111.222 54.43 110.826 53.998C110.43 53.566 109.878 53.35 109.17 53.35C108.402 53.35 107.79 53.614 107.334 54.142C106.89 54.67 106.668 55.432 106.668 56.428C106.668 57.412 106.89 58.168 107.334 58.696C107.79 59.212 108.432 59.47 109.26 59.47C109.74 59.47 110.16 59.38 110.52 59.2C110.88 59.02 111.144 58.744 111.312 58.372H113.454C113.154 59.236 112.644 59.92 111.924 60.424C111.216 60.928 110.322 61.18 109.242 61.18ZM119.504 61.18C118.58 61.18 117.764 60.976 117.056 60.568C116.36 60.16 115.808 59.596 115.4 58.876C115.004 58.144 114.806 57.316 114.806 56.392C114.806 55.468 115.004 54.652 115.4 53.944C115.808 53.224 116.36 52.66 117.056 52.252C117.764 51.844 118.58 51.64 119.504 51.64C120.26 51.64 120.944 51.784 121.556 52.072C122.168 52.348 122.672 52.744 123.068 53.26C123.464 53.764 123.716 54.352 123.824 55.024H121.646C121.514 54.532 121.262 54.148 120.89 53.872C120.518 53.596 120.068 53.458 119.54 53.458C119.048 53.458 118.622 53.578 118.262 53.818C117.914 54.058 117.644 54.4 117.452 54.844C117.26 55.288 117.164 55.804 117.164 56.392C117.164 56.992 117.26 57.514 117.452 57.958C117.644 58.402 117.92 58.75 118.28 59.002C118.64 59.242 119.06 59.362 119.54 59.362C120.068 59.362 120.518 59.224 120.89 58.948C121.262 58.672 121.514 58.288 121.646 57.796H123.824C123.716 58.468 123.458 59.062 123.05 59.578C122.654 60.082 122.15 60.478 121.538 60.766C120.938 61.042 120.26 61.18 119.504 61.18ZM125.458 61V48.04H127.726V61H125.458ZM131.902 61V55.204C131.902 54.64 131.758 54.214 131.47 53.926C131.182 53.638 130.762 53.494 130.21 53.494C129.73 53.494 129.298 53.602 128.914 53.818C128.542 54.034 128.248 54.334 128.032 54.718C127.828 55.102 127.726 55.546 127.726 56.05L127.492 53.854C127.804 53.182 128.26 52.648 128.86 52.252C129.46 51.844 130.18 51.64 131.02 51.64C132.016 51.64 132.79 51.922 133.342 52.486C133.906 53.05 134.188 53.8 134.188 54.736V61H131.902ZM145.792 61.18C144.868 61.18 144.016 61.018 143.236 60.694C142.468 60.358 141.796 59.89 141.22 59.29C140.644 58.69 140.2 57.982 139.888 57.166C139.576 56.35 139.42 55.456 139.42 54.484C139.42 53.512 139.576 52.624 139.888 51.82C140.2 51.016 140.638 50.32 141.202 49.732C141.778 49.132 142.45 48.67 143.218 48.346C143.998 48.022 144.856 47.86 145.792 47.86C146.824 47.86 147.754 48.064 148.582 48.472C149.41 48.88 150.088 49.456 150.616 50.2C151.156 50.932 151.486 51.796 151.606 52.792H149.302C149.158 51.82 148.768 51.076 148.132 50.56C147.496 50.032 146.722 49.768 145.81 49.768C145.006 49.768 144.304 49.96 143.704 50.344C143.104 50.728 142.636 51.274 142.3 51.982C141.964 52.678 141.796 53.506 141.796 54.466C141.796 55.45 141.964 56.302 142.3 57.022C142.636 57.73 143.11 58.282 143.722 58.678C144.334 59.074 145.036 59.272 145.828 59.272C146.716 59.272 147.478 59.014 148.114 58.498C148.75 57.97 149.152 57.226 149.32 56.266H151.642C151.498 57.25 151.156 58.114 150.616 58.858C150.088 59.602 149.41 60.178 148.582 60.586C147.754 60.982 146.824 61.18 145.792 61.18ZM157.548 61.18C156.576 61.18 155.718 60.976 154.974 60.568C154.242 60.16 153.672 59.596 153.264 58.876C152.856 58.144 152.652 57.31 152.652 56.374C152.652 55.438 152.856 54.616 153.264 53.908C153.672 53.2 154.242 52.648 154.974 52.252C155.718 51.844 156.576 51.64 157.548 51.64C158.532 51.64 159.39 51.844 160.122 52.252C160.854 52.648 161.424 53.2 161.832 53.908C162.24 54.616 162.444 55.438 162.444 56.374C162.444 57.31 162.234 58.144 161.814 58.876C161.406 59.596 160.836 60.16 160.104 60.568C159.372 60.976 158.52 61.18 157.548 61.18ZM157.548 59.362C158.028 59.362 158.46 59.242 158.844 59.002C159.228 58.75 159.528 58.402 159.744 57.958C159.96 57.502 160.068 56.968 160.068 56.356C160.068 55.456 159.828 54.748 159.348 54.232C158.88 53.716 158.28 53.458 157.548 53.458C156.816 53.458 156.21 53.716 155.73 54.232C155.25 54.748 155.01 55.456 155.01 56.356C155.01 56.968 155.118 57.502 155.334 57.958C155.562 58.402 155.862 58.75 156.234 59.002C156.618 59.242 157.056 59.362 157.548 59.362ZM164.112 61V51.82H166.326V53.98H166.38V61H164.112ZM170.286 61V55.078C170.286 54.538 170.148 54.142 169.872 53.89C169.608 53.626 169.23 53.494 168.738 53.494C168.306 53.494 167.91 53.596 167.55 53.8C167.19 54.004 166.902 54.292 166.686 54.664C166.482 55.036 166.38 55.468 166.38 55.96L166.146 53.854C166.458 53.182 166.908 52.648 167.496 52.252C168.084 51.844 168.768 51.64 169.548 51.64C170.484 51.64 171.222 51.91 171.762 52.45C172.302 52.978 172.572 53.662 172.572 54.502V61H170.286ZM176.46 61V55.078C176.46 54.538 176.328 54.142 176.064 53.89C175.8 53.626 175.422 53.494 174.93 53.494C174.486 53.494 174.084 53.596 173.724 53.8C173.364 54.004 173.082 54.292 172.878 54.664C172.674 55.036 172.572 55.468 172.572 55.96L172.176 53.854C172.476 53.182 172.932 52.648 173.544 52.252C174.156 51.844 174.864 51.64 175.668 51.64C176.628 51.64 177.378 51.916 177.918 52.468C178.47 53.008 178.746 53.728 178.746 54.628V61H176.46ZM186.296 61.18C185.42 61.18 184.706 60.976 184.154 60.568C183.614 60.148 183.278 59.572 183.146 58.84L183.326 58.822V64.69H181.058V51.82H183.272V53.89L183.092 53.854C183.26 53.17 183.644 52.63 184.244 52.234C184.844 51.838 185.576 51.64 186.44 51.64C187.256 51.64 187.964 51.838 188.564 52.234C189.176 52.618 189.65 53.164 189.986 53.872C190.322 54.58 190.49 55.414 190.49 56.374C190.49 57.346 190.316 58.192 189.968 58.912C189.62 59.632 189.134 60.19 188.51 60.586C187.886 60.982 187.148 61.18 186.296 61.18ZM185.72 59.308C186.452 59.308 187.034 59.056 187.466 58.552C187.898 58.036 188.114 57.316 188.114 56.392C188.114 55.468 187.892 54.754 187.448 54.25C187.016 53.746 186.434 53.494 185.702 53.494C184.982 53.494 184.4 53.752 183.956 54.268C183.512 54.772 183.29 55.486 183.29 56.41C183.29 57.334 183.512 58.048 183.956 58.552C184.4 59.056 184.988 59.308 185.72 59.308ZM197.944 61C197.884 60.76 197.836 60.496 197.8 60.208C197.776 59.92 197.764 59.572 197.764 59.164H197.692V54.808C197.692 54.328 197.554 53.968 197.278 53.728C197.014 53.476 196.606 53.35 196.054 53.35C195.514 53.35 195.082 53.452 194.758 53.656C194.446 53.848 194.254 54.13 194.182 54.502H192.004C192.1 53.65 192.508 52.96 193.228 52.432C193.948 51.904 194.914 51.64 196.126 51.64C197.386 51.64 198.34 51.928 198.988 52.504C199.636 53.068 199.96 53.902 199.96 55.006V59.164C199.96 59.452 199.978 59.746 200.014 60.046C200.062 60.346 200.128 60.664 200.212 61H197.944ZM194.758 61.18C193.834 61.18 193.096 60.952 192.544 60.496C192.004 60.028 191.734 59.404 191.734 58.624C191.734 57.784 192.04 57.118 192.652 56.626C193.264 56.134 194.128 55.804 195.244 55.636L198.106 55.204V56.644L195.622 57.022C195.082 57.106 194.674 57.256 194.398 57.472C194.134 57.688 194.002 57.988 194.002 58.372C194.002 58.72 194.128 58.99 194.38 59.182C194.632 59.362 194.98 59.452 195.424 59.452C196.072 59.452 196.612 59.29 197.044 58.966C197.476 58.642 197.692 58.246 197.692 57.778L197.944 59.164C197.704 59.824 197.308 60.328 196.756 60.676C196.216 61.012 195.55 61.18 194.758 61.18ZM202.257 61V51.82H204.471V53.98H204.525V61H202.257ZM208.701 61V55.204C208.701 54.64 208.557 54.214 208.269 53.926C207.981 53.638 207.561 53.494 207.009 53.494C206.529 53.494 206.097 53.602 205.713 53.818C205.341 54.034 205.047 54.334 204.831 54.718C204.627 55.102 204.525 55.546 204.525 56.05L204.291 53.854C204.603 53.182 205.059 52.648 205.659 52.252C206.259 51.844 206.979 51.64 207.819 51.64C208.815 51.64 209.589 51.922 210.141 52.486C210.705 53.05 210.987 53.8 210.987 54.736V61H208.701ZM213.468 64.69L215.844 59.362L216.258 58.678L218.85 51.82H221.262L215.772 64.69H213.468ZM215.502 60.91L211.776 51.82H214.242L217.356 60.064L215.502 60.91Z" fill="#969696"/>
<g clip-path="url(#clip0_2001_568)">
<path d="M10.4342 28.8444C10.1291 28.8444 9.82404 28.7222 9.57997 28.4778C9.09183 28.0194 9.09183 27.225 9.57997 26.7666L36.0918 0.213867L44.8173 8.98331C45.3054 9.44164 45.3054 10.2361 44.8173 10.6944C44.3596 11.1833 43.458 11.4889 43.0004 11L36.5004 5L11.5004 30C11.2563 30.2444 10.7393 28.8444 10.4342 28.8444Z" fill="#EA7343"/>
<path d="M62.7494 26.1841C63.0545 26.1841 63.3596 26.3064 63.6036 26.5508C64.0918 27.0091 64.0918 27.8036 63.6036 28.2619L37.0918 54.8147L28.3663 46.0453C27.8782 45.5869 27.8782 44.7925 28.3663 44.3341C28.824 43.8453 29.7256 43.5397 30.1832 44.0286L36.6832 50.0286L61.6832 25.0286C61.9273 24.7841 62.4443 26.1841 62.7494 26.1841Z" fill="#EA7343"/>
<path d="M19.5002 48.5001L17.085 44.8862L53.329 8.58618L56.2402 11.5001L19.5002 48.5001Z" fill="#866BF0"/>
<path fill-rule="evenodd" clip-rule="evenodd" d="M57.0809 12.8334C53.6029 12.8334 50.7656 9.99168 50.7656 6.50835C50.7656 3.02502 53.6029 0.18335 57.0809 0.18335C60.5588 0.18335 63.3961 3.02502 63.3961 6.50835C63.3961 9.99168 60.5588 12.8334 57.0809 12.8334ZM57.0809 2.62779C54.9453 2.62779 53.2063 4.36946 53.2063 6.50835C53.2063 8.64724 54.9453 10.3889 57.0809 10.3889C59.2165 10.3889 60.9555 8.64724 60.9555 6.50835C60.9555 4.36946 59.2165 2.62779 57.0809 2.62779Z" fill="#EA7343"/>
<path fill-rule="evenodd" clip-rule="evenodd" d="M15.0408 54.9389C11.5629 54.9389 8.72559 52.0972 8.72559 48.6139C8.72559 45.1 11.5629 42.2583 15.0408 42.2583C18.5493 42.2583 21.3866 45.1 21.3866 48.6139C21.3866 52.0972 18.5493 54.9389 15.0408 54.9389ZM15.0408 44.7027C12.9052 44.7027 11.1663 46.4444 11.1663 48.6139C11.1663 50.7527 12.9052 52.4944 15.0408 52.4944C17.1764 52.4944 18.9459 50.7527 18.9459 48.6139C18.9459 46.4444 17.1764 44.7027 15.0408 44.7027Z" fill="#EA7343"/>
<path fill-rule="evenodd" clip-rule="evenodd" d="M65.5626 29.4862C62.0541 29.4862 59.2168 26.6446 59.2168 23.1612C59.2168 19.6473 62.0541 16.8057 65.5626 16.8057C69.0405 16.8057 71.8778 19.6473 71.8778 23.1612C71.8778 26.6446 69.0405 29.4862 65.5626 29.4862ZM65.5626 19.2501C63.3965 19.2501 61.6575 21.0223 61.6575 23.1612C61.6575 25.3001 63.3965 27.0418 65.5626 27.0418C67.6981 27.0418 69.4371 25.3001 69.4371 23.1612C69.4371 21.0223 67.6981 19.2501 65.5626 19.2501Z" fill="black"/>
<path fill-rule="evenodd" clip-rule="evenodd" d="M6.43732 37.5529C2.95936 37.5529 0.12207 34.7112 0.12207 31.1973C0.12207 27.714 2.95936 24.8723 6.43732 24.8723C9.9458 24.8723 12.7831 27.714 12.7831 31.1973C12.7831 34.7112 9.9458 37.5529 6.43732 37.5529ZM6.43732 27.3168C4.30173 27.3168 2.56275 29.0584 2.56275 31.1973C2.56275 33.3362 4.30173 35.1084 6.43732 35.1084C8.60343 35.1084 10.3424 33.3362 10.3424 31.1973C10.3424 29.0584 8.60343 27.3168 6.43732 27.3168Z" fill="black"/>
</g>
<defs>
<clipPath id="clip0_2001_568">
<rect width="72" height="55" fill="white"/>
</clipPath>
</defs>
</svg>
