<svg width="93" height="76" viewBox="0 0 93 76" fill="none" xmlns="http://www.w3.org/2000/svg">
<circle cx="38" cy="37.9998" r="38" fill="#EFEDFB"/>
<path d="M65.4997 63.4165C78.1562 63.4165 88.4163 53.1563 88.4163 40.4998C88.4163 27.8433 78.1562 17.5831 65.4997 17.5831C52.8431 17.5831 42.583 27.8433 42.583 40.4998C42.583 53.1563 52.8431 63.4165 65.4997 63.4165Z" stroke="#141414" stroke-width="2" stroke-linecap="round" stroke-linejoin="round"/>
<path d="M42.583 40.4998H88.4163" stroke="#141414" stroke-width="2" stroke-linecap="round" stroke-linejoin="round"/>
<path d="M65.4997 17.5831C71.2318 23.8585 74.4893 32.0024 74.6663 40.4998C74.4893 48.9972 71.2318 57.1411 65.4997 63.4165C59.7676 57.1411 56.51 48.9972 56.333 40.4998C56.51 32.0024 59.7676 23.8585 65.4997 17.5831V17.5831Z" stroke="#141414" stroke-width="2" stroke-linecap="round" stroke-linejoin="round"/>
</svg>
