<svg width="98" height="76" viewBox="0 0 98 76" fill="none" xmlns="http://www.w3.org/2000/svg">
<circle cx="38" cy="37.9998" r="38" fill="#EFEDFB"/>
<path d="M84 18.9998C82.1435 18.9998 80.363 19.7373 79.0503 21.05C77.7375 22.3628 77 24.1432 77 25.9998V53.9998C77 55.8563 77.7375 57.6367 79.0503 58.9495C80.363 60.2623 82.1435 60.9998 84 60.9998C85.8565 60.9998 87.637 60.2623 88.9497 58.9495C90.2625 57.6367 91 55.8563 91 53.9998C91 52.1432 90.2625 50.3628 88.9497 49.05C87.637 47.7373 85.8565 46.9998 84 46.9998H56C54.1435 46.9998 52.363 47.7373 51.0503 49.05C49.7375 50.3628 49 52.1432 49 53.9998C49 55.8563 49.7375 57.6367 51.0503 58.9495C52.363 60.2623 54.1435 60.9998 56 60.9998C57.8565 60.9998 59.637 60.2623 60.9497 58.9495C62.2625 57.6367 63 55.8563 63 53.9998V25.9998C63 24.1432 62.2625 22.3628 60.9497 21.05C59.637 19.7373 57.8565 18.9998 56 18.9998C54.1435 18.9998 52.363 19.7373 51.0503 21.05C49.7375 22.3628 49 24.1432 49 25.9998C49 27.8563 49.7375 29.6367 51.0503 30.9495C52.363 32.2623 54.1435 32.9998 56 32.9998H84C85.8565 32.9998 87.637 32.2623 88.9497 30.9495C90.2625 29.6367 91 27.8563 91 25.9998C91 24.1432 90.2625 22.3628 88.9497 21.05C87.637 19.7373 85.8565 18.9998 84 18.9998Z" stroke="#141414" stroke-width="2" stroke-linecap="round" stroke-linejoin="round"/>
</svg>
