<svg width="40" height="32" viewBox="0 0 40 32" fill="none" xmlns="http://www.w3.org/2000/svg">
<circle cx="16.5" cy="16" r="16" fill="#EFEDFB"/>
<path d="M35.8091 6.95947H21.9614C21.0054 6.95947 20.2305 7.73445 20.2305 8.69043V12.1523C20.2305 13.1083 21.0054 13.8833 21.9614 13.8833H35.8091C36.7651 13.8833 37.54 13.1083 37.54 12.1523V8.69043C37.54 7.73445 36.7651 6.95947 35.8091 6.95947Z" stroke="#141414" stroke-linecap="round" stroke-linejoin="round"/>
<path d="M35.8091 17.3452H21.9614C21.0054 17.3452 20.2305 18.1202 20.2305 19.0762V22.5381C20.2305 23.4941 21.0054 24.269 21.9614 24.269H35.8091C36.7651 24.269 37.54 23.4941 37.54 22.5381V19.0762C37.54 18.1202 36.7651 17.3452 35.8091 17.3452Z" stroke="#141414" stroke-linecap="round" stroke-linejoin="round"/>
<path d="M23.6934 10.4214H23.7032" stroke="#141414" stroke-width="2" stroke-linecap="round" stroke-linejoin="round"/>
<path d="M23.6934 20.8071H23.7032" stroke="#141414" stroke-width="2" stroke-linecap="round" stroke-linejoin="round"/>
</svg>
