<svg width="20" height="20" viewBox="0 0 20 20" fill="none" xmlns="http://www.w3.org/2000/svg">
<path d="M9.66484 3.59761C3.87266 5.5312 1.26875 6.42065 1.16992 6.4937C0.976562 6.64409 0.847656 6.92339 0.847656 7.19839C0.847656 7.48198 0.925 7.67534 1.10977 7.84722C1.19141 7.92026 2.64805 8.84839 4.34961 9.90542L7.44336 11.8347L12.9563 6.3562C15.9855 3.34409 18.4648 0.864796 18.4648 0.843311C18.4648 0.821827 18.3617 0.80464 18.2414 0.808936C18.0609 0.808936 16.2691 1.39331 9.66484 3.59761Z" fill="black"/>
<path d="M13.6049 7.04793L8.12207 12.5565L10.09 15.7147C12.29 19.2511 12.1826 19.1136 12.6854 19.1436C13.0162 19.1651 13.2912 19.0534 13.4631 18.83C13.6135 18.6323 19.1521 2.01628 19.1521 1.76277C19.1521 1.66394 19.135 1.57371 19.1178 1.56082C19.1006 1.55222 16.617 4.01863 13.6049 7.04793Z" fill="black"/>
</svg>
