<svg width="233" height="68" viewBox="0 0 233 68" fill="none" xmlns="http://www.w3.org/2000/svg">
<path d="M84.86 29V7.4H89.69L100.22 26.18L99.11 26.45V7.4H102.89V29H98.06L87.53 10.22L88.64 9.95V29H84.86ZM113.618 29.3C111.998 29.3 110.578 28.96 109.358 28.28C108.158 27.6 107.218 26.66 106.538 25.46C105.878 24.26 105.548 22.88 105.548 21.32C105.548 19.76 105.878 18.39 106.538 17.21C107.218 16.01 108.158 15.08 109.358 14.42C110.558 13.74 111.958 13.4 113.558 13.4C115.078 13.4 116.398 13.72 117.518 14.36C118.638 14.98 119.508 15.86 120.128 17C120.748 18.14 121.058 19.47 121.058 20.99C121.058 21.27 121.048 21.53 121.028 21.77C121.008 22.01 120.978 22.25 120.938 22.49H107.888V19.85H118.028L117.248 20.57C117.248 19.13 116.918 18.05 116.258 17.33C115.598 16.61 114.678 16.25 113.498 16.25C112.218 16.25 111.198 16.69 110.438 17.57C109.698 18.45 109.328 19.72 109.328 21.38C109.328 23.02 109.698 24.28 110.438 25.16C111.198 26.02 112.268 26.45 113.648 26.45C114.448 26.45 115.148 26.3 115.748 26C116.348 25.7 116.788 25.24 117.068 24.62H120.638C120.138 26.06 119.288 27.2 118.088 28.04C116.908 28.88 115.418 29.3 113.618 29.3ZM128.837 29.3C127.777 29.3 126.857 29.08 126.077 28.64C125.317 28.18 124.727 27.56 124.307 26.78C123.907 26 123.707 25.12 123.707 24.14V13.7H127.487V23.36C127.487 24.3 127.717 25.01 128.177 25.49C128.657 25.97 129.327 26.21 130.187 26.21C130.967 26.21 131.647 26.03 132.227 25.67C132.827 25.31 133.297 24.81 133.637 24.17C133.997 23.51 134.177 22.77 134.177 21.95L134.567 25.61C134.067 26.73 133.317 27.63 132.317 28.31C131.337 28.97 130.177 29.3 128.837 29.3ZM134.297 29V25.4H134.177V13.7H137.987V29H134.297ZM141.992 29V13.7H145.682V17.39H145.772V29H141.992ZM145.772 21.02L145.382 17.39C145.742 16.09 146.352 15.1 147.212 14.42C148.072 13.74 149.102 13.4 150.302 13.4C150.722 13.4 151.022 13.44 151.202 13.52V17.09C151.102 17.05 150.962 17.03 150.782 17.03C150.602 17.01 150.382 17 150.122 17C148.662 17 147.572 17.32 146.852 17.96C146.132 18.6 145.772 19.62 145.772 21.02ZM162.695 29C162.595 28.6 162.515 28.16 162.455 27.68C162.415 27.2 162.395 26.62 162.395 25.94H162.275V18.68C162.275 17.88 162.045 17.28 161.585 16.88C161.145 16.46 160.465 16.25 159.545 16.25C158.645 16.25 157.925 16.42 157.385 16.76C156.865 17.08 156.545 17.55 156.425 18.17H152.795C152.955 16.75 153.635 15.6 154.835 14.72C156.035 13.84 157.645 13.4 159.665 13.4C161.765 13.4 163.355 13.88 164.435 14.84C165.515 15.78 166.055 17.17 166.055 19.01V25.94C166.055 26.42 166.085 26.91 166.145 27.41C166.225 27.91 166.335 28.44 166.475 29H162.695ZM157.385 29.3C155.845 29.3 154.615 28.92 153.695 28.16C152.795 27.38 152.345 26.34 152.345 25.04C152.345 23.64 152.855 22.53 153.875 21.71C154.895 20.89 156.335 20.34 158.195 20.06L162.965 19.34V21.74L158.825 22.37C157.925 22.51 157.245 22.76 156.785 23.12C156.345 23.48 156.125 23.98 156.125 24.62C156.125 25.2 156.335 25.65 156.755 25.97C157.175 26.27 157.755 26.42 158.495 26.42C159.575 26.42 160.475 26.15 161.195 25.61C161.915 25.07 162.275 24.41 162.275 23.63L162.695 25.94C162.295 27.04 161.635 27.88 160.715 28.46C159.815 29.02 158.705 29.3 157.385 29.3ZM172.162 29V10.49H164.992V7.4H183.232V10.49H176.062V29H172.162ZM189.556 29.3C187.936 29.3 186.516 28.96 185.296 28.28C184.096 27.6 183.156 26.66 182.476 25.46C181.816 24.26 181.486 22.88 181.486 21.32C181.486 19.76 181.816 18.39 182.476 17.21C183.156 16.01 184.096 15.08 185.296 14.42C186.496 13.74 187.896 13.4 189.496 13.4C191.016 13.4 192.336 13.72 193.456 14.36C194.576 14.98 195.446 15.86 196.066 17C196.686 18.14 196.996 19.47 196.996 20.99C196.996 21.27 196.986 21.53 196.966 21.77C196.946 22.01 196.916 22.25 196.876 22.49H183.826V19.85H193.966L193.186 20.57C193.186 19.13 192.856 18.05 192.196 17.33C191.536 16.61 190.616 16.25 189.436 16.25C188.156 16.25 187.136 16.69 186.376 17.57C185.636 18.45 185.266 19.72 185.266 21.38C185.266 23.02 185.636 24.28 186.376 25.16C187.136 26.02 188.206 26.45 189.586 26.45C190.386 26.45 191.086 26.3 191.686 26C192.286 25.7 192.726 25.24 193.006 24.62H196.576C196.076 26.06 195.226 27.2 194.026 28.04C192.846 28.88 191.356 29.3 189.556 29.3ZM206.66 29.3C205.12 29.3 203.76 28.96 202.58 28.28C201.42 27.6 200.5 26.66 199.82 25.46C199.16 24.24 198.83 22.86 198.83 21.32C198.83 19.78 199.16 18.42 199.82 17.24C200.5 16.04 201.42 15.1 202.58 14.42C203.76 13.74 205.12 13.4 206.66 13.4C207.92 13.4 209.06 13.64 210.08 14.12C211.1 14.58 211.94 15.24 212.6 16.1C213.26 16.94 213.68 17.92 213.86 19.04H210.23C210.01 18.22 209.59 17.58 208.97 17.12C208.35 16.66 207.6 16.43 206.72 16.43C205.9 16.43 205.19 16.63 204.59 17.03C204.01 17.43 203.56 18 203.24 18.74C202.92 19.48 202.76 20.34 202.76 21.32C202.76 22.32 202.92 23.19 203.24 23.93C203.56 24.67 204.02 25.25 204.62 25.67C205.22 26.07 205.92 26.27 206.72 26.27C207.6 26.27 208.35 26.04 208.97 25.58C209.59 25.12 210.01 24.48 210.23 23.66H213.86C213.68 24.78 213.25 25.77 212.57 26.63C211.91 27.47 211.07 28.13 210.05 28.61C209.05 29.07 207.92 29.3 206.66 29.3ZM216.582 29V7.4H220.362V29H216.582ZM227.322 29V19.34C227.322 18.4 227.082 17.69 226.602 17.21C226.122 16.73 225.422 16.49 224.502 16.49C223.702 16.49 222.982 16.67 222.342 17.03C221.722 17.39 221.232 17.89 220.872 18.53C220.532 19.17 220.362 19.91 220.362 20.75L219.972 17.09C220.492 15.97 221.252 15.08 222.252 14.42C223.252 13.74 224.452 13.4 225.852 13.4C227.512 13.4 228.802 13.87 229.722 14.81C230.662 15.75 231.132 17 231.132 18.56V29H227.322Z" fill="white"/>
<path d="M86.538 56V54.128H89.886C90.87 54.128 91.71 53.93 92.406 53.534C93.102 53.138 93.63 52.586 93.99 51.878C94.362 51.17 94.548 50.36 94.548 49.448C94.548 48.548 94.362 47.756 93.99 47.072C93.63 46.388 93.102 45.86 92.406 45.488C91.722 45.104 90.882 44.912 89.886 44.912H86.574V43.04H89.886C91.302 43.04 92.538 43.304 93.594 43.832C94.65 44.36 95.466 45.11 96.042 46.082C96.63 47.042 96.924 48.176 96.924 49.484C96.924 50.792 96.63 51.938 96.042 52.922C95.454 53.894 94.632 54.65 93.576 55.19C92.532 55.73 91.308 56 89.904 56H86.538ZM85.116 56V43.04H87.456V56H85.116ZM101.676 56.18C101.04 56.18 100.488 56.048 100.02 55.784C99.564 55.508 99.21 55.136 98.958 54.668C98.718 54.2 98.598 53.672 98.598 53.084V46.82H100.866V52.616C100.866 53.18 101.004 53.606 101.28 53.894C101.568 54.182 101.97 54.326 102.486 54.326C102.954 54.326 103.362 54.218 103.71 54.002C104.07 53.786 104.352 53.486 104.556 53.102C104.772 52.706 104.88 52.262 104.88 51.77L105.114 53.966C104.814 54.638 104.364 55.178 103.764 55.586C103.176 55.982 102.48 56.18 101.676 56.18ZM104.952 56V53.84H104.88V46.82H107.166V56H104.952ZM109.569 56V46.82H111.783V48.98H111.837V56H109.569ZM115.743 56V50.078C115.743 49.538 115.605 49.142 115.329 48.89C115.065 48.626 114.687 48.494 114.195 48.494C113.763 48.494 113.367 48.596 113.007 48.8C112.647 49.004 112.359 49.292 112.143 49.664C111.939 50.036 111.837 50.468 111.837 50.96L111.603 48.854C111.915 48.182 112.365 47.648 112.953 47.252C113.541 46.844 114.225 46.64 115.005 46.64C115.941 46.64 116.679 46.91 117.219 47.45C117.759 47.978 118.029 48.662 118.029 49.502V56H115.743ZM121.917 56V50.078C121.917 49.538 121.785 49.142 121.521 48.89C121.257 48.626 120.879 48.494 120.387 48.494C119.943 48.494 119.541 48.596 119.181 48.8C118.821 49.004 118.539 49.292 118.335 49.664C118.131 50.036 118.029 50.468 118.029 50.96L117.633 48.854C117.933 48.182 118.389 47.648 119.001 47.252C119.613 46.844 120.321 46.64 121.125 46.64C122.085 46.64 122.835 46.916 123.375 47.468C123.927 48.008 124.203 48.728 124.203 49.628V56H121.917ZM126.515 56V46.82H128.729V48.98H128.783V56H126.515ZM132.689 56V50.078C132.689 49.538 132.551 49.142 132.275 48.89C132.011 48.626 131.633 48.494 131.141 48.494C130.709 48.494 130.313 48.596 129.953 48.8C129.593 49.004 129.305 49.292 129.089 49.664C128.885 50.036 128.783 50.468 128.783 50.96L128.549 48.854C128.861 48.182 129.311 47.648 129.899 47.252C130.487 46.844 131.171 46.64 131.951 46.64C132.887 46.64 133.625 46.91 134.165 47.45C134.705 47.978 134.975 48.662 134.975 49.502V56H132.689ZM138.863 56V50.078C138.863 49.538 138.731 49.142 138.467 48.89C138.203 48.626 137.825 48.494 137.333 48.494C136.889 48.494 136.487 48.596 136.127 48.8C135.767 49.004 135.485 49.292 135.281 49.664C135.077 50.036 134.975 50.468 134.975 50.96L134.579 48.854C134.879 48.182 135.335 47.648 135.947 47.252C136.559 46.844 137.267 46.64 138.071 46.64C139.031 46.64 139.781 46.916 140.321 47.468C140.873 48.008 141.149 48.728 141.149 49.628V56H138.863ZM143.649 59.69L146.025 54.362L146.439 53.678L149.031 46.82H151.443L145.953 59.69H143.649ZM145.683 55.91L141.957 46.82H144.423L147.537 55.064L145.683 55.91ZM156.114 56V43.04H158.454V56H156.114ZM157.23 56V54.146H164.826V56H157.23ZM170.241 56.18C169.269 56.18 168.411 55.976 167.667 55.568C166.935 55.16 166.365 54.596 165.957 53.876C165.549 53.144 165.345 52.31 165.345 51.374C165.345 50.438 165.549 49.616 165.957 48.908C166.365 48.2 166.935 47.648 167.667 47.252C168.411 46.844 169.269 46.64 170.241 46.64C171.225 46.64 172.083 46.844 172.815 47.252C173.547 47.648 174.117 48.2 174.525 48.908C174.933 49.616 175.137 50.438 175.137 51.374C175.137 52.31 174.927 53.144 174.507 53.876C174.099 54.596 173.529 55.16 172.797 55.568C172.065 55.976 171.213 56.18 170.241 56.18ZM170.241 54.362C170.721 54.362 171.153 54.242 171.537 54.002C171.921 53.75 172.221 53.402 172.437 52.958C172.653 52.502 172.761 51.968 172.761 51.356C172.761 50.456 172.521 49.748 172.041 49.232C171.573 48.716 170.973 48.458 170.241 48.458C169.509 48.458 168.903 48.716 168.423 49.232C167.943 49.748 167.703 50.456 167.703 51.356C167.703 51.968 167.811 52.502 168.027 52.958C168.255 53.402 168.555 53.75 168.927 54.002C169.311 54.242 169.749 54.362 170.241 54.362ZM180.89 59.87C179.678 59.87 178.682 59.606 177.902 59.078C177.134 58.55 176.678 57.836 176.534 56.936H178.694C178.802 57.248 179.036 57.488 179.396 57.656C179.768 57.836 180.248 57.926 180.836 57.926C181.688 57.926 182.318 57.734 182.726 57.35C183.134 56.978 183.338 56.408 183.338 55.64V53.66L183.5 53.696C183.356 54.368 182.99 54.908 182.402 55.316C181.814 55.712 181.094 55.91 180.242 55.91C179.426 55.91 178.712 55.718 178.1 55.334C177.5 54.95 177.032 54.416 176.696 53.732C176.36 53.036 176.192 52.226 176.192 51.302C176.192 50.366 176.366 49.55 176.714 48.854C177.062 48.158 177.548 47.618 178.172 47.234C178.808 46.838 179.546 46.64 180.386 46.64C181.25 46.64 181.958 46.85 182.51 47.27C183.074 47.678 183.422 48.248 183.554 48.98L183.41 48.998V46.82H185.624V55.622C185.624 56.93 185.198 57.962 184.346 58.718C183.506 59.486 182.354 59.87 180.89 59.87ZM180.98 54.11C181.712 54.11 182.294 53.864 182.726 53.372C183.17 52.868 183.392 52.166 183.392 51.266C183.392 50.366 183.17 49.67 182.726 49.178C182.282 48.686 181.694 48.44 180.962 48.44C180.242 48.44 179.66 48.692 179.216 49.196C178.772 49.688 178.55 50.384 178.55 51.284C178.55 52.184 178.772 52.88 179.216 53.372C179.66 53.864 180.248 54.11 180.98 54.11ZM192.214 56.18C191.242 56.18 190.384 55.976 189.64 55.568C188.908 55.16 188.338 54.596 187.93 53.876C187.522 53.144 187.318 52.31 187.318 51.374C187.318 50.438 187.522 49.616 187.93 48.908C188.338 48.2 188.908 47.648 189.64 47.252C190.384 46.844 191.242 46.64 192.214 46.64C193.198 46.64 194.056 46.844 194.788 47.252C195.52 47.648 196.09 48.2 196.498 48.908C196.906 49.616 197.11 50.438 197.11 51.374C197.11 52.31 196.9 53.144 196.48 53.876C196.072 54.596 195.502 55.16 194.77 55.568C194.038 55.976 193.186 56.18 192.214 56.18ZM192.214 54.362C192.694 54.362 193.126 54.242 193.51 54.002C193.894 53.75 194.194 53.402 194.41 52.958C194.626 52.502 194.734 51.968 194.734 51.356C194.734 50.456 194.494 49.748 194.014 49.232C193.546 48.716 192.946 48.458 192.214 48.458C191.482 48.458 190.876 48.716 190.396 49.232C189.916 49.748 189.676 50.456 189.676 51.356C189.676 51.968 189.784 52.502 190 52.958C190.228 53.402 190.528 53.75 190.9 54.002C191.284 54.242 191.722 54.362 192.214 54.362Z" fill="#969696"/>
<path d="M60.2079 20.3891C60.2079 15.1778 58.0901 10.1802 54.3218 6.49573C50.5452 2.80815 45.4369 0.739354 40.1127 0.741458C34.7886 0.738812 29.6797 2.80725 25.9028 6.49471C24.0386 8.31522 22.559 10.4798 21.549 12.8641C20.539 15.2485 20.0185 17.8054 20.0176 20.3881H26.2973C28.3787 20.3881 30.0012 18.6823 30.7629 16.7895C31.269 15.5336 32.0332 14.3937 33.0078 13.4414C34.8962 11.5973 37.4505 10.5627 40.1127 10.5637C42.7747 10.563 45.3286 11.5976 47.2167 13.4414C48.149 14.3515 48.889 15.4339 49.394 16.626C49.8991 17.8182 50.1593 19.0966 50.1598 20.3881L60.2079 20.3891Z" fill="#EA7343"/>
<path d="M43.8501 31.6157C44.8597 29.2333 45.3797 26.6781 45.3799 24.0974H55.426C55.426 34.9474 46.429 43.7439 35.3308 43.7439C33.5929 43.7439 31.9068 43.5292 30.2979 43.1232C33.7745 42.2491 36.9496 40.4767 39.4936 37.9897C41.3585 36.1674 42.8389 34.0013 43.8501 31.6157Z" fill="white"/>
<path d="M0 20.7593C0 23.3393 0.520359 25.8949 1.52985 28.2786C2.54117 30.6641 4.02158 32.8301 5.88629 34.6526C7.75433 36.4782 9.9693 37.9254 12.4053 38.9118C17.3314 40.9065 22.8602 40.9065 27.7861 38.9118C30.2221 37.9254 32.4371 36.4782 34.3052 34.6526C36.1694 32.83 37.6495 30.664 38.6605 28.2786C39.6703 25.8958 40.1902 23.3402 40.1903 20.7593H33.9117C31.8303 20.7593 30.2078 22.465 29.4459 24.3579C28.94 25.6136 28.1759 26.7535 27.2012 27.7059C26.2673 28.6189 25.1598 29.3427 23.9417 29.836C22.1057 30.5786 20.0877 30.7726 18.14 30.3937C16.1923 30.0149 14.4018 29.0799 12.9923 27.7059C12.06 26.7949 11.3198 25.7119 10.814 24.5194C10.3092 23.3278 10.0492 22.0499 10.0491 20.7593H0Z" fill="#866BF0"/>
<path d="M5.19238 19.6476C5.19238 8.79656 14.1894 0 25.2886 0C27.0256 0 28.7116 0.214756 30.3195 0.620735C26.8427 1.49529 23.6674 3.26773 21.1227 5.75428C19.2583 7.57482 17.7789 9.73945 16.7688 12.1238C15.7588 14.5081 15.2384 17.065 15.2374 19.6476H5.19238Z" fill="white"/>
</svg>
