<svg width="78" height="55" viewBox="0 0 78 55" fill="none" xmlns="http://www.w3.org/2000/svg">
<circle cx="27.5" cy="27.4995" r="27.5" fill="#EFEDFB"/>
<path d="M54.709 13.1661H42.1673C41.217 13.1661 40.3055 13.5436 39.6335 14.2156C38.9615 14.8876 38.584 15.7991 38.584 16.7494V41.8327C38.584 42.7831 38.9615 43.6945 39.6335 44.3665C40.3055 45.0385 41.217 45.4161 42.1673 45.4161H67.2507C68.201 45.4161 69.1124 45.0385 69.7844 44.3665C70.4565 43.6945 70.834 42.7831 70.834 41.8327V29.2911" stroke="black" stroke-width="1.5" stroke-linecap="round" stroke-linejoin="round"/>
<path d="M68.1465 10.4786C68.8593 9.76585 69.826 9.36542 70.834 9.36542C71.842 9.36542 72.8087 9.76585 73.5215 10.4786C74.2343 11.1914 74.6347 12.1581 74.6347 13.1661C74.6347 14.1741 74.2343 15.1408 73.5215 15.8536L56.5007 32.8745L49.334 34.6661L51.1257 27.4995L68.1465 10.4786Z" stroke="black" stroke-width="1.5" stroke-linecap="round" stroke-linejoin="round"/>
</svg>
