<svg width="102" height="76" viewBox="0 0 102 76" fill="none" xmlns="http://www.w3.org/2000/svg">
<circle opacity="0.5" cx="38" cy="38" r="38" fill="#EFEDFB"/>
<path d="M85.4902 9.12753C85.3944 9.20198 84.9265 10.2443 84.4478 11.4462C83.9692 12.6481 83.565 13.6372 83.5544 13.6585C83.5331 13.6691 83.246 13.5202 82.9056 13.3181C80.9166 12.1163 78.4491 12.8927 77.4493 15.0412C77.2153 15.5411 77.1621 15.7964 77.1621 16.5515C77.1621 17.3705 77.194 17.53 77.5131 18.1682C78.0555 19.2744 79.0553 20.0402 80.2253 20.2635C80.5125 20.3167 80.7571 20.3805 80.7997 20.4124C80.8316 20.4443 80.4699 21.4548 79.9913 22.646C79.5127 23.8372 79.1298 24.8902 79.1298 24.9753C79.1298 25.071 79.2149 25.2412 79.3212 25.3582C79.5552 25.6347 85.0115 27.8258 85.4689 27.8258C85.9794 27.8258 86.2028 27.5173 86.0964 26.9536C85.8092 25.4539 86.1602 24.5179 87.2132 23.9649C88.6916 23.1884 90.4147 24.0925 90.5848 25.7198C90.6806 26.709 90.2551 27.5173 89.3192 28.1023C89.0958 28.2406 88.8937 28.4746 88.8512 28.6235C88.7129 29.1872 88.9469 29.3361 92.1058 30.5805C93.8395 31.2719 95.1796 31.7398 95.2966 31.7079C95.3924 31.676 95.5519 31.5697 95.6476 31.4633C95.9242 31.1549 101.38 17.2854 101.434 16.7536C101.529 15.9027 101.093 15.0518 100.391 14.6796C99.6574 14.3073 86.1496 8.9999 85.9156 8.9999C85.7773 8.9999 85.5753 9.06371 85.4902 9.12753ZM93.0418 13.3181C96.6474 14.754 99.6893 15.9984 99.7851 16.0942C99.8914 16.1899 99.9765 16.3813 99.9765 16.5302C99.9765 16.9131 94.7755 29.953 94.6266 29.953C94.5202 29.953 91.2762 28.6979 91.1698 28.6235C91.1486 28.6022 91.2868 28.3576 91.4676 28.081C92.3292 26.7196 92.2866 25.0817 91.3613 23.7415C90.9465 23.1246 89.9786 22.4758 89.2234 22.295C88.5108 22.1248 87.394 22.2099 86.7559 22.4971C85.6922 22.9651 84.7775 24.1244 84.5542 25.2944C84.4904 25.5922 84.4266 25.8581 84.4053 25.8794C84.384 25.9006 83.5757 25.6028 82.6078 25.2199L80.8422 24.5073L81.0443 24.018C82.9375 19.2318 82.8737 19.4233 82.7461 19.0935C82.5759 18.7 82.2462 18.6149 81.5016 18.7851C80.7252 18.9553 80.0445 18.7851 79.4489 18.2746C78.598 17.5513 78.3853 16.5409 78.8532 15.5305C79.6297 13.8712 81.9058 13.7649 82.9162 15.339C83.3523 16.0091 83.682 16.158 84.0968 15.8389C84.3096 15.69 84.618 15.0306 85.3413 13.1692C85.8731 11.8185 86.3411 10.7017 86.3942 10.7017C86.4368 10.7017 89.4255 11.8823 93.0418 13.3181Z" fill="#373739"/>
<path d="M51.6879 16.9026C51.1348 17.0834 50.2733 17.9875 50.1138 18.5725C50.0074 18.9447 49.9861 23.4225 50.0074 38.6853L50.0393 58.3195L50.3584 58.8407C50.5605 59.1597 50.8796 59.4788 51.1987 59.6809L51.7198 60H71.6306H91.5413L92.0625 59.6809C92.3816 59.4788 92.7007 59.1597 92.9027 58.8407L93.2218 58.3195L93.2537 48.1939C93.275 38.2598 93.275 38.0684 93.0729 37.8876C92.8815 37.7068 92.5837 37.6961 89.6162 37.7068C87.8187 37.7174 86.3616 37.7068 86.3616 37.6855C86.3616 37.6536 86.436 37.4409 86.5105 37.1962C87.606 34.1118 84.9789 30.7508 81.7242 31.0486C78.5653 31.3464 76.6295 34.5372 77.7995 37.5366C77.874 37.7068 77.7144 37.7174 75.1298 37.6961L72.3751 37.6642L72.3538 34.048C72.3219 30.5061 72.3219 30.4317 72.0986 30.2402C71.7582 29.9637 71.5136 30.0169 70.8116 30.4849C70.0245 31.006 69.4821 31.1656 68.6525 31.0911C67.525 31.006 66.5784 30.3572 66.036 29.3149C65.6956 28.6555 65.685 27.3579 66.0147 26.6452C66.8869 24.7307 69.2481 24.2202 70.9924 25.5497C71.4285 25.8794 71.8114 25.9113 72.1092 25.6454C72.3113 25.4646 72.3219 25.2945 72.3219 21.3166C72.3219 17.328 72.3113 17.1791 72.1092 16.977C71.8965 16.7643 71.7582 16.7643 61.9836 16.775C55.0702 16.7856 51.9432 16.8175 51.6879 16.9026ZM70.9392 20.9656C70.9392 22.4546 70.8967 23.6778 70.8435 23.6778C70.7903 23.6778 70.567 23.614 70.3436 23.5289C68.2483 22.8056 65.6956 23.9011 64.7278 25.9433C63.0792 29.4425 66.2487 33.3885 69.982 32.4632C70.3011 32.3887 70.6521 32.2824 70.7584 32.2398C70.9286 32.1654 70.9392 32.3143 70.918 34.9095L70.886 37.6642L67.2911 37.6749C64.0151 37.6961 63.6748 37.7068 63.4833 37.8769C63.1962 38.1428 63.2281 38.6321 63.5471 39.015C64.281 39.8872 64.5363 41.1316 64.196 42.1633C63.8131 43.3013 62.6537 44.1841 61.4093 44.2905C59.8458 44.4075 58.5163 43.4396 58.1121 41.8655C57.8568 40.8657 58.1121 39.8233 58.8141 39.0363C58.9843 38.8342 59.1332 38.547 59.1332 38.4087C59.1332 38.1322 58.8035 37.7174 58.5801 37.7068C58.5056 37.7068 56.8783 37.7068 54.9638 37.7174L51.4752 37.728V28.3576C51.4752 22.1568 51.5071 18.9128 51.5816 18.7852C51.8687 18.2534 51.6028 18.264 61.6114 18.2534H70.9392V20.9656ZM83.4579 32.8354C85.2979 33.7289 85.8404 36.0369 84.596 37.6749C84.1599 38.2492 84.1067 38.6002 84.4258 38.9086C84.6279 39.1214 84.7555 39.1214 88.2122 39.1107L91.786 39.0895V48.4918C91.786 57.809 91.786 57.9047 91.5732 58.1706C91.4456 58.3301 91.1691 58.5003 90.9563 58.5641C90.7011 58.6279 87.3826 58.6705 81.5009 58.6705H72.4283V55.9051C72.4283 54.3841 72.4496 53.1397 72.4708 53.1397C72.4921 53.1397 72.7048 53.2035 72.9388 53.2886C73.6727 53.5545 74.4491 53.5971 75.2788 53.4163C78.2569 52.7887 79.8523 49.6298 78.5547 46.907C77.5442 44.7691 75.0554 43.6949 72.875 44.4607L72.4283 44.6202V41.8655V39.1001H76.0126C79.1928 39.1001 79.6076 39.0788 79.7885 38.9193C80.0863 38.6534 80.0224 38.2067 79.6076 37.6642C78.7355 36.5155 78.7142 34.9627 79.5438 33.8246C80.4373 32.6227 82.1284 32.1866 83.4579 32.8354ZM56.8996 39.1639C56.8996 39.1958 56.8251 39.4936 56.7294 39.8127C56.6018 40.2382 56.5699 40.6955 56.6018 41.3869C56.6337 42.259 56.6869 42.4611 57.0379 43.1737C58.7715 46.673 63.6961 46.6198 65.3766 43.0886C65.9403 41.8974 65.9722 40.4721 65.4616 39.2809C65.3872 39.1107 65.5361 39.1001 68.1313 39.1214L70.886 39.1533L70.918 42.7589C70.9392 45.9391 70.9605 46.3964 71.12 46.5666C71.3859 46.8644 71.8327 46.8006 72.3645 46.3964C74.4385 44.8223 77.3315 46.0986 77.5017 48.6726C77.6506 50.8211 75.6085 52.5228 73.577 51.9272C73.2579 51.8421 72.8325 51.64 72.6304 51.5018C72.4283 51.3529 72.1624 51.1508 72.0347 51.0551C71.7369 50.8423 71.1945 50.9381 71.0456 51.2359C70.9711 51.3635 70.918 52.8206 70.9073 55.0329L70.886 58.6173L61.9517 58.6492C57.0379 58.6705 52.8047 58.6492 52.5494 58.6173C52.2304 58.5641 51.9751 58.4471 51.773 58.245L51.4752 57.9472V48.5237V39.1001H54.1874C55.6764 39.1001 56.8996 39.132 56.8996 39.1639Z" fill="#373739"/>
</svg>
