<svg width="56" height="58" viewBox="0 0 56 58" fill="none" xmlns="http://www.w3.org/2000/svg">
<rect width="55.7664" height="57.4656" rx="4" fill="#D1E0FF"/>
<path d="M27.0821 13.7652C23.4133 14.2745 20.3296 16.8626 19.2076 20.3662C19.0975 20.7241 18.9461 21.3299 18.8841 21.7085C18.8222 22.087 18.7671 22.4037 18.7602 22.4037C18.7533 22.4105 18.4161 22.4518 18.0168 22.4931C16.3511 22.679 15.0915 23.2503 13.9351 24.3516C13.0953 25.157 12.4758 26.2101 12.1592 27.3527C11.9458 28.1374 11.9458 29.6517 12.1661 30.4502C12.3519 31.1523 12.82 32.1159 13.233 32.6666C14.4238 34.236 16.3924 35.2685 18.3059 35.3098C18.8428 35.3235 18.8772 35.3166 19.0356 35.1377C19.2352 34.9036 19.2352 34.6696 19.0424 34.4493C18.9048 34.291 18.8015 34.2635 18.1476 34.2016C17.4042 34.1258 16.6126 33.9125 16.0758 33.644C13.4395 32.3018 12.345 29.2318 13.584 26.6644C14.1003 25.5975 15.0089 24.6958 16.1102 24.152C16.9568 23.739 17.6107 23.5945 18.6639 23.5738C19.7996 23.56 19.7996 23.56 19.8891 22.5344C20.1162 20.1184 21.3414 17.9227 23.2894 16.4565C23.8882 16.0022 25.2511 15.3277 25.9395 15.135C30.4411 13.9028 34.9496 16.2156 36.4708 20.5383C36.7462 21.3299 36.8081 21.3987 37.2555 21.3987C39.9125 21.3987 42.1702 22.7891 43.2852 25.1225C43.7327 26.0587 43.8566 26.6369 43.8634 27.8001C43.8703 28.9565 43.7395 29.5622 43.2852 30.5328C42.9617 31.2211 42.7002 31.6135 42.1357 32.2261C41.7778 32.6115 41.7021 32.7423 41.7021 32.935C41.7021 33.2517 41.9017 33.4444 42.239 33.4444C42.473 33.4444 42.5556 33.3962 42.886 33.0452C45.1024 30.7049 45.6324 27.3045 44.2076 24.4755C43.12 22.3211 41 20.7654 38.7079 20.4351C38.405 20.3938 38.0264 20.3387 37.8612 20.3112L37.5584 20.263L37.2968 19.6297C36.8012 18.4183 36.0372 17.3101 35.0322 16.3533C33.7451 15.1281 32.2514 14.3296 30.4824 13.9166C29.6564 13.7308 27.9149 13.6482 27.0821 13.7652Z" fill="#4272D6"/>
<path d="M23.1858 24.7371C22.7659 24.8679 22.408 25.1845 22.1946 25.6113L22.0156 25.9692V28.867V31.7649L22.1946 32.1297C22.4149 32.5702 22.876 32.9282 23.3579 33.0314C23.5988 33.0865 25.8358 33.1002 30.7918 33.0865L37.8815 33.0658L38.2463 32.8662C38.4391 32.7561 38.68 32.5633 38.7763 32.4394C39.1412 31.9576 39.1549 31.8612 39.1549 28.8739C39.1549 25.7007 39.148 25.6457 38.6249 25.1363C38.0742 24.6063 38.501 24.6338 30.5577 24.6407C24.7139 24.6407 23.4405 24.6614 23.1858 24.7371ZM37.8884 25.9623L38.0536 26.155V28.867V31.579L37.8884 31.7718L37.7232 31.9645H30.5853H23.4473L23.2821 31.7718L23.1169 31.579V28.8601V26.1344L23.3166 25.9348L23.5231 25.7352L30.6197 25.7489L37.7232 25.7696L37.8884 25.9623Z" fill="#4272D6"/>
<path d="M26.3525 28.3302C25.9395 28.4885 25.8087 28.9634 26.0978 29.2319C26.2561 29.3833 26.2974 29.3833 28.2592 29.3833H30.2691L30.4067 29.2043C30.5995 28.9634 30.5857 28.7432 30.3861 28.5091L30.2209 28.3164L28.3349 28.3026C27.3024 28.2957 26.4076 28.3095 26.3525 28.3302Z" fill="#4272D6"/>
<path d="M31.6802 28.3783C31.398 28.5022 31.2878 28.7982 31.4117 29.0873C31.5219 29.342 31.6182 29.3833 32.162 29.3833C32.5199 29.3833 32.6163 29.3558 32.7402 29.225C32.8985 29.0529 32.9329 28.7707 32.8228 28.5573C32.6851 28.3026 32.0794 28.2063 31.6802 28.3783Z" fill="#4272D6"/>
<path d="M34.0821 28.3233C33.8825 28.3715 33.6484 28.6674 33.6484 28.8671C33.6484 28.9497 33.7104 29.1011 33.793 29.2043C33.9238 29.3695 33.972 29.3833 34.44 29.3833C34.9081 29.3833 34.9563 29.3695 35.087 29.2043C35.4037 28.8051 35.149 28.3646 34.5777 28.3233C34.3918 28.3026 34.1647 28.3095 34.0821 28.3233Z" fill="#4272D6"/>
<path d="M23.3097 34.6421C22.7108 34.8004 22.2359 35.2478 22.0845 35.7916C22.0432 35.9292 22.0156 37.2095 22.0156 38.8477C22.0156 41.5391 22.0225 41.6836 22.1602 41.9796C22.3323 42.3582 22.5869 42.6335 22.9449 42.8263L23.2202 42.9777L30.4338 42.9983C35.1626 43.0052 37.7439 42.9915 37.909 42.9433C38.2945 42.84 38.7075 42.5096 38.9278 42.1379L39.1205 41.8075L39.1411 38.9166C39.1618 36.3422 39.148 35.9912 39.0448 35.7227C38.8934 35.3235 38.501 34.9036 38.1224 34.7247C37.8127 34.5801 37.7576 34.5801 30.7229 34.5664C25.1613 34.5595 23.5644 34.5732 23.3097 34.6421ZM37.675 35.7434C37.7989 35.7985 37.9366 35.9017 37.9779 35.9774C38.0261 36.0738 38.0536 37.0168 38.0536 38.8133V41.5116L37.854 41.7112L37.6544 41.9108H30.5853H23.5162L23.3166 41.7112L23.1169 41.5116V38.8133C23.1169 37.0168 23.1445 36.0738 23.1927 35.9843C23.3716 35.647 23.2408 35.6539 30.5715 35.647C36.3397 35.647 37.4754 35.6608 37.675 35.7434Z" fill="#4272D6"/>
<path d="M26.1118 38.4348C25.8365 38.7032 25.8916 39.0956 26.222 39.2608C26.3734 39.3434 26.7726 39.364 28.2388 39.364C30.173 39.364 30.3382 39.3434 30.4758 39.0405C30.5928 38.7858 30.5653 38.6137 30.3794 38.4348L30.2143 38.2627H28.2456H26.277L26.1118 38.4348Z" fill="#4272D6"/>
<path d="M31.529 38.4004C31.3088 38.6068 31.3019 38.9648 31.5221 39.1919C31.6323 39.3021 31.7493 39.3296 32.1416 39.3296C32.5684 39.3296 32.6441 39.3089 32.7611 39.1644C32.9401 38.9441 32.9332 38.6 32.7336 38.4141C32.5065 38.2007 31.7493 38.1939 31.529 38.4004Z" fill="#4272D6"/>
<path d="M33.8208 38.4348C33.5937 38.6619 33.6006 38.9166 33.8484 39.1644C34.0204 39.3296 34.1099 39.364 34.399 39.364C34.8189 39.364 35.0529 39.2676 35.1562 39.0405C35.2732 38.7858 35.2457 38.6137 35.0598 38.4348C34.9153 38.2833 34.8327 38.2627 34.4403 38.2627C34.048 38.2627 33.9654 38.2833 33.8208 38.4348Z" fill="#4272D6"/>
</svg>
