<svg width="176" height="148" viewBox="0 0 176 148" fill="none" xmlns="http://www.w3.org/2000/svg">
<path d="M71.5666 135.638L71.0823 134.632L66.7888 135.136C60.3539 135.878 54.7814 136.403 54.8537 136.245C54.885 136.155 56.0801 135.084 57.507 133.877C64.2665 128.195 69.4534 122.13 73.5954 115.129C76.1283 110.812 77.7398 107.31 79.1331 103.045C82.2955 93.4422 83.1726 84.3444 81.5423 77.8661C81.0627 75.8907 79.2151 71.8966 78.8729 72.0613C78.7119 72.1388 78.8363 72.5003 79.2655 73.1861C80.2304 74.7792 80.4113 76.0307 80.326 81.0045C80.1824 89.8237 78.9759 95.6098 75.6611 103.402C71.1553 113.973 64.3519 122.552 53.0203 131.971C51.6344 133.109 50.4408 134.08 50.3805 134.109C50.3 134.148 50.4917 133.361 50.7863 132.377C51.0713 131.372 51.988 128.229 52.81 125.404L54.3168 120.242L53.6335 119.183C53.2527 118.597 52.6767 117.71 52.3347 117.205L51.7096 116.266L49.959 121.695C48.2309 126.963 46.8099 131.737 45.9602 135.071L45.5559 136.703L46.3113 138.273C47.706 141.171 47.2492 140.995 52.49 140.604C60.5513 139.997 66.2014 138.964 70.3222 137.328L72.0508 136.645L71.5666 135.638Z" fill="black"/>
<path d="M36.238 17.3886C35.1524 17.1602 34.3229 16.7512 33.7493 16.1618C33.1861 15.5746 32.8399 14.8369 32.7107 13.9486C32.5837 13.0498 32.6388 12.0368 32.876 10.9095C32.9661 10.4815 33.0643 10.0662 33.1709 9.66352C33.29 9.25258 33.3793 8.9062 33.4386 8.62437C33.5308 8.18597 33.5887 7.833 33.6123 7.56545C33.6359 7.29791 33.6444 7.07624 33.6378 6.90045C33.6438 6.71641 33.6455 6.55325 33.6427 6.41097C33.6526 6.26044 33.6773 6.09124 33.7168 5.90335C33.7849 5.57977 33.9115 5.3666 34.0966 5.26385C34.2922 5.1633 34.5465 5.14596 34.8597 5.21185C35.1311 5.26895 35.364 5.40517 35.5585 5.6205C35.753 5.83582 35.8742 6.16653 35.922 6.6126C35.9825 7.05044 35.937 7.62947 35.7854 8.3497C35.7217 8.6524 35.6358 8.98313 35.5276 9.34187C35.4321 9.69238 35.3354 10.0481 35.2377 10.409C35.1399 10.77 35.057 11.1122 34.9889 11.4358C34.8044 12.3126 34.7493 13.015 34.8235 13.5429C34.9082 14.073 35.1019 14.4735 35.4046 14.7443C35.7095 15.0047 36.0968 15.1843 36.5666 15.2831C37.2659 15.4302 37.8287 15.3198 38.255 14.9516C38.6834 14.5731 39.0075 13.8619 39.2271 12.8181C39.3523 12.2231 39.4528 11.6938 39.5285 11.2301C39.6147 10.7687 39.6946 10.3113 39.7682 9.85807C39.8439 9.3944 39.94 8.88596 40.0564 8.33274C40.1772 7.75864 40.3835 7.32242 40.6751 7.02409C40.969 6.71531 41.3404 6.60815 41.7892 6.70259C42.0815 6.76408 42.2905 6.88437 42.4163 7.06345C42.5548 7.23428 42.5922 7.47105 42.5285 7.77376C42.4933 7.94077 42.4404 8.11492 42.3695 8.29622C42.3091 8.47971 42.2358 8.69864 42.1496 8.953C42.076 9.19913 41.9964 9.52573 41.9107 9.93282C41.7943 10.486 41.6936 11.0426 41.6085 11.6024C41.536 12.1539 41.4339 12.7429 41.3021 13.3691C41.1001 14.3294 40.776 15.1442 40.33 15.8134C39.8945 16.4847 39.3353 16.9666 38.6524 17.2589C37.9718 17.5408 37.167 17.584 36.238 17.3886ZM49.6951 20.171C49.2984 20.0875 48.988 19.8533 48.7638 19.4682C48.5418 19.0727 48.4239 18.5192 48.4101 17.8078C48.3985 17.0859 48.5036 16.1979 48.7254 15.1436C48.7957 14.8096 48.8435 14.5308 48.8687 14.3072C48.9044 14.0858 48.9157 13.9029 48.9024 13.7584C48.8892 13.6139 48.8508 13.4859 48.787 13.3744C48.7337 13.2651 48.6532 13.1555 48.5456 13.0456C48.7961 13.0983 48.9993 13.1684 49.1554 13.2557C49.324 13.3348 49.4347 13.4562 49.4875 13.6199C49.5425 13.7732 49.5362 13.9844 49.4686 14.2536C49.3477 13.9992 49.2334 13.8171 49.1258 13.7073C49.0285 13.5996 48.9068 13.5304 48.7607 13.4997C48.5624 13.4579 48.3064 13.5349 47.9927 13.7305C47.6812 13.9156 47.3322 14.2019 46.9454 14.5892C46.5714 14.9683 46.1838 15.4373 45.7829 15.996C45.3923 16.557 45.0084 17.1901 44.6311 17.8956C44.4136 18.3076 44.209 18.5807 44.0173 18.7147C43.8277 18.8384 43.5973 18.8716 43.3259 18.8145C42.8562 18.7157 42.5611 18.4083 42.4408 17.8925C42.3204 17.3767 42.3371 16.7534 42.4908 16.0228C42.6006 15.5008 42.7171 15.0512 42.8401 14.6738C42.9735 14.2985 43.1015 13.9494 43.224 13.6264C43.3569 13.3055 43.4804 12.9773 43.5947 12.6416C43.7215 12.2977 43.8311 11.9065 43.9233 11.4681C43.9892 11.155 44.1117 10.9355 44.2908 10.8097C44.4699 10.6838 44.7003 10.6506 44.9821 10.7099C45.2953 10.7758 45.5134 10.9307 45.6365 11.1746C45.7722 11.4102 45.7917 11.7577 45.6951 12.217C45.627 12.5405 45.5383 12.8325 45.429 13.093C45.3324 13.3451 45.2198 13.6212 45.0913 13.9212C44.965 14.2107 44.8359 14.565 44.7041 14.9842C44.5745 15.393 44.4553 15.9074 44.3466 16.5277L43.9601 15.9558C44.5632 14.851 45.1819 13.9566 45.8164 13.2726C46.4612 12.5907 47.0916 12.1075 47.7074 11.8228C48.3232 11.5382 48.8868 11.4497 49.3983 11.5573C49.8367 11.6496 50.1811 11.8256 50.4317 12.0854C50.6822 12.3452 50.8421 12.6732 50.9114 13.0693C50.9828 13.4549 50.967 13.893 50.8637 14.3836C50.7034 15.1456 50.5829 15.7961 50.5022 16.335C50.4215 16.8739 50.393 17.3203 50.4167 17.6741C50.4508 18.03 50.5472 18.3228 50.706 18.5525C50.8049 18.7041 50.8714 18.8543 50.9055 19.0032C50.9417 19.1416 50.939 19.31 50.8973 19.5083C50.8512 19.7275 50.7196 19.9124 50.5026 20.063C50.2983 20.2053 50.0291 20.2413 49.6951 20.171ZM54.3204 21.1606C54.1012 21.1144 53.8782 21.0348 53.6513 20.9217C53.4348 20.8107 53.2379 20.633 53.0604 20.3886C52.8829 20.1441 52.745 19.8154 52.6466 19.4022C52.5587 18.9913 52.5273 18.467 52.5525 17.8292C52.5881 17.1935 52.7026 16.4165 52.8958 15.4979C53.0694 14.6733 53.242 13.9303 53.4139 13.2688C53.5984 12.5991 53.7846 11.9734 53.9724 11.3916C54.1707 10.812 54.3772 10.245 54.5919 9.69069C54.744 9.33029 54.9096 9.08718 55.0887 8.96136C55.2678 8.83553 55.4878 8.80007 55.7488 8.85498C56.0828 8.92526 56.3163 9.11064 56.4493 9.41113C56.5844 9.70118 56.5905 10.1385 56.4675 10.723C56.4038 11.0257 56.3138 11.3501 56.1974 11.6962C56.0936 12.0341 55.9695 12.4167 55.825 12.8442C55.6806 13.2716 55.5282 13.7627 55.3678 14.3176C55.2201 14.8642 55.0683 15.5081 54.9124 16.2492C54.785 16.8546 54.6974 17.3485 54.6497 17.7309C54.6145 18.105 54.6074 18.3978 54.6283 18.6093C54.6492 18.8208 54.6938 18.9719 54.7619 19.0625C54.8322 19.1427 54.9143 19.1927 55.0083 19.2124C55.1127 19.2344 55.1973 19.2468 55.2621 19.2495C55.3291 19.2418 55.3898 19.2382 55.4442 19.2388C55.5008 19.2289 55.5604 19.2305 55.623 19.2437C55.8735 19.2964 56.0293 19.4109 56.0903 19.5873C56.1535 19.7532 56.1609 19.9509 56.1126 20.1806C56.0292 20.5772 55.816 20.8648 55.4733 21.0434C55.1327 21.2116 54.7484 21.2506 54.3204 21.1606ZM60.838 22.5483C59.9612 22.3638 59.2209 22.0227 58.6171 21.525C58.0237 21.0296 57.5998 20.4281 57.3454 19.7205C57.1036 19.0048 57.0672 18.245 57.2363 17.4413C57.3527 16.888 57.5711 16.3944 57.8913 15.9604C58.2242 15.5181 58.6065 15.1516 59.0382 14.861C59.4722 14.5599 59.9147 14.3478 60.3657 14.2247C60.8167 14.1016 61.2249 14.0784 61.5902 14.1553C61.7468 14.1883 61.8822 14.244 61.9965 14.3225C62.1234 14.3928 62.2176 14.489 62.2792 14.6109C62.3407 14.7329 62.3528 14.8826 62.3155 15.06C62.2496 15.3732 62.1224 15.6407 61.934 15.8627C61.7583 16.0764 61.4504 16.2187 61.0103 16.2896C60.7208 16.3704 60.4571 16.4839 60.2193 16.6301C59.9814 16.7762 59.7798 16.9573 59.6145 17.1732C59.4492 17.3891 59.339 17.6275 59.2841 17.8885C59.1414 18.567 59.2401 19.16 59.5802 19.6676C59.9225 20.1647 60.4485 20.4879 61.1583 20.6373C61.7637 20.7647 62.2982 20.6591 62.7619 20.3207C63.2255 19.9822 63.5309 19.4633 63.678 18.7639C63.8076 18.1481 63.7479 17.6287 63.499 17.2057C63.2628 16.7745 62.8732 16.5018 62.3305 16.3876C62.0591 16.3305 61.8215 16.3459 61.6177 16.4338C61.4243 16.5239 61.2013 16.6514 60.9486 16.8162C60.7591 16.9398 60.6011 17.0429 60.4748 17.1253C60.3589 17.2099 60.2433 17.2673 60.1279 17.2975C60.0125 17.3278 59.8766 17.3264 59.72 17.2935C59.553 17.2583 59.42 17.165 59.3211 17.0133C59.2222 16.8617 59.209 16.6137 59.2815 16.2692C59.3408 15.9874 59.4784 15.722 59.6942 15.4732C59.9123 15.2138 60.176 14.9968 60.4852 14.8221C60.8072 14.6391 61.1453 14.5086 61.4996 14.4305C61.8539 14.3525 62.2033 14.3497 62.5478 14.4222C63.3828 14.5979 64.0638 14.9101 64.5907 15.3589C65.1302 15.7994 65.495 16.3449 65.6852 16.9953C65.888 17.6375 65.9048 18.3605 65.7357 19.1642C65.5666 19.9679 65.2376 20.6508 64.7487 21.2129C64.2599 21.7749 63.6732 22.1801 62.9887 22.4285C62.3169 22.6687 61.6 22.7086 60.838 22.5483ZM69.9392 24.4142C69.125 24.2429 68.4627 23.9455 67.9523 23.522C67.4523 23.1007 67.107 22.592 66.9163 21.996C66.7383 21.3917 66.7239 20.7346 66.8732 20.0249C67.0094 19.3777 67.2662 18.805 67.6435 18.3066C68.0313 17.8105 68.4988 17.402 69.0459 17.0811C69.6035 16.7624 70.2091 16.552 70.8629 16.4497C71.5188 16.337 72.186 16.352 72.8645 16.4948C73.1463 16.5541 73.3869 16.6538 73.5864 16.7939C73.7962 16.9361 73.944 17.1144 74.0297 17.3286C74.1177 17.5324 74.1309 17.7804 74.0694 18.0727C74.0035 18.3859 73.8796 18.6377 73.6978 18.8284C73.5182 19.0086 73.3084 19.0735 73.0683 19.0229C72.9326 18.9944 72.8337 18.9463 72.7716 18.8788C72.7222 18.803 72.6664 18.7313 72.6043 18.6637C72.5549 18.5879 72.4362 18.5302 72.2483 18.4907C71.7264 18.3809 71.2314 18.4021 70.7634 18.5543C70.2953 18.7065 69.8985 18.9609 69.5727 19.3175C69.2492 19.6637 69.0369 20.0768 68.9359 20.5569C68.8744 20.8492 68.878 21.117 68.9467 21.3604C69.0258 21.6059 69.1775 21.8177 69.4016 21.9957C69.6362 22.1758 69.9623 22.3098 70.3798 22.3977C70.7973 22.4855 71.1308 22.5067 71.3802 22.461C71.6422 22.4072 71.8543 22.3319 72.0163 22.2352C72.1806 22.128 72.3311 22.0343 72.4679 21.9541C72.6047 21.8739 72.7618 21.8525 72.9392 21.8898C73.1584 21.9359 73.3059 22.0378 73.3818 22.1955C73.4576 22.3531 73.467 22.5677 73.4099 22.839C73.3198 23.267 73.1092 23.6205 72.7779 23.8997C72.4593 24.1705 72.0495 24.3568 71.5485 24.4585C71.0497 24.5497 70.5133 24.535 69.9392 24.4142ZM81.4035 26.7937C81.0382 26.7168 80.636 26.5559 80.1971 26.3109C79.7707 26.0577 79.3502 25.7512 78.9353 25.3914C78.5332 25.0234 78.1719 24.6422 77.8516 24.2478C77.5335 23.8429 77.2906 23.443 77.123 23.0481C76.9554 22.6531 76.9035 22.3042 76.9671 22.0015C77.0506 21.6049 77.2563 21.2231 77.5842 20.8561C77.9248 20.4808 78.3277 20.1459 78.793 19.8514C79.2709 19.5487 79.7661 19.2932 80.2786 19.0849C80.7934 18.8662 81.2782 18.712 81.733 18.6224C82.1879 18.5328 82.5615 18.5188 82.8537 18.5803C83.1982 18.6528 83.452 18.7934 83.6152 19.0021C83.7806 19.2004 83.8292 19.4613 83.7611 19.7849C83.7062 20.0459 83.5881 20.2445 83.4069 20.3808C83.2256 20.517 82.9234 20.606 82.5004 20.6478C82.0857 20.7023 81.6852 20.7924 81.299 20.9183C80.9255 21.0359 80.5862 21.1716 80.2814 21.3255C79.9787 21.4689 79.7345 21.6191 79.5488 21.7763C79.3632 21.9334 79.2583 22.0694 79.2341 22.1842C79.2056 22.3199 79.2611 22.5224 79.4006 22.7915C79.5506 23.0629 79.8133 23.3689 80.1885 23.7094C80.566 24.0395 81.0846 24.3721 81.7444 24.7072C82.1191 24.895 82.3576 25.1087 82.4598 25.3482C82.5724 25.5899 82.6046 25.8256 82.5563 26.0552C82.497 26.337 82.3651 26.5491 82.1608 26.6914C81.9691 26.8255 81.7166 26.8596 81.4035 26.7937ZM75.5692 25.6151C75.3604 25.5712 75.1689 25.471 74.9948 25.3144C74.8228 25.1474 74.7071 24.8942 74.6478 24.5547C74.5884 24.2152 74.6202 23.7532 74.7432 23.1686C74.8288 22.7616 74.9785 22.2317 75.1921 21.579C75.4057 20.9263 75.6463 20.1976 75.9137 19.3927C76.1812 18.5879 76.4321 17.7578 76.6666 16.9024C76.788 16.481 76.8772 16.1346 76.9343 15.8633C77.0019 15.5941 77.0543 15.3707 77.0916 15.1933C77.129 15.0158 77.1556 14.8634 77.1715 14.7359C77.1874 14.6085 77.2149 14.478 77.2539 14.3445C77.3236 14.0649 77.4543 13.858 77.646 13.724C77.8482 13.5921 78.0902 13.5558 78.372 13.6151C78.6643 13.6766 78.8772 13.8304 79.0107 14.0765C79.1442 14.3226 79.1907 14.6975 79.1501 15.2013C79.1199 15.7073 78.9898 16.3775 78.7597 17.212C78.5933 17.7438 78.4316 18.2275 78.2745 18.6632C78.1301 19.0906 77.9922 19.4867 77.861 19.8515C77.7297 20.2163 77.6029 20.5602 77.4804 20.8833C77.3684 21.2085 77.2627 21.5296 77.1633 21.8466C77.0743 22.1658 76.9936 22.4976 76.9211 22.8421C76.8354 23.2492 76.7712 23.6062 76.7284 23.9133C76.6982 24.2122 76.6491 24.5234 76.581 24.847C76.5129 25.1706 76.3893 25.3953 76.2102 25.5211C76.0438 25.6387 75.8301 25.67 75.5692 25.6151ZM98.6433 32.1052C98.3197 32.0371 98.0711 31.8976 97.8975 31.6866C97.7238 31.4757 97.573 31.1823 97.445 30.8066C97.3741 30.5737 97.3142 30.2886 97.2652 29.9513C97.2185 29.6035 97.1976 29.1849 97.2025 28.6954C97.2096 28.1955 97.2584 27.6008 97.3489 26.9114L97.9415 27.2813C97.3389 27.9175 96.7368 28.3958 96.1353 28.7161C95.536 29.0261 94.94 29.2168 94.3472 29.2882C93.7567 29.3493 93.1796 29.3205 92.6159 29.2019C91.8644 29.0438 91.2427 28.7604 90.751 28.3517C90.2615 27.9326 89.9269 27.3989 89.7471 26.7507C89.5674 26.1025 89.5632 25.3713 89.7345 24.5571C89.8949 23.7951 90.1813 23.0815 90.5938 22.4161C91.0167 21.753 91.5226 21.1619 92.1115 20.6426C92.7025 20.113 93.3502 19.677 94.0544 19.3347C94.7586 18.9923 95.4775 18.7621 96.2108 18.6439C96.9569 18.5174 97.6848 18.5289 98.3945 18.6782C98.8225 18.7683 99.1538 18.9034 99.3884 19.0836C99.6252 19.2533 99.7779 19.4598 99.8466 19.7032C99.928 19.9383 99.9401 20.1916 99.883 20.4629C99.8127 20.797 99.6916 21.0876 99.5197 21.3348C99.3477 21.5821 99.1398 21.7672 98.8959 21.8903C98.6625 22.0156 98.41 22.0497 98.1386 21.9926C97.9925 21.9618 97.8947 21.9085 97.8453 21.8327C97.8085 21.7487 97.7895 21.6575 97.7884 21.5592C97.7999 21.4526 97.8051 21.3501 97.804 21.2518C97.8155 21.1452 97.7913 21.0529 97.7315 20.9749C97.682 20.8991 97.5686 20.8425 97.3911 20.8052C96.9631 20.7152 96.5143 20.7243 96.0446 20.8326C95.5876 20.9326 95.1349 21.1153 94.6867 21.3807C94.2384 21.6461 93.8284 21.9631 93.4565 22.3318C93.0846 22.7004 92.7657 23.1021 92.4999 23.5366C92.2341 23.9712 92.0539 24.4129 91.9595 24.8618C91.8189 25.5298 91.8596 26.0616 92.0816 26.4571C92.3036 26.8526 92.6703 27.1042 93.1818 27.2118C93.6828 27.3172 94.1838 27.3191 94.6849 27.2174C95.1859 27.1157 95.6753 26.9135 96.1532 26.6107C96.6438 26.2997 97.1112 25.8912 97.5556 25.3852C97.7797 25.149 98.006 25.0058 98.2346 24.9558C98.4757 24.8975 98.7529 24.9014 99.066 24.9673C99.3061 25.0178 99.4674 25.1062 99.5498 25.2325C99.6448 25.3506 99.6693 25.5193 99.6232 25.7385C99.4738 26.4483 99.3714 27.0644 99.316 27.5869C99.271 28.1115 99.259 28.5831 99.2799 29.0017C99.3113 29.4225 99.372 29.8332 99.4622 30.2337C99.5204 30.4748 99.5614 30.6687 99.585 30.8154C99.6065 30.9725 99.6177 31.1003 99.6188 31.1986C99.6199 31.2969 99.6084 31.4035 99.5843 31.5183C99.5338 31.7584 99.4223 31.9257 99.2498 32.0202C99.0751 32.1252 98.8729 32.1535 98.6433 32.1052ZM95.2648 25.3937C94.9621 25.33 94.7261 25.1823 94.5569 24.9505C94.3981 24.7208 94.3494 24.4599 94.4109 24.1676C94.4549 23.9589 94.5589 23.8009 94.7232 23.6938C94.9001 23.5784 95.1978 23.5102 95.6164 23.4893C96.324 23.442 97.0437 23.4408 97.7754 23.4858C98.5176 23.5329 99.2958 23.6422 100.11 23.8135C100.517 23.8991 100.817 24.0005 101.011 24.1174C101.206 24.224 101.326 24.3528 101.371 24.5039C101.418 24.6445 101.421 24.8088 101.382 24.9967C101.322 25.2785 101.18 25.5156 100.954 25.7079C100.73 25.8897 100.415 25.9378 100.008 25.8522C99.1208 25.6655 98.3761 25.5524 97.774 25.5129C97.1719 25.4734 96.6678 25.46 96.2619 25.4727C95.8685 25.4771 95.5362 25.4508 95.2648 25.3937ZM102.882 31.3948C102.663 31.3487 102.483 31.2454 102.343 31.085C102.215 30.9164 102.129 30.7021 102.086 30.4423C102.042 30.1824 102.052 29.9012 102.116 29.5985C102.263 28.8991 102.385 28.2434 102.481 27.6314C102.577 27.0194 102.639 26.4657 102.667 25.9701C102.707 25.4664 102.701 25.0291 102.649 24.6583C102.62 24.3797 102.604 24.1693 102.601 24.0271C102.609 23.887 102.627 23.7491 102.656 23.6134C102.7 23.4046 102.798 23.2508 102.949 23.1519C103.111 23.0552 103.333 23.0365 103.615 23.0958C103.876 23.1507 104.09 23.2721 104.258 23.4599C104.438 23.6396 104.566 23.9117 104.642 24.2765C104.718 24.6413 104.735 25.1299 104.693 25.7425C104.651 26.355 104.547 27.1123 104.379 28.0144L103.606 27.8027C103.929 27.0424 104.292 26.4048 104.695 25.89C105.11 25.3669 105.545 24.9571 106 24.6604C106.465 24.3659 106.925 24.1738 107.38 24.0842C107.837 23.9842 108.264 23.9759 108.661 24.0593C109.026 24.1362 109.267 24.2851 109.384 24.5059C109.512 24.7289 109.543 24.997 109.477 25.3101C109.43 25.5293 109.316 25.7123 109.132 25.859C108.951 25.9953 108.678 26.1013 108.313 26.1772C107.716 26.2695 107.197 26.4327 106.755 26.6668C106.324 26.9031 105.945 27.1995 105.62 27.5561C105.304 27.9149 105.033 28.3211 104.807 28.7749C104.591 29.2309 104.4 29.7248 104.234 30.2566C104.115 30.6132 103.988 30.8807 103.852 31.0593C103.727 31.24 103.584 31.3516 103.422 31.3939C103.271 31.4384 103.091 31.4387 102.882 31.3948ZM112.818 33.4853C111.941 33.3008 111.201 32.9597 110.597 32.4621C110.004 31.9666 109.58 31.3651 109.325 30.6576C109.084 29.9418 109.047 29.182 109.216 28.3783C109.333 27.8251 109.551 27.3314 109.871 26.8974C110.204 26.4551 110.586 26.0887 111.018 25.798C111.452 25.4969 111.895 25.2848 112.346 25.1617C112.797 25.0386 113.205 25.0155 113.57 25.0923C113.727 25.1253 113.862 25.181 113.976 25.2596C114.103 25.3299 114.198 25.426 114.259 25.548C114.321 25.6699 114.333 25.8196 114.295 25.9971C114.23 26.3102 114.102 26.5778 113.914 26.7997C113.738 27.0134 113.43 27.1558 112.99 27.2267C112.701 27.3075 112.437 27.4209 112.199 27.5671C111.961 27.7132 111.76 27.8943 111.594 28.1102C111.429 28.3261 111.319 28.5646 111.264 28.8255C111.121 29.504 111.22 30.097 111.56 30.6046C111.902 31.1017 112.428 31.425 113.138 31.5743C113.744 31.7017 114.278 31.5961 114.742 31.2577C115.205 30.9192 115.511 30.4003 115.658 29.701C115.788 29.0851 115.728 28.5657 115.479 28.1427C115.243 27.7115 114.853 27.4388 114.31 27.3246C114.039 27.2675 113.801 27.2829 113.598 27.3708C113.404 27.4609 113.181 27.5884 112.929 27.7532C112.739 27.8769 112.581 27.9799 112.455 28.0623C112.339 28.1469 112.223 28.2043 112.108 28.2346C111.992 28.2648 111.857 28.2634 111.7 28.2305C111.533 28.1954 111.4 28.102 111.301 27.9504C111.202 27.7988 111.189 27.5507 111.261 27.2063C111.321 26.9244 111.458 26.6591 111.674 26.4102C111.892 26.1509 112.156 25.9338 112.465 25.7591C112.787 25.5761 113.125 25.4456 113.48 25.3676C113.834 25.2895 114.183 25.2867 114.528 25.3592C115.363 25.5349 116.044 25.8472 116.571 26.2959C117.11 26.7365 117.475 27.2819 117.665 27.9323C117.868 28.5745 117.885 29.2975 117.716 30.1012C117.547 30.905 117.218 31.5878 116.729 32.1499C116.24 32.712 115.653 33.1172 114.969 33.3656C114.297 33.6057 113.58 33.6456 112.818 33.4853ZM121.18 35.2938C120.711 35.195 120.356 34.9132 120.115 34.4485C119.875 33.9838 119.731 33.2721 119.682 32.3135C119.646 31.7064 119.619 31.134 119.602 30.5962C119.597 30.0501 119.571 29.5488 119.526 29.0923C119.482 28.6253 119.396 28.204 119.268 27.8282C119.149 27.4651 119.127 27.1773 119.205 26.9646C119.285 26.7416 119.421 26.585 119.614 26.4949C119.818 26.407 120.051 26.3905 120.312 26.4454C120.583 26.5025 120.805 26.6145 120.977 26.7815C121.149 26.9485 121.291 27.2564 121.404 27.7052C121.518 28.1436 121.584 28.6097 121.6 29.1036C121.616 29.5975 121.62 30.0944 121.613 30.5943C121.606 31.0942 121.624 31.5776 121.668 32.0446C121.713 32.5011 121.818 32.9101 121.982 33.2716L121.239 33.148C121.459 32.9327 121.657 32.6909 121.833 32.4228C122.012 32.1443 122.188 31.849 122.363 31.5369C122.54 31.2144 122.719 30.8815 122.9 30.5381C123.094 30.1865 123.311 29.8288 123.551 29.4651C123.974 28.802 124.36 28.3163 124.708 28.0081C125.058 27.6894 125.448 27.5751 125.876 27.6652C126.21 27.7354 126.483 27.8857 126.696 28.1158C126.91 28.346 127.083 28.6605 127.217 29.0593C127.362 29.4603 127.477 29.9478 127.564 30.5219C127.637 30.9515 127.686 31.3652 127.711 31.7629C127.749 32.1524 127.786 32.5199 127.823 32.8655C127.872 33.2028 127.937 33.511 128.02 33.79C128.116 34.0608 128.257 34.2976 128.443 34.5003L127.819 34.516C128.066 34.2737 128.283 33.9652 128.471 33.5905C128.669 33.2181 128.856 32.8214 129.032 32.4006C129.21 31.9693 129.381 31.5474 129.544 31.1348C129.717 30.7244 129.902 30.3654 130.097 30.0577C130.263 29.7874 130.447 29.5643 130.647 29.3885C130.86 29.2045 131.079 29.0707 131.304 28.9871C131.541 28.8954 131.769 28.8725 131.988 28.9187C132.166 28.956 132.314 29.0307 132.432 29.1427C132.563 29.2466 132.653 29.3855 132.704 29.5597C132.757 29.7234 132.759 29.9201 132.71 30.1497C132.675 30.3167 132.6 30.4697 132.483 30.6087C132.379 30.7395 132.248 30.87 132.09 31.0002C131.877 31.1842 131.682 31.4103 131.506 31.6784C131.342 31.9383 131.19 32.2223 131.049 32.5305C130.908 32.8387 130.77 33.1533 130.638 33.4741C130.505 33.795 130.362 34.1084 130.211 34.4144C129.884 35.0869 129.586 35.5964 129.317 35.9431C129.06 36.2815 128.818 36.5029 128.589 36.6074C128.362 36.7013 128.133 36.7241 127.904 36.6758C127.57 36.6055 127.283 36.4416 127.043 36.184C126.813 35.9285 126.598 35.5017 126.396 34.9035C126.232 34.4437 126.109 33.9655 126.028 33.4689C125.947 32.9723 125.874 32.4883 125.81 32.0169C125.756 31.5478 125.694 31.1204 125.622 30.7347C125.553 30.3387 125.445 30.0217 125.299 29.7838L125.794 29.839C125.543 30.0478 125.306 30.3195 125.083 30.654C124.862 30.9782 124.638 31.3452 124.41 31.755C124.195 32.1566 123.964 32.5822 123.716 33.0316C123.471 33.4705 123.195 33.9029 122.888 34.3287C122.701 34.5946 122.515 34.8061 122.329 34.9633C122.143 35.1204 121.958 35.2232 121.774 35.2715C121.587 35.3303 121.389 35.3378 121.18 35.2938ZM135.957 38.3703C135.07 38.1836 134.401 37.8411 133.949 37.3429C133.501 36.8343 133.231 36.1998 133.14 35.4395C133.06 34.6814 133.118 33.8326 133.316 32.8932C133.428 32.3608 133.555 31.8862 133.697 31.4692C133.84 31.0522 133.978 30.6561 134.111 30.2809C134.255 29.9078 134.382 29.5095 134.493 29.086C134.619 28.6437 134.701 28.2795 134.739 27.9933C134.78 27.6966 134.832 27.4241 134.895 27.1758C134.952 26.9588 135.065 26.7811 135.236 26.6426C135.42 26.4959 135.663 26.4544 135.965 26.5181C136.404 26.6103 136.683 26.8652 136.802 27.2827C136.921 27.7002 136.87 28.3325 136.648 29.1797C136.555 29.5197 136.454 29.8419 136.347 30.1463C136.241 30.4402 136.128 30.7435 136.008 31.0561C135.9 31.3604 135.787 31.6909 135.669 32.0474C135.563 32.3957 135.462 32.7943 135.368 33.2432C135.223 33.9321 135.176 34.4943 135.226 34.93C135.276 35.3656 135.418 35.7007 135.652 35.9353C135.888 36.1594 136.204 36.3132 136.601 36.3966C136.852 36.4493 137.054 36.4702 137.209 36.4592C137.366 36.4377 137.501 36.4171 137.615 36.3973C137.74 36.3693 137.876 36.3707 138.023 36.4014C138.231 36.4453 138.38 36.542 138.468 36.6914C138.557 36.8408 138.574 37.046 138.519 37.307C138.431 37.7245 138.172 38.0462 137.743 38.272C137.325 38.5 136.729 38.5328 135.957 38.3703ZM135.387 32.2988C134.978 32.3763 134.686 32.3148 134.51 32.1143C134.336 31.9034 134.283 31.6413 134.348 31.3282C134.406 31.0568 134.515 30.8236 134.675 30.6285C134.836 30.4335 135.159 30.2997 135.643 30.2271C135.934 30.1903 136.244 30.1683 136.572 30.1611C136.914 30.1457 137.25 30.1511 137.583 30.1775C137.925 30.206 138.248 30.2521 138.551 30.3158C138.885 30.3861 139.141 30.4891 139.32 30.6247C139.511 30.7522 139.637 30.904 139.698 31.0804C139.759 31.2567 139.768 31.4493 139.724 31.658C139.673 31.8981 139.562 32.0654 139.389 32.1599C139.217 32.2544 139.003 32.2858 138.748 32.2539C138.282 32.1886 137.865 32.1499 137.497 32.1379C137.142 32.1176 136.798 32.1215 136.465 32.1495C136.132 32.1776 135.772 32.2273 135.387 32.2988ZM140.778 39.303C140.382 39.2196 140.101 38.9751 139.935 38.5697C139.77 38.1643 139.752 37.6537 139.882 37.0378C140.097 36.0149 140.337 35.1062 140.602 34.3118C140.868 33.5174 141.122 32.8024 141.364 32.1667C141.609 31.5207 141.806 30.9243 141.953 30.3777C142.043 30.0041 142.106 29.6794 142.142 29.4036C142.189 29.1301 142.219 28.8804 142.234 28.6546C142.262 28.4206 142.305 28.1898 142.363 27.9624C142.42 27.7454 142.534 27.5676 142.705 27.4292C142.878 27.2803 143.121 27.2388 143.434 27.3047C143.726 27.3662 143.952 27.5117 144.11 27.7413C144.271 27.9605 144.353 28.2992 144.354 28.7573C144.369 29.2073 144.283 29.7943 144.098 30.5184C143.949 31.021 143.764 31.5652 143.542 32.1508C143.321 32.7365 143.088 33.4015 142.845 34.1459C142.613 34.8821 142.403 35.7262 142.214 36.6783L141.899 35.8436C142.58 34.8316 143.197 34.0239 143.749 33.4207C144.312 32.8196 144.835 32.4064 145.318 32.1811C145.804 31.9454 146.255 31.8715 146.673 31.9593C147.216 32.0735 147.6 32.3179 147.827 32.6926C148.063 33.0694 148.193 33.5655 148.216 34.1808C148.252 34.7878 148.225 35.5124 148.135 36.3546C148.075 36.9523 148.044 37.4363 148.042 37.8066C148.053 38.1686 148.079 38.4628 148.118 38.6891C148.17 38.9072 148.226 39.1096 148.285 39.2964C148.317 39.4013 148.337 39.5145 148.344 39.6359C148.362 39.7595 148.358 39.8787 148.334 39.9935C148.277 40.2649 148.142 40.4655 147.93 40.5951C147.727 40.727 147.475 40.7611 147.172 40.6974C146.807 40.6205 146.531 40.4316 146.343 40.1306C146.156 39.8295 146.034 39.4497 145.978 38.9909C145.922 38.5322 145.919 38.0301 145.968 37.4846C146.035 36.8556 146.078 36.3414 146.096 35.942C146.117 35.5321 146.117 35.1943 146.097 34.9284C146.077 34.6625 146.035 34.4194 145.973 34.1991C145.772 34.2222 145.464 34.4137 145.051 34.7736C144.637 35.1335 144.157 35.6538 143.61 36.3345C143.064 37.0152 142.487 37.8421 141.878 38.8151C141.707 39.0623 141.538 39.2175 141.372 39.2807C141.206 39.3439 141.008 39.3513 140.778 39.303ZM17.3852 42.0185C17.166 41.9724 16.9702 41.893 16.7977 41.7804C16.623 41.6783 16.4634 41.5302 16.3188 41.3363C16.1765 41.132 16.0307 40.8669 15.8812 40.5412C15.7361 40.1946 15.6259 39.8117 15.5506 39.3925C15.4775 38.9629 15.4255 38.5105 15.3947 38.0353C15.3661 37.5497 15.3438 37.0599 15.3278 36.5661C15.3223 36.0744 15.3071 35.6025 15.2823 35.1504C15.2598 34.6878 15.2127 34.2637 15.1413 33.8781C15.072 33.482 14.9676 33.1494 14.828 32.8802L15.4618 33.2097C15.0509 33.5048 14.6548 33.8847 14.2736 34.3495C13.8946 34.8039 13.5307 35.3159 13.1819 35.8856C12.8332 36.4554 12.4976 37.066 12.1752 37.7176C11.855 38.3587 11.5534 39.0147 11.2706 39.6855C11.1338 39.9729 10.9591 40.1814 10.7466 40.311C10.5362 40.4303 10.2692 40.4558 9.9456 40.3878C9.82034 40.3614 9.6808 40.2993 9.52697 40.2016C9.38138 40.1164 9.24896 39.9687 9.12973 39.7583C9.01049 39.5479 8.90883 39.254 8.82473 38.8766C8.72524 38.3651 8.63563 37.8067 8.55591 37.2013C8.48662 36.5982 8.43436 35.9658 8.39913 35.3044C8.36389 34.643 8.34541 33.9796 8.34369 33.3144C8.34416 32.6386 8.36441 31.9725 8.40444 31.3161C8.44447 30.6596 8.50511 30.0347 8.58635 29.4413C8.6374 29.1469 8.75796 28.9106 8.94802 28.7326C9.14852 28.5568 9.44187 28.5095 9.82808 28.5908C10.2456 28.6786 10.5228 28.8896 10.6596 29.2236C10.8091 29.5493 10.847 29.9388 10.7735 30.392C10.7016 30.8892 10.645 31.4169 10.6039 31.975C10.5754 32.525 10.5603 33.0886 10.5588 33.666C10.5594 34.2329 10.5798 34.8095 10.6199 35.3956C10.6623 35.9714 10.7192 36.5556 10.7907 37.1484L10.3292 37.1657C10.689 36.3367 11.0638 35.5653 11.4538 34.8517C11.8542 34.1402 12.2716 33.5032 12.7061 32.9406C13.1428 32.3675 13.5847 31.8992 14.0319 31.5354C14.3378 31.2728 14.6526 31.072 14.9761 30.933C15.2997 30.7939 15.6441 30.7629 16.0095 30.8397C16.3435 30.91 16.6031 31.1009 16.7883 31.4123C16.9861 31.7156 17.141 32.2223 17.2532 32.9326C17.3285 33.3518 17.3593 33.827 17.3456 34.3582C17.3446 34.8812 17.3433 35.4314 17.3417 36.0088C17.3528 36.5779 17.3891 37.1306 17.4507 37.6667C17.5227 38.2051 17.6612 38.6866 17.8661 39.1112L17.1954 39.0355C17.4502 38.6531 17.69 38.2131 17.9146 37.7153C18.1414 37.2071 18.3622 36.6759 18.577 36.1215C18.7917 35.5672 19.0001 35.017 19.2022 34.4709C19.4148 33.927 19.6185 33.4249 19.8135 32.9645C20.0189 32.5063 20.2298 32.1256 20.4462 31.8223C20.6692 31.4877 20.8837 31.2712 21.0897 31.1729C21.2957 31.0745 21.5396 31.055 21.8215 31.1143C22.1555 31.1846 22.381 31.3301 22.4981 31.551C22.6277 31.7636 22.6659 32.0223 22.6127 32.3272C22.5594 32.6321 22.437 32.9551 22.2453 33.2963C22.0047 33.7144 21.7677 34.1932 21.5343 34.7327C21.3009 35.2722 21.0672 35.8389 20.8332 36.4328C20.5993 37.0267 20.359 37.6247 20.1124 38.2268C19.868 38.8185 19.6123 39.386 19.3454 39.9294C19.0911 40.4645 18.8206 40.9471 18.5339 41.3773C18.3279 41.6828 18.1293 41.8753 17.9382 41.955C17.747 42.0347 17.5627 42.0559 17.3852 42.0185ZM23.2094 43.2113C22.9485 43.1564 22.7466 43.0539 22.6037 42.904C22.4609 42.754 22.3708 42.5607 22.3334 42.3239C22.3064 42.0893 22.3215 41.8363 22.3786 41.5649C22.5302 40.8447 22.6534 40.233 22.7484 39.7298C22.8538 39.2287 22.9398 38.7944 23.0062 38.4269C23.0853 38.0511 23.1536 37.7004 23.2113 37.3746C23.2793 37.051 23.3518 36.7066 23.4287 36.3412C23.488 36.0594 23.5824 35.8177 23.7121 35.616C23.8439 35.404 24.0232 35.2509 24.2501 35.157C24.477 35.063 24.7418 35.0479 25.0445 35.1116C25.3576 35.1775 25.5862 35.3345 25.7301 35.5828C25.8845 35.8333 25.9208 36.1789 25.839 36.6195C25.7929 36.8387 25.724 37.1403 25.6323 37.5243C25.5428 37.8979 25.4382 38.3173 25.3185 38.7826C25.2092 39.2502 25.0999 39.7177 24.9907 40.1852C24.8836 40.6423 24.7831 41.068 24.6892 41.4625C24.5953 41.857 24.5242 42.169 24.4759 42.3986C24.4122 42.7013 24.276 42.9343 24.0673 43.0975C23.8607 43.2502 23.5748 43.2882 23.2094 43.2113ZM25.3377 34.0287C24.8471 33.9255 24.4779 33.7116 24.2301 33.3869C23.9823 33.0623 23.898 32.7121 23.977 32.3363C24.0561 31.9605 24.2481 31.6957 24.553 31.5419C24.86 31.3776 25.2171 31.3383 25.6242 31.4239C25.9478 31.492 26.2038 31.6222 26.3923 31.8144C26.5911 32.0089 26.7249 32.2278 26.7936 32.4711C26.8645 32.7041 26.8758 32.9353 26.8275 33.165C26.7726 33.4259 26.6196 33.6608 26.3686 33.8696C26.1302 34.0701 25.7866 34.1232 25.3377 34.0287ZM29.8843 44.6648C28.9971 44.4781 28.3279 44.1357 27.8768 43.6374C27.4279 43.1288 27.1581 42.4943 27.0674 41.734C26.9871 40.9759 27.0458 40.1271 27.2435 39.1877C27.3555 38.6553 27.4826 38.1807 27.6248 37.7637C27.7671 37.3467 27.9049 36.9506 28.0384 36.5754C28.1823 36.2023 28.3097 35.804 28.4206 35.3805C28.5463 34.9382 28.6284 34.574 28.6669 34.2878C28.7075 33.9911 28.7594 33.7186 28.8225 33.4703C28.8791 33.2533 28.9928 33.0756 29.1636 32.9371C29.3471 32.7904 29.5902 32.7489 29.8929 32.8126C30.3313 32.9048 30.6101 33.1597 30.7294 33.5772C30.8486 33.9947 30.7973 34.627 30.5755 35.4742C30.4821 35.8142 30.3816 36.1364 30.274 36.4408C30.1685 36.7347 30.0557 37.038 29.9354 37.3506C29.8278 37.6549 29.7146 37.9854 29.596 38.3419C29.49 38.6902 29.3898 39.0888 29.2954 39.5377C29.1504 40.2266 29.103 40.7889 29.153 41.2245C29.203 41.6601 29.3451 41.9952 29.5791 42.2298C29.8154 42.4539 30.1318 42.6077 30.5285 42.6911C30.779 42.7438 30.9817 42.7647 31.1366 42.7537C31.2938 42.7322 31.4289 42.7116 31.5421 42.6918C31.6679 42.6638 31.8038 42.6652 31.95 42.6959C32.1587 42.7398 32.3073 42.8365 32.3958 42.9859C32.4843 43.1353 32.501 43.3405 32.4461 43.6015C32.3583 44.019 32.0999 44.3407 31.6708 44.5665C31.2522 44.7946 30.6567 44.8273 29.8843 44.6648ZM29.3142 38.5933C28.9055 38.6708 28.6132 38.6093 28.4374 38.4088C28.2638 38.1979 28.2099 37.9358 28.2758 37.6227C28.3329 37.3513 28.4419 37.1181 28.6029 36.9231C28.7638 36.728 29.0863 36.5942 29.5703 36.5216C30.0081 36.4612 30.4874 36.4367 31.0082 36.4481C31.5394 36.4618 32.0295 36.5159 32.4783 36.6103C32.9793 36.7157 33.3134 36.8896 33.4804 37.1318C33.6579 37.3763 33.7148 37.6498 33.6511 37.9525C33.6006 38.1926 33.4891 38.3599 33.3166 38.4544C33.1441 38.5489 32.9304 38.5803 32.6755 38.5484C32.2096 38.4831 31.7926 38.4444 31.4246 38.4324C31.0691 38.4121 30.725 38.416 30.392 38.444C30.0591 38.4721 29.6999 38.5218 29.3142 38.5933ZM34.7058 45.5975C34.4449 45.5426 34.2317 45.416 34.0663 45.2177C33.9009 45.0194 33.7927 44.7568 33.7416 44.43C33.7009 44.1053 33.7234 43.7394 33.809 43.3323C34.0242 42.3094 34.2645 41.4007 34.5297 40.6063C34.795 39.8119 35.049 39.0969 35.2917 38.4613C35.5367 37.8152 35.733 37.2188 35.8807 36.6722C35.9702 36.2986 36.0331 35.9739 36.0693 35.6982C36.116 35.4246 36.1467 35.1749 36.1615 34.9491C36.189 34.7151 36.2321 34.4843 36.2908 34.2569C36.3474 34.0399 36.4611 33.8621 36.6319 33.7237C36.805 33.5748 37.048 33.5333 37.3612 33.5992C37.6534 33.6607 37.879 33.8062 38.0378 34.0358C38.1988 34.255 38.2801 34.5937 38.2818 35.0519C38.2961 35.5018 38.2108 36.0888 38.0257 36.8129C37.8764 37.3155 37.691 37.8597 37.4697 38.4453C37.2484 39.031 37.0158 39.696 36.7719 40.4404C36.5407 41.1766 36.3304 42.0207 36.141 42.9728L35.8261 42.1381C36.5078 41.1261 37.1246 40.3184 37.6767 39.7152C38.2391 39.1141 38.7621 38.7009 39.2455 38.4756C39.7311 38.2399 40.1827 38.166 40.6002 38.2538C41.143 38.368 41.5276 38.6124 41.7539 38.9871C41.9908 39.3639 42.1207 39.86 42.1439 40.4753C42.1796 41.0823 42.1525 41.8069 42.0625 42.6491C42.0022 43.2468 41.9712 43.7308 41.9696 44.1011C41.9806 44.4631 42.0059 44.7573 42.0455 44.9836C42.0977 45.2017 42.1532 45.4041 42.212 45.5909C42.2444 45.6958 42.2642 45.809 42.2714 45.9304C42.289 46.054 42.2857 46.1732 42.2615 46.288C42.2044 46.5594 42.0696 46.76 41.857 46.8896C41.6549 47.0215 41.4024 47.0556 41.0997 46.9919C40.7344 46.915 40.458 46.7261 40.2707 46.4251C40.0833 46.124 39.9616 45.7442 39.9055 45.2854C39.8494 44.8267 39.8461 44.3246 39.8954 43.7791C39.9624 43.1501 40.0052 42.6359 40.0238 42.2365C40.0446 41.8267 40.0449 41.4888 40.0245 41.2229C40.0042 40.957 39.9627 40.7139 39.9 40.4936C39.6989 40.5167 39.3916 40.7082 38.978 41.0681C38.5643 41.428 38.0843 41.9483 37.5377 42.629C36.9912 43.3097 36.4139 44.1366 35.8059 45.1096C35.6339 45.3568 35.465 45.512 35.2991 45.5752C35.1332 45.6384 34.9355 45.6458 34.7058 45.5975ZM51.1123 49.0659C50.2355 48.8815 49.6057 48.5854 49.2227 48.1778C48.8524 47.762 48.7145 47.3297 48.8089 46.8808C48.8528 46.6721 48.9349 46.515 49.0552 46.4095C49.186 46.3062 49.3609 46.2776 49.5801 46.3237C49.7263 46.3545 49.8482 46.3965 49.946 46.4497C50.0543 46.5052 50.1655 46.5722 50.2798 46.6508C50.3963 46.7189 50.5347 46.7862 50.6951 46.8526C50.866 46.9213 51.0767 46.9819 51.3272 47.0347C51.7969 47.1335 52.2136 47.1994 52.5773 47.2323C52.941 47.2652 53.261 47.2726 53.5373 47.2544C53.8263 47.228 54.0976 47.1816 54.3514 47.1151C54.3267 46.8701 54.1868 46.6281 53.9319 46.3891C53.6874 46.1524 53.3792 45.9077 53.0073 45.655C52.6457 45.4046 52.2656 45.1393 51.8667 44.8591C51.4805 44.5708 51.1206 44.2607 50.7871 43.9289C50.4662 43.5889 50.222 43.2214 50.0544 42.8264C49.8994 42.4232 49.8725 41.9815 49.9735 41.5014C50.0811 40.9899 50.3272 40.5457 50.7117 40.1688C51.0962 39.7919 51.5648 39.4817 52.1174 39.2383C52.67 38.9949 53.2482 38.8113 53.8519 38.6876C54.4579 38.5535 55.035 38.4788 55.5832 38.4633C56.1441 38.4396 56.6177 38.4684 57.0039 38.5497C57.2857 38.609 57.4991 38.7084 57.6442 38.8479C57.8019 38.9792 57.8997 39.136 57.9376 39.3184C57.986 39.503 57.9893 39.6944 57.9476 39.8928C57.9014 40.112 57.7993 40.2867 57.6411 40.4169C57.4829 40.5471 57.2574 40.6087 56.9646 40.6015C56.0295 40.5901 55.2017 40.6394 54.4809 40.7493C53.7706 40.8615 53.2083 41.0211 52.7942 41.2283C52.38 41.4354 52.1432 41.6799 52.0839 41.9618C52.0378 42.181 52.1202 42.4109 52.3312 42.6515C52.5548 42.8838 52.8515 43.1315 53.2213 43.3946C53.5932 43.6473 53.9827 43.92 54.3898 44.2128C54.8074 44.5078 55.1922 44.8285 55.5444 45.1751C55.8988 45.5113 56.1702 45.8791 56.3587 46.2784C56.5494 46.6674 56.5953 47.0967 56.4965 47.5664C56.4042 48.0048 56.2103 48.3564 55.9148 48.6212C55.6193 48.8861 55.2304 49.0767 54.748 49.1933C54.2761 49.312 53.7317 49.3609 53.1148 49.3401C52.5105 49.3111 51.843 49.2197 51.1123 49.0659ZM58.482 50.6166C58.1584 50.5485 57.929 50.3694 57.7938 50.0794C57.6691 49.7915 57.6108 49.4468 57.619 49.0452C57.6399 48.6354 57.6953 48.2165 57.7853 47.7885C57.8534 47.465 57.933 47.1384 58.0242 46.8087C58.1176 46.4687 58.2098 46.1338 58.301 45.8042C58.3921 45.4746 58.4717 45.148 58.5398 44.8244C58.5925 44.5739 58.6211 44.3346 58.6254 44.1066C58.6403 43.8808 58.6707 43.6583 58.7168 43.4391C58.7564 43.2513 58.8594 43.0985 59.0258 42.9809C59.1923 42.8634 59.4059 42.832 59.6669 42.8869C59.9383 42.944 60.141 43.0684 60.2751 43.2602C60.4113 43.4414 60.4949 43.6661 60.5257 43.9342C60.5587 44.1918 60.5474 44.4783 60.492 44.7937L60.0569 44.9964C60.3024 44.5031 60.568 44.0957 60.8536 43.7743C61.1393 43.4529 61.4438 43.2227 61.7674 43.0836C62.1014 42.9468 62.4406 42.9146 62.7851 42.9871C63.1817 43.0706 63.4801 43.2587 63.6801 43.5515C63.8905 43.8465 64.0268 44.2348 64.0889 44.7166C64.1532 45.188 64.1769 45.7489 64.16 46.3993C64.1436 46.9954 64.1324 47.489 64.1264 47.8801C64.1226 48.2608 64.1267 48.5778 64.1388 48.8311L63.7301 48.5979C64.2359 47.5925 64.7528 46.742 65.2806 46.0465C65.8211 45.3427 66.3493 44.8271 66.8651 44.4996C67.3809 44.1721 67.8528 44.0534 68.2808 44.1434C69.0323 44.3016 69.5122 44.7405 69.7205 45.4601C69.9414 46.1715 69.9847 47.1834 69.8502 48.4959C69.7849 49.1688 69.7586 49.7083 69.7713 50.1143C69.7862 50.5098 69.8186 50.8219 69.8686 51.0504C69.9209 51.2685 69.9629 51.4572 69.9948 51.6165C70.0289 51.7654 70.025 51.939 69.9833 52.1373C69.9284 52.3982 69.7957 52.5883 69.5854 52.7076C69.375 52.8268 69.1236 52.8557 68.8314 52.7942C68.5495 52.7349 68.3147 52.5819 68.1268 52.3353C67.9493 52.0908 67.8273 51.7381 67.7608 51.2772C67.6964 50.8059 67.6868 50.2043 67.7317 49.4726C67.786 48.8518 67.8203 48.3522 67.8346 47.9736C67.8614 47.5869 67.8677 47.2721 67.8534 47.0293C67.8391 46.7865 67.8119 46.5791 67.7718 46.4071C67.7421 46.2374 67.6904 46.0685 67.6168 45.9004L68.0453 46.0396C67.5443 46.3484 67.0928 46.733 66.6907 47.1934C66.2991 47.656 65.9234 48.1983 65.5636 48.8202C65.2038 49.4421 64.818 50.1621 64.4061 50.9801C64.2841 51.2488 64.1191 51.4375 63.9109 51.5463C63.7049 51.6447 63.4871 51.6697 63.2574 51.6214C62.9234 51.5511 62.6687 51.3885 62.4935 51.1336C62.3308 50.8705 62.2256 50.5159 62.1777 50.0698C62.1403 49.6259 62.1436 49.0925 62.1875 48.4695C62.2242 47.9323 62.2456 47.468 62.2516 47.0769C62.268 46.6879 62.2693 46.3449 62.2556 46.0477C62.244 45.74 62.2132 45.4719 62.1632 45.2434C62.1258 45.0066 62.0632 44.7864 61.9752 44.5825L62.3172 44.8998C61.98 45.1558 61.6652 45.4602 61.373 45.8129C61.0912 46.1678 60.8394 46.5618 60.6175 46.9947C60.3956 47.4276 60.1954 47.8869 60.0169 48.3725C59.8384 48.8582 59.6734 49.3576 59.5218 49.8707C59.4373 50.169 59.3054 50.3811 59.1264 50.5069C58.9473 50.6327 58.7325 50.6693 58.482 50.6166ZM73.314 53.7537C72.7921 53.6439 72.36 53.444 72.0177 53.154C71.6754 52.8639 71.4342 52.508 71.2941 52.0861C71.1561 51.6537 71.1399 51.1871 71.2453 50.686C71.3551 50.1641 71.5495 49.6546 71.8285 49.1574C72.1202 48.6519 72.469 48.1858 72.8749 47.7589C73.2808 47.332 73.7269 46.9734 74.213 46.6833C74.7014 46.3828 75.2035 46.1723 75.7193 46.0519C76.2351 45.9316 76.7384 45.923 77.2289 46.0262C77.5734 46.0987 77.8385 46.2635 78.0242 46.5206C78.2099 46.7776 78.2621 47.0993 78.1809 47.4855C78.1479 47.6421 78.0746 47.7574 77.9609 47.8316C77.8598 47.8976 77.7329 47.9308 77.5802 47.9314C76.8693 47.8908 76.209 48.0244 75.5993 48.3321C74.9917 48.6294 74.4751 49.0384 74.0494 49.5593C73.6363 50.0719 73.3639 50.6413 73.2321 51.2676C73.186 51.4868 73.1588 51.6936 73.1506 51.8881C73.155 52.0743 73.185 52.3204 73.2405 52.6264L72.5539 50.9941C72.7627 51.2451 72.9481 51.4258 73.1102 51.5362C73.2827 51.6488 73.4994 51.7326 73.7604 51.7875C74.3449 51.9105 74.9519 51.6676 75.5814 51.0588C76.2109 50.4501 76.7728 49.4892 77.2671 48.1761C77.3572 47.9553 77.4937 47.7987 77.6766 47.7064C77.8617 47.6036 78.0639 47.5753 78.2831 47.6215C78.638 47.6961 78.9187 47.8642 79.1253 48.1257C79.3319 48.3871 79.4429 48.6885 79.4583 49.0296C79.5051 49.5845 79.5502 50.0954 79.5936 50.5623C79.6393 51.0188 79.7248 51.4674 79.8501 51.9079C79.988 52.3403 80.1894 52.8078 80.4542 53.3104C80.5488 53.4829 80.5751 53.6683 80.5334 53.8666C80.5021 54.0671 80.4228 54.263 80.2953 54.4542C80.1805 54.6371 80.0306 54.78 79.8455 54.8827C79.673 54.9772 79.4771 55.0014 79.2579 54.9553C79.0805 54.918 78.942 54.8507 78.8426 54.7535C78.7514 54.6689 78.6739 54.5708 78.6102 54.4593C78.4503 54.1314 78.309 53.8182 78.1865 53.52C78.0662 53.2112 77.9659 52.8849 77.8856 52.541C77.8076 52.1867 77.7487 51.7928 77.7091 51.3594C77.6717 50.9155 77.659 50.406 77.6711 49.8308L78.4168 49.9386C77.9225 51.0446 77.3837 51.8959 76.8004 52.4925C76.217 53.0892 75.6232 53.4766 75.0189 53.6546C74.4251 53.8349 73.8568 53.8679 73.314 53.7537ZM82.6925 55.7597C82.4733 55.7136 82.2934 55.6104 82.1527 55.45C82.0247 55.2813 81.939 55.0671 81.8955 54.8072C81.8521 54.5474 81.8623 54.2661 81.9259 53.9634C82.0731 53.2641 82.1947 52.6084 82.2908 51.9964C82.3868 51.3844 82.4489 50.8306 82.4768 50.3351C82.5174 49.8313 82.5113 49.394 82.4585 49.0232C82.4299 48.7447 82.4143 48.5343 82.4115 48.392C82.4192 48.2519 82.4373 48.114 82.4658 47.9783C82.5098 47.7696 82.6075 47.6157 82.7591 47.5168C82.9212 47.4201 83.1431 47.4014 83.425 47.4607C83.6859 47.5156 83.9002 47.637 84.0678 47.8249C84.248 48.0045 84.376 48.2767 84.4519 48.6415C84.5277 49.0062 84.5448 49.4949 84.5031 50.1074C84.4614 50.72 84.3566 51.4773 84.1886 52.3793L83.4156 52.1677C83.7391 51.4073 84.1022 50.7697 84.5048 50.2549C84.92 49.7319 85.3551 49.322 85.8099 49.0253C86.2752 48.7308 86.7353 48.5387 87.1901 48.4491C87.6472 48.3491 88.074 48.3408 88.4707 48.4243C88.836 48.5012 89.0772 48.65 89.1942 48.8708C89.3217 49.0939 89.3525 49.3619 89.2866 49.6751C89.2405 49.8943 89.1257 50.0772 88.9422 50.2239C88.761 50.3602 88.4879 50.4663 88.1232 50.5421C87.526 50.6345 87.0066 50.7977 86.565 51.0318C86.1337 51.268 85.7553 51.5645 85.4295 51.921C85.1142 52.2798 84.8435 52.6861 84.6172 53.1399C84.4013 53.5959 84.2102 54.0898 84.0438 54.6216C83.9252 54.9781 83.798 55.2457 83.6624 55.4242C83.5371 55.605 83.3938 55.7165 83.2323 55.7588C83.0812 55.8034 82.9013 55.8037 82.6925 55.7597ZM92.3497 57.808C91.4624 57.6214 90.7933 57.2789 90.3422 56.7807C89.8933 56.272 89.6235 55.6375 89.5328 54.8772C89.4525 54.1191 89.5112 53.2704 89.7088 52.3309C89.8208 51.7986 89.948 51.3239 90.0902 50.9069C90.2324 50.49 90.3703 50.0939 90.5037 49.7186C90.6476 49.3456 90.775 48.9473 90.886 48.5237C91.0117 48.0815 91.0938 47.7172 91.1322 47.431C91.1729 47.1344 91.2247 46.8619 91.2879 46.6135C91.3444 46.3965 91.4581 46.2188 91.629 46.0804C91.8124 45.9337 92.0555 45.8921 92.3582 45.9558C92.7966 46.0481 93.0755 46.303 93.1947 46.7205C93.314 47.138 93.2627 47.7703 93.0408 48.6174C92.9475 48.9575 92.847 49.2797 92.7394 49.5841C92.6339 49.878 92.5211 50.1812 92.4008 50.4938C92.2931 50.7982 92.18 51.1286 92.0614 51.4852C91.9554 51.8335 91.8552 52.2321 91.7607 52.6809C91.6158 53.3698 91.5683 53.9321 91.6184 54.3677C91.6684 54.8034 91.8105 55.1385 92.0445 55.373C92.2808 55.5971 92.5972 55.7509 92.9939 55.8344C93.2444 55.8871 93.4471 55.9079 93.602 55.8969C93.7591 55.8755 93.8943 55.8549 94.0074 55.8351C94.1332 55.8071 94.2692 55.8084 94.4153 55.8392C94.6241 55.8831 94.7727 55.9798 94.8612 56.1292C94.9496 56.2786 94.9664 56.4838 94.9115 56.7447C94.8237 57.1623 94.5652 57.4839 94.1362 57.7098C93.7176 57.9378 93.1221 57.9706 92.3497 57.808ZM91.7796 51.7366C91.3709 51.8141 91.0786 51.7526 90.9028 51.5521C90.7292 51.3411 90.6753 51.0791 90.7412 50.766C90.7983 50.4946 90.9073 50.2613 91.0683 50.0663C91.2292 49.8713 91.5517 49.7375 92.0356 49.6649C92.3268 49.628 92.6366 49.606 92.9651 49.5989C93.3063 49.5834 93.6431 49.5889 93.9754 49.6152C94.3182 49.6438 94.641 49.6899 94.9437 49.7536C95.2777 49.8238 95.534 49.9268 95.7126 50.0625C95.9037 50.1899 96.0298 50.3418 96.0908 50.5181C96.1518 50.6945 96.1604 50.887 96.1165 51.0958C96.0659 51.3359 95.9544 51.5032 95.7819 51.5977C95.6095 51.6922 95.3958 51.7235 95.1409 51.6917C94.675 51.6264 94.258 51.5877 93.8899 51.5756C93.5345 51.5553 93.1903 51.5592 92.8574 51.5873C92.5245 51.6153 92.1652 51.6651 91.7796 51.7366ZM105.275 60.5276C104.993 60.4683 104.754 60.309 104.558 60.0497C104.364 59.78 104.264 59.3229 104.258 58.6785C104.264 58.2874 104.289 57.8567 104.333 57.3864C104.388 56.9184 104.473 56.3857 104.588 55.7886C104.715 55.1832 104.884 54.483 105.095 53.688C105.308 52.8827 105.578 51.9366 105.905 50.8499C105.985 50.5725 106.117 50.3604 106.3 50.2137C106.494 50.0692 106.716 50.0233 106.967 50.0761C107.458 50.1793 107.756 50.3946 107.861 50.722C107.977 51.0516 107.942 51.5565 107.755 52.2366C107.46 53.3299 107.219 54.2657 107.033 55.0442C106.858 55.8249 106.731 56.4794 106.653 57.0079C106.574 57.5364 106.515 57.9762 106.473 58.3272C106.445 58.67 106.422 58.9596 106.405 59.1958C106.401 59.4238 106.379 59.6317 106.339 59.8196C106.271 60.1432 106.15 60.3574 105.975 60.4624C105.8 60.5673 105.567 60.5891 105.275 60.5276ZM109.491 51.8334C108.938 51.717 108.421 51.6083 107.941 51.5073C107.471 51.4085 107.024 51.3088 106.598 51.2083C106.172 51.1078 105.747 51.0021 105.324 50.8912C104.9 50.7803 104.461 50.6661 104.006 50.5486C103.585 50.4272 103.265 50.2891 103.047 50.1342C102.839 49.9815 102.706 49.8117 102.647 49.625C102.591 49.4277 102.589 49.2039 102.641 48.9534C102.685 48.7446 102.784 48.5856 102.938 48.4762C103.094 48.3564 103.323 48.3284 103.626 48.3921C104.148 48.5019 104.617 48.606 105.032 48.7042C105.458 48.8047 105.856 48.9049 106.228 49.0049C106.612 49.0966 106.989 49.1924 107.361 49.2923C107.745 49.384 108.145 49.4738 108.563 49.5617C108.96 49.6451 109.296 49.705 109.572 49.7412C109.86 49.7692 110.132 49.7991 110.387 49.8309C110.644 49.8523 110.934 49.8971 111.258 49.9651C111.529 50.0222 111.713 50.1318 111.81 50.2939C111.917 50.4581 111.947 50.6498 111.901 50.869C111.833 51.1926 111.673 51.4368 111.42 51.6017C111.168 51.7665 110.868 51.8671 110.523 51.9034C110.18 51.9292 109.836 51.9059 109.491 51.8334ZM111.69 61.7956C111.429 61.7407 111.215 61.614 111.05 61.4157C110.885 61.2174 110.776 60.9549 110.725 60.628C110.685 60.3033 110.707 59.9375 110.793 59.5304C111.008 58.5074 111.248 57.5988 111.513 56.8044C111.779 56.0099 112.033 55.2949 112.275 54.6593C112.52 54.0132 112.717 53.4169 112.864 52.8702C112.954 52.4967 113.017 52.172 113.053 51.8962C113.1 51.6226 113.13 51.3729 113.145 51.1471C113.173 50.9131 113.216 50.6824 113.275 50.4549C113.331 50.2379 113.445 50.0602 113.616 49.9217C113.789 49.7728 114.032 49.7313 114.345 49.7972C114.637 49.8587 114.863 50.0043 115.021 50.2339C115.182 50.4531 115.264 50.7917 115.266 51.2499C115.28 51.6998 115.195 52.2868 115.009 53.0109C114.86 53.5136 114.675 54.0577 114.453 54.6434C114.232 55.229 113.999 55.8941 113.756 56.6385C113.524 57.3746 113.314 58.2188 113.125 59.1708L112.81 58.3361C113.491 57.3241 114.108 56.5165 114.66 55.9132C115.223 55.3121 115.746 54.899 116.229 54.6737C116.715 54.4379 117.166 54.364 117.584 54.4519C118.127 54.5661 118.511 54.8105 118.738 55.1851C118.974 55.562 119.104 56.058 119.128 56.6733C119.163 57.2803 119.136 58.005 119.046 58.8471C118.986 59.4448 118.955 59.9288 118.953 60.2991C118.964 60.6611 118.99 60.9553 119.029 61.1816C119.081 61.3997 119.137 61.6022 119.196 61.7889C119.228 61.8939 119.248 62.007 119.255 62.1284C119.273 62.252 119.269 62.3713 119.245 62.4861C119.188 62.7575 119.053 62.958 118.841 63.0877C118.639 63.2195 118.386 63.2536 118.083 63.1899C117.718 63.1131 117.442 62.9241 117.254 62.6231C117.067 62.3221 116.945 61.9422 116.889 61.4835C116.833 61.0248 116.83 60.5227 116.879 59.9771C116.946 59.3481 116.989 58.8339 117.008 58.4345C117.028 58.0247 117.029 57.6868 117.008 57.4209C116.988 57.1551 116.946 56.912 116.884 56.6917C116.683 56.7148 116.375 56.9063 115.962 57.2661C115.548 57.626 115.068 58.1463 114.521 58.827C113.975 59.5078 113.398 60.3346 112.79 61.3076C112.618 61.5548 112.449 61.71 112.283 61.7732C112.117 61.8364 111.919 61.8439 111.69 61.7956ZM121.68 63.9304C121.419 63.8755 121.217 63.773 121.074 63.6231C120.932 63.4731 120.842 63.2798 120.804 63.043C120.777 62.8084 120.792 62.5554 120.849 62.284C121.001 61.5638 121.124 60.9521 121.219 60.4489C121.325 59.9478 121.411 59.5135 121.477 59.146C121.556 58.7702 121.624 58.4195 121.682 58.0937C121.75 57.7701 121.823 57.4256 121.899 57.0603C121.959 56.7785 122.053 56.5368 122.183 56.3351C122.315 56.1231 122.494 55.97 122.721 55.8761C122.948 55.7821 123.213 55.767 123.515 55.8307C123.828 55.8965 124.057 56.0536 124.201 56.3019C124.355 56.5524 124.392 56.898 124.31 57.3386C124.264 57.5578 124.195 57.8594 124.103 58.2434C124.014 58.617 123.909 59.0364 123.789 59.5017C123.68 59.9693 123.571 60.4368 123.461 60.9043C123.354 61.3614 123.254 61.7871 123.16 62.1816C123.066 62.576 122.995 62.8881 122.947 63.1177C122.883 63.4204 122.747 63.6534 122.538 63.8166C122.331 63.9693 122.046 64.0072 121.68 63.9304ZM123.808 54.7478C123.318 54.6446 122.949 54.4307 122.701 54.106C122.453 53.7814 122.369 53.4312 122.448 53.0554C122.527 52.6796 122.719 52.4148 123.024 52.261C123.331 52.0967 123.688 52.0574 124.095 52.143C124.419 52.2111 124.675 52.3413 124.863 52.5335C125.062 52.728 125.196 52.9469 125.264 53.1902C125.335 53.4232 125.347 53.6544 125.298 53.8841C125.243 54.145 125.09 54.3799 124.839 54.5887C124.601 54.7892 124.257 54.8423 123.808 54.7478ZM132.391 66.184C131.994 66.1006 131.684 65.8663 131.46 65.4812C131.238 65.0857 131.12 64.5322 131.106 63.8208C131.094 63.099 131.2 62.2109 131.421 61.1567C131.492 60.8226 131.539 60.5438 131.565 60.3202C131.6 60.0988 131.612 59.9159 131.598 59.7714C131.585 59.6269 131.547 59.4989 131.483 59.3874C131.43 59.2781 131.349 59.1685 131.242 59.0587C131.492 59.1114 131.695 59.1814 131.851 59.2687C132.02 59.3478 132.131 59.4692 132.183 59.6329C132.238 59.7862 132.232 59.9974 132.165 60.2666C132.044 60.0123 131.929 59.8302 131.822 59.7203C131.724 59.6126 131.603 59.5434 131.457 59.5127C131.258 59.471 131.002 59.5479 130.689 59.7435C130.377 59.9287 130.028 60.2149 129.641 60.6023C129.267 60.9814 128.88 61.4503 128.479 62.0091C128.088 62.57 127.704 63.2032 127.327 63.9086C127.11 64.3206 126.905 64.5937 126.713 64.7278C126.524 64.8514 126.293 64.8847 126.022 64.8276C125.552 64.7287 125.257 64.4214 125.137 63.9055C125.016 63.3897 125.033 62.7665 125.187 62.0358C125.297 61.5139 125.413 61.0642 125.536 60.6868C125.669 60.3116 125.797 59.9624 125.92 59.6394C126.053 59.3186 126.176 58.9903 126.291 58.6546C126.417 58.3107 126.527 57.9195 126.619 57.4811C126.685 57.168 126.808 56.9485 126.987 56.8227C127.166 56.6969 127.396 56.6636 127.678 56.7229C127.991 56.7888 128.209 56.9437 128.332 57.1876C128.468 57.4233 128.488 57.7707 128.391 58.23C128.323 58.5536 128.234 58.8456 128.125 59.106C128.028 59.3582 127.916 59.6342 127.787 59.9342C127.661 60.2237 127.532 60.5781 127.4 60.9972C127.27 61.406 127.151 61.9205 127.043 62.5407L126.656 61.9689C127.259 60.864 127.878 59.9696 128.512 59.2856C129.157 58.6038 129.788 58.1205 130.403 57.8359C131.019 57.5512 131.583 57.4627 132.094 57.5704C132.752 57.7087 133.196 58.0311 133.428 58.5376C133.669 59.0463 133.713 59.666 133.56 60.3967C133.399 61.1586 133.279 61.8091 133.198 62.348C133.117 62.887 133.089 63.3333 133.113 63.6871C133.147 64.0431 133.243 64.3359 133.402 64.5655C133.501 64.7171 133.567 64.8674 133.601 65.0162C133.638 65.1547 133.635 65.323 133.593 65.5214C133.547 65.7406 133.416 65.9254 133.199 66.076C132.994 66.2183 132.725 66.2543 132.391 66.184ZM141.787 68.1119C141.421 68.0351 141.019 67.8741 140.58 67.6292C140.154 67.376 139.733 67.0695 139.319 66.7097C138.916 66.3417 138.555 65.9604 138.235 65.566C137.917 65.1612 137.674 64.7613 137.506 64.3663C137.339 63.9713 137.287 63.6225 137.35 63.3198C137.434 62.9231 137.64 62.5413 137.968 62.1743C138.308 61.7991 138.711 61.4642 139.176 61.1697C139.654 60.8669 140.149 60.6114 140.662 60.4031C141.177 60.1844 141.661 60.0303 142.116 59.9407C142.571 59.8511 142.945 59.837 143.237 59.8985C143.581 59.971 143.835 60.1116 143.998 60.3204C144.164 60.5187 144.212 60.7796 144.144 61.1032C144.089 61.3641 143.971 61.5627 143.79 61.699C143.609 61.8353 143.307 61.9243 142.884 61.9661C142.469 62.0205 142.068 62.1107 141.682 62.2365C141.309 62.3541 140.97 62.4899 140.665 62.6437C140.362 62.7871 140.118 62.9374 139.932 63.0945C139.746 63.2517 139.642 63.3877 139.617 63.5025C139.589 63.6382 139.644 63.8406 139.784 64.1098C139.934 64.3811 140.197 64.6871 140.572 65.0277C140.949 65.3578 141.468 65.6904 142.128 66.0254C142.502 66.2133 142.741 66.4269 142.843 66.6664C142.956 66.9081 142.988 67.1438 142.94 67.3735C142.88 67.6553 142.748 67.8674 142.544 68.0097C142.352 68.1437 142.1 68.1778 141.787 68.1119ZM135.952 66.9334C135.744 66.8895 135.552 66.7892 135.378 66.6327C135.206 66.4657 135.09 66.2124 135.031 65.8729C134.972 65.5334 135.003 65.0714 135.126 64.4869C135.212 64.0798 135.362 63.5499 135.575 62.8973C135.789 62.2446 136.03 61.5158 136.297 60.711C136.564 59.9062 136.815 59.076 137.05 58.2207C137.171 57.7993 137.26 57.4529 137.318 57.1815C137.385 56.9123 137.438 56.689 137.475 56.5115C137.512 56.3341 137.539 56.1816 137.555 56.0542C137.571 55.9267 137.598 55.7963 137.637 55.6628C137.707 55.3831 137.838 55.1763 138.029 55.0422C138.231 54.9103 138.473 54.8741 138.755 54.9334C139.048 54.9949 139.26 55.1487 139.394 55.3948C139.528 55.6409 139.574 56.0158 139.533 56.5196C139.503 57.0255 139.373 57.6958 139.143 58.5303C138.977 59.0621 138.815 59.5458 138.658 59.9815C138.513 60.4089 138.376 60.805 138.244 61.1698C138.113 61.5346 137.986 61.8785 137.864 62.2015C137.752 62.5267 137.646 62.8479 137.547 63.1649C137.458 63.484 137.377 63.8159 137.304 64.1603C137.219 64.5674 137.154 64.9245 137.112 65.2316C137.081 65.5305 137.032 65.8417 136.964 66.1653C136.896 66.4888 136.773 66.7135 136.594 66.8394C136.427 66.9569 136.213 66.9883 135.952 66.9334ZM145.4 68.9211C145.139 68.8662 144.937 68.7638 144.794 68.6138C144.651 68.4639 144.561 68.2705 144.524 68.0337C144.497 67.7992 144.512 67.5462 144.569 67.2748C144.72 66.5546 144.844 65.9428 144.939 65.4396C145.044 64.9386 145.13 64.5043 145.196 64.1368C145.275 63.761 145.344 63.4102 145.401 63.0844C145.469 62.7609 145.542 62.4164 145.619 62.0511C145.678 61.7692 145.773 61.5275 145.902 61.3259C146.034 61.1138 146.213 60.9608 146.44 60.8668C146.667 60.7729 146.932 60.7577 147.235 60.8214C147.548 60.8873 147.776 61.0444 147.92 61.2927C148.075 61.5432 148.111 61.8887 148.029 62.3293C147.983 62.5485 147.914 62.8501 147.822 63.2342C147.733 63.6077 147.628 64.0272 147.509 64.4925C147.399 64.96 147.29 65.4275 147.181 65.8951C147.074 66.3521 146.973 66.7779 146.879 67.1724C146.785 67.5668 146.714 67.8789 146.666 68.1085C146.602 68.4112 146.466 68.6441 146.257 68.8073C146.051 68.9601 145.765 68.998 145.4 68.9211ZM147.528 59.7386C147.037 59.6354 146.668 59.4214 146.42 59.0968C146.172 58.7722 146.088 58.4219 146.167 58.0462C146.246 57.6704 146.438 57.4056 146.743 57.2517C147.05 57.0874 147.407 57.0481 147.814 57.1338C148.138 57.2019 148.394 57.332 148.582 57.5243C148.781 57.7187 148.915 57.9376 148.984 58.181C149.055 58.4139 149.066 58.6452 149.018 58.8748C148.963 59.1358 148.81 59.3707 148.559 59.5794C148.32 59.78 147.977 59.833 147.528 59.7386ZM156.11 71.1748C155.714 71.0913 155.403 70.8571 155.179 70.472C154.957 70.0765 154.839 69.523 154.825 68.8116C154.814 68.0897 154.919 67.2017 155.141 66.1474C155.211 65.8134 155.259 65.5346 155.284 65.311C155.32 65.0896 155.331 64.9067 155.318 64.7622C155.305 64.6177 155.266 64.4897 155.202 64.3782C155.149 64.2689 155.069 64.1593 154.961 64.0494C155.211 64.1021 155.415 64.1722 155.571 64.2595C155.739 64.3386 155.85 64.46 155.903 64.6237C155.958 64.7769 155.952 64.9882 155.884 65.2574C155.763 65.003 155.649 64.8209 155.541 64.7111C155.444 64.6034 155.322 64.5342 155.176 64.5035C154.978 64.4617 154.722 64.5387 154.408 64.7343C154.097 64.9194 153.747 65.2057 153.361 65.593C152.987 65.9721 152.599 66.4411 152.198 66.9998C151.808 67.5608 151.424 68.1939 151.046 68.8994C150.829 69.3114 150.624 69.5845 150.433 69.7185C150.243 69.8422 150.013 69.8754 149.741 69.8183C149.272 69.7195 148.976 69.4121 148.856 68.8963C148.736 68.3805 148.752 67.7572 148.906 67.0266C149.016 66.5046 149.132 66.055 149.255 65.6776C149.389 65.3023 149.517 64.9532 149.639 64.6302C149.772 64.3093 149.896 63.9811 150.01 63.6454C150.137 63.3015 150.246 62.9103 150.339 62.4719C150.405 62.1588 150.527 61.9393 150.706 61.8135C150.885 61.6876 151.116 61.6544 151.397 61.7137C151.711 61.7796 151.929 61.9345 152.052 62.1784C152.188 62.414 152.207 62.7615 152.11 63.2208C152.042 63.5443 151.954 63.8363 151.844 64.0968C151.748 64.3489 151.635 64.625 151.507 64.925C151.38 65.2145 151.251 65.5688 151.119 65.988C150.99 66.3968 150.871 66.9112 150.762 67.5315L150.375 66.9596C150.979 65.8548 151.597 64.9604 152.232 64.2764C152.877 63.5945 153.507 63.1113 154.123 62.8266C154.739 62.542 155.302 62.4535 155.814 62.5611C156.471 62.6995 156.916 63.0219 157.147 63.5284C157.389 64.0371 157.433 64.6567 157.279 65.3874C157.119 66.1494 156.998 66.7999 156.918 67.3388C156.837 67.8777 156.808 68.3241 156.832 68.6779C156.866 69.0338 156.963 69.3266 157.121 69.5563C157.22 69.7079 157.287 69.8581 157.321 70.007C157.357 70.1454 157.354 70.3138 157.313 70.5121C157.266 70.7313 157.135 70.9162 156.918 71.0668C156.714 71.2091 156.444 71.2451 156.11 71.1748ZM162.576 76.6229C161.7 76.4384 160.997 76.2034 160.468 75.9177C159.938 75.6426 159.538 75.3405 159.269 75.0114C159.011 74.6846 158.851 74.3566 158.79 74.0276C158.726 73.709 158.722 73.4192 158.776 73.1582C158.851 72.8033 159.014 72.5215 159.265 72.3127C159.516 72.1039 159.803 72.0336 160.127 72.1016C160.367 72.1522 160.524 72.2343 160.598 72.348C160.67 72.4721 160.688 72.6229 160.65 72.8004C160.598 73.0509 160.639 73.294 160.775 73.5296C160.91 73.7653 161.15 73.9738 161.493 74.155C161.835 74.3467 162.287 74.5018 162.851 74.6204C163.393 74.7346 163.794 74.6717 164.051 74.4316C164.319 74.1937 164.509 73.8086 164.621 73.2762C164.718 72.8169 164.773 72.3981 164.788 72.0195C164.804 71.6306 164.806 71.2603 164.792 70.9087C164.779 70.5571 164.768 70.1951 164.759 69.8226C164.761 69.4524 164.78 69.053 164.815 68.6245L165.587 68.9178C165.348 69.4342 165.062 69.8591 164.731 70.1926C164.401 70.5157 164.04 70.7558 163.647 70.913C163.265 71.0723 162.869 71.1636 162.461 71.1867C162.064 71.212 161.677 71.1851 161.301 71.1061C160.654 70.9699 160.12 70.7376 159.698 70.4091C159.279 70.0702 158.985 69.6541 158.816 69.1608C158.66 68.6592 158.649 68.0901 158.783 67.4534C158.904 66.8793 159.126 66.37 159.448 65.9255C159.773 65.4706 160.162 65.0948 160.617 64.7981C161.082 64.5036 161.578 64.2973 162.105 64.1791C162.641 64.0631 163.176 64.0611 163.708 64.1731C164.261 64.2895 164.68 64.4757 164.964 64.7317C165.259 64.9899 165.443 65.2794 165.517 65.6002C165.593 65.9106 165.6 66.2171 165.536 66.5198C165.488 66.7494 165.395 66.9316 165.258 67.0662C165.12 67.2008 164.994 67.256 164.879 67.2318C164.733 67.2011 164.621 67.1393 164.542 67.0465C164.474 66.9558 164.408 66.8548 164.345 66.7433C164.293 66.6235 164.213 66.5139 164.103 66.4145C163.993 66.3151 163.829 66.2423 163.609 66.1962C163.317 66.1347 163.022 66.138 162.724 66.2062C162.429 66.2639 162.145 66.3677 161.874 66.5177C161.613 66.6699 161.388 66.857 161.2 67.079C161.024 67.2927 160.909 67.53 160.854 67.791C160.784 68.125 160.818 68.4046 160.955 68.6299C161.096 68.8446 161.354 68.9916 161.729 69.0706C162.262 69.1826 162.757 69.1614 163.214 69.007C163.684 68.8444 164.093 68.5325 164.441 68.0716C164.789 67.6106 165.046 66.9835 165.213 66.1902C165.275 65.898 165.365 65.6991 165.486 65.5936C165.608 65.4777 165.79 65.4449 166.03 65.4955C166.458 65.5855 166.75 65.7778 166.906 66.0722C167.062 66.3666 167.117 66.6726 167.072 66.9902C166.993 67.6274 166.952 68.2076 166.951 68.7305C166.95 69.2535 166.951 69.7661 166.955 70.2682C166.971 70.7621 166.957 71.2933 166.914 71.8619C166.881 72.4327 166.786 73.0886 166.63 73.8298C166.402 74.9153 165.936 75.7056 165.232 76.2007C164.526 76.7062 163.641 76.8469 162.576 76.6229Z" fill="black"/>
</svg>
