<svg width="64" height="51" viewBox="0 0 64 51" fill="none" xmlns="http://www.w3.org/2000/svg">
<rect width="51" height="51" rx="25.5" fill="#373739"/>
<path d="M41.8111 6.77695C41.7121 6.87598 41.2703 7.7291 40.8361 8.68125L40.0439 10.4104L38.5586 11.0273C37.7436 11.3625 37.0275 11.6367 36.9666 11.6367C36.9057 11.6367 36.0754 11.3473 35.1156 10.9893C34.1559 10.6312 33.2799 10.3418 33.1656 10.3418C32.8686 10.3418 29.3418 13.8609 29.3418 14.158C29.3418 14.2646 29.6312 15.1406 29.9893 16.108C30.3473 17.0754 30.6367 17.9133 30.6367 17.9666C30.6367 18.0275 30.3625 18.7436 30.0273 19.5586L29.4104 21.0439L27.6813 21.8361C26.7291 22.2703 25.876 22.7121 25.777 22.8111C25.6094 22.9939 25.6094 23.0092 25.6094 25.5C25.6094 27.9908 25.6094 28.0061 25.7846 28.1889C25.876 28.2879 26.7291 28.7297 27.6813 29.1639L29.4104 29.9561L30.0273 31.4414C30.3625 32.2564 30.6367 32.9725 30.6367 33.0334C30.6367 33.0867 30.3473 33.9246 29.9893 34.892C29.6312 35.8594 29.3418 36.7354 29.3418 36.842C29.3418 37.1391 32.8686 40.6582 33.1656 40.6582C33.2799 40.6582 34.1559 40.3688 35.1156 40.0107C36.0754 39.6527 36.9057 39.3633 36.9666 39.3633C37.0275 39.3633 37.7436 39.6375 38.5586 39.9727L40.0439 40.5896L40.8361 42.3187C41.2703 43.2709 41.7121 44.124 41.8111 44.2154C41.9939 44.3906 42.0092 44.3906 44.5076 44.3906H47.0213L47.2041 44.2002L47.3945 44.0174V39.5918C47.3945 35.2729 47.3945 35.1738 47.2422 35.0215C47.0594 34.8387 46.8766 34.8387 46.0615 34.9834C45.7264 35.0443 45.0332 35.09 44.5305 35.0977C42.9766 35.0977 41.6359 34.793 40.2725 34.1227C37.477 32.7439 35.5498 30.1541 35.0166 27.0691C34.4072 23.5119 35.9764 19.7643 38.9547 17.6467C40.082 16.8469 41.5141 16.2604 42.9309 16.0166C43.7764 15.8719 45.2617 15.8719 46.0615 16.0166C46.8766 16.1613 47.0594 16.1613 47.2422 15.9785C47.3945 15.8262 47.3945 15.7271 47.3945 11.4158C47.3945 7.07402 47.3945 7.00547 47.2346 6.80742L47.0822 6.60938H44.5381C42.0092 6.60938 41.9939 6.60938 41.8111 6.77695ZM46.3281 11.332V14.9807L46.0844 14.9273C45.9473 14.8969 45.216 14.874 44.4619 14.874C43.426 14.874 42.9309 14.9045 42.4434 15.0111C38.1396 15.9328 34.9633 19.0863 34.0264 23.3672C33.8588 24.1365 33.7902 26.0713 33.9045 26.8787C34.4834 30.9768 37.2713 34.3436 41.1332 35.6309C42.352 36.0346 42.9613 36.126 44.4619 36.126C45.216 36.126 45.9473 36.1031 46.0844 36.0727L46.3281 36.0193V39.668V43.3242H44.401H42.4738L41.6893 41.6104C41.2551 40.6734 40.8438 39.8508 40.7752 39.7975C40.6305 39.6604 37.1723 38.2207 37.0047 38.2207C36.9438 38.2207 36.0982 38.5102 35.1232 38.8682L33.3484 39.5232L31.9164 38.0836L30.4768 36.6516L31.1318 34.8768C31.4898 33.9018 31.7793 33.0562 31.7793 32.9953C31.7793 32.8354 30.332 29.3695 30.2025 29.2248C30.1416 29.1562 29.3266 28.7449 28.382 28.3107L26.6758 27.5262V25.5V23.4738L28.382 22.6893C29.3266 22.2551 30.1416 21.8438 30.2025 21.7752C30.332 21.6305 31.7793 18.1646 31.7793 18.0047C31.7793 17.9437 31.4898 17.0982 31.1318 16.1232L30.4768 14.3484L31.9164 12.9164L33.3484 11.4768L35.1232 12.1318C36.0982 12.4898 36.9438 12.7793 37.0047 12.7793C37.1723 12.7793 40.6305 11.3396 40.7752 11.2025C40.8438 11.1492 41.2551 10.3266 41.6893 9.38965L42.4738 7.67578H44.401H46.3281V11.332Z" fill="white"/>
<path d="M50.9898 11.4313C50.8299 11.6064 50.8223 11.6598 50.8223 13.5717V15.5293L51.0127 15.7197L51.2031 15.9102L53.1836 15.8873C54.9584 15.8645 55.1717 15.8492 55.2936 15.7273C55.4154 15.6055 55.4307 15.3922 55.4535 13.6174L55.4764 11.6369L55.2859 11.4465L55.0955 11.2561H53.1227C51.165 11.2561 51.1498 11.2561 50.9898 11.4313ZM54.4023 13.5793V14.8361H53.1455H51.8887V13.5793V12.3225H53.1455H54.4023V13.5793Z" fill="white"/>
<path d="M57.3734 16.6869C56.665 16.885 56.048 17.4334 55.8043 18.0885L55.6748 18.416H53.4048C51.3253 18.416 51.1121 18.4313 50.9978 18.5531C50.9216 18.6293 50.6017 19.1016 50.2894 19.6195L49.7181 20.5488L43.6472 20.5641C37.0355 20.5869 37.4087 20.5641 37.3021 21.0059C37.2716 21.143 37.3021 21.2648 37.4164 21.4096L37.5763 21.6152H43.8986C49.8476 21.6152 50.2209 21.6076 50.3503 21.4781C50.4189 21.402 50.7388 20.9221 51.0511 20.4117L51.6224 19.4824H53.6562H55.69L55.8728 19.8861C56.6802 21.6609 59.171 21.6686 60.0394 19.9014C60.3136 19.3529 60.306 18.4617 60.0242 17.9209C59.5062 16.9307 58.3712 16.4051 57.3734 16.6869ZM58.6531 17.9057C58.9425 18.1037 59.2015 18.5912 59.2015 18.9416C59.2015 19.2768 58.9502 19.7414 58.6607 19.9471C58.3027 20.1984 57.7238 20.2213 57.3353 20.0004C56.9087 19.7566 56.6498 19.2311 56.7259 18.7512C56.7869 18.3398 57.1677 17.8752 57.541 17.7457C57.8761 17.6314 58.3484 17.7 58.6531 17.9057Z" fill="white"/>
<path d="M37.4164 29.5903C37.3021 29.735 37.2716 29.8569 37.3021 29.994C37.4087 30.4358 37.0355 30.4129 43.6472 30.4358L49.7181 30.451L50.2894 31.3803C50.6017 31.8983 50.9216 32.3705 50.9978 32.4467C51.1121 32.5686 51.3253 32.5838 53.4048 32.5838H55.6748L55.8043 32.919C55.8728 33.1018 56.0709 33.4141 56.2384 33.6045C57.3125 34.8157 59.2625 34.5491 60.0242 33.0866C60.2908 32.561 60.3136 31.6621 60.0623 31.1289C59.8566 30.6719 59.3615 30.1768 58.9045 29.9711C58.3941 29.735 57.4724 29.735 56.9849 29.9787C56.4974 30.2149 56.0937 30.6338 55.8728 31.1137L55.69 31.5174H53.6562H51.6224L51.0511 30.5881C50.7388 30.0778 50.4189 29.5979 50.3504 29.5217C50.2209 29.3922 49.8476 29.3846 43.8986 29.3846H37.5763L37.4164 29.5903ZM58.6607 31.0528C58.9425 31.2584 59.2015 31.7231 59.2015 32.043C59.2015 32.5762 58.7673 33.1399 58.257 33.277C57.5791 33.4598 56.8326 32.9571 56.7259 32.2487C56.6498 31.7688 56.9087 31.2432 57.3353 30.9994C57.7238 30.7786 58.3027 30.8014 58.6607 31.0528Z" fill="white"/>
<path d="M51.0127 35.2805L50.8223 35.4709V37.4438C50.8223 39.4014 50.8223 39.4166 50.9975 39.5766C51.1727 39.7365 51.226 39.7441 53.1379 39.7441H55.0955L55.2859 39.5537L55.4764 39.3633L55.4535 37.3828C55.4307 35.608 55.4154 35.3947 55.2936 35.2729C55.1717 35.151 54.9584 35.1357 53.1836 35.1129L51.2031 35.09L51.0127 35.2805ZM54.4023 37.4209V38.6777H53.1455H51.8887V37.4209V36.1641H53.1455H54.4023V37.4209Z" fill="white"/>
</svg>
