<svg width="57" height="58" viewBox="0 0 57 58" fill="none" xmlns="http://www.w3.org/2000/svg">
<rect x="0.583984" y="0.500244" width="55.7664" height="57.4656" rx="4" fill="#FFD6C6"/>
<path d="M34.214 15.1784C33.8481 15.2985 33.5755 15.5066 33.3525 15.8455C33.2028 16.0819 33.1582 16.2895 33.0604 17.2542L32.946 18.3822L31.2345 18.2086C29.4064 18.0233 29.1535 18.0369 28.7111 18.3693C28.2601 18.7087 28.1687 18.9902 28.0086 20.5694L27.8602 22.0319L26.1254 21.856C24.484 21.6896 24.3743 21.6863 24.031 21.8165C23.8177 21.9049 23.5552 22.0905 23.3955 22.2708L23.1274 22.5894L22.9471 24.1352L22.7667 25.6809L21.0397 25.5057C19.3983 25.3393 19.2886 25.336 18.9453 25.4663C18.732 25.5547 18.4695 25.7403 18.3097 25.9205L18.0417 26.2392L17.2547 33.7672L16.4747 41.3039L16.1704 41.3595C15.2248 41.5386 12.6988 41.8798 11.8514 41.9432C11.0429 42.0105 10.8258 42.0593 10.663 42.1921C10.4215 42.4034 10.4113 42.5045 10.6015 42.7989L10.7505 43.034L12.9724 43.2122C15.3343 43.4046 16.6375 43.4188 18.631 43.2909C23.1316 43.0085 27.2779 41.8807 30.9491 39.9344C34.653 37.9758 38.0812 35.0932 41.0366 31.4475L41.6024 30.7504L42.4893 31.3826C43.3832 32.0234 43.5939 32.1155 43.861 31.9619C44.0533 31.8478 44.022 32.0018 44.9321 26.5139C45.6375 22.2707 45.7145 21.744 45.6214 21.5774C45.4251 21.1881 45.2133 21.2609 42.5722 22.6593C41.2019 23.3849 40.0651 23.9769 40.0418 23.9746C40.0184 23.9722 40.1646 22.3758 40.3618 20.431C40.6994 17.1014 40.7153 16.8673 40.6029 16.5808C40.4533 16.1962 40.228 15.9376 39.8782 15.7449C39.4754 15.5312 34.6367 15.0405 34.214 15.1784ZM39.5997 16.7856C39.724 16.9554 39.712 17.1506 39.3701 20.7548L39.0093 24.5458L37.547 25.3249C36.7419 25.7462 36.0567 26.1483 36.027 26.2082C35.8788 26.5075 36.059 26.7459 36.886 27.3484C37.3399 27.6774 37.727 27.9682 37.7549 28.0024C37.7829 28.0367 37.6144 28.3026 37.3728 28.5924C37.0042 29.0502 35.2977 30.9206 34.7717 31.4567L34.5886 31.6346L35.1622 25.979C35.5306 22.3461 35.718 20.188 35.6965 19.9343C35.6466 19.497 35.3508 19.0033 35.0049 18.7718C34.872 18.6875 34.5765 18.579 34.3455 18.532L33.9223 18.4419L34.0273 17.4073C34.1748 15.9525 33.9062 16.0432 37.0024 16.3571C39.4062 16.6009 39.4685 16.6072 39.5997 16.7856ZM34.6044 19.7764C34.7465 20.003 34.7425 20.0419 34.1035 26.3432L33.4606 32.6834L32.7088 33.3538C32.0093 33.9745 29.6921 35.7437 29.5232 35.7816C29.4828 35.7932 29.6883 33.4562 30.0567 29.8232C30.7281 23.203 30.7272 23.2894 30.2844 22.7729C29.9535 22.3935 29.6339 22.2118 29.2216 22.17L28.8716 22.1345L29.0136 20.7342C29.1453 19.435 29.1641 19.3269 29.3269 19.1941C29.4897 19.0613 29.5994 19.0645 31.9799 19.3059L34.4693 19.5584L34.6044 19.7764ZM43.8807 26.7295C43.5299 28.871 43.2256 30.6321 43.2162 30.6468C43.2077 30.6538 42.847 30.4129 42.4148 30.1019C41.8288 29.6809 41.5823 29.5537 41.4391 29.5707C41.3037 29.5884 40.9866 29.9256 40.2961 30.7673C36.8395 35.0145 33.1 37.9441 28.583 39.9381C25.4323 41.3241 21.4203 42.2141 17.7057 42.3404C17.2093 42.3529 16.7043 42.3724 16.5852 42.3839C16.158 42.4114 16.3861 42.3323 17.3987 42.1128C22.27 41.0427 26.8399 38.9912 30.9693 36.0147C32.062 35.2374 33.7375 33.8275 34.8423 32.7764C36.5578 31.127 39.0094 28.3419 39.0457 27.984C39.071 27.7351 38.9148 27.5699 38.1305 27.011C37.7575 26.7373 37.4831 26.4973 37.5252 26.4701C37.6958 26.3381 44.4775 22.7818 44.5063 22.8083C44.5202 22.8254 44.2392 24.5888 43.8807 26.7295ZM29.5187 23.4262C29.6607 23.6528 29.6568 23.6917 29.0044 30.1252L28.348 36.5977L27.5382 37.0657C26.5781 37.6207 25.3821 38.2539 24.8387 38.4974L24.451 38.6782L25.0146 32.8879C25.6405 26.4832 25.6274 26.922 25.1288 26.337C24.8406 26.0012 24.5793 25.8647 24.1281 25.8189L23.7858 25.7842L23.9278 24.3839C24.0596 23.0848 24.0784 22.9767 24.2412 22.8438C24.404 22.711 24.5137 22.7143 26.8942 22.9557L29.3836 23.2081L29.5187 23.4262ZM24.4329 27.0759C24.5758 27.2947 24.5703 27.3492 23.9731 33.2382L23.3704 39.1816L22.2346 39.6087C20.7135 40.1933 17.867 41.0599 17.5947 41.0323C17.5558 41.0284 17.8497 37.8201 18.2544 33.8293C18.9738 26.7345 18.9841 26.6334 19.1555 26.4936C19.3183 26.3608 19.428 26.364 21.8085 26.6054L24.2978 26.8579L24.4329 27.0759Z" fill="#EB6935"/>
</svg>
