<svg width="107" height="79" viewBox="0 0 107 79" fill="none" xmlns="http://www.w3.org/2000/svg">
<circle cx="39.5" cy="39.5" r="39.5" fill="#373739"/>
<path d="M76.4997 66.9168C90.5369 66.9168 101.916 55.5374 101.916 41.5002C101.916 27.4629 90.5369 16.0835 76.4997 16.0835C62.4624 16.0835 51.083 27.4629 51.083 41.5002C51.083 55.5374 62.4624 66.9168 76.4997 66.9168Z" stroke="white" stroke-width="2" stroke-linecap="round" stroke-linejoin="round"/>
<path d="M51.083 41.5H101.916" stroke="white" stroke-width="2" stroke-linecap="round" stroke-linejoin="round"/>
<path d="M76.4997 16.0835C82.8571 23.0435 86.47 32.0757 86.6663 41.5002C86.47 50.9246 82.8571 59.9568 76.4997 66.9168C70.1423 59.9568 66.5293 50.9246 66.333 41.5002C66.5293 32.0757 70.1423 23.0435 76.4997 16.0835V16.0835Z" stroke="white" stroke-width="2" stroke-linecap="round" stroke-linejoin="round"/>
</svg>
