<svg width="11" height="11" viewBox="0 0 11 11" fill="none" xmlns="http://www.w3.org/2000/svg">
<path d="M10.5925 0.0740423C10.8031 0.165452 10.8941 0.274001 10.9624 0.513951C11.0819 0.925295 11.0535 0.965287 8.71454 3.30766L6.52356 5.50721L8.71454 7.70675C11.0535 10.0548 11.0763 10.0834 10.9624 10.5062C10.8657 10.8661 10.5413 11.0546 10.1373 10.9861C9.9267 10.9518 9.72183 10.7633 7.70157 8.74654L5.4992 6.54128L3.29114 8.74654C1.27657 10.7633 1.0717 10.9518 0.861135 10.9861C0.457082 11.0546 0.132702 10.8661 0.0359573 10.5062C-0.0778599 10.0834 -0.0550966 10.0548 2.28385 7.70675L4.47484 5.50721L2.28385 3.30766C-0.0607882 0.959574 -0.0778599 0.931008 0.0359573 0.502525C0.132702 0.148313 0.457082 -0.0402203 0.861135 0.0283375C1.0717 0.0626163 1.27657 0.251148 3.29114 2.26788L5.4992 4.47314L7.70157 2.27359C9.51127 0.462534 9.94377 0.0626163 10.1031 0.0283375C10.3535 -0.0173674 10.3934 -0.0116549 10.5925 0.0740423Z" fill="#B1B1B1"/>
</svg>
