<svg width="177" height="126" viewBox="0 0 177 126" fill="none" xmlns="http://www.w3.org/2000/svg">
<path d="M13.5844 19.4741C13.1884 19.4182 12.8656 19.2434 12.6162 18.9497C12.3826 18.6583 12.2324 18.1766 12.1655 17.5047C12.1145 16.835 12.1706 15.9219 12.3337 14.7653C12.4498 13.9415 12.5707 13.1991 12.6962 12.5381C12.8375 11.8794 12.9643 11.2671 13.0764 10.7012C13.2066 10.1217 13.3096 9.56262 13.3856 9.02395C13.466 8.45359 13.5036 7.95798 13.4983 7.53712C13.5111 7.10265 13.4991 6.72932 13.4623 6.41712C13.4436 6.09132 13.4273 5.80625 13.4133 5.5619C13.4015 5.3017 13.4112 5.0607 13.4425 4.8389C13.4961 4.45866 13.6257 4.16992 13.8313 3.97269C14.0549 3.76185 14.3806 3.68659 14.8084 3.74691C15.2361 3.80723 15.5883 4.00232 15.865 4.33217C16.1416 4.66203 16.3325 5.08482 16.4375 5.60054C16.5584 6.11849 16.6012 6.67391 16.5661 7.26682L15.9418 7.39693C16.4197 6.41403 16.9081 5.58611 17.407 4.91317C17.9081 4.22439 18.4162 3.71435 18.9316 3.38305C19.4491 3.03591 19.9534 2.89697 20.4446 2.96623C20.8407 3.02208 21.1702 3.20589 21.4333 3.51768C21.7121 3.83169 21.9313 4.28271 22.0908 4.87074C22.2502 5.45876 22.3669 6.1781 22.4409 7.02876C22.5171 7.86358 22.572 8.8489 22.6058 9.98474C22.6618 10.9621 22.6996 11.84 22.7192 12.6184C22.7545 13.399 22.8067 14.1173 22.8758 14.7734C22.9449 15.4294 23.0784 16.0865 23.2765 16.7446L22.1419 16.1968C22.5095 15.5377 22.877 14.822 23.2444 14.0497C23.6141 13.2616 23.9849 12.4656 24.3568 11.6617C24.7309 10.8419 25.1006 10.0538 25.4658 9.29734C25.8468 8.54315 26.2235 7.87722 26.5958 7.29955C27.0087 6.66297 27.4173 6.11464 27.8215 5.65457C28.2279 5.17866 28.6493 4.82604 29.0856 4.59671C29.5399 4.35377 30.0285 4.26917 30.5514 4.34289C30.9633 4.40097 31.3222 4.54853 31.6281 4.78557C31.9498 5.02483 32.2141 5.38526 32.4209 5.86685C32.6277 6.34844 32.7657 6.97384 32.835 7.74305C32.9201 8.51449 32.9388 9.47047 32.8911 10.611C32.8411 11.7673 32.8104 12.9022 32.7988 14.0154C32.8031 15.131 32.8469 16.1955 32.9302 17.2091C33.0157 18.2068 33.1679 19.1331 33.3867 19.988C33.5006 20.4404 33.5104 20.8295 33.4159 21.1556C33.3396 21.4679 33.1691 21.7025 32.9047 21.8591C32.6583 22.0021 32.3371 22.0456 31.941 21.9898C31.4499 21.9205 31.0501 21.7187 30.7418 21.3844C30.4334 21.0501 30.1644 20.5516 29.9347 19.8891C29.7663 19.3644 29.6418 18.7571 29.5614 18.0671C29.499 17.3635 29.4581 16.6225 29.4386 15.8442C29.4371 15.0522 29.4414 14.2772 29.4513 13.5192C29.4793 12.7475 29.5086 12.0245 29.539 11.3502C29.59 10.7595 29.6083 10.2289 29.5939 9.75824C29.5953 9.28985 29.5684 8.8498 29.5134 8.43808C29.4583 8.02636 29.3648 7.60113 29.2328 7.1624L30.1197 7.74797C29.5753 8.28523 29.0754 8.96609 28.6198 9.79056C28.1665 10.5992 27.7054 11.5198 27.2366 12.5525C26.7678 13.5851 26.2562 14.6926 25.7017 15.8747C25.1631 17.0591 24.5283 18.2946 23.7975 19.5811C23.5426 20.0138 23.2909 20.3095 23.0423 20.4684C22.7936 20.6272 22.4713 20.6787 22.0752 20.6229C21.695 20.5693 21.3893 20.4454 21.1581 20.2512C20.945 20.0434 20.7533 19.7417 20.5829 19.346C20.2193 18.4868 19.9628 17.4408 19.8135 16.2078C19.6642 14.9749 19.5915 13.5427 19.5953 11.9113C19.6046 10.8138 19.5859 9.85784 19.5392 9.04334C19.4947 8.21299 19.3631 7.42693 19.1446 6.68514L19.5452 6.76587C18.371 8.10302 17.4553 9.72707 16.798 11.638C16.1408 13.549 15.5983 15.7346 15.1706 18.195C15.0788 18.7314 14.8905 19.0927 14.6057 19.2788C14.3368 19.4671 13.9964 19.5322 13.5844 19.4741ZM41.7464 23.4451C40.4156 23.2575 39.2732 22.8217 38.3194 22.1378C37.3814 21.4562 36.6863 20.5987 36.2341 19.5655C35.8 18.5186 35.669 17.3852 35.841 16.1653C35.9594 15.3256 36.2364 14.5648 36.6718 13.8829C37.1254 13.1874 37.6606 12.6004 38.2775 12.1219C38.8965 11.6275 39.5374 11.2654 40.1999 11.0356C40.8625 10.8059 41.4711 10.7301 42.0256 10.8083C42.2632 10.8418 42.4715 10.9116 42.6505 11.0176C42.8475 11.11 42.9982 11.2444 43.1026 11.4207C43.207 11.597 43.2402 11.8198 43.2023 12.0892C43.1352 12.5645 42.9719 12.9777 42.7124 13.3289C42.4709 13.6665 42.0244 13.9106 41.373 14.0611C40.9479 14.2112 40.5647 14.4076 40.2235 14.6503C39.8822 14.8931 39.5988 15.1844 39.3731 15.5242C39.1475 15.864 39.0067 16.2319 38.9509 16.628C38.8057 17.6578 39.0132 18.5354 39.5734 19.2607C40.1358 19.9702 40.9557 20.4009 42.0331 20.5528C42.952 20.6824 43.7413 20.4705 44.401 19.9172C45.0607 19.3639 45.4654 18.5565 45.6151 17.495C45.7469 16.5603 45.6052 15.7889 45.19 15.181C44.7929 14.5595 44.1824 14.1906 43.3586 14.0744C42.9467 14.0164 42.5926 14.0634 42.2965 14.2155C42.0162 14.3699 41.6953 14.5832 41.3337 14.8554C41.0626 15.0595 40.8366 15.2296 40.6558 15.3657C40.4909 15.504 40.3236 15.6016 40.154 15.6585C39.9844 15.7154 39.7808 15.7271 39.5431 15.6936C39.2897 15.6578 39.0812 15.5315 38.9179 15.3146C38.7546 15.0976 38.7098 14.7278 38.7836 14.2049C38.8439 13.7772 39.023 13.3661 39.321 12.9719C39.6212 12.5618 39.9939 12.2104 40.4391 11.9177C40.9024 11.6114 41.3953 11.3819 41.9177 11.2294C42.4401 11.0768 42.9628 11.0374 43.4856 11.1112C44.7531 11.2899 45.8037 11.6885 46.6375 12.307C47.4894 12.9118 48.0904 13.6914 48.4406 14.6456C48.8089 15.5863 48.907 16.6665 48.735 17.8865C48.563 19.1064 48.1395 20.1616 47.4645 21.0521C46.7896 21.9426 45.9525 22.6082 44.9531 23.049C43.9719 23.4762 42.903 23.6082 41.7464 23.4451ZM53.5592 25.0624C52.672 24.9373 51.9589 24.7236 51.4198 24.4214C50.8829 24.1033 50.5067 23.7351 50.2909 23.3169C50.0752 22.8987 49.9964 22.4836 50.0545 22.0717C50.0992 21.7548 50.23 21.5148 50.4469 21.3514C50.6661 21.1723 50.9658 21.1095 51.346 21.1631C51.5361 21.19 51.7059 21.2462 51.8554 21.3319C52.0208 21.4199 52.1918 21.5248 52.3685 21.6466C52.5475 21.7527 52.7592 21.8552 53.0038 21.9544C53.2642 22.0557 53.5845 22.1332 53.9647 22.1868C54.8836 22.3164 55.6575 22.3286 56.2864 22.2233C56.9333 22.1045 57.4205 21.8581 57.7479 21.4842C57.641 21.2106 57.3996 20.9745 57.0237 20.7761C56.6477 20.5777 56.2061 20.3861 55.6989 20.2015C55.1917 20.0169 54.663 19.8131 54.1128 19.59C53.5783 19.3693 53.0891 19.1145 52.6451 18.8256C52.2011 18.5368 51.8554 18.1811 51.608 17.7584C51.3628 17.3198 51.2838 16.7916 51.3709 16.1737C51.467 15.4925 51.7409 14.9252 52.1926 14.4718C52.6443 14.0184 53.2026 13.669 53.8674 13.4234C54.5503 13.1642 55.2752 13.0079 56.0422 12.9544C56.825 12.9032 57.5887 12.9301 58.3333 13.0351C59.2025 13.1739 59.8151 13.4703 60.1712 13.9245C60.5431 14.3809 60.6933 14.8626 60.6218 15.3695C60.5727 15.7181 60.4385 15.9819 60.2193 16.1611C60.016 16.3425 59.7559 16.4108 59.4391 16.3662C59.2648 16.3416 59.1075 16.3113 58.9671 16.2754C58.8268 16.2394 58.6706 16.2012 58.4985 16.1608C58.3446 16.1068 58.1329 16.0608 57.8636 16.0228C57.0556 15.9089 56.336 15.9124 55.7049 16.0335C55.0897 16.1568 54.5968 16.3863 54.2263 16.7218C54.3015 16.9909 54.5191 17.2236 54.8793 17.4198C55.2553 17.6183 55.7048 17.8109 56.2278 17.9978C56.7667 18.1869 57.3112 18.3929 57.8615 18.6159C58.4298 18.8253 58.9439 19.0756 59.4038 19.3666C59.8795 19.6599 60.249 20.019 60.5122 20.4439C60.7777 20.853 60.868 21.3586 60.7831 21.9606C60.6491 22.9112 60.2386 23.6451 59.5516 24.1622C58.8828 24.6658 58.0212 24.9887 56.9671 25.1309C55.931 25.2595 54.795 25.2366 53.5592 25.0624ZM67.8755 27.1538C66.5289 26.9639 65.4928 26.5189 64.7675 25.8187C64.0444 25.1028 63.5766 24.1804 63.3641 23.0517C63.1675 21.9252 63.1697 20.649 63.3707 19.2231C63.4847 18.4151 63.627 17.6919 63.7979 17.0535C63.9687 16.4151 64.135 15.8084 64.2969 15.2333C64.4746 14.6605 64.6251 14.0516 64.7484 13.4065C64.892 12.7319 64.9781 12.1785 65.0067 11.7463C65.0376 11.2982 65.0878 10.8852 65.1572 10.5072C65.22 10.1767 65.3722 9.89924 65.6139 9.67478C65.8737 9.43673 66.2333 9.35009 66.6928 9.41488C67.3582 9.50871 67.8012 9.86202 68.0218 10.4748C68.2424 11.0876 68.2294 12.0391 67.9828 13.3294C67.8774 13.8477 67.7595 14.3401 67.6291 14.8064C67.501 15.257 67.3627 15.7222 67.2142 16.2022C67.0838 16.6685 66.9478 17.1745 66.8063 17.7201C66.6828 18.252 66.573 18.8587 66.4769 19.5399C66.3295 20.5856 66.3152 21.4319 66.434 22.0788C66.5528 22.7257 66.7992 23.2129 67.1732 23.5403C67.5494 23.8519 68.0385 24.0501 68.6405 24.135C69.0208 24.1886 69.3263 24.1994 69.557 24.1673C69.79 24.1194 69.9901 24.0749 70.1575 24.0339C70.343 23.9792 70.5466 23.9675 70.7684 23.9988C71.0853 24.0435 71.3174 24.1732 71.4649 24.3879C71.6124 24.6026 71.6582 24.9079 71.6023 25.304C71.513 25.9378 71.1586 26.4453 70.5393 26.8265C69.9359 27.21 69.0479 27.3191 67.8755 27.1538ZM66.4099 18.1247C65.806 18.2819 65.3624 18.2194 65.079 17.937C64.7979 17.6389 64.6909 17.2521 64.7579 16.7768C64.816 16.3649 64.9556 16.0049 65.1768 15.6967C65.398 15.3886 65.8671 15.1558 66.5841 14.9984C67.2333 14.8637 67.9481 14.7787 68.7287 14.7433C69.5251 14.7102 70.264 14.7417 70.9452 14.8378C71.7057 14.945 72.2232 15.1715 72.4976 15.5172C72.7879 15.8651 72.9006 16.2688 72.8358 16.7282C72.7844 17.0926 72.6344 17.3543 72.3858 17.5131C72.1372 17.6719 71.8205 17.7404 71.4358 17.7185C70.732 17.6677 70.1041 17.6519 69.552 17.671C69.018 17.6765 68.5033 17.717 68.0079 17.7926C67.5125 17.8681 66.9798 17.9788 66.4099 18.1247ZM84.4854 29.4232C83.9942 29.3539 83.5944 29.0956 83.2858 28.6481C82.9954 28.187 82.916 27.4891 83.0478 26.5544C83.1931 25.5246 83.2581 24.6046 83.2431 23.7946C83.2281 22.9846 83.1871 22.2436 83.1203 21.5717C83.0693 20.902 83.0229 20.2572 82.981 19.6373C82.955 19.0196 82.99 18.3701 83.0861 17.6889C83.2492 16.5323 83.6049 15.5564 84.1533 14.7612C84.704 13.9501 85.4802 13.3729 86.4819 13.0294C87.4837 12.6859 88.7451 12.6214 90.266 12.8358C91.3751 12.9922 92.3509 13.348 93.1937 13.9031C94.0523 14.4604 94.6939 15.1811 95.1187 16.065C95.5615 16.9354 95.7014 17.9488 95.5383 19.1054C95.4154 19.9768 95.117 20.7749 94.6432 21.4999C94.1693 22.2248 93.5651 22.8425 92.8307 23.353C92.0962 23.8634 91.2766 24.2326 90.372 24.4605C89.4831 24.6907 88.5475 24.7365 87.5653 24.598C86.884 24.5019 86.2965 24.314 85.8027 24.0343C85.3111 23.7388 84.9394 23.3955 84.6876 23.0046C84.4357 22.6136 84.3377 22.22 84.3935 21.8239C84.4449 21.4595 84.587 21.1968 84.8198 21.0357C85.0684 20.8769 85.3432 20.8187 85.6442 20.8611C85.8502 20.8902 86.0268 20.9555 86.174 21.057C86.3394 21.145 86.5432 21.2464 86.7855 21.3614C87.0459 21.4627 87.3979 21.5447 87.8416 21.6072C88.6179 21.7167 89.3384 21.6487 90.0032 21.4031C90.6703 21.1416 91.216 20.7662 91.6406 20.2767C92.0809 19.7894 92.3424 19.2526 92.4251 18.6664C92.4988 18.1436 92.4165 17.6957 92.1783 17.3228C91.9581 16.9363 91.6373 16.6325 91.2161 16.4115C90.797 16.1747 90.334 16.0205 89.827 15.949C88.7497 15.7971 87.9014 15.9118 87.2821 16.2931C86.6809 16.6607 86.3199 17.2723 86.1993 18.1279C86.1055 18.7933 86.075 19.4676 86.1079 20.1509C86.1431 20.8184 86.1885 21.5277 86.2441 22.2788C86.2998 23.0299 86.3285 23.858 86.3301 24.7631C86.334 25.6524 86.2577 26.6515 86.1013 27.7605C86.0254 28.2992 85.8757 28.7305 85.6523 29.0545C85.4288 29.3785 85.0399 29.5014 84.4854 29.4232ZM102.017 31.9438C100.687 31.7562 99.5442 31.3204 98.5903 30.6365C97.6523 29.9549 96.9572 29.0974 96.5051 28.0642C96.071 27.0173 95.9399 25.8839 96.112 24.664C96.2304 23.8243 96.5073 23.0635 96.9428 22.3816C97.3963 21.6861 97.9315 21.0991 98.5484 20.6205C99.1675 20.1261 99.8083 19.7641 100.471 19.5343C101.133 19.3046 101.742 19.2288 102.297 19.307C102.534 19.3405 102.742 19.4103 102.921 19.5163C103.118 19.6087 103.269 19.7431 103.374 19.9194C103.478 20.0957 103.511 20.3185 103.473 20.5879C103.406 21.0632 103.243 21.4764 102.983 21.8276C102.742 22.1652 102.295 22.4092 101.644 22.5598C101.219 22.7099 100.836 22.9063 100.494 23.149C100.153 23.3918 99.8697 23.683 99.6441 24.0229C99.4184 24.3627 99.2777 24.7306 99.2218 25.1267C99.0766 26.1565 99.2841 27.0341 99.8443 27.7594C100.407 28.4689 101.227 28.8996 102.304 29.0515C103.223 29.1811 104.012 28.9692 104.672 28.4159C105.332 27.8626 105.736 27.0552 105.886 25.9937C106.018 25.059 105.876 24.2876 105.461 23.6797C105.064 23.0582 104.453 22.6893 103.63 22.5731C103.218 22.515 102.864 22.5621 102.567 22.7142C102.287 22.8686 101.966 23.0819 101.605 23.3541C101.334 23.5582 101.108 23.7283 100.927 23.8644C100.762 24.0027 100.595 24.1003 100.425 24.1572C100.255 24.2141 100.052 24.2258 99.8141 24.1923C99.5606 24.1565 99.3522 24.0302 99.1889 23.8132C99.0256 23.5963 98.9808 23.2264 99.0545 22.7036C99.1148 22.2758 99.294 21.8648 99.5919 21.4706C99.8921 21.0605 100.265 20.7091 100.71 20.4164C101.173 20.1101 101.666 19.8806 102.189 19.7281C102.711 19.5755 103.234 19.5361 103.757 19.6098C105.024 19.7886 106.075 20.1872 106.908 20.8056C107.76 21.4105 108.361 22.1901 108.712 23.1443C109.08 24.0849 109.178 25.1652 109.006 26.3852C108.834 27.6051 108.41 28.6603 107.735 29.5508C107.061 30.4413 106.223 31.1069 105.224 31.5477C104.243 31.9749 103.174 32.1069 102.017 31.9438ZM117.104 34.0226C116.232 33.8998 115.468 33.6466 114.811 33.2631C114.172 32.866 113.681 32.4008 113.336 31.8674C113.009 31.3204 112.884 30.7697 112.963 30.2151C112.998 29.9617 113.109 29.751 113.294 29.5832C113.497 29.4019 113.726 29.329 113.979 29.3648C114.201 29.396 114.399 29.4805 114.574 29.6183C114.748 29.756 114.936 29.9118 115.138 30.0856C115.34 30.2595 115.591 30.4242 115.892 30.5798C116.194 30.7354 116.582 30.8467 117.057 30.9137C117.818 31.0209 118.46 30.9338 118.985 30.6523C119.509 30.3707 119.831 29.8101 119.949 28.9704C120.036 28.3525 119.98 27.779 119.779 27.2499C119.582 26.7049 119.278 26.2258 118.867 25.8125C118.473 25.4013 118.011 25.0696 117.481 24.8171C116.951 24.5646 116.401 24.3982 115.83 24.3178C115.577 24.282 115.319 24.278 115.056 24.3056C114.796 24.3174 114.523 24.3032 114.238 24.2629C113.985 24.2272 113.741 24.1202 113.508 23.9418C113.275 23.7635 113.095 23.5443 112.97 23.2843C112.861 23.0266 112.826 22.763 112.864 22.4937C112.953 21.86 113.277 21.4532 113.836 21.2735C114.397 21.0778 115.216 21.056 116.293 21.2079C117.386 21.3621 118.385 21.6725 119.288 22.1393C120.192 22.606 120.953 23.2224 121.572 23.9883C122.21 24.7406 122.668 25.6132 122.948 26.6061C123.229 27.5989 123.285 28.6894 123.117 29.8777C123.028 30.5114 122.814 31.1114 122.476 31.6777C122.14 32.2282 121.709 32.7008 121.185 33.0954C120.661 33.4901 120.047 33.7752 119.344 33.9507C118.658 34.1126 117.912 34.1366 117.104 34.0226ZM111.89 39.371C111.636 39.3353 111.392 39.2362 111.156 39.0737C110.92 38.9112 110.744 38.6762 110.625 38.3687C110.505 38.077 110.474 37.7252 110.532 37.3133C110.574 37.0122 110.637 36.7383 110.72 36.4915C110.817 36.2628 110.917 36.0103 111.021 35.7341C111.122 35.4737 111.223 35.1647 111.321 34.807C111.436 34.4515 111.532 34.0044 111.608 33.4658C111.775 32.2775 111.841 31.1234 111.805 30.0034C111.769 28.8834 111.725 27.7623 111.673 26.6401C111.624 25.502 111.649 24.3502 111.748 23.1847C111.802 22.8045 111.938 22.5248 112.158 22.3456C112.393 22.1687 112.684 22.1048 113.033 22.154C113.413 22.2076 113.756 22.3529 114.062 22.59C114.384 22.8292 114.625 23.1218 114.787 23.4677C114.95 23.7978 115.004 24.1609 114.948 24.5569C114.819 25.4759 114.75 26.363 114.743 27.2183C114.753 28.06 114.783 28.8802 114.832 29.6789C114.881 30.4775 114.905 31.2808 114.904 32.0886C114.919 32.8986 114.867 33.7235 114.749 34.5632C114.653 35.2444 114.531 35.8816 114.383 36.4747C114.232 37.0837 114.044 37.6146 113.819 38.0676C113.609 38.5228 113.343 38.8649 113.02 39.0941C112.71 39.3413 112.333 39.4336 111.89 39.371ZM130.864 35.9629C129.786 35.811 128.882 35.4653 128.15 34.9258C127.434 34.3886 126.865 33.7266 126.442 32.94C126.038 32.1397 125.771 31.286 125.64 30.3789C125.525 29.474 125.531 28.5779 125.656 27.6907C125.767 26.8985 125.923 26.1934 126.124 25.5753C126.34 24.9595 126.599 24.382 126.901 23.8429C127.054 23.5575 127.244 23.3581 127.47 23.2445C127.699 23.1151 127.987 23.075 128.336 23.1241C128.811 23.1912 129.177 23.4043 129.433 23.7636C129.707 24.1093 129.81 24.5278 129.741 25.0189C129.707 25.2566 129.643 25.4818 129.549 25.6947C129.47 25.9098 129.374 26.1306 129.261 26.3571C129.164 26.5858 129.062 26.8541 128.954 27.162C128.864 27.4563 128.79 27.8095 128.732 28.2214C128.609 29.0928 128.628 29.8711 128.79 30.5564C128.952 31.2418 129.237 31.799 129.645 32.2282C130.071 32.6438 130.601 32.8962 131.235 32.9856C131.821 33.0683 132.345 32.9078 132.806 32.5042C133.269 32.0847 133.66 31.4855 133.98 30.7066C134.3 29.9276 134.535 29.0074 134.685 27.9459C134.738 27.5656 134.776 27.2397 134.798 26.9681C134.823 26.6807 134.834 26.4239 134.834 26.1976C134.852 25.9577 134.878 25.711 134.914 25.4576C134.977 25.0139 135.112 24.6856 135.32 24.4725C135.53 24.2436 135.864 24.1615 136.324 24.2263C136.736 24.2844 137.069 24.4445 137.323 24.7065C137.577 24.9685 137.746 25.3721 137.831 25.9173C137.918 26.4466 137.901 27.139 137.78 27.9946C137.505 29.9433 137.031 31.5326 136.356 32.7625C135.698 33.9946 134.895 34.8751 133.948 35.4041C133.017 35.9352 131.989 36.1215 130.864 35.9629ZM143.291 37.7395C142.958 37.6926 142.616 37.5959 142.265 37.4495C141.93 37.3053 141.618 37.0592 141.327 36.7112C141.037 36.3633 140.798 35.8852 140.609 35.2768C140.436 34.6707 140.336 33.8891 140.309 32.932C140.298 31.9772 140.391 30.8027 140.588 29.4084C140.764 28.1568 140.948 27.0274 141.138 26.0201C141.347 24.9992 141.562 24.044 141.785 23.1543C142.023 22.2669 142.275 21.3975 142.54 20.5463C142.732 19.9915 142.955 19.611 143.21 19.4046C143.466 19.1982 143.791 19.123 144.187 19.1788C144.694 19.2503 145.063 19.5042 145.292 19.9405C145.523 20.361 145.577 21.0148 145.452 21.902C145.387 22.3615 145.285 22.8561 145.145 23.3858C145.024 23.9019 144.877 24.4871 144.704 25.1414C144.531 25.7956 144.352 26.546 144.168 27.3926C144.002 28.2256 143.84 29.2046 143.682 30.3294C143.552 31.2483 143.471 31.9963 143.438 32.5734C143.423 33.1368 143.442 33.5758 143.495 33.8902C143.547 34.2046 143.629 34.4262 143.74 34.555C143.853 34.6679 143.981 34.7345 144.124 34.7546C144.282 34.7769 144.41 34.7869 144.508 34.7844C144.607 34.7661 144.698 34.7547 144.779 34.75C144.863 34.7295 144.952 34.7259 145.047 34.7393C145.427 34.7929 145.672 34.9486 145.781 35.2064C145.892 35.4483 145.924 35.7435 145.874 36.0921C145.819 36.4881 145.666 36.8222 145.418 37.0942C145.17 37.3661 144.86 37.5568 144.489 37.6661C144.118 37.7753 143.719 37.7998 143.291 37.7395ZM150.759 38.7683C149.967 38.6566 149.3 38.401 148.758 38.0015C148.217 37.6019 147.82 37.0935 147.568 36.4763C147.318 35.8432 147.246 35.1464 147.354 34.3859C147.465 33.5937 147.705 32.8115 148.072 32.0392C148.458 31.2534 148.933 30.5205 149.497 29.8407C150.062 29.1608 150.693 28.5793 151.391 28.096C152.092 27.597 152.822 27.2313 153.582 26.9992C154.342 26.767 155.094 26.7034 155.839 26.8084C156.361 26.8821 156.775 27.102 157.079 27.468C157.383 27.834 157.493 28.3101 157.411 28.8963C157.377 29.134 157.279 29.314 157.116 29.4365C156.972 29.5454 156.785 29.608 156.557 29.6242C155.489 29.6352 154.514 29.9017 153.632 30.4237C152.753 30.9299 152.021 31.5942 151.436 32.4167C150.87 33.2255 150.52 34.1052 150.386 35.0558C150.339 35.3885 150.319 35.7008 150.326 35.9927C150.352 36.271 150.421 36.6363 150.535 37.0886L149.343 34.7149C149.681 35.0695 149.977 35.3213 150.23 35.4702C150.5 35.6213 150.833 35.7248 151.229 35.7806C152.116 35.9057 153 35.481 153.881 34.5064C154.761 33.5318 155.505 32.0371 156.113 30.0221C156.225 29.6825 156.414 29.4344 156.678 29.2778C156.945 29.1053 157.244 29.0426 157.577 29.0895C158.116 29.1655 158.553 29.3887 158.889 29.7592C159.224 30.1296 159.421 30.5694 159.478 31.0784C159.604 31.9041 159.723 32.6641 159.835 33.3586C159.95 34.0372 160.123 34.6999 160.355 35.3466C160.605 35.9797 160.953 36.659 161.4 37.3846C161.559 37.6332 161.617 37.908 161.575 38.209C161.548 38.5123 161.449 38.8134 161.278 39.1124C161.125 39.3978 160.915 39.6267 160.648 39.7992C160.399 39.958 160.109 40.014 159.776 39.9671C159.507 39.9291 159.293 39.8423 159.134 39.7069C158.989 39.5895 158.863 39.4505 158.756 39.2901C158.484 38.8154 158.241 38.361 158.028 37.927C157.816 37.4771 157.633 36.9988 157.479 36.4922C157.326 35.9698 157.198 35.3863 157.095 34.7416C156.995 34.081 156.924 33.3197 156.884 32.4577L158.011 32.5439C157.383 34.2489 156.662 35.5773 155.85 36.5291C155.037 37.481 154.187 38.1206 153.301 38.448C152.43 38.7777 151.583 38.8845 150.759 38.7683ZM165.235 40.858C164.902 40.8111 164.623 40.6747 164.396 40.4488C164.187 40.2094 164.037 39.8974 163.946 39.5129C163.855 39.1284 163.842 38.7064 163.907 38.2469C164.056 37.1854 164.172 36.1919 164.254 35.2663C164.336 34.3407 164.373 33.5056 164.365 32.7612C164.375 32.0032 164.322 31.3493 164.205 30.7997C164.134 30.3857 164.09 30.0724 164.071 29.8598C164.069 29.6493 164.082 29.4411 164.111 29.2352C164.155 28.9183 164.286 28.6782 164.503 28.5149C164.736 28.3538 165.066 28.3035 165.494 28.3638C165.89 28.4196 166.223 28.5797 166.493 28.8439C166.781 29.0946 167 29.489 167.15 30.0273C167.3 30.5656 167.375 31.2952 167.375 32.2161C167.374 33.137 167.293 34.281 167.133 35.648L165.955 35.4091C166.362 34.2386 166.841 33.2477 167.392 32.4367C167.961 31.612 168.57 30.9547 169.221 30.4648C169.888 29.9771 170.557 29.6432 171.229 29.4633C171.903 29.2674 172.541 29.212 173.143 29.2969C173.697 29.3751 174.073 29.5735 174.271 29.8922C174.484 30.2131 174.557 30.6112 174.49 31.0865C174.443 31.4192 174.29 31.7046 174.03 31.9427C173.772 32.1649 173.374 32.3512 172.836 32.5015C171.952 32.6999 171.191 32.9966 170.554 33.3915C169.932 33.7886 169.396 34.2704 168.944 34.8369C168.508 35.4056 168.144 36.041 167.851 36.743C167.574 37.4472 167.338 38.2056 167.143 39.0183C167.001 39.5639 166.838 39.9772 166.653 40.2581C166.483 40.5412 166.28 40.7226 166.043 40.8022C165.821 40.8841 165.552 40.9027 165.235 40.858Z" fill="#060815"/>
<path d="M38.526 122.111L38.4358 120.516L32.4814 118.835C23.5649 116.297 15.9076 113.944 16.0901 113.773C16.1804 113.672 18.3466 112.909 20.894 112.093C32.9415 108.275 43.1187 103.089 52.4253 96.0956C58.1364 91.7706 62.183 88.0199 66.358 83.1414C75.7921 72.1703 81.9274 60.6172 83.3142 51.1574C83.7601 48.2825 83.5007 41.9895 82.9581 42.0201C82.7027 42.0346 82.6696 42.5807 82.8621 43.7225C83.2671 46.3572 82.8219 48.1114 79.989 54.6431C74.9762 66.2289 70.2162 73.2217 61.5707 81.7148C49.8301 93.2324 36.1406 100.858 16.0023 107.118C13.5471 107.865 11.4375 108.497 11.3417 108.502C11.2141 108.51 11.8977 107.574 12.8258 106.433C13.7521 105.26 16.6834 101.605 19.3154 98.3182L24.1313 92.3148L23.8069 90.5401C23.6233 89.5578 23.3471 88.0686 23.1707 87.214L22.8572 85.6308L17.5734 91.8528C12.4064 97.876 7.91638 103.413 4.96937 107.357L3.54194 109.295L3.68257 111.785C3.94221 116.381 3.43461 115.897 10.5795 118.247C21.5734 121.852 29.6114 123.576 35.9562 123.665L38.6161 123.707L38.526 122.111Z" fill="black"/>
</svg>
