<svg width="56" height="56" viewBox="0 0 56 56" fill="none" xmlns="http://www.w3.org/2000/svg">
<circle cx="28" cy="28" r="28" fill="#161519"/>
<path d="M38.4414 38.6453C41.3523 37.9984 43.3984 35.4602 43.3984 32.5C43.3984 30.7773 42.7586 29.2445 41.5281 28.0352C40.8391 27.3531 40.0656 26.875 39.0953 26.5305L38.3711 26.2773H37.1406C35.9805 26.2844 35.875 26.2914 35.3125 26.4812C34.982 26.5938 34.532 26.7766 34.307 26.8891C33.618 27.2336 33.4492 27.0648 33.5617 26.1578C33.9555 22.9797 35.3055 19.9703 37.2812 17.8539C37.5625 17.5586 37.7664 17.3125 37.7453 17.3125C37.7172 17.3125 37.443 17.4742 37.1266 17.6711C32.9289 20.2727 30.3555 25.2719 30.5523 30.4609C30.5734 31.0586 30.6438 31.8391 30.707 32.1836C31.2906 35.5094 33.0344 37.8508 35.4531 38.5469C36.1633 38.7578 37.7242 38.807 38.4414 38.6453Z" fill="white"/>
<path d="M20.5109 38.6453C21.5656 38.4133 22.6062 37.8578 23.443 37.0773C24.35 36.2266 24.8703 35.3898 25.2359 34.2086C25.4047 33.6531 25.4258 33.4844 25.4258 32.5C25.4258 31.5156 25.4047 31.3469 25.2359 30.7914C24.5258 28.4641 22.7398 26.8188 20.4195 26.3336C20.0117 26.2492 19.6461 26.2352 18.9289 26.2633C17.8602 26.3055 17.4453 26.4039 16.5312 26.8117C15.5891 27.2406 15.4766 27.1141 15.6594 25.8836C16.1375 22.6703 17.4875 19.7594 19.4492 17.7555C19.6812 17.5094 19.843 17.3125 19.8008 17.3125C19.6461 17.3125 18.0359 18.4375 17.4312 18.9648C13.3531 22.5227 11.5461 28.907 13.2055 33.9062C13.6906 35.3547 14.5484 36.7047 15.4977 37.4852C16.0039 37.9 17.0023 38.4203 17.6281 38.5891C18.2328 38.7578 19.8711 38.7859 20.5109 38.6453Z" fill="white"/>
</svg>
