<svg width="50" height="50" viewBox="0 0 50 50" fill="none" xmlns="http://www.w3.org/2000/svg">
<rect x="-0.5" y="0.5" width="49" height="49" rx="24.5" transform="matrix(-1 0 0 1 49 0)" stroke="#C5C5C5"/>
<g clip-path="url(#clip0_499_2594)">
<path d="M20.2385 16.4751C20.3869 16.124 20.7755 15.9251 21.1741 16.0041C21.3479 16.0357 21.8433 16.5288 25.6428 20.4267C29.4373 24.3299 29.9174 24.8387 29.9479 25.017C30.0395 25.5098 30.2851 25.2217 25.6355 29.9882C20.986 34.7495 21.2622 34.4981 20.7818 34.4033C20.5314 34.3559 20.225 34.0412 20.1792 33.7843C20.0876 33.2914 19.8778 33.5429 24.1079 29.2007L28.0056 25.2094L24.1396 21.2328C21.9742 19.0084 20.2481 17.1985 20.2175 17.1146C20.1461 16.9154 20.1565 16.669 20.2385 16.4751Z" fill="#161519"/>
</g>
<defs>
<clipPath id="clip0_499_2594">
<rect width="20.3706" height="26.1682" fill="white" transform="matrix(-0.000756412 1 1 0.000817764 12 15)"/>
</clipPath>
</defs>
</svg>
