<svg width="22" height="22" viewBox="0 0 22 22" fill="none" xmlns="http://www.w3.org/2000/svg">
<path d="M15.6666 7.06058C15.8389 7.13537 15.9134 7.22418 15.9693 7.42051C16.067 7.75706 16.0438 7.78978 14.1301 9.70627L12.3375 11.5059L14.1301 13.3055C16.0438 15.2267 16.0624 15.2501 15.9693 15.596C15.8901 15.8904 15.6247 16.0447 15.2941 15.9886C15.1218 15.9606 14.9542 15.8063 13.3013 14.1563L11.4993 12.352L9.69275 14.1563C8.04446 15.8063 7.87684 15.9606 7.70456 15.9886C7.37398 16.0447 7.10857 15.8904 7.02942 15.596C6.9363 15.2501 6.95492 15.2267 8.86861 13.3055L10.6612 11.5059L8.86861 9.70627C6.95026 7.78511 6.9363 7.76173 7.02942 7.41116C7.10857 7.12135 7.37398 6.96709 7.70456 7.02318C7.87684 7.05123 8.04446 7.20549 9.69275 8.85553L11.4993 10.6598L13.3013 8.86021C14.7819 7.37844 15.1358 7.05123 15.2662 7.02318C15.4711 6.98579 15.5037 6.99046 15.6666 7.06058Z" fill="#B1B1B1"/>
<rect x="0.5" y="0.5" width="21" height="21" rx="10.5" stroke="#DBDBDB"/>
</svg>
