<svg width="50" height="50" viewBox="0 0 50 50" fill="none" xmlns="http://www.w3.org/2000/svg">
<rect x="0.5" y="0.5" width="49" height="49" rx="24.5" stroke="#C5C5C5"/>
<path d="M29.8877 16.4755C29.7371 16.1284 29.3431 15.9318 28.939 16.0098C28.7628 16.0411 28.2605 16.5286 24.408 20.382C20.5606 24.2406 20.0739 24.7437 20.0429 24.9199C19.95 25.4071 19.7011 25.1222 24.4154 29.8344C29.1297 34.5413 28.8497 34.2927 29.3368 34.1991C29.5906 34.1522 29.9013 33.8411 29.9478 33.5871C30.0407 33.0999 30.2533 33.3485 25.9643 29.0558L22.0123 25.1101L25.9322 21.1789C28.1277 18.9799 29.8779 17.1906 29.9089 17.1077C29.9813 16.9107 29.9707 16.6672 29.8877 16.4755Z" fill="#161519"/>
</svg>
