<svg width="80" height="80" viewBox="0 0 80 80" fill="none" xmlns="http://www.w3.org/2000/svg">
<circle cx="40" cy="40" r="40" fill="white"/>
<path d="M31.8396 25.0764C31.3455 25.2184 26.2015 27.5218 25.9668 27.7133C25.831 27.8183 25.6519 28.0591 25.5469 28.2752C25.3925 28.584 25.3555 28.726 25.3555 29.0657C25.3555 30.171 26.0162 32.7215 26.8437 34.8025C28.3937 38.6806 30.6477 42.1326 33.5378 45.0289C36.0882 47.5916 38.583 49.4133 41.6892 50.988C44.0852 52.2046 46.6541 53.0938 49.0131 53.5199C50.2852 53.7484 50.7916 53.662 51.3227 53.1185C51.6067 52.8283 51.7241 52.606 52.8665 50.0309C54.0954 47.2705 54.1016 47.252 54.1016 46.8135C54.1016 46.4368 54.0769 46.338 53.9163 46.0787C53.7496 45.8008 53.4902 45.6217 51.0201 44.0038C48.1918 42.1573 47.9942 42.0462 47.5002 42.1326C47.0555 42.2067 46.8332 42.3673 45.5982 43.5777L44.3754 44.7571L43.8999 44.6892C42.282 44.4422 40.3306 43.3862 38.4348 41.7189C36.3228 39.8725 34.5814 37.0565 34.3406 35.099L34.2973 34.747L35.483 33.5304C36.1314 32.8573 36.7242 32.1966 36.7983 32.0607C36.8848 31.894 36.9218 31.6964 36.928 31.437C36.928 30.9553 36.9527 31.0047 34.8963 27.9047C33.1487 25.2617 33.0808 25.1814 32.5188 25.0579C32.1792 24.9776 32.1854 24.9776 31.8396 25.0764ZM32.3583 26.0398C32.4756 26.083 32.9758 26.7931 34.2109 28.6581C35.1433 30.0661 35.9214 31.2764 35.9461 31.3444C36.0141 31.5543 35.835 31.7828 34.6802 32.9252C34.0627 33.5366 33.5069 34.1418 33.439 34.2653C33.2908 34.5617 33.2908 34.9137 33.4451 35.6794C33.6057 36.476 33.8095 37.0195 34.2603 37.9211C35.6435 40.6382 38.0457 43.1022 40.7629 44.5781C41.8744 45.1832 42.9181 45.5476 43.8999 45.6773C44.7398 45.7884 44.7213 45.8008 46.1972 44.3681C47.3087 43.2812 47.5002 43.1207 47.6731 43.1207C47.8213 43.1207 48.4512 43.5036 50.3964 44.7757C51.792 45.6834 52.9777 46.4801 53.0332 46.5542C53.095 46.6221 53.1444 46.7456 53.1444 46.8197C53.1444 46.9 52.6133 48.1536 51.9649 49.6048C50.6434 52.5874 50.6002 52.6554 50.0753 52.6554C49.0872 52.6554 46.2342 51.8896 44.289 51.1054C42.6155 50.4261 40.275 49.1663 38.7312 48.1103C33.4081 44.4546 29.2891 39.082 27.2883 33.1723C26.819 31.7766 26.3435 29.7326 26.3435 29.0904C26.3435 28.5346 26.3435 28.5346 29.3385 27.2254C30.8021 26.5832 32.0372 26.0398 32.0866 26.0212C32.136 26.0027 32.1854 25.9842 32.1915 25.9842C32.1977 25.978 32.2718 26.0027 32.3583 26.0398Z" fill="#141414"/>
</svg>
