<svg width="80" height="80" viewBox="0 0 80 80" fill="none" xmlns="http://www.w3.org/2000/svg">
<circle cx="40" cy="40" r="40" fill="white"/>
<path d="M38.2124 23.0542C35.3746 23.4197 32.7629 24.6957 30.7426 26.7094C29.008 28.4439 27.845 30.5705 27.3001 33.0029C26.6621 35.8738 27.0276 38.572 28.5295 42.0544C30.3039 46.1814 34.0588 51.4116 38.5181 55.9705C39.6944 57.1668 39.7409 57.1867 40.2659 56.7016C40.7909 56.2231 42.7182 54.1496 43.7084 52.9999C48.8788 46.9921 51.8361 41.6025 52.4143 37.1631C52.9393 33.0893 51.2314 28.7297 48.0481 26.0381C46.5594 24.7754 44.7518 23.8384 42.9109 23.3665C41.4954 23.001 39.6013 22.8814 38.2124 23.0542ZM40.9836 24.0909C44.4793 24.483 47.5563 26.3505 49.5101 29.2813C51.1051 31.6671 51.7697 34.7906 51.2779 37.5818C50.4937 42.0743 47.0113 47.8428 41.3757 53.9968C40.8574 54.5616 40.2792 55.1731 40.0931 55.3591L39.7542 55.6848L39.4153 55.3591C39.2292 55.1731 38.651 54.5616 38.1326 53.9968C32.4771 47.8162 29.0612 42.1541 28.2172 37.5486C28.0377 36.5583 28.051 34.6909 28.2438 33.6475C28.9349 29.9591 31.2343 26.922 34.6037 25.234C36.5244 24.2704 38.857 23.8583 40.9836 24.0909Z" fill="#141414"/>
<path d="M38.9922 29.9201C38.5935 29.9732 37.7894 30.1992 37.4039 30.372C34.2007 31.7875 32.9513 35.7151 34.7456 38.7257C35.1776 39.4434 36.0349 40.3007 36.7526 40.7327C39.0521 42.1017 41.9961 41.7362 43.8835 39.8488C44.6278 39.1045 45.1528 38.1674 45.4453 37.0775C45.6247 36.393 45.618 35.004 45.4253 34.293C44.8139 32.0334 43.0196 30.3653 40.7866 29.9732C40.2483 29.8802 39.4707 29.8602 38.9922 29.9201ZM40.6337 31.0299C41.3116 31.1628 41.7967 31.3555 42.3616 31.7277C43.0329 32.1663 43.6642 32.8708 44.0031 33.5486C44.4085 34.3727 44.5082 34.8113 44.5016 35.7882C44.4949 36.4993 44.4683 36.6987 44.3221 37.1506C44.0696 37.9149 43.724 38.4665 43.1126 39.0779C42.5012 39.6893 41.9496 40.0349 41.1853 40.2874C40.7334 40.4336 40.5341 40.4602 39.823 40.4668C38.846 40.4735 38.4074 40.3738 37.5833 39.9684C36.6197 39.4899 35.676 38.4532 35.3039 37.463C34.7921 36.1072 34.9118 34.5455 35.6162 33.3293C35.9286 32.7977 36.7992 31.9138 37.3175 31.6081C38.3277 31.0166 39.4973 30.8106 40.6337 31.0299Z" fill="#141414"/>
</svg>
