<svg width="80" height="80" viewBox="0 0 80 80" fill="none" xmlns="http://www.w3.org/2000/svg">
<circle cx="40" cy="40" r="40" fill="white"/>
<path d="M40 32.8941C49.6414 36.1107 57.5863 38.7898 57.6535 38.8654C57.8383 39.0502 57.8047 39.3693 57.5863 39.5205C57.4771 39.5877 54.882 40.8055 51.8166 42.2164C48.7428 43.6357 46.2232 44.7947 46.2232 44.8031C46.2148 44.8031 46.3912 46.0797 46.618 47.625C46.8447 49.1703 47.0211 50.5896 47.0043 50.766C46.9791 51.1607 46.8027 51.3119 46.492 51.1943C46.366 51.1439 45.3078 50.3041 44.1236 49.3215C42.8051 48.2213 41.9316 47.5494 41.856 47.5746C41.7889 47.5998 39.8488 48.8344 37.5476 50.3125C34.8685 52.0342 33.2896 53 33.1553 53C33.0377 53 32.9033 52.9496 32.8529 52.8908C32.7017 52.6977 22.0021 27.6535 22.0021 27.4771C22.0021 27.3344 22.2793 27.0488 22.4221 27.0488C22.4473 27.0488 30.3502 29.6775 40 32.8941ZM25.1516 28.9721C25.2019 29.0057 29.8043 32.3818 35.3976 36.4551C40.9826 40.5367 45.6017 43.9045 45.6605 43.9465C45.7193 43.9969 47.567 43.1906 50.918 41.6453C53.7566 40.3352 56.0746 39.2602 56.0578 39.2434C56.041 39.2266 25.2103 28.9217 25.1096 28.9049C25.0928 28.8965 25.1096 28.9301 25.1516 28.9721ZM28.4269 40.3939C31.1228 46.6928 33.3484 51.8578 33.3652 51.883C33.424 51.9334 44.8459 44.5764 44.8207 44.5008C44.8039 44.4336 23.5643 28.9049 23.5391 28.9301C23.5223 28.9385 25.7226 34.1035 28.4269 40.3939ZM44.048 46.1469C43.3762 46.5836 42.8219 46.9699 42.8135 47.0035C42.8051 47.0623 45.9545 49.733 45.9881 49.6994C45.9965 49.6826 45.3834 45.5002 45.3582 45.3742C45.3414 45.3238 45.1986 45.4078 44.048 46.1469Z" fill="#141414"/>
</svg>
