<svg width="97" height="73" viewBox="0 0 97 73" fill="none" xmlns="http://www.w3.org/2000/svg">
<rect width="73" height="73" rx="36.5" fill="#EFEDFB"/>
<path fill-rule="evenodd" clip-rule="evenodd" d="M55.9094 19.7014C58.0656 17.5358 59.9594 15.6889 60.1094 15.5952C60.3813 15.4264 60.7938 15.417 72.5125 15.417H84.6344L84.8594 15.6514L85.0938 15.8764V27.5483V39.2108L85.4969 39.5202C87.3063 40.9077 88.4125 42.7077 88.75 44.7889C88.9 45.6795 88.825 47.3952 88.6094 48.1827C88.4031 48.9139 87.8031 50.1983 87.3906 50.7702C87.2125 51.0233 87.0625 51.267 87.0625 51.3045C87.0625 51.342 87.3906 51.6983 87.7938 52.1014L88.5344 52.8327L89.1156 52.6733C89.8469 52.467 90.6156 52.5889 91.2719 53.0014C91.9188 53.4233 96.0906 57.6608 96.3438 58.167C96.8594 59.1795 96.6531 60.3983 95.8375 61.2139C95.0219 62.0295 93.8594 62.2264 92.8656 61.7295C92.275 61.4295 87.775 56.9577 87.475 56.3577C87.1562 55.7389 87.1 55.1389 87.2969 54.4639L87.4469 53.9202L86.6781 53.142L85.9094 52.3733L85.5063 52.6639L85.1031 52.9639L85.0938 55.2795C85.0938 57.4545 85.0844 57.6139 84.9156 57.7827C84.8125 57.8858 84.5875 57.9983 84.4188 58.0264C84.25 58.0545 76.9938 58.0639 68.2938 58.0545L52.4875 58.0264L52.2438 57.8014L52 57.5764V40.5983V23.6295L55.9094 19.7014ZM83.4531 38.442C83.575 38.4983 83.5938 37.3639 83.5938 27.7077V16.917H72.4375H61.2812V20.5733V24.2389L61.0469 24.4639L60.8219 24.6983H57.1562H53.5V40.6358V56.5733H68.5469H83.5938V55.1577V53.742L83.3875 53.7983C83.2656 53.8358 82.7969 53.9483 82.3281 54.042C79.1406 54.7358 75.7656 53.3202 73.9563 50.5452C73.6938 50.142 73.45 49.7295 73.4219 49.6358C73.3656 49.4483 73.2156 49.4483 65.9219 49.4483C58.7969 49.4483 58.4781 49.4389 58.2719 49.2702C57.9813 49.0358 57.9719 48.492 58.2625 48.2014L58.4781 47.9952L65.65 47.967L72.8313 47.9483L72.775 47.6858C72.5312 46.5983 72.6344 44.742 73.0094 43.6639C73.0211 43.6277 73.0326 43.5921 73.0439 43.5574C73.0555 43.5214 73.0669 43.4864 73.0778 43.4529L73.0782 43.4517L73.0783 43.4514L73.0785 43.4509C73.1409 43.2588 73.1875 43.1154 73.1875 43.1014C73.1875 43.092 69.8969 43.0733 65.8656 43.0733H58.5438L58.2719 42.8014C58.1219 42.6514 58 42.4545 58 42.3702C58 42.1452 58.2531 41.6952 58.4219 41.6295C58.5063 41.6014 62.0406 41.5733 66.2781 41.5733H73.9844L74.4719 40.9639C75.4656 39.7452 77.0219 38.7233 78.5875 38.2733C79.2156 38.0952 79.5438 38.0577 80.7344 38.0577C82.0563 38.0577 82.6844 38.1514 83.4531 38.442ZM59.7813 23.1983V20.6202C59.7813 19.2045 59.7719 18.042 59.7531 18.042C59.7438 18.042 58.5719 19.2045 57.1562 20.6202L54.5781 23.1983H57.1844H59.7813ZM86.65 43.1202C85.8063 41.4139 84.0813 40.0733 82.2156 39.6608C81.2969 39.4545 79.975 39.4733 79.1031 39.7077C77.875 40.0264 77.0875 40.4858 76.1313 41.4327C75.4 42.1545 75.2125 42.4077 74.8375 43.167C73.8906 45.1077 73.8906 47.0858 74.8281 49.0264C75.8594 51.1639 77.95 52.5514 80.3594 52.7014C83.3031 52.8889 86.0594 51.0139 87.025 48.1827C87.5594 46.6077 87.4188 44.6764 86.65 43.1202ZM92.8563 56.6014C91.6 55.3358 90.4656 54.2483 90.325 54.1733C89.5469 53.7702 88.5719 54.4358 88.6844 55.2983C88.7313 55.6358 88.9563 55.8889 91.1594 58.092C93.475 60.3983 93.6063 60.5108 93.9344 60.5108C94.6844 60.5108 95.125 60.0795 95.125 59.3483V58.8889L92.8563 56.6014ZM58 32.4139C58 27.7264 58.0094 27.6795 58.4688 27.4452C58.8063 27.2764 67.8813 27.2764 68.2188 27.4452C68.65 27.6608 68.6781 27.9233 68.6781 32.3858C68.6875 36.6795 68.65 37.1764 68.3125 37.3545C68.125 37.4577 58.6937 37.4952 58.4219 37.392C58.0188 37.2327 58 37.0358 58 32.4139ZM67.1875 35.9483L67.1688 32.4045L67.1406 28.8702L63.3813 28.842C61.3188 28.8327 59.6031 28.8514 59.5656 28.8889C59.5281 28.917 59.5 30.5202 59.5 32.4514V35.9483H63.3438H67.1875ZM71.6402 28.9639C71.3308 29.2732 71.3402 29.6201 71.6777 29.9576L71.9495 30.2295H76.562H81.1745L81.4464 29.9576C81.7839 29.6201 81.7933 29.2732 81.4839 28.9639L81.2589 28.7295H76.562H71.8652L71.6402 28.9639ZM71.6402 36.3701C71.3308 36.0607 71.3402 35.7139 71.6777 35.3764L71.9495 35.1045H76.562H81.1745L81.4464 35.3764C81.7839 35.7139 81.7933 36.0607 81.4839 36.3701L81.2589 36.6045H76.562H71.8652L71.6402 36.3701Z" fill="#141414"/>
</svg>
