<svg width="543" height="565" viewBox="0 0 543 565" fill="none" xmlns="http://www.w3.org/2000/svg">
<circle cx="286.5" cy="318.019" r="241.5" stroke="#CCBFFF" stroke-width="2"/>
<path d="M542 282.519C542 437.747 420.858 563.519 271.5 563.519C122.142 563.519 1 437.747 1 282.519C1 127.29 122.142 1.51855 271.5 1.51855C420.858 1.51855 542 127.29 542 282.519Z" stroke="#DDD5FF" stroke-width="2"/>
<path d="M70.5 49.4053C73.594 47.619 77.406 47.619 80.5 49.4053L107.306 64.8818C110.4 66.6681 112.306 69.9694 112.306 73.5421V104.495C112.306 108.068 110.4 111.369 107.306 113.155L80.5 128.632C77.406 130.418 73.594 130.418 70.5 128.632L43.6939 113.155C40.5999 111.369 38.6939 108.068 38.6939 104.495V73.5421C38.6939 69.9694 40.5999 66.6681 43.6939 64.8818L70.5 49.4053Z" fill="#866BF0"/>
<path d="M63.5679 70.6227C63.4203 70.6883 63.2892 70.7457 63.281 70.7621C63.2728 70.7785 63.24 71.8033 63.2154 73.0414L63.1744 75.2962L59.7554 75.3208L56.3363 75.3372L56.1724 75.5503L56.0002 75.7717V89.7593C56.0002 105.182 55.9756 104.272 56.5167 105.297C56.8201 105.871 57.517 106.6 58.0581 106.92C58.2549 107.035 58.6649 107.223 58.9518 107.33L59.4848 107.519H75.678H91.8712L92.4615 107.305C93.9045 106.772 94.954 105.584 95.2656 104.132C95.3312 103.821 95.3558 99.1965 95.3558 87.3488V70.9998L95.159 70.7703L94.9622 70.5407L79.3922 70.5243C66.1178 70.5079 63.7893 70.5243 63.5679 70.6227ZM94.0275 87.9063L94.0029 103.993L93.7324 104.542C93.4044 105.206 92.8305 105.756 92.1745 106.018L91.7072 106.207L77.5474 106.231C69.75 106.239 63.3793 106.239 63.3793 106.223C63.3793 106.199 63.5433 105.944 63.7483 105.641C63.9451 105.338 64.1993 104.846 64.2976 104.542L64.4862 103.993L64.5108 87.8981L64.5272 71.8115H79.2856H94.0439L94.0275 87.9063ZM63.2154 89.8659C63.2154 98.0732 63.1826 103.304 63.1334 103.649C62.707 106.584 58.8289 107.15 57.5744 104.46L57.353 103.993L57.3284 90.3169L57.312 76.649H60.2637H63.2154V89.8659Z" fill="white"/>
<path d="M69.6107 76.9196C69.1926 77.1327 69.2008 77.0835 69.2254 82.2818L69.2417 87.1274L69.4385 87.3406L69.6353 87.5538H74.1202C78.5395 87.5538 78.6133 87.5538 78.8265 87.3816L79.0397 87.2176V82.2244C79.0397 77.4443 79.0315 77.2311 78.8839 77.0507L78.7281 76.854L74.2678 76.8376C70.7996 76.8212 69.7747 76.8376 69.6107 76.9196ZM77.7278 82.1834V86.2419H74.1202H70.5126V82.2408C70.5126 80.0352 70.5372 78.2068 70.57 78.1822C70.5946 78.1494 72.218 78.1248 74.1776 78.1248H77.7278V82.1834Z" fill="white"/>
<path d="M81.5402 76.9114C81.1221 77.1492 81.0483 77.6001 81.3763 77.9199L81.573 78.1249H85.2626H88.9522L89.1162 77.9117C89.4032 77.5427 89.313 77.1246 88.903 76.9114C88.6489 76.772 81.778 76.7802 81.5402 76.9114Z" fill="white"/>
<path d="M81.376 81.7734C81.048 82.1014 81.13 82.5606 81.5564 82.7819C81.8105 82.9213 88.6486 82.9213 88.9028 82.7819C89.3127 82.5688 89.4029 82.1506 89.1159 81.7816L88.9519 81.5685H85.2624H81.5728L81.376 81.7734Z" fill="white"/>
<path d="M81.5402 86.3321C81.1221 86.5699 81.0483 87.029 81.3763 87.3488L81.573 87.5538H85.2298H88.8866L89.0834 87.3488C89.3294 87.111 89.3458 86.7421 89.1326 86.4797L88.9768 86.2829L85.3364 86.2665C82.7947 86.2501 81.655 86.2747 81.5402 86.3321Z" fill="white"/>
<path d="M69.5039 91.0957C69.3071 91.2515 69.1923 91.6205 69.2743 91.8418C69.4465 92.2928 68.8398 92.2682 79.2526 92.2682H88.8619L89.0751 92.0714C89.3375 91.8254 89.3539 91.5057 89.1161 91.2105L88.9521 90.9973H79.2936C71.7013 90.9973 69.6105 91.0219 69.5039 91.0957Z" fill="white"/>
<path d="M69.4792 95.8595C69.3152 95.9989 69.2578 96.1301 69.2578 96.3269C69.2578 96.5236 69.3152 96.6548 69.4792 96.7942L69.7006 96.9828H79.2935H88.8864L89.0832 96.7778C89.2144 96.6548 89.2882 96.4826 89.2882 96.3269C89.2882 96.1711 89.2144 95.9989 89.0832 95.8759L88.8864 95.6709H79.2935H69.7006L69.4792 95.8595Z" fill="white"/>
<path d="M69.7338 100.402C69.3484 100.5 69.1598 100.853 69.291 101.246C69.3402 101.386 69.4468 101.533 69.5288 101.574C69.6272 101.623 73.1856 101.656 79.3185 101.656H88.9524L89.1164 101.443C89.3542 101.148 89.3378 100.828 89.0754 100.582L88.8622 100.385L79.3841 100.377C74.1695 100.369 69.8239 100.377 69.7338 100.402Z" fill="white"/>
<path d="M473.5 420.405C476.594 418.619 480.406 418.619 483.5 420.405L517.234 439.882C520.328 441.668 522.234 444.969 522.234 448.542V487.495C522.234 491.068 520.328 494.369 517.234 496.155L483.5 515.632C480.406 517.418 476.594 517.418 473.5 515.632L439.766 496.155C436.672 494.369 434.766 491.068 434.766 487.495V448.542C434.766 444.969 436.672 441.668 439.766 439.882L473.5 420.405Z" fill="#EA7343"/>
<path d="M478.309 439.764C478.073 440.012 478.062 440.113 478.062 442.518C478.062 444.934 478.073 445.013 478.309 445.238C478.444 445.361 478.691 445.462 478.848 445.462C479.006 445.462 479.253 445.361 479.388 445.238C479.624 445.013 479.635 444.934 479.635 442.495C479.635 440.023 479.635 439.989 479.376 439.753C479.039 439.438 478.612 439.438 478.309 439.764Z" fill="white"/>
<path d="M459.877 447.407C459.371 447.946 459.495 448.171 461.293 449.992C462.203 450.913 463.069 451.711 463.215 451.767C463.833 452.015 464.496 451.351 464.249 450.733C464.193 450.587 463.395 449.722 462.473 448.8C461.057 447.407 460.742 447.148 460.45 447.148C460.248 447.148 460.023 447.249 459.877 447.407Z" fill="white"/>
<path d="M495.222 448.8C494.301 449.722 493.503 450.587 493.447 450.733C493.301 451.115 493.514 451.587 493.896 451.756C494.098 451.835 494.29 451.846 494.481 451.767C494.627 451.711 495.492 450.913 496.414 449.992C497.807 448.575 498.066 448.261 498.066 447.969C498.066 447.553 497.661 447.148 497.223 447.148C496.964 447.148 496.605 447.452 495.222 448.8Z" fill="white"/>
<path d="M477.331 449.632C471.554 450.194 466.328 454.318 464.35 459.904C463.71 461.713 463.53 462.837 463.519 464.905C463.519 466.231 463.575 467.041 463.71 467.749C464.17 470.053 465.171 472.289 466.609 474.233C469.093 477.594 470.509 481.213 470.812 484.966C470.846 485.461 470.914 486 470.936 486.18C471.015 486.585 471.599 487.158 471.936 487.158H472.195L472.24 490.676C472.285 493.688 472.318 494.261 472.487 494.721C472.768 495.463 473.645 496.396 474.375 496.722C474.971 496.992 475.004 496.992 478.848 496.992C482.692 496.992 482.725 496.992 483.321 496.722C484.052 496.396 484.928 495.463 485.209 494.721C485.378 494.261 485.412 493.688 485.456 490.664C485.49 487.686 485.524 487.158 485.659 487.158C486.266 487.158 486.828 486.416 486.828 485.641C486.828 485.011 487.153 482.943 487.401 481.932C488.109 479.145 489.255 476.796 491.267 473.997C492.559 472.188 493.447 470.187 493.93 467.962C494.211 466.692 494.268 463.635 494.043 462.489C493.829 461.41 493.189 461.005 492.604 461.601C492.357 461.837 492.323 461.949 492.379 462.354C492.571 463.714 492.582 466.108 492.402 467.108C492.042 469.176 491.334 470.952 490.233 472.581C488.064 475.751 487.468 476.796 486.659 478.841C486.12 480.212 485.535 482.516 485.367 483.955C485.299 484.573 485.209 485.191 485.187 485.326L485.142 485.584H478.848H472.554L472.509 485.326C472.476 485.191 472.397 484.55 472.33 483.899C472.071 481.595 471.082 478.448 469.947 476.369C469.689 475.908 469.149 475.043 468.756 474.458C468.351 473.874 467.744 472.986 467.407 472.491C464.732 468.569 464.395 463.219 466.553 458.926C467.857 456.341 470.071 454.094 472.644 452.734C478.444 449.677 485.85 451.363 489.75 456.622C490.795 458.038 490.817 458.05 491.244 458.05C492.087 458.05 492.245 457.24 491.593 456.319C489.907 453.959 488.086 452.374 485.648 451.16C483.849 450.273 482.186 449.812 480.084 449.621C478.668 449.497 478.758 449.497 477.331 449.632ZM483.771 487.855L483.737 488.45L481.849 488.506C480.141 488.563 479.938 488.585 479.792 488.776C479.567 489.102 479.601 489.518 479.882 489.821C480.118 490.069 480.186 490.08 481.961 490.08H483.793V491.091V492.103H478.848H473.903V491.091V490.08H474.746C475.499 490.08 475.634 490.046 475.87 489.799C476.207 489.473 476.218 489.192 475.926 488.81C475.713 488.54 475.6 488.518 474.825 488.484L473.959 488.45L473.926 487.855L473.892 487.27H478.848H483.804L483.771 487.855ZM483.681 494.07C483.478 494.587 483.197 494.924 482.77 495.149C482.377 495.351 482.085 495.362 478.848 495.362C475.611 495.362 475.319 495.351 474.926 495.149C474.499 494.924 474.218 494.587 474.015 494.07L473.903 493.789H478.848H483.793L483.681 494.07Z" fill="white"/>
<path d="M478.882 459.072C478.669 459.151 478.624 459.252 478.624 459.646V460.129L477.882 460.275C475.612 460.702 474.353 462.118 474.353 464.22C474.353 465.332 474.578 465.995 475.207 466.692C475.825 467.378 476.23 467.636 477.545 468.176L478.567 468.603L478.601 471.3L478.624 474.009H478.241C477.713 474.009 476.724 473.626 476.196 473.222C475.14 472.413 474.926 472.3 474.634 472.368C474.308 472.446 473.903 473.031 473.903 473.424C473.903 474.054 474.746 474.964 475.758 475.425C476.398 475.728 477.668 476.032 478.264 476.032C478.612 476.032 478.624 476.043 478.624 476.537C478.624 477.021 478.803 477.268 479.174 477.268C479.455 477.268 479.747 476.807 479.747 476.38C479.747 475.953 479.759 475.942 480.231 475.874C480.95 475.762 482.029 475.211 482.546 474.694C483.422 473.818 483.883 472.424 483.76 470.997C483.614 469.277 482.782 468.164 481.04 467.31C480.478 467.041 479.961 466.816 479.882 466.816C479.781 466.816 479.747 466.209 479.747 464.388V461.961L480.287 462.039C480.579 462.084 481.152 462.264 481.568 462.444C482.602 462.894 482.894 462.871 483.175 462.309C483.389 461.905 483.389 461.421 483.175 461.129C482.95 460.792 482.04 460.432 481.074 460.286C479.691 460.073 479.747 460.095 479.747 459.758C479.747 459.207 479.343 458.893 478.882 459.072ZM478.736 464.175C478.736 465.377 478.713 466.366 478.68 466.366C478.657 466.366 478.343 466.243 477.983 466.074C476.859 465.591 476.376 464.961 476.376 464.04C476.376 463.04 476.904 462.444 478.05 462.141C478.331 462.062 478.601 461.994 478.657 461.994C478.702 461.983 478.736 462.972 478.736 464.175ZM480.388 469.401C481.388 469.974 481.849 470.839 481.737 471.963C481.647 472.806 481.242 473.39 480.5 473.739C479.466 474.222 479.523 474.357 479.523 471.536C479.523 469.637 479.556 469.064 479.669 469.064C479.736 469.064 480.062 469.221 480.388 469.401Z" fill="white"/>
<path d="M452.235 465.838C451.92 466.175 451.92 466.602 452.246 466.906C452.493 467.142 452.594 467.153 454.999 467.153C457.416 467.153 457.494 467.142 457.719 466.906C458.011 466.591 458.011 466.141 457.719 465.827C457.494 465.591 457.416 465.58 454.977 465.58C452.504 465.58 452.471 465.58 452.235 465.838Z" fill="white"/>
<path d="M499.977 465.827C499.853 465.962 499.752 466.209 499.752 466.366C499.752 466.524 499.853 466.771 499.977 466.906C500.202 467.142 500.28 467.153 502.719 467.153C505.191 467.153 505.225 467.153 505.461 466.894C505.776 466.557 505.776 466.13 505.45 465.827C505.203 465.591 505.102 465.58 502.696 465.58C500.28 465.58 500.202 465.591 499.977 465.827Z" fill="white"/>
<path d="M463.17 480.977C463.046 481.022 462.204 481.82 461.293 482.741C459.888 484.157 459.63 484.472 459.63 484.764C459.63 485.18 460.034 485.584 460.473 485.584C460.731 485.584 461.091 485.281 462.473 483.921C463.395 483.011 464.193 482.145 464.249 481.999C464.395 481.628 464.193 481.156 463.833 480.988C463.507 480.842 463.474 480.842 463.17 480.977Z" fill="white"/>
<path d="M493.829 480.999C493.491 481.156 493.312 481.651 493.446 481.999C493.503 482.145 494.301 483.011 495.222 483.921C496.638 485.326 496.953 485.584 497.245 485.584C497.661 485.584 498.066 485.18 498.066 484.742C498.066 484.472 497.762 484.123 496.357 482.707C494.615 480.965 494.312 480.763 493.829 480.999Z" fill="white"/>
</svg>
