<svg width="91" height="76" viewBox="0 0 91 76" fill="none" xmlns="http://www.w3.org/2000/svg">
<circle cx="38" cy="38" r="38" fill="#EFEDFB"/>
<path d="M61.2152 18.6092C60.233 18.8846 59.3609 19.7658 59.0947 20.7756C58.9111 21.4457 58.9111 22.8961 59.0947 23.2449C59.3518 23.7406 59.9943 23.9334 60.5084 23.6672C60.949 23.4377 61.0133 23.2816 61.0684 22.2535C61.1326 21.2162 61.2244 20.95 61.61 20.748C61.9312 20.5736 73.057 20.5736 73.3783 20.748C73.7639 20.95 73.8557 21.2162 73.9199 22.2535C73.975 23.2816 74.0393 23.4377 74.4799 23.6672C74.9939 23.9334 75.6365 23.7406 75.8936 23.2449C76.0771 22.8961 76.0771 21.4457 75.8936 20.7756C75.6273 19.7475 74.7553 18.8754 73.7271 18.6092C73.0203 18.4164 61.9037 18.4256 61.2152 18.6092Z" fill="#161519"/>
<path d="M46.6921 25.9989C45.6456 26.155 44.746 26.8343 44.287 27.8165L44.0392 28.3397L44.0116 32.3237C43.9841 36.1333 43.9933 36.3353 44.1769 36.9319C44.4155 37.7214 45.1224 38.5384 45.8292 38.8413C46.1597 38.979 62.8575 42.7978 63.1421 42.7978C63.1513 42.7978 63.1788 43.6515 63.1972 44.6979C63.2247 46.7909 63.2522 46.9011 63.7847 47.1581C64.2161 47.3601 70.7704 47.3601 71.2019 47.1581C71.7343 46.9011 71.7618 46.7909 71.7894 44.6979C71.8077 43.6515 71.8353 42.7978 71.8444 42.7978C72.129 42.7978 88.8269 38.979 89.1573 38.8413C89.8642 38.5384 90.571 37.7214 90.8097 36.9319C90.9933 36.3353 91.0024 36.1333 90.9749 32.3237L90.9474 28.3397L90.6995 27.8073C90.369 27.1188 89.6714 26.4396 89.0013 26.1642L88.4688 25.953L67.8146 25.9438C56.4593 25.9347 46.9491 25.9622 46.6921 25.9989ZM88.4321 28.2938C88.579 28.404 88.7351 28.6243 88.7901 28.8263C88.9278 29.322 88.9003 35.9589 88.7626 36.3628C88.6983 36.5372 88.5515 36.7483 88.423 36.8401C88.2761 36.9503 85.412 37.6296 80.0235 38.8321L71.8536 40.6589L71.7894 40.1081C71.6976 39.3462 71.569 39.0708 71.211 38.9056C70.7612 38.6853 64.2253 38.6853 63.7755 38.9056C63.4175 39.0708 63.289 39.3462 63.1972 40.1081L63.1329 40.6589L54.963 38.8321C49.5745 37.6296 46.7104 36.9503 46.5636 36.8401C46.4351 36.7483 46.2882 36.5372 46.2239 36.3628C46.0862 35.9681 46.0587 29.322 46.1964 28.8446C46.2423 28.6702 46.3983 28.4315 46.536 28.3214L46.7931 28.1103H67.4749C88.1659 28.1103 88.1659 28.1103 88.4321 28.2938ZM69.6046 43.0272V45.1845H67.4933H65.3819V43.0272V40.87H67.4933H69.6046V43.0272Z" fill="#161519"/>
<path d="M45.765 40.9711C45.6089 41.017 45.3886 41.173 45.2785 41.3199C45.0949 41.5861 45.0949 41.6229 45.1132 49.1502L45.1408 56.7051L45.3794 57.2191C45.6916 57.8801 46.2607 58.4492 46.9216 58.7613L47.4357 59H67.4933H87.5509L88.065 58.7613C88.7259 58.4492 89.2951 57.8801 89.6072 57.2191L89.8459 56.7051L89.8734 49.1502C89.8918 41.6412 89.8918 41.5861 89.7082 41.3291C89.497 41.0262 89.0013 40.8518 88.5974 40.9344C88.2486 40.9986 87.9089 41.3475 87.8355 41.7055C87.808 41.8707 87.7804 45.1846 87.7804 49.0768C87.7804 55.9248 87.7712 56.1635 87.5968 56.448C87.4775 56.6408 87.3123 56.7693 87.0736 56.8336C86.5871 56.9713 48.3996 56.9713 47.913 56.8336C47.2154 56.6408 47.2613 57.1365 47.2062 48.9023C47.1603 41.1547 47.1695 41.3383 46.7564 41.0812C46.5085 40.9252 46.0771 40.8793 45.765 40.9711Z" fill="#161519"/>
</svg>
