<svg width="60" height="60" viewBox="0 0 60 60" fill="none" xmlns="http://www.w3.org/2000/svg">
<rect width="60" height="60" rx="30" fill="white"/>
<path d="M18.0638 21.6695C17.5364 21.8488 17.162 22.2707 17.046 22.8033C17.0038 22.9932 16.9933 25.3662 17.0038 30.9561L17.0196 38.8398L17.1673 39.1404C17.336 39.4779 17.5892 39.7258 17.9372 39.8893L18.1798 40H30.4933H42.8067L43.0493 39.8893C43.3974 39.7258 43.6505 39.4779 43.8192 39.1404L43.9669 38.8398V30.7979V22.7559L43.8192 22.4553C43.6505 22.1178 43.3974 21.8699 43.0493 21.7064C42.8067 21.5957 42.7645 21.5957 37.6651 21.5799C33.8577 21.5693 32.4866 21.5852 32.3759 21.6273C32.2177 21.6959 32.0753 21.9174 32.0753 22.0967C32.0753 22.2496 32.2124 22.4975 32.3231 22.5502C32.3759 22.5766 34.5644 22.6082 37.1905 22.624L41.9683 22.6504L36.2677 27.3438C33.1353 29.9277 30.5354 32.0371 30.488 32.0318C30.4458 32.0318 27.846 29.9225 24.7188 27.3385L19.0235 22.6504L23.796 22.624C26.4222 22.6082 28.6106 22.5766 28.6634 22.5502C28.7741 22.4975 28.9112 22.2496 28.9112 22.102C28.9112 22.0439 28.8849 21.9332 28.8479 21.8594C28.7108 21.5588 28.9323 21.5693 23.4163 21.5693C18.6808 21.5746 18.3222 21.5799 18.0638 21.6695ZM22.6517 27.0062C25.1513 29.0682 27.1974 30.7715 27.1974 30.7979C27.1974 30.84 18.127 38.3389 18.0743 38.3389C18.0585 38.3389 18.0479 34.9428 18.0479 30.7979C18.0479 26.6477 18.0585 23.2568 18.0743 23.2568C18.0901 23.2568 20.1468 24.9443 22.6517 27.0062ZM42.9386 30.7979C42.9386 34.9428 42.928 38.3389 42.9122 38.3389C42.8647 38.3389 33.7892 30.84 33.7892 30.7979C33.7892 30.7557 42.8331 23.2674 42.9017 23.2621C42.9227 23.2568 42.9386 26.6477 42.9386 30.7979ZM29.0325 32.2691C29.4597 32.6225 29.8974 32.9652 30.0081 33.0285C30.2454 33.1656 30.7042 33.1814 30.9415 33.0549C31.0311 33.0074 31.5058 32.6383 31.9962 32.2322C32.7661 31.5941 32.9032 31.4992 32.9823 31.552C33.0351 31.5889 35.0759 33.2658 37.5228 35.2803L41.9683 38.9453L36.2624 38.9611C33.1247 38.9664 27.962 38.9664 24.7874 38.9611L19.0235 38.9453L23.5534 35.2117C27.5349 31.9316 28.0938 31.4887 28.1677 31.552C28.2151 31.5941 28.6054 31.9158 29.0325 32.2691Z" fill="#141414"/>
<path d="M30.2344 21.6432C29.7756 21.8963 29.9707 22.624 30.4928 22.624C30.7617 22.624 31.0201 22.3656 31.0201 22.102C31.0201 21.7064 30.5824 21.448 30.2344 21.6432Z" fill="#141414"/>
</svg>
