<svg width="89" height="76" viewBox="0 0 89 76" fill="none" xmlns="http://www.w3.org/2000/svg">
<circle cx="38" cy="38" r="38" fill="#EFEDFB"/>
<g clip-path="url(#clip0_2142_430)">
<path d="M76.9066 18.1723L76.6934 18.3363V19.9359C76.6934 21.9703 76.6113 21.8555 78.0879 21.8555C78.6785 21.8555 79.1543 21.8801 79.1543 21.9211C79.1543 21.9539 77.891 23.2418 76.3488 24.784L73.5352 27.5895L70.623 27.6141C67.8012 27.6387 67.7027 27.6469 67.3746 27.8191C67.1367 27.9422 65.8078 29.3367 63.1172 32.2734L59.2043 36.5391H58.2773C57.416 36.5391 57.3258 36.5555 57.1207 36.7277C56.8418 36.9738 56.8254 37.4086 57.0961 37.6219C57.2438 37.7449 57.4488 37.7695 58.4906 37.7695C59.6309 37.7695 59.7129 37.7613 59.9098 37.5809C60.0164 37.4824 61.7965 35.5547 63.8473 33.2988C65.9063 31.043 67.7109 29.1152 67.8504 29.0086C68.1047 28.8281 68.1293 28.8281 71.066 28.8281H74.0273L77.6531 25.1941C81.0902 21.7652 81.2871 21.552 81.2871 21.273C81.2871 21.0762 81.2297 20.9285 81.1148 20.8219C80.959 20.6824 80.7785 20.666 79.4332 20.6414L77.9238 20.6168V19.9195V19.2305H81.0082C83.059 19.2305 84.1418 19.2633 84.2566 19.3207C84.6258 19.5176 84.6504 19.7719 84.6504 22.9629V25.957H83.9121H83.1738L83.1574 24.3902L83.1328 22.8152L82.9113 22.6512C82.7555 22.5363 82.6324 22.5035 82.4602 22.5445C82.3043 22.5855 81.0328 23.7996 78.3914 26.4328L74.5605 30.2637L71.5254 30.3047L68.482 30.3457L64.5035 34.6934C62.141 37.2773 60.4266 39.082 60.2789 39.1477C60.0902 39.2215 59.0402 39.2461 55.6688 39.2297L51.3047 39.2051V38.5078V37.8105L53.134 37.7695C54.832 37.7285 54.9797 37.7203 55.0863 37.5727C55.275 37.302 55.234 36.9 54.9879 36.7113C54.7828 36.5473 54.668 36.5391 52.65 36.5391H50.5336L50.3039 36.7359L50.0742 36.9328V38.4996C50.0742 40.0172 50.0824 40.0664 50.2629 40.2469L50.4516 40.4355H55.4719H60.4922L60.8695 40.2469C61.1648 40.0992 62.059 39.1723 65.1516 35.809L69.0563 31.5516L71.9109 31.5188C74.7246 31.4941 74.7738 31.4941 75.1348 31.2973C75.3727 31.1742 76.6113 30.0012 78.7195 27.9012L81.927 24.702L81.9598 25.7848C81.9926 27.2613 81.8859 27.1875 83.9203 27.1875C85.3559 27.1875 85.4789 27.1793 85.6348 27.0234C85.725 26.9332 85.8152 26.7773 85.8398 26.6789C85.8645 26.5723 85.8809 24.9152 85.8645 23.0039C85.8398 19.8539 85.8234 19.4848 85.6922 19.1895C85.4871 18.7383 85.1754 18.4266 84.6914 18.1969L84.2813 18H80.7047C77.2102 18 77.1199 18 76.9066 18.1723Z" fill="black"/>
<path d="M78.1883 33.9387L78.0078 34.1273V45.1441V56.1527L77.2941 56.1281L76.5723 56.1035L76.5477 46.7438L76.5312 37.384L76.359 37.2281C76.1949 37.0805 76.0062 37.0723 72.6348 37.0723C69.2633 37.0723 69.0746 37.0805 68.9105 37.2281L68.7383 37.384L68.7219 46.7438L68.6973 56.1035H68H67.3027L67.2781 49.2621L67.2617 42.4125L67.0812 42.2238L66.909 42.0352H63.3652C60.4367 42.0352 59.7969 42.0516 59.6656 42.15C59.518 42.2648 59.5098 42.4535 59.4687 49.1883L59.4277 56.1035L58.7141 56.1281L57.9922 56.1527V51.2637C57.9922 46.5387 57.984 46.3746 57.8363 46.227C57.7461 46.1367 57.5492 46.0383 57.4016 46.0137C57.2539 45.9891 55.6461 45.9727 53.8332 45.9891L50.5355 46.0137L50.3469 46.2023L50.1582 46.391L50.1336 51.2637L50.1172 56.1445H48.7227H47.3363L47.1723 56.3578C47.0082 56.5629 47 56.6859 47 58.0887C47 59.5816 47 59.598 47.2051 59.7949L47.402 60H50.9375H54.473L54.6699 59.7949C54.9324 59.5406 54.9324 59.2289 54.6699 58.9746L54.473 58.7695H51.3477H48.2305V58.0723V57.375H68H87.7695V58.0723V58.7695H72.3477H56.9176L56.7207 58.9746C56.4582 59.2289 56.4582 59.5406 56.7207 59.7949L56.9176 60H72.7578H88.598L88.7949 59.7949C89 59.598 89 59.5816 89 58.0887C89 56.6859 88.9918 56.5629 88.8277 56.3578L88.6637 56.1445H87.2691H85.8828V51.3539C85.8828 48.2285 85.85 46.4895 85.8008 46.3254C85.7188 46.0957 85.4316 45.8906 85.1937 45.8906C85.1363 45.8906 84.9887 45.9645 84.8656 46.0629L84.6523 46.227L84.6359 51.1652L84.6113 56.1035L81.9289 56.1281L79.2383 56.1445V45.5625V34.9805H81.9453H84.6523V39.4512C84.6523 43.8152 84.6523 43.9219 84.8164 44.0859C85.0215 44.291 85.3988 44.2992 85.6449 44.0941L85.8418 43.9383L85.8664 39.1887C85.8746 36.5801 85.8664 34.3652 85.8418 34.2586C85.8172 34.1602 85.727 34.0043 85.6367 33.9141C85.4809 33.7582 85.3496 33.75 81.9207 33.75H78.3605L78.1883 33.9387ZM75.3008 47.2031V56.1445H72.6348H69.9687V47.2031V38.2617H72.6348H75.3008V47.2031ZM66.0312 49.7051V56.1445H63.3652H60.6992V49.7051V43.2656H63.3652H66.0312V49.7051ZM56.7617 51.6738V56.1445L54.0793 56.1281L51.3887 56.1035L51.3641 51.7559C51.3559 49.3605 51.3641 47.359 51.3887 47.3016C51.4133 47.2277 52.0367 47.2031 54.0957 47.2031H56.7617V51.6738Z" fill="black"/>
</g>
<defs>
<clipPath id="clip0_2142_430">
<rect width="42" height="42" fill="white" transform="translate(47 18)"/>
</clipPath>
</defs>
</svg>
