<svg width="63" height="47" viewBox="0 0 63 47" fill="none" xmlns="http://www.w3.org/2000/svg">
<circle cx="23.5" cy="23.5" r="23.5" fill="#EFEDFB"/>
<path d="M52.7649 5.08185C52.7035 5.1296 52.4033 5.79821 52.0963 6.56915C51.7893 7.34009 51.53 7.97459 51.5232 7.98823C51.5095 7.99505 51.3253 7.89954 51.107 7.76991C49.8312 6.99897 48.2484 7.49701 47.6071 8.87516C47.457 9.19581 47.4229 9.35955 47.4229 9.84395C47.4229 10.3693 47.4433 10.4716 47.648 10.881C47.9959 11.5905 48.6373 12.0817 49.3877 12.225C49.5719 12.2591 49.7289 12.3001 49.7561 12.3205C49.7766 12.341 49.5446 12.9891 49.2376 13.7532C48.9306 14.5174 48.685 15.1928 48.685 15.2474C48.685 15.3088 48.7396 15.4179 48.8078 15.493C48.9579 15.6704 52.4579 17.0758 52.7512 17.0758C53.0787 17.0758 53.222 16.878 53.1538 16.5164C52.9695 15.5544 53.1947 14.954 53.8701 14.5992C54.8184 14.1012 55.9237 14.6811 56.0328 15.7249C56.0943 16.3594 55.8214 16.878 55.221 17.2532C55.0777 17.3419 54.9481 17.492 54.9208 17.5875C54.8321 17.9491 54.9822 18.0446 57.0085 18.8428C58.1205 19.2863 58.9802 19.5865 59.0552 19.566C59.1166 19.5455 59.219 19.4773 59.2804 19.4091C59.4577 19.2112 62.9577 10.3147 62.9918 9.97358C63.0532 9.42778 62.7735 8.88198 62.3232 8.64319C61.8524 8.4044 53.1879 4.99998 53.0378 4.99998C52.9491 4.99998 52.8195 5.04091 52.7649 5.08185ZM57.6088 7.76991C59.9217 8.69095 61.8729 9.48918 61.9343 9.55058C62.0025 9.61199 62.0571 9.73479 62.0571 9.83031C62.0571 10.0759 58.7209 18.4403 58.6254 18.4403C58.5572 18.4403 56.4763 17.6352 56.4081 17.5875C56.3944 17.5738 56.4831 17.4169 56.5991 17.2395C57.1517 16.3663 57.1244 15.3156 56.5309 14.456C56.2648 14.0603 55.644 13.6441 55.1596 13.5281C54.7025 13.4189 53.9861 13.4735 53.5767 13.6577C52.8945 13.9579 52.3078 14.7016 52.1645 15.452C52.1236 15.6431 52.0826 15.8136 52.069 15.8273C52.0553 15.8409 51.5368 15.6499 50.916 15.4043L49.7834 14.9472L49.9131 14.6333C51.1275 11.5632 51.0865 11.686 51.0047 11.4745C50.8955 11.2221 50.684 11.1675 50.2064 11.2767C49.7084 11.3858 49.2717 11.2767 48.8897 10.9492C48.3439 10.4853 48.2074 9.83713 48.5076 9.18899C49.0057 8.12468 50.4657 8.05646 51.1138 9.06619C51.3935 9.496 51.605 9.59152 51.8711 9.38684C52.0076 9.29133 52.2054 8.86833 52.6694 7.6744C53.0105 6.80794 53.3107 6.09158 53.3448 6.09158C53.3721 6.09158 55.2892 6.84887 57.6088 7.76991Z" fill="black"/>
<path d="M31.0827 10.0691C30.7279 10.1851 30.1753 10.765 30.073 11.1402C30.0048 11.379 29.9911 14.2513 30.0048 24.0416L30.0252 36.6359L30.2299 36.9702C30.3595 37.1749 30.5642 37.3796 30.7689 37.5092L31.1032 37.7139H43.8749H56.6466L56.9809 37.5092C57.1856 37.3796 57.3903 37.1749 57.5199 36.9702L57.7246 36.6359L57.745 30.1409C57.7587 23.7687 57.7587 23.6459 57.6291 23.5299C57.5063 23.4139 57.3152 23.4071 55.4118 23.4139C54.2587 23.4207 53.3241 23.4139 53.3241 23.4003C53.3241 23.3798 53.3718 23.2433 53.4196 23.0864C54.1223 21.1079 52.4371 18.952 50.3495 19.143C48.3232 19.334 47.0815 21.3808 47.832 23.3047C47.8797 23.4139 47.7774 23.4207 46.1195 23.4071L44.3525 23.3866L44.3388 21.067C44.3184 18.7951 44.3184 18.7473 44.1751 18.6245C43.9568 18.4471 43.7999 18.4812 43.3496 18.7814C42.8447 19.1157 42.4968 19.2181 41.9646 19.1703C41.2414 19.1157 40.6342 18.6996 40.2863 18.031C40.0679 17.608 40.0611 16.7756 40.2726 16.3185C40.8321 15.0905 42.3467 14.763 43.4655 15.6158C43.7453 15.8273 43.9909 15.8478 44.1819 15.6772C44.3115 15.5612 44.3184 15.452 44.3184 12.9004C44.3184 10.342 44.3115 10.2465 44.1819 10.1169C44.0455 9.9804 43.9568 9.9804 37.6869 9.98722C33.2523 9.99405 31.2465 10.0145 31.0827 10.0691ZM43.4314 12.6753C43.4314 13.6304 43.4041 14.415 43.37 14.415C43.3359 14.415 43.1926 14.3741 43.0494 14.3195C41.7053 13.8556 40.0679 14.5583 39.4471 15.8682C38.3896 18.1128 40.4227 20.644 42.8174 20.0504C43.0221 20.0027 43.2472 19.9344 43.3155 19.9071C43.4246 19.8594 43.4314 19.9549 43.4178 21.6196L43.3973 23.3866L41.0913 23.3934C38.99 23.4071 38.7717 23.4139 38.6489 23.5231C38.4647 23.6936 38.4851 24.0075 38.6898 24.2531C39.1606 24.8125 39.3243 25.6108 39.106 26.2725C38.8604 27.0025 38.1167 27.5688 37.3185 27.637C36.3156 27.7121 35.4628 27.0912 35.2035 26.0815C35.0398 25.4402 35.2035 24.7716 35.6538 24.2667C35.7629 24.1371 35.8585 23.9529 35.8585 23.8642C35.8585 23.6868 35.647 23.4207 35.5037 23.4139C35.4559 23.4139 34.4121 23.4139 33.184 23.4207L30.9463 23.4276V17.4169C30.9463 13.4394 30.9667 11.3585 31.0145 11.2767C31.1987 10.9356 31.0281 10.9424 37.4481 10.9356H43.4314V12.6753ZM51.4615 20.2892C52.6418 20.8623 52.9898 22.3428 52.1915 23.3934C51.9118 23.7619 51.8777 23.987 52.0824 24.1848C52.212 24.3213 52.2939 24.3213 54.5112 24.3145L56.8035 24.3008V30.3319C56.8035 36.3084 56.8035 36.3698 56.6671 36.5404C56.5852 36.6427 56.4078 36.7519 56.2714 36.7928C56.1076 36.8338 53.979 36.8611 50.2062 36.8611H44.3866V35.0872C44.3866 34.1116 44.4002 33.3134 44.4139 33.3134C44.4275 33.3134 44.564 33.3543 44.7141 33.4089C45.1848 33.5794 45.6829 33.6067 46.215 33.4907C48.1253 33.0882 49.1487 31.0619 48.3163 29.3154C47.6682 27.944 46.0717 27.255 44.6731 27.7462L44.3866 27.8485V26.0815V24.3077H46.6858C48.7257 24.3077 48.9918 24.294 49.1078 24.1917C49.2988 24.0211 49.2579 23.7346 48.9918 23.3866C48.4323 22.6498 48.4187 21.6537 48.9508 20.9237C49.5239 20.1528 50.6087 19.873 51.4615 20.2892ZM34.4257 24.3486C34.4257 24.3691 34.378 24.5601 34.3166 24.7648C34.2347 25.0377 34.2142 25.331 34.2347 25.7745C34.2552 26.3339 34.2893 26.4636 34.5144 26.9207C35.6265 29.1653 38.7853 29.1312 39.8633 26.8661C40.2249 26.102 40.2453 25.1878 39.9178 24.4236C39.8701 24.3145 39.9656 24.3077 41.6303 24.3213L43.3973 24.3418L43.4178 26.6546C43.4314 28.6945 43.4451 28.9879 43.5474 29.097C43.718 29.2881 44.0045 29.2471 44.3457 28.9879C45.676 27.9782 47.5318 28.7969 47.6409 30.4479C47.7364 31.826 46.4265 32.9176 45.1234 32.5356C44.9187 32.481 44.6458 32.3514 44.5162 32.2627C44.3866 32.1672 44.216 32.0375 44.1342 31.9761C43.9431 31.8397 43.5952 31.9011 43.4997 32.0921C43.4519 32.174 43.4178 33.1087 43.411 34.5278L43.3973 36.8269L37.6664 36.8474C34.5144 36.8611 31.7991 36.8474 31.6353 36.8269C31.4307 36.7928 31.2669 36.7178 31.1373 36.5882L30.9463 36.3971V30.3524V24.3077H32.686C33.6411 24.3077 34.4257 24.3281 34.4257 24.3486Z" fill="black"/>
</svg>
