<svg width="99" height="76" viewBox="0 0 99 76" fill="none" xmlns="http://www.w3.org/2000/svg">
<circle cx="38" cy="38" r="38" fill="#EFEDFB"/>
<path d="M68.7281 11.235C68.5892 11.3739 67.9694 12.5706 67.3603 13.9063L66.249 16.3319L64.1654 17.1975C63.022 17.6676 62.0176 18.0523 61.9321 18.0523C61.8466 18.0523 60.6819 17.6463 59.3355 17.144C57.9891 16.6418 56.7603 16.2358 56.6 16.2358C56.1833 16.2358 51.2359 21.1725 51.2359 21.5892C51.2359 21.7388 51.6419 22.9676 52.1442 24.3247C52.6464 25.6818 53.0524 26.8572 53.0524 26.932C53.0524 27.0175 52.6678 28.0219 52.1976 29.1652L51.3321 31.2489L48.9065 32.3602C47.5708 32.9693 46.374 33.589 46.2351 33.728C46 33.9844 46 34.0058 46 37.4999C46 40.9941 46 41.0155 46.2458 41.2719C46.374 41.4108 47.5708 42.0306 48.9065 42.6397L51.3321 43.751L52.1976 45.8346C52.6678 46.978 53.0524 47.9824 53.0524 48.0679C53.0524 48.1427 52.6464 49.3181 52.1442 50.6752C51.6419 52.0322 51.2359 53.2611 51.2359 53.4107C51.2359 53.8274 56.1833 58.7641 56.6 58.7641C56.7603 58.7641 57.9891 58.3581 59.3355 57.8558C60.6819 57.3536 61.8466 56.9476 61.9321 56.9476C62.0176 56.9476 63.022 57.3322 64.1654 57.8024L66.249 58.6679L67.3603 61.0935C67.9694 62.4292 68.5892 63.626 68.7281 63.7542C68.9845 64 69.0059 64 72.5107 64H76.037L76.2934 63.7329L76.5606 63.4764V57.2681C76.5606 51.2094 76.5606 51.0705 76.3468 50.8568C76.0904 50.6004 75.8339 50.6004 74.6906 50.8034C74.2204 50.8889 73.248 50.953 72.5428 50.9637C70.363 50.9637 68.4823 50.5363 66.5696 49.5959C62.648 47.6619 59.9446 44.0288 59.1966 39.7012C58.3418 34.711 60.543 29.4538 64.721 26.4832C66.3025 25.3612 68.3113 24.5384 70.2988 24.1965C71.4849 23.9935 73.5686 23.9935 74.6906 24.1965C75.8339 24.3995 76.0904 24.3995 76.3468 24.1431C76.5606 23.9293 76.5606 23.7904 76.5606 17.7424C76.5606 11.6517 76.5606 11.5555 76.3362 11.2777L76.1224 10.9999H72.5535C69.0059 10.9999 68.9845 10.9999 68.7281 11.235ZM75.0646 17.6249V22.7433L74.7226 22.6685C74.5303 22.6257 73.5045 22.5937 72.4466 22.5937C70.9934 22.5937 70.2988 22.6364 69.615 22.786C63.5777 24.0789 59.1218 28.5027 57.8075 34.508C57.5724 35.5872 57.4762 38.3014 57.6365 39.434C58.4486 45.1828 62.3595 49.9058 67.7771 51.7117C69.4867 52.278 70.3416 52.4062 72.4466 52.4062C73.5045 52.4062 74.5303 52.3742 74.7226 52.3314L75.0646 52.2566V57.375V62.504H72.3611H69.6577L68.5571 60.0998C67.948 58.7855 67.371 57.6314 67.2748 57.5566C67.0718 57.3643 62.2206 55.3447 61.9855 55.3447C61.9 55.3447 60.7139 55.7508 59.3462 56.253L56.8565 57.172L54.8476 55.1524L52.828 53.1435L53.747 50.6538C54.2492 49.2861 54.6553 48.1 54.6553 48.0145C54.6553 47.7901 52.625 42.9282 52.4434 42.7252C52.3579 42.629 51.2145 42.052 49.8895 41.4429L47.496 40.3423V37.4999V34.6576L49.8895 33.557C51.2145 32.9479 52.3579 32.3709 52.4434 32.2747C52.625 32.0717 54.6553 27.2098 54.6553 26.9854C54.6553 26.8999 54.2492 25.7138 53.747 24.3461L52.828 21.8564L54.8476 19.8475L56.8565 17.8279L59.3462 18.7469C60.7139 19.2491 61.9 19.6551 61.9855 19.6551C62.2206 19.6551 67.0718 17.6356 67.2748 17.4432C67.371 17.3684 67.948 16.2144 68.5571 14.9001L69.6577 12.4958H72.3611H75.0646V17.6249Z" fill="black"/>
<path d="M90.5586 25.1373C89.5648 25.4151 88.6993 26.1844 88.3574 27.1034L88.1757 27.5629H84.9914C82.0743 27.5629 81.7751 27.5842 81.6148 27.7552C81.508 27.8621 81.0592 28.5246 80.6211 29.2512L79.8197 30.5548L71.3033 30.5762C62.0283 30.6082 62.5519 30.5762 62.4023 31.1959C62.3595 31.3883 62.4023 31.5592 62.5626 31.7623L62.787 32.0508H71.6559C80.0013 32.0508 80.5249 32.0401 80.7066 31.8584C80.8027 31.7516 81.2515 31.0784 81.6896 30.3625L82.491 29.0588H85.3441H88.1971L88.4535 29.6252C89.5862 32.1149 93.0804 32.1256 94.2985 29.6465C94.6832 28.8772 94.6725 27.627 94.2771 26.8683C93.5505 25.4792 91.9584 24.7419 90.5586 25.1373ZM92.3538 26.8469C92.7598 27.1248 93.1231 27.8086 93.1231 28.3002C93.1231 28.7703 92.7705 29.4221 92.3644 29.7107C91.8622 30.0633 91.0501 30.0953 90.5052 29.7855C89.9068 29.4435 89.5435 28.7062 89.6503 28.033C89.7358 27.456 90.2701 26.8042 90.7937 26.6225C91.2638 26.4623 91.9263 26.5584 92.3538 26.8469Z" fill="black"/>
<path d="M94.3225 34.6259C93.5958 34.9892 93.1364 35.4701 92.7837 36.2394L92.5487 36.7523H76.7768H60.9943L60.77 36.9981C60.4708 37.3187 60.4708 37.7247 60.7806 38.0132L61.0264 38.2483H76.7875H92.5487L92.7837 38.7505C93.5638 40.4816 95.4551 41.1975 97.1327 40.4068C98.3188 39.8405 98.9493 38.836 98.9493 37.5003C98.9493 36.1646 98.3188 35.1602 97.1327 34.5939C96.2031 34.1558 95.2307 34.1665 94.3225 34.6259ZM96.6519 36.0257C97.261 36.4425 97.4533 36.7951 97.4533 37.5003C97.4533 38.2056 97.261 38.5582 96.6519 38.9642C96.1604 39.3062 95.3269 39.3062 94.8247 38.9642C94.4293 38.7078 93.9805 37.9278 93.9805 37.5003C93.9805 37.0729 94.4293 36.2929 94.8247 36.0364C95.3269 35.6945 96.1604 35.6945 96.6519 36.0257Z" fill="black"/>
<path d="M62.5626 43.2378C62.4023 43.4408 62.3595 43.6118 62.4023 43.8042C62.5519 44.4239 62.0283 44.3919 71.3033 44.4239L79.8197 44.4453L80.6211 45.7489C81.0592 46.4755 81.508 47.138 81.6148 47.2449C81.7751 47.4159 82.0743 47.4372 84.9914 47.4372H88.1757L88.3574 47.9074C88.4535 48.1638 88.7314 48.6019 88.9665 48.8691C90.4731 50.5681 93.2086 50.1941 94.2772 48.1425C94.6511 47.4052 94.6832 46.1443 94.3306 45.3963C94.0421 44.7552 93.3475 44.0606 92.7064 43.7721C91.9905 43.4408 90.6975 43.4408 90.0136 43.7828C89.3298 44.114 88.7634 44.7017 88.4535 45.3749L88.1971 45.9413H85.3441H82.491L81.6896 44.6376C81.2515 43.9217 80.8027 43.2485 80.7066 43.1417C80.5249 42.96 80.0013 42.9493 71.6559 42.9493H62.787L62.5626 43.2378ZM92.3644 45.2894C92.7598 45.578 93.1231 46.2298 93.1231 46.6786C93.1231 47.4265 92.514 48.2173 91.7981 48.4096C90.8471 48.6661 89.7999 47.9608 89.6503 46.9671C89.5435 46.2939 89.9068 45.5566 90.5052 45.2146C91.0501 44.9048 91.8622 44.9368 92.3644 45.2894Z" fill="black"/>
</svg>
