<svg width="101" height="76" viewBox="0 0 101 76" fill="none" xmlns="http://www.w3.org/2000/svg">
<circle cx="38" cy="38" r="38" fill="#EFEDFB"/>
<path d="M56.4453 13.0199V14.0396H57.3039H58.1625V13.0199V12.0003H57.3039H56.4453V13.0199Z" fill="black"/>
<path d="M50.0044 14.952L49.4141 15.5423L50.1439 16.2721L50.863 16.9912L51.4533 16.4009L52.0436 15.8106L51.3137 15.0808L50.5839 14.3617L50.0044 14.952Z" fill="black"/>
<path d="M63.263 15.113L62.5117 15.8643L63.102 16.4546L63.6923 17.0449L64.4436 16.2936L65.1949 15.5423L64.6046 14.952L64.0143 14.3618L63.263 15.113Z" fill="black"/>
<path d="M55.6719 15.3814C51.0676 16.5405 48.8459 21.8317 51.2715 25.835C51.7008 26.5434 52.7419 27.6596 53.2893 28.003L53.6327 28.2069L53.6756 30.0637C53.74 32.2639 53.901 32.8327 54.706 33.6591C55.5002 34.4641 56.0798 34.7002 57.3033 34.7002C58.5268 34.7002 59.1064 34.4641 59.9006 33.6591C60.7055 32.8327 60.8665 32.2639 60.9309 30.0637L60.9739 28.2069L61.3388 27.9923C61.532 27.8635 62.0257 27.4127 62.4335 26.9727C63.7 25.6096 64.2795 24.1285 64.2795 22.1966C64.2795 20.9409 64.0971 20.1574 63.5068 18.9875C62.7126 17.4098 61.1563 16.079 59.4498 15.5209C58.5375 15.2311 56.5627 15.156 55.6719 15.3814ZM58.7093 17.1093C60.5338 17.6567 61.9398 19.0734 62.412 20.8443C62.6374 21.6707 62.6052 23.0123 62.3476 23.8495C62.0364 24.8369 61.3602 25.7921 60.5124 26.4038C59.203 27.3698 59.2459 27.3161 59.2137 27.8098L59.1815 28.2606H57.3033H55.4251L55.3929 27.8313C55.3499 27.3054 55.2963 27.241 54.384 26.6399C51.8296 24.9442 51.2393 21.5741 53.0639 19.0949C53.7937 18.1075 54.9528 17.324 56.1227 17.0449C56.7666 16.8947 58.0868 16.9269 58.7093 17.1093ZM59.2352 30.6432C59.2352 32.1887 58.5268 33.0366 57.2496 33.0366C56.069 33.0366 55.3714 32.1458 55.3714 30.6432V30.0315H57.3033H59.2352V30.6432Z" fill="black"/>
<path d="M71.376 17.0445C69.8305 17.2163 69.2188 17.3773 69.2188 17.5919C69.2188 17.8817 69.4441 18.912 69.53 18.9872C69.5622 19.0301 69.9808 18.9979 70.453 18.912C70.9252 18.8369 71.9878 18.7403 72.8142 18.6974C80.5954 18.3325 88.0117 22.7865 91.3817 29.8486C92.6697 32.5533 93.3673 35.5262 93.3673 38.3489V39.2612H92.3477C91.4032 39.2612 91.2959 39.2827 91.0598 39.5295C90.8988 39.6798 90.7914 39.9052 90.7914 40.0876C90.8022 40.2808 91.3173 41.2575 92.2189 42.7493C94.2688 46.1409 94.183 46.1409 96.2329 42.7493C97.1345 41.2575 97.6496 40.2808 97.6604 40.0876C97.6604 39.9052 97.553 39.6798 97.392 39.5295C97.1559 39.2827 97.0486 39.2612 96.1256 39.2612H95.1167L95.0523 37.6728C94.8269 32.2635 92.7985 27.4552 89.1386 23.6129C85.8437 20.1678 81.7331 18.0105 76.9463 17.2055C75.7657 17.0016 72.5351 16.9158 71.376 17.0445ZM94.784 41.837C94.505 42.3093 94.2581 42.6957 94.2259 42.6957C94.1937 42.6957 93.9469 42.3093 93.6678 41.837L93.1634 40.9784H94.2259H95.2884L94.784 41.837Z" fill="black"/>
<path d="M47 22.304V23.1626H48.0196H49.0392V22.304V21.4454H48.0196H47V22.304Z" fill="black"/>
<path d="M65.5703 22.304V23.1626H66.5899H67.6095V22.304V21.4454H66.5899H65.5703V22.304Z" fill="black"/>
<path d="M50.1127 28.2605L49.4258 28.9581L50.0053 29.5484L50.5849 30.1387L51.3147 29.4196L52.0446 28.7005L51.4865 28.1317C51.1752 27.8204 50.8962 27.5628 50.864 27.5628C50.8318 27.5628 50.4883 27.8741 50.1127 28.2605Z" fill="black"/>
<path d="M63.1167 28.1317L62.5586 28.7005L63.2884 29.4196L64.0182 30.1387L64.5978 29.5484L65.1774 28.9581L64.4905 28.2605C64.1148 27.8741 63.7714 27.5628 63.7392 27.5628C63.707 27.5628 63.4279 27.8204 63.1167 28.1317Z" fill="black"/>
<path d="M66.75 33.2512V34.1099H67.6086H68.4672V33.2512V32.3926H67.6086H66.75V33.2512Z" fill="black"/>
<path d="M70.1836 33.2512V34.1099H75.3353H80.487V33.2512V32.3926H75.3353H70.1836V33.2512Z" fill="black"/>
<path d="M52.2171 36.8362C52.1205 37.2011 52.142 39.2725 52.26 40.4531C53.022 48.0196 57.6156 54.5343 64.4738 57.7971C67.2106 59.1065 70.5807 59.8685 73.5751 59.8685H74.4767V60.8881C74.4767 61.8326 74.4981 61.9399 74.745 62.176C74.8952 62.337 75.1206 62.4443 75.3031 62.4443C75.4963 62.4336 76.4729 61.9184 77.9648 61.0169C81.3563 58.9669 81.3563 59.0528 77.9648 57.0029C76.4729 56.1013 75.4963 55.5862 75.3031 55.5754C75.1206 55.5754 74.8952 55.6827 74.745 55.8437C74.4981 56.0799 74.4767 56.1872 74.4767 57.1317V58.1513H73.5644C68.8742 58.1513 64.1411 56.3374 60.5242 53.1498C56.2418 49.3827 53.7089 43.5655 53.8914 37.9416C53.9236 36.6215 54.0094 36.7288 52.8825 36.6537C52.3459 36.6215 52.2707 36.643 52.2171 36.8362ZM77.9111 59.0099C77.9111 59.0421 77.5248 59.2889 77.0525 59.568L76.1939 60.0724V59.0099V57.9473L77.0525 58.4518C77.5248 58.7308 77.9111 58.9777 77.9111 59.0099Z" fill="black"/>
<path d="M66.75 39.2615V40.1201H67.6086H68.4672V39.2615V38.4029H67.6086H66.75V39.2615Z" fill="black"/>
<path d="M70.1836 39.2615V40.1201H75.3353H80.487V39.2615V38.4029H75.3353H70.1836V39.2615Z" fill="black"/>
<path d="M66.75 45.2718V46.1304H67.6086H68.4672V45.2718V44.4131H67.6086H66.75V45.2718Z" fill="black"/>
<path d="M70.1836 45.2718V46.1304H75.3353H80.487V45.2718V44.4131H75.3353H70.1836V45.2718Z" fill="black"/>
<path d="M90.0934 47.9977C87.7537 48.4592 85.7467 49.8008 84.4588 51.7863C83.5036 53.246 83.1172 54.5661 83.1172 56.4336C83.1172 58.3011 83.5036 59.6212 84.448 61.0701C87.0561 65.0519 92.358 66.2003 96.2969 63.6245C100.88 60.6408 101.556 54.2334 97.7029 50.3804C96.5974 49.2642 95.3202 48.5451 93.6889 48.105C92.8517 47.8689 91.0057 47.826 90.0934 47.9977ZM93.0879 49.7257C97.0267 50.5628 99.4631 54.813 98.1644 58.5694C97.778 59.6641 97.2951 60.4369 96.4794 61.2633C93.7533 63.9787 89.5353 63.9787 86.8092 61.2526C84.1153 58.5801 84.1153 54.2978 86.8092 51.5932C88.4835 49.9296 90.7911 49.2427 93.0879 49.7257Z" fill="black"/>
<path d="M90.7887 51.7006C90.7887 52.1192 90.778 52.1192 90.2521 52.248C89.5545 52.4197 88.9427 52.8705 88.5671 53.5037C88.1377 54.2336 88.1377 55.1995 88.5671 55.9186C89.1681 56.9489 89.9408 57.2924 91.6688 57.2924C92.7635 57.2924 92.8494 57.3031 93.0962 57.5607C93.268 57.7217 93.3646 57.9471 93.3646 58.151C93.3646 58.3549 93.268 58.5803 93.0962 58.7413C92.8601 58.9881 92.7635 59.0096 91.7225 59.0096C90.7565 59.0096 90.5633 58.9774 90.3272 58.795C90.177 58.6769 90.016 58.4837 89.9838 58.3656C89.9194 58.1725 89.8228 58.151 89.05 58.151H88.1914L88.2665 58.5481C88.4383 59.5355 89.2539 60.3834 90.2521 60.6195C90.778 60.7483 90.7887 60.7483 90.7887 61.1669V61.5854H91.6473H92.5059V61.1669C92.5059 60.7483 92.5167 60.7483 93.0426 60.6195C93.7402 60.4478 94.352 59.997 94.7276 59.3638C95.1569 58.634 95.1569 57.668 94.7276 56.9489C94.1158 55.9079 93.4075 55.5859 91.6688 55.5751C90.5311 55.5751 90.4453 55.5644 90.1984 55.3068C89.8442 54.9634 89.8442 54.4697 90.1984 54.1262C90.4345 53.8794 90.5311 53.8579 91.5722 53.8579C92.5381 53.8579 92.7313 53.8901 92.9675 54.0726C93.1177 54.1906 93.2787 54.3838 93.3109 54.5019C93.3753 54.6951 93.4719 54.7165 94.2446 54.7165H95.1033L95.0281 54.3087C94.8564 53.332 94.0407 52.4841 93.0426 52.248C92.5167 52.1192 92.5059 52.1192 92.5059 51.7006V51.2821H91.6473H90.7887V51.7006Z" fill="black"/>
</svg>
