<svg width="106" height="77" viewBox="0 0 106 77" fill="none" xmlns="http://www.w3.org/2000/svg">
<circle cx="38" cy="38" r="38" fill="#EFEDFB"/>
<g clip-path="url(#clip0_2142_431)">
<path d="M68.6749 19.0617C65.4376 19.3026 62.007 20.4713 59.265 22.2543C54.6264 25.2782 51.4737 29.8804 50.2778 35.4102C50.0362 36.5426 50 37.0246 50 39.41C50.0121 41.7472 50.0483 42.2894 50.2778 43.3495C51.4616 48.7709 54.5057 53.3008 58.9871 56.3007C61.9828 58.2884 65.0511 59.3487 68.7956 59.6739C70.68 59.8305 70.9821 59.7582 71.1271 59.0354C71.1633 58.8306 71.1996 54.4935 71.1996 49.3974V40.1328H80.7906H90.3938L90.575 39.8678C91.0944 39.1329 90.4905 34.8921 89.4999 32.2898C86.1901 23.6518 77.8674 18.3629 68.6749 19.0617ZM69.5084 29.6515V38.5666H65.3892H61.2702L61.3427 37.386C61.6688 32.7718 62.5264 29.1214 64.0122 26.0975C65.2081 23.6639 66.6938 21.917 68.228 21.158C69.6654 20.4351 69.5084 19.4231 69.5084 29.6515ZM72.4074 21.1098C76.14 22.9771 78.9424 29.7238 79.329 37.7474L79.3652 38.5666H75.2824H71.1996V29.6515C71.1996 19.4593 71.0546 20.4472 72.4074 21.1098ZM64.9544 21.7242C62.1641 24.6999 60.1347 30.6996 59.7723 37.0848L59.6878 38.5666H55.5807H51.4737L51.5583 37.8077C51.824 35.338 52.5005 32.9766 53.4789 31.0129C55.2546 27.495 58.3348 24.3988 61.8258 22.6278C62.9613 22.0615 64.7491 21.3507 65.0873 21.3387C65.2926 21.3387 65.2806 21.3869 64.9544 21.7242ZM76.7199 21.7122C82.0832 23.6036 86.4318 28.0612 88.2195 33.5067C88.6543 34.856 88.9201 36.0487 89.0167 37.1932C89.0651 37.6511 89.1134 38.1449 89.1496 38.2895L89.198 38.5666H85.0909H80.9839V38.2775C80.9839 38.1329 80.9235 37.3017 80.8631 36.4463C80.3678 30.3141 78.6767 25.3144 75.9951 22.0254C75.681 21.6519 75.4757 21.3387 75.536 21.3387C75.5964 21.3387 76.128 21.5073 76.7199 21.7122ZM59.724 40.8557C59.724 42.1086 60.0743 45.0603 60.4488 46.9036C61.2823 51.0238 62.768 54.373 64.9907 57.0837L65.3047 57.4692L64.9544 57.3728C61.5601 56.3608 58.2624 54.2044 56.0035 51.5177C53.4547 48.4817 51.9327 44.8916 51.5703 41.0003L51.4858 40.1328H55.6049H59.724V40.8557ZM69.5084 49.1203V58.0956L69.2427 58.0234C65.2564 56.8789 62.0675 50.4576 61.4152 42.2532C61.3548 41.3978 61.2943 40.5665 61.2943 40.422V40.1328H65.4014H69.5084V49.1203Z" fill="#161519"/>
<path d="M84.4123 45.2891C80.414 47.1204 77.068 48.6986 76.9593 48.795C76.7781 48.9396 76.7539 49.313 76.7539 51.9033C76.7539 53.5176 76.8023 54.9392 76.8627 55.0476C76.9231 55.1681 77.2975 55.409 77.6961 55.6018L78.4209 55.9512L78.4692 57.5295C78.5176 59.3486 78.6625 59.7462 79.5564 60.5775C80.2087 61.1678 80.8126 61.3847 81.7669 61.3726C83.0353 61.3606 84.219 60.5533 84.6902 59.3968C84.7868 59.1318 84.9438 58.939 85.0163 58.9752C85.0888 58.9992 86.5866 59.6859 88.3261 60.4932C90.0776 61.3124 91.648 61.9629 91.817 61.9629C92.4693 61.9629 92.5177 61.7943 92.5781 59.0233L92.6384 56.4693L93.2425 56.3367C96.5401 55.5778 97.8326 51.5418 95.5979 48.9998C94.9698 48.289 94.0759 47.8071 92.9163 47.5541L92.5781 47.4818V44.9639V42.4339L92.264 42.1929C92.0828 42.0483 91.8775 41.9399 91.805 41.9399C91.7325 41.9399 88.4106 43.4459 84.4123 45.2891ZM91.0077 52.0116C91.0077 59.4812 90.9957 59.9028 90.8024 59.8426C90.6815 59.8064 87.8429 58.5053 84.4848 56.9632L78.3847 54.1441L78.3605 51.9876L78.3243 49.8311L84.521 46.9758C87.9154 45.4096 90.7782 44.1205 90.8628 44.1205C90.9714 44.1085 91.0077 45.759 91.0077 52.0116ZM93.4961 49.3973C94.0879 49.6745 94.7886 50.4576 94.9698 51.084C95.4772 52.7465 94.5591 54.361 92.8801 54.7826L92.5781 54.8549V52.0116C92.5781 48.8191 92.5298 48.9636 93.4961 49.3973ZM81.7307 57.4451C83.1561 58.0956 83.2648 58.1679 83.2768 58.4812C83.2768 58.686 83.1319 58.963 82.8783 59.2402C82.1051 60.0835 80.6919 59.8907 80.2087 58.8787C80.0154 58.4571 79.9308 56.7584 80.1121 56.7584C80.1603 56.7584 80.8851 57.0716 81.7307 57.4451Z" fill="#161519"/>
<path d="M99.538 46.5063C98.6441 46.8075 98.1367 47.1811 98.1367 47.5425C98.1367 47.8195 98.632 48.3255 98.9098 48.3255C99.2481 48.3255 101.241 47.6629 101.471 47.4702C101.7 47.2774 101.688 46.5786 101.447 46.3497C101.181 46.0847 100.637 46.1209 99.538 46.5063Z" fill="#161519"/>
<path d="M73.6894 49.0721C73.5324 49.301 73.4961 49.7949 73.4961 52.0237C73.4961 54.5537 73.5082 54.7224 73.7376 54.9512C74.0397 55.2525 74.6074 55.2645 74.8611 54.9754C75.0422 54.7826 75.0665 54.3851 75.0665 51.9755C75.0665 49.4455 75.0422 49.1926 74.849 49.0118C74.5228 48.7107 73.9068 48.7469 73.6894 49.0721Z" fill="#161519"/>
<path d="M98.8585 51.4577C98.5445 51.7709 98.5565 52.0721 98.8705 52.4697L99.1122 52.7829H101.323C103.811 52.7829 104.053 52.7106 104.053 52.0119C104.053 51.2649 103.884 51.2168 101.359 51.2168C99.2572 51.2168 99.088 51.2288 98.8585 51.4577Z" fill="#161519"/>
<path d="M98.3935 55.9878C98.0673 56.3974 98.0794 56.554 98.4177 56.9275C98.6955 57.2286 100.362 57.8431 100.93 57.8431C101.341 57.8431 101.643 57.4937 101.643 57.0358C101.643 56.554 101.51 56.4576 100.242 56.036C98.9371 55.5901 98.7076 55.5901 98.3935 55.9878Z" fill="#161519"/>
</g>
<defs>
<clipPath id="clip0_2142_431">
<rect width="56" height="58" fill="white" transform="translate(50 19)"/>
</clipPath>
</defs>
</svg>
