<svg width="39" height="39" viewBox="0 0 39 39" fill="none" xmlns="http://www.w3.org/2000/svg">
<path d="M15.2192 9.37859C15.5759 9.74251 15.7757 10.2318 15.7757 10.7414C15.7757 11.251 15.5759 11.7403 15.2192 12.1042L12.1042 15.2192C11.7403 15.5759 11.251 15.7757 10.7414 15.7757C10.2318 15.7757 9.74251 15.5759 9.37859 15.2192L2.03893 7.87951C1.05998 10.0428 0.763571 12.4531 1.18921 14.7892C1.61484 17.1253 2.7423 19.2761 4.42134 20.9552C6.10038 22.6342 8.25125 23.7617 10.5873 24.1873C12.9234 24.6129 15.3337 24.3165 17.497 23.3376L30.9498 36.7904C31.7243 37.5649 32.7748 38 33.8701 38C34.9654 38 36.0159 37.5649 36.7904 36.7904C37.5649 36.0159 38 34.9654 38 33.8701C38 32.7748 37.5649 31.7243 36.7904 30.9498L23.3376 17.497C24.3165 15.3337 24.6129 12.9234 24.1873 10.5873C23.7617 8.25125 22.6342 6.10038 20.9552 4.42134C19.2761 2.7423 17.1253 1.61484 14.7892 1.1892C12.4531 0.763569 10.0428 1.05998 7.87951 2.03893L15.1997 9.35912L15.2192 9.37859Z" stroke="white" stroke-width="2" stroke-linecap="round" stroke-linejoin="round"/>
</svg>
