<svg width="15" height="15" viewBox="0 0 15 15" fill="none" xmlns="http://www.w3.org/2000/svg">
<path d="M3.56811 0.0324717C3.07886 0.0910654 2.50171 0.281495 2.06226 0.530519C0.925537 1.18384 0.175537 2.32056 0.0319824 3.61255C-0.0119629 4.0022 -0.0119629 10.9983 0.0319824 11.3879C0.23999 13.2717 1.72827 14.76 3.61206 14.968C4.00171 15.012 10.9978 15.012 11.3875 14.968C13.2712 14.76 14.7595 13.2717 14.9675 11.3879C15.0115 10.9983 15.0115 4.0022 14.9675 3.61255C14.7595 1.72876 13.2712 0.240479 11.3875 0.0324717C11.0417 -0.00561428 3.90503 -0.00561428 3.56811 0.0324717ZM11.6921 0.972901C12.3015 1.13989 12.7703 1.4065 13.1804 1.81958C13.5935 2.22974 13.8601 2.69849 14.03 3.30786L14.1062 3.58911V7.50024V11.4114L14.03 11.6926C13.8601 12.302 13.5935 12.7708 13.1804 13.1809C12.7703 13.594 12.3015 13.8606 11.6921 14.0305L11.4109 14.1067H7.49976H3.58862L3.30737 14.0305C2.698 13.8606 2.22925 13.594 1.81909 13.1809C1.40601 12.7708 1.1394 12.302 0.969482 11.6926L0.89331 11.4114V7.50024V3.58911L0.969482 3.30786C1.1394 2.69849 1.40601 2.22974 1.81616 1.81958C2.30249 1.33325 2.94409 1.01099 3.61792 0.911378C3.7146 0.896729 5.50757 0.88794 7.60229 0.89087L11.4109 0.8938L11.6921 0.972901Z" fill="white"/>
<path d="M11.5575 1.9543C10.8427 2.05391 10.3563 2.74825 10.5292 3.42208C10.6493 3.89962 10.954 4.20138 11.4286 4.32442C12.2343 4.5295 13.0253 3.80001 12.8905 2.97677C12.8173 2.5168 12.4803 2.13009 12.0409 1.99825C11.912 1.96016 11.6747 1.93966 11.5575 1.9543ZM11.8856 2.88888C12.0438 2.98848 12.0702 3.23165 11.9384 3.36934C11.83 3.48067 11.6981 3.50704 11.5634 3.44259C11.3583 3.34591 11.3143 3.07638 11.4784 2.92403C11.5985 2.80977 11.7391 2.79805 11.8856 2.88888Z" fill="white"/>
<path d="M6.93412 3.44287C5.314 3.66553 3.94584 4.88428 3.53275 6.48096C3.16947 7.87842 3.5767 9.35498 4.61088 10.3892C6.2222 12.0005 8.77689 12.0005 10.3882 10.3892C11.9995 8.77783 11.9995 6.22314 10.3882 4.61182C9.46244 3.68896 8.22318 3.26709 6.93412 3.44287ZM7.9683 4.32178C8.67142 4.42725 9.26908 4.729 9.77005 5.22998C11.0328 6.48975 11.0328 8.51123 9.77005 9.771C8.51029 11.0337 6.4888 11.0337 5.22904 9.771C3.96634 8.51123 3.96634 6.48975 5.22904 5.22998C5.95853 4.50049 6.96048 4.1665 7.9683 4.32178Z" fill="white"/>
</svg>
