<svg width="41" height="49" viewBox="0 0 41 49" fill="none" xmlns="http://www.w3.org/2000/svg">
<path d="M21.0597 0.112598C21.1821 0.170033 21.8508 0.868835 22.5383 1.66336C23.6025 2.86951 23.8003 3.14712 23.8003 3.40558C23.8003 4.07566 23.0939 4.33413 22.5854 3.83635C22.4347 3.69276 21.9355 3.14712 21.4835 2.62063C21.0314 2.09413 20.6171 1.65379 20.5605 1.64422C20.504 1.63465 18.4321 3.96079 15.9647 6.81344L11.4629 12.0018L13.2052 12.0305L14.9381 12.0497L15.1265 12.3081C15.3242 12.5474 15.3242 12.6432 15.3242 18.358V24.159L18.4227 27.7296C20.4758 30.0941 21.5494 31.3959 21.5871 31.5778C21.6718 31.9799 21.4835 32.4872 21.1539 32.7744C20.8713 33.0137 20.8431 33.0137 19.1761 33.0137H17.4903V40.2889V47.5641H20.504H23.5177V33.1573V18.7505H21.9355C20.1273 18.7505 19.8448 18.6643 19.534 18.0517C19.2986 17.5826 19.3739 17.1423 19.7789 16.6637C19.9484 16.4722 21.5212 14.6534 23.2729 12.624C25.034 10.5946 26.522 8.87155 26.5974 8.7854C26.701 8.65138 26.5879 8.48865 25.7215 7.49309C25.1753 6.87087 24.6855 6.24865 24.6385 6.11464C24.4501 5.65515 24.9492 5.09036 25.439 5.21481C25.5897 5.2531 26.0605 5.71259 26.6727 6.41139L27.671 7.5601L28.1136 7.05275C28.3585 6.77515 28.82 6.2678 29.1402 5.92318C29.6958 5.32968 29.7429 5.30096 30.1761 5.30096C30.4775 5.30096 30.7035 5.3584 30.8636 5.48284C31.2968 5.82746 40.7994 16.836 40.9219 17.1423C41.1479 17.6975 40.8653 18.3867 40.3097 18.6165C40.0931 18.7122 39.5469 18.7505 38.445 18.7505H36.891L36.8722 33.6934L36.8439 48.6362L36.6179 48.8181C36.4013 49 36.0152 49 20.504 49C4.9929 49 4.60677 49 4.39016 48.8181L4.16413 48.6362V45.3145V41.9928L4.39016 41.811C4.69153 41.5621 5.07766 41.5812 5.32253 41.8492C5.52972 42.0694 5.52972 42.1269 5.52972 44.8168V47.5641H10.8037H16.0777V39.8199C16.0777 32.3436 16.0871 32.066 16.2566 31.8554C16.4355 31.6353 16.4921 31.6257 18.1402 31.5778L19.8542 31.53L15.3525 26.3607C12.885 23.5177 10.8319 21.1915 10.8037 21.1915C10.7754 21.1915 8.72235 23.5177 6.25489 26.3607L1.75318 31.53L3.46722 31.5778C5.11533 31.6257 5.17184 31.6353 5.35078 31.8554C5.5203 32.066 5.52972 32.2766 5.52972 35.7036C5.52972 39.2072 5.5203 39.3412 5.34136 39.5231C5.10592 39.7624 4.6727 39.772 4.39016 39.5327L4.16413 39.3508L4.13588 36.1823L4.10763 33.0137H2.41243H0.707802L0.397015 32.6978C0.0108833 32.3053 -0.102131 31.8076 0.0956421 31.3959C0.274582 31.0418 10.0785 19.7556 10.2857 19.6695C10.5212 19.5833 11.171 19.6025 11.3593 19.7078C11.5006 19.7843 12.0939 20.4353 13.6573 22.2445L13.9022 22.5317L13.9116 18.0038V13.4856H12.3576C11.2087 13.4856 10.7095 13.4473 10.4741 13.3515C9.85249 13.0835 9.56996 12.2028 9.93725 11.6572C10.3328 11.0541 19.8542 0.208324 20.0708 0.103027C20.3816 -0.0405617 20.7583 -0.0309906 21.0597 0.112598ZM25.6744 12.0209C23.2258 14.8449 21.1915 17.1902 21.1821 17.238C21.1633 17.2763 21.8979 17.3146 22.8208 17.3146C24.4124 17.3146 24.5066 17.3242 24.7138 17.5252L24.9304 17.7262V32.65V47.5641H30.2044H35.4784V32.6595V17.7549L35.6855 17.5348C35.8833 17.3242 35.9304 17.3146 37.5785 17.3146C38.5015 17.3146 39.2455 17.2763 39.2266 17.238C39.1796 17.104 30.2609 6.88044 30.2044 6.88044C30.1761 6.88044 28.1325 9.19702 25.6744 12.0209Z" fill="white"/>
</svg>
