<svg width="15" height="15" viewBox="0 0 15 15" fill="none" xmlns="http://www.w3.org/2000/svg">
<g clip-path="url(#clip0_287_87)">
<path d="M1.40673 0.046875C0.917473 0.152344 0.416497 0.544922 0.19384 0.996094C-0.146003 1.69043 -0.017097 2.50488 0.516106 3.06152C1.21923 3.79395 2.38818 3.79395 3.08837 3.06152C3.6245 2.50195 3.75048 1.69336 3.40771 0.999023C3.25243 0.682617 2.90966 0.339844 2.60204 0.193359C2.21532 0.00878906 1.81103 -0.0410156 1.40673 0.046875Z" fill="white"/>
<path d="M10.5938 4.79004C9.68848 4.96289 8.91797 5.45508 8.44336 6.16699L8.30566 6.37207L8.29688 5.67481L8.29102 4.98047H6.79688H5.30273V9.99023V15H6.85547H8.4082V12.3691C8.4082 10.7344 8.41992 9.61523 8.44043 9.40723C8.54004 8.33789 8.93848 7.74316 9.68848 7.54395C9.95508 7.4707 10.4062 7.45606 10.6582 7.51172C11.1416 7.61426 11.4111 7.82227 11.6162 8.24414C11.8799 8.79492 11.8945 8.98828 11.8945 12.2783V15H13.4473H15V11.9883C15 10.2656 14.9883 8.80371 14.9707 8.56934C14.8711 7.18945 14.5693 6.31055 13.9775 5.67774C13.5791 5.25293 13.0488 4.97754 12.3369 4.82813C11.9531 4.74902 10.9336 4.72852 10.5938 4.79004Z" fill="white"/>
<path d="M0.254883 5.00098C0.243164 5.00976 0.234375 7.26562 0.234375 10.0107V15H1.80176H3.36914L3.36328 9.99609L3.35449 4.99512L1.81348 4.98633C0.966797 4.9834 0.263672 4.98926 0.254883 5.00098Z" fill="white"/>
</g>
<defs>
<clipPath id="clip0_287_87">
<rect width="15" height="15" fill="white"/>
</clipPath>
</defs>
</svg>
