<svg width="15" height="15" viewBox="0 0 15 15" fill="none" xmlns="http://www.w3.org/2000/svg">
<path d="M0.0498047 0.0791016C0.0791016 0.125977 1.3623 1.99219 2.90039 4.2334C4.43848 6.47461 5.69824 8.32031 5.69824 8.33496C5.69824 8.35254 4.43555 9.83496 2.88867 11.6338C1.34473 13.4297 0.0615234 14.9238 0.0380859 14.9502C0 14.9971 0.0410156 15 0.641602 15H1.28613L3.77344 12.1084C5.1416 10.5205 6.27539 9.21387 6.29004 9.21094C6.30762 9.20508 7.21582 10.5059 8.30859 12.0996L10.2979 15H12.4775C14.543 15 14.6543 14.9971 14.6279 14.9473C14.6133 14.9209 13.2803 12.9785 11.6689 10.6348C10.0576 8.29102 8.73633 6.36621 8.73633 6.35742C8.73633 6.3457 9.96094 4.91602 11.458 3.17871L14.1768 0.0146484L13.5469 0.00585938C13.0283 0 12.9082 0.00585938 12.8701 0.0410156C12.8438 0.0644531 11.7744 1.30371 10.4941 2.79199C9.21387 4.2832 8.15625 5.49609 8.14453 5.49023C8.13281 5.48145 7.27734 4.24512 6.24316 2.73926L4.36231 0H0L0.0498047 0.0791016ZM8.29688 7.48828C10.8018 11.0742 12.8584 14.0186 12.8613 14.0361C12.8701 14.0537 12.5156 14.0596 11.8828 14.0566L10.8926 14.0479L6.32813 7.52051C3.81738 3.92871 1.76367 0.984375 1.76367 0.978516C1.76367 0.972656 2.20898 0.966797 2.75391 0.966797L3.74121 0.969727L8.29688 7.48828Z" fill="white"/>
</svg>
