<svg width="40" height="40" viewBox="0 0 40 40" fill="none" xmlns="http://www.w3.org/2000/svg">
<path d="M24.3965 9.60504C24.0302 9.9788 23.825 10.4813 23.825 11.0047C23.825 11.528 24.0302 12.0305 24.3965 12.4043L27.5957 15.6035C27.9695 15.9698 28.472 16.175 28.9953 16.175C29.5187 16.175 30.0212 15.9698 30.395 15.6035L37.933 8.06544C38.9384 10.2872 39.2428 12.7627 38.8057 15.1619C38.3685 17.5611 37.2106 19.7701 35.4862 21.4945C33.7618 23.2189 31.5528 24.3768 29.1536 24.814C26.7544 25.2511 24.2789 24.9467 22.0571 23.9413L8.24075 37.7577C7.44531 38.5531 6.36646 39 5.24153 39C4.11661 39 3.03776 38.5531 2.24232 37.7577C1.44687 36.9622 1 35.8834 1 34.7585C1 33.6335 1.44687 32.5547 2.24232 31.7593L16.0587 17.9429C15.0533 15.7211 14.7489 13.2456 15.186 10.8464C15.6232 8.44723 16.7811 6.23823 18.5055 4.51381C20.2299 2.78939 22.4389 1.63146 24.8381 1.19432C27.2373 0.757178 29.7128 1.0616 31.9346 2.06701L24.4165 9.58504L24.3965 9.60504Z" stroke="white" stroke-width="2" stroke-linecap="round" stroke-linejoin="round"/>
</svg>
