<svg width="47" height="47" viewBox="0 0 47 47" fill="none" xmlns="http://www.w3.org/2000/svg">
<path d="M21.4463 0.179852C20.4421 0.629475 20.1424 1.30391 19.9475 3.64196C19.8876 4.30141 19.7827 4.94587 19.7077 5.08076C19.6328 5.23063 19.2281 5.41048 18.7935 5.51539C18.3589 5.6203 17.3997 5.93504 16.6653 6.2198L15.3314 6.74437L13.8776 5.29058C12.6187 4.03163 12.3489 3.8368 11.8093 3.76186C11.4796 3.7169 11.03 3.7169 10.8052 3.77684C10.5953 3.8368 9.35138 4.81098 8.04747 5.96502C4.73524 8.8576 4.67529 9.12738 6.6986 11.6603L7.8976 13.174L6.83349 15.3172L5.76937 17.4604L3.98586 17.3855C2.39719 17.3255 2.1424 17.3555 1.55789 17.6253C0.493782 18.1498 0.38887 18.4496 0.14907 21.9567C-0.0607548 24.9691 -0.0607548 25.0441 0.224007 25.6586C0.673632 26.5578 1.15323 26.7826 3.26647 27.0224C4.27063 27.1423 5.1399 27.2922 5.18486 27.3521C5.24481 27.4271 5.3797 27.8018 5.46962 28.2214C5.57454 28.6261 5.88927 29.5703 6.18902 30.3047L6.71359 31.6386L5.36471 33.0024C3.85098 34.5461 3.68612 34.7859 3.68612 35.5953C3.68612 36.3446 3.92591 36.7043 6.00917 39.0574C8.07745 41.4104 8.43715 41.6802 9.41133 41.5903C9.99584 41.5453 10.2956 41.3804 11.4197 40.4962C12.1391 39.9266 12.8585 39.3721 13.0083 39.2672C13.2331 39.1023 13.368 39.1323 13.9076 39.492C14.2673 39.7168 15.1965 40.1814 15.9758 40.5261L17.3997 41.1556L17.3397 42.9391C17.2947 44.5128 17.3247 44.8275 17.5945 45.442C18.0741 46.5061 18.5537 46.656 22.1507 46.8808C24.9983 47.0607 25.1332 47.0457 25.6727 46.7759C26.512 46.3413 26.7369 45.8167 26.9916 43.7335C27.1265 42.7143 27.2614 41.845 27.2914 41.7851C27.3214 41.7251 27.741 41.6052 28.2206 41.5003C28.7002 41.3954 29.6594 41.0807 30.3488 40.7959L31.6228 40.2863L33.1365 41.7851L34.6652 43.2838H35.4895C36.4487 43.2838 36.3438 43.3438 39.1315 40.9158C41.1848 39.1023 41.6044 38.5778 41.6044 37.7684C41.6044 37.109 41.3796 36.7043 40.1207 35.1456L39.0716 33.8118L39.8659 32.298C40.3155 31.4587 40.7501 30.5145 40.8551 30.1998L41.0349 29.6452H42.9683C45.1715 29.6452 45.711 29.4954 46.2506 28.746C46.5653 28.2964 46.6252 27.9666 46.8201 25.089C47.0299 22.1065 47.0299 21.8817 46.7751 21.3572C46.3705 20.4879 45.8009 20.2331 43.7177 19.9933C42.6985 19.8734 41.8293 19.7235 41.7693 19.6636C41.7094 19.5886 41.5295 19.0491 41.3796 18.4796C41.2297 17.8951 40.915 16.9508 40.6752 16.3813L40.2406 15.3322L41.6644 13.9533C43.2081 12.4546 43.4779 11.96 43.2531 10.9858C43.1781 10.6711 42.9983 10.2814 42.8484 10.1165C39.0416 5.77018 38.6069 5.36552 37.7976 5.36552C37.1681 5.36552 36.6885 5.6203 35.2348 6.78933C34.4554 7.40382 33.796 7.91339 33.751 7.91339C33.721 7.91339 33.2264 7.64362 32.6569 7.32888C32.1024 6.99915 31.1881 6.54953 30.6336 6.32471L29.6145 5.90507V3.9567C29.6145 0.629475 29.4196 0.464611 25.2081 0.179852C21.731 -0.059948 21.9858 -0.059948 21.4463 0.179852ZM25.418 1.99334C28.0857 2.12822 27.816 1.87344 27.816 4.30141C27.816 6.98417 27.8909 7.10406 29.9292 7.98833C30.7235 8.33304 31.7277 8.82763 32.1473 9.08241C33.6761 10.0266 34.1557 9.95169 36.134 8.36301C36.9583 7.70356 37.6777 7.16402 37.7377 7.16402C37.8426 7.16402 40.6452 10.2664 41.3047 11.1057L41.6044 11.4804L40.1207 12.9642C38.2323 14.8226 38.1873 15.0025 38.9517 16.9508C39.2514 17.7152 39.6261 18.8243 39.791 19.4388C40.2855 21.2223 40.6302 21.4471 43.2531 21.7618C44.2572 21.8817 45.1115 22.0016 45.1415 22.0466C45.1864 22.0915 45.1415 23.3955 45.0216 24.9542L44.8267 27.7718L42.6386 27.8467C40.1507 27.9367 39.8509 28.0416 39.4163 29.0757C39.2664 29.4354 38.7119 30.5595 38.2023 31.5786C37.6777 32.5978 37.2581 33.572 37.2581 33.7218C37.2581 34.2464 37.6627 34.9658 38.7418 36.2997C39.3413 37.0341 39.791 37.7235 39.776 37.8134C39.716 38.0532 35.7893 41.4853 35.5795 41.4853C35.4746 41.4853 34.7552 40.8559 33.9608 40.0765C32.1473 38.278 31.9525 38.2331 30.0191 38.9824C29.2548 39.2822 28.1757 39.6569 27.5911 39.8217C25.7327 40.3613 25.5229 40.646 25.2531 43.1639C25.1632 44.1231 25.0283 44.9924 24.9683 45.0823C24.8934 45.2022 24.159 45.2022 22.1807 45.0823C20.7119 44.9924 19.408 44.8875 19.2881 44.8425C19.1232 44.7826 19.0932 44.4229 19.1532 42.9991C19.2731 40.2714 19.0483 39.8367 17.1898 39.0873C16.5454 38.8326 15.5712 38.353 15.0166 38.0382C14.4771 37.7235 13.8926 37.4087 13.7127 37.3638C13.0533 37.154 12.3938 37.4537 10.8801 38.6377C10.0408 39.2972 9.29143 39.8367 9.21649 39.8367C9.05163 39.8367 5.48461 35.7751 5.48461 35.5653C5.48461 35.4754 6.06912 34.8309 6.77354 34.1415C8.64697 32.283 8.79685 31.8634 8.09243 30.2897C7.88261 29.8101 7.52291 28.761 7.28311 27.9516C6.65364 25.7485 6.38386 25.5536 3.821 25.2839C2.87679 25.194 2.03749 25.0291 1.93258 24.9392C1.79769 24.8193 1.79769 24.1598 1.9026 22.3014C2.11243 18.7493 1.84265 19.139 4.1807 19.169C6.9384 19.199 7.07329 19.124 7.97253 17.0707C8.2573 16.3963 8.7369 15.4371 9.02166 14.9425C9.65113 13.8934 9.78602 13.189 9.53123 12.5595C9.42632 12.3047 8.84181 11.4804 8.24231 10.716C7.62782 9.95169 7.13323 9.29224 7.13323 9.23229C7.13323 9.11239 11.1199 5.6203 11.3447 5.53038C11.4346 5.5004 12.1241 6.08492 12.8884 6.83429C14.7169 8.66276 15.1515 8.81264 16.6803 8.12321C17.1599 7.91339 18.209 7.55369 19.0333 7.31389C20.5021 6.87925 21.2514 6.41464 21.4463 5.80016C21.4912 5.66527 21.6261 4.76602 21.731 3.82181C21.8509 2.8776 21.9858 2.02331 22.0458 1.9184C22.1207 1.7985 22.4055 1.76852 22.93 1.82847C23.3497 1.87344 24.4737 1.94837 25.418 1.99334Z" fill="white"/>
<path d="M21.2956 11.2706C17.234 12.0649 13.9368 14.6128 12.2582 18.2548C11.3589 20.1732 11.1191 21.3122 11.1191 23.5004C11.1191 25.7335 11.3739 26.8576 12.3032 28.8209C13.0975 30.5295 14.0867 31.8184 15.4205 32.9425C19.5421 36.4196 25.3123 36.8842 29.9734 34.1115C31.4122 33.2572 33.2856 31.3538 34.1549 29.8701C36.9576 25.104 36.3581 19.2589 32.6262 15.0774C31.2623 13.5337 28.7594 12.035 26.6312 11.4954C25.1474 11.1057 22.6745 11.0008 21.2956 11.2706ZM26.2415 13.249C29.0442 13.9983 31.682 16.1265 32.9859 18.7044C33.7652 20.2481 34.035 21.4921 34.035 23.5753C34.02 25.2839 33.975 25.6736 33.6153 26.7227C33.0458 28.4313 32.2515 29.7052 30.9626 30.9941C29.6736 32.283 28.3847 33.0774 26.6911 33.6469C25.627 34.0066 25.2523 34.0516 23.4688 34.0516C21.6403 34.0516 21.3256 34.0216 20.2465 33.6319C16.6495 32.388 14.1616 29.7502 13.1874 26.1831C12.8577 24.9991 12.8277 22.2714 13.1125 21.1024C13.3972 19.9334 14.3115 18.03 15.1208 16.9509C16.6046 14.9425 19.3023 13.3988 22.045 12.9492C22.8393 12.8293 25.3123 12.9942 26.2415 13.249Z" fill="white"/>
<path d="M23.0972 13.7885C22.6176 14.0582 22.5726 14.2081 22.5726 15.497V16.696L21.7633 17.0408C20.2346 17.6702 19.2904 18.9741 19.2754 20.4729C19.2754 22.1665 19.8899 22.7959 23.0972 24.3247C25.6001 25.5237 26.1097 25.9433 25.9598 26.7227C25.735 27.8167 24.7758 28.4912 23.4569 28.4912C22.0631 28.4912 21.3137 27.8767 21.0139 26.4679C20.894 25.9433 20.5343 25.5986 20.0997 25.5986C18.7209 25.5986 19.1705 28.2664 20.7442 29.4204C21.1189 29.6902 21.6884 29.9899 22.0031 30.0799L22.5726 30.2597V31.5187C22.5726 32.5978 22.6176 32.8376 22.8724 33.0923C23.0372 33.2572 23.307 33.3921 23.4719 33.3921C23.6367 33.3921 23.9065 33.2572 24.0714 33.0923C24.3262 32.8376 24.3711 32.5978 24.3711 31.5336V30.2747L24.8058 30.1698C25.4952 30.0199 26.5593 29.2705 27.0539 28.5961C27.6534 27.7568 27.9082 26.6327 27.6834 25.7785C27.3686 24.6244 26.6492 24.0399 24.0714 22.7959C21.4036 21.507 21.0739 21.2672 21.0739 20.5478C21.0739 19.3788 22.078 18.5395 23.4719 18.5245C24.8058 18.5245 25.78 19.2589 25.9748 20.383C26.0797 21.1024 26.3645 21.4021 26.919 21.4021C27.2337 21.4021 27.4436 21.2822 27.6084 21.0124C27.8332 20.6827 27.8332 20.5328 27.6834 19.8434C27.3836 18.4796 26.3495 17.3705 24.9407 16.9209L24.3711 16.726V15.4671C24.3711 14.403 24.3262 14.1632 24.0714 13.9084C23.7267 13.5637 23.5318 13.5487 23.0972 13.7885Z" fill="white"/>
</svg>
