<svg width="41" height="41" viewBox="0 0 41 41" fill="none" xmlns="http://www.w3.org/2000/svg">
<path d="M29.0413 35.875V32.4583C29.0413 30.646 28.3214 28.9079 27.0399 27.6264C25.7584 26.3449 24.0203 25.625 22.208 25.625H8.54134C6.72903 25.625 4.99094 26.3449 3.70945 27.6264C2.42795 28.9079 1.70801 30.646 1.70801 32.4583V35.875" stroke="white" stroke-width="2" stroke-linecap="round" stroke-linejoin="round"/>
<path d="M15.3753 18.7917C19.1493 18.7917 22.2087 15.7323 22.2087 11.9583C22.2087 8.18439 19.1493 5.125 15.3753 5.125C11.6014 5.125 8.54199 8.18439 8.54199 11.9583C8.54199 15.7323 11.6014 18.7917 15.3753 18.7917Z" stroke="white" stroke-width="2" stroke-linecap="round" stroke-linejoin="round"/>
<path d="M39.292 35.8751V32.4584C39.2909 30.9444 38.7869 29.4736 37.8593 28.277C36.9317 27.0803 35.633 26.2257 34.167 25.8472" stroke="white" stroke-width="2" stroke-linecap="round" stroke-linejoin="round"/>
<path d="M27.333 5.34717C28.8029 5.72352 30.1057 6.57837 31.0361 7.77695C31.9664 8.97553 32.4714 10.4497 32.4714 11.967C32.4714 13.4843 31.9664 14.9584 31.0361 16.157C30.1057 17.3556 28.8029 18.2104 27.333 18.5868" stroke="white" stroke-width="2" stroke-linecap="round" stroke-linejoin="round"/>
</svg>
