<svg width="25" height="21" viewBox="0 0 25 21" fill="none" xmlns="http://www.w3.org/2000/svg">
<path d="M12.8901 0.456056C13.9204 1.0127 23.9741 6.72559 24.062 6.80859C24.4038 7.11621 24.4038 7.63379 24.062 7.94141C24.0034 8 21.4351 9.47461 18.3589 11.2129C12.8462 14.333 12.7632 14.377 12.4995 14.3818C12.2358 14.3818 12.1724 14.3477 6.64014 11.2129C3.56396 9.47461 0.995605 8 0.937012 7.94629C0.595215 7.63379 0.595215 7.11621 0.937012 6.80371C0.995605 6.75 3.56396 5.27539 6.64014 3.53711C12.7876 0.0605478 12.4604 0.221681 12.8901 0.456056ZM7.7583 4.69922C5.18506 6.15918 3.07568 7.36035 3.07568 7.375C3.07568 7.38965 5.18994 8.5957 7.77295 10.0557C11.7524 12.3066 12.4849 12.7021 12.5776 12.668C12.7388 12.6045 21.9233 7.4043 21.9233 7.375C21.9233 7.33594 12.5825 2.05762 12.5093 2.05762C12.4751 2.05274 10.3364 3.24414 7.7583 4.69922Z" fill="black"/>
<path d="M23.7943 9.78711C24.0433 9.87988 24.1214 9.95312 24.2337 10.2021C24.3607 10.4902 24.3167 10.7734 24.1068 11.0029C23.9944 11.1299 22.3343 12.0918 18.3597 14.3428C12.847 17.458 12.764 17.502 12.5003 17.5068C12.2366 17.5068 12.1732 17.4727 6.64093 14.3428C2.62726 12.0723 1.00617 11.1299 0.893862 11.0029C0.35187 10.4023 1.0257 9.47461 1.76789 9.80664C1.88507 9.85547 4.33136 11.2324 7.21222 12.8584C10.0882 14.4893 12.4661 15.8223 12.4954 15.8223C12.5247 15.8223 14.136 14.9238 16.0794 13.8252C18.0179 12.7314 20.3714 11.3984 21.3138 10.8662C23.5306 9.61133 23.4232 9.65527 23.7943 9.78711Z" fill="black"/>
<path d="M23.7943 12.9121C24.0433 13.0049 24.1214 13.0781 24.2337 13.3271C24.3607 13.6152 24.3167 13.8984 24.1068 14.1279C23.9944 14.2549 22.3343 15.2168 18.3597 17.4678C12.847 20.583 12.764 20.627 12.5003 20.6318C12.2366 20.6318 12.1732 20.5977 6.64093 17.4678C2.62726 15.1973 1.00617 14.2549 0.893862 14.1279C0.35187 13.5273 1.0257 12.5996 1.76789 12.9316C1.88507 12.9805 4.33136 14.3574 7.21222 15.9834C10.0882 17.6143 12.4661 18.9473 12.4954 18.9473C12.5247 18.9473 14.136 18.0488 16.0794 16.9502C18.0179 15.8564 20.3714 14.5234 21.3138 13.9912C23.5306 12.7363 23.4232 12.7803 23.7943 12.9121Z" fill="black"/>
</svg>
