<svg width="8" height="14" viewBox="0 0 8 14" fill="none" xmlns="http://www.w3.org/2000/svg">
<path d="M0.0571561 13.3497C0.170107 13.6106 0.466116 13.7586 0.769915 13.7002C0.90234 13.6768 1.28014 13.3107 4.17792 10.4168C7.07179 7.51907 7.43791 7.14127 7.46128 7.00885C7.53139 6.64273 7.71834 6.85695 4.17792 3.31263C0.637491 -0.227797 0.847813 -0.0408443 0.481696 0.0292632C0.290848 0.0643174 0.0571567 0.298009 0.0221034 0.488857C-0.0480041 0.854973 -0.207693 0.66802 3.01335 3.89686L5.98123 6.86474L3.03283 9.81704C1.38141 11.4685 0.0649462 12.8122 0.0415769 12.8745C-0.0129509 13.0225 -0.00516126 13.2056 0.0571561 13.3497Z" fill="#161519"/>
</svg>
