<svg width="8" height="14" viewBox="0 0 8 14" fill="none" xmlns="http://www.w3.org/2000/svg">
<path d="M7.43113 13.3497C7.31817 13.6106 7.02216 13.7586 6.71837 13.7002C6.58594 13.6768 6.20814 13.3107 3.31037 10.4168C0.416486 7.51907 0.0503697 7.14127 0.0270006 7.00885C-0.0431069 6.64273 -0.23006 6.85695 3.31037 3.31263C6.85079 -0.227797 6.64047 -0.0408443 7.00658 0.0292632C7.19743 0.0643174 7.43112 0.298009 7.46618 0.488857C7.53629 0.854973 7.69597 0.66802 4.47493 3.89686L1.50705 6.86474L4.45545 9.81704C6.10687 11.4685 7.42334 12.8122 7.4467 12.8745C7.50123 13.0225 7.49344 13.2056 7.43113 13.3497Z" fill="#161519"/>
</svg>
