<svg width="17" height="25" viewBox="0 0 17 25" fill="none" xmlns="http://www.w3.org/2000/svg">
<path d="M8.4375 18.1875C10.6031 16.4404 12.2383 14.7589 13.343 13.1428C14.4477 11.5268 15 10.0208 15 8.625C15 7.39583 14.776 6.35417 14.3281 5.5C13.8802 4.64583 13.328 3.94917 12.6716 3.41C12.0151 2.87081 11.304 2.48019 10.5381 2.23812C9.77227 1.99604 9.07206 1.875 8.4375 1.875C7.80294 1.875 7.10273 1.99604 6.33687 2.23812C5.57102 2.48019 4.85986 2.87081 4.20341 3.41C3.54697 3.94917 2.99479 4.64583 2.54688 5.5C2.09896 6.35417 1.875 7.39583 1.875 8.625C1.875 10.0208 2.42734 11.5268 3.53203 13.1428C4.63672 14.7589 6.27187 16.4404 8.4375 18.1875ZM8.4375 20.5625C5.58333 18.4167 3.46354 16.3625 2.07812 14.4C0.692708 12.4375 0 10.5151 0 8.63272C0 7.21091 0.255208 5.96354 0.765625 4.89062C1.27604 3.81771 1.9375 2.91667 2.75 2.1875C3.5625 1.45833 4.46854 0.911458 5.46813 0.546875C6.46771 0.182292 7.45729 0 8.43688 0C9.41646 0 10.4062 0.182292 11.4062 0.546875C12.4062 0.911458 13.3125 1.45833 14.125 2.1875C14.9375 2.91667 15.599 3.81805 16.1094 4.89166C16.6198 5.96526 16.875 7.21446 16.875 8.63925C16.875 10.5256 16.1823 12.4479 14.7969 14.4062C13.4115 16.3646 11.2917 18.4167 8.4375 20.5625ZM8.44028 10.625C9.04259 10.625 9.55729 10.4105 9.98438 9.98159C10.4115 9.55268 10.625 9.03705 10.625 8.43472C10.625 7.83241 10.4105 7.31771 9.98159 6.89062C9.55268 6.46354 9.03705 6.25 8.43472 6.25C7.83241 6.25 7.31771 6.46447 6.89062 6.89341C6.46354 7.32232 6.25 7.83795 6.25 8.44028C6.25 9.04259 6.46447 9.55729 6.89341 9.98438C7.32232 10.4115 7.83795 10.625 8.44028 10.625ZM0 25V23.125H16.875V25H0Z" fill="#727274"/>
</svg>
