<svg width="124" height="96" viewBox="0 0 124 96" fill="none" xmlns="http://www.w3.org/2000/svg">
<circle cx="48" cy="48" r="48" fill="#373739"/>
<path d="M87.1432 16.922C81.0338 18.2369 76.558 22.8986 75.5885 28.9416C75.4557 29.765 75.3893 31.1994 75.3893 33.6166V37.1095H75.0971C74.101 37.1095 72.9721 37.8533 72.4276 38.8892C72.1354 39.4338 72.1354 39.4869 72.0955 48.0931L72.0557 56.7525L65.6409 56.7923L59.226 56.8322L58.3096 57.297C57.6588 57.6291 57.2604 57.9478 56.9151 58.4127C55.9721 59.6611 55.9854 59.5017 56.0252 68.3338L56.0651 76.2228L56.4369 76.9798C56.8354 77.8033 57.5393 78.5072 58.4159 78.972C58.9737 79.2642 59.0932 79.2775 63.2237 79.3173C67.4471 79.3572 67.4604 79.3572 67.7659 79.065C68.151 78.7064 68.1776 78.1619 67.8323 77.7369L67.5799 77.4181L63.476 77.3517C59.4252 77.2853 59.3854 77.2853 58.9338 76.9666C58.6948 76.7939 58.376 76.4088 58.2432 76.1033C58.0174 75.5986 57.9909 75.0806 57.9909 68.0681C57.9909 60.8564 58.0041 60.5509 58.2565 60.033C58.4026 59.7275 58.7346 59.3423 59.0135 59.1564L59.5049 58.8244L89.6534 58.7845C106.242 58.7713 120.014 58.7845 120.253 58.8244C120.785 58.9173 121.595 59.608 121.821 60.1791C121.967 60.5244 122.006 62.1048 122.006 68.0814C122.006 75.0806 121.98 75.5986 121.754 76.1033C121.621 76.4088 121.303 76.7939 121.064 76.9666L120.612 77.2853L96.0416 77.3517C82.5346 77.3916 71.3784 77.4713 71.2455 77.5244C70.9534 77.6705 70.701 78.3345 70.8073 78.6798C71.033 79.3838 69.4659 79.3439 96.2541 79.3173L121.01 79.2775L121.581 78.972C122.458 78.5072 123.162 77.8033 123.56 76.9798L123.932 76.2228L123.972 68.3338C124.012 59.5017 124.025 59.6611 123.082 58.4127C122.737 57.9478 122.339 57.6291 121.688 57.297L120.771 56.8322L114.356 56.7923L107.942 56.7525L107.902 51.772L107.862 46.7783L107.543 46.5259C107.145 46.1939 106.534 46.2072 106.202 46.5392C105.949 46.7916 105.936 46.9775 105.936 51.7853V56.7658H100.225C97.0909 56.7658 94.5143 56.7259 94.5143 56.6595C94.5143 56.6064 94.3948 55.5705 94.262 54.3619L93.9963 52.1439L94.3416 51.3072C94.6338 50.5767 94.6737 50.3244 94.6205 49.3416C94.5674 48.4384 94.4877 48.0533 94.1955 47.4955C92.4424 44.0689 87.701 43.9892 85.8682 47.3627C85.4299 48.1595 85.4166 48.2525 85.4166 49.5939C85.4166 50.7759 85.4565 51.0681 85.7088 51.533L86.001 52.0908L85.7487 54.322C85.6026 55.5572 85.483 56.6064 85.483 56.6595C85.483 56.7259 82.9065 56.7658 79.7721 56.7658H74.0612L74.0877 48.2525L74.1276 39.7392L74.4995 39.4205L74.8713 39.1017H89.9987H105.126L105.498 39.4205C105.87 39.7392 105.87 39.7658 105.91 41.4127C105.963 43.0197 105.976 43.0994 106.295 43.3517C106.746 43.697 107.039 43.6838 107.49 43.2986L107.862 42.9799V41.2002C107.862 39.6463 107.822 39.3673 107.57 38.8892C107.025 37.8666 105.91 37.1095 104.914 37.1095H104.608V33.6166C104.608 29.8181 104.462 28.397 103.878 26.6572C102.284 21.9291 98.419 18.3431 93.4916 17.0416C91.951 16.6299 88.7635 16.5634 87.1432 16.922ZM93.2526 19.047C95.4838 19.658 97.2635 20.7072 98.9635 22.4205C100.225 23.6822 101.248 25.2627 101.819 26.8431C102.483 28.6892 102.616 29.8314 102.616 33.6697V37.1095H100.371H98.1268L98.0737 33.4174C98.0205 30.097 97.9807 29.6588 97.7284 28.8752C96.9049 26.365 95.0455 24.4658 92.562 23.6025C91.6721 23.2838 91.3135 23.2439 89.9987 23.2306C88.8565 23.2306 88.2854 23.297 87.7409 23.483C85.0713 24.3861 83.119 26.3119 82.269 28.8752C82.0166 29.6588 81.9768 30.097 81.9237 33.4174L81.8705 37.1095H79.626H77.3815V33.6697C77.3815 30.0439 77.5143 28.7556 78.0455 27.215C79.5198 22.9384 83.1323 19.7642 87.5948 18.8345C88.9096 18.5689 91.8979 18.6752 93.2526 19.047ZM91.4995 25.3556C92.562 25.6345 93.2393 26.0064 94.0229 26.7236C94.8596 27.5205 95.3909 28.2775 95.7362 29.247C96.0018 29.9377 96.0284 30.3494 96.0815 33.5502L96.1346 37.1095H90.012H83.8893V34.015C83.8893 32.315 83.9557 30.5752 84.0354 30.1502C84.4471 27.9322 86.2666 25.94 88.4182 25.3689C89.3612 25.1166 90.5565 25.1033 91.4995 25.3556ZM91.194 47.1369C92.5752 47.8408 93.0401 49.4611 92.3096 51.015L91.9643 51.7455L92.1768 53.8306C92.3096 54.9728 92.4424 56.1017 92.4823 56.3275L92.5487 56.7658H89.9987H87.4487L87.5151 56.3275C87.5549 56.1017 87.6877 54.9728 87.8205 53.8306L88.033 51.7455L87.6877 51.015C87.3026 50.1783 87.2362 49.1822 87.5151 48.4916C87.7409 47.9603 88.6838 47.097 89.162 46.9908C89.3745 46.9509 89.6002 46.8978 89.6666 46.8713C89.8924 46.7916 90.8354 46.9642 91.194 47.1369Z" fill="white"/>
<path d="M66.4757 62.9947C66.1702 63.2338 66.1569 63.3533 66.0905 65.0533L66.0241 66.8595L64.6694 66.076C63.9257 65.6377 63.2085 65.2525 63.0624 65.2127C62.6773 65.0799 62.146 65.3853 61.9601 65.8369C61.6944 66.4611 61.9999 66.8064 63.5273 67.7228C64.271 68.1611 64.9085 68.5595 64.9616 68.5994C65.0015 68.6525 64.3905 69.0642 63.5937 69.5158C61.814 70.5252 61.5351 70.9502 62.1194 71.6939C62.5444 72.2385 63.0093 72.1455 64.5898 71.2424C65.3601 70.8041 65.9976 70.4455 66.0241 70.4455C66.0507 70.4455 66.0905 71.2556 66.1171 72.2517C66.1569 73.965 66.1702 74.0713 66.4757 74.3103C66.8741 74.6424 67.2991 74.6291 67.7374 74.2838C68.0827 74.0181 68.0827 74.0049 68.0827 72.2119C68.0827 70.1267 67.9101 70.2197 69.7562 71.3088C70.5265 71.7603 71.1374 72.0392 71.3898 72.0392C72.1335 72.0392 72.5585 71.2556 72.1999 70.5783C72.1335 70.4455 71.5093 70.0205 70.8452 69.6353C70.1679 69.2502 69.5038 68.865 69.371 68.7853C69.1585 68.6392 69.2913 68.533 70.4866 67.8556C71.2304 67.4306 71.9476 66.9791 72.0804 66.8463C72.6382 66.2885 72.2132 65.226 71.4429 65.226C71.1773 65.226 70.5132 65.5181 69.6234 66.0361C68.853 66.4877 68.189 66.8595 68.1491 66.8595C68.1093 66.8595 68.0827 66.0627 68.0827 65.0931C68.0827 63.4064 68.0694 63.3002 67.7773 63.0345C67.3921 62.676 66.8874 62.6627 66.4757 62.9947Z" fill="white"/>
<path d="M81.6966 63.0743C81.3779 63.3798 81.3646 63.4595 81.3646 65.1329C81.3646 66.0759 81.338 66.8595 81.3115 66.8595C81.2849 66.8595 80.8068 66.5938 80.249 66.2618C78.4029 65.1728 78.1904 65.0931 77.7654 65.279C77.0615 65.5579 76.8888 66.3415 77.4201 66.8196C77.5794 66.979 78.2568 67.4173 78.9076 67.7892C79.5716 68.161 80.156 68.5196 80.2091 68.5728C80.2755 68.6392 79.7044 69.0376 78.9474 69.4626C78.1904 69.8876 77.4732 70.3524 77.3537 70.472C76.8091 71.0165 77.3005 72.0392 78.1107 72.0392C78.3365 72.0392 79.0537 71.7204 79.8638 71.2423C80.6076 70.804 81.2584 70.4454 81.2982 70.4454C81.338 70.4454 81.3646 71.229 81.3646 72.172C81.3646 73.8454 81.3779 73.9251 81.6966 74.2306C82.1084 74.6556 82.613 74.6556 83.0248 74.2306C83.3435 73.9251 83.3568 73.8454 83.3568 72.172C83.3568 71.229 83.3834 70.4454 83.4365 70.4454C83.4763 70.4454 84.1271 70.804 84.8841 71.2423C85.7341 71.7337 86.4115 72.0392 86.6638 72.0392C87.3544 72.0392 87.7794 71.3353 87.5271 70.6446C87.474 70.5384 86.7834 70.047 85.9599 69.5556C85.1498 69.0774 84.4724 68.6657 84.4459 68.6524C84.4193 68.6259 85.0834 68.2274 85.9068 67.7493C87.4873 66.8462 87.7263 66.5673 87.5537 65.8899C87.5138 65.6907 87.3013 65.4517 87.0755 65.3321C86.5974 65.0798 86.3318 65.1728 84.6185 66.1821C83.9943 66.554 83.4498 66.8595 83.4232 66.8595C83.3834 66.8595 83.3568 66.0892 83.3568 65.1462C83.3568 63.6188 83.3302 63.4063 83.0779 63.0876C82.7193 62.636 82.1349 62.6228 81.6966 63.0743Z" fill="white"/>
<path d="M96.9177 63.0876C96.6653 63.4063 96.6388 63.6188 96.6388 65.1462C96.6388 66.0892 96.6122 66.8595 96.5856 66.8595C96.5591 66.8595 95.8552 66.4743 95.0317 65.9962C93.8895 65.3321 93.438 65.1462 93.1856 65.1993C92.5614 65.3454 92.2294 66.0228 92.4685 66.647C92.5083 66.7665 93.2255 67.2446 94.0622 67.736C94.8989 68.2142 95.5763 68.6259 95.5763 68.6524C95.5763 68.679 94.9653 69.0376 94.2349 69.4493C93.4911 69.8743 92.7739 70.3259 92.6411 70.4587C92.0833 71.0165 92.5349 72.0392 93.345 72.0392C93.6106 72.0392 94.2481 71.7603 95.1247 71.2423C95.8685 70.804 96.5192 70.4454 96.5591 70.4454C96.5989 70.4454 96.6388 71.229 96.6388 72.172C96.6388 73.8454 96.652 73.9251 96.9708 74.2306C97.3825 74.6556 97.8872 74.6556 98.2989 74.2306C98.6177 73.9251 98.631 73.8454 98.631 72.172C98.631 71.229 98.6575 70.4454 98.6974 70.4454C98.7372 70.4454 99.388 70.804 100.132 71.2423C100.982 71.7337 101.659 72.0392 101.898 72.0392C102.708 72.0392 103.186 71.0165 102.629 70.4587C102.496 70.3259 101.779 69.8743 101.035 69.4493C100.291 69.0243 99.7067 68.6524 99.7466 68.6259C99.7864 68.586 100.424 68.1876 101.181 67.736C101.951 67.2845 102.629 66.7798 102.735 66.5806C103.014 66.0759 102.828 65.5712 102.283 65.3056L101.832 65.0931L100.265 65.9696L98.6974 66.8462L98.631 65.0532C98.5645 63.3532 98.5513 63.2337 98.2458 62.9946C97.7942 62.636 97.2497 62.6759 96.9177 63.0876Z" fill="white"/>
<path d="M112.207 63.0478C111.941 63.3267 111.914 63.4994 111.914 65.1064C111.914 66.076 111.888 66.8595 111.848 66.8595C111.808 66.8595 111.144 66.4877 110.374 66.0361C108.82 65.133 108.315 65.0267 107.904 65.5181C107.598 65.9033 107.598 66.5275 107.904 66.833C108.023 66.9525 108.754 67.4041 109.497 67.8424C110.719 68.533 110.852 68.626 110.626 68.772C110.493 68.865 109.829 69.2635 109.152 69.6486C108.475 70.0338 107.864 70.4588 107.797 70.5916C107.439 71.2556 107.864 72.0392 108.607 72.0392C108.86 72.0392 109.524 71.747 110.387 71.2424C111.144 70.8041 111.795 70.4455 111.835 70.4455C111.888 70.4455 111.914 71.2424 111.914 72.2252C111.914 73.9916 111.914 74.0181 112.26 74.2838C112.698 74.6291 113.123 74.6424 113.521 74.3103C113.827 74.0713 113.84 73.965 113.88 72.2517C113.907 71.2556 113.946 70.4455 113.973 70.4455C114 70.4455 114.637 70.8041 115.407 71.2424C116.988 72.1455 117.453 72.2385 117.878 71.6939C118.462 70.9502 118.183 70.5385 116.417 69.5158C115.62 69.0642 114.969 68.6658 114.969 68.6392C114.969 68.6127 115.407 68.347 115.939 68.0416C118.09 66.8064 118.329 66.5541 118.024 65.8103C117.851 65.3853 117.24 65.0799 116.855 65.226C116.736 65.2791 116.032 65.6642 115.301 66.0892L113.973 66.8595L113.907 65.0533C113.84 63.3533 113.827 63.2338 113.521 62.9947C113.096 62.6494 112.552 62.676 112.207 63.0478Z" fill="white"/>
</svg>
