<svg width="24" height="18" viewBox="0 0 24 18" fill="none" xmlns="http://www.w3.org/2000/svg">
<path d="M23.3115 2.45887L22.3771 1.52444L13.7213 10.1802C12.6394 11.2621 10.8197 11.2621 9.73772 10.1802L1.08198 1.57362L0.147556 2.50805L6.59018 8.95067L0.147556 15.3933L1.08198 16.3277L7.52461 9.8851L8.80329 11.1638C9.59018 11.9507 10.623 12.3933 11.7049 12.3933C12.7869 12.3933 13.8197 11.9507 14.6066 11.1638L15.8853 9.8851L22.3279 16.3277L23.2623 15.3933L16.8197 8.95067L23.3115 2.45887Z" fill="#727274"/>
<path d="M21.4918 18H2.06557C0.934426 18 0 17.0656 0 15.9344V2.06557C0 0.934426 0.934426 0 2.06557 0H21.4918C22.623 0 23.5574 0.934426 23.5574 2.06557V15.9344C23.5574 17.0656 22.623 18 21.4918 18ZM2.01639 1.32787C1.62295 1.32787 1.32787 1.62295 1.32787 2.01639V15.8852C1.32787 16.2787 1.62295 16.5738 2.01639 16.5738H21.4426C21.8361 16.5738 22.1312 16.2787 22.1312 15.8852V2.01639C22.1312 1.62295 21.8361 1.32787 21.4426 1.32787H2.01639Z" fill="#727274"/>
</svg>
