<svg width="899" height="360" viewBox="0 0 899 360" fill="none" xmlns="http://www.w3.org/2000/svg">
<path d="M4.32134e-07 230L124.5 4.99998H189.5L62 230H4.32134e-07ZM4.32134e-07 265V230L24.5 213.5H271.5V265H4.32134e-07ZM166 355V126H222.5V355H166ZM449.816 360C423.483 360 399.316 352.667 377.316 338C355.65 323 338.316 302 325.316 275C312.316 248 305.816 216.167 305.816 179.5C305.816 142.833 312.15 111.167 324.816 84.5C337.816 57.5 355.15 36.6667 376.816 22C398.483 7.33332 422.483 -1.90735e-05 448.816 -1.90735e-05C475.483 -1.90735e-05 499.65 7.33332 521.316 22C542.983 36.6667 560.15 57.5 572.816 84.5C585.816 111.167 592.316 143 592.316 180C592.316 216.667 585.816 248.5 572.816 275.5C560.15 302.5 542.983 323.333 521.316 338C499.983 352.667 476.15 360 449.816 360ZM448.816 306C466.15 306 481.15 301.333 493.816 292C506.483 282.667 516.316 268.667 523.316 250C530.65 231.333 534.316 207.833 534.316 179.5C534.316 151.5 530.65 128.167 523.316 109.5C516.316 90.8333 506.316 77 493.316 68C480.65 58.6666 465.816 54 448.816 54C431.816 54 416.816 58.6666 403.816 68C391.15 77 381.316 90.8333 374.316 109.5C367.316 127.833 363.816 151.167 363.816 179.5C363.816 207.833 367.316 231.333 374.316 250C381.316 268.667 391.15 282.667 403.816 292C416.816 301.333 431.816 306 448.816 306ZM626.953 230L751.453 4.99998H816.453L688.953 230H626.953ZM626.953 265V230L651.453 213.5H898.453V265H626.953ZM792.953 355V126H849.453V355H792.953Z" fill="white"/>
</svg>
