<svg width="26" height="25" viewBox="0 0 26 25" fill="none" xmlns="http://www.w3.org/2000/svg">
<path d="M20.0329 9.90132L18.7171 8.45395L21.2829 5.88816H13.3553V3.91447H21.2829L18.75 1.38158L20.1645 0L25.0658 4.90132L20.0329 9.90132ZM22.204 25C19.5285 25 16.8695 24.3421 14.227 23.0263C11.5844 21.7105 9.21053 20 7.10526 17.8947C5 15.7895 3.28947 13.4156 1.97368 10.773C0.657895 8.13048 0 5.47149 0 2.79605C0 2.37311 0.140976 2.02067 0.422928 1.73872C0.704879 1.45677 1.05732 1.31579 1.48026 1.31579H6.08553C6.38401 1.31579 6.65053 1.41996 6.88507 1.62829C7.11958 1.83662 7.26974 2.11623 7.33553 2.46711L8.22369 6.61184C8.26754 6.91886 8.26206 7.19847 8.20724 7.45066C8.15241 7.70285 8.03728 7.91667 7.86184 8.09211L4.57237 11.4145C5.80044 13.4539 7.17654 15.2303 8.70066 16.7434C10.2248 18.2566 11.9518 19.5395 13.8816 20.5921L17.0066 17.3684C17.2259 17.1272 17.4781 16.9572 17.7632 16.8586C18.0482 16.7599 18.3333 16.7434 18.6184 16.8092L22.5329 17.6645C22.8687 17.7385 23.1445 17.905 23.3604 18.1641C23.5763 18.4231 23.6842 18.7281 23.6842 19.0789V23.5197C23.6842 23.9427 23.5432 24.2951 23.2613 24.5771C22.9793 24.859 22.6269 25 22.204 25ZM3.58553 9.60526L6.25 6.9079L5.49342 3.28947H1.97368C1.97368 4.14474 2.10526 5.08224 2.36842 6.10197C2.63158 7.12171 3.03728 8.28947 3.58553 9.60526ZM15.7237 21.5461C16.6228 21.9627 17.5987 22.3026 18.6513 22.5658C19.704 22.8289 20.7237 22.9825 21.7105 23.0263V19.5066L18.3224 18.8158L15.7237 21.5461Z" fill="#727274"/>
</svg>
