<svg width="21" height="21" viewBox="0 0 21 21" fill="none" xmlns="http://www.w3.org/2000/svg">
<path d="M9.86587 3.60205C3.38478 5.76562 0.471177 6.76086 0.360595 6.84259C0.144238 7.01087 0 7.32338 0 7.63109C0 7.94842 0.0865427 8.16477 0.293284 8.35709C0.384634 8.43882 2.01452 9.47734 3.91846 10.6601L7.38017 12.8188L13.5487 6.68874C16.9383 3.31838 19.7125 0.544205 19.7125 0.520165C19.7125 0.496125 19.5971 0.476893 19.4625 0.481702C19.2606 0.481702 17.2557 1.13558 9.86587 3.60205Z" fill="black"/>
<path d="M14.2716 7.46276L8.13672 13.6265L10.3388 17.1604C12.8004 21.1173 12.6802 20.9634 13.2427 20.9971C13.613 21.0211 13.9207 20.8961 14.113 20.6461C14.2813 20.4249 20.4787 1.83267 20.4787 1.54901C20.4787 1.43842 20.4594 1.33746 20.4402 1.32303C20.421 1.31342 17.642 4.07317 14.2716 7.46276Z" fill="black"/>
</svg>
