<svg width="53" height="53" viewBox="0 0 53 53" fill="none" xmlns="http://www.w3.org/2000/svg">
<path d="M37.5413 46.375V41.9583C37.5413 39.6156 36.6107 37.3688 34.9541 35.7122C33.2975 34.0557 31.0508 33.125 28.708 33.125H11.0413C8.6986 33.125 6.4518 34.0557 4.79523 35.7122C3.13866 37.3688 2.20801 39.6156 2.20801 41.9583V46.375" stroke="#060815" stroke-width="2" stroke-linecap="round" stroke-linejoin="round"/>
<path d="M19.8753 24.2917C24.7538 24.2917 28.7087 20.3368 28.7087 15.4583C28.7087 10.5798 24.7538 6.625 19.8753 6.625C14.9968 6.625 11.042 10.5798 11.042 15.4583C11.042 20.3368 14.9968 24.2917 19.8753 24.2917Z" stroke="#060815" stroke-width="2" stroke-linecap="round" stroke-linejoin="round"/>
<path d="M50.792 46.375V41.9584C50.7905 40.0012 50.1391 38.0999 48.94 36.5531C47.7409 35.0062 46.062 33.9014 44.167 33.4121" stroke="#060815" stroke-width="2" stroke-linecap="round" stroke-linejoin="round"/>
<path d="M35.333 6.91211C37.2331 7.39861 38.9172 8.50366 40.1199 10.053C41.3225 11.6024 41.9753 13.508 41.9753 15.4694C41.9753 17.4308 41.3225 19.3364 40.1199 20.8858C38.9172 22.4351 37.2331 23.5402 35.333 24.0267" stroke="#060815" stroke-width="2" stroke-linecap="round" stroke-linejoin="round"/>
</svg>
