<svg width="53" height="53" viewBox="0 0 53 53" fill="none" xmlns="http://www.w3.org/2000/svg">
<path d="M26.5 33.125C30.1589 33.125 33.125 30.1589 33.125 26.5C33.125 22.8411 30.1589 19.875 26.5 19.875C22.8411 19.875 19.875 22.8411 19.875 26.5C19.875 30.1589 22.8411 33.125 26.5 33.125Z" stroke="#060815" stroke-width="2" stroke-linecap="round" stroke-linejoin="round"/>
<path d="M42.8413 33.1252C42.5474 33.7912 42.4597 34.5301 42.5896 35.2465C42.7195 35.9628 43.061 36.6239 43.5701 37.1443L43.7026 37.2768C44.1132 37.687 44.439 38.1741 44.6613 38.7103C44.8835 39.2465 44.9979 39.8212 44.9979 40.4016C44.9979 40.982 44.8835 41.5568 44.6613 42.0929C44.439 42.6291 44.1132 43.1162 43.7026 43.5264C43.2924 43.9371 42.8053 44.2628 42.2691 44.4851C41.7329 44.7074 41.1582 44.8218 40.5778 44.8218C39.9974 44.8218 39.4227 44.7074 38.8865 44.4851C38.3503 44.2628 37.8632 43.9371 37.453 43.5264L37.3205 43.3939C36.8001 42.8848 36.139 42.5433 35.4226 42.4134C34.7063 42.2835 33.9674 42.3712 33.3013 42.6652C32.6482 42.9451 32.0911 43.4099 31.6988 44.0024C31.3064 44.5949 31.0958 45.2891 31.093 45.9997V46.3752C31.093 47.5465 30.6277 48.6699 29.7994 49.4982C28.9711 50.3265 27.8477 50.7918 26.6763 50.7918C25.505 50.7918 24.3816 50.3265 23.5533 49.4982C22.725 48.6699 22.2597 47.5465 22.2597 46.3752V46.1764C22.2426 45.4455 22.006 44.7366 21.5806 44.1419C21.1553 43.5472 20.5609 43.0942 19.8747 42.8418C19.2086 42.5479 18.4697 42.4602 17.7534 42.5901C17.037 42.72 16.376 43.0615 15.8555 43.5706L15.723 43.7031C15.3128 44.1137 14.8257 44.4395 14.2895 44.6618C13.7534 44.884 13.1786 44.9984 12.5982 44.9984C12.0178 44.9984 11.4431 44.884 10.9069 44.6618C10.3707 44.4395 9.88361 44.1137 9.47342 43.7031C9.06278 43.2929 8.73701 42.8058 8.51474 42.2696C8.29248 41.7334 8.17808 41.1587 8.17808 40.5783C8.17808 39.9979 8.29248 39.4231 8.51474 38.887C8.73701 38.3508 9.06278 37.8637 9.47342 37.4535L9.60592 37.321C10.115 36.8005 10.4565 36.1395 10.5864 35.4231C10.7163 34.7068 10.6286 33.9679 10.3347 33.3018C10.0547 32.6487 9.58993 32.0916 8.99745 31.6993C8.40498 31.3069 7.7107 31.0963 7.00009 31.0935H6.62467C5.4533 31.0935 4.32991 30.6282 3.50162 29.7999C2.67333 28.9716 2.20801 27.8482 2.20801 26.6768C2.20801 25.5055 2.67333 24.3821 3.50162 23.5538C4.32991 22.7255 5.4533 22.2602 6.62467 22.2602H6.82342C7.55437 22.2431 8.26327 22.0065 8.85796 21.5811C9.45265 21.1558 9.90563 20.5614 10.158 19.8752C10.452 19.2091 10.5397 18.4702 10.4098 17.7539C10.2799 17.0375 9.93836 16.3765 9.42926 15.856L9.29676 15.7235C8.88611 15.3133 8.56034 14.8262 8.33808 14.29C8.11581 13.7538 8.00141 13.1791 8.00141 12.5987C8.00141 12.0183 8.11581 11.4436 8.33808 10.9074C8.56034 10.3712 8.88611 9.8841 9.29676 9.47391C9.70695 9.06327 10.1941 8.7375 10.7302 8.51523C11.2664 8.29297 11.8411 8.17856 12.4216 8.17856C13.002 8.17856 13.5767 8.29297 14.1129 8.51523C14.649 8.7375 15.1362 9.06327 15.5463 9.47391L15.6788 9.60641C16.1993 10.1155 16.8603 10.457 17.5767 10.5869C18.2931 10.7168 19.0319 10.6291 19.698 10.3352H19.8747C20.5278 10.0552 21.0849 9.59041 21.4772 8.99794C21.8696 8.40547 22.0802 7.71119 22.083 7.00058V6.62516C22.083 5.45379 22.5483 4.33039 23.3766 3.50211C24.2049 2.67382 25.3283 2.2085 26.4997 2.2085C27.671 2.2085 28.7944 2.67382 29.6227 3.50211C30.451 4.33039 30.9163 5.45379 30.9163 6.62516V6.82391C30.9192 7.53452 31.1297 8.2288 31.5221 8.82127C31.9145 9.41375 32.4715 9.87856 33.1247 10.1585C33.7907 10.4525 34.5296 10.5401 35.246 10.4103C35.9623 10.2804 36.6234 9.93885 37.1438 9.42975L37.2763 9.29725C37.6865 8.8866 38.1736 8.56083 38.7098 8.33857C39.246 8.1163 39.8207 8.0019 40.4011 8.0019C40.9816 8.0019 41.5563 8.1163 42.0925 8.33857C42.6286 8.56083 43.1157 8.8866 43.5259 9.29725C43.9366 9.70744 44.2623 10.1945 44.4846 10.7307C44.7069 11.2669 44.8213 11.8416 44.8213 12.422C44.8213 13.0025 44.7069 13.5772 44.4846 14.1134C44.2623 14.6495 43.9366 15.1366 43.5259 15.5468L43.3934 15.6793C42.8843 16.1998 42.5428 16.8608 42.4129 17.5772C42.283 18.2936 42.3707 19.0324 42.6647 19.6985V19.8752C42.9446 20.5283 43.4094 21.0854 44.0019 21.4777C44.5944 21.8701 45.2886 22.0807 45.9993 22.0835H46.3747C47.5461 22.0835 48.6694 22.5488 49.4977 23.3771C50.326 24.2054 50.7913 25.3288 50.7913 26.5002C50.7913 27.6715 50.326 28.7949 49.4977 29.6232C48.6694 30.4515 47.5461 30.9168 46.3747 30.9168H46.1759C45.4653 30.9197 44.771 31.1302 44.1786 31.5226C43.5861 31.915 43.1213 32.472 42.8413 33.1252V33.1252Z" stroke="#060815" stroke-width="2" stroke-linecap="round" stroke-linejoin="round"/>
</svg>
