<svg width="44" height="44" viewBox="0 0 44 44" fill="none" xmlns="http://www.w3.org/2000/svg">
<path d="M1.68791 0.902585C1.13484 1.0834 0.273315 1.98747 0.113774 2.57245C0.0074127 2.94471 -0.0138595 7.4225 0.0074127 22.6853L0.039321 42.3195L0.358404 42.8407C0.560489 43.1597 0.879572 43.4788 1.19865 43.6809L1.71982 44H21.6306H41.5413L42.0625 43.6809C42.3816 43.4788 42.7007 43.1597 42.9027 42.8407L43.2218 42.3195L43.2537 32.1939C43.275 22.2598 43.275 22.0684 43.0729 21.8876C42.8815 21.7068 42.5837 21.6961 39.6162 21.7068C37.8187 21.7174 36.3616 21.7068 36.3616 21.6855C36.3616 21.6536 36.436 21.4409 36.5105 21.1962C37.606 18.1118 34.9789 14.7508 31.7242 15.0486C28.5653 15.3464 26.6295 18.5372 27.7995 21.5366C27.874 21.7068 27.7144 21.7174 25.1298 21.6961L22.3751 21.6642L22.3538 18.048C22.3219 14.5061 22.3219 14.4317 22.0986 14.2402C21.7582 13.9637 21.5136 14.0169 20.8116 14.4849C20.0245 15.006 19.4821 15.1656 18.6525 15.0911C17.525 15.006 16.5784 14.3572 16.036 13.3149C15.6956 12.6555 15.685 11.3579 16.0147 10.6452C16.8869 8.73074 19.2481 8.22021 20.9924 9.54972C21.4285 9.87944 21.8114 9.91135 22.1092 9.64545C22.3113 9.46463 22.3219 9.29446 22.3219 5.31656C22.3219 1.32803 22.3113 1.17912 22.1092 0.977037C21.8965 0.764316 21.7582 0.764316 11.9836 0.774952C5.07019 0.785588 1.94318 0.817496 1.68791 0.902585ZM20.9392 4.96557C20.9392 6.45462 20.8967 7.67777 20.8435 7.67777C20.7903 7.67777 20.567 7.61395 20.3436 7.52887C18.2483 6.80561 15.6956 7.90113 14.7278 9.94326C13.0792 13.4425 16.2487 17.3885 19.982 16.4632C20.3011 16.3887 20.6521 16.2824 20.7584 16.2398C20.9286 16.1654 20.9392 16.3143 20.918 18.9095L20.886 21.6642L17.2911 21.6749C14.0151 21.6961 13.6748 21.7068 13.4833 21.8769C13.1962 22.1428 13.2281 22.6321 13.5471 23.015C14.281 23.8872 14.5363 25.1316 14.196 26.1633C13.8131 27.3013 12.6537 28.1841 11.4093 28.2905C9.84579 28.4075 8.51628 27.4396 8.11211 25.8655C7.85684 24.8657 8.11211 23.8233 8.81409 23.0363C8.98427 22.8342 9.13317 22.547 9.13317 22.4087C9.13317 22.1322 8.80346 21.7174 8.5801 21.7068C8.50565 21.7068 6.87832 21.7068 4.96383 21.7174L1.47519 21.728V12.3576C1.47519 6.15681 1.5071 2.9128 1.58155 2.78517C1.86873 2.25337 1.60283 2.264 11.6114 2.25337H20.9392V4.96557ZM33.4579 16.8354C35.2979 17.7289 35.8404 20.0369 34.596 21.6749C34.1599 22.2492 34.1067 22.6002 34.4258 22.9086C34.6279 23.1214 34.7555 23.1214 38.2122 23.1107L41.786 23.0895V32.4918C41.786 41.809 41.786 41.9047 41.5732 42.1706C41.4456 42.3301 41.1691 42.5003 40.9563 42.5641C40.7011 42.6279 37.3826 42.6705 31.5009 42.6705H22.4283V39.9051C22.4283 38.3841 22.4496 37.1397 22.4708 37.1397C22.4921 37.1397 22.7048 37.2035 22.9388 37.2886C23.6727 37.5545 24.4491 37.5971 25.2788 37.4163C28.2569 36.7887 29.8523 33.6298 28.5547 30.907C27.5442 28.7691 25.0554 27.6949 22.875 28.4607L22.4283 28.6202V25.8655V23.1001H26.0126C29.1928 23.1001 29.6076 23.0788 29.7885 22.9193C30.0863 22.6534 30.0224 22.2067 29.6076 21.6642C28.7355 20.5155 28.7142 18.9627 29.5438 17.8246C30.4373 16.6227 32.1284 16.1866 33.4579 16.8354ZM6.8996 23.1639C6.8996 23.1958 6.82514 23.4936 6.72942 23.8127C6.60179 24.2382 6.56988 24.6955 6.60179 25.3869C6.63369 26.259 6.68687 26.4611 7.03787 27.1737C8.77155 30.673 13.6961 30.6198 15.3766 27.0886C15.9403 25.8974 15.9722 24.4721 15.4616 23.2809C15.3872 23.1107 15.5361 23.1001 18.1313 23.1214L20.886 23.1533L20.918 26.7589C20.9392 29.9391 20.9605 30.3964 21.12 30.5666C21.3859 30.8644 21.8327 30.8006 22.3645 30.3964C24.4385 28.8223 27.3315 30.0986 27.5017 32.6726C27.6506 34.8211 25.6085 36.5228 23.577 35.9272C23.2579 35.8421 22.8325 35.64 22.6304 35.5018C22.4283 35.3529 22.1624 35.1508 22.0347 35.0551C21.7369 34.8423 21.1945 34.9381 21.0456 35.2359C20.9711 35.3635 20.918 36.8206 20.9073 39.0329L20.886 42.6173L11.9517 42.6492C7.03786 42.6705 2.8047 42.6492 2.54944 42.6173C2.23035 42.5641 1.97509 42.4471 1.773 42.245L1.47519 41.9472V32.5237V23.1001H4.18739C5.67645 23.1001 6.8996 23.132 6.8996 23.1639Z" fill="#141414"/>
</svg>
