<svg width="45" height="45" viewBox="0 0 45 45" fill="none" xmlns="http://www.w3.org/2000/svg">
<path d="M9.0166 6.4248C8.47168 6.55664 7.67188 7.02246 7.28516 7.44434C7.0918 7.65527 6.80176 8.09473 6.65234 8.41992L6.37109 9.00879V13.7988V18.5889L6.65234 19.1777C7.03906 19.9951 7.53125 20.5049 8.33105 20.9004L8.99902 21.2256L13.4814 21.252L17.9639 21.2783L19.6162 19.6172L21.2773 17.9648L21.251 13.4824L21.2246 9L20.8994 8.33203C20.5039 7.53223 19.9941 7.04004 19.1768 6.65332L18.5879 6.37207L13.9736 6.35449C11.3633 6.3457 9.20996 6.38086 9.0166 6.4248ZM18.4033 7.83984C18.8867 7.98047 19.6162 8.70996 19.7568 9.19336C19.8359 9.45703 19.8623 10.6523 19.8623 13.4561V17.3584L18.6143 18.6064L17.3574 19.8633H13.4551C10.6514 19.8633 9.45605 19.8369 9.19238 19.7578C8.70898 19.6172 7.97949 18.8877 7.83887 18.4043C7.68945 17.8857 7.68945 9.71191 7.83887 9.19336C7.9707 8.74512 8.70898 7.98926 9.13965 7.84863C9.59668 7.70801 17.9199 7.69922 18.4033 7.83984Z" fill="white"/>
<path d="M26.4189 6.4248C25.874 6.55664 25.0742 7.02246 24.6875 7.44434C24.4941 7.65527 24.2041 8.09473 24.0547 8.41992L23.7734 9.00879V13.7988V18.5889L24.0547 19.1777C24.4414 19.9951 24.9336 20.5049 25.7334 20.9004L26.4014 21.2256L30.8838 21.252L35.3662 21.2783L37.0186 19.6172L38.6797 17.9648L38.6533 13.4824L38.627 9L38.3018 8.33203C37.9062 7.53223 37.3965 7.04004 36.5791 6.65332L35.9902 6.37207L31.376 6.35449C28.7656 6.3457 26.6123 6.38086 26.4189 6.4248ZM35.8057 7.83984C36.2891 7.98047 37.0186 8.70996 37.1592 9.19336C37.2383 9.45703 37.2646 10.6523 37.2646 13.4561V17.3584L36.0166 18.6064L34.7598 19.8633H30.8574C28.0537 19.8633 26.8584 19.8369 26.5947 19.7578C26.1113 19.6172 25.3818 18.8877 25.2412 18.4043C25.1621 18.1406 25.1357 16.875 25.1357 13.7988C25.1357 10.7227 25.1621 9.45703 25.2412 9.19336C25.373 8.74512 26.1113 7.98926 26.542 7.84863C26.999 7.70801 35.3223 7.69922 35.8057 7.83984Z" fill="white"/>
<path d="M9.0166 23.8271C8.47168 23.959 7.67188 24.4248 7.28516 24.8467C7.0918 25.0576 6.80176 25.4971 6.65234 25.8223L6.37109 26.4111V31.2012V35.9912L6.65234 36.5801C7.03906 37.3975 7.53125 37.9072 8.33105 38.3027L8.99902 38.6279L13.4814 38.6543L17.9639 38.6807L19.6162 37.0195L21.2773 35.3672L21.251 30.8848L21.2246 26.4023L20.8994 25.7344C20.5039 24.9346 19.9941 24.4424 19.1768 24.0557L18.5879 23.7744L13.9736 23.7568C11.3633 23.748 9.20996 23.7832 9.0166 23.8271ZM18.4033 25.2422C18.8867 25.3828 19.6162 26.1123 19.7568 26.5957C19.8359 26.8594 19.8623 28.0547 19.8623 30.8584V34.7607L18.6143 36.0088L17.3574 37.2656H13.4551C10.6514 37.2656 9.45605 37.2393 9.19238 37.1602C8.70898 37.0195 7.97949 36.29 7.83887 35.8066C7.68945 35.2881 7.68945 27.1143 7.83887 26.5957C7.9707 26.1475 8.70898 25.3916 9.13965 25.251C9.59668 25.1104 17.9199 25.1016 18.4033 25.2422Z" fill="white"/>
<path d="M28.7822 23.9502L28.5625 24.1611V26.3672V28.5645H26.3652H24.1592L23.9482 28.7842L23.7285 28.9951V31.2012V33.4072L23.9482 33.6182L24.1592 33.8379H26.3652H28.5625V36.0352V38.2412L28.7822 38.4521L28.9932 38.6719H31.1992H33.4053L33.6162 38.4521L33.8359 38.2412V36.0352V33.8379H36.0332H38.2393L38.4502 33.6182L38.6699 33.4072V31.2012V28.9951L38.4502 28.7842L38.2393 28.5645H36.0332H33.8359V26.3672V24.1611L33.6162 23.9502L33.4053 23.7305H31.1992H28.9932L28.7822 23.9502ZM32.4297 27.334V29.54L32.6494 29.751L32.8604 29.9707H35.0664H37.2637V31.2012V32.4316H35.0664H32.8604L32.6494 32.6514L32.4297 32.8623V35.0684V37.2656H31.1992H29.9688V35.0684V32.8623L29.749 32.6514L29.5381 32.4316H27.332H25.1348V31.2012V29.9707H27.332H29.5381L29.749 29.751L29.9688 29.54V27.334V25.1367H31.1992H32.4297V27.334Z" fill="white"/>
</svg>
