<svg width="48" height="48" viewBox="0 0 48 48" fill="none" xmlns="http://www.w3.org/2000/svg">
<path d="M22.9219 0.327707L22.6875 0.552707V3.23396V5.91521L22.9219 6.14021C23.1938 6.42146 23.6156 6.44021 23.9156 6.19646L24.1406 6.01833V3.23396V0.449582L23.9156 0.271457C23.6156 0.0277071 23.1938 0.0464573 22.9219 0.327707Z" fill="white"/>
<path d="M34.5281 7.52812C32.8406 9.21562 32.625 9.46875 32.625 9.74062C32.625 10.1437 32.9813 10.5 33.3938 10.5C33.6656 10.5 33.9 10.2937 35.5969 8.59687C37.2938 6.9 37.5 6.66562 37.5 6.39375C37.5 5.98125 37.1438 5.625 36.7406 5.625C36.4688 5.625 36.2156 5.84062 34.5281 7.52812Z" fill="white"/>
<path d="M15.9289 7.71562C14.8602 8.08125 14.0445 8.79375 13.5477 9.77812L13.3133 10.2562L12.6758 10.2937C10.3227 10.4156 8.29766 12.4031 8.02578 14.8594C7.96953 15.3562 8.07266 16.4437 8.21328 16.8094C8.24141 16.8937 8.05391 17.0625 7.63203 17.3062C6.46016 17.9906 5.46641 19.35 5.11016 20.7656C4.93203 21.4781 4.93203 22.9594 5.11016 23.6719C5.36328 24.6844 5.87891 25.575 6.60078 26.3062C6.96641 26.6719 7.49141 27.0938 7.76328 27.2437C8.16641 27.4594 8.25078 27.5531 8.20391 27.7031C7.85703 28.9031 7.96016 30.1031 8.52266 31.2656C9.33828 32.9719 10.8008 33.9844 12.732 34.1719C13.3133 34.2375 13.3977 34.2656 13.4445 34.4531C13.4727 34.575 13.6508 34.8656 13.8383 35.1094C14.0164 35.3531 14.157 35.5594 14.1383 35.5781C14.1195 35.5875 13.9414 35.6906 13.7352 35.7937C12.8914 36.2156 12.3758 36.9937 12.3008 37.9312C12.2445 38.7281 12.3289 39.0938 12.7039 39.6375C12.9945 40.0687 13.0133 40.125 12.8727 40.2375C12.5633 40.4906 12.282 41.2687 12.282 41.8687C12.282 43.4344 13.2945 44.4937 14.9164 44.5969L15.6383 44.6531L15.6945 45.1312C15.8258 46.1625 16.557 47.1656 17.5133 47.6062L18.0477 47.8594H21.6102H25.1727L25.8008 47.55C26.7852 47.0719 27.432 46.1625 27.5352 45.1406L27.5914 44.6531L28.3039 44.5969C29.1664 44.5406 29.5695 44.3812 30.0945 43.9125C31.0977 43.0031 31.2852 41.475 30.5164 40.4531C30.2727 40.1344 30.2258 40.0219 30.3195 39.9469C30.3852 39.8906 30.5633 39.6281 30.7039 39.3562C30.9383 38.9437 30.9758 38.7562 30.9758 38.2031C30.9664 36.8062 29.982 35.6812 28.6602 35.55L28.2008 35.5031L28.2664 34.9781C28.4445 33.4781 28.9977 31.9125 29.7758 30.7312C30.0289 30.3469 30.7977 29.475 31.5477 28.725C33.7977 26.4656 34.8289 24.6562 35.4102 21.9375C35.6727 20.6906 35.6445 18.15 35.3539 16.9687C34.3602 12.9469 31.6227 9.75 27.882 8.25937C26.2883 7.62187 24.2445 7.32187 23.6445 7.63125C23.307 7.80937 22.9133 8.24062 22.7914 8.55937C22.7164 8.74687 22.6883 12.975 22.6883 22.1812V35.5312H21.657H20.6164L20.9539 35.0437C21.1414 34.7719 21.3664 34.275 21.4695 33.9469C21.6477 33.375 21.657 33.0469 21.657 22.275C21.657 10.35 21.6664 10.6969 21.1789 9.73125C20.9164 9.225 20.1195 8.39062 19.6133 8.09062C18.5633 7.47187 17.082 7.32187 15.9289 7.71562ZM26.1289 9.24375C29.5414 10.0875 32.3633 12.7406 33.5164 16.1625C33.9758 17.5406 34.0695 18.1312 34.0602 19.8281C34.0602 21.2437 34.032 21.525 33.8164 22.3406C33.5352 23.3812 32.9258 24.7312 32.3352 25.6031C32.1195 25.9312 31.2383 26.925 30.3852 27.7969C29.2414 28.9688 28.707 29.5969 28.3789 30.15C27.507 31.6125 27.0102 33.0469 26.8039 34.7062L26.6914 35.5312H25.4445H24.1883V22.2844C24.1883 14.9906 24.2164 9.00937 24.2445 8.97187C24.3383 8.8875 25.182 9.00937 26.1289 9.24375ZM18.6102 9.2625C19.2383 9.5625 19.707 10.0406 20.007 10.6781C20.2039 11.1094 20.2039 11.1187 20.2039 22.2187V33.3281L19.9602 33.8437C19.4633 34.9125 18.5445 35.4844 17.3445 35.475C16.1727 35.4656 15.3945 34.9969 14.8977 33.9844C14.3727 32.925 14.532 31.9125 15.2914 31.4344C15.8258 31.0969 15.9383 30.9562 15.9383 30.6281C15.9383 30.225 15.6477 29.9062 15.2727 29.9062C14.382 29.9062 13.2852 31.1156 13.1539 32.2687L13.0977 32.7375L12.6852 32.6719C10.7633 32.3906 9.56328 31.0312 9.56328 29.1562C9.56328 27.5437 10.4445 26.2969 11.9727 25.7719C12.6477 25.5375 12.9383 25.275 12.9383 24.9187C12.9383 24.5625 12.5633 24.1875 12.207 24.1875C11.5414 24.1875 10.3695 24.8156 9.49766 25.65L8.95391 26.1656L8.62578 26.0156C7.33203 25.3969 6.47891 23.925 6.46953 22.3125C6.46953 20.9625 6.85391 19.9875 7.71641 19.1156C8.40078 18.4406 9.23516 18.0562 10.1352 18.0094C10.9883 17.9719 11.4852 18.15 12.1133 18.7312C12.6195 19.1906 12.8539 19.2656 13.2008 19.0875C13.7258 18.8156 13.7445 18.2719 13.2477 17.7656C12.4977 16.9875 11.3445 16.5 10.2664 16.5H9.67578L9.57266 16.0312C9.42266 15.3562 9.44141 15.0094 9.65703 14.3344C10.1352 12.8156 11.532 11.7937 13.1445 11.7844C13.7914 11.775 13.932 11.8125 14.5789 12.1312C15.1602 12.4219 15.3758 12.5906 15.7602 13.0875C16.2664 13.7156 16.5008 13.8469 16.8852 13.7062C17.1945 13.5844 17.3727 13.3594 17.3727 13.0781C17.3727 12.4875 16.2758 11.2875 15.3102 10.8094C14.7477 10.5375 14.7477 10.5 15.357 9.825C16.1352 8.9625 17.4852 8.7375 18.6102 9.2625ZM28.9695 37.1719C29.2977 37.3406 29.532 37.7531 29.532 38.1562C29.532 38.3156 29.4664 38.5687 29.3914 38.7188C29.0914 39.3 29.3914 39.2812 21.5539 39.2812H14.4195L14.1008 38.9625C13.8195 38.6812 13.782 38.5781 13.782 38.175C13.782 37.6781 14.007 37.275 14.382 37.125C14.4852 37.0781 17.757 37.0406 21.6383 37.0406C27.7695 37.0312 28.7352 37.05 28.9695 37.1719ZM28.8289 40.9125C29.2039 41.0719 29.532 41.55 29.532 41.9344C29.532 42.3094 29.2883 42.7312 28.9414 42.9375C28.6508 43.1156 28.4164 43.125 21.6758 43.125C15.4133 43.125 14.6633 43.1062 14.382 42.975C13.7539 42.675 13.5758 41.7937 14.0352 41.25C14.1664 41.0812 14.3727 40.9125 14.4758 40.875C14.5883 40.8281 17.7852 40.7906 21.5914 40.7906C27.4039 40.7812 28.557 40.8 28.8289 40.9125ZM26.0914 44.925C25.9977 45.4406 25.6602 45.9469 25.257 46.1812L24.8633 46.4156L21.5445 46.3875L18.2164 46.3594L17.8789 46.0969C17.4945 45.8062 17.157 45.225 17.157 44.8594V44.625H21.657H26.157L26.0914 44.925Z" fill="white"/>
<path d="M25.8374 10.9971C25.5842 11.2503 25.528 11.6065 25.678 11.8971C25.7342 11.9909 26.2686 12.3096 26.878 12.6096C27.8717 13.1065 28.078 13.2565 28.8842 14.0534C29.4374 14.6065 29.9342 15.2065 30.1686 15.6096C30.7217 16.5565 31.1155 17.8128 31.2186 18.9471C31.2842 19.7346 31.3311 19.9315 31.5092 20.119C31.7717 20.4003 32.1467 20.4096 32.4842 20.1378L32.7467 19.9315L32.6905 18.9471C32.5124 15.7503 30.4874 12.7128 27.5905 11.2878C26.4561 10.7346 26.1561 10.6878 25.8374 10.9971Z" fill="white"/>
<path d="M36.9469 19.275C36.8344 19.4156 36.75 19.6219 36.75 19.7344C36.75 19.8469 36.8344 20.0531 36.9469 20.1937L37.1344 20.4375H39.9C42.5344 20.4375 42.6656 20.4281 42.8438 20.25C42.9563 20.1375 43.0313 19.9406 43.0313 19.7344C43.0313 19.5281 42.9563 19.3312 42.8438 19.2188C42.6656 19.0406 42.5344 19.0312 39.9 19.0312H37.1344L36.9469 19.275Z" fill="white"/>
<path d="M33.0947 28.9971C32.7854 29.1471 32.5791 29.5315 32.6541 29.8221C32.6822 29.944 33.5729 30.9096 34.6322 31.9596C36.4979 33.8158 36.5635 33.8721 36.8635 33.8065C37.2479 33.7315 37.501 33.4408 37.501 33.0565C37.501 32.8033 37.2666 32.5315 35.6072 30.8721C34.5572 29.8408 33.6197 28.9596 33.5166 28.9315C33.4135 28.9033 33.226 28.9315 33.0947 28.9971Z" fill="white"/>
</svg>
