<svg width="17" height="19" viewBox="0 0 17 19" fill="none" xmlns="http://www.w3.org/2000/svg">
<path d="M7.95641 0.0919933C6.71032 0.290236 5.66813 1.07188 5.13004 2.20469C4.8695 2.7541 4.76188 3.2752 4.76188 4.04551V4.68555H3.48747C2.13942 4.68555 1.93551 4.71953 1.85055 4.95176C1.77692 5.13301 0.111685 17.9055 0.140006 18.0301C0.156998 18.0924 0.360904 18.3246 0.593131 18.5512L1.01227 18.959H8.4945H15.9711L16.2713 18.6928C16.6224 18.3813 16.883 18.0697 16.883 17.9621C16.883 17.7979 15.1838 5.03106 15.1498 4.94043C15.0648 4.71953 14.8496 4.68555 13.5129 4.68555H12.2384V4.04551C12.2384 3.28086 12.1308 2.7541 11.8759 2.22168C11.4115 1.2418 10.6355 0.556446 9.62731 0.239258C9.14586 0.0919933 8.40387 0.024025 7.95641 0.0919933ZM9.42907 1.11719C9.88219 1.27012 10.256 1.51934 10.5959 1.89317C11.1453 2.49356 11.3322 3.03731 11.3322 4.01719V4.68555H8.50016H5.66813V4.10215C5.66813 3.78496 5.70778 3.36016 5.75309 3.16191C5.99665 2.13106 6.8236 1.29844 7.85446 1.03223C8.28493 0.92461 8.98727 0.958595 9.42907 1.11719ZM14.3568 5.74473C14.4078 6.00527 15.9201 17.5203 15.9201 17.6619C15.9201 17.7299 15.8634 17.8488 15.7955 17.9225L15.6765 18.0527H8.50016H1.32946L1.18219 17.8941L1.04059 17.7412L1.85055 11.6807C2.29235 8.34453 2.66051 5.61445 2.66051 5.60313C2.66618 5.59746 5.28864 5.5918 8.4945 5.5918H14.3228L14.3568 5.74473Z" fill="#ABABAB"/>
</svg>
