<svg width="14" height="16" viewBox="0 0 14 16" fill="none" xmlns="http://www.w3.org/2000/svg">
<mask id="path-1-inside-1_275_787" fill="white">
<path d="M6.53602 0.0223999C5.49409 0.190282 4.62266 0.852219 4.17274 1.81155C3.95488 2.27682 3.8649 2.71811 3.8649 3.37045V3.91247H2.79929C1.67212 3.91247 1.50162 3.94125 1.43058 4.13791C1.36901 4.29141 -0.0233815 15.1078 0.000298617 15.2134C0.0145067 15.2661 0.185004 15.4628 0.379181 15.6546L0.729647 16H6.98594H13.2375L13.4885 15.7746C13.7821 15.5107 14 15.2469 14 15.1558C14 15.0167 12.5792 4.20507 12.5508 4.12832C12.4797 3.94125 12.2998 3.91247 11.1821 3.91247H10.1165V3.37045C10.1165 2.72291 10.0265 2.27682 9.81335 1.82594C9.425 0.996118 8.77616 0.415724 7.93315 0.147113C7.53059 0.0223999 6.91017 -0.0351601 6.53602 0.0223999ZM7.76739 0.890592C8.14627 1.0201 8.45885 1.23115 8.74301 1.54773C9.2024 2.05617 9.35869 2.51665 9.35869 3.34647V3.91247H6.99068H4.62266V3.41842C4.62266 3.14981 4.65582 2.79006 4.6937 2.62218C4.89735 1.74919 5.58881 1.04408 6.45077 0.818642C6.81071 0.727506 7.39798 0.756286 7.76739 0.890592ZM11.8877 4.80944C11.9304 5.03009 13.1949 14.7817 13.1949 14.9016C13.1949 14.9591 13.1475 15.0599 13.0907 15.1222L12.9912 15.2325H6.99068H0.994865L0.871728 15.0982L0.753327 14.9687L1.43058 9.83632C1.79999 7.0111 2.10783 4.69912 2.10783 4.68953C2.11257 4.68473 4.30535 4.67994 6.98594 4.67994H11.8593L11.8877 4.80944Z"/>
</mask>
<path d="M6.53602 0.0223999C5.49409 0.190282 4.62266 0.852219 4.17274 1.81155C3.95488 2.27682 3.8649 2.71811 3.8649 3.37045V3.91247H2.79929C1.67212 3.91247 1.50162 3.94125 1.43058 4.13791C1.36901 4.29141 -0.0233815 15.1078 0.000298617 15.2134C0.0145067 15.2661 0.185004 15.4628 0.379181 15.6546L0.729647 16H6.98594H13.2375L13.4885 15.7746C13.7821 15.5107 14 15.2469 14 15.1558C14 15.0167 12.5792 4.20507 12.5508 4.12832C12.4797 3.94125 12.2998 3.91247 11.1821 3.91247H10.1165V3.37045C10.1165 2.72291 10.0265 2.27682 9.81335 1.82594C9.425 0.996118 8.77616 0.415724 7.93315 0.147113C7.53059 0.0223999 6.91017 -0.0351601 6.53602 0.0223999ZM7.76739 0.890592C8.14627 1.0201 8.45885 1.23115 8.74301 1.54773C9.2024 2.05617 9.35869 2.51665 9.35869 3.34647V3.91247H6.99068H4.62266V3.41842C4.62266 3.14981 4.65582 2.79006 4.6937 2.62218C4.89735 1.74919 5.58881 1.04408 6.45077 0.818642C6.81071 0.727506 7.39798 0.756286 7.76739 0.890592ZM11.8877 4.80944C11.9304 5.03009 13.1949 14.7817 13.1949 14.9016C13.1949 14.9591 13.1475 15.0599 13.0907 15.1222L12.9912 15.2325H6.99068H0.994865L0.871728 15.0982L0.753327 14.9687L1.43058 9.83632C1.79999 7.0111 2.10783 4.69912 2.10783 4.68953C2.11257 4.68473 4.30535 4.67994 6.98594 4.67994H11.8593L11.8877 4.80944Z" fill="black"/>
<path d="M6.53602 0.0223999L6.21787 -1.95213L6.22489 -1.95326L6.23191 -1.95434L6.53602 0.0223999ZM4.17274 1.81155L2.36146 0.963443L2.36199 0.96231L4.17274 1.81155ZM3.8649 3.91247H5.8649V5.91247H3.8649V3.91247ZM1.43058 4.13791L3.31162 4.8174L3.29978 4.85016L3.28682 4.88248L1.43058 4.13791ZM0.000298617 15.2134L-1.93091 15.7334L-1.94191 15.6925L-1.95117 15.6513L0.000298617 15.2134ZM0.379181 15.6546L-1.02461 17.0792L-1.02654 17.0773L0.379181 15.6546ZM0.729647 16V18H-0.0901924L-0.674147 17.4246L0.729647 16ZM13.2375 16L14.5739 17.488L14.0038 18H13.2375V16ZM13.4885 15.7746L14.8252 17.2623L14.8249 17.2625L13.4885 15.7746ZM12.5508 4.12832L14.4205 3.41829L14.4234 3.42607L14.4263 3.43387L12.5508 4.12832ZM10.1165 3.91247V5.91247H8.11646V3.91247H10.1165ZM9.81335 1.82594L8.00516 2.68062L8.00191 2.67369L9.81335 1.82594ZM7.93315 0.147113L8.52499 -1.76331L8.53267 -1.76093L8.54034 -1.75849L7.93315 0.147113ZM7.76739 0.890592L7.1205 2.78308L7.10219 2.77683L7.08401 2.77022L7.76739 0.890592ZM8.74301 1.54773L7.25902 2.88856L7.25465 2.88369L8.74301 1.54773ZM9.35869 3.91247H11.3587V5.91247H9.35869V3.91247ZM4.62266 3.91247V5.91247H2.62266V3.91247H4.62266ZM4.6937 2.62218L2.74277 2.18188L2.74436 2.17485L2.746 2.16782L4.6937 2.62218ZM6.45077 0.818642L5.9447 -1.11627L5.95227 -1.11825L5.95986 -1.12017L6.45077 0.818642ZM11.8877 4.80944L13.8413 4.38081L13.8467 4.40539L13.8514 4.4301L11.8877 4.80944ZM13.0907 15.1222L11.6052 13.783L11.6125 13.775L13.0907 15.1222ZM12.9912 15.2325L14.4767 16.5717L13.881 17.2325H12.9912V15.2325ZM0.994865 15.2325V17.2325H0.115173L-0.479318 16.5841L0.994865 15.2325ZM0.871728 15.0982L-0.602456 16.4498L-0.604373 16.4477L0.871728 15.0982ZM0.753327 14.9687L-0.722774 16.3182L-1.35136 15.6307L-1.22948 14.7071L0.753327 14.9687ZM1.43058 9.83632L3.4137 10.0956L3.41339 10.098L1.43058 9.83632ZM2.10783 4.68953H0.107832V3.86854L0.684655 3.28434L2.10783 4.68953ZM11.8593 4.67994V2.67994H13.4681L13.8128 4.2513L11.8593 4.67994ZM6.85417 1.99693C6.47247 2.05843 6.15568 2.29362 5.98349 2.66078L2.36199 0.96231C3.08964 -0.589186 4.51571 -1.67787 6.21787 -1.95213L6.85417 1.99693ZM5.98402 2.65965C5.91533 2.80634 5.8649 2.94628 5.8649 3.37045H1.8649C1.8649 2.48994 1.99443 1.7473 2.36146 0.963444L5.98402 2.65965ZM5.8649 3.37045V3.91247H1.8649V3.37045H5.8649ZM3.8649 5.91247H2.79929V1.91247H3.8649V5.91247ZM2.79929 5.91247C2.52035 5.91247 2.32617 5.91434 2.18559 5.91896C2.03274 5.92399 2.00874 5.93067 2.0448 5.92471C2.06279 5.92174 2.34335 5.88068 2.65886 5.66095C2.83246 5.54006 2.9838 5.38836 3.10451 5.21513C3.21899 5.05082 3.28056 4.90337 3.31162 4.8174L-0.450456 3.45843C-0.338989 3.14985 -0.108225 2.71358 0.37294 2.37849C0.775627 2.09806 1.18258 2.01293 1.39297 1.97818C1.78376 1.91363 2.29669 1.91247 2.79929 1.91247V5.91247ZM3.28682 4.88248C3.33632 4.75907 3.36155 4.65833 3.36556 4.64278C3.37459 4.60776 3.38043 4.58086 3.38291 4.56921C3.38583 4.5555 3.38777 4.54548 3.38864 4.54093C3.38959 4.53592 3.3901 4.53306 3.39011 4.53298C3.39015 4.53275 3.38993 4.53399 3.38943 4.53699C3.38893 4.53992 3.38825 4.54399 3.38738 4.54932C3.38562 4.56013 3.38336 4.57436 3.38056 4.59243C3.36903 4.66695 3.35238 4.78076 3.33078 4.93352C3.28791 5.23678 3.22933 5.66651 3.16012 6.18367C3.02188 7.2166 2.84324 8.58289 2.66705 9.94938C2.49087 11.3158 2.31753 12.6793 2.18986 13.7065C2.12595 14.2208 2.07392 14.6472 2.0388 14.9465C2.0211 15.0974 2.00849 15.2092 2.00089 15.2817C1.99905 15.2993 1.99767 15.3129 1.99668 15.3231C1.99564 15.3339 1.99531 15.3379 1.99539 15.337C1.99544 15.3364 1.99575 15.3326 1.99617 15.3265C1.99655 15.321 1.99736 15.3087 1.99813 15.292C1.99872 15.279 2.00026 15.2433 1.99996 15.1962C1.99981 15.1728 1.99915 15.1307 1.99561 15.0779C1.9931 15.0405 1.98483 14.9228 1.95177 14.7754L-1.95117 15.6513C-1.98442 15.5031 -1.99283 15.3843 -1.99544 15.3454C-1.99908 15.2911 -1.9998 15.2472 -1.99996 15.2216C-2.00028 15.1704 -1.9986 15.1291 -1.9977 15.1092C-1.99574 15.0665 -1.99281 15.0292 -1.9911 15.0085C-1.98732 14.9626 -1.98225 14.9119 -1.97733 14.8648C-1.9671 14.7672 -1.95217 14.6357 -1.93394 14.4804C-1.89721 14.1673 -1.84385 13.7302 -1.7796 13.2132C-1.65093 12.1779 -1.47676 10.8079 -1.30011 9.43786C-1.12347 8.06787 -0.943938 6.69468 -0.804531 5.65306C-0.734922 5.13295 -0.674799 4.69164 -0.629834 4.37359C-0.607511 4.21569 -0.587954 4.08127 -0.572343 3.98044C-0.564771 3.93153 -0.556458 3.87965 -0.548129 3.8328C-0.544207 3.81074 -0.537804 3.77571 -0.529449 3.73646C-0.525368 3.71729 -0.518085 3.68413 -0.507771 3.64413C-0.502477 3.6236 -0.476123 3.51916 -0.425658 3.39335L3.28682 4.88248ZM1.93151 14.6933C1.89079 14.5421 1.84059 14.4286 1.81236 14.369C1.78112 14.303 1.75221 14.2519 1.73328 14.22C1.69634 14.1577 1.66575 14.1151 1.65484 14.1001C1.6317 14.0683 1.62213 14.0586 1.63775 14.0767C1.66508 14.1085 1.71836 14.1662 1.7849 14.232L-1.02654 17.0773C-1.15417 16.9512 -1.28323 16.8147 -1.39325 16.6869C-1.4463 16.6253 -1.51329 16.5445 -1.57846 16.4551C-1.61039 16.4112 -1.65815 16.3431 -1.70789 16.2592C-1.73817 16.2081 -1.85646 16.0099 -1.93091 15.7334L1.93151 14.6933ZM1.78297 14.2301L2.13344 14.5754L-0.674147 17.4246L-1.02461 17.0792L1.78297 14.2301ZM0.729647 14H6.98594V18H0.729647V14ZM6.98594 14H13.2375V18H6.98594V14ZM11.9011 14.512L12.1521 14.2866L14.8249 17.2625L14.5739 17.488L11.9011 14.512ZM12.1519 14.2868C12.2427 14.2052 12.2979 14.1443 12.3127 14.1264C12.323 14.1139 12.2919 14.1491 12.2466 14.2245C12.224 14.2621 12.1773 14.3437 12.1312 14.4598C12.1074 14.5198 12.0772 14.6053 12.0519 14.7116C12.0272 14.8153 12 14.9682 12 15.1558H16C16 15.5272 15.8986 15.8106 15.849 15.9356C15.7898 16.0846 15.7237 16.2039 15.6762 16.2831C15.5809 16.4419 15.4769 16.5767 15.3961 16.6745C15.2285 16.8772 15.028 17.0801 14.8252 17.2623L12.1519 14.2868ZM12 15.1558C12 15.2909 12.0178 15.4212 12.0078 15.33C12.0062 15.3156 12.0032 15.2892 11.9983 15.248C11.9886 15.167 11.9739 15.0484 11.9546 14.8949C11.9161 14.5891 11.8608 14.1577 11.794 13.6411C11.6606 12.6087 11.4824 11.2434 11.3031 9.87927C11.1238 8.51514 10.9438 7.15371 10.8068 6.12912C10.7383 5.61649 10.6808 5.18997 10.6397 4.89011C10.6191 4.73958 10.6031 4.62437 10.592 4.54724C10.5863 4.50769 10.5828 4.48408 10.5811 4.47277C10.58 4.4658 10.5808 4.47184 10.5831 4.48455C10.584 4.4897 10.5874 4.50901 10.5927 4.53489C10.5953 4.54741 10.6006 4.57301 10.6086 4.60542C10.6122 4.62008 10.6339 4.71113 10.6752 4.82277L14.4263 3.43387C14.4679 3.54611 14.4899 3.63809 14.4938 3.654C14.502 3.68766 14.5077 3.71485 14.5107 3.72927C14.5168 3.75894 14.5211 3.78334 14.5232 3.79485C14.5276 3.82028 14.5314 3.84412 14.5338 3.85985C14.5391 3.89397 14.5452 3.93545 14.5515 3.97933C14.5643 4.06907 14.5817 4.19415 14.6027 4.34686C14.6447 4.6535 14.7029 5.08532 14.7716 5.59924C14.909 6.62776 15.0895 7.99232 15.269 9.35808C15.4485 10.7238 15.6272 12.0923 15.7611 13.1286C15.828 13.6464 15.8839 14.083 15.9232 14.3954C15.9428 14.5511 15.9587 14.679 15.9698 14.7718C15.9753 14.8174 15.9802 14.8596 15.984 14.8943C15.9858 14.9108 15.9882 14.9326 15.9903 14.9553C15.9913 14.9663 15.993 14.9845 15.9945 15.0063C15.9951 15.0136 16 15.0771 16 15.1558H12ZM10.6811 4.83836C10.7187 4.93739 10.7883 5.09181 10.9127 5.25903C11.0423 5.4333 11.199 5.57794 11.369 5.68923C11.6742 5.88892 11.9382 5.92438 11.9469 5.92575C11.9757 5.9303 11.9458 5.92376 11.7933 5.91886C11.6521 5.91433 11.4582 5.91247 11.1821 5.91247V1.91247C11.6853 1.91247 12.188 1.91425 12.571 1.97474C12.7733 2.00669 13.1654 2.08442 13.5592 2.34212C14.0401 2.65679 14.2923 3.08081 14.4205 3.41829L10.6811 4.83836ZM11.1821 5.91247H10.1165V1.91247H11.1821V5.91247ZM8.11646 3.91247V3.37045H12.1165V3.91247H8.11646ZM8.11646 3.37045C8.11646 2.94389 8.06357 2.80418 8.00517 2.68062L11.6215 0.971254C11.9894 1.74946 12.1165 2.50193 12.1165 3.37045H8.11646ZM8.00191 2.67369C7.83955 2.32677 7.61473 2.14473 7.32596 2.05272L8.54034 -1.75849C9.93759 -1.31328 11.0104 -0.334534 11.6248 0.978183L8.00191 2.67369ZM7.3413 2.05754C7.33292 2.05494 7.29868 2.0454 7.23822 2.03436C7.18009 2.02374 7.1131 2.01454 7.04397 2.00829C6.9744 2.00201 6.91391 1.99973 6.86836 2.00002C6.81809 2.00035 6.81102 2.00362 6.84013 1.99914L6.23191 -1.95434C6.94818 -2.06454 7.87654 -1.9642 8.52499 -1.76331L7.3413 2.05754ZM8.41428 -1.0019C9.13889 -0.754215 9.73516 -0.341045 10.2314 0.211773L7.25465 2.88369C7.20997 2.83391 7.18308 2.81433 7.17296 2.80751C7.16405 2.8015 7.15052 2.79335 7.1205 2.78308L8.41428 -1.0019ZM10.227 0.206908C10.5929 0.611855 10.9118 1.08335 11.1157 1.6799C11.3109 2.2511 11.3587 2.81699 11.3587 3.34647H7.35869C7.35869 3.04613 7.32837 2.96687 7.33056 2.97327C7.33256 2.97913 7.33578 2.9846 7.33393 2.98163C7.33007 2.97542 7.31122 2.94632 7.25903 2.88855L10.227 0.206908ZM11.3587 3.34647V3.91247H7.35869V3.34647H11.3587ZM9.35869 5.91247H6.99068V1.91247H9.35869V5.91247ZM6.99068 5.91247H4.62266V1.91247H6.99068V5.91247ZM2.62266 3.91247V3.41842H6.62266V3.91247H2.62266ZM2.62266 3.41842C2.62266 3.06363 2.66099 2.54424 2.74277 2.18188L6.64464 3.06247C6.6526 3.02719 6.65248 3.01927 6.64808 3.0513C6.64453 3.07721 6.64013 3.11512 6.6359 3.16206C6.62701 3.26069 6.62266 3.35649 6.62266 3.41842H2.62266ZM2.746 2.16782C3.1191 0.568439 4.36831 -0.703972 5.9447 -1.11627L6.95684 2.75356C6.80932 2.79214 6.67561 2.92994 6.64141 3.07654L2.746 2.16782ZM5.95986 -1.12017C6.39619 -1.23065 6.84772 -1.24636 7.21119 -1.22713C7.57775 -1.20774 8.02517 -1.14377 8.45076 -0.989037L7.08401 2.77022C7.10593 2.77819 7.11829 2.78138 7.11929 2.78164C7.12071 2.782 7.11569 2.78067 7.10403 2.77858C7.07932 2.77416 7.04279 2.76955 6.99986 2.76728C6.95683 2.76501 6.92166 2.76583 6.89994 2.76739C6.8898 2.76812 6.88716 2.76869 6.89179 2.76799C6.89585 2.76739 6.9132 2.76467 6.94168 2.75746L5.95986 -1.12017ZM13.8514 4.4301C13.8884 4.6214 14.2286 7.22798 14.5407 9.63624C14.7015 10.8772 14.8611 12.1157 14.9806 13.052C15.0402 13.5199 15.0901 13.9139 15.1252 14.1956C15.1426 14.3359 15.1568 14.4513 15.1667 14.535C15.1716 14.5761 15.176 14.6145 15.1795 14.6461C15.1811 14.6612 15.1833 14.6815 15.1853 14.7028C15.1862 14.7131 15.1878 14.7307 15.1894 14.7517C15.1898 14.7573 15.1949 14.8218 15.1949 14.9016H11.1949C11.1949 15.0369 11.2129 15.1698 11.203 15.0793C11.2017 15.067 11.199 15.0437 11.1946 15.0068C11.186 14.9343 11.173 14.8277 11.1558 14.6895C11.1215 14.414 11.0722 14.0249 11.0127 13.5582C10.8937 12.6255 10.7345 11.3898 10.5739 10.1503C10.4132 8.91085 10.2514 7.66878 10.127 6.72331C9.99386 5.7106 9.91955 5.16559 9.92404 5.18879L13.8514 4.4301ZM15.1949 14.9016C15.1949 15.367 15.0387 15.724 14.973 15.8632C14.8849 16.0502 14.7544 16.2659 14.5689 16.4694L11.6125 13.775C11.4838 13.9162 11.4054 14.0504 11.3551 14.157C11.3271 14.2164 11.2937 14.2972 11.2646 14.3984C11.2393 14.4862 11.1949 14.6652 11.1949 14.9016H15.1949ZM14.5762 16.4614L14.4767 16.5717L11.5058 13.8934L11.6052 13.783L14.5762 16.4614ZM12.9912 17.2325H6.99068V13.2325H12.9912V17.2325ZM6.99068 17.2325H0.994865V13.2325H6.99068V17.2325ZM-0.479318 16.5841L-0.602454 16.4498L2.34591 13.7466L2.46905 13.881L-0.479318 16.5841ZM-0.604373 16.4477L-0.722774 16.3182L2.22943 13.6192L2.34783 13.7487L-0.604373 16.4477ZM-1.22948 14.7071L-0.552232 9.57468L3.41339 10.098L2.73614 15.2304L-1.22948 14.7071ZM-0.55254 9.57702C-0.367676 8.1632 -0.198238 6.87795 -0.0750476 5.9452C-0.013032 5.47563 0.0361684 5.10369 0.0711748 4.83861C0.0884931 4.70748 0.101861 4.6061 0.110878 4.53737C0.115415 4.5028 0.11869 4.47771 0.120769 4.46161C0.121276 4.45769 0.121673 4.4546 0.121974 4.45224C0.122123 4.45108 0.122237 4.45019 0.122319 4.44954C0.122403 4.44888 0.122438 4.4486 0.122432 4.44864C0.122428 4.44868 0.122408 4.44884 0.122373 4.44912C0.122339 4.4494 0.122282 4.44985 0.122207 4.45047C0.122086 4.45145 0.121773 4.45401 0.121357 4.45754C0.121096 4.45975 0.120045 4.46867 0.118809 4.48038C0.118262 4.48556 0.116866 4.49893 0.115369 4.51611C0.114614 4.525 0.112902 4.54724 0.111997 4.56054C0.110704 4.5824 0.108286 4.6469 0.107832 4.68953H4.10783C4.10738 4.73219 4.10496 4.79675 4.10366 4.81868C4.10275 4.83205 4.10103 4.85438 4.10027 4.86339C4.09875 4.88078 4.09733 4.89443 4.09674 4.89997C4.09543 4.91239 4.09427 4.9223 4.09386 4.92578C4.09285 4.93432 4.09191 4.94183 4.09144 4.94559C4.09035 4.95434 4.08905 4.96441 4.0878 4.97413C4.08519 4.99433 4.08149 5.02266 4.07689 5.05774C4.06763 5.12832 4.05406 5.23121 4.03674 5.36232C4.00249 5.62172 3.95164 6.00615 3.89052 6.46893C3.76743 7.40088 3.59825 8.68422 3.4137 10.0956L-0.55254 9.57702ZM0.684655 3.28434C0.912662 3.08591 1.29607 2.86167 1.42831 2.8085C1.50391 2.78288 1.62922 2.74762 1.67829 2.73618C1.76821 2.7164 1.83966 2.70741 1.8631 2.70451C1.92057 2.69741 1.96595 2.69444 1.97801 2.69364C2.01142 2.69144 2.0384 2.69052 2.04613 2.69025C2.06765 2.68952 2.08757 2.68914 2.09877 2.68894C2.12461 2.68849 2.15668 2.68813 2.19087 2.68782C2.26109 2.68719 2.36119 2.68659 2.48601 2.68603C2.73661 2.68489 3.09685 2.68384 3.53937 2.68294C4.42488 2.68114 5.64462 2.67994 6.98594 2.67994V6.67994C5.64667 6.67994 4.42972 6.68113 3.54751 6.68293C3.10617 6.68383 2.74979 6.68487 2.50414 6.68599C2.38084 6.68654 2.28791 6.68711 2.22683 6.68766C2.19538 6.68794 2.17723 6.68818 2.16912 6.68832C2.16335 6.68842 2.17035 6.68834 2.18313 6.68791C2.1865 6.68779 2.21016 6.68702 2.24129 6.68497C2.25221 6.68425 2.29672 6.68135 2.35358 6.67432C2.37672 6.67146 2.44794 6.66251 2.53768 6.64277C2.58667 6.63134 2.71191 6.59611 2.78746 6.5705C2.91965 6.51735 3.30302 6.29312 3.53101 6.09472L0.684655 3.28434ZM6.98594 2.67994H11.8593V6.67994H6.98594V2.67994ZM13.8128 4.2513L13.8413 4.38081L9.9342 5.23808L9.90579 5.10857L13.8128 4.2513Z" fill="black" mask="url(#path-1-inside-1_275_787)"/>
</svg>
