<svg width="49" height="49" viewBox="0 0 49 49" fill="none" xmlns="http://www.w3.org/2000/svg">
<path d="M8.82704 1H48.102V40.1835H39.39V16.5116L39.069 16.3629C38.033 17.4294 37.017 18.5168 35.955 19.5553C35.271 20.2236 34.478 20.7803 33.804 21.4576C32.204 23.0618 30.6831 24.7347 29.0791 26.3299C27.6491 27.7525 26.1151 29.0703 24.6911 30.4989C23.0081 32.1878 21.4241 33.9734 19.7431 35.6634C18.3481 37.06 16.838 38.3519 15.443 39.7535C13.734 41.4714 12.104 43.266 10.418 45.0078C9.42605 46.0334 8.37203 47.003 7.39003 48.0326C6.85803 48.5922 6.46706 48.6999 5.88506 48.0665C4.31306 46.3546 2.67104 44.7066 1.10204 42.9917C1.02885 42.8467 0.994015 42.6855 1.00084 42.5233C1.00767 42.3611 1.05593 42.2033 1.14104 42.065C3.17204 39.9491 5.25404 37.881 7.30504 35.7801C8.83004 34.2209 10.3 32.6068 11.849 31.0735C13.371 29.5681 15.0021 28.1715 16.5141 26.6571C18.1691 25.0011 19.714 23.2344 21.361 21.5694C22.838 20.079 24.422 18.6943 25.903 17.2089C27.528 15.5788 29.07 13.866 30.689 12.2299C31.425 11.4857 32.26 10.8383 33.05 10.1469L32.886 9.78481H8.82704V1Z" fill="white" stroke="white"/>
</svg>
