<svg width="603" height="487" viewBox="0 0 603 487" fill="none" xmlns="http://www.w3.org/2000/svg">
<circle cx="292.009" cy="243.009" r="242.509" stroke="#DBD3FE"/>
<g filter="url(#filter0_d_3090_606)">
<circle cx="538.508" cy="257.509" r="34.5" fill="#31B1E8"/>
</g>
<g clip-path="url(#clip0_3090_606)">
<path d="M557.34 248.009L541.507 263.843L533.174 255.509L520.674 268.009" stroke="white" stroke-width="2.5" stroke-linecap="round" stroke-linejoin="round"/>
<path d="M547.342 248.009H557.342V258.009" stroke="white" stroke-width="2.5" stroke-linecap="round" stroke-linejoin="round"/>
</g>
<g filter="url(#filter1_d_3090_606)">
<circle cx="54.5" cy="277.5" r="34.5" fill="#FFBB00"/>
</g>
<path d="M42.5679 259.104C42.4203 259.17 42.2892 259.227 42.281 259.244C42.2728 259.26 42.24 260.285 42.2154 261.523L42.1744 263.778L38.7554 263.802L35.3363 263.819L35.1724 264.032L35.0002 264.253V278.241C35.0002 293.663 34.9756 292.753 35.5167 293.778C35.8201 294.352 36.517 295.082 37.0581 295.401C37.2549 295.516 37.6649 295.705 37.9518 295.811L38.4848 296H54.678H70.8712L71.4615 295.787C72.9045 295.254 73.954 294.065 74.2656 292.614C74.3312 292.302 74.3558 287.678 74.3558 275.83V259.481L74.159 259.252L73.9622 259.022L58.3922 259.006C45.1178 258.989 42.7893 259.006 42.5679 259.104ZM73.0275 276.388L73.0029 292.474L72.7324 293.024C72.4044 293.688 71.8305 294.237 71.1745 294.5L70.7072 294.688L56.5474 294.713C48.75 294.721 42.3793 294.721 42.3793 294.705C42.3793 294.68 42.5433 294.426 42.7483 294.122C42.9451 293.819 43.1993 293.327 43.2976 293.024L43.4862 292.474L43.5108 276.38L43.5272 260.293H58.2856H73.0439L73.0275 276.388ZM42.2154 278.347C42.2154 286.555 42.1826 291.786 42.1334 292.13C41.707 295.065 37.8289 295.631 36.5744 292.942L36.353 292.474L36.3284 278.798L36.312 265.13H39.2637H42.2154V278.347Z" fill="white"/>
<path d="M48.6107 265.401C48.1926 265.614 48.2008 265.565 48.2254 270.763L48.2417 275.609L48.4385 275.822L48.6353 276.035H53.1202C57.5395 276.035 57.6133 276.035 57.8265 275.863L58.0397 275.699V270.706C58.0397 265.926 58.0315 265.713 57.8839 265.532L57.7281 265.335L53.2678 265.319C49.7996 265.303 48.7747 265.319 48.6107 265.401ZM56.7278 270.665V274.723H53.1202H49.5126V270.722C49.5126 268.517 49.5372 266.688 49.57 266.664C49.5946 266.631 51.218 266.606 53.1776 266.606H56.7278V270.665Z" fill="white"/>
<path d="M60.5407 265.393C60.1226 265.631 60.0488 266.082 60.3768 266.401L60.5735 266.606H64.2631H67.9527L68.1167 266.393C68.4037 266.024 68.3135 265.606 67.9035 265.393C67.6493 265.253 60.7785 265.262 60.5407 265.393Z" fill="white"/>
<path d="M60.376 270.255C60.048 270.583 60.13 271.042 60.5564 271.263C60.8105 271.403 67.6486 271.403 67.9028 271.263C68.3127 271.05 68.4029 270.632 68.1159 270.263L67.9519 270.05H64.2624H60.5728L60.376 270.255Z" fill="white"/>
<path d="M60.5407 274.813C60.1226 275.051 60.0488 275.51 60.3768 275.83L60.5735 276.035H64.2303H67.8871L68.0839 275.83C68.3299 275.592 68.3463 275.223 68.1331 274.961L67.9773 274.764L64.3369 274.748C61.7952 274.732 60.6555 274.756 60.5407 274.813Z" fill="white"/>
<path d="M48.5044 279.577C48.3076 279.733 48.1928 280.102 48.2748 280.323C48.447 280.774 47.8403 280.75 58.2531 280.75H67.8624L68.0756 280.553C68.338 280.307 68.3544 279.987 68.1166 279.692L67.9526 279.479H58.2941C50.7017 279.479 48.611 279.503 48.5044 279.577Z" fill="white"/>
<path d="M48.4792 284.341C48.3152 284.48 48.2578 284.612 48.2578 284.808C48.2578 285.005 48.3152 285.136 48.4792 285.276L48.7006 285.464H58.2935H67.8864L68.0832 285.259C68.2144 285.136 68.2882 284.964 68.2882 284.808C68.2882 284.653 68.2144 284.48 68.0832 284.357L67.8864 284.152H58.2935H48.7006L48.4792 284.341Z" fill="white"/>
<path d="M48.7333 288.883C48.3479 288.982 48.1593 289.334 48.2905 289.728C48.3397 289.867 48.4463 290.015 48.5283 290.056C48.6267 290.105 52.1851 290.138 58.318 290.138H67.9519L68.1159 289.925C68.3537 289.629 68.3373 289.31 68.0749 289.064L67.8617 288.867L58.3836 288.859C53.169 288.85 48.8235 288.859 48.7333 288.883Z" fill="white"/>
<defs>
<filter id="filter0_d_3090_606" x="484.008" y="202.009" width="119" height="119" filterUnits="userSpaceOnUse" color-interpolation-filters="sRGB">
<feFlood flood-opacity="0" result="BackgroundImageFix"/>
<feColorMatrix in="SourceAlpha" type="matrix" values="0 0 0 0 0 0 0 0 0 0 0 0 0 0 0 0 0 0 127 0" result="hardAlpha"/>
<feOffset dx="5" dy="4"/>
<feGaussianBlur stdDeviation="12.5"/>
<feComposite in2="hardAlpha" operator="out"/>
<feColorMatrix type="matrix" values="0 0 0 0 0 0 0 0 0 0 0 0 0 0 0 0 0 0 0.12 0"/>
<feBlend mode="normal" in2="BackgroundImageFix" result="effect1_dropShadow_3090_606"/>
<feBlend mode="normal" in="SourceGraphic" in2="effect1_dropShadow_3090_606" result="shape"/>
</filter>
<filter id="filter1_d_3090_606" x="0" y="222" width="119" height="119" filterUnits="userSpaceOnUse" color-interpolation-filters="sRGB">
<feFlood flood-opacity="0" result="BackgroundImageFix"/>
<feColorMatrix in="SourceAlpha" type="matrix" values="0 0 0 0 0 0 0 0 0 0 0 0 0 0 0 0 0 0 127 0" result="hardAlpha"/>
<feOffset dx="5" dy="4"/>
<feGaussianBlur stdDeviation="12.5"/>
<feComposite in2="hardAlpha" operator="out"/>
<feColorMatrix type="matrix" values="0 0 0 0 0 0 0 0 0 0 0 0 0 0 0 0 0 0 0.12 0"/>
<feBlend mode="normal" in2="BackgroundImageFix" result="effect1_dropShadow_3090_606"/>
<feBlend mode="normal" in="SourceGraphic" in2="effect1_dropShadow_3090_606" result="shape"/>
</filter>
<clipPath id="clip0_3090_606">
<rect width="40" height="40" fill="white" transform="translate(519.008 238.009)"/>
</clipPath>
</defs>
</svg>
