<svg width="123" height="31" viewBox="0 0 123 31" fill="none" xmlns="http://www.w3.org/2000/svg">
<path d="M44.248 24.3197C42.6267 24.3197 41.1867 23.9784 39.928 23.2957C38.6694 22.5917 37.6667 21.6317 36.92 20.4157C36.1947 19.1997 35.832 17.8131 35.832 16.2557C35.832 14.7197 36.184 13.3544 36.888 12.1597C37.6134 10.9437 38.5947 9.98372 39.832 9.27972C41.0694 8.55439 42.4454 8.19172 43.96 8.19172C45.4534 8.19172 46.7654 8.53305 47.896 9.21572C49.048 9.87705 49.944 10.7944 50.584 11.9677C51.2454 13.1197 51.576 14.4317 51.576 15.9037C51.576 16.1811 51.5547 16.4691 51.512 16.7677C51.4907 17.0451 51.4374 17.3651 51.352 17.7277L38.36 17.7597V14.6237L49.4 14.5917L47.704 15.9037C47.6614 14.9864 47.4907 14.2184 47.192 13.5997C46.9147 12.9811 46.4987 12.5117 45.944 12.1917C45.4107 11.8504 44.7494 11.6797 43.96 11.6797C43.128 11.6797 42.4027 11.8717 41.784 12.2557C41.1654 12.6184 40.6854 13.1411 40.344 13.8237C40.024 14.4851 39.864 15.2744 39.864 16.1917C39.864 17.1304 40.0347 17.9517 40.376 18.6557C40.7387 19.3384 41.2507 19.8717 41.912 20.2557C42.5734 20.6184 43.3414 20.7997 44.216 20.7997C45.0054 20.7997 45.72 20.6717 46.36 20.4157C47 20.1384 47.5547 19.7331 48.024 19.1997L50.488 21.6637C49.7414 22.5384 48.824 23.1997 47.736 23.6477C46.6694 24.0957 45.5067 24.3197 44.248 24.3197Z" fill="white"/>
<path d="M63.7045 23.9997L57.7205 16.0317L63.6725 8.54372H68.5045L61.5285 16.9917L61.6885 14.9437L68.8245 23.9997H63.7045ZM53.8485 23.9997V0.863718H58.0405V23.9997H53.8485Z" fill="white"/>
<path d="M80.3348 23.9997V15.1357C80.3348 14.2184 80.0468 13.4717 79.4708 12.8957C78.8948 12.3197 78.1481 12.0317 77.2308 12.0317C76.6334 12.0317 76.1001 12.1597 75.6308 12.4157C75.1614 12.6717 74.7881 13.0344 74.5108 13.5037C74.2548 13.9731 74.1268 14.5171 74.1268 15.1357L72.4948 14.3037C72.4948 13.0877 72.7508 12.0317 73.2628 11.1357C73.7961 10.2184 74.5214 9.50372 75.4388 8.99172C76.3774 8.47972 77.4334 8.22372 78.6068 8.22372C79.7374 8.22372 80.7508 8.51172 81.6468 9.08772C82.5428 9.64239 83.2468 10.3784 83.7588 11.2957C84.2708 12.1917 84.5268 13.1624 84.5268 14.2077V23.9997H80.3348ZM69.9348 23.9997V8.54372H74.1268V23.9997H69.9348Z" fill="white"/>
<path d="M87.5835 23.9997V8.54372H91.8075V23.9997H87.5835ZM89.6955 6.04772C89.0129 6.04772 88.4475 5.82372 87.9995 5.37572C87.5515 4.90639 87.3275 4.33039 87.3275 3.64772C87.3275 2.98638 87.5515 2.42105 87.9995 1.95172C88.4475 1.48239 89.0129 1.24772 89.6955 1.24772C90.3995 1.24772 90.9649 1.48239 91.3915 1.95172C91.8395 2.42105 92.0635 2.98638 92.0635 3.64772C92.0635 4.33039 91.8395 4.90639 91.3915 5.37572C90.9649 5.82372 90.3995 6.04772 89.6955 6.04772Z" fill="white"/>
<path d="M97.249 23.9997V6.87972C97.249 5.64238 97.5157 4.55438 98.049 3.61572C98.5824 2.65572 99.3397 1.89839 100.321 1.34372C101.302 0.789052 102.454 0.511719 103.777 0.511719C104.78 0.511719 105.644 0.682385 106.369 1.02372C107.094 1.36505 107.745 1.83439 108.321 2.43172L105.665 5.11972C105.43 4.88505 105.174 4.70372 104.897 4.57572C104.62 4.44772 104.268 4.38372 103.841 4.38372C103.073 4.38372 102.476 4.59705 102.049 5.02372C101.644 5.42905 101.441 6.01572 101.441 6.78372V23.9997H97.249ZM93.665 12.2237V8.54372H106.017V12.2237H93.665Z" fill="white"/>
<path d="M112.776 24.1277L106.312 8.54372H110.856L115.144 20.4477H113.608L118.056 8.54372H122.632L115.752 24.1277H112.776ZM108.488 30.4637L113.192 20.5117L115.752 24.1277L112.936 30.4637H108.488Z" fill="white"/>
<path d="M11.5 11.8777L15.9572 7.83766H37.5L29.8095 10.4724C24.5216 11.8777 30.3176 10.2984 24.5216 11.8777L18.4042 20.3089C16 23.5 16.6564 23.1194 15.9572 23.1194H10.7137L18.4042 11.8777H11.5Z" fill="white"/>
<path d="M27.2972 6.04255C25.2861 2.9326 23.2907 1.66186 19.7482 0.621846C16.2056 -0.418169 12.4094 -0.147095 9.04874 1.38585C5.6881 2.9188 2.98583 5.61199 1.43254 8.97646C-0.120744 12.3409 -0.422062 16.1536 0.583294 19.7223C1.58865 23.291 3.83402 26.3791 6.91176 28.4259C9.98949 30.4728 13.6955 31.3427 17.357 30.8777C21.0185 30.4127 24.3927 28.6436 26.8671 25.8917C29.3414 23.1397 30.7517 19.5873 30.8421 15.8795L27.0383 17.9901C26.4893 20.5226 25.693 21.1371 23.8673 23.1677C22.0416 25.1982 19.5519 26.5036 16.8502 26.8467C14.1485 27.1898 11.4139 26.5479 9.14292 25.0376C6.87196 23.5273 5.21517 21.2487 4.47335 18.6155C3.73153 15.9823 3.95386 13.169 5.09998 10.6865C6.2461 8.20395 8.24002 6.21673 10.7197 5.08562C13.1994 3.9545 16.0006 3.75449 18.6145 4.52188C21.2284 5.28927 20.5828 5.06716 22.5659 5.939L27.2972 6.04255Z" fill="white"/>
</svg>
