<svg width="228" height="68" viewBox="0 0 228 68" fill="none" xmlns="http://www.w3.org/2000/svg">
<path d="M80.86 29V7.4H84.76V29H80.86ZM82.72 20.33V17.24H94.87V20.33H82.72ZM82.72 10.49V7.4H95.59V10.49H82.72ZM102.601 29.3C101.541 29.3 100.621 29.08 99.8406 28.64C99.0806 28.18 98.4906 27.56 98.0706 26.78C97.6706 26 97.4706 25.12 97.4706 24.14V13.7H101.251V23.36C101.251 24.3 101.481 25.01 101.941 25.49C102.421 25.97 103.091 26.21 103.951 26.21C104.731 26.21 105.411 26.03 105.991 25.67C106.591 25.31 107.061 24.81 107.401 24.17C107.761 23.51 107.941 22.77 107.941 21.95L108.331 25.61C107.831 26.73 107.081 27.63 106.081 28.31C105.101 28.97 103.941 29.3 102.601 29.3ZM108.061 29V25.4H107.941V13.7H111.751V29H108.061ZM122.392 29.3C120.512 29.3 119.122 28.86 118.222 27.98C117.342 27.08 116.902 25.74 116.902 23.96V10.22L120.712 8.81V24.05C120.712 24.79 120.912 25.34 121.312 25.7C121.712 26.06 122.342 26.24 123.202 26.24C123.542 26.24 123.842 26.22 124.102 26.18C124.382 26.12 124.642 26.05 124.882 25.97V28.91C124.642 29.03 124.302 29.12 123.862 29.18C123.422 29.26 122.932 29.3 122.392 29.3ZM113.962 16.67V13.7H124.882V16.67H113.962ZM132.366 29.3C131.306 29.3 130.386 29.08 129.606 28.64C128.846 28.18 128.256 27.56 127.836 26.78C127.436 26 127.236 25.12 127.236 24.14V13.7H131.016V23.36C131.016 24.3 131.246 25.01 131.706 25.49C132.186 25.97 132.856 26.21 133.716 26.21C134.496 26.21 135.176 26.03 135.756 25.67C136.356 25.31 136.826 24.81 137.166 24.17C137.526 23.51 137.706 22.77 137.706 21.95L138.096 25.61C137.596 26.73 136.846 27.63 135.846 28.31C134.866 28.97 133.706 29.3 132.366 29.3ZM137.826 29V25.4H137.706V13.7H141.516V29H137.826ZM145.522 29V13.7H149.212V17.39H149.302V29H145.522ZM149.302 21.02L148.912 17.39C149.272 16.09 149.882 15.1 150.742 14.42C151.602 13.74 152.632 13.4 153.832 13.4C154.252 13.4 154.552 13.44 154.732 13.52V17.09C154.632 17.05 154.492 17.03 154.312 17.03C154.132 17.01 153.912 17 153.652 17C152.192 17 151.102 17.32 150.382 17.96C149.662 18.6 149.302 19.62 149.302 21.02ZM157.061 29V7.4H160.961V29H157.061ZM158.921 29V25.91H172.601V29H158.921ZM158.921 19.4V16.37H171.551V19.4H158.921ZM158.921 10.49V7.4H172.271V10.49H158.921ZM186.119 29V25.55L186.419 25.61C186.159 26.73 185.529 27.63 184.529 28.31C183.529 28.97 182.339 29.3 180.959 29.3C179.559 29.3 178.339 28.98 177.299 28.34C176.279 27.68 175.489 26.76 174.929 25.58C174.369 24.4 174.089 23.01 174.089 21.41C174.089 19.79 174.379 18.38 174.959 17.18C175.539 15.98 176.349 15.05 177.389 14.39C178.449 13.73 179.679 13.4 181.079 13.4C182.519 13.4 183.709 13.75 184.649 14.45C185.589 15.13 186.169 16.08 186.389 17.3L185.999 17.33V7.4H189.809V29H186.119ZM182.069 26.21C183.289 26.21 184.259 25.79 184.979 24.95C185.719 24.09 186.089 22.89 186.089 21.35C186.089 19.81 185.719 18.62 184.979 17.78C184.239 16.94 183.259 16.52 182.039 16.52C180.839 16.52 179.869 16.95 179.129 17.81C178.389 18.65 178.019 19.84 178.019 21.38C178.019 22.92 178.389 24.11 179.129 24.95C179.869 25.79 180.849 26.21 182.069 26.21ZM200.552 35.45C198.532 35.45 196.872 35.01 195.572 34.13C194.292 33.25 193.532 32.06 193.292 30.56H196.892C197.072 31.08 197.462 31.48 198.062 31.76C198.682 32.06 199.482 32.21 200.462 32.21C201.882 32.21 202.932 31.89 203.612 31.25C204.292 30.63 204.632 29.68 204.632 28.4V25.1L204.902 25.16C204.662 26.28 204.052 27.18 203.072 27.86C202.092 28.52 200.892 28.85 199.472 28.85C198.112 28.85 196.922 28.53 195.902 27.89C194.902 27.25 194.122 26.36 193.562 25.22C193.002 24.06 192.722 22.71 192.722 21.17C192.722 19.61 193.012 18.25 193.592 17.09C194.172 15.93 194.982 15.03 196.022 14.39C197.082 13.73 198.312 13.4 199.712 13.4C201.152 13.4 202.332 13.75 203.252 14.45C204.192 15.13 204.772 16.08 204.992 17.3L204.752 17.33V13.7H208.442V28.37C208.442 30.55 207.732 32.27 206.312 33.53C204.912 34.81 202.992 35.45 200.552 35.45ZM200.702 25.85C201.922 25.85 202.892 25.44 203.612 24.62C204.352 23.78 204.722 22.61 204.722 21.11C204.722 19.61 204.352 18.45 203.612 17.63C202.872 16.81 201.892 16.4 200.672 16.4C199.472 16.4 198.502 16.82 197.762 17.66C197.022 18.48 196.652 19.64 196.652 21.14C196.652 22.64 197.022 23.8 197.762 24.62C198.502 25.44 199.482 25.85 200.702 25.85ZM219.335 29.3C217.715 29.3 216.295 28.96 215.075 28.28C213.875 27.6 212.935 26.66 212.255 25.46C211.595 24.26 211.265 22.88 211.265 21.32C211.265 19.76 211.595 18.39 212.255 17.21C212.935 16.01 213.875 15.08 215.075 14.42C216.275 13.74 217.675 13.4 219.275 13.4C220.795 13.4 222.115 13.72 223.235 14.36C224.355 14.98 225.225 15.86 225.845 17C226.465 18.14 226.775 19.47 226.775 20.99C226.775 21.27 226.765 21.53 226.745 21.77C226.725 22.01 226.695 22.25 226.655 22.49H213.605V19.85H223.745L222.965 20.57C222.965 19.13 222.635 18.05 221.975 17.33C221.315 16.61 220.395 16.25 219.215 16.25C217.935 16.25 216.915 16.69 216.155 17.57C215.415 18.45 215.045 19.72 215.045 21.38C215.045 23.02 215.415 24.28 216.155 25.16C216.915 26.02 217.985 26.45 219.365 26.45C220.165 26.45 220.865 26.3 221.465 26C222.065 25.7 222.505 25.24 222.785 24.62H226.355C225.855 26.06 225.005 27.2 223.805 28.04C222.625 28.88 221.135 29.3 219.335 29.3Z" fill="white"/>
<path d="M82.538 56V54.128H85.886C86.87 54.128 87.71 53.93 88.406 53.534C89.102 53.138 89.63 52.586 89.99 51.878C90.362 51.17 90.548 50.36 90.548 49.448C90.548 48.548 90.362 47.756 89.99 47.072C89.63 46.388 89.102 45.86 88.406 45.488C87.722 45.104 86.882 44.912 85.886 44.912H82.574V43.04H85.886C87.302 43.04 88.538 43.304 89.594 43.832C90.65 44.36 91.466 45.11 92.042 46.082C92.63 47.042 92.924 48.176 92.924 49.484C92.924 50.792 92.63 51.938 92.042 52.922C91.454 53.894 90.632 54.65 89.576 55.19C88.532 55.73 87.308 56 85.904 56H82.538ZM81.116 56V43.04H83.456V56H81.116ZM94.706 56V46.82H96.974V56H94.706ZM94.598 45.308V42.806H97.064V45.308H94.598ZM103.343 59.87C102.131 59.87 101.135 59.606 100.355 59.078C99.5875 58.55 99.1315 57.836 98.9875 56.936H101.147C101.255 57.248 101.489 57.488 101.849 57.656C102.221 57.836 102.701 57.926 103.289 57.926C104.141 57.926 104.771 57.734 105.179 57.35C105.587 56.978 105.791 56.408 105.791 55.64V53.66L105.953 53.696C105.809 54.368 105.443 54.908 104.855 55.316C104.267 55.712 103.547 55.91 102.695 55.91C101.879 55.91 101.165 55.718 100.553 55.334C99.9535 54.95 99.4855 54.416 99.1495 53.732C98.8135 53.036 98.6455 52.226 98.6455 51.302C98.6455 50.366 98.8195 49.55 99.1675 48.854C99.5155 48.158 100.001 47.618 100.625 47.234C101.261 46.838 101.999 46.64 102.839 46.64C103.703 46.64 104.411 46.85 104.963 47.27C105.527 47.678 105.875 48.248 106.007 48.98L105.863 48.998V46.82H108.077V55.622C108.077 56.93 107.651 57.962 106.799 58.718C105.959 59.486 104.807 59.87 103.343 59.87ZM103.433 54.11C104.165 54.11 104.747 53.864 105.179 53.372C105.623 52.868 105.845 52.166 105.845 51.266C105.845 50.366 105.623 49.67 105.179 49.178C104.735 48.686 104.147 48.44 103.415 48.44C102.695 48.44 102.113 48.692 101.669 49.196C101.225 49.688 101.003 50.384 101.003 51.284C101.003 52.184 101.225 52.88 101.669 53.372C102.113 53.864 102.701 54.11 103.433 54.11ZM110.491 56V46.82H112.759V56H110.491ZM110.383 45.308V42.806H112.849V45.308H110.383ZM119.183 56.18C118.055 56.18 117.221 55.916 116.681 55.388C116.153 54.848 115.889 54.044 115.889 52.976V44.732L118.175 43.886V53.03C118.175 53.474 118.295 53.804 118.535 54.02C118.775 54.236 119.153 54.344 119.669 54.344C119.873 54.344 120.053 54.332 120.209 54.308C120.377 54.272 120.533 54.23 120.677 54.182V55.946C120.533 56.018 120.329 56.072 120.065 56.108C119.801 56.156 119.507 56.18 119.183 56.18ZM114.125 48.602V46.82H120.677V48.602H114.125ZM127.975 56C127.915 55.76 127.867 55.496 127.831 55.208C127.807 54.92 127.795 54.572 127.795 54.164H127.723V49.808C127.723 49.328 127.585 48.968 127.309 48.728C127.045 48.476 126.637 48.35 126.085 48.35C125.545 48.35 125.113 48.452 124.789 48.656C124.477 48.848 124.285 49.13 124.213 49.502H122.035C122.131 48.65 122.539 47.96 123.259 47.432C123.979 46.904 124.945 46.64 126.157 46.64C127.417 46.64 128.371 46.928 129.019 47.504C129.667 48.068 129.991 48.902 129.991 50.006V54.164C129.991 54.452 130.009 54.746 130.045 55.046C130.093 55.346 130.159 55.664 130.243 56H127.975ZM124.789 56.18C123.865 56.18 123.127 55.952 122.575 55.496C122.035 55.028 121.765 54.404 121.765 53.624C121.765 52.784 122.071 52.118 122.683 51.626C123.295 51.134 124.159 50.804 125.275 50.636L128.137 50.204V51.644L125.653 52.022C125.113 52.106 124.705 52.256 124.429 52.472C124.165 52.688 124.033 52.988 124.033 53.372C124.033 53.72 124.159 53.99 124.411 54.182C124.663 54.362 125.011 54.452 125.455 54.452C126.103 54.452 126.643 54.29 127.075 53.966C127.507 53.642 127.723 53.246 127.723 52.778L127.975 54.164C127.735 54.824 127.339 55.328 126.787 55.676C126.247 56.012 125.581 56.18 124.789 56.18ZM132.288 56V43.04H134.556V56H132.288ZM140.3 56V43.04H145.772C146.696 43.04 147.5 43.196 148.184 43.508C148.868 43.82 149.39 44.258 149.75 44.822C150.122 45.386 150.308 46.046 150.308 46.802C150.308 47.546 150.122 48.2 149.75 48.764C149.39 49.328 148.868 49.766 148.184 50.078C147.5 50.39 146.696 50.546 145.772 50.546H142.136V48.764H145.7C146.456 48.764 147.032 48.59 147.428 48.242C147.836 47.894 148.04 47.414 148.04 46.802C148.04 46.19 147.842 45.722 147.446 45.398C147.05 45.062 146.468 44.894 145.7 44.894H142.64V56H140.3ZM147.716 56L141.938 49.376H144.566L150.956 56H147.716ZM155.974 56.18C155.002 56.18 154.15 55.976 153.418 55.568C152.698 55.16 152.134 54.596 151.726 53.876C151.33 53.156 151.132 52.328 151.132 51.392C151.132 50.456 151.33 49.634 151.726 48.926C152.134 48.206 152.698 47.648 153.418 47.252C154.138 46.844 154.978 46.64 155.938 46.64C156.85 46.64 157.642 46.832 158.314 47.216C158.986 47.588 159.508 48.116 159.88 48.8C160.252 49.484 160.438 50.282 160.438 51.194C160.438 51.362 160.432 51.518 160.42 51.662C160.408 51.806 160.39 51.95 160.366 52.094H152.536V50.51H158.62L158.152 50.942C158.152 50.078 157.954 49.43 157.558 48.998C157.162 48.566 156.61 48.35 155.902 48.35C155.134 48.35 154.522 48.614 154.066 49.142C153.622 49.67 153.4 50.432 153.4 51.428C153.4 52.412 153.622 53.168 154.066 53.696C154.522 54.212 155.164 54.47 155.992 54.47C156.472 54.47 156.892 54.38 157.252 54.2C157.612 54.02 157.876 53.744 158.044 53.372H160.186C159.886 54.236 159.376 54.92 158.656 55.424C157.948 55.928 157.054 56.18 155.974 56.18ZM167.719 56C167.659 55.76 167.611 55.496 167.575 55.208C167.551 54.92 167.539 54.572 167.539 54.164H167.467V49.808C167.467 49.328 167.329 48.968 167.053 48.728C166.789 48.476 166.381 48.35 165.829 48.35C165.289 48.35 164.857 48.452 164.533 48.656C164.221 48.848 164.029 49.13 163.957 49.502H161.779C161.875 48.65 162.283 47.96 163.003 47.432C163.723 46.904 164.689 46.64 165.901 46.64C167.161 46.64 168.115 46.928 168.763 47.504C169.411 48.068 169.735 48.902 169.735 50.006V54.164C169.735 54.452 169.753 54.746 169.789 55.046C169.837 55.346 169.903 55.664 169.987 56H167.719ZM164.533 56.18C163.609 56.18 162.871 55.952 162.319 55.496C161.779 55.028 161.509 54.404 161.509 53.624C161.509 52.784 161.815 52.118 162.427 51.626C163.039 51.134 163.903 50.804 165.019 50.636L167.881 50.204V51.644L165.397 52.022C164.857 52.106 164.449 52.256 164.173 52.472C163.909 52.688 163.777 52.988 163.777 53.372C163.777 53.72 163.903 53.99 164.155 54.182C164.407 54.362 164.755 54.452 165.199 54.452C165.847 54.452 166.387 54.29 166.819 53.966C167.251 53.642 167.467 53.246 167.467 52.778L167.719 54.164C167.479 54.824 167.083 55.328 166.531 55.676C165.991 56.012 165.325 56.18 164.533 56.18ZM172.032 56V43.04H174.3V56H172.032ZM176.708 56V46.82H178.922V48.98H178.976V56H176.708ZM182.882 56V50.078C182.882 49.538 182.744 49.142 182.468 48.89C182.204 48.626 181.826 48.494 181.334 48.494C180.902 48.494 180.506 48.596 180.146 48.8C179.786 49.004 179.498 49.292 179.282 49.664C179.078 50.036 178.976 50.468 178.976 50.96L178.742 48.854C179.054 48.182 179.504 47.648 180.092 47.252C180.68 46.844 181.364 46.64 182.144 46.64C183.08 46.64 183.818 46.91 184.358 47.45C184.898 47.978 185.168 48.662 185.168 49.502V56H182.882ZM189.056 56V50.078C189.056 49.538 188.924 49.142 188.66 48.89C188.396 48.626 188.018 48.494 187.526 48.494C187.082 48.494 186.68 48.596 186.32 48.8C185.96 49.004 185.678 49.292 185.474 49.664C185.27 50.036 185.168 50.468 185.168 50.96L184.772 48.854C185.072 48.182 185.528 47.648 186.14 47.252C186.752 46.844 187.46 46.64 188.264 46.64C189.224 46.64 189.974 46.916 190.514 47.468C191.066 48.008 191.342 48.728 191.342 49.628V56H189.056Z" fill="#969696"/>
<path d="M10.8486 9.6687L3.8125 13.74V27.5007V41.2722L6.60547 42.8835C8.1416 43.7751 11.0205 45.4294 12.9971 46.5681C14.9736 47.7068 19.0342 50.0486 22.0098 51.7781C24.9961 53.4968 27.5098 54.8826 27.5957 54.8611C27.6924 54.8396 29.916 53.572 32.5479 52.0466C35.1797 50.5212 39.4121 48.0828 41.9473 46.6218C44.4932 45.1609 47.6084 43.3562 48.876 42.6257L51.1855 41.2937V27.5115V13.7292L44.2031 9.70093C40.3682 7.47729 37.1455 5.64038 37.0596 5.61889C36.9736 5.59741 34.8037 6.78979 32.2363 8.26147C29.6797 9.74389 27.5527 10.9578 27.5098 10.9578C27.4775 10.9578 27.4668 15.9099 27.499 21.9685L27.5527 32.9792L29.8623 34.322L32.1719 35.6541L32.2041 27.447L32.2256 19.2507L34.4814 17.9509C35.7168 17.2312 36.8232 16.6082 36.9199 16.5759C37.0273 16.533 38.1445 15.8992 39.4121 15.1687C41.3242 14.073 41.7539 13.8582 41.9473 13.9441C42.2803 14.0945 50.96 19.1218 51.0566 19.2185C51.1533 19.3152 41.8184 24.74 41.7002 24.6648C41.6572 24.6433 41.6357 29.574 41.6572 35.6326L41.6787 46.6433L41.1201 46.3103C40.8086 46.1277 39.7666 45.5369 38.8105 44.989L37.0703 43.99L37.0381 41.2292L37.0059 38.4685L34.4814 39.9294C33.0957 40.7244 30.958 41.9597 29.7334 42.6687L27.5098 43.947L22.7832 41.2292C20.1836 39.7361 18.0566 38.49 18.0566 38.4578C18.0459 38.4255 19.0879 37.8025 20.3555 37.0828L22.665 35.7507V30.3367C22.665 27.3611 22.6436 24.9226 22.6113 24.9226C22.5791 24.9226 21.5908 25.4812 20.4199 26.158C19.2383 26.8347 18.1641 27.4363 18.0244 27.49C17.8848 27.5437 16.7676 28.1667 15.5322 28.8865C14.2969 29.6062 13.2764 30.1863 13.2549 30.1863C13.083 30.1863 3.87695 24.7615 3.94141 24.7078C4.03809 24.6111 12.9756 19.4441 13.1582 19.3796C13.2334 19.3474 14.3398 19.9382 15.6182 20.6794C16.9072 21.4207 17.9707 22.0222 18.0029 22.0222C18.0244 22.0222 18.0459 18.3269 18.0459 13.8044C18.0459 9.28198 18.0137 5.58667 17.9707 5.59741C17.917 5.59741 14.7158 7.43432 10.8486 9.6687Z" fill="#EA7343"/>
</svg>
