<svg width="17" height="19" viewBox="0 0 17 19" fill="none" xmlns="http://www.w3.org/2000/svg">
<path d="M7.95739 0.0919933C6.71129 0.290236 5.66911 1.07188 5.13102 2.20469C4.87047 2.7541 4.76286 3.2752 4.76286 4.04551V4.68555H3.48844C2.1404 4.68555 1.93649 4.71953 1.85153 4.95176C1.7779 5.13301 0.112662 17.9055 0.140982 18.0301C0.157974 18.0924 0.361881 18.3246 0.594107 18.5512L1.01325 18.959H8.49547H15.972L16.2722 18.6928C16.6234 18.3813 16.8839 18.0697 16.8839 17.9621C16.8839 17.7979 15.1847 5.03106 15.1507 4.94043C15.0658 4.71953 14.8506 4.68555 13.5138 4.68555H12.2394V4.04551C12.2394 3.28086 12.1318 2.7541 11.8769 2.22168C11.4125 1.2418 10.6365 0.556446 9.62829 0.239258C9.14684 0.0919933 8.40485 0.024025 7.95739 0.0919933ZM9.43004 1.11719C9.88317 1.27012 10.257 1.51934 10.5968 1.89317C11.1463 2.49356 11.3332 3.03731 11.3332 4.01719V4.68555H8.50114H5.66911V4.10215C5.66911 3.78496 5.70876 3.36016 5.75407 3.16191C5.99762 2.13106 6.82458 1.29844 7.85544 1.03223C8.2859 0.92461 8.98825 0.958595 9.43004 1.11719ZM14.3578 5.74473C14.4088 6.00527 15.9211 17.5203 15.9211 17.6619C15.9211 17.7299 15.8644 17.8488 15.7964 17.9225L15.6775 18.0527H8.50114H1.33044L1.18317 17.8941L1.04157 17.7412L1.85153 11.6807C2.29333 8.34453 2.66149 5.61445 2.66149 5.60313C2.66715 5.59746 5.28962 5.5918 8.49547 5.5918H14.3238L14.3578 5.74473Z" fill="white"/>
</svg>
