<svg width="20" height="20" viewBox="0 0 20 20" fill="none" xmlns="http://www.w3.org/2000/svg">
<path d="M1 19V1M16 12H8C7.068 12 6.602 12 6.235 12.152C5.99218 12.2525 5.77155 12.3999 5.58572 12.5857C5.3999 12.7716 5.25251 12.9922 5.152 13.235C5 13.602 5 14.068 5 15C5 15.932 5 16.398 5.152 16.765C5.25251 17.0078 5.3999 17.2284 5.58572 17.4143C5.77155 17.6001 5.99218 17.7475 6.235 17.848C6.602 18 7.068 18 8 18H16C16.932 18 17.398 18 17.765 17.848C18.0078 17.7475 18.2284 17.6001 18.4143 17.4143C18.6001 17.2284 18.7475 17.0078 18.848 16.765C19 16.398 19 15.932 19 15C19 14.068 19 13.602 18.848 13.235C18.7475 12.9922 18.6001 12.7716 18.4143 12.5857C18.2284 12.3999 18.0078 12.2525 17.765 12.152C17.398 12 16.932 12 16 12ZM12 2H8C7.068 2 6.602 2 6.235 2.152C5.99218 2.25251 5.77155 2.3999 5.58572 2.58572C5.3999 2.77155 5.25251 2.99218 5.152 3.235C5 3.602 5 4.068 5 5C5 5.932 5 6.398 5.152 6.765C5.25251 7.00782 5.3999 7.22845 5.58572 7.41428C5.77155 7.6001 5.99218 7.74749 6.235 7.848C6.602 8 7.068 8 8 8H12C12.932 8 13.398 8 13.765 7.848C14.0078 7.74749 14.2284 7.6001 14.4143 7.41428C14.6001 7.22845 14.7475 7.00782 14.848 6.765C15 6.398 15 5.932 15 5C15 4.068 15 3.602 14.848 3.235C14.7475 2.99218 14.6001 2.77155 14.4143 2.58572C14.2284 2.3999 14.0078 2.25251 13.765 2.152C13.398 2 12.932 2 12 2Z" stroke="black" stroke-width="1.5" stroke-linecap="round" stroke-linejoin="round"/>
</svg>
