<svg width="22" height="22" viewBox="0 0 22 22" fill="none" xmlns="http://www.w3.org/2000/svg">
<path d="M11 7.68495V17.4999M16.4167 7.68495V17.4999M5.58333 7.68495V17.4999M11.4842 1.36478L19.8953 5.59845C20.9179 6.11303 20.5539 7.66437 19.411 7.66437H2.589C1.44608 7.66437 1.08208 6.11303 2.10475 5.59845L10.5158 1.36478C10.666 1.28915 10.8318 1.24976 11 1.24976C11.1682 1.24976 11.334 1.28915 11.4842 1.36478ZM19.125 20.75H2.875C2.44402 20.75 2.0307 20.5787 1.72595 20.274C1.4212 19.9693 1.25 19.5559 1.25 19.125C1.25 18.694 1.4212 18.2806 1.72595 17.9759C2.0307 17.6712 2.44402 17.4999 2.875 17.4999H19.125C19.556 17.4999 19.9693 17.6712 20.274 17.9759C20.5788 18.2806 20.75 18.694 20.75 19.125C20.75 19.5559 20.5788 19.9693 20.274 20.274C19.9693 20.5787 19.556 20.75 19.125 20.75Z" stroke="black" stroke-width="1.5" stroke-linecap="round" stroke-linejoin="round"/>
</svg>
