<svg width="37" height="37" viewBox="0 0 37 37" fill="none" xmlns="http://www.w3.org/2000/svg">
<path d="M6.81602 1H36V29.8729H29.5264V12.4299L29.2879 12.3204C28.5181 13.1062 27.7631 13.9075 26.974 14.6727C26.4657 15.1652 25.8764 15.5754 25.3756 16.0745C24.1867 17.2566 23.0565 18.4893 21.8646 19.6647C20.8021 20.713 19.6622 21.684 18.6041 22.7367C17.3535 23.9812 16.1765 25.297 14.9274 26.5422C13.8908 27.5714 12.7687 28.5233 11.7322 29.5561C10.4623 30.822 9.25106 32.1444 7.99825 33.4279C7.26112 34.1835 6.47792 34.898 5.74823 35.6567C5.35291 36.069 5.06239 36.1484 4.62993 35.6817C3.46183 34.4202 2.24169 33.2059 1.07582 31.9422C1.02144 31.8354 0.995553 31.7166 1.00062 31.5971C1.0057 31.4775 1.04156 31.3613 1.1048 31.2593C2.61397 29.7002 4.16104 28.1764 5.68507 26.6282C6.81825 25.4793 7.91056 24.2899 9.06158 23.1601C10.1925 22.0508 11.4045 21.0217 12.528 19.9058C13.7578 18.6856 14.9058 17.3837 16.1296 16.1569C17.2271 15.0586 18.4042 14.0383 19.5046 12.9438C20.7121 11.7426 21.8579 10.4805 23.061 9.27493C23.6079 8.72655 24.2283 8.24949 24.8153 7.74007L24.6935 7.47322H6.81602V1Z" stroke="#DBDBDB"/>
</svg>
