<svg width="19" height="20" viewBox="0 0 19 20" fill="none" xmlns="http://www.w3.org/2000/svg">
<path d="M5.54688 8V6C5.54688 3.239 6.78588 1 9.54688 1C11.6409 1 12.8599 2.288 13.3269 4.114M9.54688 13.75V13.25M13.5469 13.75V13.25M5.54688 13.75V13.25M1.04688 15.8V11.2C1.04688 10.08 1.04687 9.52 1.26487 9.093C1.45645 8.71632 1.76242 8.41 2.13888 8.218C2.56688 8.001 3.12687 8.001 4.24687 8.001H14.8469C15.9669 8.001 16.5269 8.001 16.9549 8.218C17.3312 8.40974 17.6371 8.71569 17.8289 9.092C18.0469 9.52 18.0469 10.08 18.0469 11.2V15.8C18.0469 16.92 18.0469 17.48 17.8289 17.908C17.6371 18.2843 17.3312 18.5903 16.9549 18.782C16.5269 19 15.9669 19 14.8469 19H4.24687C3.12687 19 2.56688 19 2.13888 18.782C1.76257 18.5903 1.45662 18.2843 1.26487 17.908C1.04687 17.481 1.04688 16.921 1.04688 15.8Z" stroke="black" stroke-width="1.5" stroke-linecap="round" stroke-linejoin="round"/>
</svg>
