<svg width="11" height="11" viewBox="0 0 11 11" fill="none" xmlns="http://www.w3.org/2000/svg">
<path d="M6.48718 0C6.59939 0 6.707 0.044574 6.78634 0.123916C6.86568 0.203259 6.91026 0.31087 6.91026 0.423077V2.67949C6.91026 2.79169 6.86568 2.89931 6.78634 2.97865C6.707 3.05799 6.59939 3.10256 6.48718 3.10256C6.37497 3.10256 6.26736 3.05799 6.18802 2.97865C6.10868 2.89931 6.0641 2.79169 6.0641 2.67949V1.97436H0.423077C0.31087 1.97436 0.203259 1.92979 0.123916 1.85044C0.044574 1.7711 0 1.66349 0 1.55128C0 1.43908 0.044574 1.33146 0.123916 1.25212C0.203259 1.17278 0.31087 1.12821 0.423077 1.12821H6.0641V0.423077C6.0641 0.31087 6.10868 0.203259 6.18802 0.123916C6.26736 0.044574 6.37497 0 6.48718 0ZM8.46154 1.55128C8.46154 1.43908 8.50611 1.33146 8.58545 1.25212C8.6648 1.17278 8.77241 1.12821 8.88462 1.12821H10.5769C10.6891 1.12821 10.7967 1.17278 10.8761 1.25212C10.9554 1.33146 11 1.43908 11 1.55128C11 1.66349 10.9554 1.7711 10.8761 1.85044C10.7967 1.92979 10.6891 1.97436 10.5769 1.97436H8.88462C8.77241 1.97436 8.6648 1.92979 8.58545 1.85044C8.50611 1.7711 8.46154 1.66349 8.46154 1.55128ZM4.79487 3.94872C4.90708 3.94872 5.01469 3.99329 5.09403 4.07263C5.17337 4.15198 5.21795 4.25959 5.21795 4.3718V5.07692H10.5769C10.6891 5.07692 10.7967 5.1215 10.8761 5.20084C10.9554 5.28018 11 5.38779 11 5.5C11 5.61221 10.9554 5.71982 10.8761 5.79916C10.7967 5.8785 10.6891 5.92308 10.5769 5.92308H5.21795V6.62821C5.21795 6.74041 5.17337 6.84802 5.09403 6.92737C5.01469 7.00671 4.90708 7.05128 4.79487 7.05128C4.68266 7.05128 4.57505 7.00671 4.49571 6.92737C4.41637 6.84802 4.3718 6.74041 4.3718 6.62821V4.3718C4.3718 4.25959 4.41637 4.15198 4.49571 4.07263C4.57505 3.99329 4.68266 3.94872 4.79487 3.94872ZM0 5.5C0 5.38779 0.044574 5.28018 0.123916 5.20084C0.203259 5.1215 0.31087 5.07692 0.423077 5.07692H2.67949C2.79169 5.07692 2.89931 5.1215 2.97865 5.20084C3.05799 5.28018 3.10256 5.38779 3.10256 5.5C3.10256 5.61221 3.05799 5.71982 2.97865 5.79916C2.89931 5.8785 2.79169 5.92308 2.67949 5.92308H0.423077C0.31087 5.92308 0.203259 5.8785 0.123916 5.79916C0.044574 5.71982 0 5.61221 0 5.5ZM6.48718 7.89744C6.59939 7.89744 6.707 7.94201 6.78634 8.02135C6.86568 8.10069 6.91026 8.20831 6.91026 8.32051V10.5769C6.91026 10.6891 6.86568 10.7967 6.78634 10.8761C6.707 10.9554 6.59939 11 6.48718 11C6.37497 11 6.26736 10.9554 6.18802 10.8761C6.10868 10.7967 6.0641 10.6891 6.0641 10.5769V9.8718H0.423077C0.31087 9.8718 0.203259 9.82722 0.123916 9.74788C0.044574 9.66854 0 9.56093 0 9.44872C0 9.33651 0.044574 9.2289 0.123916 9.14956C0.203259 9.07022 0.31087 9.02564 0.423077 9.02564H6.0641V8.32051C6.0641 8.20831 6.10868 8.10069 6.18802 8.02135C6.26736 7.94201 6.37497 7.89744 6.48718 7.89744ZM8.46154 9.44872C8.46154 9.33651 8.50611 9.2289 8.58545 9.14956C8.6648 9.07022 8.77241 9.02564 8.88462 9.02564H10.5769C10.6891 9.02564 10.7967 9.07022 10.8761 9.14956C10.9554 9.2289 11 9.33651 11 9.44872C11 9.56093 10.9554 9.66854 10.8761 9.74788C10.7967 9.82722 10.6891 9.8718 10.5769 9.8718H8.88462C8.77241 9.8718 8.6648 9.82722 8.58545 9.74788C8.50611 9.66854 8.46154 9.56093 8.46154 9.44872Z" fill="white"/>
</svg>
