<svg width="14" height="14" viewBox="0 0 14 14" fill="none" xmlns="http://www.w3.org/2000/svg">
<path d="M4.92842 1.12302V12.8761M12.879 5.27117H1.12595M0.780273 5.20203C0.780273 3.65339 0.780274 2.87907 1.08171 2.28727C1.34683 1.76694 1.76987 1.3439 2.2902 1.07878C2.882 0.777344 3.65632 0.777344 5.20496 0.777344H8.80003C10.3487 0.777344 11.123 0.777344 11.7148 1.07878C12.2351 1.3439 12.6582 1.76694 12.9233 2.28727C13.2247 2.87907 13.2247 3.65339 13.2247 5.20203V8.7971C13.2247 10.3457 13.2247 11.1201 12.9233 11.7119C12.6582 12.2322 12.2351 12.6552 11.7148 12.9204C11.123 13.2218 10.3487 13.2218 8.80003 13.2218H5.20496C3.65632 13.2218 2.882 13.2218 2.2902 12.9204C1.76987 12.6552 1.34683 12.2322 1.08171 11.7119C0.780274 11.1201 0.780273 10.3457 0.780273 8.7971V5.20203Z" stroke="#181927" stroke-linecap="round" stroke-linejoin="round"/>
</svg>
