<svg width="17" height="18" viewBox="0 0 17 18" fill="none" xmlns="http://www.w3.org/2000/svg">
<path d="M7.96786 0.010828C6.75099 0.151533 5.73442 0.612342 4.88791 1.41084C4.13587 2.11789 3.70505 2.87066 3.48209 3.85911C3.39139 4.27419 3.39139 5.20285 3.48209 5.61793C3.70505 6.60638 4.13965 7.36267 4.88791 8.06619C5.6475 8.78027 6.4789 9.19887 7.55216 9.40641C7.99431 9.49083 8.98821 9.49083 9.44926 9.40641C10.4696 9.21646 11.3161 8.79434 12.0719 8.09785C12.8353 7.39784 13.2888 6.61693 13.5118 5.61793C13.6025 5.20285 13.6025 4.27419 13.5118 3.85911C13.3644 3.20835 13.0961 2.60684 12.7106 2.06512C12.4725 1.73095 11.7356 1.04149 11.3842 0.826918C10.7757 0.450532 10.1182 0.193745 9.47193 0.0776634C9.16583 0.0213814 8.23239 -0.0208302 7.96786 0.010828ZM9.40391 1.1435C10.1522 1.32642 10.7833 1.65708 11.2972 2.13196C11.8074 2.60684 12.1513 3.17669 12.3629 3.89429C12.4725 4.27771 12.4725 5.19933 12.3629 5.58275C12.1513 6.30034 11.8074 6.8702 11.2972 7.34508C10.7871 7.81996 10.1748 8.14006 9.40391 8.33705C8.99199 8.43906 8.00187 8.43906 7.58995 8.33705C6.81902 8.14006 6.20681 7.81996 5.69663 7.34508C4.2379 5.98376 4.14343 3.82745 5.48122 2.34653C6.05942 1.70632 7.00797 1.21034 7.89228 1.0837C8.26263 1.03094 9.06757 1.0626 9.40391 1.1435Z" fill="#141414"/>
<path d="M6.47063 10.5989C4.35434 10.8381 2.44591 11.9532 1.2177 13.6733C0.4959 14.6794 0.0839797 15.8683 0.012177 17.1382C-0.0104975 17.5286 -0.00671838 17.5744 0.0688633 17.7116C0.12177 17.81 0.197352 17.8804 0.299387 17.9296C0.446772 18 0.503458 18 8.5 18C16.4965 18 16.5532 18 16.7006 17.9296C16.8026 17.8804 16.8782 17.81 16.9311 17.7116C17.0067 17.5744 17.0105 17.5286 16.9878 17.1382C16.8896 15.404 16.1791 13.8844 14.8867 12.6391C13.6622 11.4607 12.0826 10.7431 10.3555 10.5778C9.78489 10.525 6.99592 10.5391 6.47063 10.5989ZM10.2951 11.6331C12.8006 11.9004 14.9018 13.5432 15.6009 15.7874C15.7143 16.1427 15.8314 16.695 15.8314 16.8603V16.9447H8.5H1.16858V16.8427C1.16858 16.6527 1.32352 15.9914 1.44823 15.6291C1.86015 14.4613 2.6462 13.4552 3.72702 12.706C4.11248 12.4386 4.96656 12.0306 5.45784 11.8828C5.83197 11.7668 6.27412 11.6788 6.6747 11.6366C7.06017 11.5944 9.90204 11.5944 10.2951 11.6331Z" fill="#141414"/>
</svg>
